<?xml version="1.0" encoding="UTF-8" standalone="no"?>
<!DOCTYPE svg PUBLIC "-//W3C//DTD SVG 1.1//EN"
 "http://www.w3.org/Graphics/SVG/1.1/DTD/svg11.dtd">
<!-- Generated by graphviz version 2.47.1 (20210417.1919)
 -->
<!-- Pages: 1 -->
<svg width="3601pt" height="959pt"
 viewBox="0.00 0.00 3601.00 959.00" xmlns="http://www.w3.org/2000/svg" xmlns:xlink="http://www.w3.org/1999/xlink">
<g id="graph0" class="graph" transform="scale(1 1) rotate(0) translate(4 955)">
<polygon fill="white" stroke="transparent" points="-4,4 -4,-955 3597,-955 3597,4 -4,4"/>
<!-- nbolew_neuron_13 -->
<g id="node1" class="node">
<title>nbolew_neuron_13</title>
<path fill="none" stroke="black" d="M3097.5,-0.5C3097.5,-0.5 3576.5,-0.5 3576.5,-0.5 3582.5,-0.5 3588.5,-6.5 3588.5,-12.5 3588.5,-12.5 3588.5,-26.5 3588.5,-26.5 3588.5,-32.5 3582.5,-38.5 3576.5,-38.5 3576.5,-38.5 3097.5,-38.5 3097.5,-38.5 3091.5,-38.5 3085.5,-32.5 3085.5,-26.5 3085.5,-26.5 3085.5,-12.5 3085.5,-12.5 3085.5,-6.5 3091.5,-0.5 3097.5,-0.5"/>
<text text-anchor="middle" x="3337" y="-23.3" font-family="Dejavu Sans Mono" font-size="14.00">Neuron population in superior cervical ganglion (1) (bolew)</text>
<text text-anchor="middle" x="3337" y="-8.3" font-family="Dejavu Sans Mono" font-size="14.00">(bolew:neuron&#45;13)</text>
</g>
<!-- nilxtr_neuron_type_bolew_18 -->
<g id="node2" class="node">
<title>nilxtr_neuron_type_bolew_18</title>
<path fill="none" stroke="black" d="M16.5,-57.5C16.5,-57.5 2871.5,-57.5 2871.5,-57.5 2877.5,-57.5 2883.5,-63.5 2883.5,-69.5 2883.5,-69.5 2883.5,-83.5 2883.5,-83.5 2883.5,-89.5 2877.5,-95.5 2871.5,-95.5 2871.5,-95.5 16.5,-95.5 16.5,-95.5 10.5,-95.5 4.5,-89.5 4.5,-83.5 4.5,-83.5 4.5,-69.5 4.5,-69.5 4.5,-63.5 10.5,-57.5 16.5,-57.5"/>
<text text-anchor="middle" x="1444" y="-80.3" font-family="Dejavu Sans Mono" font-size="14.00">Mammalia superior cervical ganglion (with&#45;dendrite&#45;in superior cervical ganglion) (with&#45;axons&#45;in External branch of superior laryngeal nerve) External carotid nerve plexus superior cervical ganglion superior laryngeal nerve vagus nerve (with&#45;presynaptic&#45;terminals&#45;in External branch of inferior laryngeal nerve) neuron projection phenotype (bolew)</text>
<text text-anchor="middle" x="1444" y="-65.3" font-family="Dejavu Sans Mono" font-size="14.00">(ilxtr:neuron&#45;type&#45;bolew&#45;18)</text>
</g>
<!-- nbolew_neuron_18 -->
<g id="node13" class="node">
<title>nbolew_neuron_18</title>
<path fill="none" stroke="black" d="M3097.5,-57.5C3097.5,-57.5 3576.5,-57.5 3576.5,-57.5 3582.5,-57.5 3588.5,-63.5 3588.5,-69.5 3588.5,-69.5 3588.5,-83.5 3588.5,-83.5 3588.5,-89.5 3582.5,-95.5 3576.5,-95.5 3576.5,-95.5 3097.5,-95.5 3097.5,-95.5 3091.5,-95.5 3085.5,-89.5 3085.5,-83.5 3085.5,-83.5 3085.5,-69.5 3085.5,-69.5 3085.5,-63.5 3091.5,-57.5 3097.5,-57.5"/>
<text text-anchor="middle" x="3337" y="-80.3" font-family="Dejavu Sans Mono" font-size="14.00">Neuron population in superior cervical ganglion (6) (bolew)</text>
<text text-anchor="middle" x="3337" y="-65.3" font-family="Dejavu Sans Mono" font-size="14.00">(bolew:neuron&#45;18)</text>
</g>
<!-- nilxtr_neuron_type_bolew_18&#45;&gt;nbolew_neuron_18 -->
<g id="edge17" class="edge">
<title>nilxtr_neuron_type_bolew_18&#45;&gt;nbolew_neuron_18</title>
<path fill="none" stroke="black" d="M2883.66,-76.5C2953.14,-76.5 3017.69,-76.5 3075.01,-76.5"/>
<polygon fill="black" stroke="black" points="3075.25,-80 3085.25,-76.5 3075.25,-73 3075.25,-80"/>
<text text-anchor="middle" x="2984.5" y="-80.3" font-family="Dejavu Sans Mono" font-size="14.00">apinatomy:annotates</text>
</g>
<!-- nilxtr_neuron_type_bolew_17 -->
<g id="node3" class="node">
<title>nilxtr_neuron_type_bolew_17</title>
<path fill="none" stroke="black" d="M169,-114.5C169,-114.5 2719,-114.5 2719,-114.5 2725,-114.5 2731,-120.5 2731,-126.5 2731,-126.5 2731,-140.5 2731,-140.5 2731,-146.5 2725,-152.5 2719,-152.5 2719,-152.5 169,-152.5 169,-152.5 163,-152.5 157,-146.5 157,-140.5 157,-140.5 157,-126.5 157,-126.5 157,-120.5 163,-114.5 169,-114.5"/>
<text text-anchor="middle" x="1444" y="-137.3" font-family="Dejavu Sans Mono" font-size="14.00">Mammalia superior cervical ganglion (with&#45;dendrite&#45;in superior cervical ganglion) (with&#45;axons&#45;in External carotid nerve plexus Internal branch of superior laryngeal nerve) superior cervical ganglion superior laryngeal nerve vagus nerve (with&#45;presynaptic&#45;terminals&#45;in larynx) neuron projection phenotype (bolew)</text>
<text text-anchor="middle" x="1444" y="-122.3" font-family="Dejavu Sans Mono" font-size="14.00">(ilxtr:neuron&#45;type&#45;bolew&#45;17)</text>
</g>
<!-- nbolew_neuron_17 -->
<g id="node22" class="node">
<title>nbolew_neuron_17</title>
<path fill="none" stroke="black" d="M3097.5,-114.5C3097.5,-114.5 3576.5,-114.5 3576.5,-114.5 3582.5,-114.5 3588.5,-120.5 3588.5,-126.5 3588.5,-126.5 3588.5,-140.5 3588.5,-140.5 3588.5,-146.5 3582.5,-152.5 3576.5,-152.5 3576.5,-152.5 3097.5,-152.5 3097.5,-152.5 3091.5,-152.5 3085.5,-146.5 3085.5,-140.5 3085.5,-140.5 3085.5,-126.5 3085.5,-126.5 3085.5,-120.5 3091.5,-114.5 3097.5,-114.5"/>
<text text-anchor="middle" x="3337" y="-137.3" font-family="Dejavu Sans Mono" font-size="14.00">Neuron population in superior cervical ganglion (5) (bolew)</text>
<text text-anchor="middle" x="3337" y="-122.3" font-family="Dejavu Sans Mono" font-size="14.00">(bolew:neuron&#45;17)</text>
</g>
<!-- nilxtr_neuron_type_bolew_17&#45;&gt;nbolew_neuron_17 -->
<g id="edge13" class="edge">
<title>nilxtr_neuron_type_bolew_17&#45;&gt;nbolew_neuron_17</title>
<path fill="none" stroke="black" d="M2731.18,-133.5C2859.15,-133.5 2977.51,-133.5 3074.96,-133.5"/>
<polygon fill="black" stroke="black" points="3075.23,-137 3085.23,-133.5 3075.23,-130 3075.23,-137"/>
<text text-anchor="middle" x="2984.5" y="-137.3" font-family="Dejavu Sans Mono" font-size="14.00">apinatomy:annotates</text>
</g>
<!-- nilxtr_neuron_type_bolew_15 -->
<g id="node4" class="node">
<title>nilxtr_neuron_type_bolew_15</title>
<path fill="none" stroke="black" d="M375,-171.5C375,-171.5 2513,-171.5 2513,-171.5 2519,-171.5 2525,-177.5 2525,-183.5 2525,-183.5 2525,-197.5 2525,-197.5 2525,-203.5 2519,-209.5 2513,-209.5 2513,-209.5 375,-209.5 375,-209.5 369,-209.5 363,-203.5 363,-197.5 363,-197.5 363,-183.5 363,-183.5 363,-177.5 369,-171.5 375,-171.5"/>
<text text-anchor="middle" x="1444" y="-194.3" font-family="Dejavu Sans Mono" font-size="14.00">Mammalia superior cervical ganglion (with&#45;dendrite&#45;in superior cervical ganglion) (with&#45;axons&#45;in External carotid nerve plexus Ganglioglomerular nerve) superior cervical ganglion (with&#45;presynaptic&#45;terminals&#45;in carotid sinus) neuron projection phenotype (bolew)</text>
<text text-anchor="middle" x="1444" y="-179.3" font-family="Dejavu Sans Mono" font-size="14.00">(ilxtr:neuron&#45;type&#45;bolew&#45;15)</text>
</g>
<!-- nbolew_neuron_15 -->
<g id="node9" class="node">
<title>nbolew_neuron_15</title>
<path fill="none" stroke="black" d="M3097.5,-171.5C3097.5,-171.5 3576.5,-171.5 3576.5,-171.5 3582.5,-171.5 3588.5,-177.5 3588.5,-183.5 3588.5,-183.5 3588.5,-197.5 3588.5,-197.5 3588.5,-203.5 3582.5,-209.5 3576.5,-209.5 3576.5,-209.5 3097.5,-209.5 3097.5,-209.5 3091.5,-209.5 3085.5,-203.5 3085.5,-197.5 3085.5,-197.5 3085.5,-183.5 3085.5,-183.5 3085.5,-177.5 3091.5,-171.5 3097.5,-171.5"/>
<text text-anchor="middle" x="3337" y="-194.3" font-family="Dejavu Sans Mono" font-size="14.00">Neuron population in superior cervical ganglion (3) (bolew)</text>
<text text-anchor="middle" x="3337" y="-179.3" font-family="Dejavu Sans Mono" font-size="14.00">(bolew:neuron&#45;15)</text>
</g>
<!-- nilxtr_neuron_type_bolew_15&#45;&gt;nbolew_neuron_15 -->
<g id="edge12" class="edge">
<title>nilxtr_neuron_type_bolew_15&#45;&gt;nbolew_neuron_15</title>
<path fill="none" stroke="black" d="M2525.13,-190.5C2730.28,-190.5 2926.79,-190.5 3074.97,-190.5"/>
<polygon fill="black" stroke="black" points="3075.11,-194 3085.11,-190.5 3075.11,-187 3075.11,-194"/>
<text text-anchor="middle" x="2984.5" y="-194.3" font-family="Dejavu Sans Mono" font-size="14.00">apinatomy:annotates</text>
</g>
<!-- nbolew_neuron_19 -->
<g id="node5" class="node">
<title>nbolew_neuron_19</title>
<path fill="none" stroke="black" d="M3097.5,-228.5C3097.5,-228.5 3576.5,-228.5 3576.5,-228.5 3582.5,-228.5 3588.5,-234.5 3588.5,-240.5 3588.5,-240.5 3588.5,-254.5 3588.5,-254.5 3588.5,-260.5 3582.5,-266.5 3576.5,-266.5 3576.5,-266.5 3097.5,-266.5 3097.5,-266.5 3091.5,-266.5 3085.5,-260.5 3085.5,-254.5 3085.5,-254.5 3085.5,-240.5 3085.5,-240.5 3085.5,-234.5 3091.5,-228.5 3097.5,-228.5"/>
<text text-anchor="middle" x="3337" y="-251.3" font-family="Dejavu Sans Mono" font-size="14.00">Neuron population in superior cervical ganglion (7) (bolew)</text>
<text text-anchor="middle" x="3337" y="-236.3" font-family="Dejavu Sans Mono" font-size="14.00">(bolew:neuron&#45;19)</text>
</g>
<!-- nilxtr_neuron_type_bolew_24 -->
<g id="node6" class="node">
<title>nilxtr_neuron_type_bolew_24</title>
<path fill="none" stroke="black" d="M627,-285.5C627,-285.5 2261,-285.5 2261,-285.5 2267,-285.5 2273,-291.5 2273,-297.5 2273,-297.5 2273,-311.5 2273,-311.5 2273,-317.5 2267,-323.5 2261,-323.5 2261,-323.5 627,-323.5 627,-323.5 621,-323.5 615,-317.5 615,-311.5 615,-311.5 615,-297.5 615,-297.5 615,-291.5 621,-285.5 627,-285.5"/>
<text text-anchor="middle" x="1444" y="-308.3" font-family="Dejavu Sans Mono" font-size="14.00">Mammalia superior cervical ganglion (with&#45;dendrite&#45;in superior cervical ganglion) (with&#45;axon&#45;in superior cervical ganglion) (with&#45;presynaptic&#45;terminals&#45;in trachea) neuron projection phenotype (bolew)</text>
<text text-anchor="middle" x="1444" y="-293.3" font-family="Dejavu Sans Mono" font-size="14.00">(ilxtr:neuron&#45;type&#45;bolew&#45;24)</text>
</g>
<!-- nbolew_neuron_24 -->
<g id="node12" class="node">
<title>nbolew_neuron_24</title>
<path fill="none" stroke="black" d="M3093,-285.5C3093,-285.5 3581,-285.5 3581,-285.5 3587,-285.5 3593,-291.5 3593,-297.5 3593,-297.5 3593,-311.5 3593,-311.5 3593,-317.5 3587,-323.5 3581,-323.5 3581,-323.5 3093,-323.5 3093,-323.5 3087,-323.5 3081,-317.5 3081,-311.5 3081,-311.5 3081,-297.5 3081,-297.5 3081,-291.5 3087,-285.5 3093,-285.5"/>
<text text-anchor="middle" x="3337" y="-308.3" font-family="Dejavu Sans Mono" font-size="14.00">Neuron population in superior cervical ganglion (12) (bolew)</text>
<text text-anchor="middle" x="3337" y="-293.3" font-family="Dejavu Sans Mono" font-size="14.00">(bolew:neuron&#45;24)</text>
</g>
<!-- nilxtr_neuron_type_bolew_24&#45;&gt;nbolew_neuron_24 -->
<g id="edge14" class="edge">
<title>nilxtr_neuron_type_bolew_24&#45;&gt;nbolew_neuron_24</title>
<path fill="none" stroke="black" d="M2273.04,-304.5C2560.31,-304.5 2862.27,-304.5 3070.62,-304.5"/>
<polygon fill="black" stroke="black" points="3070.78,-308 3080.78,-304.5 3070.78,-301 3070.78,-308"/>
<text text-anchor="middle" x="2984.5" y="-308.3" font-family="Dejavu Sans Mono" font-size="14.00">apinatomy:annotates</text>
</g>
<!-- nilxtr_neuron_type_bolew_25 -->
<g id="node7" class="node">
<title>nilxtr_neuron_type_bolew_25</title>
<path fill="none" stroke="black" d="M499,-342.5C499,-342.5 2389,-342.5 2389,-342.5 2395,-342.5 2401,-348.5 2401,-354.5 2401,-354.5 2401,-368.5 2401,-368.5 2401,-374.5 2395,-380.5 2389,-380.5 2389,-380.5 499,-380.5 499,-380.5 493,-380.5 487,-374.5 487,-368.5 487,-368.5 487,-354.5 487,-354.5 487,-348.5 493,-342.5 499,-342.5"/>
<text text-anchor="middle" x="1444" y="-365.3" font-family="Dejavu Sans Mono" font-size="14.00">Mammalia superior cervical ganglion (with&#45;dendrite&#45;in superior cervical ganglion) (with&#45;axons&#45;in internal carotid nerve plexus) superior cervical ganglion (with&#45;presynaptic&#45;terminals&#45;in trachea) neuron projection phenotype (bolew)</text>
<text text-anchor="middle" x="1444" y="-350.3" font-family="Dejavu Sans Mono" font-size="14.00">(ilxtr:neuron&#45;type&#45;bolew&#45;25)</text>
</g>
<!-- nbolew_neuron_25 -->
<g id="node17" class="node">
<title>nbolew_neuron_25</title>
<path fill="none" stroke="black" d="M3093,-342.5C3093,-342.5 3581,-342.5 3581,-342.5 3587,-342.5 3593,-348.5 3593,-354.5 3593,-354.5 3593,-368.5 3593,-368.5 3593,-374.5 3587,-380.5 3581,-380.5 3581,-380.5 3093,-380.5 3093,-380.5 3087,-380.5 3081,-374.5 3081,-368.5 3081,-368.5 3081,-354.5 3081,-354.5 3081,-348.5 3087,-342.5 3093,-342.5"/>
<text text-anchor="middle" x="3337" y="-365.3" font-family="Dejavu Sans Mono" font-size="14.00">Neuron population in superior cervical ganglion (13) (bolew)</text>
<text text-anchor="middle" x="3337" y="-350.3" font-family="Dejavu Sans Mono" font-size="14.00">(bolew:neuron&#45;25)</text>
</g>
<!-- nilxtr_neuron_type_bolew_25&#45;&gt;nbolew_neuron_25 -->
<g id="edge6" class="edge">
<title>nilxtr_neuron_type_bolew_25&#45;&gt;nbolew_neuron_25</title>
<path fill="none" stroke="black" d="M2401.23,-361.5C2647.52,-361.5 2892.83,-361.5 3070.32,-361.5"/>
<polygon fill="black" stroke="black" points="3070.58,-365 3080.58,-361.5 3070.58,-358 3070.58,-365"/>
<text text-anchor="middle" x="2984.5" y="-365.3" font-family="Dejavu Sans Mono" font-size="14.00">apinatomy:annotates</text>
</g>
<!-- nbolew_neuron_23 -->
<g id="node8" class="node">
<title>nbolew_neuron_23</title>
<path fill="none" stroke="black" d="M3093,-399.5C3093,-399.5 3581,-399.5 3581,-399.5 3587,-399.5 3593,-405.5 3593,-411.5 3593,-411.5 3593,-425.5 3593,-425.5 3593,-431.5 3587,-437.5 3581,-437.5 3581,-437.5 3093,-437.5 3093,-437.5 3087,-437.5 3081,-431.5 3081,-425.5 3081,-425.5 3081,-411.5 3081,-411.5 3081,-405.5 3087,-399.5 3093,-399.5"/>
<text text-anchor="middle" x="3337" y="-422.3" font-family="Dejavu Sans Mono" font-size="14.00">Neuron population in superior cervical ganglion (11) (bolew)</text>
<text text-anchor="middle" x="3337" y="-407.3" font-family="Dejavu Sans Mono" font-size="14.00">(bolew:neuron&#45;23)</text>
</g>
<!-- nilxtr_neuron_type_bolew_19 -->
<g id="node10" class="node">
<title>nilxtr_neuron_type_bolew_19</title>
<path fill="none" stroke="black" d="M16.5,-228.5C16.5,-228.5 2871.5,-228.5 2871.5,-228.5 2877.5,-228.5 2883.5,-234.5 2883.5,-240.5 2883.5,-240.5 2883.5,-254.5 2883.5,-254.5 2883.5,-260.5 2877.5,-266.5 2871.5,-266.5 2871.5,-266.5 16.5,-266.5 16.5,-266.5 10.5,-266.5 4.5,-260.5 4.5,-254.5 4.5,-254.5 4.5,-240.5 4.5,-240.5 4.5,-234.5 10.5,-228.5 16.5,-228.5"/>
<text text-anchor="middle" x="1444" y="-251.3" font-family="Dejavu Sans Mono" font-size="14.00">Mammalia superior cervical ganglion (with&#45;dendrite&#45;in superior cervical ganglion) (with&#45;axons&#45;in External carotid nerve plexus Internal branch of superior laryngeal nerve) superior cervical ganglion superior laryngeal nerve vagus nerve (with&#45;presynaptic&#45;terminals&#45;in External branch of inferior laryngeal nerve) neuron projection phenotype (bolew)</text>
<text text-anchor="middle" x="1444" y="-236.3" font-family="Dejavu Sans Mono" font-size="14.00">(ilxtr:neuron&#45;type&#45;bolew&#45;19)</text>
</g>
<!-- nilxtr_neuron_type_bolew_19&#45;&gt;nbolew_neuron_19 -->
<g id="edge10" class="edge">
<title>nilxtr_neuron_type_bolew_19&#45;&gt;nbolew_neuron_19</title>
<path fill="none" stroke="black" d="M2883.66,-247.5C2953.14,-247.5 3017.69,-247.5 3075.01,-247.5"/>
<polygon fill="black" stroke="black" points="3075.25,-251 3085.25,-247.5 3075.25,-244 3075.25,-251"/>
<text text-anchor="middle" x="2984.5" y="-251.3" font-family="Dejavu Sans Mono" font-size="14.00">apinatomy:annotates</text>
</g>
<!-- nilxtr_neuron_type_bolew_16 -->
<g id="node11" class="node">
<title>nilxtr_neuron_type_bolew_16</title>
<path fill="none" stroke="black" d="M280.5,-456.5C280.5,-456.5 2607.5,-456.5 2607.5,-456.5 2613.5,-456.5 2619.5,-462.5 2619.5,-468.5 2619.5,-468.5 2619.5,-482.5 2619.5,-482.5 2619.5,-488.5 2613.5,-494.5 2607.5,-494.5 2607.5,-494.5 280.5,-494.5 280.5,-494.5 274.5,-494.5 268.5,-488.5 268.5,-482.5 268.5,-482.5 268.5,-468.5 268.5,-468.5 268.5,-462.5 274.5,-456.5 280.5,-456.5"/>
<text text-anchor="middle" x="1444" y="-479.3" font-family="Dejavu Sans Mono" font-size="14.00">Mammalia superior cervical ganglion (with&#45;dendrite&#45;in superior cervical ganglion) (with&#45;axons&#45;in External branch of superior laryngeal nerve) External carotid nerve plexus superior laryngeal nerve vagus nerve (with&#45;presynaptic&#45;terminals&#45;in larynx) neuron projection phenotype (bolew)</text>
<text text-anchor="middle" x="1444" y="-464.3" font-family="Dejavu Sans Mono" font-size="14.00">(ilxtr:neuron&#45;type&#45;bolew&#45;16)</text>
</g>
<!-- nbolew_neuron_16 -->
<g id="node28" class="node">
<title>nbolew_neuron_16</title>
<path fill="none" stroke="black" d="M3097.5,-456.5C3097.5,-456.5 3576.5,-456.5 3576.5,-456.5 3582.5,-456.5 3588.5,-462.5 3588.5,-468.5 3588.5,-468.5 3588.5,-482.5 3588.5,-482.5 3588.5,-488.5 3582.5,-494.5 3576.5,-494.5 3576.5,-494.5 3097.5,-494.5 3097.5,-494.5 3091.5,-494.5 3085.5,-488.5 3085.5,-482.5 3085.5,-482.5 3085.5,-468.5 3085.5,-468.5 3085.5,-462.5 3091.5,-456.5 3097.5,-456.5"/>
<text text-anchor="middle" x="3337" y="-479.3" font-family="Dejavu Sans Mono" font-size="14.00">Neuron population in superior cervical ganglion (4) (bolew)</text>
<text text-anchor="middle" x="3337" y="-464.3" font-family="Dejavu Sans Mono" font-size="14.00">(bolew:neuron&#45;16)</text>
</g>
<!-- nilxtr_neuron_type_bolew_16&#45;&gt;nbolew_neuron_16 -->
<g id="edge5" class="edge">
<title>nilxtr_neuron_type_bolew_16&#45;&gt;nbolew_neuron_16</title>
<path fill="none" stroke="black" d="M2619.75,-475.5C2790.21,-475.5 2950.09,-475.5 3075.36,-475.5"/>
<polygon fill="black" stroke="black" points="3075.46,-479 3085.46,-475.5 3075.46,-472 3075.46,-479"/>
<text text-anchor="middle" x="2984.5" y="-479.3" font-family="Dejavu Sans Mono" font-size="14.00">apinatomy:annotates</text>
</g>
<!-- nilxtr_neuron_type_bolew_28 -->
<g id="node14" class="node">
<title>nilxtr_neuron_type_bolew_28</title>
<path fill="none" stroke="black" d="M408,-513.5C408,-513.5 2480,-513.5 2480,-513.5 2486,-513.5 2492,-519.5 2492,-525.5 2492,-525.5 2492,-539.5 2492,-539.5 2492,-545.5 2486,-551.5 2480,-551.5 2480,-551.5 408,-551.5 408,-551.5 402,-551.5 396,-545.5 396,-539.5 396,-539.5 396,-525.5 396,-525.5 396,-519.5 402,-513.5 408,-513.5"/>
<text text-anchor="middle" x="1444" y="-536.3" font-family="Dejavu Sans Mono" font-size="14.00">Mammalia superior cervical ganglion (with&#45;dendrite&#45;in superior cervical ganglion) (with&#45;axons&#45;in internal carotid nerve plexus) superior cervical ganglion (with&#45;presynaptic&#45;terminals&#45;in rostral ventrolateral medulla) neuron projection phenotype (bolew)</text>
<text text-anchor="middle" x="1444" y="-521.3" font-family="Dejavu Sans Mono" font-size="14.00">(ilxtr:neuron&#45;type&#45;bolew&#45;28)</text>
</g>
<!-- nbolew_neuron_28 -->
<g id="node20" class="node">
<title>nbolew_neuron_28</title>
<path fill="none" stroke="black" d="M3093,-513.5C3093,-513.5 3581,-513.5 3581,-513.5 3587,-513.5 3593,-519.5 3593,-525.5 3593,-525.5 3593,-539.5 3593,-539.5 3593,-545.5 3587,-551.5 3581,-551.5 3581,-551.5 3093,-551.5 3093,-551.5 3087,-551.5 3081,-545.5 3081,-539.5 3081,-539.5 3081,-525.5 3081,-525.5 3081,-519.5 3087,-513.5 3093,-513.5"/>
<text text-anchor="middle" x="3337" y="-536.3" font-family="Dejavu Sans Mono" font-size="14.00">Neuron population in superior cervical ganglion (16) (bolew)</text>
<text text-anchor="middle" x="3337" y="-521.3" font-family="Dejavu Sans Mono" font-size="14.00">(bolew:neuron&#45;28)</text>
</g>
<!-- nilxtr_neuron_type_bolew_28&#45;&gt;nbolew_neuron_28 -->
<g id="edge1" class="edge">
<title>nilxtr_neuron_type_bolew_28&#45;&gt;nbolew_neuron_28</title>
<path fill="none" stroke="black" d="M2492.12,-532.5C2707.17,-532.5 2915.13,-532.5 3070.79,-532.5"/>
<polygon fill="black" stroke="black" points="3070.97,-536 3080.97,-532.5 3070.97,-529 3070.97,-536"/>
<text text-anchor="middle" x="2984.5" y="-536.3" font-family="Dejavu Sans Mono" font-size="14.00">apinatomy:annotates</text>
</g>
<!-- nbolew_neuron_22 -->
<g id="node15" class="node">
<title>nbolew_neuron_22</title>
<path fill="none" stroke="black" d="M3093,-570.5C3093,-570.5 3581,-570.5 3581,-570.5 3587,-570.5 3593,-576.5 3593,-582.5 3593,-582.5 3593,-596.5 3593,-596.5 3593,-602.5 3587,-608.5 3581,-608.5 3581,-608.5 3093,-608.5 3093,-608.5 3087,-608.5 3081,-602.5 3081,-596.5 3081,-596.5 3081,-582.5 3081,-582.5 3081,-576.5 3087,-570.5 3093,-570.5"/>
<text text-anchor="middle" x="3337" y="-593.3" font-family="Dejavu Sans Mono" font-size="14.00">Neuron population in superior cervical ganglion (10) (bolew)</text>
<text text-anchor="middle" x="3337" y="-578.3" font-family="Dejavu Sans Mono" font-size="14.00">(bolew:neuron&#45;22)</text>
</g>
<!-- nilxtr_neuron_type_bolew_26 -->
<g id="node16" class="node">
<title>nilxtr_neuron_type_bolew_26</title>
<path fill="none" stroke="black" d="M367,-627.5C367,-627.5 2521,-627.5 2521,-627.5 2527,-627.5 2533,-633.5 2533,-639.5 2533,-639.5 2533,-653.5 2533,-653.5 2533,-659.5 2527,-665.5 2521,-665.5 2521,-665.5 367,-665.5 367,-665.5 361,-665.5 355,-659.5 355,-653.5 355,-653.5 355,-639.5 355,-639.5 355,-633.5 361,-627.5 367,-627.5"/>
<text text-anchor="middle" x="1444" y="-650.3" font-family="Dejavu Sans Mono" font-size="14.00">Mammalia superior cervical ganglion (with&#45;dendrite&#45;in superior cervical ganglion) (with&#45;axons&#45;in internal carotid nerve plexus) superior cervical ganglion (with&#45;presynaptic&#45;terminals&#45;in paraventricular nucleus of hypothalamus) neuron projection phenotype (bolew)</text>
<text text-anchor="middle" x="1444" y="-635.3" font-family="Dejavu Sans Mono" font-size="14.00">(ilxtr:neuron&#45;type&#45;bolew&#45;26)</text>
</g>
<!-- nbolew_neuron_26 -->
<g id="node21" class="node">
<title>nbolew_neuron_26</title>
<path fill="none" stroke="black" d="M3093,-627.5C3093,-627.5 3581,-627.5 3581,-627.5 3587,-627.5 3593,-633.5 3593,-639.5 3593,-639.5 3593,-653.5 3593,-653.5 3593,-659.5 3587,-665.5 3581,-665.5 3581,-665.5 3093,-665.5 3093,-665.5 3087,-665.5 3081,-659.5 3081,-653.5 3081,-653.5 3081,-639.5 3081,-639.5 3081,-633.5 3087,-627.5 3093,-627.5"/>
<text text-anchor="middle" x="3337" y="-650.3" font-family="Dejavu Sans Mono" font-size="14.00">Neuron population in superior cervical ganglion (14) (bolew)</text>
<text text-anchor="middle" x="3337" y="-635.3" font-family="Dejavu Sans Mono" font-size="14.00">(bolew:neuron&#45;26)</text>
</g>
<!-- nilxtr_neuron_type_bolew_26&#45;&gt;nbolew_neuron_26 -->
<g id="edge8" class="edge">
<title>nilxtr_neuron_type_bolew_26&#45;&gt;nbolew_neuron_26</title>
<path fill="none" stroke="black" d="M2533.02,-646.5C2733.25,-646.5 2924.76,-646.5 3070.49,-646.5"/>
<polygon fill="black" stroke="black" points="3070.91,-650 3080.91,-646.5 3070.91,-643 3070.91,-650"/>
<text text-anchor="middle" x="2984.5" y="-650.3" font-family="Dejavu Sans Mono" font-size="14.00">apinatomy:annotates</text>
</g>
<!-- nilxtr_neuron_type_bolew_29 -->
<g id="node18" class="node">
<title>nilxtr_neuron_type_bolew_29</title>
<path fill="none" stroke="black" d="M404,-684.5C404,-684.5 2484,-684.5 2484,-684.5 2490,-684.5 2496,-690.5 2496,-696.5 2496,-696.5 2496,-710.5 2496,-710.5 2496,-716.5 2490,-722.5 2484,-722.5 2484,-722.5 404,-722.5 404,-722.5 398,-722.5 392,-716.5 392,-710.5 392,-710.5 392,-696.5 392,-696.5 392,-690.5 398,-684.5 404,-684.5"/>
<text text-anchor="middle" x="1444" y="-707.3" font-family="Dejavu Sans Mono" font-size="14.00">Mammalia superior cervical ganglion (with&#45;dendrite&#45;in superior cervical ganglion) (with&#45;axons&#45;in internal carotid nerve plexus) superior cervical ganglion (with&#45;presynaptic&#45;terminals&#45;in solitary tract nuclear complex) neuron projection phenotype (bolew)</text>
<text text-anchor="middle" x="1444" y="-692.3" font-family="Dejavu Sans Mono" font-size="14.00">(ilxtr:neuron&#45;type&#45;bolew&#45;29)</text>
</g>
<!-- nbolew_neuron_29 -->
<g id="node34" class="node">
<title>nbolew_neuron_29</title>
<path fill="none" stroke="black" d="M3093,-684.5C3093,-684.5 3581,-684.5 3581,-684.5 3587,-684.5 3593,-690.5 3593,-696.5 3593,-696.5 3593,-710.5 3593,-710.5 3593,-716.5 3587,-722.5 3581,-722.5 3581,-722.5 3093,-722.5 3093,-722.5 3087,-722.5 3081,-716.5 3081,-710.5 3081,-710.5 3081,-696.5 3081,-696.5 3081,-690.5 3087,-684.5 3093,-684.5"/>
<text text-anchor="middle" x="3337" y="-707.3" font-family="Dejavu Sans Mono" font-size="14.00">Neuron population in superior cervical ganglion (17) (bolew)</text>
<text text-anchor="middle" x="3337" y="-692.3" font-family="Dejavu Sans Mono" font-size="14.00">(bolew:neuron&#45;29)</text>
</g>
<!-- nilxtr_neuron_type_bolew_29&#45;&gt;nbolew_neuron_29 -->
<g id="edge11" class="edge">
<title>nilxtr_neuron_type_bolew_29&#45;&gt;nbolew_neuron_29</title>
<path fill="none" stroke="black" d="M2496.26,-703.5C2709.7,-703.5 2915.87,-703.5 3070.5,-703.5"/>
<polygon fill="black" stroke="black" points="3070.62,-707 3080.62,-703.5 3070.62,-700 3070.62,-707"/>
<text text-anchor="middle" x="2984.5" y="-707.3" font-family="Dejavu Sans Mono" font-size="14.00">apinatomy:annotates</text>
</g>
<!-- nilxtr_neuron_type_bolew_27 -->
<g id="node19" class="node">
<title>nilxtr_neuron_type_bolew_27</title>
<path fill="none" stroke="black" d="M437,-741.5C437,-741.5 2451,-741.5 2451,-741.5 2457,-741.5 2463,-747.5 2463,-753.5 2463,-753.5 2463,-767.5 2463,-767.5 2463,-773.5 2457,-779.5 2451,-779.5 2451,-779.5 437,-779.5 437,-779.5 431,-779.5 425,-773.5 425,-767.5 425,-767.5 425,-753.5 425,-753.5 425,-747.5 431,-741.5 437,-741.5"/>
<text text-anchor="middle" x="1444" y="-764.3" font-family="Dejavu Sans Mono" font-size="14.00">Mammalia superior cervical ganglion (with&#45;dendrite&#45;in superior cervical ganglion) (with&#45;axons&#45;in internal carotid nerve plexus) superior cervical ganglion (with&#45;presynaptic&#45;terminals&#45;in retrotrapezoid nucleus) neuron projection phenotype (bolew)</text>
<text text-anchor="middle" x="1444" y="-749.3" font-family="Dejavu Sans Mono" font-size="14.00">(ilxtr:neuron&#45;type&#45;bolew&#45;27)</text>
</g>
<!-- nbolew_neuron_27 -->
<g id="node23" class="node">
<title>nbolew_neuron_27</title>
<path fill="none" stroke="black" d="M3093,-741.5C3093,-741.5 3581,-741.5 3581,-741.5 3587,-741.5 3593,-747.5 3593,-753.5 3593,-753.5 3593,-767.5 3593,-767.5 3593,-773.5 3587,-779.5 3581,-779.5 3581,-779.5 3093,-779.5 3093,-779.5 3087,-779.5 3081,-773.5 3081,-767.5 3081,-767.5 3081,-753.5 3081,-753.5 3081,-747.5 3087,-741.5 3093,-741.5"/>
<text text-anchor="middle" x="3337" y="-764.3" font-family="Dejavu Sans Mono" font-size="14.00">Neuron population in superior cervical ganglion (15) (bolew)</text>
<text text-anchor="middle" x="3337" y="-749.3" font-family="Dejavu Sans Mono" font-size="14.00">(bolew:neuron&#45;27)</text>
</g>
<!-- nilxtr_neuron_type_bolew_27&#45;&gt;nbolew_neuron_27 -->
<g id="edge15" class="edge">
<title>nilxtr_neuron_type_bolew_27&#45;&gt;nbolew_neuron_27</title>
<path fill="none" stroke="black" d="M2463.15,-760.5C2688.43,-760.5 2908.18,-760.5 3070.84,-760.5"/>
<polygon fill="black" stroke="black" points="3070.98,-764 3080.98,-760.5 3070.98,-757 3070.98,-764"/>
<text text-anchor="middle" x="2984.5" y="-764.3" font-family="Dejavu Sans Mono" font-size="14.00">apinatomy:annotates</text>
</g>
<!-- nbolew_neuron_14 -->
<g id="node24" class="node">
<title>nbolew_neuron_14</title>
<path fill="none" stroke="black" d="M3097.5,-798.5C3097.5,-798.5 3576.5,-798.5 3576.5,-798.5 3582.5,-798.5 3588.5,-804.5 3588.5,-810.5 3588.5,-810.5 3588.5,-824.5 3588.5,-824.5 3588.5,-830.5 3582.5,-836.5 3576.5,-836.5 3576.5,-836.5 3097.5,-836.5 3097.5,-836.5 3091.5,-836.5 3085.5,-830.5 3085.5,-824.5 3085.5,-824.5 3085.5,-810.5 3085.5,-810.5 3085.5,-804.5 3091.5,-798.5 3097.5,-798.5"/>
<text text-anchor="middle" x="3337" y="-821.3" font-family="Dejavu Sans Mono" font-size="14.00">Neuron population in superior cervical ganglion (2) (bolew)</text>
<text text-anchor="middle" x="3337" y="-806.3" font-family="Dejavu Sans Mono" font-size="14.00">(bolew:neuron&#45;14)</text>
</g>
<!-- nbolew_neuron_21 -->
<g id="node25" class="node">
<title>nbolew_neuron_21</title>
<path fill="none" stroke="black" d="M3097.5,-855.5C3097.5,-855.5 3576.5,-855.5 3576.5,-855.5 3582.5,-855.5 3588.5,-861.5 3588.5,-867.5 3588.5,-867.5 3588.5,-881.5 3588.5,-881.5 3588.5,-887.5 3582.5,-893.5 3576.5,-893.5 3576.5,-893.5 3097.5,-893.5 3097.5,-893.5 3091.5,-893.5 3085.5,-887.5 3085.5,-881.5 3085.5,-881.5 3085.5,-867.5 3085.5,-867.5 3085.5,-861.5 3091.5,-855.5 3097.5,-855.5"/>
<text text-anchor="middle" x="3337" y="-878.3" font-family="Dejavu Sans Mono" font-size="14.00">Neuron population in superior cervical ganglion (9) (bolew)</text>
<text text-anchor="middle" x="3337" y="-863.3" font-family="Dejavu Sans Mono" font-size="14.00">(bolew:neuron&#45;21)</text>
</g>
<!-- nilxtr_neuron_type_bolew_23 -->
<g id="node26" class="node">
<title>nilxtr_neuron_type_bolew_23</title>
<path fill="none" stroke="black" d="M429,-399.5C429,-399.5 2459,-399.5 2459,-399.5 2465,-399.5 2471,-405.5 2471,-411.5 2471,-411.5 2471,-425.5 2471,-425.5 2471,-431.5 2465,-437.5 2459,-437.5 2459,-437.5 429,-437.5 429,-437.5 423,-437.5 417,-431.5 417,-425.5 417,-425.5 417,-411.5 417,-411.5 417,-405.5 423,-399.5 429,-399.5"/>
<text text-anchor="middle" x="1444" y="-422.3" font-family="Dejavu Sans Mono" font-size="14.00">Mammalia superior cervical ganglion (with&#45;dendrite&#45;in superior cervical ganglion) (with&#45;axons&#45;in hypoglossal nerve internal carotid nerve plexus) superior cervical ganglion (with&#45;presynaptic&#45;terminals&#45;in tongue) neuron projection phenotype (bolew)</text>
<text text-anchor="middle" x="1444" y="-407.3" font-family="Dejavu Sans Mono" font-size="14.00">(ilxtr:neuron&#45;type&#45;bolew&#45;23)</text>
</g>
<!-- nilxtr_neuron_type_bolew_23&#45;&gt;nbolew_neuron_23 -->
<g id="edge4" class="edge">
<title>nilxtr_neuron_type_bolew_23&#45;&gt;nbolew_neuron_23</title>
<path fill="none" stroke="black" d="M2471.09,-418.5C2693.63,-418.5 2910.17,-418.5 3070.92,-418.5"/>
<polygon fill="black" stroke="black" points="3070.94,-422 3080.94,-418.5 3070.94,-415 3070.94,-422"/>
<text text-anchor="middle" x="2984.5" y="-422.3" font-family="Dejavu Sans Mono" font-size="14.00">apinatomy:annotates</text>
</g>
<!-- nilxtr_neuron_type_bolew_22 -->
<g id="node27" class="node">
<title>nilxtr_neuron_type_bolew_22</title>
<path fill="none" stroke="black" d="M503,-570.5C503,-570.5 2385,-570.5 2385,-570.5 2391,-570.5 2397,-576.5 2397,-582.5 2397,-582.5 2397,-596.5 2397,-596.5 2397,-602.5 2391,-608.5 2385,-608.5 2385,-608.5 503,-608.5 503,-608.5 497,-608.5 491,-602.5 491,-596.5 491,-596.5 491,-582.5 491,-582.5 491,-576.5 497,-570.5 503,-570.5"/>
<text text-anchor="middle" x="1444" y="-593.3" font-family="Dejavu Sans Mono" font-size="14.00">Mammalia superior cervical ganglion (with&#45;dendrite&#45;in superior cervical ganglion) (with&#45;axons&#45;in External carotid nerve plexus) superior cervical ganglion (with&#45;presynaptic&#45;terminals&#45;in tongue) neuron projection phenotype (bolew)</text>
<text text-anchor="middle" x="1444" y="-578.3" font-family="Dejavu Sans Mono" font-size="14.00">(ilxtr:neuron&#45;type&#45;bolew&#45;22)</text>
</g>
<!-- nilxtr_neuron_type_bolew_22&#45;&gt;nbolew_neuron_22 -->
<g id="edge16" class="edge">
<title>nilxtr_neuron_type_bolew_22&#45;&gt;nbolew_neuron_22</title>
<path fill="none" stroke="black" d="M2397.08,-589.5C2644.9,-589.5 2892.12,-589.5 3070.63,-589.5"/>
<polygon fill="black" stroke="black" points="3070.68,-593 3080.68,-589.5 3070.68,-586 3070.68,-593"/>
<text text-anchor="middle" x="2984.5" y="-593.3" font-family="Dejavu Sans Mono" font-size="14.00">apinatomy:annotates</text>
</g>
<!-- nilxtr_neuron_type_bolew_14 -->
<g id="node29" class="node">
<title>nilxtr_neuron_type_bolew_14</title>
<path fill="none" stroke="black" d="M379.5,-798.5C379.5,-798.5 2508.5,-798.5 2508.5,-798.5 2514.5,-798.5 2520.5,-804.5 2520.5,-810.5 2520.5,-810.5 2520.5,-824.5 2520.5,-824.5 2520.5,-830.5 2514.5,-836.5 2508.5,-836.5 2508.5,-836.5 379.5,-836.5 379.5,-836.5 373.5,-836.5 367.5,-830.5 367.5,-824.5 367.5,-824.5 367.5,-810.5 367.5,-810.5 367.5,-804.5 373.5,-798.5 379.5,-798.5"/>
<text text-anchor="middle" x="1444" y="-821.3" font-family="Dejavu Sans Mono" font-size="14.00">Mammalia superior cervical ganglion (with&#45;dendrite&#45;in superior cervical ganglion) (with&#45;axons&#45;in External carotid nerve plexus Ganglioglomerular nerve) superior cervical ganglion (with&#45;presynaptic&#45;terminals&#45;in carotid body) neuron projection phenotype (bolew)</text>
<text text-anchor="middle" x="1444" y="-806.3" font-family="Dejavu Sans Mono" font-size="14.00">(ilxtr:neuron&#45;type&#45;bolew&#45;14)</text>
</g>
<!-- nilxtr_neuron_type_bolew_14&#45;&gt;nbolew_neuron_14 -->
<g id="edge3" class="edge">
<title>nilxtr_neuron_type_bolew_14&#45;&gt;nbolew_neuron_14</title>
<path fill="none" stroke="black" d="M2520.67,-817.5C2727.47,-817.5 2925.8,-817.5 3075.07,-817.5"/>
<polygon fill="black" stroke="black" points="3075.28,-821 3085.28,-817.5 3075.28,-814 3075.28,-821"/>
<text text-anchor="middle" x="2984.5" y="-821.3" font-family="Dejavu Sans Mono" font-size="14.00">apinatomy:annotates</text>
</g>
<!-- nilxtr_neuron_type_bolew_21 -->
<g id="node30" class="node">
<title>nilxtr_neuron_type_bolew_21</title>
<path fill="none" stroke="black" d="M148.5,-855.5C148.5,-855.5 2739.5,-855.5 2739.5,-855.5 2745.5,-855.5 2751.5,-861.5 2751.5,-867.5 2751.5,-867.5 2751.5,-881.5 2751.5,-881.5 2751.5,-887.5 2745.5,-893.5 2739.5,-893.5 2739.5,-893.5 148.5,-893.5 148.5,-893.5 142.5,-893.5 136.5,-887.5 136.5,-881.5 136.5,-881.5 136.5,-867.5 136.5,-867.5 136.5,-861.5 142.5,-855.5 148.5,-855.5"/>
<text text-anchor="middle" x="1444" y="-878.3" font-family="Dejavu Sans Mono" font-size="14.00">Mammalia superior cervical ganglion (with&#45;dendrite&#45;in superior cervical ganglion) (with&#45;axons&#45;in External carotid nerve plexus Internal branch of inferior laryngeal nerve) Laryngeal Nerve, Inferior superior cervical ganglion vagus nerve (with&#45;presynaptic&#45;terminals&#45;in epiglottis) neuron projection phenotype (bolew)</text>
<text text-anchor="middle" x="1444" y="-863.3" font-family="Dejavu Sans Mono" font-size="14.00">(ilxtr:neuron&#45;type&#45;bolew&#45;21)</text>
</g>
<!-- nilxtr_neuron_type_bolew_21&#45;&gt;nbolew_neuron_21 -->
<g id="edge9" class="edge">
<title>nilxtr_neuron_type_bolew_21&#45;&gt;nbolew_neuron_21</title>
<path fill="none" stroke="black" d="M2751.59,-874.5C2871.8,-874.5 2982.85,-874.5 3075.14,-874.5"/>
<polygon fill="black" stroke="black" points="3075.15,-878 3085.15,-874.5 3075.15,-871 3075.15,-878"/>
<text text-anchor="middle" x="2984.5" y="-878.3" font-family="Dejavu Sans Mono" font-size="14.00">apinatomy:annotates</text>
</g>
<!-- nbolew_neuron_20 -->
<g id="node31" class="node">
<title>nbolew_neuron_20</title>
<path fill="none" stroke="black" d="M3097.5,-912.5C3097.5,-912.5 3576.5,-912.5 3576.5,-912.5 3582.5,-912.5 3588.5,-918.5 3588.5,-924.5 3588.5,-924.5 3588.5,-938.5 3588.5,-938.5 3588.5,-944.5 3582.5,-950.5 3576.5,-950.5 3576.5,-950.5 3097.5,-950.5 3097.5,-950.5 3091.5,-950.5 3085.5,-944.5 3085.5,-938.5 3085.5,-938.5 3085.5,-924.5 3085.5,-924.5 3085.5,-918.5 3091.5,-912.5 3097.5,-912.5"/>
<text text-anchor="middle" x="3337" y="-935.3" font-family="Dejavu Sans Mono" font-size="14.00">Neuron population in superior cervical ganglion (8) (bolew)</text>
<text text-anchor="middle" x="3337" y="-920.3" font-family="Dejavu Sans Mono" font-size="14.00">(bolew:neuron&#45;20)</text>
</g>
<!-- nilxtr_neuron_type_bolew_13 -->
<g id="node32" class="node">
<title>nilxtr_neuron_type_bolew_13</title>
<path fill="none" stroke="black" d="M177,-0.5C177,-0.5 2711,-0.5 2711,-0.5 2717,-0.5 2723,-6.5 2723,-12.5 2723,-12.5 2723,-26.5 2723,-26.5 2723,-32.5 2717,-38.5 2711,-38.5 2711,-38.5 177,-38.5 177,-38.5 171,-38.5 165,-32.5 165,-26.5 165,-26.5 165,-12.5 165,-12.5 165,-6.5 171,-0.5 177,-0.5"/>
<text text-anchor="middle" x="1444" y="-23.3" font-family="Dejavu Sans Mono" font-size="14.00">Mammalia superior cervical ganglion (with&#45;dendrite&#45;in superior cervical ganglion) (with&#45;axons&#45;in ICG&#45;MCG sympathetic cord MCG&#45;SCG sympathetic cord) inferior cervical ganglion middle cervical ganglion superior cervical ganglion (with&#45;presynaptic&#45;terminals&#45;in arch of aorta) neuron projection phenotype (bolew)</text>
<text text-anchor="middle" x="1444" y="-8.3" font-family="Dejavu Sans Mono" font-size="14.00">(ilxtr:neuron&#45;type&#45;bolew&#45;13)</text>
</g>
<!-- nilxtr_neuron_type_bolew_13&#45;&gt;nbolew_neuron_13 -->
<g id="edge2" class="edge">
<title>nilxtr_neuron_type_bolew_13&#45;&gt;nbolew_neuron_13</title>
<path fill="none" stroke="black" d="M2723.03,-19.5C2854.17,-19.5 2975.53,-19.5 3075.08,-19.5"/>
<polygon fill="black" stroke="black" points="3075.25,-23 3085.25,-19.5 3075.25,-16 3075.25,-23"/>
<text text-anchor="middle" x="2984.5" y="-23.3" font-family="Dejavu Sans Mono" font-size="14.00">apinatomy:annotates</text>
</g>
<!-- nilxtr_neuron_type_bolew_20 -->
<g id="node33" class="node">
<title>nilxtr_neuron_type_bolew_20</title>
<path fill="none" stroke="black" d="M12,-912.5C12,-912.5 2876,-912.5 2876,-912.5 2882,-912.5 2888,-918.5 2888,-924.5 2888,-924.5 2888,-938.5 2888,-938.5 2888,-944.5 2882,-950.5 2876,-950.5 2876,-950.5 12,-950.5 12,-950.5 6,-950.5 0,-944.5 0,-938.5 0,-938.5 0,-924.5 0,-924.5 0,-918.5 6,-912.5 12,-912.5"/>
<text text-anchor="middle" x="1444" y="-935.3" font-family="Dejavu Sans Mono" font-size="14.00">Mammalia superior cervical ganglion (with&#45;dendrite&#45;in superior cervical ganglion) (with&#45;axons&#45;in External branch of inferior laryngeal nerve) External carotid nerve plexus Laryngeal Nerve, Inferior superior cervical ganglion vagus nerve (with&#45;presynaptic&#45;terminals&#45;in External branch of inferior laryngeal nerve) neuron projection phenotype (bolew)</text>
<text text-anchor="middle" x="1444" y="-920.3" font-family="Dejavu Sans Mono" font-size="14.00">(ilxtr:neuron&#45;type&#45;bolew&#45;20)</text>
</g>
<!-- nilxtr_neuron_type_bolew_20&#45;&gt;nbolew_neuron_20 -->
<g id="edge7" class="edge">
<title>nilxtr_neuron_type_bolew_20&#45;&gt;nbolew_neuron_20</title>
<path fill="none" stroke="black" d="M2888.16,-931.5C2956.08,-931.5 3019.2,-931.5 3075.37,-931.5"/>
<polygon fill="black" stroke="black" points="3075.41,-935 3085.41,-931.5 3075.41,-928 3075.41,-935"/>
<text text-anchor="middle" x="2984.5" y="-935.3" font-family="Dejavu Sans Mono" font-size="14.00">apinatomy:annotates</text>
</g>
</g>
</svg>
