<?xml version="1.0" encoding="UTF-8" standalone="no"?>
<!DOCTYPE svg PUBLIC "-//W3C//DTD SVG 1.1//EN"
 "http://www.w3.org/Graphics/SVG/1.1/DTD/svg11.dtd">
<!-- Generated by graphviz version 2.47.1 (20210417.1919)
 -->
<!-- Pages: 1 -->
<svg width="4315pt" height="1784pt"
 viewBox="0.00 0.00 4315.00 1784.11" xmlns="http://www.w3.org/2000/svg" xmlns:xlink="http://www.w3.org/1999/xlink">
<g id="graph0" class="graph" transform="scale(1 1) rotate(0) translate(4 1780.11)">
<polygon fill="white" stroke="transparent" points="-4,4 -4,-1780.11 4311,-1780.11 4311,4 -4,4"/>
<!-- nkblad_ac_l1l26a_lnk_2 -->
<g id="node1" class="node">
<title>nkblad_ac_l1l26a_lnk_2</title>
<path fill="none" stroke="black" d="M1520.5,-1642.87C1520.5,-1642.87 1702.5,-1642.87 1702.5,-1642.87 1708.5,-1642.87 1714.5,-1648.87 1714.5,-1654.87 1714.5,-1654.87 1714.5,-1668.87 1714.5,-1668.87 1714.5,-1674.87 1708.5,-1680.87 1702.5,-1680.87 1702.5,-1680.87 1520.5,-1680.87 1520.5,-1680.87 1514.5,-1680.87 1508.5,-1674.87 1508.5,-1668.87 1508.5,-1668.87 1508.5,-1654.87 1508.5,-1654.87 1508.5,-1648.87 1514.5,-1642.87 1520.5,-1642.87"/>
<text text-anchor="middle" x="1611.5" y="-1665.67" font-family="Dejavu Sans Mono" font-size="14.00">MISSING LABEL</text>
<text text-anchor="middle" x="1611.5" y="-1650.67" font-family="Dejavu Sans Mono" font-size="14.00">(kblad:ac&#45;l1l26a_lnk_2)</text>
</g>
<!-- nkblad_ac_l1l26a -->
<g id="node4" class="node">
<title>nkblad_ac_l1l26a</title>
<path fill="none" stroke="black" d="M2723,-1656.87C2723,-1656.87 3054,-1656.87 3054,-1656.87 3060,-1656.87 3066,-1662.87 3066,-1668.87 3066,-1668.87 3066,-1682.87 3066,-1682.87 3066,-1688.87 3060,-1694.87 3054,-1694.87 3054,-1694.87 2723,-1694.87 2723,-1694.87 2717,-1694.87 2711,-1688.87 2711,-1682.87 2711,-1682.87 2711,-1668.87 2711,-1668.87 2711,-1662.87 2717,-1656.87 2723,-1656.87"/>
<text text-anchor="middle" x="2888.5" y="-1679.67" font-family="Dejavu Sans Mono" font-size="14.00">L1&#45;6 L2&#45;6 SPR axon chain_Neuron 6 (kblad)</text>
<text text-anchor="middle" x="2888.5" y="-1664.67" font-family="Dejavu Sans Mono" font-size="14.00">(kblad:ac&#45;l1l26a)</text>
</g>
<!-- nkblad_ac_l1l26a_lnk_2&#45;&gt;nkblad_ac_l1l26a -->
<g id="edge48" class="edge">
<title>nkblad_ac_l1l26a_lnk_2&#45;&gt;nkblad_ac_l1l26a</title>
<path fill="none" stroke="black" d="M1714.68,-1662.99C1928.9,-1665.34 2427.74,-1670.82 2700.75,-1673.82"/>
<polygon fill="black" stroke="black" points="2700.73,-1677.32 2710.77,-1673.93 2700.81,-1670.32 2700.73,-1677.32"/>
<text text-anchor="middle" x="2239.5" y="-1672.67" font-family="Dejavu Sans Mono" font-size="14.00">apinatomy:levelIn</text>
</g>
<!-- nkblad_ac_l1l26a_lnk_3 -->
<g id="node11" class="node">
<title>nkblad_ac_l1l26a_lnk_3</title>
<path fill="none" stroke="black" d="M1957,-1693.87C1957,-1693.87 2139,-1693.87 2139,-1693.87 2145,-1693.87 2151,-1699.87 2151,-1705.87 2151,-1705.87 2151,-1719.87 2151,-1719.87 2151,-1725.87 2145,-1731.87 2139,-1731.87 2139,-1731.87 1957,-1731.87 1957,-1731.87 1951,-1731.87 1945,-1725.87 1945,-1719.87 1945,-1719.87 1945,-1705.87 1945,-1705.87 1945,-1699.87 1951,-1693.87 1957,-1693.87"/>
<text text-anchor="middle" x="2048" y="-1716.67" font-family="Dejavu Sans Mono" font-size="14.00">MISSING LABEL</text>
<text text-anchor="middle" x="2048" y="-1701.67" font-family="Dejavu Sans Mono" font-size="14.00">(kblad:ac&#45;l1l26a_lnk_3)</text>
</g>
<!-- nkblad_ac_l1l26a_lnk_2&#45;&gt;nkblad_ac_l1l26a_lnk_3 -->
<g id="edge55" class="edge">
<title>nkblad_ac_l1l26a_lnk_2&#45;&gt;nkblad_ac_l1l26a_lnk_3</title>
<path fill="none" stroke="black" d="M1714.55,-1665.9C1776.29,-1669.27 1856.46,-1675.3 1927,-1685.87 1937.75,-1687.48 1948.97,-1689.52 1960.05,-1691.75"/>
<polygon fill="black" stroke="black" points="1959.67,-1695.25 1970.17,-1693.85 1961.09,-1688.39 1959.67,-1695.25"/>
<text text-anchor="middle" x="1865" y="-1689.67" font-family="Dejavu Sans Mono" font-size="14.00">apinatomy:next</text>
</g>
<!-- nilxtr_neuron_type_keast_6 -->
<g id="node2" class="node">
<title>nilxtr_neuron_type_keast_6</title>
<path fill="none" stroke="black" d="M12,-933.87C12,-933.87 310,-933.87 310,-933.87 316,-933.87 322,-939.87 322,-945.87 322,-945.87 322,-959.87 322,-959.87 322,-965.87 316,-971.87 310,-971.87 310,-971.87 12,-971.87 12,-971.87 6,-971.87 0,-965.87 0,-959.87 0,-959.87 0,-945.87 0,-945.87 0,-939.87 6,-933.87 12,-933.87"/>
<text text-anchor="middle" x="161" y="-956.67" font-family="Dejavu Sans Mono" font-size="14.00">ilxtr:neuron&#45;phenotype&#45;keast&#45;6 neuron</text>
<text text-anchor="middle" x="161" y="-941.67" font-family="Dejavu Sans Mono" font-size="14.00">(ilxtr:neuron&#45;type&#45;keast&#45;6)</text>
</g>
<!-- nkblad_neuron_6 -->
<g id="node6" class="node">
<title>nkblad_neuron_6</title>
<path fill="none" stroke="black" d="M527,-933.87C527,-933.87 652,-933.87 652,-933.87 658,-933.87 664,-939.87 664,-945.87 664,-945.87 664,-959.87 664,-959.87 664,-965.87 658,-971.87 652,-971.87 652,-971.87 527,-971.87 527,-971.87 521,-971.87 515,-965.87 515,-959.87 515,-959.87 515,-945.87 515,-945.87 515,-939.87 521,-933.87 527,-933.87"/>
<text text-anchor="middle" x="589.5" y="-956.67" font-family="Dejavu Sans Mono" font-size="14.00">Neuron 6</text>
<text text-anchor="middle" x="589.5" y="-941.67" font-family="Dejavu Sans Mono" font-size="14.00">(kblad:neuron&#45;6)</text>
</g>
<!-- nilxtr_neuron_type_keast_6&#45;&gt;nkblad_neuron_6 -->
<g id="edge28" class="edge">
<title>nilxtr_neuron_type_keast_6&#45;&gt;nkblad_neuron_6</title>
<path fill="none" stroke="black" d="M322.03,-952.87C384.18,-952.87 452.79,-952.87 504.82,-952.87"/>
<polygon fill="black" stroke="black" points="505,-956.37 515,-952.87 505,-949.37 505,-956.37"/>
<text text-anchor="middle" x="418.5" y="-956.67" font-family="Dejavu Sans Mono" font-size="14.00">apinatomy:annotates</text>
</g>
<!-- nkblad_ac_snl26_lnk_7 -->
<g id="node3" class="node">
<title>nkblad_ac_snl26_lnk_7</title>
<path fill="none" stroke="black" d="M3630,-1533.87C3630,-1533.87 3804,-1533.87 3804,-1533.87 3810,-1533.87 3816,-1539.87 3816,-1545.87 3816,-1545.87 3816,-1559.87 3816,-1559.87 3816,-1565.87 3810,-1571.87 3804,-1571.87 3804,-1571.87 3630,-1571.87 3630,-1571.87 3624,-1571.87 3618,-1565.87 3618,-1559.87 3618,-1559.87 3618,-1545.87 3618,-1545.87 3618,-1539.87 3624,-1533.87 3630,-1533.87"/>
<text text-anchor="middle" x="3717" y="-1556.67" font-family="Dejavu Sans Mono" font-size="14.00">MISSING LABEL</text>
<text text-anchor="middle" x="3717" y="-1541.67" font-family="Dejavu Sans Mono" font-size="14.00">(kblad:ac&#45;snl26_lnk_7)</text>
</g>
<!-- nkblad_ac_snl26 -->
<g id="node27" class="node">
<title>nkblad_ac_snl26</title>
<path fill="none" stroke="black" d="M4005,-1391.87C4005,-1391.87 4295,-1391.87 4295,-1391.87 4301,-1391.87 4307,-1397.87 4307,-1403.87 4307,-1403.87 4307,-1417.87 4307,-1417.87 4307,-1423.87 4301,-1429.87 4295,-1429.87 4295,-1429.87 4005,-1429.87 4005,-1429.87 3999,-1429.87 3993,-1423.87 3993,-1417.87 3993,-1417.87 3993,-1403.87 3993,-1403.87 3993,-1397.87 3999,-1391.87 4005,-1391.87"/>
<text text-anchor="middle" x="4150" y="-1414.67" font-family="Dejavu Sans Mono" font-size="14.00">L2&#45;6 SPR axon chain_Neuron 6 (kblad)</text>
<text text-anchor="middle" x="4150" y="-1399.67" font-family="Dejavu Sans Mono" font-size="14.00">(kblad:ac&#45;snl26)</text>
</g>
<!-- nkblad_ac_snl26_lnk_7&#45;&gt;nkblad_ac_snl26 -->
<g id="edge38" class="edge">
<title>nkblad_ac_snl26_lnk_7&#45;&gt;nkblad_ac_snl26</title>
<path fill="none" stroke="black" d="M3816.26,-1546.85C3865.08,-1541.64 3924.31,-1531.95 3975,-1513.87 4027.51,-1495.14 4081.83,-1460.01 4115.51,-1436.04"/>
<polygon fill="black" stroke="black" points="4117.96,-1438.58 4124.03,-1429.9 4113.87,-1432.91 4117.96,-1438.58"/>
<text text-anchor="middle" x="3904.5" y="-1547.67" font-family="Dejavu Sans Mono" font-size="14.00">apinatomy:levelIn</text>
</g>
<!-- nkblad_lnk_ac_snl16_node_5_ac_snl16_node_5_clone -->
<g id="node5" class="node">
<title>nkblad_lnk_ac_snl16_node_5_ac_snl16_node_5_clone</title>
<path fill="none" stroke="black" d="M844,-1223.87C844,-1223.87 1241,-1223.87 1241,-1223.87 1247,-1223.87 1253,-1229.87 1253,-1235.87 1253,-1235.87 1253,-1249.87 1253,-1249.87 1253,-1255.87 1247,-1261.87 1241,-1261.87 1241,-1261.87 844,-1261.87 844,-1261.87 838,-1261.87 832,-1255.87 832,-1249.87 832,-1249.87 832,-1235.87 832,-1235.87 832,-1229.87 838,-1223.87 844,-1223.87"/>
<text text-anchor="middle" x="1042.5" y="-1246.67" font-family="Dejavu Sans Mono" font-size="14.00">MISSING LABEL</text>
<text text-anchor="middle" x="1042.5" y="-1231.67" font-family="Dejavu Sans Mono" font-size="14.00">(kblad:lnk_ac&#45;snl16_node_5_ac&#45;snl16_node_5_clone)</text>
</g>
<!-- nkblad_neuron_6&#45;&gt;nkblad_ac_l1l26a_lnk_2 -->
<g id="edge54" class="edge">
<title>nkblad_neuron_6&#45;&gt;nkblad_ac_l1l26a_lnk_2</title>
<path fill="none" stroke="black" d="M591.54,-971.88C597.56,-1078.93 629.62,-1603.29 682,-1649.87 741.61,-1702.88 1264.1,-1681.09 1498.06,-1668.48"/>
<polygon fill="black" stroke="black" points="1498.5,-1671.96 1508.3,-1667.92 1498.12,-1664.97 1498.5,-1671.96"/>
<text text-anchor="middle" x="1042.5" y="-1686.67" font-family="Dejavu Sans Mono" font-size="14.00">apinatomy:links</text>
</g>
<!-- nkblad_neuron_6&#45;&gt;nkblad_ac_snl26_lnk_7 -->
<g id="edge10" class="edge">
<title>nkblad_neuron_6&#45;&gt;nkblad_ac_snl26_lnk_7</title>
<path fill="none" stroke="black" d="M590.93,-971.97C593.31,-1059.91 607.59,-1425 682,-1504.87 721.01,-1546.75 1028.99,-1562.87 1041.5,-1562.87 1041.5,-1562.87 1041.5,-1562.87 3343,-1562.87 3432.09,-1562.87 3533.11,-1559.98 3607.53,-1557.31"/>
<polygon fill="black" stroke="black" points="3607.99,-1560.8 3617.85,-1556.94 3607.73,-1553.8 3607.99,-1560.8"/>
<text text-anchor="middle" x="2239.5" y="-1566.67" font-family="Dejavu Sans Mono" font-size="14.00">apinatomy:links</text>
</g>
<!-- nkblad_neuron_6&#45;&gt;nkblad_lnk_ac_snl16_node_5_ac_snl16_node_5_clone -->
<g id="edge18" class="edge">
<title>nkblad_neuron_6&#45;&gt;nkblad_lnk_ac_snl16_node_5_ac_snl16_node_5_clone</title>
<path fill="none" stroke="black" d="M590.73,-972.13C592.46,-1021.31 604.5,-1151.89 682,-1211.87 750.51,-1264.89 849.91,-1269.67 926.83,-1262.86"/>
<polygon fill="black" stroke="black" points="927.44,-1266.32 937.06,-1261.88 926.77,-1259.35 927.44,-1266.32"/>
<text text-anchor="middle" x="744" y="-1263.67" font-family="Dejavu Sans Mono" font-size="14.00">apinatomy:links</text>
</g>
<!-- nkblad_ac_snl26_lnk_2 -->
<g id="node7" class="node">
<title>nkblad_ac_snl26_lnk_2</title>
<path fill="none" stroke="black" d="M1524.5,-1309.87C1524.5,-1309.87 1698.5,-1309.87 1698.5,-1309.87 1704.5,-1309.87 1710.5,-1315.87 1710.5,-1321.87 1710.5,-1321.87 1710.5,-1335.87 1710.5,-1335.87 1710.5,-1341.87 1704.5,-1347.87 1698.5,-1347.87 1698.5,-1347.87 1524.5,-1347.87 1524.5,-1347.87 1518.5,-1347.87 1512.5,-1341.87 1512.5,-1335.87 1512.5,-1335.87 1512.5,-1321.87 1512.5,-1321.87 1512.5,-1315.87 1518.5,-1309.87 1524.5,-1309.87"/>
<text text-anchor="middle" x="1611.5" y="-1332.67" font-family="Dejavu Sans Mono" font-size="14.00">MISSING LABEL</text>
<text text-anchor="middle" x="1611.5" y="-1317.67" font-family="Dejavu Sans Mono" font-size="14.00">(kblad:ac&#45;snl26_lnk_2)</text>
</g>
<!-- nkblad_neuron_6&#45;&gt;nkblad_ac_snl26_lnk_2 -->
<g id="edge68" class="edge">
<title>nkblad_neuron_6&#45;&gt;nkblad_ac_snl26_lnk_2</title>
<path fill="none" stroke="black" d="M592.99,-972.24C601.65,-1036.29 632.64,-1239.41 682,-1278.87 732.31,-1319.1 1196.68,-1305.36 1261,-1308.87 1341.83,-1313.28 1433.17,-1318.51 1502.19,-1322.52"/>
<polygon fill="black" stroke="black" points="1502.02,-1326.02 1512.21,-1323.1 1502.43,-1319.03 1502.02,-1326.02"/>
<text text-anchor="middle" x="1042.5" y="-1312.67" font-family="Dejavu Sans Mono" font-size="14.00">apinatomy:links</text>
</g>
<!-- nkblad_lnk_snl16 -->
<g id="node8" class="node">
<title>nkblad_lnk_snl16</title>
<path fill="none" stroke="black" d="M976,-1166.87C976,-1166.87 1109,-1166.87 1109,-1166.87 1115,-1166.87 1121,-1172.87 1121,-1178.87 1121,-1178.87 1121,-1192.87 1121,-1192.87 1121,-1198.87 1115,-1204.87 1109,-1204.87 1109,-1204.87 976,-1204.87 976,-1204.87 970,-1204.87 964,-1198.87 964,-1192.87 964,-1192.87 964,-1178.87 964,-1178.87 964,-1172.87 970,-1166.87 976,-1166.87"/>
<text text-anchor="middle" x="1042.5" y="-1189.67" font-family="Dejavu Sans Mono" font-size="14.00">MISSING LABEL</text>
<text text-anchor="middle" x="1042.5" y="-1174.67" font-family="Dejavu Sans Mono" font-size="14.00">(kblad:lnk&#45;snl16)</text>
</g>
<!-- nkblad_neuron_6&#45;&gt;nkblad_lnk_snl16 -->
<g id="edge32" class="edge">
<title>nkblad_neuron_6&#45;&gt;nkblad_lnk_snl16</title>
<path fill="none" stroke="black" d="M593.27,-971.95C600.17,-1011.9 622.1,-1104.19 682,-1146.87 760.78,-1203 874.96,-1205.69 953.39,-1198.94"/>
<polygon fill="black" stroke="black" points="954.1,-1202.39 963.73,-1197.97 953.45,-1195.42 954.1,-1202.39"/>
<text text-anchor="middle" x="744" y="-1196.67" font-family="Dejavu Sans Mono" font-size="14.00">apinatomy:links</text>
</g>
<!-- nkblad_ac_snl16_lnk_4 -->
<g id="node9" class="node">
<title>nkblad_ac_snl16_lnk_4</title>
<path fill="none" stroke="black" d="M2344,-987.87C2344,-987.87 2518,-987.87 2518,-987.87 2524,-987.87 2530,-993.87 2530,-999.87 2530,-999.87 2530,-1013.87 2530,-1013.87 2530,-1019.87 2524,-1025.87 2518,-1025.87 2518,-1025.87 2344,-1025.87 2344,-1025.87 2338,-1025.87 2332,-1019.87 2332,-1013.87 2332,-1013.87 2332,-999.87 2332,-999.87 2332,-993.87 2338,-987.87 2344,-987.87"/>
<text text-anchor="middle" x="2431" y="-1010.67" font-family="Dejavu Sans Mono" font-size="14.00">MISSING LABEL</text>
<text text-anchor="middle" x="2431" y="-995.67" font-family="Dejavu Sans Mono" font-size="14.00">(kblad:ac&#45;snl16_lnk_4)</text>
</g>
<!-- nkblad_neuron_6&#45;&gt;nkblad_ac_snl16_lnk_4 -->
<g id="edge29" class="edge">
<title>nkblad_neuron_6&#45;&gt;nkblad_ac_snl16_lnk_4</title>
<path fill="none" stroke="black" d="M664.31,-965C670.28,-965.73 676.24,-966.36 682,-966.87 1300.38,-1021.03 2046.22,-1014.18 2321.3,-1009.24"/>
<polygon fill="black" stroke="black" points="2321.74,-1012.73 2331.68,-1009.05 2321.61,-1005.73 2321.74,-1012.73"/>
<text text-anchor="middle" x="1611.5" y="-1014.67" font-family="Dejavu Sans Mono" font-size="14.00">apinatomy:links</text>
</g>
<!-- nkblad_lnk_ac_l1l26a_node_2_ac_l1l26a_node_2_clone -->
<g id="node10" class="node">
<title>nkblad_lnk_ac_l1l26a_node_2_ac_l1l26a_node_2_clone</title>
<path fill="none" stroke="black" d="M836,-809.87C836,-809.87 1249,-809.87 1249,-809.87 1255,-809.87 1261,-815.87 1261,-821.87 1261,-821.87 1261,-835.87 1261,-835.87 1261,-841.87 1255,-847.87 1249,-847.87 1249,-847.87 836,-847.87 836,-847.87 830,-847.87 824,-841.87 824,-835.87 824,-835.87 824,-821.87 824,-821.87 824,-815.87 830,-809.87 836,-809.87"/>
<text text-anchor="middle" x="1042.5" y="-832.67" font-family="Dejavu Sans Mono" font-size="14.00">MISSING LABEL</text>
<text text-anchor="middle" x="1042.5" y="-817.67" font-family="Dejavu Sans Mono" font-size="14.00">(kblad:lnk_ac&#45;l1l26a_node_2_ac&#45;l1l26a_node_2_clone)</text>
</g>
<!-- nkblad_neuron_6&#45;&gt;nkblad_lnk_ac_l1l26a_node_2_ac_l1l26a_node_2_clone -->
<g id="edge24" class="edge">
<title>nkblad_neuron_6&#45;&gt;nkblad_lnk_ac_l1l26a_node_2_ac_l1l26a_node_2_clone</title>
<path fill="none" stroke="black" d="M600.76,-933.55C615.17,-908.67 643.96,-866.4 682,-847.87 722.44,-828.17 768.55,-818.04 813.95,-813.66"/>
<polygon fill="black" stroke="black" points="814.28,-817.15 823.93,-812.79 813.67,-810.18 814.28,-817.15"/>
<text text-anchor="middle" x="744" y="-851.67" font-family="Dejavu Sans Mono" font-size="14.00">apinatomy:links</text>
</g>
<!-- nkblad_neuron_6&#45;&gt;nkblad_ac_l1l26a_lnk_3 -->
<g id="edge56" class="edge">
<title>nkblad_neuron_6&#45;&gt;nkblad_ac_l1l26a_lnk_3</title>
<path fill="none" stroke="black" d="M591.58,-972.13C597.9,-1081.78 631.57,-1624.29 682,-1676.87 726.31,-1723.06 760.25,-1695.2 824,-1700.87 1231.81,-1737.11 1719.1,-1725.56 1934.8,-1717.66"/>
<polygon fill="black" stroke="black" points="1935,-1721.15 1944.86,-1717.29 1934.74,-1714.16 1935,-1721.15"/>
<text text-anchor="middle" x="1349.5" y="-1728.67" font-family="Dejavu Sans Mono" font-size="14.00">apinatomy:links</text>
</g>
<!-- nkblad_lnk_ac_snl26_node_6_ac_snl26_node_6_clone -->
<g id="node12" class="node">
<title>nkblad_lnk_ac_snl26_node_6_ac_snl26_node_6_clone</title>
<path fill="none" stroke="black" d="M844,-752.87C844,-752.87 1241,-752.87 1241,-752.87 1247,-752.87 1253,-758.87 1253,-764.87 1253,-764.87 1253,-778.87 1253,-778.87 1253,-784.87 1247,-790.87 1241,-790.87 1241,-790.87 844,-790.87 844,-790.87 838,-790.87 832,-784.87 832,-778.87 832,-778.87 832,-764.87 832,-764.87 832,-758.87 838,-752.87 844,-752.87"/>
<text text-anchor="middle" x="1042.5" y="-775.67" font-family="Dejavu Sans Mono" font-size="14.00">MISSING LABEL</text>
<text text-anchor="middle" x="1042.5" y="-760.67" font-family="Dejavu Sans Mono" font-size="14.00">(kblad:lnk_ac&#45;snl26_node_6_ac&#45;snl26_node_6_clone)</text>
</g>
<!-- nkblad_neuron_6&#45;&gt;nkblad_lnk_ac_snl26_node_6_ac_snl26_node_6_clone -->
<g id="edge31" class="edge">
<title>nkblad_neuron_6&#45;&gt;nkblad_lnk_ac_snl26_node_6_ac_snl26_node_6_clone</title>
<path fill="none" stroke="black" d="M595.25,-933.65C604.93,-899.02 630.54,-826.77 682,-794.87 751.43,-751.84 843.59,-746.73 917.21,-752.04"/>
<polygon fill="black" stroke="black" points="917.23,-755.56 927.47,-752.86 917.78,-748.58 917.23,-755.56"/>
<text text-anchor="middle" x="744" y="-798.67" font-family="Dejavu Sans Mono" font-size="14.00">apinatomy:links</text>
</g>
<!-- nkblad_lnk_ac_snl26_node_3_ac_snl26_node_3_clone -->
<g id="node13" class="node">
<title>nkblad_lnk_ac_snl26_node_3_ac_snl26_node_3_clone</title>
<path fill="none" stroke="black" d="M844,-695.87C844,-695.87 1241,-695.87 1241,-695.87 1247,-695.87 1253,-701.87 1253,-707.87 1253,-707.87 1253,-721.87 1253,-721.87 1253,-727.87 1247,-733.87 1241,-733.87 1241,-733.87 844,-733.87 844,-733.87 838,-733.87 832,-727.87 832,-721.87 832,-721.87 832,-707.87 832,-707.87 832,-701.87 838,-695.87 844,-695.87"/>
<text text-anchor="middle" x="1042.5" y="-718.67" font-family="Dejavu Sans Mono" font-size="14.00">MISSING LABEL</text>
<text text-anchor="middle" x="1042.5" y="-703.67" font-family="Dejavu Sans Mono" font-size="14.00">(kblad:lnk_ac&#45;snl26_node_3_ac&#45;snl26_node_3_clone)</text>
</g>
<!-- nkblad_neuron_6&#45;&gt;nkblad_lnk_ac_snl26_node_3_ac_snl26_node_3_clone -->
<g id="edge71" class="edge">
<title>nkblad_neuron_6&#45;&gt;nkblad_lnk_ac_snl26_node_3_ac_snl26_node_3_clone</title>
<path fill="none" stroke="black" d="M592.1,-933.79C596.88,-890.34 615.17,-784.14 682,-736.87 756.75,-684 863.6,-684.41 941.38,-694.45"/>
<polygon fill="black" stroke="black" points="941.29,-697.97 951.67,-695.86 942.24,-691.04 941.29,-697.97"/>
<text text-anchor="middle" x="744" y="-740.67" font-family="Dejavu Sans Mono" font-size="14.00">apinatomy:links</text>
</g>
<!-- nkblad_lnk_snl26 -->
<g id="node14" class="node">
<title>nkblad_lnk_snl26</title>
<path fill="none" stroke="black" d="M976,-638.87C976,-638.87 1109,-638.87 1109,-638.87 1115,-638.87 1121,-644.87 1121,-650.87 1121,-650.87 1121,-664.87 1121,-664.87 1121,-670.87 1115,-676.87 1109,-676.87 1109,-676.87 976,-676.87 976,-676.87 970,-676.87 964,-670.87 964,-664.87 964,-664.87 964,-650.87 964,-650.87 964,-644.87 970,-638.87 976,-638.87"/>
<text text-anchor="middle" x="1042.5" y="-661.67" font-family="Dejavu Sans Mono" font-size="14.00">MISSING LABEL</text>
<text text-anchor="middle" x="1042.5" y="-646.67" font-family="Dejavu Sans Mono" font-size="14.00">(kblad:lnk&#45;snl26)</text>
</g>
<!-- nkblad_neuron_6&#45;&gt;nkblad_lnk_snl26 -->
<g id="edge52" class="edge">
<title>nkblad_neuron_6&#45;&gt;nkblad_lnk_snl26</title>
<path fill="none" stroke="black" d="M590.07,-933.59C590.08,-881.69 598.07,-738.68 682,-674.87 723.11,-643.61 861.02,-645.63 953.58,-650.99"/>
<polygon fill="black" stroke="black" points="953.6,-654.5 963.79,-651.6 954.02,-647.51 953.6,-654.5"/>
<text text-anchor="middle" x="744" y="-678.67" font-family="Dejavu Sans Mono" font-size="14.00">apinatomy:links</text>
</g>
<!-- nkblad_lnk_ac_snl16_node_6_ac_snl16_node_6_clone -->
<g id="node15" class="node">
<title>nkblad_lnk_ac_snl16_node_6_ac_snl16_node_6_clone</title>
<path fill="none" stroke="black" d="M844,-581.87C844,-581.87 1241,-581.87 1241,-581.87 1247,-581.87 1253,-587.87 1253,-593.87 1253,-593.87 1253,-607.87 1253,-607.87 1253,-613.87 1247,-619.87 1241,-619.87 1241,-619.87 844,-619.87 844,-619.87 838,-619.87 832,-613.87 832,-607.87 832,-607.87 832,-593.87 832,-593.87 832,-587.87 838,-581.87 844,-581.87"/>
<text text-anchor="middle" x="1042.5" y="-604.67" font-family="Dejavu Sans Mono" font-size="14.00">MISSING LABEL</text>
<text text-anchor="middle" x="1042.5" y="-589.67" font-family="Dejavu Sans Mono" font-size="14.00">(kblad:lnk_ac&#45;snl16_node_6_ac&#45;snl16_node_6_clone)</text>
</g>
<!-- nkblad_neuron_6&#45;&gt;nkblad_lnk_ac_snl16_node_6_ac_snl16_node_6_clone -->
<g id="edge42" class="edge">
<title>nkblad_neuron_6&#45;&gt;nkblad_lnk_ac_snl16_node_6_ac_snl16_node_6_clone</title>
<path fill="none" stroke="black" d="M593.08,-933.79C602.01,-870.7 633.76,-670.57 682,-630.87 752.72,-572.67 859.96,-571.17 938.92,-580.59"/>
<polygon fill="black" stroke="black" points="938.53,-584.07 948.89,-581.85 939.41,-577.12 938.53,-584.07"/>
<text text-anchor="middle" x="744" y="-634.67" font-family="Dejavu Sans Mono" font-size="14.00">apinatomy:links</text>
</g>
<!-- nkblad_ac_l1l26a_lnk_4 -->
<g id="node16" class="node">
<title>nkblad_ac_l1l26a_lnk_4</title>
<path fill="none" stroke="black" d="M2340,-1693.87C2340,-1693.87 2522,-1693.87 2522,-1693.87 2528,-1693.87 2534,-1699.87 2534,-1705.87 2534,-1705.87 2534,-1719.87 2534,-1719.87 2534,-1725.87 2528,-1731.87 2522,-1731.87 2522,-1731.87 2340,-1731.87 2340,-1731.87 2334,-1731.87 2328,-1725.87 2328,-1719.87 2328,-1719.87 2328,-1705.87 2328,-1705.87 2328,-1699.87 2334,-1693.87 2340,-1693.87"/>
<text text-anchor="middle" x="2431" y="-1716.67" font-family="Dejavu Sans Mono" font-size="14.00">MISSING LABEL</text>
<text text-anchor="middle" x="2431" y="-1701.67" font-family="Dejavu Sans Mono" font-size="14.00">(kblad:ac&#45;l1l26a_lnk_4)</text>
</g>
<!-- nkblad_neuron_6&#45;&gt;nkblad_ac_l1l26a_lnk_4 -->
<g id="edge36" class="edge">
<title>nkblad_neuron_6&#45;&gt;nkblad_ac_l1l26a_lnk_4</title>
<path fill="none" stroke="black" d="M591.48,-972.12C597.35,-1084.18 629.45,-1649.4 682,-1703.87 794.31,-1820.3 879.73,-1760.87 1041.5,-1760.87 1041.5,-1760.87 1041.5,-1760.87 2049,-1760.87 2141.99,-1760.87 2246.76,-1746.62 2322.86,-1733.65"/>
<polygon fill="black" stroke="black" points="2323.68,-1737.06 2332.94,-1731.91 2322.49,-1730.16 2323.68,-1737.06"/>
<text text-anchor="middle" x="1611.5" y="-1764.67" font-family="Dejavu Sans Mono" font-size="14.00">apinatomy:links</text>
</g>
<!-- nkblad_ac_snl16_lnk_5 -->
<g id="node17" class="node">
<title>nkblad_ac_snl16_lnk_5</title>
<path fill="none" stroke="black" d="M2801.5,-944.87C2801.5,-944.87 2975.5,-944.87 2975.5,-944.87 2981.5,-944.87 2987.5,-950.87 2987.5,-956.87 2987.5,-956.87 2987.5,-970.87 2987.5,-970.87 2987.5,-976.87 2981.5,-982.87 2975.5,-982.87 2975.5,-982.87 2801.5,-982.87 2801.5,-982.87 2795.5,-982.87 2789.5,-976.87 2789.5,-970.87 2789.5,-970.87 2789.5,-956.87 2789.5,-956.87 2789.5,-950.87 2795.5,-944.87 2801.5,-944.87"/>
<text text-anchor="middle" x="2888.5" y="-967.67" font-family="Dejavu Sans Mono" font-size="14.00">MISSING LABEL</text>
<text text-anchor="middle" x="2888.5" y="-952.67" font-family="Dejavu Sans Mono" font-size="14.00">(kblad:ac&#45;snl16_lnk_5)</text>
</g>
<!-- nkblad_neuron_6&#45;&gt;nkblad_ac_snl16_lnk_5 -->
<g id="edge53" class="edge">
<title>nkblad_neuron_6&#45;&gt;nkblad_ac_snl16_lnk_5</title>
<path fill="none" stroke="black" d="M664,-953.22C998.79,-954.82 2380.27,-961.44 2779.19,-963.35"/>
<polygon fill="black" stroke="black" points="2779.26,-966.85 2789.28,-963.4 2779.3,-959.85 2779.26,-966.85"/>
<text text-anchor="middle" x="1865" y="-962.67" font-family="Dejavu Sans Mono" font-size="14.00">apinatomy:links</text>
</g>
<!-- nkblad_ac_snl26_lnk_6 -->
<g id="node18" class="node">
<title>nkblad_ac_snl26_lnk_6</title>
<path fill="none" stroke="black" d="M3255,-1488.87C3255,-1488.87 3429,-1488.87 3429,-1488.87 3435,-1488.87 3441,-1494.87 3441,-1500.87 3441,-1500.87 3441,-1514.87 3441,-1514.87 3441,-1520.87 3435,-1526.87 3429,-1526.87 3429,-1526.87 3255,-1526.87 3255,-1526.87 3249,-1526.87 3243,-1520.87 3243,-1514.87 3243,-1514.87 3243,-1500.87 3243,-1500.87 3243,-1494.87 3249,-1488.87 3255,-1488.87"/>
<text text-anchor="middle" x="3342" y="-1511.67" font-family="Dejavu Sans Mono" font-size="14.00">MISSING LABEL</text>
<text text-anchor="middle" x="3342" y="-1496.67" font-family="Dejavu Sans Mono" font-size="14.00">(kblad:ac&#45;snl26_lnk_6)</text>
</g>
<!-- nkblad_neuron_6&#45;&gt;nkblad_ac_snl26_lnk_6 -->
<g id="edge12" class="edge">
<title>nkblad_neuron_6&#45;&gt;nkblad_ac_snl26_lnk_6</title>
<path fill="none" stroke="black" d="M591.16,-972.03C594.45,-1055.44 611.81,-1385.94 682,-1455.87 796.97,-1570.41 879.21,-1519.87 1041.5,-1519.87 1041.5,-1519.87 1041.5,-1519.87 2889.5,-1519.87 3006.84,-1519.87 3141.27,-1515.77 3232.72,-1512.36"/>
<polygon fill="black" stroke="black" points="3232.96,-1515.86 3242.82,-1511.98 3232.69,-1508.86 3232.96,-1515.86"/>
<text text-anchor="middle" x="2048" y="-1523.67" font-family="Dejavu Sans Mono" font-size="14.00">apinatomy:links</text>
</g>
<!-- nkblad_ac_snl16_lnk_6 -->
<g id="node19" class="node">
<title>nkblad_ac_snl16_lnk_6</title>
<path fill="none" stroke="black" d="M3255,-898.87C3255,-898.87 3429,-898.87 3429,-898.87 3435,-898.87 3441,-904.87 3441,-910.87 3441,-910.87 3441,-924.87 3441,-924.87 3441,-930.87 3435,-936.87 3429,-936.87 3429,-936.87 3255,-936.87 3255,-936.87 3249,-936.87 3243,-930.87 3243,-924.87 3243,-924.87 3243,-910.87 3243,-910.87 3243,-904.87 3249,-898.87 3255,-898.87"/>
<text text-anchor="middle" x="3342" y="-921.67" font-family="Dejavu Sans Mono" font-size="14.00">MISSING LABEL</text>
<text text-anchor="middle" x="3342" y="-906.67" font-family="Dejavu Sans Mono" font-size="14.00">(kblad:ac&#45;snl16_lnk_6)</text>
</g>
<!-- nkblad_neuron_6&#45;&gt;nkblad_ac_snl16_lnk_6 -->
<g id="edge7" class="edge">
<title>nkblad_neuron_6&#45;&gt;nkblad_ac_snl16_lnk_6</title>
<path fill="none" stroke="black" d="M664.04,-948.55C859.37,-937.46 1407.45,-908.87 1864,-908.87 1864,-908.87 1864,-908.87 2889.5,-908.87 3006.82,-908.87 3141.25,-911.94 3232.71,-914.5"/>
<polygon fill="black" stroke="black" points="3232.71,-918 3242.81,-914.78 3232.91,-911 3232.71,-918"/>
<text text-anchor="middle" x="2048" y="-912.67" font-family="Dejavu Sans Mono" font-size="14.00">apinatomy:links</text>
</g>
<!-- nkblad_lnk_ac_snl16_node_4_ac_snl16_node_4_clone -->
<g id="node20" class="node">
<title>nkblad_lnk_ac_snl16_node_4_ac_snl16_node_4_clone</title>
<path fill="none" stroke="black" d="M844,-524.87C844,-524.87 1241,-524.87 1241,-524.87 1247,-524.87 1253,-530.87 1253,-536.87 1253,-536.87 1253,-550.87 1253,-550.87 1253,-556.87 1247,-562.87 1241,-562.87 1241,-562.87 844,-562.87 844,-562.87 838,-562.87 832,-556.87 832,-550.87 832,-550.87 832,-536.87 832,-536.87 832,-530.87 838,-524.87 844,-524.87"/>
<text text-anchor="middle" x="1042.5" y="-547.67" font-family="Dejavu Sans Mono" font-size="14.00">MISSING LABEL</text>
<text text-anchor="middle" x="1042.5" y="-532.67" font-family="Dejavu Sans Mono" font-size="14.00">(kblad:lnk_ac&#45;snl16_node_4_ac&#45;snl16_node_4_clone)</text>
</g>
<!-- nkblad_neuron_6&#45;&gt;nkblad_lnk_ac_snl16_node_4_ac_snl16_node_4_clone -->
<g id="edge33" class="edge">
<title>nkblad_neuron_6&#45;&gt;nkblad_lnk_ac_snl16_node_4_ac_snl16_node_4_clone</title>
<path fill="none" stroke="black" d="M592.01,-933.79C598.1,-862.15 623.39,-610.78 682,-561.87 704.89,-542.76 760.68,-535.4 821.66,-533.68"/>
<polygon fill="black" stroke="black" points="821.97,-537.17 831.88,-533.45 821.8,-530.18 821.97,-537.17"/>
<text text-anchor="middle" x="744" y="-565.67" font-family="Dejavu Sans Mono" font-size="14.00">apinatomy:links</text>
</g>
<!-- nkblad_ac_snl16_lnk_1 -->
<g id="node21" class="node">
<title>nkblad_ac_snl16_lnk_1</title>
<path fill="none" stroke="black" d="M955.5,-1057.87C955.5,-1057.87 1129.5,-1057.87 1129.5,-1057.87 1135.5,-1057.87 1141.5,-1063.87 1141.5,-1069.87 1141.5,-1069.87 1141.5,-1083.87 1141.5,-1083.87 1141.5,-1089.87 1135.5,-1095.87 1129.5,-1095.87 1129.5,-1095.87 955.5,-1095.87 955.5,-1095.87 949.5,-1095.87 943.5,-1089.87 943.5,-1083.87 943.5,-1083.87 943.5,-1069.87 943.5,-1069.87 943.5,-1063.87 949.5,-1057.87 955.5,-1057.87"/>
<text text-anchor="middle" x="1042.5" y="-1080.67" font-family="Dejavu Sans Mono" font-size="14.00">MISSING LABEL</text>
<text text-anchor="middle" x="1042.5" y="-1065.67" font-family="Dejavu Sans Mono" font-size="14.00">(kblad:ac&#45;snl16_lnk_1)</text>
</g>
<!-- nkblad_neuron_6&#45;&gt;nkblad_ac_snl16_lnk_1 -->
<g id="edge4" class="edge">
<title>nkblad_neuron_6&#45;&gt;nkblad_ac_snl16_lnk_1</title>
<path fill="none" stroke="black" d="M603.76,-972.25C619.61,-993.65 648.27,-1027.16 682,-1042.87 760.57,-1079.45 859.12,-1086.44 933.16,-1085.12"/>
<polygon fill="black" stroke="black" points="933.52,-1088.62 943.44,-1084.89 933.36,-1081.62 933.52,-1088.62"/>
<text text-anchor="middle" x="744" y="-1080.67" font-family="Dejavu Sans Mono" font-size="14.00">apinatomy:links</text>
</g>
<!-- nkblad_ac_l1l26a_lnk_1 -->
<g id="node22" class="node">
<title>nkblad_ac_l1l26a_lnk_1</title>
<path fill="none" stroke="black" d="M951.5,-1591.87C951.5,-1591.87 1133.5,-1591.87 1133.5,-1591.87 1139.5,-1591.87 1145.5,-1597.87 1145.5,-1603.87 1145.5,-1603.87 1145.5,-1617.87 1145.5,-1617.87 1145.5,-1623.87 1139.5,-1629.87 1133.5,-1629.87 1133.5,-1629.87 951.5,-1629.87 951.5,-1629.87 945.5,-1629.87 939.5,-1623.87 939.5,-1617.87 939.5,-1617.87 939.5,-1603.87 939.5,-1603.87 939.5,-1597.87 945.5,-1591.87 951.5,-1591.87"/>
<text text-anchor="middle" x="1042.5" y="-1614.67" font-family="Dejavu Sans Mono" font-size="14.00">MISSING LABEL</text>
<text text-anchor="middle" x="1042.5" y="-1599.67" font-family="Dejavu Sans Mono" font-size="14.00">(kblad:ac&#45;l1l26a_lnk_1)</text>
</g>
<!-- nkblad_neuron_6&#45;&gt;nkblad_ac_l1l26a_lnk_1 -->
<g id="edge19" class="edge">
<title>nkblad_neuron_6&#45;&gt;nkblad_ac_l1l26a_lnk_1</title>
<path fill="none" stroke="black" d="M590.29,-972.1C589.65,-1067.78 592,-1491.37 682,-1576.87 750.54,-1641.98 863.08,-1642.18 943.99,-1631.35"/>
<polygon fill="black" stroke="black" points="944.79,-1634.77 954.2,-1629.9 943.8,-1627.84 944.79,-1634.77"/>
<text text-anchor="middle" x="744" y="-1634.67" font-family="Dejavu Sans Mono" font-size="14.00">apinatomy:links</text>
</g>
<!-- nkblad_lnk_ac_l1l26a_node_1_ac_l1l26a_node_1_clone -->
<g id="node23" class="node">
<title>nkblad_lnk_ac_l1l26a_node_1_ac_l1l26a_node_1_clone</title>
<path fill="none" stroke="black" d="M836,-467.87C836,-467.87 1249,-467.87 1249,-467.87 1255,-467.87 1261,-473.87 1261,-479.87 1261,-479.87 1261,-493.87 1261,-493.87 1261,-499.87 1255,-505.87 1249,-505.87 1249,-505.87 836,-505.87 836,-505.87 830,-505.87 824,-499.87 824,-493.87 824,-493.87 824,-479.87 824,-479.87 824,-473.87 830,-467.87 836,-467.87"/>
<text text-anchor="middle" x="1042.5" y="-490.67" font-family="Dejavu Sans Mono" font-size="14.00">MISSING LABEL</text>
<text text-anchor="middle" x="1042.5" y="-475.67" font-family="Dejavu Sans Mono" font-size="14.00">(kblad:lnk_ac&#45;l1l26a_node_1_ac&#45;l1l26a_node_1_clone)</text>
</g>
<!-- nkblad_neuron_6&#45;&gt;nkblad_lnk_ac_l1l26a_node_1_ac_l1l26a_node_1_clone -->
<g id="edge37" class="edge">
<title>nkblad_neuron_6&#45;&gt;nkblad_lnk_ac_l1l26a_node_1_ac_l1l26a_node_1_clone</title>
<path fill="none" stroke="black" d="M591.56,-933.77C596.24,-857.03 617.74,-572.5 682,-515.87 753.63,-452.74 867.46,-454.52 947.82,-466.29"/>
<polygon fill="black" stroke="black" points="947.53,-469.79 957.94,-467.85 948.59,-462.87 947.53,-469.79"/>
<text text-anchor="middle" x="744" y="-519.67" font-family="Dejavu Sans Mono" font-size="14.00">apinatomy:links</text>
</g>
<!-- nkblad_dc_snl16_lnk_1 -->
<g id="node24" class="node">
<title>nkblad_dc_snl16_lnk_1</title>
<path fill="none" stroke="black" d="M955.5,-410.87C955.5,-410.87 1129.5,-410.87 1129.5,-410.87 1135.5,-410.87 1141.5,-416.87 1141.5,-422.87 1141.5,-422.87 1141.5,-436.87 1141.5,-436.87 1141.5,-442.87 1135.5,-448.87 1129.5,-448.87 1129.5,-448.87 955.5,-448.87 955.5,-448.87 949.5,-448.87 943.5,-442.87 943.5,-436.87 943.5,-436.87 943.5,-422.87 943.5,-422.87 943.5,-416.87 949.5,-410.87 955.5,-410.87"/>
<text text-anchor="middle" x="1042.5" y="-433.67" font-family="Dejavu Sans Mono" font-size="14.00">MISSING LABEL</text>
<text text-anchor="middle" x="1042.5" y="-418.67" font-family="Dejavu Sans Mono" font-size="14.00">(kblad:dc&#45;snl16_lnk_1)</text>
</g>
<!-- nkblad_neuron_6&#45;&gt;nkblad_dc_snl16_lnk_1 -->
<g id="edge20" class="edge">
<title>nkblad_neuron_6&#45;&gt;nkblad_dc_snl16_lnk_1</title>
<path fill="none" stroke="black" d="M590.91,-933.61C593.15,-849.01 606.75,-511.65 682,-445.87 718.21,-414.21 840.92,-414.85 932.97,-420.38"/>
<polygon fill="black" stroke="black" points="932.99,-423.89 943.19,-421.03 933.43,-416.91 932.99,-423.89"/>
<text text-anchor="middle" x="744" y="-449.67" font-family="Dejavu Sans Mono" font-size="14.00">apinatomy:links</text>
</g>
<!-- nkblad_lnk_ac_l1l26a_node_3_ac_l1l26a_node_3_clone -->
<g id="node25" class="node">
<title>nkblad_lnk_ac_l1l26a_node_3_ac_l1l26a_node_3_clone</title>
<path fill="none" stroke="black" d="M836,-353.87C836,-353.87 1249,-353.87 1249,-353.87 1255,-353.87 1261,-359.87 1261,-365.87 1261,-365.87 1261,-379.87 1261,-379.87 1261,-385.87 1255,-391.87 1249,-391.87 1249,-391.87 836,-391.87 836,-391.87 830,-391.87 824,-385.87 824,-379.87 824,-379.87 824,-365.87 824,-365.87 824,-359.87 830,-353.87 836,-353.87"/>
<text text-anchor="middle" x="1042.5" y="-376.67" font-family="Dejavu Sans Mono" font-size="14.00">MISSING LABEL</text>
<text text-anchor="middle" x="1042.5" y="-361.67" font-family="Dejavu Sans Mono" font-size="14.00">(kblad:lnk_ac&#45;l1l26a_node_3_ac&#45;l1l26a_node_3_clone)</text>
</g>
<!-- nkblad_neuron_6&#45;&gt;nkblad_lnk_ac_l1l26a_node_3_ac_l1l26a_node_3_clone -->
<g id="edge21" class="edge">
<title>nkblad_neuron_6&#45;&gt;nkblad_lnk_ac_l1l26a_node_3_ac_l1l26a_node_3_clone</title>
<path fill="none" stroke="black" d="M590.65,-933.76C591.75,-844.94 601.22,-473.76 682,-399.87 703.17,-380.5 755.3,-371.54 813.49,-368.02"/>
<polygon fill="black" stroke="black" points="813.85,-371.51 823.65,-367.47 813.47,-364.52 813.85,-371.51"/>
<text text-anchor="middle" x="744" y="-403.67" font-family="Dejavu Sans Mono" font-size="14.00">apinatomy:links</text>
</g>
<!-- nkblad_ac_snl26_lnk_3 -->
<g id="node28" class="node">
<title>nkblad_ac_snl26_lnk_3</title>
<path fill="none" stroke="black" d="M1961,-1359.87C1961,-1359.87 2135,-1359.87 2135,-1359.87 2141,-1359.87 2147,-1365.87 2147,-1371.87 2147,-1371.87 2147,-1385.87 2147,-1385.87 2147,-1391.87 2141,-1397.87 2135,-1397.87 2135,-1397.87 1961,-1397.87 1961,-1397.87 1955,-1397.87 1949,-1391.87 1949,-1385.87 1949,-1385.87 1949,-1371.87 1949,-1371.87 1949,-1365.87 1955,-1359.87 1961,-1359.87"/>
<text text-anchor="middle" x="2048" y="-1382.67" font-family="Dejavu Sans Mono" font-size="14.00">MISSING LABEL</text>
<text text-anchor="middle" x="2048" y="-1367.67" font-family="Dejavu Sans Mono" font-size="14.00">(kblad:ac&#45;snl26_lnk_3)</text>
</g>
<!-- nkblad_neuron_6&#45;&gt;nkblad_ac_snl26_lnk_3 -->
<g id="edge17" class="edge">
<title>nkblad_neuron_6&#45;&gt;nkblad_ac_snl26_lnk_3</title>
<path fill="none" stroke="black" d="M591.47,-971.9C595.81,-1048.34 616.18,-1331.53 682,-1384.87 730.51,-1424.18 1624.45,-1394.69 1938.79,-1383.05"/>
<polygon fill="black" stroke="black" points="1938.96,-1386.54 1948.82,-1382.67 1938.7,-1379.55 1938.96,-1386.54"/>
<text text-anchor="middle" x="1349.5" y="-1404.67" font-family="Dejavu Sans Mono" font-size="14.00">apinatomy:links</text>
</g>
<!-- nkblad_dc_snl26_lnk_1 -->
<g id="node29" class="node">
<title>nkblad_dc_snl26_lnk_1</title>
<path fill="none" stroke="black" d="M955.5,-296.87C955.5,-296.87 1129.5,-296.87 1129.5,-296.87 1135.5,-296.87 1141.5,-302.87 1141.5,-308.87 1141.5,-308.87 1141.5,-322.87 1141.5,-322.87 1141.5,-328.87 1135.5,-334.87 1129.5,-334.87 1129.5,-334.87 955.5,-334.87 955.5,-334.87 949.5,-334.87 943.5,-328.87 943.5,-322.87 943.5,-322.87 943.5,-308.87 943.5,-308.87 943.5,-302.87 949.5,-296.87 955.5,-296.87"/>
<text text-anchor="middle" x="1042.5" y="-319.67" font-family="Dejavu Sans Mono" font-size="14.00">MISSING LABEL</text>
<text text-anchor="middle" x="1042.5" y="-304.67" font-family="Dejavu Sans Mono" font-size="14.00">(kblad:dc&#45;snl26_lnk_1)</text>
</g>
<!-- nkblad_neuron_6&#45;&gt;nkblad_dc_snl26_lnk_1 -->
<g id="edge41" class="edge">
<title>nkblad_neuron_6&#45;&gt;nkblad_dc_snl26_lnk_1</title>
<path fill="none" stroke="black" d="M590.39,-933.67C590.3,-839.99 594.95,-432.15 682,-349.87 750.6,-285.03 862.85,-284.7 943.69,-295.42"/>
<polygon fill="black" stroke="black" points="943.49,-298.93 953.88,-296.86 944.47,-292 943.49,-298.93"/>
<text text-anchor="middle" x="744" y="-353.67" font-family="Dejavu Sans Mono" font-size="14.00">apinatomy:links</text>
</g>
<!-- nkblad_lnk_ac_snl26_node_2_ac_snl26_node_2_clone -->
<g id="node31" class="node">
<title>nkblad_lnk_ac_snl26_node_2_ac_snl26_node_2_clone</title>
<path fill="none" stroke="black" d="M844,-239.87C844,-239.87 1241,-239.87 1241,-239.87 1247,-239.87 1253,-245.87 1253,-251.87 1253,-251.87 1253,-265.87 1253,-265.87 1253,-271.87 1247,-277.87 1241,-277.87 1241,-277.87 844,-277.87 844,-277.87 838,-277.87 832,-271.87 832,-265.87 832,-265.87 832,-251.87 832,-251.87 832,-245.87 838,-239.87 844,-239.87"/>
<text text-anchor="middle" x="1042.5" y="-262.67" font-family="Dejavu Sans Mono" font-size="14.00">MISSING LABEL</text>
<text text-anchor="middle" x="1042.5" y="-247.67" font-family="Dejavu Sans Mono" font-size="14.00">(kblad:lnk_ac&#45;snl26_node_2_ac&#45;snl26_node_2_clone)</text>
</g>
<!-- nkblad_neuron_6&#45;&gt;nkblad_lnk_ac_snl26_node_2_ac_snl26_node_2_clone -->
<g id="edge65" class="edge">
<title>nkblad_neuron_6&#45;&gt;nkblad_lnk_ac_snl26_node_2_ac_snl26_node_2_clone</title>
<path fill="none" stroke="black" d="M591.65,-933.77C598.18,-828.57 632.02,-322.79 682,-276.87 704.07,-256.59 760.06,-248.98 821.46,-247.4"/>
<polygon fill="black" stroke="black" points="821.83,-250.89 831.76,-247.18 821.69,-243.89 821.83,-250.89"/>
<text text-anchor="middle" x="744" y="-280.67" font-family="Dejavu Sans Mono" font-size="14.00">apinatomy:links</text>
</g>
<!-- nkblad_ac_snl26_lnk_4 -->
<g id="node32" class="node">
<title>nkblad_ac_snl26_lnk_4</title>
<path fill="none" stroke="black" d="M2344,-1400.87C2344,-1400.87 2518,-1400.87 2518,-1400.87 2524,-1400.87 2530,-1406.87 2530,-1412.87 2530,-1412.87 2530,-1426.87 2530,-1426.87 2530,-1432.87 2524,-1438.87 2518,-1438.87 2518,-1438.87 2344,-1438.87 2344,-1438.87 2338,-1438.87 2332,-1432.87 2332,-1426.87 2332,-1426.87 2332,-1412.87 2332,-1412.87 2332,-1406.87 2338,-1400.87 2344,-1400.87"/>
<text text-anchor="middle" x="2431" y="-1423.67" font-family="Dejavu Sans Mono" font-size="14.00">MISSING LABEL</text>
<text text-anchor="middle" x="2431" y="-1408.67" font-family="Dejavu Sans Mono" font-size="14.00">(kblad:ac&#45;snl26_lnk_4)</text>
</g>
<!-- nkblad_neuron_6&#45;&gt;nkblad_ac_snl26_lnk_4 -->
<g id="edge34" class="edge">
<title>nkblad_neuron_6&#45;&gt;nkblad_ac_snl26_lnk_4</title>
<path fill="none" stroke="black" d="M591.41,-972.13C595.56,-1050.87 615.45,-1346.98 682,-1405.87 743.46,-1460.26 1949.49,-1432.72 2321.61,-1422.88"/>
<polygon fill="black" stroke="black" points="2321.94,-1426.37 2331.84,-1422.61 2321.75,-1419.38 2321.94,-1426.37"/>
<text text-anchor="middle" x="1611.5" y="-1441.67" font-family="Dejavu Sans Mono" font-size="14.00">apinatomy:links</text>
</g>
<!-- nkblad_ac_snl26_lnk_1 -->
<g id="node33" class="node">
<title>nkblad_ac_snl26_lnk_1</title>
<path fill="none" stroke="black" d="M955.5,-1332.87C955.5,-1332.87 1129.5,-1332.87 1129.5,-1332.87 1135.5,-1332.87 1141.5,-1338.87 1141.5,-1344.87 1141.5,-1344.87 1141.5,-1358.87 1141.5,-1358.87 1141.5,-1364.87 1135.5,-1370.87 1129.5,-1370.87 1129.5,-1370.87 955.5,-1370.87 955.5,-1370.87 949.5,-1370.87 943.5,-1364.87 943.5,-1358.87 943.5,-1358.87 943.5,-1344.87 943.5,-1344.87 943.5,-1338.87 949.5,-1332.87 955.5,-1332.87"/>
<text text-anchor="middle" x="1042.5" y="-1355.67" font-family="Dejavu Sans Mono" font-size="14.00">MISSING LABEL</text>
<text text-anchor="middle" x="1042.5" y="-1340.67" font-family="Dejavu Sans Mono" font-size="14.00">(kblad:ac&#45;snl26_lnk_1)</text>
</g>
<!-- nkblad_neuron_6&#45;&gt;nkblad_ac_snl26_lnk_1 -->
<g id="edge50" class="edge">
<title>nkblad_neuron_6&#45;&gt;nkblad_ac_snl26_lnk_1</title>
<path fill="none" stroke="black" d="M592.55,-972.2C600.16,-1040.23 629.17,-1267 682,-1312.87 749.96,-1371.88 854.56,-1377.02 933.43,-1370.13"/>
<polygon fill="black" stroke="black" points="933.78,-1373.61 943.41,-1369.18 933.12,-1366.65 933.78,-1373.61"/>
<text text-anchor="middle" x="744" y="-1369.67" font-family="Dejavu Sans Mono" font-size="14.00">apinatomy:links</text>
</g>
<!-- nkblad_lnk_ac_snl26_node_5_ac_snl26_node_5_clone -->
<g id="node35" class="node">
<title>nkblad_lnk_ac_snl26_node_5_ac_snl26_node_5_clone</title>
<path fill="none" stroke="black" d="M844,-182.87C844,-182.87 1241,-182.87 1241,-182.87 1247,-182.87 1253,-188.87 1253,-194.87 1253,-194.87 1253,-208.87 1253,-208.87 1253,-214.87 1247,-220.87 1241,-220.87 1241,-220.87 844,-220.87 844,-220.87 838,-220.87 832,-214.87 832,-208.87 832,-208.87 832,-194.87 832,-194.87 832,-188.87 838,-182.87 844,-182.87"/>
<text text-anchor="middle" x="1042.5" y="-205.67" font-family="Dejavu Sans Mono" font-size="14.00">MISSING LABEL</text>
<text text-anchor="middle" x="1042.5" y="-190.67" font-family="Dejavu Sans Mono" font-size="14.00">(kblad:lnk_ac&#45;snl26_node_5_ac&#45;snl26_node_5_clone)</text>
</g>
<!-- nkblad_neuron_6&#45;&gt;nkblad_lnk_ac_snl26_node_5_ac_snl26_node_5_clone -->
<g id="edge61" class="edge">
<title>nkblad_neuron_6&#45;&gt;nkblad_lnk_ac_snl26_node_5_ac_snl26_node_5_clone</title>
<path fill="none" stroke="black" d="M591.51,-933.56C597.44,-823.66 629.33,-280.06 682,-229.87 703.79,-209.11 759.92,-199.99 821.52,-196.7"/>
<polygon fill="black" stroke="black" points="822.04,-200.18 831.86,-196.21 821.7,-193.19 822.04,-200.18"/>
<text text-anchor="middle" x="744" y="-233.67" font-family="Dejavu Sans Mono" font-size="14.00">apinatomy:links</text>
</g>
<!-- nkblad_ac_snl26_lnk_5 -->
<g id="node36" class="node">
<title>nkblad_ac_snl26_lnk_5</title>
<path fill="none" stroke="black" d="M2801.5,-1446.87C2801.5,-1446.87 2975.5,-1446.87 2975.5,-1446.87 2981.5,-1446.87 2987.5,-1452.87 2987.5,-1458.87 2987.5,-1458.87 2987.5,-1472.87 2987.5,-1472.87 2987.5,-1478.87 2981.5,-1484.87 2975.5,-1484.87 2975.5,-1484.87 2801.5,-1484.87 2801.5,-1484.87 2795.5,-1484.87 2789.5,-1478.87 2789.5,-1472.87 2789.5,-1472.87 2789.5,-1458.87 2789.5,-1458.87 2789.5,-1452.87 2795.5,-1446.87 2801.5,-1446.87"/>
<text text-anchor="middle" x="2888.5" y="-1469.67" font-family="Dejavu Sans Mono" font-size="14.00">MISSING LABEL</text>
<text text-anchor="middle" x="2888.5" y="-1454.67" font-family="Dejavu Sans Mono" font-size="14.00">(kblad:ac&#45;snl26_lnk_5)</text>
</g>
<!-- nkblad_neuron_6&#45;&gt;nkblad_ac_snl26_lnk_5 -->
<g id="edge26" class="edge">
<title>nkblad_neuron_6&#45;&gt;nkblad_ac_snl26_lnk_5</title>
<path fill="none" stroke="black" d="M591.27,-971.95C594.92,-1052.8 613.37,-1365.91 682,-1429.87 759.39,-1502 2346.96,-1476.42 2779.49,-1468.08"/>
<polygon fill="black" stroke="black" points="2779.56,-1471.58 2789.5,-1467.88 2779.43,-1464.58 2779.56,-1471.58"/>
<text text-anchor="middle" x="1865" y="-1482.67" font-family="Dejavu Sans Mono" font-size="14.00">apinatomy:links</text>
</g>
<!-- nkblad_ac_snl16_lnk_2 -->
<g id="node37" class="node">
<title>nkblad_ac_snl16_lnk_2</title>
<path fill="none" stroke="black" d="M1524.5,-1113.87C1524.5,-1113.87 1698.5,-1113.87 1698.5,-1113.87 1704.5,-1113.87 1710.5,-1119.87 1710.5,-1125.87 1710.5,-1125.87 1710.5,-1139.87 1710.5,-1139.87 1710.5,-1145.87 1704.5,-1151.87 1698.5,-1151.87 1698.5,-1151.87 1524.5,-1151.87 1524.5,-1151.87 1518.5,-1151.87 1512.5,-1145.87 1512.5,-1139.87 1512.5,-1139.87 1512.5,-1125.87 1512.5,-1125.87 1512.5,-1119.87 1518.5,-1113.87 1524.5,-1113.87"/>
<text text-anchor="middle" x="1611.5" y="-1136.67" font-family="Dejavu Sans Mono" font-size="14.00">MISSING LABEL</text>
<text text-anchor="middle" x="1611.5" y="-1121.67" font-family="Dejavu Sans Mono" font-size="14.00">(kblad:ac&#45;snl16_lnk_2)</text>
</g>
<!-- nkblad_neuron_6&#45;&gt;nkblad_ac_snl16_lnk_2 -->
<g id="edge60" class="edge">
<title>nkblad_neuron_6&#45;&gt;nkblad_ac_snl16_lnk_2</title>
<path fill="none" stroke="black" d="M596.44,-972.04C607.49,-1004.06 634.49,-1067.65 682,-1095.87 750.89,-1136.79 1272.06,-1136.48 1502.03,-1134.29"/>
<polygon fill="black" stroke="black" points="1502.13,-1137.79 1512.09,-1134.19 1502.06,-1130.79 1502.13,-1137.79"/>
<text text-anchor="middle" x="1042.5" y="-1137.67" font-family="Dejavu Sans Mono" font-size="14.00">apinatomy:links</text>
</g>
<!-- nkblad_lnk_ac_snl16_node_3_ac_snl16_node_3_clone -->
<g id="node38" class="node">
<title>nkblad_lnk_ac_snl16_node_3_ac_snl16_node_3_clone</title>
<path fill="none" stroke="black" d="M844,-125.87C844,-125.87 1241,-125.87 1241,-125.87 1247,-125.87 1253,-131.87 1253,-137.87 1253,-137.87 1253,-151.87 1253,-151.87 1253,-157.87 1247,-163.87 1241,-163.87 1241,-163.87 844,-163.87 844,-163.87 838,-163.87 832,-157.87 832,-151.87 832,-151.87 832,-137.87 832,-137.87 832,-131.87 838,-125.87 844,-125.87"/>
<text text-anchor="middle" x="1042.5" y="-148.67" font-family="Dejavu Sans Mono" font-size="14.00">MISSING LABEL</text>
<text text-anchor="middle" x="1042.5" y="-133.67" font-family="Dejavu Sans Mono" font-size="14.00">(kblad:lnk_ac&#45;snl16_node_3_ac&#45;snl16_node_3_clone)</text>
</g>
<!-- nkblad_neuron_6&#45;&gt;nkblad_lnk_ac_snl16_node_3_ac_snl16_node_3_clone -->
<g id="edge6" class="edge">
<title>nkblad_neuron_6&#45;&gt;nkblad_lnk_ac_snl16_node_3_ac_snl16_node_3_clone</title>
<path fill="none" stroke="black" d="M591.35,-933.73C596.58,-819.74 626.1,-233.47 682,-178.87 750.38,-112.07 864.84,-112.78 946.23,-124.28"/>
<polygon fill="black" stroke="black" points="946.08,-127.8 956.48,-125.81 947.11,-120.88 946.08,-127.8"/>
<text text-anchor="middle" x="744" y="-182.67" font-family="Dejavu Sans Mono" font-size="14.00">apinatomy:links</text>
</g>
<!-- nkblad_lnk_ac_snl16_node_2_ac_snl16_node_2_clone -->
<g id="node39" class="node">
<title>nkblad_lnk_ac_snl16_node_2_ac_snl16_node_2_clone</title>
<path fill="none" stroke="black" d="M844,-68.87C844,-68.87 1241,-68.87 1241,-68.87 1247,-68.87 1253,-74.87 1253,-80.87 1253,-80.87 1253,-94.87 1253,-94.87 1253,-100.87 1247,-106.87 1241,-106.87 1241,-106.87 844,-106.87 844,-106.87 838,-106.87 832,-100.87 832,-94.87 832,-94.87 832,-80.87 832,-80.87 832,-74.87 838,-68.87 844,-68.87"/>
<text text-anchor="middle" x="1042.5" y="-91.67" font-family="Dejavu Sans Mono" font-size="14.00">MISSING LABEL</text>
<text text-anchor="middle" x="1042.5" y="-76.67" font-family="Dejavu Sans Mono" font-size="14.00">(kblad:lnk_ac&#45;snl16_node_2_ac&#45;snl16_node_2_clone)</text>
</g>
<!-- nkblad_neuron_6&#45;&gt;nkblad_lnk_ac_snl16_node_2_ac_snl16_node_2_clone -->
<g id="edge58" class="edge">
<title>nkblad_neuron_6&#45;&gt;nkblad_lnk_ac_snl16_node_2_ac_snl16_node_2_clone</title>
<path fill="none" stroke="black" d="M591.1,-933.85C595.08,-813.76 619.4,-163.81 682,-104.87 703.87,-84.28 760.02,-76.76 821.62,-75.39"/>
<polygon fill="black" stroke="black" points="822.01,-78.89 831.95,-75.22 821.9,-71.89 822.01,-78.89"/>
<text text-anchor="middle" x="744" y="-108.67" font-family="Dejavu Sans Mono" font-size="14.00">apinatomy:links</text>
</g>
<!-- nkblad_ac_snl16_lnk_7 -->
<g id="node40" class="node">
<title>nkblad_ac_snl16_lnk_7</title>
<path fill="none" stroke="black" d="M3630,-853.87C3630,-853.87 3804,-853.87 3804,-853.87 3810,-853.87 3816,-859.87 3816,-865.87 3816,-865.87 3816,-879.87 3816,-879.87 3816,-885.87 3810,-891.87 3804,-891.87 3804,-891.87 3630,-891.87 3630,-891.87 3624,-891.87 3618,-885.87 3618,-879.87 3618,-879.87 3618,-865.87 3618,-865.87 3618,-859.87 3624,-853.87 3630,-853.87"/>
<text text-anchor="middle" x="3717" y="-876.67" font-family="Dejavu Sans Mono" font-size="14.00">MISSING LABEL</text>
<text text-anchor="middle" x="3717" y="-861.67" font-family="Dejavu Sans Mono" font-size="14.00">(kblad:ac&#45;snl16_lnk_7)</text>
</g>
<!-- nkblad_neuron_6&#45;&gt;nkblad_ac_snl16_lnk_7 -->
<g id="edge46" class="edge">
<title>nkblad_neuron_6&#45;&gt;nkblad_ac_snl16_lnk_7</title>
<path fill="none" stroke="black" d="M664.08,-939.06C709.91,-931.07 770.17,-921.68 824,-916.87 1450.63,-860.93 1609.38,-862.87 2238.5,-862.87 2238.5,-862.87 2238.5,-862.87 3343,-862.87 3432.09,-862.87 3533.11,-865.76 3607.53,-868.43"/>
<polygon fill="black" stroke="black" points="3607.73,-871.94 3617.85,-868.8 3607.99,-864.94 3607.73,-871.94"/>
<text text-anchor="middle" x="2239.5" y="-866.67" font-family="Dejavu Sans Mono" font-size="14.00">apinatomy:links</text>
</g>
<!-- nkblad_lnk_ac_snl26_node_4_ac_snl26_node_4_clone -->
<g id="node41" class="node">
<title>nkblad_lnk_ac_snl26_node_4_ac_snl26_node_4_clone</title>
<path fill="none" stroke="black" d="M844,-11.87C844,-11.87 1241,-11.87 1241,-11.87 1247,-11.87 1253,-17.87 1253,-23.87 1253,-23.87 1253,-37.87 1253,-37.87 1253,-43.87 1247,-49.87 1241,-49.87 1241,-49.87 844,-49.87 844,-49.87 838,-49.87 832,-43.87 832,-37.87 832,-37.87 832,-23.87 832,-23.87 832,-17.87 838,-11.87 844,-11.87"/>
<text text-anchor="middle" x="1042.5" y="-34.67" font-family="Dejavu Sans Mono" font-size="14.00">MISSING LABEL</text>
<text text-anchor="middle" x="1042.5" y="-19.67" font-family="Dejavu Sans Mono" font-size="14.00">(kblad:lnk_ac&#45;snl26_node_4_ac&#45;snl26_node_4_clone)</text>
</g>
<!-- nkblad_neuron_6&#45;&gt;nkblad_lnk_ac_snl26_node_4_ac_snl26_node_4_clone -->
<g id="edge40" class="edge">
<title>nkblad_neuron_6&#45;&gt;nkblad_lnk_ac_snl26_node_4_ac_snl26_node_4_clone</title>
<path fill="none" stroke="black" d="M591.02,-933.63C594.54,-809.2 616.88,-121.26 682,-57.87 753.68,11.91 875.99,5.08 957.77,-9.9"/>
<polygon fill="black" stroke="black" points="957.3,-13.37 967.78,-11.81 958.62,-6.5 957.3,-13.37"/>
<text text-anchor="middle" x="744" y="-61.67" font-family="Dejavu Sans Mono" font-size="14.00">apinatomy:links</text>
</g>
<!-- nkblad_ac_snl16_lnk_3 -->
<g id="node42" class="node">
<title>nkblad_ac_snl16_lnk_3</title>
<path fill="none" stroke="black" d="M1961,-1026.87C1961,-1026.87 2135,-1026.87 2135,-1026.87 2141,-1026.87 2147,-1032.87 2147,-1038.87 2147,-1038.87 2147,-1052.87 2147,-1052.87 2147,-1058.87 2141,-1064.87 2135,-1064.87 2135,-1064.87 1961,-1064.87 1961,-1064.87 1955,-1064.87 1949,-1058.87 1949,-1052.87 1949,-1052.87 1949,-1038.87 1949,-1038.87 1949,-1032.87 1955,-1026.87 1961,-1026.87"/>
<text text-anchor="middle" x="2048" y="-1049.67" font-family="Dejavu Sans Mono" font-size="14.00">MISSING LABEL</text>
<text text-anchor="middle" x="2048" y="-1034.67" font-family="Dejavu Sans Mono" font-size="14.00">(kblad:ac&#45;snl16_lnk_3)</text>
</g>
<!-- nkblad_neuron_6&#45;&gt;nkblad_ac_snl16_lnk_3 -->
<g id="edge1" class="edge">
<title>nkblad_neuron_6&#45;&gt;nkblad_ac_snl16_lnk_3</title>
<path fill="none" stroke="black" d="M616.19,-972.01C633.75,-983.9 658.07,-998.16 682,-1004.87 801.38,-1038.35 1637.09,-1044.49 1938.73,-1045.62"/>
<polygon fill="black" stroke="black" points="1938.79,-1049.12 1948.8,-1045.65 1938.82,-1042.12 1938.79,-1049.12"/>
<text text-anchor="middle" x="1349.5" y="-1043.67" font-family="Dejavu Sans Mono" font-size="14.00">apinatomy:links</text>
</g>
<!-- nkblad_ac_snl26_lnk_2&#45;&gt;nkblad_ac_snl26 -->
<g id="edge51" class="edge">
<title>nkblad_ac_snl26_lnk_2&#45;&gt;nkblad_ac_snl26</title>
<path fill="none" stroke="black" d="M1710.85,-1326.38C1798.92,-1324.37 1931.57,-1321.87 2047,-1321.87 2047,-1321.87 2047,-1321.87 3718,-1321.87 3849.92,-1321.87 3999.96,-1362.36 4083.66,-1388.72"/>
<polygon fill="black" stroke="black" points="4082.69,-1392.08 4093.28,-1391.78 4084.81,-1385.41 4082.69,-1392.08"/>
<text text-anchor="middle" x="2888.5" y="-1325.67" font-family="Dejavu Sans Mono" font-size="14.00">apinatomy:levelIn</text>
</g>
<!-- nkblad_ac_snl26_lnk_2&#45;&gt;nkblad_ac_snl26_lnk_3 -->
<g id="edge44" class="edge">
<title>nkblad_ac_snl26_lnk_2&#45;&gt;nkblad_ac_snl26_lnk_3</title>
<path fill="none" stroke="black" d="M1710.73,-1337.66C1772.83,-1343.51 1854.71,-1351.78 1927,-1360.87 1930.89,-1361.36 1934.84,-1361.87 1938.83,-1362.4"/>
<polygon fill="black" stroke="black" points="1938.44,-1365.88 1948.82,-1363.75 1939.38,-1358.94 1938.44,-1365.88"/>
<text text-anchor="middle" x="1865" y="-1364.67" font-family="Dejavu Sans Mono" font-size="14.00">apinatomy:next</text>
</g>
<!-- nkblad_ac_snl16_lnk_4&#45;&gt;nkblad_ac_snl16_lnk_5 -->
<g id="edge63" class="edge">
<title>nkblad_ac_snl16_lnk_4&#45;&gt;nkblad_ac_snl16_lnk_5</title>
<path fill="none" stroke="black" d="M2530.15,-991.54C2537.54,-990.57 2544.88,-989.67 2552,-988.87 2627.62,-980.39 2713.16,-974.07 2778.94,-969.9"/>
<polygon fill="black" stroke="black" points="2779.57,-973.37 2789.33,-969.25 2779.13,-966.38 2779.57,-973.37"/>
<text text-anchor="middle" x="2622.5" y="-992.67" font-family="Dejavu Sans Mono" font-size="14.00">apinatomy:next</text>
</g>
<!-- nkblad_ac_snl16 -->
<g id="node34" class="node">
<title>nkblad_ac_snl16</title>
<path fill="none" stroke="black" d="M4005,-998.87C4005,-998.87 4295,-998.87 4295,-998.87 4301,-998.87 4307,-1004.87 4307,-1010.87 4307,-1010.87 4307,-1024.87 4307,-1024.87 4307,-1030.87 4301,-1036.87 4295,-1036.87 4295,-1036.87 4005,-1036.87 4005,-1036.87 3999,-1036.87 3993,-1030.87 3993,-1024.87 3993,-1024.87 3993,-1010.87 3993,-1010.87 3993,-1004.87 3999,-998.87 4005,-998.87"/>
<text text-anchor="middle" x="4150" y="-1021.67" font-family="Dejavu Sans Mono" font-size="14.00">L1&#45;6 SPR axon chain_Neuron 6 (kblad)</text>
<text text-anchor="middle" x="4150" y="-1006.67" font-family="Dejavu Sans Mono" font-size="14.00">(kblad:ac&#45;snl16)</text>
</g>
<!-- nkblad_ac_snl16_lnk_4&#45;&gt;nkblad_ac_snl16 -->
<g id="edge64" class="edge">
<title>nkblad_ac_snl16_lnk_4&#45;&gt;nkblad_ac_snl16</title>
<path fill="none" stroke="black" d="M2530.17,-1010.61C2622.4,-1013.8 2764.3,-1017.87 2887.5,-1017.87 2887.5,-1017.87 2887.5,-1017.87 3718,-1017.87 3805.36,-1017.87 3902.69,-1017.87 3982.72,-1017.87"/>
<polygon fill="black" stroke="black" points="3982.89,-1021.37 3992.89,-1017.87 3982.89,-1014.37 3982.89,-1021.37"/>
<text text-anchor="middle" x="3342" y="-1021.67" font-family="Dejavu Sans Mono" font-size="14.00">apinatomy:levelIn</text>
</g>
<!-- nkblad_ac_l1l26a_lnk_3&#45;&gt;nkblad_ac_l1l26a -->
<g id="edge39" class="edge">
<title>nkblad_ac_l1l26a_lnk_3&#45;&gt;nkblad_ac_l1l26a</title>
<path fill="none" stroke="black" d="M2151.04,-1729.7C2157.11,-1730.49 2163.13,-1731.22 2169,-1731.87 2400.53,-1757.42 2463.78,-1763.27 2693,-1721.87 2730.14,-1715.16 2770.83,-1705.85 2805.35,-1697.36"/>
<polygon fill="black" stroke="black" points="2806.52,-1700.68 2815.38,-1694.87 2804.83,-1693.88 2806.52,-1700.68"/>
<text text-anchor="middle" x="2431" y="-1755.67" font-family="Dejavu Sans Mono" font-size="14.00">apinatomy:levelIn</text>
</g>
<!-- nkblad_ac_l1l26a_lnk_3&#45;&gt;nkblad_ac_l1l26a_lnk_4 -->
<g id="edge30" class="edge">
<title>nkblad_ac_l1l26a_lnk_3&#45;&gt;nkblad_ac_l1l26a_lnk_4</title>
<path fill="none" stroke="black" d="M2151.1,-1712.87C2202.56,-1712.87 2265.08,-1712.87 2317.87,-1712.87"/>
<polygon fill="black" stroke="black" points="2317.95,-1716.37 2327.95,-1712.87 2317.95,-1709.37 2317.95,-1716.37"/>
<text text-anchor="middle" x="2239.5" y="-1716.67" font-family="Dejavu Sans Mono" font-size="14.00">apinatomy:next</text>
</g>
<!-- nkblad_ac_l1l26a_lnk_4&#45;&gt;nkblad_ac_l1l26a -->
<g id="edge27" class="edge">
<title>nkblad_ac_l1l26a_lnk_4&#45;&gt;nkblad_ac_l1l26a</title>
<path fill="none" stroke="black" d="M2534.22,-1704.57C2583.34,-1700.58 2643.78,-1695.67 2700.7,-1691.04"/>
<polygon fill="black" stroke="black" points="2701.23,-1694.51 2710.91,-1690.21 2700.66,-1687.54 2701.23,-1694.51"/>
<text text-anchor="middle" x="2622.5" y="-1706.67" font-family="Dejavu Sans Mono" font-size="14.00">apinatomy:levelIn</text>
</g>
<!-- nkblad_ac_snl16_lnk_5&#45;&gt;nkblad_ac_snl16_lnk_6 -->
<g id="edge22" class="edge">
<title>nkblad_ac_snl16_lnk_5&#45;&gt;nkblad_ac_snl16_lnk_6</title>
<path fill="none" stroke="black" d="M2987.93,-953.04C3018.69,-949.71 3052.75,-946.08 3084,-942.87 3132.82,-937.86 3186.88,-932.56 3232.77,-928.14"/>
<polygon fill="black" stroke="black" points="3233.12,-931.62 3242.73,-927.18 3232.45,-924.66 3233.12,-931.62"/>
<text text-anchor="middle" x="3154.5" y="-946.67" font-family="Dejavu Sans Mono" font-size="14.00">apinatomy:next</text>
</g>
<!-- nkblad_ac_snl16_lnk_5&#45;&gt;nkblad_ac_snl16 -->
<g id="edge14" class="edge">
<title>nkblad_ac_snl16_lnk_5&#45;&gt;nkblad_ac_snl16</title>
<path fill="none" stroke="black" d="M2987.62,-965.95C3178.09,-970.34 3611.22,-981.97 3975,-1003.87 3977.58,-1004.03 3980.18,-1004.19 3982.8,-1004.35"/>
<polygon fill="black" stroke="black" points="3982.77,-1007.86 3992.98,-1005.01 3983.23,-1000.87 3982.77,-1007.86"/>
<text text-anchor="middle" x="3529.5" y="-988.67" font-family="Dejavu Sans Mono" font-size="14.00">apinatomy:levelIn</text>
</g>
<!-- nkblad_ac_snl26_lnk_6&#45;&gt;nkblad_ac_snl26_lnk_7 -->
<g id="edge25" class="edge">
<title>nkblad_ac_snl26_lnk_6&#45;&gt;nkblad_ac_snl26_lnk_7</title>
<path fill="none" stroke="black" d="M3441.1,-1516.37C3489.09,-1520.89 3547.65,-1526.94 3600,-1533.87 3602.66,-1534.22 3605.35,-1534.59 3608.06,-1534.96"/>
<polygon fill="black" stroke="black" points="3607.57,-1538.43 3617.97,-1536.38 3608.56,-1531.5 3607.57,-1538.43"/>
<text text-anchor="middle" x="3529.5" y="-1537.67" font-family="Dejavu Sans Mono" font-size="14.00">apinatomy:next</text>
</g>
<!-- nkblad_ac_snl26_lnk_6&#45;&gt;nkblad_ac_snl26 -->
<g id="edge23" class="edge">
<title>nkblad_ac_snl26_lnk_6&#45;&gt;nkblad_ac_snl26</title>
<path fill="none" stroke="black" d="M3441.14,-1509.3C3566.23,-1509.39 3788.62,-1503.69 3975,-1467.87 4015.06,-1460.17 4058.68,-1445.87 4092.23,-1433.51"/>
<polygon fill="black" stroke="black" points="4093.71,-1436.7 4101.85,-1429.92 4091.26,-1430.14 4093.71,-1436.7"/>
<text text-anchor="middle" x="3717" y="-1508.67" font-family="Dejavu Sans Mono" font-size="14.00">apinatomy:levelIn</text>
</g>
<!-- nkblad_ac_snl16_lnk_6&#45;&gt;nkblad_ac_snl16 -->
<g id="edge66" class="edge">
<title>nkblad_ac_snl16_lnk_6&#45;&gt;nkblad_ac_snl16</title>
<path fill="none" stroke="black" d="M3441.09,-920.5C3592.51,-925.16 3876.07,-936.47 3975,-957.87 4015.65,-966.66 4059.94,-982.02 4093.66,-995"/>
<polygon fill="black" stroke="black" points="4092.74,-998.4 4103.33,-998.77 4095.28,-991.88 4092.74,-998.4"/>
<text text-anchor="middle" x="3717" y="-941.67" font-family="Dejavu Sans Mono" font-size="14.00">apinatomy:levelIn</text>
</g>
<!-- nkblad_ac_snl16_lnk_6&#45;&gt;nkblad_ac_snl16_lnk_7 -->
<g id="edge9" class="edge">
<title>nkblad_ac_snl16_lnk_6&#45;&gt;nkblad_ac_snl16_lnk_7</title>
<path fill="none" stroke="black" d="M3441.05,-902.31C3447.12,-901.45 3453.14,-900.63 3459,-899.87 3507.8,-893.52 3561.97,-887.66 3607.95,-883.03"/>
<polygon fill="black" stroke="black" points="3608.33,-886.51 3617.93,-882.03 3607.63,-879.54 3608.33,-886.51"/>
<text text-anchor="middle" x="3529.5" y="-903.67" font-family="Dejavu Sans Mono" font-size="14.00">apinatomy:next</text>
</g>
<!-- nkblad_ac_snl16_lnk_1&#45;&gt;nkblad_ac_snl16 -->
<g id="edge69" class="edge">
<title>nkblad_ac_snl16_lnk_1&#45;&gt;nkblad_ac_snl16</title>
<path fill="none" stroke="black" d="M1141.77,-1080.45C1321.44,-1086.69 1715.03,-1098.87 2047,-1098.87 2047,-1098.87 2047,-1098.87 3718,-1098.87 3846.35,-1098.87 3992.55,-1063.75 4077.44,-1039.76"/>
<polygon fill="black" stroke="black" points="4078.58,-1043.07 4087.23,-1036.96 4076.66,-1036.34 4078.58,-1043.07"/>
<text text-anchor="middle" x="2622.5" y="-1102.67" font-family="Dejavu Sans Mono" font-size="14.00">apinatomy:levelIn</text>
</g>
<!-- nkblad_ac_snl16_lnk_1&#45;&gt;nkblad_ac_snl16_lnk_2 -->
<g id="edge2" class="edge">
<title>nkblad_ac_snl16_lnk_1&#45;&gt;nkblad_ac_snl16_lnk_2</title>
<path fill="none" stroke="black" d="M1141.55,-1083.17C1217.61,-1088.42 1325.63,-1096.68 1420,-1106.87 1446.63,-1109.75 1475.29,-1113.37 1502.08,-1117"/>
<polygon fill="black" stroke="black" points="1501.87,-1120.5 1512.25,-1118.39 1502.81,-1113.57 1501.87,-1120.5"/>
<text text-anchor="middle" x="1349.5" y="-1110.67" font-family="Dejavu Sans Mono" font-size="14.00">apinatomy:next</text>
</g>
<!-- nkblad_ac_l1l26a_lnk_1&#45;&gt;nkblad_ac_l1l26a_lnk_2 -->
<g id="edge8" class="edge">
<title>nkblad_ac_l1l26a_lnk_1&#45;&gt;nkblad_ac_l1l26a_lnk_2</title>
<path fill="none" stroke="black" d="M1145.81,-1619.16C1221.55,-1625.39 1327.24,-1634.3 1420,-1642.87 1445.27,-1645.2 1472.42,-1647.84 1498.07,-1650.38"/>
<polygon fill="black" stroke="black" points="1497.9,-1653.88 1508.2,-1651.39 1498.6,-1646.92 1497.9,-1653.88"/>
<text text-anchor="middle" x="1349.5" y="-1646.67" font-family="Dejavu Sans Mono" font-size="14.00">apinatomy:next</text>
</g>
<!-- nkblad_ac_l1l26a_lnk_1&#45;&gt;nkblad_ac_l1l26a -->
<g id="edge45" class="edge">
<title>nkblad_ac_l1l26a_lnk_1&#45;&gt;nkblad_ac_l1l26a</title>
<path fill="none" stroke="black" d="M1145.67,-1610.29C1259.2,-1609.7 1447.95,-1608.87 1610.5,-1608.87 1610.5,-1608.87 1610.5,-1608.87 2432,-1608.87 2560.02,-1608.87 2706.15,-1635.1 2797.61,-1654.73"/>
<polygon fill="black" stroke="black" points="2796.87,-1658.15 2807.39,-1656.85 2798.36,-1651.31 2796.87,-1658.15"/>
<text text-anchor="middle" x="2048" y="-1612.67" font-family="Dejavu Sans Mono" font-size="14.00">apinatomy:levelIn</text>
</g>
<!-- nkblad_dc_snl16 -->
<g id="node30" class="node">
<title>nkblad_dc_snl16</title>
<path fill="none" stroke="black" d="M1450,-410.87C1450,-410.87 1773,-410.87 1773,-410.87 1779,-410.87 1785,-416.87 1785,-422.87 1785,-422.87 1785,-436.87 1785,-436.87 1785,-442.87 1779,-448.87 1773,-448.87 1773,-448.87 1450,-448.87 1450,-448.87 1444,-448.87 1438,-442.87 1438,-436.87 1438,-436.87 1438,-422.87 1438,-422.87 1438,-416.87 1444,-410.87 1450,-410.87"/>
<text text-anchor="middle" x="1611.5" y="-433.67" font-family="Dejavu Sans Mono" font-size="14.00">L1&#45;6 SPR dendrite chain_Neuron 6 (kblad)</text>
<text text-anchor="middle" x="1611.5" y="-418.67" font-family="Dejavu Sans Mono" font-size="14.00">(kblad:dc&#45;snl16)</text>
</g>
<!-- nkblad_dc_snl16_lnk_1&#45;&gt;nkblad_dc_snl16 -->
<g id="edge67" class="edge">
<title>nkblad_dc_snl16_lnk_1&#45;&gt;nkblad_dc_snl16</title>
<path fill="none" stroke="black" d="M1141.62,-429.87C1220.21,-429.87 1332.66,-429.87 1427.74,-429.87"/>
<polygon fill="black" stroke="black" points="1427.77,-433.37 1437.77,-429.87 1427.77,-426.37 1427.77,-433.37"/>
<text text-anchor="middle" x="1349.5" y="-433.67" font-family="Dejavu Sans Mono" font-size="14.00">apinatomy:levelIn</text>
</g>
<!-- nkblad_dc_snl26 -->
<g id="node26" class="node">
<title>nkblad_dc_snl26</title>
<path fill="none" stroke="black" d="M1450,-296.87C1450,-296.87 1773,-296.87 1773,-296.87 1779,-296.87 1785,-302.87 1785,-308.87 1785,-308.87 1785,-322.87 1785,-322.87 1785,-328.87 1779,-334.87 1773,-334.87 1773,-334.87 1450,-334.87 1450,-334.87 1444,-334.87 1438,-328.87 1438,-322.87 1438,-322.87 1438,-308.87 1438,-308.87 1438,-302.87 1444,-296.87 1450,-296.87"/>
<text text-anchor="middle" x="1611.5" y="-319.67" font-family="Dejavu Sans Mono" font-size="14.00">L2&#45;6 SPR dendrite chain_Neuron 6 (kblad)</text>
<text text-anchor="middle" x="1611.5" y="-304.67" font-family="Dejavu Sans Mono" font-size="14.00">(kblad:dc&#45;snl26)</text>
</g>
<!-- nkblad_ac_snl26_lnk_3&#45;&gt;nkblad_ac_snl26 -->
<g id="edge35" class="edge">
<title>nkblad_ac_snl26_lnk_3&#45;&gt;nkblad_ac_snl26</title>
<path fill="none" stroke="black" d="M2147.24,-1373.28C2224.16,-1369.38 2333.86,-1364.87 2430,-1364.87 2430,-1364.87 2430,-1364.87 3718,-1364.87 3821.33,-1364.87 3937.81,-1378.1 4023.61,-1390.38"/>
<polygon fill="black" stroke="black" points="4023.25,-1393.86 4033.65,-1391.83 4024.26,-1386.93 4023.25,-1393.86"/>
<text text-anchor="middle" x="3154.5" y="-1368.67" font-family="Dejavu Sans Mono" font-size="14.00">apinatomy:levelIn</text>
</g>
<!-- nkblad_ac_snl26_lnk_3&#45;&gt;nkblad_ac_snl26_lnk_4 -->
<g id="edge11" class="edge">
<title>nkblad_ac_snl26_lnk_3&#45;&gt;nkblad_ac_snl26_lnk_4</title>
<path fill="none" stroke="black" d="M2147.22,-1389.38C2196.15,-1394.63 2256.19,-1401.07 2310,-1406.87 2313.87,-1407.29 2317.82,-1407.71 2321.8,-1408.14"/>
<polygon fill="black" stroke="black" points="2321.45,-1411.63 2331.77,-1409.22 2322.2,-1404.67 2321.45,-1411.63"/>
<text text-anchor="middle" x="2239.5" y="-1410.67" font-family="Dejavu Sans Mono" font-size="14.00">apinatomy:next</text>
</g>
<!-- nkblad_dc_snl26_lnk_1&#45;&gt;nkblad_dc_snl26 -->
<g id="edge70" class="edge">
<title>nkblad_dc_snl26_lnk_1&#45;&gt;nkblad_dc_snl26</title>
<path fill="none" stroke="black" d="M1141.62,-315.87C1220.21,-315.87 1332.66,-315.87 1427.74,-315.87"/>
<polygon fill="black" stroke="black" points="1427.77,-319.37 1437.77,-315.87 1427.77,-312.37 1427.77,-319.37"/>
<text text-anchor="middle" x="1349.5" y="-319.67" font-family="Dejavu Sans Mono" font-size="14.00">apinatomy:levelIn</text>
</g>
<!-- nkblad_ac_snl26_lnk_4&#45;&gt;nkblad_ac_snl26 -->
<g id="edge59" class="edge">
<title>nkblad_ac_snl26_lnk_4&#45;&gt;nkblad_ac_snl26</title>
<path fill="none" stroke="black" d="M2530.17,-1416.81C2622.41,-1414.2 2764.31,-1410.87 2887.5,-1410.87 2887.5,-1410.87 2887.5,-1410.87 3718,-1410.87 3805.36,-1410.87 3902.69,-1410.87 3982.72,-1410.87"/>
<polygon fill="black" stroke="black" points="3982.89,-1414.37 3992.89,-1410.87 3982.89,-1407.37 3982.89,-1414.37"/>
<text text-anchor="middle" x="3342" y="-1414.67" font-family="Dejavu Sans Mono" font-size="14.00">apinatomy:levelIn</text>
</g>
<!-- nkblad_ac_snl26_lnk_4&#45;&gt;nkblad_ac_snl26_lnk_5 -->
<g id="edge13" class="edge">
<title>nkblad_ac_snl26_lnk_4&#45;&gt;nkblad_ac_snl26_lnk_5</title>
<path fill="none" stroke="black" d="M2530.25,-1429C2579.18,-1433.62 2639.22,-1439.39 2693,-1444.87 2720.84,-1447.71 2750.9,-1450.89 2778.87,-1453.91"/>
<polygon fill="black" stroke="black" points="2778.76,-1457.42 2789.08,-1455.01 2779.51,-1450.46 2778.76,-1457.42"/>
<text text-anchor="middle" x="2622.5" y="-1448.67" font-family="Dejavu Sans Mono" font-size="14.00">apinatomy:next</text>
</g>
<!-- nkblad_ac_snl26_lnk_1&#45;&gt;nkblad_ac_snl26_lnk_2 -->
<g id="edge57" class="edge">
<title>nkblad_ac_snl26_lnk_1&#45;&gt;nkblad_ac_snl26_lnk_2</title>
<path fill="none" stroke="black" d="M1141.62,-1347.89C1242.08,-1343.81 1397.84,-1337.5 1501.94,-1333.27"/>
<polygon fill="black" stroke="black" points="1502.31,-1336.76 1512.16,-1332.86 1502.03,-1329.77 1502.31,-1336.76"/>
<text text-anchor="middle" x="1349.5" y="-1344.67" font-family="Dejavu Sans Mono" font-size="14.00">apinatomy:next</text>
</g>
<!-- nkblad_ac_snl26_lnk_1&#45;&gt;nkblad_ac_snl26 -->
<g id="edge5" class="edge">
<title>nkblad_ac_snl26_lnk_1&#45;&gt;nkblad_ac_snl26</title>
<path fill="none" stroke="black" d="M1141.6,-1341.96C1179.01,-1337.94 1222.02,-1333.03 1261,-1327.87 1416.82,-1307.25 1453.32,-1273.87 1610.5,-1273.87 1610.5,-1273.87 1610.5,-1273.87 3718,-1273.87 3834.63,-1273.87 3864.54,-1289.46 3975,-1326.87 4021.81,-1342.72 4072.37,-1368.15 4106.86,-1386.88"/>
<polygon fill="black" stroke="black" points="4105.26,-1390 4115.71,-1391.73 4108.63,-1383.86 4105.26,-1390"/>
<text text-anchor="middle" x="2622.5" y="-1277.67" font-family="Dejavu Sans Mono" font-size="14.00">apinatomy:levelIn</text>
</g>
<!-- nkblad_ac_snl26_lnk_5&#45;&gt;nkblad_ac_snl26_lnk_6 -->
<g id="edge43" class="edge">
<title>nkblad_ac_snl26_lnk_5&#45;&gt;nkblad_ac_snl26_lnk_6</title>
<path fill="none" stroke="black" d="M2987.66,-1471.34C3054.64,-1475.52 3145.32,-1482.07 3225,-1490.87 3227.57,-1491.15 3230.16,-1491.45 3232.78,-1491.76"/>
<polygon fill="black" stroke="black" points="3232.62,-1495.26 3242.97,-1493 3233.47,-1488.32 3232.62,-1495.26"/>
<text text-anchor="middle" x="3154.5" y="-1494.67" font-family="Dejavu Sans Mono" font-size="14.00">apinatomy:next</text>
</g>
<!-- nkblad_ac_snl26_lnk_5&#45;&gt;nkblad_ac_snl26 -->
<g id="edge47" class="edge">
<title>nkblad_ac_snl26_lnk_5&#45;&gt;nkblad_ac_snl26</title>
<path fill="none" stroke="black" d="M2987.61,-1463.56C3178.08,-1458.77 3611.19,-1446.37 3975,-1424.87 3977.58,-1424.72 3980.18,-1424.56 3982.8,-1424.4"/>
<polygon fill="black" stroke="black" points="3983.22,-1427.88 3992.98,-1423.75 3982.78,-1420.89 3983.22,-1427.88"/>
<text text-anchor="middle" x="3529.5" y="-1451.67" font-family="Dejavu Sans Mono" font-size="14.00">apinatomy:levelIn</text>
</g>
<!-- nkblad_ac_snl16_lnk_2&#45;&gt;nkblad_ac_snl16 -->
<g id="edge49" class="edge">
<title>nkblad_ac_snl16_lnk_2&#45;&gt;nkblad_ac_snl16</title>
<path fill="none" stroke="black" d="M1710.84,-1137.13C1798.89,-1140.58 1931.54,-1144.87 2047,-1144.87 2047,-1144.87 2047,-1144.87 3718,-1144.87 3833.1,-1144.87 3865.45,-1148.18 3975,-1112.87 4025.97,-1096.44 4079.26,-1064.89 4113.22,-1042.67"/>
<polygon fill="black" stroke="black" points="4115.44,-1045.39 4121.85,-1036.95 4111.58,-1039.56 4115.44,-1045.39"/>
<text text-anchor="middle" x="2888.5" y="-1148.67" font-family="Dejavu Sans Mono" font-size="14.00">apinatomy:levelIn</text>
</g>
<!-- nkblad_ac_snl16_lnk_2&#45;&gt;nkblad_ac_snl16_lnk_3 -->
<g id="edge3" class="edge">
<title>nkblad_ac_snl16_lnk_2&#45;&gt;nkblad_ac_snl16_lnk_3</title>
<path fill="none" stroke="black" d="M1707.58,-1113.83C1776.76,-1099.98 1870.42,-1081.23 1941.83,-1066.93"/>
<polygon fill="black" stroke="black" points="1942.63,-1070.34 1951.75,-1064.94 1941.26,-1063.47 1942.63,-1070.34"/>
<text text-anchor="middle" x="1865" y="-1097.67" font-family="Dejavu Sans Mono" font-size="14.00">apinatomy:next</text>
</g>
<!-- nkblad_ac_snl16_lnk_7&#45;&gt;nkblad_ac_snl16 -->
<g id="edge16" class="edge">
<title>nkblad_ac_snl16_lnk_7&#45;&gt;nkblad_ac_snl16</title>
<path fill="none" stroke="black" d="M3816.02,-872.01C3865.05,-874.34 3924.54,-881.43 3975,-899.87 4031.89,-920.65 4088.13,-964.07 4120.67,-992.05"/>
<polygon fill="black" stroke="black" points="4118.58,-994.87 4128.42,-998.81 4123.18,-989.6 4118.58,-994.87"/>
<text text-anchor="middle" x="3904.5" y="-903.67" font-family="Dejavu Sans Mono" font-size="14.00">apinatomy:levelIn</text>
</g>
<!-- nkblad_ac_snl16_lnk_3&#45;&gt;nkblad_ac_snl16_lnk_4 -->
<g id="edge62" class="edge">
<title>nkblad_ac_snl16_lnk_3&#45;&gt;nkblad_ac_snl16_lnk_4</title>
<path fill="none" stroke="black" d="M2147.21,-1034.24C2154.58,-1033.42 2161.91,-1032.62 2169,-1031.87 2219.08,-1026.55 2274.62,-1021.16 2321.54,-1016.75"/>
<polygon fill="black" stroke="black" points="2322.1,-1020.22 2331.73,-1015.8 2321.45,-1013.25 2322.1,-1020.22"/>
<text text-anchor="middle" x="2239.5" y="-1035.67" font-family="Dejavu Sans Mono" font-size="14.00">apinatomy:next</text>
</g>
<!-- nkblad_ac_snl16_lnk_3&#45;&gt;nkblad_ac_snl16 -->
<g id="edge15" class="edge">
<title>nkblad_ac_snl16_lnk_3&#45;&gt;nkblad_ac_snl16</title>
<path fill="none" stroke="black" d="M2147.24,-1051.86C2224.15,-1056.04 2333.85,-1060.87 2430,-1060.87 2430,-1060.87 2430,-1060.87 3718,-1060.87 3817.64,-1060.87 3929.6,-1049.35 4014.43,-1038.24"/>
<polygon fill="black" stroke="black" points="4014.93,-1041.7 4024.38,-1036.92 4014.01,-1034.76 4014.93,-1041.7"/>
<text text-anchor="middle" x="3154.5" y="-1064.67" font-family="Dejavu Sans Mono" font-size="14.00">apinatomy:levelIn</text>
</g>
</g>
</svg>
