<?xml version="1.0" encoding="UTF-8" standalone="no"?>
<!DOCTYPE svg PUBLIC "-//W3C//DTD SVG 1.1//EN"
 "http://www.w3.org/Graphics/SVG/1.1/DTD/svg11.dtd">
<!-- Generated by graphviz version 2.47.1 (20210417.1919)
 -->
<!-- Pages: 1 -->
<svg width="2791pt" height="1605pt"
 viewBox="0.00 0.00 2791.00 1604.50" xmlns="http://www.w3.org/2000/svg" xmlns:xlink="http://www.w3.org/1999/xlink">
<g id="graph0" class="graph" transform="scale(1 1) rotate(0) translate(4 1600.5)">
<polygon fill="white" stroke="transparent" points="-4,4 -4,-1600.5 2787,-1600.5 2787,4 -4,4"/>
<!-- nkblad_snl16 -->
<g id="node1" class="node">
<title>nkblad_snl16</title>
<path fill="none" stroke="black" d="M811,-1140.5C811,-1140.5 1142,-1140.5 1142,-1140.5 1148,-1140.5 1154,-1146.5 1154,-1152.5 1154,-1152.5 1154,-1166.5 1154,-1166.5 1154,-1172.5 1148,-1178.5 1142,-1178.5 1142,-1178.5 811,-1178.5 811,-1178.5 805,-1178.5 799,-1172.5 799,-1166.5 799,-1166.5 799,-1152.5 799,-1152.5 799,-1146.5 805,-1140.5 811,-1140.5"/>
<text text-anchor="middle" x="976.5" y="-1163.3" font-family="Dejavu Sans Mono" font-size="14.00">Soma of SPR neuron in L1_Neuron 6 (kblad)</text>
<text text-anchor="middle" x="976.5" y="-1148.3" font-family="Dejavu Sans Mono" font-size="14.00">(kblad:snl16)</text>
</g>
<!-- nkblad_ref_mat_K_83_K_129_K22_7 -->
<g id="node53" class="node">
<title>nkblad_ref_mat_K_83_K_129_K22_7</title>
<path fill="none" stroke="black" d="M1401,-1164.5C1401,-1164.5 2029,-1164.5 2029,-1164.5 2035,-1164.5 2041,-1170.5 2041,-1176.5 2041,-1176.5 2041,-1190.5 2041,-1190.5 2041,-1196.5 2035,-1202.5 2029,-1202.5 2029,-1202.5 1401,-1202.5 1401,-1202.5 1395,-1202.5 1389,-1196.5 1389,-1190.5 1389,-1190.5 1389,-1176.5 1389,-1176.5 1389,-1170.5 1395,-1164.5 1401,-1164.5"/>
<text text-anchor="middle" x="1715" y="-1187.3" font-family="Dejavu Sans Mono" font-size="14.00">lamina VII of gray matter of spinal cord in L1 spinal segment (kblad) layer 7</text>
<text text-anchor="middle" x="1715" y="-1172.3" font-family="Dejavu Sans Mono" font-size="14.00">(kblad:ref_mat_K_83_K_129_K22_7)</text>
</g>
<!-- nkblad_snl16&#45;&gt;nkblad_ref_mat_K_83_K_129_K22_7 -->
<g id="edge29" class="edge">
<title>nkblad_snl16&#45;&gt;nkblad_ref_mat_K_83_K_129_K22_7</title>
<path fill="none" stroke="black" d="M1154.3,-1164.07C1222.08,-1165.92 1300.13,-1168.17 1371,-1170.5 1373.45,-1170.58 1375.91,-1170.66 1378.38,-1170.74"/>
<polygon fill="black" stroke="black" points="1378.46,-1174.25 1388.57,-1171.09 1378.7,-1167.25 1378.46,-1174.25"/>
<text text-anchor="middle" x="1271.5" y="-1174.3" font-family="Dejavu Sans Mono" font-size="14.00">apinatomy:internalIn</text>
</g>
<!-- nkblad_dc_snl16_lnk_1 -->
<g id="node2" class="node">
<title>nkblad_dc_snl16_lnk_1</title>
<path fill="none" stroke="black" d="M889.5,-1083.5C889.5,-1083.5 1063.5,-1083.5 1063.5,-1083.5 1069.5,-1083.5 1075.5,-1089.5 1075.5,-1095.5 1075.5,-1095.5 1075.5,-1109.5 1075.5,-1109.5 1075.5,-1115.5 1069.5,-1121.5 1063.5,-1121.5 1063.5,-1121.5 889.5,-1121.5 889.5,-1121.5 883.5,-1121.5 877.5,-1115.5 877.5,-1109.5 877.5,-1109.5 877.5,-1095.5 877.5,-1095.5 877.5,-1089.5 883.5,-1083.5 889.5,-1083.5"/>
<text text-anchor="middle" x="976.5" y="-1106.3" font-family="Dejavu Sans Mono" font-size="14.00">MISSING LABEL</text>
<text text-anchor="middle" x="976.5" y="-1091.3" font-family="Dejavu Sans Mono" font-size="14.00">(kblad:dc&#45;snl16_lnk_1)</text>
</g>
<!-- nkblad_dc_snl16_lnk_1&#45;&gt;nkblad_ref_mat_K_83_K_129_K22_7 -->
<g id="edge38" class="edge">
<title>nkblad_dc_snl16_lnk_1&#45;&gt;nkblad_ref_mat_K_83_K_129_K22_7</title>
<path fill="none" stroke="black" d="M1075.68,-1113.3C1191.57,-1126.04 1386.7,-1147.5 1530.78,-1163.35"/>
<polygon fill="black" stroke="black" points="1530.74,-1166.87 1541.07,-1164.48 1531.51,-1159.91 1530.74,-1166.87"/>
<text text-anchor="middle" x="1271.5" y="-1149.3" font-family="Dejavu Sans Mono" font-size="14.00">apinatomy:fasciculatesIn</text>
</g>
<!-- nPMID_1619047 -->
<g id="node3" class="node">
<title>nPMID_1619047</title>
<path fill="none" stroke="black" d="M922.5,-855.5C922.5,-855.5 1030.5,-855.5 1030.5,-855.5 1036.5,-855.5 1042.5,-861.5 1042.5,-867.5 1042.5,-867.5 1042.5,-881.5 1042.5,-881.5 1042.5,-887.5 1036.5,-893.5 1030.5,-893.5 1030.5,-893.5 922.5,-893.5 922.5,-893.5 916.5,-893.5 910.5,-887.5 910.5,-881.5 910.5,-881.5 910.5,-867.5 910.5,-867.5 910.5,-861.5 916.5,-855.5 922.5,-855.5"/>
<text text-anchor="middle" x="976.5" y="-878.3" font-family="Dejavu Sans Mono" font-size="14.00">MISSING LABEL</text>
<text text-anchor="middle" x="976.5" y="-863.3" font-family="Dejavu Sans Mono" font-size="14.00">(PMID:1619047)</text>
</g>
<!-- nelements_External -->
<g id="node36" class="node">
<title>nelements_External</title>
<path fill="none" stroke="black" d="M1640.5,-765.5C1640.5,-765.5 1789.5,-765.5 1789.5,-765.5 1795.5,-765.5 1801.5,-771.5 1801.5,-777.5 1801.5,-777.5 1801.5,-791.5 1801.5,-791.5 1801.5,-797.5 1795.5,-803.5 1789.5,-803.5 1789.5,-803.5 1640.5,-803.5 1640.5,-803.5 1634.5,-803.5 1628.5,-797.5 1628.5,-791.5 1628.5,-791.5 1628.5,-777.5 1628.5,-777.5 1628.5,-771.5 1634.5,-765.5 1640.5,-765.5"/>
<text text-anchor="middle" x="1715" y="-788.3" font-family="Dejavu Sans Mono" font-size="14.00">MISSING LABEL</text>
<text text-anchor="middle" x="1715" y="-773.3" font-family="Dejavu Sans Mono" font-size="14.00">(elements:External)</text>
</g>
<!-- nPMID_1619047&#45;&gt;nelements_External -->
<g id="edge13" class="edge">
<title>nPMID_1619047&#45;&gt;nelements_External</title>
<path fill="none" stroke="black" d="M1042.63,-867.11C1120.69,-858.21 1255.45,-842.66 1371,-828.5 1454.63,-818.25 1549.66,-806.01 1618.45,-797.05"/>
<polygon fill="black" stroke="black" points="1618.94,-800.51 1628.4,-795.75 1618.03,-793.57 1618.94,-800.51"/>
<text text-anchor="middle" x="1271.5" y="-856.3" font-family="Dejavu Sans Mono" font-size="14.00">type</text>
</g>
<!-- nkblad_ref_mat_K_83_K_129_K23_7 -->
<g id="node4" class="node">
<title>nkblad_ref_mat_K_83_K_129_K23_7</title>
<path fill="none" stroke="black" d="M1401,-1383.5C1401,-1383.5 2029,-1383.5 2029,-1383.5 2035,-1383.5 2041,-1389.5 2041,-1395.5 2041,-1395.5 2041,-1409.5 2041,-1409.5 2041,-1415.5 2035,-1421.5 2029,-1421.5 2029,-1421.5 1401,-1421.5 1401,-1421.5 1395,-1421.5 1389,-1415.5 1389,-1409.5 1389,-1409.5 1389,-1395.5 1389,-1395.5 1389,-1389.5 1395,-1383.5 1401,-1383.5"/>
<text text-anchor="middle" x="1715" y="-1406.3" font-family="Dejavu Sans Mono" font-size="14.00">lamina VII of gray matter of spinal cord in L2 spinal segment (kblad) layer 7</text>
<text text-anchor="middle" x="1715" y="-1391.3" font-family="Dejavu Sans Mono" font-size="14.00">(kblad:ref_mat_K_83_K_129_K23_7)</text>
</g>
<!-- nkblad_K23 -->
<g id="node12" class="node">
<title>nkblad_K23</title>
<path fill="none" stroke="black" d="M2238,-1437.5C2238,-1437.5 2437,-1437.5 2437,-1437.5 2443,-1437.5 2449,-1443.5 2449,-1449.5 2449,-1449.5 2449,-1463.5 2449,-1463.5 2449,-1469.5 2443,-1475.5 2437,-1475.5 2437,-1475.5 2238,-1475.5 2238,-1475.5 2232,-1475.5 2226,-1469.5 2226,-1463.5 2226,-1463.5 2226,-1449.5 2226,-1449.5 2226,-1443.5 2232,-1437.5 2238,-1437.5"/>
<text text-anchor="middle" x="2337.5" y="-1460.3" font-family="Dejavu Sans Mono" font-size="14.00">L2 spinal segment (kblad)</text>
<text text-anchor="middle" x="2337.5" y="-1445.3" font-family="Dejavu Sans Mono" font-size="14.00">(kblad:K23)</text>
</g>
<!-- nkblad_ref_mat_K_83_K_129_K23_7&#45;&gt;nkblad_K23 -->
<g id="edge56" class="edge">
<title>nkblad_ref_mat_K_83_K_129_K23_7&#45;&gt;nkblad_K23</title>
<path fill="none" stroke="black" d="M1954.43,-1421.52C2034.99,-1428.17 2125.42,-1435.88 2208,-1443.5 2210.54,-1443.73 2213.11,-1443.97 2215.7,-1444.22"/>
<polygon fill="black" stroke="black" points="2215.48,-1447.71 2225.77,-1445.17 2216.14,-1440.74 2215.48,-1447.71"/>
<text text-anchor="middle" x="2133.5" y="-1447.3" font-family="Dejavu Sans Mono" font-size="14.00">apinatomy:layerIn</text>
</g>
<!-- nkblad_K63 -->
<g id="node5" class="node">
<title>nkblad_K63</title>
<path fill="none" stroke="black" d="M1624,-342.5C1624,-342.5 1806,-342.5 1806,-342.5 1812,-342.5 1818,-348.5 1818,-354.5 1818,-354.5 1818,-368.5 1818,-368.5 1818,-374.5 1812,-380.5 1806,-380.5 1806,-380.5 1624,-380.5 1624,-380.5 1618,-380.5 1612,-374.5 1612,-368.5 1612,-368.5 1612,-354.5 1612,-354.5 1612,-348.5 1618,-342.5 1624,-342.5"/>
<text text-anchor="middle" x="1715" y="-365.3" font-family="Dejavu Sans Mono" font-size="14.00">L1 ventral root (kblad)</text>
<text text-anchor="middle" x="1715" y="-350.3" font-family="Dejavu Sans Mono" font-size="14.00">(kblad:K63)</text>
</g>
<!-- nEMAPA_25269 -->
<g id="node31" class="node">
<title>nEMAPA_25269</title>
<path fill="none" stroke="black" d="M2287.5,-342.5C2287.5,-342.5 2387.5,-342.5 2387.5,-342.5 2393.5,-342.5 2399.5,-348.5 2399.5,-354.5 2399.5,-354.5 2399.5,-368.5 2399.5,-368.5 2399.5,-374.5 2393.5,-380.5 2387.5,-380.5 2387.5,-380.5 2287.5,-380.5 2287.5,-380.5 2281.5,-380.5 2275.5,-374.5 2275.5,-368.5 2275.5,-368.5 2275.5,-354.5 2275.5,-354.5 2275.5,-348.5 2281.5,-342.5 2287.5,-342.5"/>
<text text-anchor="middle" x="2337.5" y="-365.3" font-family="Dejavu Sans Mono" font-size="14.00">MISSING LABEL</text>
<text text-anchor="middle" x="2337.5" y="-350.3" font-family="Dejavu Sans Mono" font-size="14.00">(EMAPA:25269)</text>
</g>
<!-- nkblad_K63&#45;&gt;nEMAPA_25269 -->
<g id="edge50" class="edge">
<title>nkblad_K63&#45;&gt;nEMAPA_25269</title>
<path fill="none" stroke="black" d="M1818.12,-361.5C1944.09,-361.5 2155.04,-361.5 2264.97,-361.5"/>
<polygon fill="black" stroke="black" points="2265.28,-365 2275.28,-361.5 2265.28,-358 2265.28,-365"/>
<text text-anchor="middle" x="2133.5" y="-365.3" font-family="Dejavu Sans Mono" font-size="14.00">apinatomy:external</text>
</g>
<!-- nFMA_6541 -->
<g id="node6" class="node">
<title>nFMA_6541</title>
<path fill="none" stroke="black" d="M2287.5,-228.5C2287.5,-228.5 2387.5,-228.5 2387.5,-228.5 2393.5,-228.5 2399.5,-234.5 2399.5,-240.5 2399.5,-240.5 2399.5,-254.5 2399.5,-254.5 2399.5,-260.5 2393.5,-266.5 2387.5,-266.5 2387.5,-266.5 2287.5,-266.5 2287.5,-266.5 2281.5,-266.5 2275.5,-260.5 2275.5,-254.5 2275.5,-254.5 2275.5,-240.5 2275.5,-240.5 2275.5,-234.5 2281.5,-228.5 2287.5,-228.5"/>
<text text-anchor="middle" x="2337.5" y="-251.3" font-family="Dejavu Sans Mono" font-size="14.00">MISSING LABEL</text>
<text text-anchor="middle" x="2337.5" y="-236.3" font-family="Dejavu Sans Mono" font-size="14.00">(FMA:6541)</text>
</g>
<!-- nkblad_dc_snl26_lnk_1 -->
<g id="node7" class="node">
<title>nkblad_dc_snl26_lnk_1</title>
<path fill="none" stroke="black" d="M889.5,-1311.5C889.5,-1311.5 1063.5,-1311.5 1063.5,-1311.5 1069.5,-1311.5 1075.5,-1317.5 1075.5,-1323.5 1075.5,-1323.5 1075.5,-1337.5 1075.5,-1337.5 1075.5,-1343.5 1069.5,-1349.5 1063.5,-1349.5 1063.5,-1349.5 889.5,-1349.5 889.5,-1349.5 883.5,-1349.5 877.5,-1343.5 877.5,-1337.5 877.5,-1337.5 877.5,-1323.5 877.5,-1323.5 877.5,-1317.5 883.5,-1311.5 889.5,-1311.5"/>
<text text-anchor="middle" x="976.5" y="-1334.3" font-family="Dejavu Sans Mono" font-size="14.00">MISSING LABEL</text>
<text text-anchor="middle" x="976.5" y="-1319.3" font-family="Dejavu Sans Mono" font-size="14.00">(kblad:dc&#45;snl26_lnk_1)</text>
</g>
<!-- nkblad_dc_snl26_lnk_1&#45;&gt;nkblad_ref_mat_K_83_K_129_K23_7 -->
<g id="edge44" class="edge">
<title>nkblad_dc_snl26_lnk_1&#45;&gt;nkblad_ref_mat_K_83_K_129_K23_7</title>
<path fill="none" stroke="black" d="M1075.68,-1340.1C1185.92,-1350.88 1367.89,-1368.66 1509.39,-1382.5"/>
<polygon fill="black" stroke="black" points="1509.22,-1386 1519.51,-1383.49 1509.9,-1379.03 1509.22,-1386"/>
<text text-anchor="middle" x="1271.5" y="-1373.3" font-family="Dejavu Sans Mono" font-size="14.00">apinatomy:fasciculatesIn</text>
</g>
<!-- nkblad_K88 -->
<g id="node8" class="node">
<title>nkblad_K88</title>
<path fill="none" stroke="black" d="M1628,-0.5C1628,-0.5 1802,-0.5 1802,-0.5 1808,-0.5 1814,-6.5 1814,-12.5 1814,-12.5 1814,-26.5 1814,-26.5 1814,-32.5 1808,-38.5 1802,-38.5 1802,-38.5 1628,-38.5 1628,-38.5 1622,-38.5 1616,-32.5 1616,-26.5 1616,-26.5 1616,-12.5 1616,-12.5 1616,-6.5 1622,-0.5 1628,-0.5"/>
<text text-anchor="middle" x="1715" y="-23.3" font-family="Dejavu Sans Mono" font-size="14.00">L1 white ramus (kblad)</text>
<text text-anchor="middle" x="1715" y="-8.3" font-family="Dejavu Sans Mono" font-size="14.00">(kblad:K88)</text>
</g>
<!-- nFMA_12697 -->
<g id="node39" class="node">
<title>nFMA_12697</title>
<path fill="none" stroke="black" d="M2287.5,-0.5C2287.5,-0.5 2387.5,-0.5 2387.5,-0.5 2393.5,-0.5 2399.5,-6.5 2399.5,-12.5 2399.5,-12.5 2399.5,-26.5 2399.5,-26.5 2399.5,-32.5 2393.5,-38.5 2387.5,-38.5 2387.5,-38.5 2287.5,-38.5 2287.5,-38.5 2281.5,-38.5 2275.5,-32.5 2275.5,-26.5 2275.5,-26.5 2275.5,-12.5 2275.5,-12.5 2275.5,-6.5 2281.5,-0.5 2287.5,-0.5"/>
<text text-anchor="middle" x="2337.5" y="-23.3" font-family="Dejavu Sans Mono" font-size="14.00">MISSING LABEL</text>
<text text-anchor="middle" x="2337.5" y="-8.3" font-family="Dejavu Sans Mono" font-size="14.00">(FMA:12697)</text>
</g>
<!-- nkblad_K88&#45;&gt;nFMA_12697 -->
<g id="edge75" class="edge">
<title>nkblad_K88&#45;&gt;nFMA_12697</title>
<path fill="none" stroke="black" d="M1814.32,-19.5C1939.91,-19.5 2154.26,-19.5 2265.23,-19.5"/>
<polygon fill="black" stroke="black" points="2265.32,-23 2275.32,-19.5 2265.32,-16 2265.32,-23"/>
<text text-anchor="middle" x="2133.5" y="-23.3" font-family="Dejavu Sans Mono" font-size="14.00">apinatomy:external</text>
</g>
<!-- nFMA_6540 -->
<g id="node9" class="node">
<title>nFMA_6540</title>
<path fill="none" stroke="black" d="M2287.5,-285.5C2287.5,-285.5 2387.5,-285.5 2387.5,-285.5 2393.5,-285.5 2399.5,-291.5 2399.5,-297.5 2399.5,-297.5 2399.5,-311.5 2399.5,-311.5 2399.5,-317.5 2393.5,-323.5 2387.5,-323.5 2387.5,-323.5 2287.5,-323.5 2287.5,-323.5 2281.5,-323.5 2275.5,-317.5 2275.5,-311.5 2275.5,-311.5 2275.5,-297.5 2275.5,-297.5 2275.5,-291.5 2281.5,-285.5 2287.5,-285.5"/>
<text text-anchor="middle" x="2337.5" y="-308.3" font-family="Dejavu Sans Mono" font-size="14.00">MISSING LABEL</text>
<text text-anchor="middle" x="2337.5" y="-293.3" font-family="Dejavu Sans Mono" font-size="14.00">(FMA:6540)</text>
</g>
<!-- nkblad_ac_l1l26a_lnk_3 -->
<g id="node10" class="node">
<title>nkblad_ac_l1l26a_lnk_3</title>
<path fill="none" stroke="black" d="M885.5,-1539.5C885.5,-1539.5 1067.5,-1539.5 1067.5,-1539.5 1073.5,-1539.5 1079.5,-1545.5 1079.5,-1551.5 1079.5,-1551.5 1079.5,-1565.5 1079.5,-1565.5 1079.5,-1571.5 1073.5,-1577.5 1067.5,-1577.5 1067.5,-1577.5 885.5,-1577.5 885.5,-1577.5 879.5,-1577.5 873.5,-1571.5 873.5,-1565.5 873.5,-1565.5 873.5,-1551.5 873.5,-1551.5 873.5,-1545.5 879.5,-1539.5 885.5,-1539.5"/>
<text text-anchor="middle" x="976.5" y="-1562.3" font-family="Dejavu Sans Mono" font-size="14.00">MISSING LABEL</text>
<text text-anchor="middle" x="976.5" y="-1547.3" font-family="Dejavu Sans Mono" font-size="14.00">(kblad:ac&#45;l1l26a_lnk_3)</text>
</g>
<!-- nkblad_n_hypo -->
<g id="node42" class="node">
<title>nkblad_n_hypo</title>
<path fill="none" stroke="black" d="M1615.5,-1539.5C1615.5,-1539.5 1814.5,-1539.5 1814.5,-1539.5 1820.5,-1539.5 1826.5,-1545.5 1826.5,-1551.5 1826.5,-1551.5 1826.5,-1565.5 1826.5,-1565.5 1826.5,-1571.5 1820.5,-1577.5 1814.5,-1577.5 1814.5,-1577.5 1615.5,-1577.5 1615.5,-1577.5 1609.5,-1577.5 1603.5,-1571.5 1603.5,-1565.5 1603.5,-1565.5 1603.5,-1551.5 1603.5,-1551.5 1603.5,-1545.5 1609.5,-1539.5 1615.5,-1539.5"/>
<text text-anchor="middle" x="1715" y="-1562.3" font-family="Dejavu Sans Mono" font-size="14.00">Hypogastric nerve (kblad)</text>
<text text-anchor="middle" x="1715" y="-1547.3" font-family="Dejavu Sans Mono" font-size="14.00">(kblad:n&#45;hypo)</text>
</g>
<!-- nkblad_ac_l1l26a_lnk_3&#45;&gt;nkblad_n_hypo -->
<g id="edge70" class="edge">
<title>nkblad_ac_l1l26a_lnk_3&#45;&gt;nkblad_n_hypo</title>
<path fill="none" stroke="black" d="M1079.52,-1558.5C1213.93,-1558.5 1449.99,-1558.5 1593.18,-1558.5"/>
<polygon fill="black" stroke="black" points="1593.32,-1562 1603.32,-1558.5 1593.32,-1555 1593.32,-1562"/>
<text text-anchor="middle" x="1271.5" y="-1562.3" font-family="Dejavu Sans Mono" font-size="14.00">apinatomy:fasciculatesIn</text>
</g>
<!-- nkblad_ac_snl16_lnk_1 -->
<g id="node11" class="node">
<title>nkblad_ac_snl16_lnk_1</title>
<path fill="none" stroke="black" d="M889.5,-1197.5C889.5,-1197.5 1063.5,-1197.5 1063.5,-1197.5 1069.5,-1197.5 1075.5,-1203.5 1075.5,-1209.5 1075.5,-1209.5 1075.5,-1223.5 1075.5,-1223.5 1075.5,-1229.5 1069.5,-1235.5 1063.5,-1235.5 1063.5,-1235.5 889.5,-1235.5 889.5,-1235.5 883.5,-1235.5 877.5,-1229.5 877.5,-1223.5 877.5,-1223.5 877.5,-1209.5 877.5,-1209.5 877.5,-1203.5 883.5,-1197.5 889.5,-1197.5"/>
<text text-anchor="middle" x="976.5" y="-1220.3" font-family="Dejavu Sans Mono" font-size="14.00">MISSING LABEL</text>
<text text-anchor="middle" x="976.5" y="-1205.3" font-family="Dejavu Sans Mono" font-size="14.00">(kblad:ac&#45;snl16_lnk_1)</text>
</g>
<!-- nkblad_ac_snl16_lnk_1&#45;&gt;nkblad_ref_mat_K_83_K_129_K22_7 -->
<g id="edge22" class="edge">
<title>nkblad_ac_snl16_lnk_1&#45;&gt;nkblad_ref_mat_K_83_K_129_K22_7</title>
<path fill="none" stroke="black" d="M1075.68,-1212.1C1154,-1208.59 1268.5,-1203.46 1378.99,-1198.51"/>
<polygon fill="black" stroke="black" points="1379.14,-1202.01 1388.98,-1198.06 1378.83,-1195.01 1379.14,-1202.01"/>
<text text-anchor="middle" x="1271.5" y="-1212.3" font-family="Dejavu Sans Mono" font-size="14.00">apinatomy:fasciculatesIn</text>
</g>
<!-- nUBERON_0006450 -->
<g id="node21" class="node">
<title>nUBERON_0006450</title>
<path fill="none" stroke="black" d="M2646,-1437.5C2646,-1437.5 2771,-1437.5 2771,-1437.5 2777,-1437.5 2783,-1443.5 2783,-1449.5 2783,-1449.5 2783,-1463.5 2783,-1463.5 2783,-1469.5 2777,-1475.5 2771,-1475.5 2771,-1475.5 2646,-1475.5 2646,-1475.5 2640,-1475.5 2634,-1469.5 2634,-1463.5 2634,-1463.5 2634,-1449.5 2634,-1449.5 2634,-1443.5 2640,-1437.5 2646,-1437.5"/>
<text text-anchor="middle" x="2708.5" y="-1460.3" font-family="Dejavu Sans Mono" font-size="14.00">MISSING LABEL</text>
<text text-anchor="middle" x="2708.5" y="-1445.3" font-family="Dejavu Sans Mono" font-size="14.00">(UBERON:0006450)</text>
</g>
<!-- nkblad_K23&#45;&gt;nUBERON_0006450 -->
<g id="edge49" class="edge">
<title>nkblad_K23&#45;&gt;nUBERON_0006450</title>
<path fill="none" stroke="black" d="M2449.21,-1456.5C2505.24,-1456.5 2572.13,-1456.5 2623.8,-1456.5"/>
<polygon fill="black" stroke="black" points="2623.92,-1460 2633.92,-1456.5 2623.92,-1453 2623.92,-1460"/>
<text text-anchor="middle" x="2541.5" y="-1460.3" font-family="Dejavu Sans Mono" font-size="14.00">apinatomy:external</text>
</g>
<!-- nkblad_K89 -->
<g id="node13" class="node">
<title>nkblad_K89</title>
<path fill="none" stroke="black" d="M1628,-57.5C1628,-57.5 1802,-57.5 1802,-57.5 1808,-57.5 1814,-63.5 1814,-69.5 1814,-69.5 1814,-83.5 1814,-83.5 1814,-89.5 1808,-95.5 1802,-95.5 1802,-95.5 1628,-95.5 1628,-95.5 1622,-95.5 1616,-89.5 1616,-83.5 1616,-83.5 1616,-69.5 1616,-69.5 1616,-63.5 1622,-57.5 1628,-57.5"/>
<text text-anchor="middle" x="1715" y="-80.3" font-family="Dejavu Sans Mono" font-size="14.00">L2 white ramus (kblad)</text>
<text text-anchor="middle" x="1715" y="-65.3" font-family="Dejavu Sans Mono" font-size="14.00">(kblad:K89)</text>
</g>
<!-- nFMA_12698 -->
<g id="node38" class="node">
<title>nFMA_12698</title>
<path fill="none" stroke="black" d="M2287.5,-57.5C2287.5,-57.5 2387.5,-57.5 2387.5,-57.5 2393.5,-57.5 2399.5,-63.5 2399.5,-69.5 2399.5,-69.5 2399.5,-83.5 2399.5,-83.5 2399.5,-89.5 2393.5,-95.5 2387.5,-95.5 2387.5,-95.5 2287.5,-95.5 2287.5,-95.5 2281.5,-95.5 2275.5,-89.5 2275.5,-83.5 2275.5,-83.5 2275.5,-69.5 2275.5,-69.5 2275.5,-63.5 2281.5,-57.5 2287.5,-57.5"/>
<text text-anchor="middle" x="2337.5" y="-80.3" font-family="Dejavu Sans Mono" font-size="14.00">MISSING LABEL</text>
<text text-anchor="middle" x="2337.5" y="-65.3" font-family="Dejavu Sans Mono" font-size="14.00">(FMA:12698)</text>
</g>
<!-- nkblad_K89&#45;&gt;nFMA_12698 -->
<g id="edge27" class="edge">
<title>nkblad_K89&#45;&gt;nFMA_12698</title>
<path fill="none" stroke="black" d="M1814.32,-76.5C1939.91,-76.5 2154.26,-76.5 2265.23,-76.5"/>
<polygon fill="black" stroke="black" points="2265.32,-80 2275.32,-76.5 2265.32,-73 2265.32,-80"/>
<text text-anchor="middle" x="2133.5" y="-80.3" font-family="Dejavu Sans Mono" font-size="14.00">apinatomy:external</text>
</g>
<!-- nkblad_K22 -->
<g id="node14" class="node">
<title>nkblad_K22</title>
<path fill="none" stroke="black" d="M2238,-1206.5C2238,-1206.5 2437,-1206.5 2437,-1206.5 2443,-1206.5 2449,-1212.5 2449,-1218.5 2449,-1218.5 2449,-1232.5 2449,-1232.5 2449,-1238.5 2443,-1244.5 2437,-1244.5 2437,-1244.5 2238,-1244.5 2238,-1244.5 2232,-1244.5 2226,-1238.5 2226,-1232.5 2226,-1232.5 2226,-1218.5 2226,-1218.5 2226,-1212.5 2232,-1206.5 2238,-1206.5"/>
<text text-anchor="middle" x="2337.5" y="-1229.3" font-family="Dejavu Sans Mono" font-size="14.00">L1 spinal segment (kblad)</text>
<text text-anchor="middle" x="2337.5" y="-1214.3" font-family="Dejavu Sans Mono" font-size="14.00">(kblad:K22)</text>
</g>
<!-- nUBERON_0006448 -->
<g id="node52" class="node">
<title>nUBERON_0006448</title>
<path fill="none" stroke="black" d="M2646,-1206.5C2646,-1206.5 2771,-1206.5 2771,-1206.5 2777,-1206.5 2783,-1212.5 2783,-1218.5 2783,-1218.5 2783,-1232.5 2783,-1232.5 2783,-1238.5 2777,-1244.5 2771,-1244.5 2771,-1244.5 2646,-1244.5 2646,-1244.5 2640,-1244.5 2634,-1238.5 2634,-1232.5 2634,-1232.5 2634,-1218.5 2634,-1218.5 2634,-1212.5 2640,-1206.5 2646,-1206.5"/>
<text text-anchor="middle" x="2708.5" y="-1229.3" font-family="Dejavu Sans Mono" font-size="14.00">MISSING LABEL</text>
<text text-anchor="middle" x="2708.5" y="-1214.3" font-family="Dejavu Sans Mono" font-size="14.00">(UBERON:0006448)</text>
</g>
<!-- nkblad_K22&#45;&gt;nUBERON_0006448 -->
<g id="edge43" class="edge">
<title>nkblad_K22&#45;&gt;nUBERON_0006448</title>
<path fill="none" stroke="black" d="M2449.21,-1225.5C2505.24,-1225.5 2572.13,-1225.5 2623.8,-1225.5"/>
<polygon fill="black" stroke="black" points="2623.92,-1229 2633.92,-1225.5 2623.92,-1222 2623.92,-1229"/>
<text text-anchor="middle" x="2541.5" y="-1229.3" font-family="Dejavu Sans Mono" font-size="14.00">apinatomy:external</text>
</g>
<!-- nkblad_ac_snl26_lnk_7 -->
<g id="node15" class="node">
<title>nkblad_ac_snl26_lnk_7</title>
<path fill="none" stroke="black" d="M889.5,-456.5C889.5,-456.5 1063.5,-456.5 1063.5,-456.5 1069.5,-456.5 1075.5,-462.5 1075.5,-468.5 1075.5,-468.5 1075.5,-482.5 1075.5,-482.5 1075.5,-488.5 1069.5,-494.5 1063.5,-494.5 1063.5,-494.5 889.5,-494.5 889.5,-494.5 883.5,-494.5 877.5,-488.5 877.5,-482.5 877.5,-482.5 877.5,-468.5 877.5,-468.5 877.5,-462.5 883.5,-456.5 889.5,-456.5"/>
<text text-anchor="middle" x="976.5" y="-479.3" font-family="Dejavu Sans Mono" font-size="14.00">MISSING LABEL</text>
<text text-anchor="middle" x="976.5" y="-464.3" font-family="Dejavu Sans Mono" font-size="14.00">(kblad:ac&#45;snl26_lnk_7)</text>
</g>
<!-- nkblad_n_lumspl -->
<g id="node57" class="node">
<title>nkblad_n_lumspl</title>
<path fill="none" stroke="black" d="M1591,-513.5C1591,-513.5 1839,-513.5 1839,-513.5 1845,-513.5 1851,-519.5 1851,-525.5 1851,-525.5 1851,-539.5 1851,-539.5 1851,-545.5 1845,-551.5 1839,-551.5 1839,-551.5 1591,-551.5 1591,-551.5 1585,-551.5 1579,-545.5 1579,-539.5 1579,-539.5 1579,-525.5 1579,-525.5 1579,-519.5 1585,-513.5 1591,-513.5"/>
<text text-anchor="middle" x="1715" y="-536.3" font-family="Dejavu Sans Mono" font-size="14.00">lumbar splanchnic nerve (kblad)</text>
<text text-anchor="middle" x="1715" y="-521.3" font-family="Dejavu Sans Mono" font-size="14.00">(kblad:n&#45;lumspl)</text>
</g>
<!-- nkblad_ac_snl26_lnk_7&#45;&gt;nkblad_n_lumspl -->
<g id="edge67" class="edge">
<title>nkblad_ac_snl26_lnk_7&#45;&gt;nkblad_n_lumspl</title>
<path fill="none" stroke="black" d="M1075.68,-483.1C1201.99,-492.87 1422.44,-509.94 1568.32,-521.23"/>
<polygon fill="black" stroke="black" points="1568.45,-524.75 1578.69,-522.03 1568.99,-517.77 1568.45,-524.75"/>
<text text-anchor="middle" x="1271.5" y="-510.3" font-family="Dejavu Sans Mono" font-size="14.00">apinatomy:fasciculatesIn</text>
</g>
<!-- nkblad_ac_snl26_lnk_2 -->
<g id="node16" class="node">
<title>nkblad_ac_snl26_lnk_2</title>
<path fill="none" stroke="black" d="M889.5,-1482.5C889.5,-1482.5 1063.5,-1482.5 1063.5,-1482.5 1069.5,-1482.5 1075.5,-1488.5 1075.5,-1494.5 1075.5,-1494.5 1075.5,-1508.5 1075.5,-1508.5 1075.5,-1514.5 1069.5,-1520.5 1063.5,-1520.5 1063.5,-1520.5 889.5,-1520.5 889.5,-1520.5 883.5,-1520.5 877.5,-1514.5 877.5,-1508.5 877.5,-1508.5 877.5,-1494.5 877.5,-1494.5 877.5,-1488.5 883.5,-1482.5 889.5,-1482.5"/>
<text text-anchor="middle" x="976.5" y="-1505.3" font-family="Dejavu Sans Mono" font-size="14.00">MISSING LABEL</text>
<text text-anchor="middle" x="976.5" y="-1490.3" font-family="Dejavu Sans Mono" font-size="14.00">(kblad:ac&#45;snl26_lnk_2)</text>
</g>
<!-- nkblad_ref_mat_KM_27_K_129_K23_14 -->
<g id="node51" class="node">
<title>nkblad_ref_mat_KM_27_K_129_K23_14</title>
<path fill="none" stroke="black" d="M1483.5,-1468.5C1483.5,-1468.5 1946.5,-1468.5 1946.5,-1468.5 1952.5,-1468.5 1958.5,-1474.5 1958.5,-1480.5 1958.5,-1480.5 1958.5,-1494.5 1958.5,-1494.5 1958.5,-1500.5 1952.5,-1506.5 1946.5,-1506.5 1946.5,-1506.5 1483.5,-1506.5 1483.5,-1506.5 1477.5,-1506.5 1471.5,-1500.5 1471.5,-1494.5 1471.5,-1494.5 1471.5,-1480.5 1471.5,-1480.5 1471.5,-1474.5 1477.5,-1468.5 1483.5,-1468.5"/>
<text text-anchor="middle" x="1715" y="-1491.3" font-family="Dejavu Sans Mono" font-size="14.00">White matter of CNS in L2 spinal segment (kblad) layer 14</text>
<text text-anchor="middle" x="1715" y="-1476.3" font-family="Dejavu Sans Mono" font-size="14.00">(kblad:ref_mat_KM_27_K_129_K23_14)</text>
</g>
<!-- nkblad_ac_snl26_lnk_2&#45;&gt;nkblad_ref_mat_KM_27_K_129_K23_14 -->
<g id="edge53" class="edge">
<title>nkblad_ac_snl26_lnk_2&#45;&gt;nkblad_ref_mat_KM_27_K_129_K23_14</title>
<path fill="none" stroke="black" d="M1075.68,-1499.63C1173.68,-1497.77 1328.36,-1494.83 1460.9,-1492.31"/>
<polygon fill="black" stroke="black" points="1461.28,-1495.8 1471.22,-1492.12 1461.15,-1488.81 1461.28,-1495.8"/>
<text text-anchor="middle" x="1271.5" y="-1501.3" font-family="Dejavu Sans Mono" font-size="14.00">apinatomy:fasciculatesIn</text>
</g>
<!-- nkblad_ac_snl26_lnk_1 -->
<g id="node17" class="node">
<title>nkblad_ac_snl26_lnk_1</title>
<path fill="none" stroke="black" d="M889.5,-1425.5C889.5,-1425.5 1063.5,-1425.5 1063.5,-1425.5 1069.5,-1425.5 1075.5,-1431.5 1075.5,-1437.5 1075.5,-1437.5 1075.5,-1451.5 1075.5,-1451.5 1075.5,-1457.5 1069.5,-1463.5 1063.5,-1463.5 1063.5,-1463.5 889.5,-1463.5 889.5,-1463.5 883.5,-1463.5 877.5,-1457.5 877.5,-1451.5 877.5,-1451.5 877.5,-1437.5 877.5,-1437.5 877.5,-1431.5 883.5,-1425.5 889.5,-1425.5"/>
<text text-anchor="middle" x="976.5" y="-1448.3" font-family="Dejavu Sans Mono" font-size="14.00">MISSING LABEL</text>
<text text-anchor="middle" x="976.5" y="-1433.3" font-family="Dejavu Sans Mono" font-size="14.00">(kblad:ac&#45;snl26_lnk_1)</text>
</g>
<!-- nkblad_ac_snl26_lnk_1&#45;&gt;nkblad_ref_mat_K_83_K_129_K23_7 -->
<g id="edge25" class="edge">
<title>nkblad_ac_snl26_lnk_1&#45;&gt;nkblad_ref_mat_K_83_K_129_K23_7</title>
<path fill="none" stroke="black" d="M1075.68,-1438.9C1154,-1434.44 1268.5,-1427.91 1378.99,-1421.6"/>
<polygon fill="black" stroke="black" points="1379.19,-1425.1 1388.98,-1421.03 1378.79,-1418.11 1379.19,-1425.1"/>
<text text-anchor="middle" x="1271.5" y="-1436.3" font-family="Dejavu Sans Mono" font-size="14.00">apinatomy:fasciculatesIn</text>
</g>
<!-- nkblad_ac_l1l26a_lnk_4 -->
<g id="node18" class="node">
<title>nkblad_ac_l1l26a_lnk_4</title>
<path fill="none" stroke="black" d="M885.5,-1026.5C885.5,-1026.5 1067.5,-1026.5 1067.5,-1026.5 1073.5,-1026.5 1079.5,-1032.5 1079.5,-1038.5 1079.5,-1038.5 1079.5,-1052.5 1079.5,-1052.5 1079.5,-1058.5 1073.5,-1064.5 1067.5,-1064.5 1067.5,-1064.5 885.5,-1064.5 885.5,-1064.5 879.5,-1064.5 873.5,-1058.5 873.5,-1052.5 873.5,-1052.5 873.5,-1038.5 873.5,-1038.5 873.5,-1032.5 879.5,-1026.5 885.5,-1026.5"/>
<text text-anchor="middle" x="976.5" y="-1049.3" font-family="Dejavu Sans Mono" font-size="14.00">MISSING LABEL</text>
<text text-anchor="middle" x="976.5" y="-1034.3" font-family="Dejavu Sans Mono" font-size="14.00">(kblad:ac&#45;l1l26a_lnk_4)</text>
</g>
<!-- nkblad_K104 -->
<g id="node40" class="node">
<title>nkblad_K104</title>
<path fill="none" stroke="black" d="M1628,-1026.5C1628,-1026.5 1802,-1026.5 1802,-1026.5 1808,-1026.5 1814,-1032.5 1814,-1038.5 1814,-1038.5 1814,-1052.5 1814,-1052.5 1814,-1058.5 1808,-1064.5 1802,-1064.5 1802,-1064.5 1628,-1064.5 1628,-1064.5 1622,-1064.5 1616,-1058.5 1616,-1052.5 1616,-1052.5 1616,-1038.5 1616,-1038.5 1616,-1032.5 1622,-1026.5 1628,-1026.5"/>
<text text-anchor="middle" x="1715" y="-1049.3" font-family="Dejavu Sans Mono" font-size="14.00">Pelvic ganglia (kblad)</text>
<text text-anchor="middle" x="1715" y="-1034.3" font-family="Dejavu Sans Mono" font-size="14.00">(kblad:K104)</text>
</g>
<!-- nkblad_ac_l1l26a_lnk_4&#45;&gt;nkblad_K104 -->
<g id="edge2" class="edge">
<title>nkblad_ac_l1l26a_lnk_4&#45;&gt;nkblad_K104</title>
<path fill="none" stroke="black" d="M1079.52,-1045.5C1217.98,-1045.5 1464.31,-1045.5 1605.86,-1045.5"/>
<polygon fill="black" stroke="black" points="1605.87,-1049 1615.87,-1045.5 1605.87,-1042 1605.87,-1049"/>
<text text-anchor="middle" x="1271.5" y="-1049.3" font-family="Dejavu Sans Mono" font-size="14.00">apinatomy:fasciculatesIn</text>
</g>
<!-- nPMID_3558884 -->
<g id="node19" class="node">
<title>nPMID_3558884</title>
<path fill="none" stroke="black" d="M922.5,-741.5C922.5,-741.5 1030.5,-741.5 1030.5,-741.5 1036.5,-741.5 1042.5,-747.5 1042.5,-753.5 1042.5,-753.5 1042.5,-767.5 1042.5,-767.5 1042.5,-773.5 1036.5,-779.5 1030.5,-779.5 1030.5,-779.5 922.5,-779.5 922.5,-779.5 916.5,-779.5 910.5,-773.5 910.5,-767.5 910.5,-767.5 910.5,-753.5 910.5,-753.5 910.5,-747.5 916.5,-741.5 922.5,-741.5"/>
<text text-anchor="middle" x="976.5" y="-764.3" font-family="Dejavu Sans Mono" font-size="14.00">MISSING LABEL</text>
<text text-anchor="middle" x="976.5" y="-749.3" font-family="Dejavu Sans Mono" font-size="14.00">(PMID:3558884)</text>
</g>
<!-- nPMID_3558884&#45;&gt;nelements_External -->
<g id="edge46" class="edge">
<title>nPMID_3558884&#45;&gt;nelements_External</title>
<path fill="none" stroke="black" d="M1042.61,-762.12C1120.65,-764.11 1255.39,-767.69 1371,-771.5 1454.42,-774.25 1549.23,-777.88 1618,-780.61"/>
<polygon fill="black" stroke="black" points="1618.24,-784.12 1628.38,-781.02 1618.52,-777.12 1618.24,-784.12"/>
<text text-anchor="middle" x="1271.5" y="-775.3" font-family="Dejavu Sans Mono" font-size="14.00">type</text>
</g>
<!-- nkblad_ac_snl26_lnk_6 -->
<g id="node20" class="node">
<title>nkblad_ac_snl26_lnk_6</title>
<path fill="none" stroke="black" d="M889.5,-969.5C889.5,-969.5 1063.5,-969.5 1063.5,-969.5 1069.5,-969.5 1075.5,-975.5 1075.5,-981.5 1075.5,-981.5 1075.5,-995.5 1075.5,-995.5 1075.5,-1001.5 1069.5,-1007.5 1063.5,-1007.5 1063.5,-1007.5 889.5,-1007.5 889.5,-1007.5 883.5,-1007.5 877.5,-1001.5 877.5,-995.5 877.5,-995.5 877.5,-981.5 877.5,-981.5 877.5,-975.5 883.5,-969.5 889.5,-969.5"/>
<text text-anchor="middle" x="976.5" y="-992.3" font-family="Dejavu Sans Mono" font-size="14.00">MISSING LABEL</text>
<text text-anchor="middle" x="976.5" y="-977.3" font-family="Dejavu Sans Mono" font-size="14.00">(kblad:ac&#45;snl26_lnk_6)</text>
</g>
<!-- nkblad_K93 -->
<g id="node22" class="node">
<title>nkblad_K93</title>
<path fill="none" stroke="black" d="M1632,-969.5C1632,-969.5 1798,-969.5 1798,-969.5 1804,-969.5 1810,-975.5 1810,-981.5 1810,-981.5 1810,-995.5 1810,-995.5 1810,-1001.5 1804,-1007.5 1798,-1007.5 1798,-1007.5 1632,-1007.5 1632,-1007.5 1626,-1007.5 1620,-1001.5 1620,-995.5 1620,-995.5 1620,-981.5 1620,-981.5 1620,-975.5 1626,-969.5 1632,-969.5"/>
<text text-anchor="middle" x="1715" y="-992.3" font-family="Dejavu Sans Mono" font-size="14.00">L2 gray ramus (kblad)</text>
<text text-anchor="middle" x="1715" y="-977.3" font-family="Dejavu Sans Mono" font-size="14.00">(kblad:K93)</text>
</g>
<!-- nkblad_ac_snl26_lnk_6&#45;&gt;nkblad_K93 -->
<g id="edge19" class="edge">
<title>nkblad_ac_snl26_lnk_6&#45;&gt;nkblad_K93</title>
<path fill="none" stroke="black" d="M1075.68,-988.5C1214.7,-988.5 1467.79,-988.5 1609.94,-988.5"/>
<polygon fill="black" stroke="black" points="1609.98,-992 1619.98,-988.5 1609.98,-985 1609.98,-992"/>
<text text-anchor="middle" x="1271.5" y="-992.3" font-family="Dejavu Sans Mono" font-size="14.00">apinatomy:fasciculatesIn</text>
</g>
<!-- nFMA_65911 -->
<g id="node37" class="node">
<title>nFMA_65911</title>
<path fill="none" stroke="black" d="M2287.5,-969.5C2287.5,-969.5 2387.5,-969.5 2387.5,-969.5 2393.5,-969.5 2399.5,-975.5 2399.5,-981.5 2399.5,-981.5 2399.5,-995.5 2399.5,-995.5 2399.5,-1001.5 2393.5,-1007.5 2387.5,-1007.5 2387.5,-1007.5 2287.5,-1007.5 2287.5,-1007.5 2281.5,-1007.5 2275.5,-1001.5 2275.5,-995.5 2275.5,-995.5 2275.5,-981.5 2275.5,-981.5 2275.5,-975.5 2281.5,-969.5 2287.5,-969.5"/>
<text text-anchor="middle" x="2337.5" y="-992.3" font-family="Dejavu Sans Mono" font-size="14.00">MISSING LABEL</text>
<text text-anchor="middle" x="2337.5" y="-977.3" font-family="Dejavu Sans Mono" font-size="14.00">(FMA:65911)</text>
</g>
<!-- nkblad_K93&#45;&gt;nFMA_65911 -->
<g id="edge52" class="edge">
<title>nkblad_K93&#45;&gt;nFMA_65911</title>
<path fill="none" stroke="black" d="M1810.24,-988.5C1935.17,-988.5 2152.87,-988.5 2265.09,-988.5"/>
<polygon fill="black" stroke="black" points="2265.29,-992 2275.29,-988.5 2265.29,-985 2265.29,-992"/>
<text text-anchor="middle" x="2133.5" y="-992.3" font-family="Dejavu Sans Mono" font-size="14.00">apinatomy:external</text>
</g>
<!-- nkblad_snl26 -->
<g id="node23" class="node">
<title>nkblad_snl26</title>
<path fill="none" stroke="black" d="M811,-1368.5C811,-1368.5 1142,-1368.5 1142,-1368.5 1148,-1368.5 1154,-1374.5 1154,-1380.5 1154,-1380.5 1154,-1394.5 1154,-1394.5 1154,-1400.5 1148,-1406.5 1142,-1406.5 1142,-1406.5 811,-1406.5 811,-1406.5 805,-1406.5 799,-1400.5 799,-1394.5 799,-1394.5 799,-1380.5 799,-1380.5 799,-1374.5 805,-1368.5 811,-1368.5"/>
<text text-anchor="middle" x="976.5" y="-1391.3" font-family="Dejavu Sans Mono" font-size="14.00">Soma of SPR neuron in L2_Neuron 6 (kblad)</text>
<text text-anchor="middle" x="976.5" y="-1376.3" font-family="Dejavu Sans Mono" font-size="14.00">(kblad:snl26)</text>
</g>
<!-- nkblad_snl26&#45;&gt;nkblad_ref_mat_K_83_K_129_K23_7 -->
<g id="edge23" class="edge">
<title>nkblad_snl26&#45;&gt;nkblad_ref_mat_K_83_K_129_K23_7</title>
<path fill="none" stroke="black" d="M1154.38,-1391.1C1221.79,-1392.48 1301.05,-1394.09 1378.37,-1395.66"/>
<polygon fill="black" stroke="black" points="1378.71,-1399.17 1388.78,-1395.88 1378.85,-1392.17 1378.71,-1399.17"/>
<text text-anchor="middle" x="1271.5" y="-1399.3" font-family="Dejavu Sans Mono" font-size="14.00">apinatomy:internalIn</text>
</g>
<!-- nUBERON_0005453 -->
<g id="node24" class="node">
<title>nUBERON_0005453</title>
<path fill="none" stroke="black" d="M2275,-171.5C2275,-171.5 2400,-171.5 2400,-171.5 2406,-171.5 2412,-177.5 2412,-183.5 2412,-183.5 2412,-197.5 2412,-197.5 2412,-203.5 2406,-209.5 2400,-209.5 2400,-209.5 2275,-209.5 2275,-209.5 2269,-209.5 2263,-203.5 2263,-197.5 2263,-197.5 2263,-183.5 2263,-183.5 2263,-177.5 2269,-171.5 2275,-171.5"/>
<text text-anchor="middle" x="2337.5" y="-194.3" font-family="Dejavu Sans Mono" font-size="14.00">MISSING LABEL</text>
<text text-anchor="middle" x="2337.5" y="-179.3" font-family="Dejavu Sans Mono" font-size="14.00">(UBERON:0005453)</text>
</g>
<!-- nPMID_1358408 -->
<g id="node25" class="node">
<title>nPMID_1358408</title>
<path fill="none" stroke="black" d="M922.5,-912.5C922.5,-912.5 1030.5,-912.5 1030.5,-912.5 1036.5,-912.5 1042.5,-918.5 1042.5,-924.5 1042.5,-924.5 1042.5,-938.5 1042.5,-938.5 1042.5,-944.5 1036.5,-950.5 1030.5,-950.5 1030.5,-950.5 922.5,-950.5 922.5,-950.5 916.5,-950.5 910.5,-944.5 910.5,-938.5 910.5,-938.5 910.5,-924.5 910.5,-924.5 910.5,-918.5 916.5,-912.5 922.5,-912.5"/>
<text text-anchor="middle" x="976.5" y="-935.3" font-family="Dejavu Sans Mono" font-size="14.00">MISSING LABEL</text>
<text text-anchor="middle" x="976.5" y="-920.3" font-family="Dejavu Sans Mono" font-size="14.00">(PMID:1358408)</text>
</g>
<!-- nPMID_1358408&#45;&gt;nelements_External -->
<g id="edge72" class="edge">
<title>nPMID_1358408&#45;&gt;nelements_External</title>
<path fill="none" stroke="black" d="M1042.6,-923.54C1120.91,-913.52 1256.2,-894.75 1371,-871.5 1463.25,-852.81 1567.94,-825.33 1637.14,-806.28"/>
<polygon fill="black" stroke="black" points="1638.37,-809.56 1647.08,-803.53 1636.51,-802.82 1638.37,-809.56"/>
<text text-anchor="middle" x="1271.5" y="-909.3" font-family="Dejavu Sans Mono" font-size="14.00">type</text>
</g>
<!-- nkblad_K102 -->
<g id="node26" class="node">
<title>nkblad_K102</title>
<path fill="none" stroke="black" d="M1570,-171.5C1570,-171.5 1860,-171.5 1860,-171.5 1866,-171.5 1872,-177.5 1872,-183.5 1872,-183.5 1872,-197.5 1872,-197.5 1872,-203.5 1866,-209.5 1860,-209.5 1860,-209.5 1570,-209.5 1570,-209.5 1564,-209.5 1558,-203.5 1558,-197.5 1558,-197.5 1558,-183.5 1558,-183.5 1558,-177.5 1564,-171.5 1570,-171.5"/>
<text text-anchor="middle" x="1715" y="-194.3" font-family="Dejavu Sans Mono" font-size="14.00">Inferior Mesenteric Ganglion (kblad)</text>
<text text-anchor="middle" x="1715" y="-179.3" font-family="Dejavu Sans Mono" font-size="14.00">(kblad:K102)</text>
</g>
<!-- nkblad_K102&#45;&gt;nUBERON_0005453 -->
<g id="edge73" class="edge">
<title>nkblad_K102&#45;&gt;nUBERON_0005453</title>
<path fill="none" stroke="black" d="M1872.18,-190.5C1993.02,-190.5 2155.64,-190.5 2252.89,-190.5"/>
<polygon fill="black" stroke="black" points="2252.97,-194 2262.97,-190.5 2252.97,-187 2252.97,-194"/>
<text text-anchor="middle" x="2133.5" y="-194.3" font-family="Dejavu Sans Mono" font-size="14.00">apinatomy:external</text>
</g>
<!-- nEMAPA_25271 -->
<g id="node27" class="node">
<title>nEMAPA_25271</title>
<path fill="none" stroke="black" d="M2287.5,-114.5C2287.5,-114.5 2387.5,-114.5 2387.5,-114.5 2393.5,-114.5 2399.5,-120.5 2399.5,-126.5 2399.5,-126.5 2399.5,-140.5 2399.5,-140.5 2399.5,-146.5 2393.5,-152.5 2387.5,-152.5 2387.5,-152.5 2287.5,-152.5 2287.5,-152.5 2281.5,-152.5 2275.5,-146.5 2275.5,-140.5 2275.5,-140.5 2275.5,-126.5 2275.5,-126.5 2275.5,-120.5 2281.5,-114.5 2287.5,-114.5"/>
<text text-anchor="middle" x="2337.5" y="-137.3" font-family="Dejavu Sans Mono" font-size="14.00">MISSING LABEL</text>
<text text-anchor="middle" x="2337.5" y="-122.3" font-family="Dejavu Sans Mono" font-size="14.00">(EMAPA:25271)</text>
</g>
<!-- nkblad_neuron_6 -->
<g id="node28" class="node">
<title>nkblad_neuron_6</title>
<path fill="none" stroke="black" d="M444,-769.5C444,-769.5 569,-769.5 569,-769.5 575,-769.5 581,-775.5 581,-781.5 581,-781.5 581,-795.5 581,-795.5 581,-801.5 575,-807.5 569,-807.5 569,-807.5 444,-807.5 444,-807.5 438,-807.5 432,-801.5 432,-795.5 432,-795.5 432,-781.5 432,-781.5 432,-775.5 438,-769.5 444,-769.5"/>
<text text-anchor="middle" x="506.5" y="-792.3" font-family="Dejavu Sans Mono" font-size="14.00">Neuron 6</text>
<text text-anchor="middle" x="506.5" y="-777.3" font-family="Dejavu Sans Mono" font-size="14.00">(kblad:neuron&#45;6)</text>
</g>
<!-- nkblad_neuron_6&#45;&gt;nkblad_snl16 -->
<g id="edge39" class="edge">
<title>nkblad_neuron_6&#45;&gt;nkblad_snl16</title>
<path fill="none" stroke="black" d="M510.06,-807.93C518.92,-872.21 550.47,-1076.18 599,-1117.5 628.26,-1142.42 709.28,-1153.34 788.7,-1157.85"/>
<polygon fill="black" stroke="black" points="788.71,-1161.35 798.88,-1158.39 789.08,-1154.36 788.71,-1161.35"/>
<text text-anchor="middle" x="690" y="-1161.3" font-family="Dejavu Sans Mono" font-size="14.00">apinatomy:lyphs</text>
</g>
<!-- nkblad_neuron_6&#45;&gt;nkblad_dc_snl16_lnk_1 -->
<g id="edge4" class="edge">
<title>nkblad_neuron_6&#45;&gt;nkblad_dc_snl16_lnk_1</title>
<path fill="none" stroke="black" d="M507.53,-807.67C508.74,-857.96 519.54,-994.22 599,-1058.5 639.03,-1090.88 770.77,-1100.12 867.16,-1102.4"/>
<polygon fill="black" stroke="black" points="867.18,-1105.9 877.25,-1102.62 867.33,-1098.91 867.18,-1105.9"/>
<text text-anchor="middle" x="690" y="-1102.3" font-family="Dejavu Sans Mono" font-size="14.00">apinatomy:links</text>
</g>
<!-- nkblad_neuron_6&#45;&gt;nPMID_1619047 -->
<g id="edge3" class="edge">
<title>nkblad_neuron_6&#45;&gt;nPMID_1619047</title>
<path fill="none" stroke="black" d="M549.61,-807.54C564.9,-813.79 582.47,-820.22 599,-824.5 701.48,-851.04 823.49,-863.96 900.24,-869.9"/>
<polygon fill="black" stroke="black" points="900.06,-873.4 910.3,-870.66 900.59,-866.42 900.06,-873.4"/>
<text text-anchor="middle" x="690" y="-861.3" font-family="Dejavu Sans Mono" font-size="14.00">apinatomy:publications</text>
</g>
<!-- nkblad_neuron_6&#45;&gt;nkblad_dc_snl26_lnk_1 -->
<g id="edge30" class="edge">
<title>nkblad_neuron_6&#45;&gt;nkblad_dc_snl26_lnk_1</title>
<path fill="none" stroke="black" d="M508.06,-807.7C510.92,-891.29 526.74,-1222.27 599,-1289.5 636.78,-1324.64 769.74,-1332.11 866.98,-1332.62"/>
<polygon fill="black" stroke="black" points="867.16,-1336.12 877.17,-1332.65 867.18,-1329.12 867.16,-1336.12"/>
<text text-anchor="middle" x="690" y="-1334.3" font-family="Dejavu Sans Mono" font-size="14.00">apinatomy:links</text>
</g>
<!-- nkblad_neuron_6&#45;&gt;nkblad_ac_l1l26a_lnk_3 -->
<g id="edge48" class="edge">
<title>nkblad_neuron_6&#45;&gt;nkblad_ac_l1l26a_lnk_3</title>
<path fill="none" stroke="black" d="M508.5,-807.58C514.45,-917.42 546.66,-1466.01 599,-1517.5 669.34,-1586.69 786.58,-1588.86 871.57,-1578.8"/>
<polygon fill="black" stroke="black" points="872.02,-1582.27 881.51,-1577.55 871.15,-1575.32 872.02,-1582.27"/>
<text text-anchor="middle" x="690" y="-1585.3" font-family="Dejavu Sans Mono" font-size="14.00">apinatomy:links</text>
</g>
<!-- nkblad_neuron_6&#45;&gt;nkblad_ac_snl16_lnk_1 -->
<g id="edge71" class="edge">
<title>nkblad_neuron_6&#45;&gt;nkblad_ac_snl16_lnk_1</title>
<path fill="none" stroke="black" d="M509.18,-807.76C515.78,-878.95 542.47,-1125.56 599,-1175.5 637.61,-1209.61 770.03,-1217.32 866.94,-1218.17"/>
<polygon fill="black" stroke="black" points="867.07,-1221.67 877.09,-1218.24 867.11,-1214.67 867.07,-1221.67"/>
<text text-anchor="middle" x="690" y="-1219.3" font-family="Dejavu Sans Mono" font-size="14.00">apinatomy:links</text>
</g>
<!-- nkblad_neuron_6&#45;&gt;nkblad_ac_snl26_lnk_7 -->
<g id="edge16" class="edge">
<title>nkblad_neuron_6&#45;&gt;nkblad_ac_snl26_lnk_7</title>
<path fill="none" stroke="black" d="M509.44,-769.32C514.89,-726.66 534.39,-623.97 599,-576.5 664.54,-528.34 717.58,-608.42 781,-557.5 800.73,-541.66 779.7,-519.86 799,-503.5 818.03,-487.37 842.52,-478.6 867.17,-474.18"/>
<polygon fill="black" stroke="black" points="868.01,-477.59 877.35,-472.59 866.93,-470.67 868.01,-477.59"/>
<text text-anchor="middle" x="690" y="-580.3" font-family="Dejavu Sans Mono" font-size="14.00">apinatomy:links</text>
</g>
<!-- nkblad_neuron_6&#45;&gt;nkblad_ac_snl26_lnk_2 -->
<g id="edge55" class="edge">
<title>nkblad_neuron_6&#45;&gt;nkblad_ac_snl26_lnk_2</title>
<path fill="none" stroke="black" d="M507.09,-807.83C505.38,-907.99 502.93,-1366.97 599,-1460.5 636.03,-1496.55 769.53,-1503.78 867.07,-1504"/>
<polygon fill="black" stroke="black" points="867.29,-1507.5 877.29,-1504 867.29,-1500.5 867.29,-1507.5"/>
<text text-anchor="middle" x="690" y="-1505.3" font-family="Dejavu Sans Mono" font-size="14.00">apinatomy:links</text>
</g>
<!-- nkblad_neuron_6&#45;&gt;nkblad_ac_snl26_lnk_1 -->
<g id="edge35" class="edge">
<title>nkblad_neuron_6&#45;&gt;nkblad_ac_snl26_lnk_1</title>
<path fill="none" stroke="black" d="M507.35,-807.74C507.06,-902.54 510.88,-1318.77 599,-1403.5 636.25,-1439.32 769.7,-1446.61 867.17,-1446.9"/>
<polygon fill="black" stroke="black" points="867.38,-1450.4 877.38,-1446.9 867.38,-1443.4 867.38,-1450.4"/>
<text text-anchor="middle" x="690" y="-1447.3" font-family="Dejavu Sans Mono" font-size="14.00">apinatomy:links</text>
</g>
<!-- nkblad_neuron_6&#45;&gt;nkblad_ac_l1l26a_lnk_4 -->
<g id="edge9" class="edge">
<title>nkblad_neuron_6&#45;&gt;nkblad_ac_l1l26a_lnk_4</title>
<path fill="none" stroke="black" d="M509.5,-807.61C515.04,-850.13 534.75,-952.55 599,-1000.5 639.64,-1030.83 767.7,-1040.95 863.26,-1044.2"/>
<polygon fill="black" stroke="black" points="863.17,-1047.7 873.27,-1044.52 863.39,-1040.71 863.17,-1047.7"/>
<text text-anchor="middle" x="690" y="-1043.3" font-family="Dejavu Sans Mono" font-size="14.00">apinatomy:links</text>
</g>
<!-- nkblad_neuron_6&#45;&gt;nPMID_3558884 -->
<g id="edge18" class="edge">
<title>nkblad_neuron_6&#45;&gt;nPMID_3558884</title>
<path fill="none" stroke="black" d="M581.34,-777.36C587.3,-776.65 593.25,-776.02 599,-775.5 703.07,-766.06 823.85,-762.56 899.97,-761.26"/>
<polygon fill="black" stroke="black" points="900.47,-764.76 910.41,-761.09 900.36,-757.76 900.47,-764.76"/>
<text text-anchor="middle" x="690" y="-779.3" font-family="Dejavu Sans Mono" font-size="14.00">apinatomy:publications</text>
</g>
<!-- nkblad_neuron_6&#45;&gt;nkblad_ac_snl26_lnk_6 -->
<g id="edge64" class="edge">
<title>nkblad_neuron_6&#45;&gt;nkblad_ac_snl26_lnk_6</title>
<path fill="none" stroke="black" d="M512.52,-807.62C522.58,-841.75 548.68,-912.64 599,-945.5 641.85,-973.48 771.68,-983.33 866.93,-986.76"/>
<polygon fill="black" stroke="black" points="867.09,-990.26 877.2,-987.11 867.33,-983.27 867.09,-990.26"/>
<text text-anchor="middle" x="690" y="-985.3" font-family="Dejavu Sans Mono" font-size="14.00">apinatomy:links</text>
</g>
<!-- nkblad_neuron_6&#45;&gt;nkblad_snl26 -->
<g id="edge20" class="edge">
<title>nkblad_neuron_6&#45;&gt;nkblad_snl26</title>
<path fill="none" stroke="black" d="M507.67,-807.72C508.9,-897.06 518.83,-1270.55 599,-1346.5 627.04,-1373.06 708.63,-1383.88 788.71,-1387.81"/>
<polygon fill="black" stroke="black" points="788.83,-1391.32 798.98,-1388.28 789.15,-1384.32 788.83,-1391.32"/>
<text text-anchor="middle" x="690" y="-1391.3" font-family="Dejavu Sans Mono" font-size="14.00">apinatomy:lyphs</text>
</g>
<!-- nkblad_neuron_6&#45;&gt;nPMID_1358408 -->
<g id="edge6" class="edge">
<title>nkblad_neuron_6&#45;&gt;nPMID_1358408</title>
<path fill="none" stroke="black" d="M521.29,-807.51C537.42,-828.18 566.14,-860.41 599,-876.5 695.37,-923.71 821.05,-933.15 900.03,-933.75"/>
<polygon fill="black" stroke="black" points="900.37,-937.25 910.38,-933.77 900.39,-930.25 900.37,-937.25"/>
<text text-anchor="middle" x="690" y="-930.3" font-family="Dejavu Sans Mono" font-size="14.00">apinatomy:publications</text>
</g>
<!-- nkblad_ac_snl16_lnk_7 -->
<g id="node30" class="node">
<title>nkblad_ac_snl16_lnk_7</title>
<path fill="none" stroke="black" d="M889.5,-513.5C889.5,-513.5 1063.5,-513.5 1063.5,-513.5 1069.5,-513.5 1075.5,-519.5 1075.5,-525.5 1075.5,-525.5 1075.5,-539.5 1075.5,-539.5 1075.5,-545.5 1069.5,-551.5 1063.5,-551.5 1063.5,-551.5 889.5,-551.5 889.5,-551.5 883.5,-551.5 877.5,-545.5 877.5,-539.5 877.5,-539.5 877.5,-525.5 877.5,-525.5 877.5,-519.5 883.5,-513.5 889.5,-513.5"/>
<text text-anchor="middle" x="976.5" y="-536.3" font-family="Dejavu Sans Mono" font-size="14.00">MISSING LABEL</text>
<text text-anchor="middle" x="976.5" y="-521.3" font-family="Dejavu Sans Mono" font-size="14.00">(kblad:ac&#45;snl16_lnk_7)</text>
</g>
<!-- nkblad_neuron_6&#45;&gt;nkblad_ac_snl16_lnk_7 -->
<g id="edge10" class="edge">
<title>nkblad_neuron_6&#45;&gt;nkblad_ac_snl16_lnk_7</title>
<path fill="none" stroke="black" d="M511.35,-769.36C519.9,-732.41 544.18,-651.63 599,-614.5 666.34,-568.89 713.87,-641.41 781,-595.5 795.44,-585.62 784.83,-570.76 799,-560.5 818.77,-546.19 843.05,-538.03 867.21,-533.59"/>
<polygon fill="black" stroke="black" points="867.87,-537.03 877.18,-531.96 866.75,-530.12 867.87,-537.03"/>
<text text-anchor="middle" x="690" y="-618.3" font-family="Dejavu Sans Mono" font-size="14.00">apinatomy:links</text>
</g>
<!-- nPMID_30704972 -->
<g id="node33" class="node">
<title>nPMID_30704972</title>
<path fill="none" stroke="black" d="M918.5,-798.5C918.5,-798.5 1034.5,-798.5 1034.5,-798.5 1040.5,-798.5 1046.5,-804.5 1046.5,-810.5 1046.5,-810.5 1046.5,-824.5 1046.5,-824.5 1046.5,-830.5 1040.5,-836.5 1034.5,-836.5 1034.5,-836.5 918.5,-836.5 918.5,-836.5 912.5,-836.5 906.5,-830.5 906.5,-824.5 906.5,-824.5 906.5,-810.5 906.5,-810.5 906.5,-804.5 912.5,-798.5 918.5,-798.5"/>
<text text-anchor="middle" x="976.5" y="-821.3" font-family="Dejavu Sans Mono" font-size="14.00">MISSING LABEL</text>
<text text-anchor="middle" x="976.5" y="-806.3" font-family="Dejavu Sans Mono" font-size="14.00">(PMID:30704972)</text>
</g>
<!-- nkblad_neuron_6&#45;&gt;nPMID_30704972 -->
<g id="edge54" class="edge">
<title>nkblad_neuron_6&#45;&gt;nPMID_30704972</title>
<path fill="none" stroke="black" d="M581.14,-793.06C666.94,-798.38 808.15,-807.13 896.27,-812.59"/>
<polygon fill="black" stroke="black" points="896.28,-816.1 906.48,-813.22 896.72,-809.11 896.28,-816.1"/>
<text text-anchor="middle" x="690" y="-809.3" font-family="Dejavu Sans Mono" font-size="14.00">apinatomy:publications</text>
</g>
<!-- nkblad_ac_snl16_lnk_2 -->
<g id="node35" class="node">
<title>nkblad_ac_snl16_lnk_2</title>
<path fill="none" stroke="black" d="M889.5,-1254.5C889.5,-1254.5 1063.5,-1254.5 1063.5,-1254.5 1069.5,-1254.5 1075.5,-1260.5 1075.5,-1266.5 1075.5,-1266.5 1075.5,-1280.5 1075.5,-1280.5 1075.5,-1286.5 1069.5,-1292.5 1063.5,-1292.5 1063.5,-1292.5 889.5,-1292.5 889.5,-1292.5 883.5,-1292.5 877.5,-1286.5 877.5,-1280.5 877.5,-1280.5 877.5,-1266.5 877.5,-1266.5 877.5,-1260.5 883.5,-1254.5 889.5,-1254.5"/>
<text text-anchor="middle" x="976.5" y="-1277.3" font-family="Dejavu Sans Mono" font-size="14.00">MISSING LABEL</text>
<text text-anchor="middle" x="976.5" y="-1262.3" font-family="Dejavu Sans Mono" font-size="14.00">(kblad:ac&#45;snl16_lnk_2)</text>
</g>
<!-- nkblad_neuron_6&#45;&gt;nkblad_ac_snl16_lnk_2 -->
<g id="edge34" class="edge">
<title>nkblad_neuron_6&#45;&gt;nkblad_ac_snl16_lnk_2</title>
<path fill="none" stroke="black" d="M508.54,-807.58C513.17,-884.95 534.59,-1173.92 599,-1232.5 637.17,-1267.22 770.05,-1274.77 867.16,-1275.43"/>
<polygon fill="black" stroke="black" points="867.32,-1278.93 877.33,-1275.47 867.35,-1271.93 867.32,-1278.93"/>
<text text-anchor="middle" x="690" y="-1277.3" font-family="Dejavu Sans Mono" font-size="14.00">apinatomy:links</text>
</g>
<!-- nkblad_ac_snl16_lnk_6 -->
<g id="node44" class="node">
<title>nkblad_ac_snl16_lnk_6</title>
<path fill="none" stroke="black" d="M889.5,-399.5C889.5,-399.5 1063.5,-399.5 1063.5,-399.5 1069.5,-399.5 1075.5,-405.5 1075.5,-411.5 1075.5,-411.5 1075.5,-425.5 1075.5,-425.5 1075.5,-431.5 1069.5,-437.5 1063.5,-437.5 1063.5,-437.5 889.5,-437.5 889.5,-437.5 883.5,-437.5 877.5,-431.5 877.5,-425.5 877.5,-425.5 877.5,-411.5 877.5,-411.5 877.5,-405.5 883.5,-399.5 889.5,-399.5"/>
<text text-anchor="middle" x="976.5" y="-422.3" font-family="Dejavu Sans Mono" font-size="14.00">MISSING LABEL</text>
<text text-anchor="middle" x="976.5" y="-407.3" font-family="Dejavu Sans Mono" font-size="14.00">(kblad:ac&#45;snl16_lnk_6)</text>
</g>
<!-- nkblad_neuron_6&#45;&gt;nkblad_ac_snl16_lnk_6 -->
<g id="edge32" class="edge">
<title>nkblad_neuron_6&#45;&gt;nkblad_ac_snl16_lnk_6</title>
<path fill="none" stroke="black" d="M508.09,-769.3C510.68,-721.49 524.61,-596.8 599,-538.5 663.05,-488.31 719.69,-572.01 781,-518.5 805.85,-496.81 774.68,-468.78 799,-446.5 817.68,-429.39 842.41,-420.34 867.41,-415.96"/>
<polygon fill="black" stroke="black" points="868.01,-419.41 877.37,-414.45 866.96,-412.49 868.01,-419.41"/>
<text text-anchor="middle" x="690" y="-542.3" font-family="Dejavu Sans Mono" font-size="14.00">apinatomy:links</text>
</g>
<!-- nkblad_ac_snl16_lnk_3 -->
<g id="node45" class="node">
<title>nkblad_ac_snl16_lnk_3</title>
<path fill="none" stroke="black" d="M889.5,-342.5C889.5,-342.5 1063.5,-342.5 1063.5,-342.5 1069.5,-342.5 1075.5,-348.5 1075.5,-354.5 1075.5,-354.5 1075.5,-368.5 1075.5,-368.5 1075.5,-374.5 1069.5,-380.5 1063.5,-380.5 1063.5,-380.5 889.5,-380.5 889.5,-380.5 883.5,-380.5 877.5,-374.5 877.5,-368.5 877.5,-368.5 877.5,-354.5 877.5,-354.5 877.5,-348.5 883.5,-342.5 889.5,-342.5"/>
<text text-anchor="middle" x="976.5" y="-365.3" font-family="Dejavu Sans Mono" font-size="14.00">MISSING LABEL</text>
<text text-anchor="middle" x="976.5" y="-350.3" font-family="Dejavu Sans Mono" font-size="14.00">(kblad:ac&#45;snl16_lnk_3)</text>
</g>
<!-- nkblad_neuron_6&#45;&gt;nkblad_ac_snl16_lnk_3 -->
<g id="edge31" class="edge">
<title>nkblad_neuron_6&#45;&gt;nkblad_ac_snl16_lnk_3</title>
<path fill="none" stroke="black" d="M507.06,-769.2C506.99,-716.49 514.73,-569.37 599,-499.5 661.72,-447.5 721.09,-532.72 781,-477.5 810.35,-450.44 770.15,-417.09 799,-389.5 817.41,-371.89 842.16,-362.7 867.3,-358.33"/>
<polygon fill="black" stroke="black" points="867.94,-361.78 877.32,-356.84 866.91,-354.85 867.94,-361.78"/>
<text text-anchor="middle" x="690" y="-503.3" font-family="Dejavu Sans Mono" font-size="14.00">apinatomy:links</text>
</g>
<!-- nkblad_ac_snl16_lnk_5 -->
<g id="node46" class="node">
<title>nkblad_ac_snl16_lnk_5</title>
<path fill="none" stroke="black" d="M889.5,-285.5C889.5,-285.5 1063.5,-285.5 1063.5,-285.5 1069.5,-285.5 1075.5,-291.5 1075.5,-297.5 1075.5,-297.5 1075.5,-311.5 1075.5,-311.5 1075.5,-317.5 1069.5,-323.5 1063.5,-323.5 1063.5,-323.5 889.5,-323.5 889.5,-323.5 883.5,-323.5 877.5,-317.5 877.5,-311.5 877.5,-311.5 877.5,-297.5 877.5,-297.5 877.5,-291.5 883.5,-285.5 889.5,-285.5"/>
<text text-anchor="middle" x="976.5" y="-308.3" font-family="Dejavu Sans Mono" font-size="14.00">MISSING LABEL</text>
<text text-anchor="middle" x="976.5" y="-293.3" font-family="Dejavu Sans Mono" font-size="14.00">(kblad:ac&#45;snl16_lnk_5)</text>
</g>
<!-- nkblad_neuron_6&#45;&gt;nkblad_ac_snl16_lnk_5 -->
<g id="edge65" class="edge">
<title>nkblad_neuron_6&#45;&gt;nkblad_ac_snl16_lnk_5</title>
<path fill="none" stroke="black" d="M510.1,-769.07C519.12,-704.82 551.11,-500.82 599,-458.5 660.27,-404.35 722.24,-488.37 781,-431.5 813.13,-400.4 767.02,-363.76 799,-332.5 817.21,-314.69 841.9,-305.43 867.03,-301.06"/>
<polygon fill="black" stroke="black" points="867.67,-304.5 877.05,-299.57 866.64,-297.58 867.67,-304.5"/>
<text text-anchor="middle" x="690" y="-462.3" font-family="Dejavu Sans Mono" font-size="14.00">apinatomy:links</text>
</g>
<!-- nkblad_ac_snl26_lnk_5 -->
<g id="node47" class="node">
<title>nkblad_ac_snl26_lnk_5</title>
<path fill="none" stroke="black" d="M889.5,-228.5C889.5,-228.5 1063.5,-228.5 1063.5,-228.5 1069.5,-228.5 1075.5,-234.5 1075.5,-240.5 1075.5,-240.5 1075.5,-254.5 1075.5,-254.5 1075.5,-260.5 1069.5,-266.5 1063.5,-266.5 1063.5,-266.5 889.5,-266.5 889.5,-266.5 883.5,-266.5 877.5,-260.5 877.5,-254.5 877.5,-254.5 877.5,-240.5 877.5,-240.5 877.5,-234.5 883.5,-228.5 889.5,-228.5"/>
<text text-anchor="middle" x="976.5" y="-251.3" font-family="Dejavu Sans Mono" font-size="14.00">MISSING LABEL</text>
<text text-anchor="middle" x="976.5" y="-236.3" font-family="Dejavu Sans Mono" font-size="14.00">(kblad:ac&#45;snl26_lnk_5)</text>
</g>
<!-- nkblad_neuron_6&#45;&gt;nkblad_ac_snl26_lnk_5 -->
<g id="edge59" class="edge">
<title>nkblad_neuron_6&#45;&gt;nkblad_ac_snl26_lnk_5</title>
<path fill="none" stroke="black" d="M509.44,-769.43C516.87,-700.11 545.84,-462.86 599,-412.5 658.74,-355.91 723.15,-437.03 781,-378.5 813.67,-345.45 765.88,-308.1 799,-275.5 817.25,-257.53 842.08,-248.24 867.35,-243.9"/>
<polygon fill="black" stroke="black" points="868.04,-247.34 877.42,-242.42 867.02,-240.41 868.04,-247.34"/>
<text text-anchor="middle" x="690" y="-416.3" font-family="Dejavu Sans Mono" font-size="14.00">apinatomy:links</text>
</g>
<!-- nkblad_ac_l1l26a_lnk_2 -->
<g id="node48" class="node">
<title>nkblad_ac_l1l26a_lnk_2</title>
<path fill="none" stroke="black" d="M885.5,-171.5C885.5,-171.5 1067.5,-171.5 1067.5,-171.5 1073.5,-171.5 1079.5,-177.5 1079.5,-183.5 1079.5,-183.5 1079.5,-197.5 1079.5,-197.5 1079.5,-203.5 1073.5,-209.5 1067.5,-209.5 1067.5,-209.5 885.5,-209.5 885.5,-209.5 879.5,-209.5 873.5,-203.5 873.5,-197.5 873.5,-197.5 873.5,-183.5 873.5,-183.5 873.5,-177.5 879.5,-171.5 885.5,-171.5"/>
<text text-anchor="middle" x="976.5" y="-194.3" font-family="Dejavu Sans Mono" font-size="14.00">MISSING LABEL</text>
<text text-anchor="middle" x="976.5" y="-179.3" font-family="Dejavu Sans Mono" font-size="14.00">(kblad:ac&#45;l1l26a_lnk_2)</text>
</g>
<!-- nkblad_neuron_6&#45;&gt;nkblad_ac_l1l26a_lnk_2 -->
<g id="edge66" class="edge">
<title>nkblad_neuron_6&#45;&gt;nkblad_ac_l1l26a_lnk_2</title>
<path fill="none" stroke="black" d="M508.99,-769.31C515.2,-694.08 541.44,-420.5 599,-359.5 656.57,-298.49 723.88,-370.94 781,-309.5 809.07,-279.31 769.3,-247.09 799,-218.5 816.31,-201.84 839.29,-192.69 862.94,-188.04"/>
<polygon fill="black" stroke="black" points="863.83,-191.44 873.1,-186.32 862.66,-184.54 863.83,-191.44"/>
<text text-anchor="middle" x="690" y="-363.3" font-family="Dejavu Sans Mono" font-size="14.00">apinatomy:links</text>
</g>
<!-- nkblad_ac_snl26_lnk_3 -->
<g id="node50" class="node">
<title>nkblad_ac_snl26_lnk_3</title>
<path fill="none" stroke="black" d="M889.5,-114.5C889.5,-114.5 1063.5,-114.5 1063.5,-114.5 1069.5,-114.5 1075.5,-120.5 1075.5,-126.5 1075.5,-126.5 1075.5,-140.5 1075.5,-140.5 1075.5,-146.5 1069.5,-152.5 1063.5,-152.5 1063.5,-152.5 889.5,-152.5 889.5,-152.5 883.5,-152.5 877.5,-146.5 877.5,-140.5 877.5,-140.5 877.5,-126.5 877.5,-126.5 877.5,-120.5 883.5,-114.5 889.5,-114.5"/>
<text text-anchor="middle" x="976.5" y="-137.3" font-family="Dejavu Sans Mono" font-size="14.00">MISSING LABEL</text>
<text text-anchor="middle" x="976.5" y="-122.3" font-family="Dejavu Sans Mono" font-size="14.00">(kblad:ac&#45;snl26_lnk_3)</text>
</g>
<!-- nkblad_neuron_6&#45;&gt;nkblad_ac_snl26_lnk_3 -->
<g id="edge36" class="edge">
<title>nkblad_neuron_6&#45;&gt;nkblad_ac_snl26_lnk_3</title>
<path fill="none" stroke="black" d="M508.66,-769.37C513.99,-687.52 538.44,-367.43 599,-290.5 653.76,-220.93 720.3,-273.95 781,-209.5 796.62,-192.91 781.35,-175.91 799,-161.5 818.22,-145.81 842.66,-137.19 867.18,-132.75"/>
<polygon fill="black" stroke="black" points="867.98,-136.17 877.31,-131.15 866.88,-129.25 867.98,-136.17"/>
<text text-anchor="middle" x="690" y="-294.3" font-family="Dejavu Sans Mono" font-size="14.00">apinatomy:links</text>
</g>
<!-- nkblad_ac_l1l26a_lnk_1 -->
<g id="node54" class="node">
<title>nkblad_ac_l1l26a_lnk_1</title>
<path fill="none" stroke="black" d="M885.5,-570.5C885.5,-570.5 1067.5,-570.5 1067.5,-570.5 1073.5,-570.5 1079.5,-576.5 1079.5,-582.5 1079.5,-582.5 1079.5,-596.5 1079.5,-596.5 1079.5,-602.5 1073.5,-608.5 1067.5,-608.5 1067.5,-608.5 885.5,-608.5 885.5,-608.5 879.5,-608.5 873.5,-602.5 873.5,-596.5 873.5,-596.5 873.5,-582.5 873.5,-582.5 873.5,-576.5 879.5,-570.5 885.5,-570.5"/>
<text text-anchor="middle" x="976.5" y="-593.3" font-family="Dejavu Sans Mono" font-size="14.00">MISSING LABEL</text>
<text text-anchor="middle" x="976.5" y="-578.3" font-family="Dejavu Sans Mono" font-size="14.00">(kblad:ac&#45;l1l26a_lnk_1)</text>
</g>
<!-- nkblad_neuron_6&#45;&gt;nkblad_ac_l1l26a_lnk_1 -->
<g id="edge7" class="edge">
<title>nkblad_neuron_6&#45;&gt;nkblad_ac_l1l26a_lnk_1</title>
<path fill="none" stroke="black" d="M514.36,-769.35C526.33,-739 554.13,-680.53 599,-653.5 668.7,-611.5 706.63,-666.54 781,-633.5 790.78,-629.15 789.32,-622.08 799,-617.5 818.82,-608.12 841.15,-601.79 863.09,-597.53"/>
<polygon fill="black" stroke="black" points="863.92,-600.94 873.14,-595.72 862.67,-594.05 863.92,-600.94"/>
<text text-anchor="middle" x="690" y="-657.3" font-family="Dejavu Sans Mono" font-size="14.00">apinatomy:links</text>
</g>
<!-- nPMID_3225349 -->
<g id="node56" class="node">
<title>nPMID_3225349</title>
<path fill="none" stroke="black" d="M922.5,-627.5C922.5,-627.5 1030.5,-627.5 1030.5,-627.5 1036.5,-627.5 1042.5,-633.5 1042.5,-639.5 1042.5,-639.5 1042.5,-653.5 1042.5,-653.5 1042.5,-659.5 1036.5,-665.5 1030.5,-665.5 1030.5,-665.5 922.5,-665.5 922.5,-665.5 916.5,-665.5 910.5,-659.5 910.5,-653.5 910.5,-653.5 910.5,-639.5 910.5,-639.5 910.5,-633.5 916.5,-627.5 922.5,-627.5"/>
<text text-anchor="middle" x="976.5" y="-650.3" font-family="Dejavu Sans Mono" font-size="14.00">MISSING LABEL</text>
<text text-anchor="middle" x="976.5" y="-635.3" font-family="Dejavu Sans Mono" font-size="14.00">(PMID:3225349)</text>
</g>
<!-- nkblad_neuron_6&#45;&gt;nPMID_3225349 -->
<g id="edge12" class="edge">
<title>nkblad_neuron_6&#45;&gt;nPMID_3225349</title>
<path fill="none" stroke="black" d="M520.48,-769.32C536.28,-747.67 565.09,-713.3 599,-696.5 602.36,-694.83 791.38,-670.25 900.27,-656.19"/>
<polygon fill="black" stroke="black" points="900.76,-659.65 910.23,-654.9 899.86,-652.71 900.76,-659.65"/>
<text text-anchor="middle" x="690" y="-700.3" font-family="Dejavu Sans Mono" font-size="14.00">apinatomy:publications</text>
</g>
<!-- nkblad_ac_snl26_lnk_4 -->
<g id="node60" class="node">
<title>nkblad_ac_snl26_lnk_4</title>
<path fill="none" stroke="black" d="M889.5,-57.5C889.5,-57.5 1063.5,-57.5 1063.5,-57.5 1069.5,-57.5 1075.5,-63.5 1075.5,-69.5 1075.5,-69.5 1075.5,-83.5 1075.5,-83.5 1075.5,-89.5 1069.5,-95.5 1063.5,-95.5 1063.5,-95.5 889.5,-95.5 889.5,-95.5 883.5,-95.5 877.5,-89.5 877.5,-83.5 877.5,-83.5 877.5,-69.5 877.5,-69.5 877.5,-63.5 883.5,-57.5 889.5,-57.5"/>
<text text-anchor="middle" x="976.5" y="-80.3" font-family="Dejavu Sans Mono" font-size="14.00">MISSING LABEL</text>
<text text-anchor="middle" x="976.5" y="-65.3" font-family="Dejavu Sans Mono" font-size="14.00">(kblad:ac&#45;snl26_lnk_4)</text>
</g>
<!-- nkblad_neuron_6&#45;&gt;nkblad_ac_snl26_lnk_4 -->
<g id="edge1" class="edge">
<title>nkblad_neuron_6&#45;&gt;nkblad_ac_snl26_lnk_4</title>
<path fill="none" stroke="black" d="M507.53,-769.26C508.08,-676.29 515.34,-274.68 599,-190.5 656.74,-132.4 718.96,-214.98 781,-161.5 801.12,-144.15 778.87,-121.84 799,-104.5 817.9,-88.22 842.35,-79.4 866.99,-74.97"/>
<polygon fill="black" stroke="black" points="867.83,-78.38 877.17,-73.37 866.75,-71.46 867.83,-78.38"/>
<text text-anchor="middle" x="690" y="-194.3" font-family="Dejavu Sans Mono" font-size="14.00">apinatomy:links</text>
</g>
<!-- nPMID_2891149 -->
<g id="node61" class="node">
<title>nPMID_2891149</title>
<path fill="none" stroke="black" d="M922.5,-684.5C922.5,-684.5 1030.5,-684.5 1030.5,-684.5 1036.5,-684.5 1042.5,-690.5 1042.5,-696.5 1042.5,-696.5 1042.5,-710.5 1042.5,-710.5 1042.5,-716.5 1036.5,-722.5 1030.5,-722.5 1030.5,-722.5 922.5,-722.5 922.5,-722.5 916.5,-722.5 910.5,-716.5 910.5,-710.5 910.5,-710.5 910.5,-696.5 910.5,-696.5 910.5,-690.5 916.5,-684.5 922.5,-684.5"/>
<text text-anchor="middle" x="976.5" y="-707.3" font-family="Dejavu Sans Mono" font-size="14.00">MISSING LABEL</text>
<text text-anchor="middle" x="976.5" y="-692.3" font-family="Dejavu Sans Mono" font-size="14.00">(PMID:2891149)</text>
</g>
<!-- nkblad_neuron_6&#45;&gt;nPMID_2891149 -->
<g id="edge51" class="edge">
<title>nkblad_neuron_6&#45;&gt;nPMID_2891149</title>
<path fill="none" stroke="black" d="M542.14,-769.44C558.85,-761.08 579.47,-751.95 599,-746.5 700.89,-718.08 823.3,-708.4 900.27,-705.13"/>
<polygon fill="black" stroke="black" points="900.51,-708.62 910.36,-704.72 900.23,-701.62 900.51,-708.62"/>
<text text-anchor="middle" x="690" y="-750.3" font-family="Dejavu Sans Mono" font-size="14.00">apinatomy:publications</text>
</g>
<!-- nkblad_ac_snl16_lnk_4 -->
<g id="node62" class="node">
<title>nkblad_ac_snl16_lnk_4</title>
<path fill="none" stroke="black" d="M889.5,-0.5C889.5,-0.5 1063.5,-0.5 1063.5,-0.5 1069.5,-0.5 1075.5,-6.5 1075.5,-12.5 1075.5,-12.5 1075.5,-26.5 1075.5,-26.5 1075.5,-32.5 1069.5,-38.5 1063.5,-38.5 1063.5,-38.5 889.5,-38.5 889.5,-38.5 883.5,-38.5 877.5,-32.5 877.5,-26.5 877.5,-26.5 877.5,-12.5 877.5,-12.5 877.5,-6.5 883.5,-0.5 889.5,-0.5"/>
<text text-anchor="middle" x="976.5" y="-23.3" font-family="Dejavu Sans Mono" font-size="14.00">MISSING LABEL</text>
<text text-anchor="middle" x="976.5" y="-8.3" font-family="Dejavu Sans Mono" font-size="14.00">(kblad:ac&#45;snl16_lnk_4)</text>
</g>
<!-- nkblad_neuron_6&#45;&gt;nkblad_ac_snl16_lnk_4 -->
<g id="edge5" class="edge">
<title>nkblad_neuron_6&#45;&gt;nkblad_ac_snl16_lnk_4</title>
<path fill="none" stroke="black" d="M507.82,-769.5C509.8,-673.9 522.84,-246.08 599,-142.5 660.19,-59.28 779.2,-31.38 867.1,-22.52"/>
<polygon fill="black" stroke="black" points="867.5,-26 877.12,-21.58 866.84,-19.03 867.5,-26"/>
<text text-anchor="middle" x="690" y="-146.3" font-family="Dejavu Sans Mono" font-size="14.00">apinatomy:links</text>
</g>
<!-- nUBERON_0005303 -->
<g id="node29" class="node">
<title>nUBERON_0005303</title>
<path fill="none" stroke="black" d="M2275,-1539.5C2275,-1539.5 2400,-1539.5 2400,-1539.5 2406,-1539.5 2412,-1545.5 2412,-1551.5 2412,-1551.5 2412,-1565.5 2412,-1565.5 2412,-1571.5 2406,-1577.5 2400,-1577.5 2400,-1577.5 2275,-1577.5 2275,-1577.5 2269,-1577.5 2263,-1571.5 2263,-1565.5 2263,-1565.5 2263,-1551.5 2263,-1551.5 2263,-1545.5 2269,-1539.5 2275,-1539.5"/>
<text text-anchor="middle" x="2337.5" y="-1562.3" font-family="Dejavu Sans Mono" font-size="14.00">MISSING LABEL</text>
<text text-anchor="middle" x="2337.5" y="-1547.3" font-family="Dejavu Sans Mono" font-size="14.00">(UBERON:0005303)</text>
</g>
<!-- nkblad_ac_snl16_lnk_7&#45;&gt;nkblad_n_lumspl -->
<g id="edge61" class="edge">
<title>nkblad_ac_snl16_lnk_7&#45;&gt;nkblad_n_lumspl</title>
<path fill="none" stroke="black" d="M1075.68,-532.5C1201.99,-532.5 1422.44,-532.5 1568.32,-532.5"/>
<polygon fill="black" stroke="black" points="1568.69,-536 1578.69,-532.5 1568.69,-529 1568.69,-536"/>
<text text-anchor="middle" x="1271.5" y="-536.3" font-family="Dejavu Sans Mono" font-size="14.00">apinatomy:fasciculatesIn</text>
</g>
<!-- nkblad_ref_mat_KM_27_K_129_K22_14 -->
<g id="node32" class="node">
<title>nkblad_ref_mat_KM_27_K_129_K22_14</title>
<path fill="none" stroke="black" d="M1483.5,-1236.5C1483.5,-1236.5 1946.5,-1236.5 1946.5,-1236.5 1952.5,-1236.5 1958.5,-1242.5 1958.5,-1248.5 1958.5,-1248.5 1958.5,-1262.5 1958.5,-1262.5 1958.5,-1268.5 1952.5,-1274.5 1946.5,-1274.5 1946.5,-1274.5 1483.5,-1274.5 1483.5,-1274.5 1477.5,-1274.5 1471.5,-1268.5 1471.5,-1262.5 1471.5,-1262.5 1471.5,-1248.5 1471.5,-1248.5 1471.5,-1242.5 1477.5,-1236.5 1483.5,-1236.5"/>
<text text-anchor="middle" x="1715" y="-1259.3" font-family="Dejavu Sans Mono" font-size="14.00">White matter of CNS in L1 spinal segment (kblad) layer 14</text>
<text text-anchor="middle" x="1715" y="-1244.3" font-family="Dejavu Sans Mono" font-size="14.00">(kblad:ref_mat_KM_27_K_129_K22_14)</text>
</g>
<!-- nkblad_ref_mat_KM_27_K_129_K22_14&#45;&gt;nkblad_K22 -->
<g id="edge28" class="edge">
<title>nkblad_ref_mat_KM_27_K_129_K22_14&#45;&gt;nkblad_K22</title>
<path fill="none" stroke="black" d="M1958.57,-1243.77C2046.71,-1239.51 2142.51,-1234.88 2215.6,-1231.35"/>
<polygon fill="black" stroke="black" points="2215.94,-1234.83 2225.76,-1230.85 2215.6,-1227.84 2215.94,-1234.83"/>
<text text-anchor="middle" x="2133.5" y="-1243.3" font-family="Dejavu Sans Mono" font-size="14.00">apinatomy:layerIn</text>
</g>
<!-- nPMID_30704972&#45;&gt;nelements_External -->
<g id="edge11" class="edge">
<title>nPMID_30704972&#45;&gt;nelements_External</title>
<path fill="none" stroke="black" d="M1046.79,-814.4C1179.02,-808.47 1467.57,-795.54 1618.18,-788.79"/>
<polygon fill="black" stroke="black" points="1618.51,-792.28 1628.34,-788.34 1618.19,-785.29 1618.51,-792.28"/>
<text text-anchor="middle" x="1271.5" y="-813.3" font-family="Dejavu Sans Mono" font-size="14.00">type</text>
</g>
<!-- nUBERON_0016508 -->
<g id="node34" class="node">
<title>nUBERON_0016508</title>
<path fill="none" stroke="black" d="M2275,-1026.5C2275,-1026.5 2400,-1026.5 2400,-1026.5 2406,-1026.5 2412,-1032.5 2412,-1038.5 2412,-1038.5 2412,-1052.5 2412,-1052.5 2412,-1058.5 2406,-1064.5 2400,-1064.5 2400,-1064.5 2275,-1064.5 2275,-1064.5 2269,-1064.5 2263,-1058.5 2263,-1052.5 2263,-1052.5 2263,-1038.5 2263,-1038.5 2263,-1032.5 2269,-1026.5 2275,-1026.5"/>
<text text-anchor="middle" x="2337.5" y="-1049.3" font-family="Dejavu Sans Mono" font-size="14.00">pelvic ganglion</text>
<text text-anchor="middle" x="2337.5" y="-1034.3" font-family="Dejavu Sans Mono" font-size="14.00">(UBERON:0016508)</text>
</g>
<!-- nkblad_ac_snl16_lnk_2&#45;&gt;nkblad_ref_mat_KM_27_K_129_K22_14 -->
<g id="edge45" class="edge">
<title>nkblad_ac_snl16_lnk_2&#45;&gt;nkblad_ref_mat_KM_27_K_129_K22_14</title>
<path fill="none" stroke="black" d="M1075.68,-1271.1C1173.68,-1268.71 1328.36,-1264.93 1460.9,-1261.69"/>
<polygon fill="black" stroke="black" points="1461.3,-1265.18 1471.22,-1261.43 1461.13,-1258.18 1461.3,-1265.18"/>
<text text-anchor="middle" x="1271.5" y="-1273.3" font-family="Dejavu Sans Mono" font-size="14.00">apinatomy:fasciculatesIn</text>
</g>
<!-- nkblad_K104&#45;&gt;nUBERON_0016508 -->
<g id="edge37" class="edge">
<title>nkblad_K104&#45;&gt;nUBERON_0016508</title>
<path fill="none" stroke="black" d="M1814.32,-1045.5C1935.4,-1045.5 2138.96,-1045.5 2252.87,-1045.5"/>
<polygon fill="black" stroke="black" points="2252.93,-1049 2262.93,-1045.5 2252.93,-1042 2252.93,-1049"/>
<text text-anchor="middle" x="2133.5" y="-1049.3" font-family="Dejavu Sans Mono" font-size="14.00">apinatomy:external</text>
</g>
<!-- nilxtr_neuron_type_keast_6 -->
<g id="node41" class="node">
<title>nilxtr_neuron_type_keast_6</title>
<path fill="none" stroke="black" d="M12,-769.5C12,-769.5 227,-769.5 227,-769.5 233,-769.5 239,-775.5 239,-781.5 239,-781.5 239,-795.5 239,-795.5 239,-801.5 233,-807.5 227,-807.5 227,-807.5 12,-807.5 12,-807.5 6,-807.5 0,-801.5 0,-795.5 0,-795.5 0,-781.5 0,-781.5 0,-775.5 6,-769.5 12,-769.5"/>
<text text-anchor="middle" x="119.5" y="-792.3" font-family="Dejavu Sans Mono" font-size="14.00">MISSING LABEL</text>
<text text-anchor="middle" x="119.5" y="-777.3" font-family="Dejavu Sans Mono" font-size="14.00">(ilxtr:neuron&#45;type&#45;keast&#45;6)</text>
</g>
<!-- nilxtr_neuron_type_keast_6&#45;&gt;nkblad_neuron_6 -->
<g id="edge24" class="edge">
<title>nilxtr_neuron_type_keast_6&#45;&gt;nkblad_neuron_6</title>
<path fill="none" stroke="black" d="M239.15,-788.5C298.31,-788.5 368.43,-788.5 421.87,-788.5"/>
<polygon fill="black" stroke="black" points="421.99,-792 431.99,-788.5 421.99,-785 421.99,-792"/>
<text text-anchor="middle" x="335.5" y="-792.3" font-family="Dejavu Sans Mono" font-size="14.00">apinatomy:annotates</text>
</g>
<!-- nkblad_n_hypo&#45;&gt;nUBERON_0005303 -->
<g id="edge60" class="edge">
<title>nkblad_n_hypo&#45;&gt;nUBERON_0005303</title>
<path fill="none" stroke="black" d="M1826.58,-1558.5C1948.72,-1558.5 2142.65,-1558.5 2252.81,-1558.5"/>
<polygon fill="black" stroke="black" points="2252.87,-1562 2262.87,-1558.5 2252.87,-1555 2252.87,-1562"/>
<text text-anchor="middle" x="2133.5" y="-1562.3" font-family="Dejavu Sans Mono" font-size="14.00">apinatomy:external</text>
</g>
<!-- nkblad_K92 -->
<g id="node43" class="node">
<title>nkblad_K92</title>
<path fill="none" stroke="black" d="M1632,-399.5C1632,-399.5 1798,-399.5 1798,-399.5 1804,-399.5 1810,-405.5 1810,-411.5 1810,-411.5 1810,-425.5 1810,-425.5 1810,-431.5 1804,-437.5 1798,-437.5 1798,-437.5 1632,-437.5 1632,-437.5 1626,-437.5 1620,-431.5 1620,-425.5 1620,-425.5 1620,-411.5 1620,-411.5 1620,-405.5 1626,-399.5 1632,-399.5"/>
<text text-anchor="middle" x="1715" y="-422.3" font-family="Dejavu Sans Mono" font-size="14.00">L1 gray ramus (kblad)</text>
<text text-anchor="middle" x="1715" y="-407.3" font-family="Dejavu Sans Mono" font-size="14.00">(kblad:K92)</text>
</g>
<!-- nFMA_65910 -->
<g id="node49" class="node">
<title>nFMA_65910</title>
<path fill="none" stroke="black" d="M2287.5,-399.5C2287.5,-399.5 2387.5,-399.5 2387.5,-399.5 2393.5,-399.5 2399.5,-405.5 2399.5,-411.5 2399.5,-411.5 2399.5,-425.5 2399.5,-425.5 2399.5,-431.5 2393.5,-437.5 2387.5,-437.5 2387.5,-437.5 2287.5,-437.5 2287.5,-437.5 2281.5,-437.5 2275.5,-431.5 2275.5,-425.5 2275.5,-425.5 2275.5,-411.5 2275.5,-411.5 2275.5,-405.5 2281.5,-399.5 2287.5,-399.5"/>
<text text-anchor="middle" x="2337.5" y="-422.3" font-family="Dejavu Sans Mono" font-size="14.00">MISSING LABEL</text>
<text text-anchor="middle" x="2337.5" y="-407.3" font-family="Dejavu Sans Mono" font-size="14.00">(FMA:65910)</text>
</g>
<!-- nkblad_K92&#45;&gt;nFMA_65910 -->
<g id="edge57" class="edge">
<title>nkblad_K92&#45;&gt;nFMA_65910</title>
<path fill="none" stroke="black" d="M1810.24,-418.5C1935.17,-418.5 2152.87,-418.5 2265.09,-418.5"/>
<polygon fill="black" stroke="black" points="2265.29,-422 2275.29,-418.5 2265.29,-415 2265.29,-422"/>
<text text-anchor="middle" x="2133.5" y="-422.3" font-family="Dejavu Sans Mono" font-size="14.00">apinatomy:external</text>
</g>
<!-- nkblad_ac_snl16_lnk_6&#45;&gt;nkblad_K92 -->
<g id="edge26" class="edge">
<title>nkblad_ac_snl16_lnk_6&#45;&gt;nkblad_K92</title>
<path fill="none" stroke="black" d="M1075.68,-418.5C1214.7,-418.5 1467.79,-418.5 1609.94,-418.5"/>
<polygon fill="black" stroke="black" points="1609.98,-422 1619.98,-418.5 1609.98,-415 1609.98,-422"/>
<text text-anchor="middle" x="1271.5" y="-422.3" font-family="Dejavu Sans Mono" font-size="14.00">apinatomy:fasciculatesIn</text>
</g>
<!-- nkblad_ac_snl16_lnk_3&#45;&gt;nkblad_K63 -->
<g id="edge17" class="edge">
<title>nkblad_ac_snl16_lnk_3&#45;&gt;nkblad_K63</title>
<path fill="none" stroke="black" d="M1075.68,-361.5C1212.03,-361.5 1458.08,-361.5 1601.61,-361.5"/>
<polygon fill="black" stroke="black" points="1601.76,-365 1611.76,-361.5 1601.76,-358 1601.76,-365"/>
<text text-anchor="middle" x="1271.5" y="-365.3" font-family="Dejavu Sans Mono" font-size="14.00">apinatomy:fasciculatesIn</text>
</g>
<!-- nkblad_K80 -->
<g id="node55" class="node">
<title>nkblad_K80</title>
<path fill="none" stroke="black" d="M1591,-285.5C1591,-285.5 1839,-285.5 1839,-285.5 1845,-285.5 1851,-291.5 1851,-297.5 1851,-297.5 1851,-311.5 1851,-311.5 1851,-317.5 1845,-323.5 1839,-323.5 1839,-323.5 1591,-323.5 1591,-323.5 1585,-323.5 1579,-317.5 1579,-311.5 1579,-311.5 1579,-297.5 1579,-297.5 1579,-291.5 1585,-285.5 1591,-285.5"/>
<text text-anchor="middle" x="1715" y="-308.3" font-family="Dejavu Sans Mono" font-size="14.00">L1 sympathetic ganglion (kblad)</text>
<text text-anchor="middle" x="1715" y="-293.3" font-family="Dejavu Sans Mono" font-size="14.00">(kblad:K80)</text>
</g>
<!-- nkblad_ac_snl16_lnk_5&#45;&gt;nkblad_K80 -->
<g id="edge40" class="edge">
<title>nkblad_ac_snl16_lnk_5&#45;&gt;nkblad_K80</title>
<path fill="none" stroke="black" d="M1075.68,-304.5C1201.99,-304.5 1422.44,-304.5 1568.32,-304.5"/>
<polygon fill="black" stroke="black" points="1568.69,-308 1578.69,-304.5 1568.69,-301 1568.69,-308"/>
<text text-anchor="middle" x="1271.5" y="-308.3" font-family="Dejavu Sans Mono" font-size="14.00">apinatomy:fasciculatesIn</text>
</g>
<!-- nkblad_K81 -->
<g id="node58" class="node">
<title>nkblad_K81</title>
<path fill="none" stroke="black" d="M1591,-228.5C1591,-228.5 1839,-228.5 1839,-228.5 1845,-228.5 1851,-234.5 1851,-240.5 1851,-240.5 1851,-254.5 1851,-254.5 1851,-260.5 1845,-266.5 1839,-266.5 1839,-266.5 1591,-266.5 1591,-266.5 1585,-266.5 1579,-260.5 1579,-254.5 1579,-254.5 1579,-240.5 1579,-240.5 1579,-234.5 1585,-228.5 1591,-228.5"/>
<text text-anchor="middle" x="1715" y="-251.3" font-family="Dejavu Sans Mono" font-size="14.00">L2 sympathetic ganglion (kblad)</text>
<text text-anchor="middle" x="1715" y="-236.3" font-family="Dejavu Sans Mono" font-size="14.00">(kblad:K81)</text>
</g>
<!-- nkblad_ac_snl26_lnk_5&#45;&gt;nkblad_K81 -->
<g id="edge68" class="edge">
<title>nkblad_ac_snl26_lnk_5&#45;&gt;nkblad_K81</title>
<path fill="none" stroke="black" d="M1075.68,-247.5C1201.99,-247.5 1422.44,-247.5 1568.32,-247.5"/>
<polygon fill="black" stroke="black" points="1568.69,-251 1578.69,-247.5 1568.69,-244 1568.69,-251"/>
<text text-anchor="middle" x="1271.5" y="-251.3" font-family="Dejavu Sans Mono" font-size="14.00">apinatomy:fasciculatesIn</text>
</g>
<!-- nkblad_ac_l1l26a_lnk_2&#45;&gt;nkblad_K102 -->
<g id="edge42" class="edge">
<title>nkblad_ac_l1l26a_lnk_2&#45;&gt;nkblad_K102</title>
<path fill="none" stroke="black" d="M1079.52,-190.5C1200.43,-190.5 1403.6,-190.5 1547.42,-190.5"/>
<polygon fill="black" stroke="black" points="1547.67,-194 1557.67,-190.5 1547.67,-187 1547.67,-194"/>
<text text-anchor="middle" x="1271.5" y="-194.3" font-family="Dejavu Sans Mono" font-size="14.00">apinatomy:fasciculatesIn</text>
</g>
<!-- nkblad_K64 -->
<g id="node59" class="node">
<title>nkblad_K64</title>
<path fill="none" stroke="black" d="M1624,-114.5C1624,-114.5 1806,-114.5 1806,-114.5 1812,-114.5 1818,-120.5 1818,-126.5 1818,-126.5 1818,-140.5 1818,-140.5 1818,-146.5 1812,-152.5 1806,-152.5 1806,-152.5 1624,-152.5 1624,-152.5 1618,-152.5 1612,-146.5 1612,-140.5 1612,-140.5 1612,-126.5 1612,-126.5 1612,-120.5 1618,-114.5 1624,-114.5"/>
<text text-anchor="middle" x="1715" y="-137.3" font-family="Dejavu Sans Mono" font-size="14.00">L2 ventral root (kblad)</text>
<text text-anchor="middle" x="1715" y="-122.3" font-family="Dejavu Sans Mono" font-size="14.00">(kblad:K64)</text>
</g>
<!-- nkblad_ac_snl26_lnk_3&#45;&gt;nkblad_K64 -->
<g id="edge69" class="edge">
<title>nkblad_ac_snl26_lnk_3&#45;&gt;nkblad_K64</title>
<path fill="none" stroke="black" d="M1075.68,-133.5C1212.03,-133.5 1458.08,-133.5 1601.61,-133.5"/>
<polygon fill="black" stroke="black" points="1601.76,-137 1611.76,-133.5 1601.76,-130 1601.76,-137"/>
<text text-anchor="middle" x="1271.5" y="-137.3" font-family="Dejavu Sans Mono" font-size="14.00">apinatomy:fasciculatesIn</text>
</g>
<!-- nkblad_ref_mat_KM_27_K_129_K23_14&#45;&gt;nkblad_K23 -->
<g id="edge15" class="edge">
<title>nkblad_ref_mat_KM_27_K_129_K23_14&#45;&gt;nkblad_K23</title>
<path fill="none" stroke="black" d="M1958.57,-1475.38C2046.71,-1470.98 2142.51,-1466.19 2215.6,-1462.54"/>
<polygon fill="black" stroke="black" points="2215.95,-1466.03 2225.76,-1462.03 2215.6,-1459.04 2215.95,-1466.03"/>
<text text-anchor="middle" x="2133.5" y="-1473.3" font-family="Dejavu Sans Mono" font-size="14.00">apinatomy:layerIn</text>
</g>
<!-- nkblad_ref_mat_K_83_K_129_K22_7&#45;&gt;nkblad_K22 -->
<g id="edge21" class="edge">
<title>nkblad_ref_mat_K_83_K_129_K22_7&#45;&gt;nkblad_K22</title>
<path fill="none" stroke="black" d="M2041.29,-1201.85C2096.93,-1205.41 2154.14,-1209.34 2208,-1213.5 2210.54,-1213.7 2213.11,-1213.9 2215.7,-1214.11"/>
<polygon fill="black" stroke="black" points="2215.52,-1217.6 2225.77,-1214.93 2216.09,-1210.63 2215.52,-1217.6"/>
<text text-anchor="middle" x="2133.5" y="-1217.3" font-family="Dejavu Sans Mono" font-size="14.00">apinatomy:layerIn</text>
</g>
<!-- nkblad_ac_l1l26a_lnk_1&#45;&gt;nkblad_n_lumspl -->
<g id="edge47" class="edge">
<title>nkblad_ac_l1l26a_lnk_1&#45;&gt;nkblad_n_lumspl</title>
<path fill="none" stroke="black" d="M1079.52,-581.6C1206.5,-571.78 1424.22,-554.93 1568.63,-543.75"/>
<polygon fill="black" stroke="black" points="1569.2,-547.22 1578.9,-542.96 1568.66,-540.24 1569.2,-547.22"/>
<text text-anchor="middle" x="1271.5" y="-578.3" font-family="Dejavu Sans Mono" font-size="14.00">apinatomy:fasciculatesIn</text>
</g>
<!-- nkblad_K80&#45;&gt;nFMA_6540 -->
<g id="edge74" class="edge">
<title>nkblad_K80&#45;&gt;nFMA_6540</title>
<path fill="none" stroke="black" d="M1851.02,-304.5C1978.38,-304.5 2164.35,-304.5 2265.15,-304.5"/>
<polygon fill="black" stroke="black" points="2265.23,-308 2275.23,-304.5 2265.23,-301 2265.23,-308"/>
<text text-anchor="middle" x="2133.5" y="-308.3" font-family="Dejavu Sans Mono" font-size="14.00">apinatomy:external</text>
</g>
<!-- nPMID_3225349&#45;&gt;nelements_External -->
<g id="edge8" class="edge">
<title>nPMID_3225349&#45;&gt;nelements_External</title>
<path fill="none" stroke="black" d="M1042.5,-654.94C1120.72,-665.44 1255.92,-684.67 1371,-706.5 1458.92,-723.18 1558.58,-746.32 1627.73,-763.06"/>
<polygon fill="black" stroke="black" points="1627.16,-766.53 1637.7,-765.48 1628.81,-759.72 1627.16,-766.53"/>
<text text-anchor="middle" x="1271.5" y="-710.3" font-family="Dejavu Sans Mono" font-size="14.00">type</text>
</g>
<!-- nUBERON_0018683 -->
<g id="node63" class="node">
<title>nUBERON_0018683</title>
<path fill="none" stroke="black" d="M2275,-513.5C2275,-513.5 2400,-513.5 2400,-513.5 2406,-513.5 2412,-519.5 2412,-525.5 2412,-525.5 2412,-539.5 2412,-539.5 2412,-545.5 2406,-551.5 2400,-551.5 2400,-551.5 2275,-551.5 2275,-551.5 2269,-551.5 2263,-545.5 2263,-539.5 2263,-539.5 2263,-525.5 2263,-525.5 2263,-519.5 2269,-513.5 2275,-513.5"/>
<text text-anchor="middle" x="2337.5" y="-536.3" font-family="Dejavu Sans Mono" font-size="14.00">MISSING LABEL</text>
<text text-anchor="middle" x="2337.5" y="-521.3" font-family="Dejavu Sans Mono" font-size="14.00">(UBERON:0018683)</text>
</g>
<!-- nkblad_n_lumspl&#45;&gt;nUBERON_0018683 -->
<g id="edge41" class="edge">
<title>nkblad_n_lumspl&#45;&gt;nUBERON_0018683</title>
<path fill="none" stroke="black" d="M1851.02,-532.5C1973.33,-532.5 2149.71,-532.5 2252.77,-532.5"/>
<polygon fill="black" stroke="black" points="2252.82,-536 2262.82,-532.5 2252.82,-529 2252.82,-536"/>
<text text-anchor="middle" x="2133.5" y="-536.3" font-family="Dejavu Sans Mono" font-size="14.00">apinatomy:external</text>
</g>
<!-- nkblad_K81&#45;&gt;nFMA_6541 -->
<g id="edge62" class="edge">
<title>nkblad_K81&#45;&gt;nFMA_6541</title>
<path fill="none" stroke="black" d="M1851.02,-247.5C1978.38,-247.5 2164.35,-247.5 2265.15,-247.5"/>
<polygon fill="black" stroke="black" points="2265.23,-251 2275.23,-247.5 2265.23,-244 2265.23,-251"/>
<text text-anchor="middle" x="2133.5" y="-251.3" font-family="Dejavu Sans Mono" font-size="14.00">apinatomy:external</text>
</g>
<!-- nkblad_K64&#45;&gt;nEMAPA_25271 -->
<g id="edge14" class="edge">
<title>nkblad_K64&#45;&gt;nEMAPA_25271</title>
<path fill="none" stroke="black" d="M1818.12,-133.5C1944.09,-133.5 2155.04,-133.5 2264.97,-133.5"/>
<polygon fill="black" stroke="black" points="2265.28,-137 2275.28,-133.5 2265.28,-130 2265.28,-137"/>
<text text-anchor="middle" x="2133.5" y="-137.3" font-family="Dejavu Sans Mono" font-size="14.00">apinatomy:external</text>
</g>
<!-- nkblad_ac_snl26_lnk_4&#45;&gt;nkblad_K89 -->
<g id="edge63" class="edge">
<title>nkblad_ac_snl26_lnk_4&#45;&gt;nkblad_K89</title>
<path fill="none" stroke="black" d="M1075.68,-76.5C1213.37,-76.5 1462.93,-76.5 1605.81,-76.5"/>
<polygon fill="black" stroke="black" points="1605.91,-80 1615.91,-76.5 1605.91,-73 1605.91,-80"/>
<text text-anchor="middle" x="1271.5" y="-80.3" font-family="Dejavu Sans Mono" font-size="14.00">apinatomy:fasciculatesIn</text>
</g>
<!-- nPMID_2891149&#45;&gt;nelements_External -->
<g id="edge58" class="edge">
<title>nPMID_2891149&#45;&gt;nelements_External</title>
<path fill="none" stroke="black" d="M1042.54,-710.65C1172.69,-724.97 1465.73,-757.2 1618.02,-773.94"/>
<polygon fill="black" stroke="black" points="1617.97,-777.46 1628.29,-775.07 1618.73,-770.5 1617.97,-777.46"/>
<text text-anchor="middle" x="1271.5" y="-750.3" font-family="Dejavu Sans Mono" font-size="14.00">type</text>
</g>
<!-- nkblad_ac_snl16_lnk_4&#45;&gt;nkblad_K88 -->
<g id="edge33" class="edge">
<title>nkblad_ac_snl16_lnk_4&#45;&gt;nkblad_K88</title>
<path fill="none" stroke="black" d="M1075.68,-19.5C1213.37,-19.5 1462.93,-19.5 1605.81,-19.5"/>
<polygon fill="black" stroke="black" points="1605.91,-23 1615.91,-19.5 1605.91,-16 1605.91,-23"/>
<text text-anchor="middle" x="1271.5" y="-23.3" font-family="Dejavu Sans Mono" font-size="14.00">apinatomy:fasciculatesIn</text>
</g>
</g>
</svg>
