<?xml version="1.0" encoding="UTF-8" standalone="no"?>
<!DOCTYPE svg PUBLIC "-//W3C//DTD SVG 1.1//EN"
 "http://www.w3.org/Graphics/SVG/1.1/DTD/svg11.dtd">
<!-- Generated by graphviz version 2.50.0 (20211204.2007)
 -->
<!-- Pages: 1 -->
<svg width="3597pt" height="408pt"
 viewBox="0.00 0.00 3597.00 407.50" xmlns="http://www.w3.org/2000/svg" xmlns:xlink="http://www.w3.org/1999/xlink">
<g id="graph0" class="graph" transform="scale(1 1) rotate(0) translate(4 403.5)">
<polygon fill="white" stroke="transparent" points="-4,4 -4,-403.5 3593,-403.5 3593,4 -4,4"/>
<!-- nilxtr_neuron_type_aacar_12 -->
<g id="node1" class="node">
<title>nilxtr_neuron_type_aacar_12</title>
<path fill="none" stroke="black" d="M12,-109.5C12,-109.5 236,-109.5 236,-109.5 242,-109.5 248,-115.5 248,-121.5 248,-121.5 248,-135.5 248,-135.5 248,-141.5 242,-147.5 236,-147.5 236,-147.5 12,-147.5 12,-147.5 6,-147.5 0,-141.5 0,-135.5 0,-135.5 0,-121.5 0,-121.5 0,-115.5 6,-109.5 12,-109.5"/>
<text text-anchor="middle" x="124" y="-132.3" font-family="Dejavu Sans Mono" font-size="14.00">neuron type aacar 12</text>
<text text-anchor="middle" x="124" y="-117.3" font-family="Dejavu Sans Mono" font-size="14.00">(ilxtr:neuron&#45;type&#45;aacar&#45;12)</text>
</g>
<!-- naacar_neuron_12 -->
<g id="node21" class="node">
<title>naacar_neuron_12</title>
<path fill="none" stroke="black" d="M453,-109.5C453,-109.5 586,-109.5 586,-109.5 592,-109.5 598,-115.5 598,-121.5 598,-121.5 598,-135.5 598,-135.5 598,-141.5 592,-147.5 586,-147.5 586,-147.5 453,-147.5 453,-147.5 447,-147.5 441,-141.5 441,-135.5 441,-135.5 441,-121.5 441,-121.5 441,-115.5 447,-109.5 453,-109.5"/>
<text text-anchor="middle" x="519.5" y="-132.3" font-family="Dejavu Sans Mono" font-size="14.00">Neuron 12</text>
<text text-anchor="middle" x="519.5" y="-117.3" font-family="Dejavu Sans Mono" font-size="14.00">(aacar:neuron&#45;12)</text>
</g>
<!-- nilxtr_neuron_type_aacar_12&#45;&gt;naacar_neuron_12 -->
<g id="edge27" class="edge">
<title>nilxtr_neuron_type_aacar_12&#45;&gt;naacar_neuron_12</title>
<path fill="none" stroke="black" d="M248.16,-128.5C307.35,-128.5 376.94,-128.5 430.68,-128.5"/>
<polygon fill="black" stroke="black" points="430.87,-132 440.87,-128.5 430.87,-125 430.87,-132"/>
<text text-anchor="middle" x="344.5" y="-132.3" font-family="Dejavu Sans Mono" font-size="14.00">apinatomy:annotates</text>
</g>
<!-- naacar_A61 -->
<g id="node2" class="node">
<title>naacar_A61</title>
<path fill="none" stroke="black" d="M1966,-355.5C1966,-355.5 2239,-355.5 2239,-355.5 2245,-355.5 2251,-361.5 2251,-367.5 2251,-367.5 2251,-381.5 2251,-381.5 2251,-387.5 2245,-393.5 2239,-393.5 2239,-393.5 1966,-393.5 1966,-393.5 1960,-393.5 1954,-387.5 1954,-381.5 1954,-381.5 1954,-367.5 1954,-367.5 1954,-361.5 1960,-355.5 1966,-355.5"/>
<text text-anchor="middle" x="2102.5" y="-378.3" font-family="Dejavu Sans Mono" font-size="14.00">Inferior cervical ganglion (aacar)</text>
<text text-anchor="middle" x="2102.5" y="-363.3" font-family="Dejavu Sans Mono" font-size="14.00">(aacar:A61)</text>
</g>
<!-- nUBERON_0002440 -->
<g id="node13" class="node">
<title>nUBERON_0002440</title>
<path fill="none" stroke="black" d="M2493,-355.5C2493,-355.5 2700,-355.5 2700,-355.5 2706,-355.5 2712,-361.5 2712,-367.5 2712,-367.5 2712,-381.5 2712,-381.5 2712,-387.5 2706,-393.5 2700,-393.5 2700,-393.5 2493,-393.5 2493,-393.5 2487,-393.5 2481,-387.5 2481,-381.5 2481,-381.5 2481,-367.5 2481,-367.5 2481,-361.5 2487,-355.5 2493,-355.5"/>
<text text-anchor="middle" x="2596.5" y="-378.3" font-family="Dejavu Sans Mono" font-size="14.00">inferior cervical ganglion</text>
<text text-anchor="middle" x="2596.5" y="-363.3" font-family="Dejavu Sans Mono" font-size="14.00">(UBERON:0002440)</text>
</g>
<!-- naacar_A61&#45;&gt;nUBERON_0002440 -->
<g id="edge19" class="edge">
<title>naacar_A61&#45;&gt;nUBERON_0002440</title>
<path fill="none" stroke="black" d="M2251.12,-374.5C2321.12,-374.5 2403.84,-374.5 2470.67,-374.5"/>
<polygon fill="black" stroke="black" points="2470.83,-378 2480.83,-374.5 2470.83,-371 2470.83,-378"/>
<text text-anchor="middle" x="2364" y="-378.3" font-family="Dejavu Sans Mono" font-size="14.00">apinatomy:ontologyTerms</text>
</g>
<!-- naacar_dc_sn_icg_12_lnk_1 -->
<g id="node3" class="node">
<title>naacar_dc_sn_icg_12_lnk_1</title>
<path fill="none" stroke="black" d="M1566,-275.5C1566,-275.5 1773,-275.5 1773,-275.5 1779,-275.5 1785,-281.5 1785,-287.5 1785,-287.5 1785,-301.5 1785,-301.5 1785,-307.5 1779,-313.5 1773,-313.5 1773,-313.5 1566,-313.5 1566,-313.5 1560,-313.5 1554,-307.5 1554,-301.5 1554,-301.5 1554,-287.5 1554,-287.5 1554,-281.5 1560,-275.5 1566,-275.5"/>
<text text-anchor="middle" x="1669.5" y="-298.3" font-family="Dejavu Sans Mono" font-size="14.00">MISSING LABEL</text>
<text text-anchor="middle" x="1669.5" y="-283.3" font-family="Dejavu Sans Mono" font-size="14.00">(aacar:dc&#45;sn&#45;icg_12_lnk_1)</text>
</g>
<!-- naacar_dc_sn_icg_12_lnk_1&#45;&gt;naacar_A61 -->
<g id="edge12" class="edge">
<title>naacar_dc_sn_icg_12_lnk_1&#45;&gt;naacar_A61</title>
<path fill="none" stroke="black" d="M1785.03,-312.87C1831.91,-320.66 1886.63,-330.1 1936,-339.5 1958.37,-343.76 1982.36,-348.65 2004.95,-353.4"/>
<polygon fill="black" stroke="black" points="2004.37,-356.85 2014.88,-355.49 2005.82,-350 2004.37,-356.85"/>
<text text-anchor="middle" x="1869.5" y="-343.3" font-family="Dejavu Sans Mono" font-size="14.00">apinatomy:endsIn</text>
</g>
<!-- naacar_dc_sn_aorta_12_lnk_1 -->
<g id="node18" class="node">
<title>naacar_dc_sn_aorta_12_lnk_1</title>
<path fill="none" stroke="black" d="M1990.5,-174.5C1990.5,-174.5 2214.5,-174.5 2214.5,-174.5 2220.5,-174.5 2226.5,-180.5 2226.5,-186.5 2226.5,-186.5 2226.5,-200.5 2226.5,-200.5 2226.5,-206.5 2220.5,-212.5 2214.5,-212.5 2214.5,-212.5 1990.5,-212.5 1990.5,-212.5 1984.5,-212.5 1978.5,-206.5 1978.5,-200.5 1978.5,-200.5 1978.5,-186.5 1978.5,-186.5 1978.5,-180.5 1984.5,-174.5 1990.5,-174.5"/>
<text text-anchor="middle" x="2102.5" y="-197.3" font-family="Dejavu Sans Mono" font-size="14.00">MISSING LABEL</text>
<text text-anchor="middle" x="2102.5" y="-182.3" font-family="Dejavu Sans Mono" font-size="14.00">(aacar:dc&#45;sn&#45;aorta_12_lnk_1)</text>
</g>
<!-- naacar_dc_sn_icg_12_lnk_1&#45;&gt;naacar_dc_sn_aorta_12_lnk_1 -->
<g id="edge6" class="edge">
<title>naacar_dc_sn_icg_12_lnk_1&#45;&gt;naacar_dc_sn_aorta_12_lnk_1</title>
<path fill="none" stroke="black" d="M1760.66,-275.44C1774.83,-272.44 1789.31,-269.39 1803,-266.5 1862.11,-254.03 1877.27,-252.65 1936,-238.5 1965.26,-231.45 1997.22,-222.95 2025.18,-215.25"/>
<polygon fill="black" stroke="black" points="2026.19,-218.6 2034.89,-212.56 2024.32,-211.85 2026.19,-218.6"/>
<text text-anchor="middle" x="1869.5" y="-270.3" font-family="Dejavu Sans Mono" font-size="14.00">apinatomy:next</text>
</g>
<!-- naacar_dc_sn_pulart_12_lnk_1 -->
<g id="node20" class="node">
<title>naacar_dc_sn_pulart_12_lnk_1</title>
<path fill="none" stroke="black" d="M1986.5,-260.5C1986.5,-260.5 2218.5,-260.5 2218.5,-260.5 2224.5,-260.5 2230.5,-266.5 2230.5,-272.5 2230.5,-272.5 2230.5,-286.5 2230.5,-286.5 2230.5,-292.5 2224.5,-298.5 2218.5,-298.5 2218.5,-298.5 1986.5,-298.5 1986.5,-298.5 1980.5,-298.5 1974.5,-292.5 1974.5,-286.5 1974.5,-286.5 1974.5,-272.5 1974.5,-272.5 1974.5,-266.5 1980.5,-260.5 1986.5,-260.5"/>
<text text-anchor="middle" x="2102.5" y="-283.3" font-family="Dejavu Sans Mono" font-size="14.00">MISSING LABEL</text>
<text text-anchor="middle" x="2102.5" y="-268.3" font-family="Dejavu Sans Mono" font-size="14.00">(aacar:dc&#45;sn&#45;pulart_12_lnk_1)</text>
</g>
<!-- naacar_dc_sn_icg_12_lnk_1&#45;&gt;naacar_dc_sn_pulart_12_lnk_1 -->
<g id="edge9" class="edge">
<title>naacar_dc_sn_icg_12_lnk_1&#45;&gt;naacar_dc_sn_pulart_12_lnk_1</title>
<path fill="none" stroke="black" d="M1785.15,-290.51C1840.08,-288.6 1906.3,-286.29 1963.93,-284.29"/>
<polygon fill="black" stroke="black" points="1964.34,-287.78 1974.21,-283.93 1964.1,-280.78 1964.34,-287.78"/>
<text text-anchor="middle" x="1869.5" y="-293.3" font-family="Dejavu Sans Mono" font-size="14.00">apinatomy:next</text>
</g>
<!-- nUBERON_0001990 -->
<g id="node4" class="node">
<title>nUBERON_0001990</title>
<path fill="none" stroke="black" d="M2501,-89.5C2501,-89.5 2692,-89.5 2692,-89.5 2698,-89.5 2704,-95.5 2704,-101.5 2704,-101.5 2704,-115.5 2704,-115.5 2704,-121.5 2698,-127.5 2692,-127.5 2692,-127.5 2501,-127.5 2501,-127.5 2495,-127.5 2489,-121.5 2489,-115.5 2489,-115.5 2489,-101.5 2489,-101.5 2489,-95.5 2495,-89.5 2501,-89.5"/>
<text text-anchor="middle" x="2596.5" y="-112.3" font-family="Dejavu Sans Mono" font-size="14.00">middle cervical ganglion</text>
<text text-anchor="middle" x="2596.5" y="-97.3" font-family="Dejavu Sans Mono" font-size="14.00">(UBERON:0001990)</text>
</g>
<!-- naacar_sn_icg_12 -->
<g id="node5" class="node">
<title>naacar_sn_icg_12</title>
<path fill="none" stroke="black" d="M812,-304.5C812,-304.5 1382,-304.5 1382,-304.5 1388,-304.5 1394,-310.5 1394,-316.5 1394,-316.5 1394,-330.5 1394,-330.5 1394,-336.5 1388,-342.5 1382,-342.5 1382,-342.5 812,-342.5 812,-342.5 806,-342.5 800,-336.5 800,-330.5 800,-330.5 800,-316.5 800,-316.5 800,-310.5 806,-304.5 812,-304.5"/>
<text text-anchor="middle" x="1097" y="-327.3" font-family="Dejavu Sans Mono" font-size="14.00">Soma of sensory neuron in inferior cervical ganglion_Neuron 12 (aacar)</text>
<text text-anchor="middle" x="1097" y="-312.3" font-family="Dejavu Sans Mono" font-size="14.00">(aacar:sn&#45;icg_12)</text>
</g>
<!-- naacar_sn_icg_12&#45;&gt;naacar_A61 -->
<g id="edge2" class="edge">
<title>naacar_sn_icg_12&#45;&gt;naacar_A61</title>
<path fill="none" stroke="black" d="M1245.33,-342.5C1297.92,-349.22 1357.6,-356.78 1412,-363.5 1475.08,-371.29 1490.57,-376.33 1554,-380.5 1664.44,-387.75 1692.33,-382.83 1803,-383.5 1862.11,-383.86 1876.91,-385.11 1936,-383.5 1938.58,-383.43 1941.18,-383.35 1943.8,-383.27"/>
<polygon fill="black" stroke="black" points="1944.11,-386.76 1953.98,-382.93 1943.87,-379.77 1944.11,-386.76"/>
<text text-anchor="middle" x="1669.5" y="-388.3" font-family="Dejavu Sans Mono" font-size="14.00">apinatomy:internalIn</text>
</g>
<!-- naacar_sn_icg_12&#45;&gt;naacar_dc_sn_icg_12_lnk_1 -->
<g id="edge15" class="edge">
<title>naacar_sn_icg_12&#45;&gt;naacar_dc_sn_icg_12_lnk_1</title>
<path fill="none" stroke="black" d="M1394.11,-308.45C1446.84,-305.77 1499.08,-303.11 1543.6,-300.85"/>
<polygon fill="black" stroke="black" points="1544.05,-304.33 1553.86,-300.33 1543.7,-297.34 1544.05,-304.33"/>
<text text-anchor="middle" x="1474" y="-310.3" font-family="Dejavu Sans Mono" font-size="14.00">apinatomy:next*</text>
</g>
<!-- naacar_ac_sn_icg_12_lnk_1 -->
<g id="node11" class="node">
<title>naacar_ac_sn_icg_12_lnk_1</title>
<path fill="none" stroke="black" d="M1566,-332.5C1566,-332.5 1773,-332.5 1773,-332.5 1779,-332.5 1785,-338.5 1785,-344.5 1785,-344.5 1785,-358.5 1785,-358.5 1785,-364.5 1779,-370.5 1773,-370.5 1773,-370.5 1566,-370.5 1566,-370.5 1560,-370.5 1554,-364.5 1554,-358.5 1554,-358.5 1554,-344.5 1554,-344.5 1554,-338.5 1560,-332.5 1566,-332.5"/>
<text text-anchor="middle" x="1669.5" y="-355.3" font-family="Dejavu Sans Mono" font-size="14.00">MISSING LABEL</text>
<text text-anchor="middle" x="1669.5" y="-340.3" font-family="Dejavu Sans Mono" font-size="14.00">(aacar:ac&#45;sn&#45;icg_12_lnk_1)</text>
</g>
<!-- naacar_sn_icg_12&#45;&gt;naacar_ac_sn_icg_12_lnk_1 -->
<g id="edge24" class="edge">
<title>naacar_sn_icg_12&#45;&gt;naacar_ac_sn_icg_12_lnk_1</title>
<path fill="none" stroke="black" d="M1394.11,-338.03C1446.84,-340.62 1499.08,-343.19 1543.6,-345.37"/>
<polygon fill="black" stroke="black" points="1543.7,-348.88 1553.86,-345.87 1544.04,-341.89 1543.7,-348.88"/>
<text text-anchor="middle" x="1474" y="-348.3" font-family="Dejavu Sans Mono" font-size="14.00">apinatomy:next*</text>
</g>
<!-- nelements_Reference -->
<g id="node6" class="node">
<title>nelements_Reference</title>
<path fill="none" stroke="black" d="M1590.5,-0.5C1590.5,-0.5 1748.5,-0.5 1748.5,-0.5 1754.5,-0.5 1760.5,-6.5 1760.5,-12.5 1760.5,-12.5 1760.5,-26.5 1760.5,-26.5 1760.5,-32.5 1754.5,-38.5 1748.5,-38.5 1748.5,-38.5 1590.5,-38.5 1590.5,-38.5 1584.5,-38.5 1578.5,-32.5 1578.5,-26.5 1578.5,-26.5 1578.5,-12.5 1578.5,-12.5 1578.5,-6.5 1584.5,-0.5 1590.5,-0.5"/>
<text text-anchor="middle" x="1669.5" y="-23.3" font-family="Dejavu Sans Mono" font-size="14.00">MISSING LABEL</text>
<text text-anchor="middle" x="1669.5" y="-8.3" font-family="Dejavu Sans Mono" font-size="14.00">(elements:Reference)</text>
</g>
<!-- naacar_ac_sn_mcg_12_lnk_1 -->
<g id="node7" class="node">
<title>naacar_ac_sn_mcg_12_lnk_1</title>
<path fill="none" stroke="black" d="M1566,-109.5C1566,-109.5 1773,-109.5 1773,-109.5 1779,-109.5 1785,-115.5 1785,-121.5 1785,-121.5 1785,-135.5 1785,-135.5 1785,-141.5 1779,-147.5 1773,-147.5 1773,-147.5 1566,-147.5 1566,-147.5 1560,-147.5 1554,-141.5 1554,-135.5 1554,-135.5 1554,-121.5 1554,-121.5 1554,-115.5 1560,-109.5 1566,-109.5"/>
<text text-anchor="middle" x="1669.5" y="-132.3" font-family="Dejavu Sans Mono" font-size="14.00">MISSING LABEL</text>
<text text-anchor="middle" x="1669.5" y="-117.3" font-family="Dejavu Sans Mono" font-size="14.00">(aacar:ac&#45;sn&#45;mcg_12_lnk_1)</text>
</g>
<!-- naacar_A62 -->
<g id="node19" class="node">
<title>naacar_A62</title>
<path fill="none" stroke="black" d="M1974,-89.5C1974,-89.5 2231,-89.5 2231,-89.5 2237,-89.5 2243,-95.5 2243,-101.5 2243,-101.5 2243,-115.5 2243,-115.5 2243,-121.5 2237,-127.5 2231,-127.5 2231,-127.5 1974,-127.5 1974,-127.5 1968,-127.5 1962,-121.5 1962,-115.5 1962,-115.5 1962,-101.5 1962,-101.5 1962,-95.5 1968,-89.5 1974,-89.5"/>
<text text-anchor="middle" x="2102.5" y="-112.3" font-family="Dejavu Sans Mono" font-size="14.00">Middle cervical ganglion (aacar)</text>
<text text-anchor="middle" x="2102.5" y="-97.3" font-family="Dejavu Sans Mono" font-size="14.00">(aacar:A62)</text>
</g>
<!-- naacar_ac_sn_mcg_12_lnk_1&#45;&gt;naacar_A62 -->
<g id="edge21" class="edge">
<title>naacar_ac_sn_mcg_12_lnk_1&#45;&gt;naacar_A62</title>
<path fill="none" stroke="black" d="M1785.3,-111.04C1791.28,-110.44 1797.21,-109.92 1803,-109.5 1851.25,-105.98 1904.01,-104.89 1951.57,-104.93"/>
<polygon fill="black" stroke="black" points="1951.63,-108.43 1961.64,-104.96 1951.65,-101.43 1951.63,-108.43"/>
<text text-anchor="middle" x="1869.5" y="-113.3" font-family="Dejavu Sans Mono" font-size="14.00">apinatomy:endsIn</text>
</g>
<!-- naacar_dc_sn_mcg_12_lnk_1 -->
<g id="node8" class="node">
<title>naacar_dc_sn_mcg_12_lnk_1</title>
<path fill="none" stroke="black" d="M1566,-166.5C1566,-166.5 1773,-166.5 1773,-166.5 1779,-166.5 1785,-172.5 1785,-178.5 1785,-178.5 1785,-192.5 1785,-192.5 1785,-198.5 1779,-204.5 1773,-204.5 1773,-204.5 1566,-204.5 1566,-204.5 1560,-204.5 1554,-198.5 1554,-192.5 1554,-192.5 1554,-178.5 1554,-178.5 1554,-172.5 1560,-166.5 1566,-166.5"/>
<text text-anchor="middle" x="1669.5" y="-189.3" font-family="Dejavu Sans Mono" font-size="14.00">MISSING LABEL</text>
<text text-anchor="middle" x="1669.5" y="-174.3" font-family="Dejavu Sans Mono" font-size="14.00">(aacar:dc&#45;sn&#45;mcg_12_lnk_1)</text>
</g>
<!-- naacar_dc_sn_mcg_12_lnk_1&#45;&gt;naacar_dc_sn_aorta_12_lnk_1 -->
<g id="edge25" class="edge">
<title>naacar_dc_sn_mcg_12_lnk_1&#45;&gt;naacar_dc_sn_aorta_12_lnk_1</title>
<path fill="none" stroke="black" d="M1785.19,-184.29C1831.97,-184.11 1886.58,-184.31 1936,-185.5 1946.46,-185.75 1957.29,-186.09 1968.16,-186.5"/>
<polygon fill="black" stroke="black" points="1968.04,-189.99 1978.16,-186.88 1968.3,-183 1968.04,-189.99"/>
<text text-anchor="middle" x="1869.5" y="-189.3" font-family="Dejavu Sans Mono" font-size="14.00">apinatomy:next</text>
</g>
<!-- naacar_dc_sn_mcg_12_lnk_1&#45;&gt;naacar_A62 -->
<g id="edge26" class="edge">
<title>naacar_dc_sn_mcg_12_lnk_1&#45;&gt;naacar_A62</title>
<path fill="none" stroke="black" d="M1777.04,-166.47C1840.23,-155.18 1920.38,-140.86 1985.21,-129.28"/>
<polygon fill="black" stroke="black" points="1985.84,-132.72 1995.07,-127.51 1984.61,-125.83 1985.84,-132.72"/>
<text text-anchor="middle" x="1869.5" y="-165.3" font-family="Dejavu Sans Mono" font-size="14.00">apinatomy:endsIn</text>
</g>
<!-- naacar_dc_sn_mcg_12_lnk_1&#45;&gt;naacar_dc_sn_pulart_12_lnk_1 -->
<g id="edge3" class="edge">
<title>naacar_dc_sn_mcg_12_lnk_1&#45;&gt;naacar_dc_sn_pulart_12_lnk_1</title>
<path fill="none" stroke="black" d="M1785.33,-199.82C1843.47,-207.49 1907.64,-216.73 1936,-223.5 1972.36,-232.18 2012.08,-245.48 2043.48,-256.94"/>
<polygon fill="black" stroke="black" points="2042.35,-260.26 2052.95,-260.43 2044.78,-253.69 2042.35,-260.26"/>
<text text-anchor="middle" x="1869.5" y="-227.3" font-family="Dejavu Sans Mono" font-size="14.00">apinatomy:next</text>
</g>
<!-- nUBERON_0002012 -->
<g id="node9" class="node">
<title>nUBERON_0002012</title>
<path fill="none" stroke="black" d="M3452,-274.5C3452,-274.5 3577,-274.5 3577,-274.5 3583,-274.5 3589,-280.5 3589,-286.5 3589,-286.5 3589,-300.5 3589,-300.5 3589,-306.5 3583,-312.5 3577,-312.5 3577,-312.5 3452,-312.5 3452,-312.5 3446,-312.5 3440,-306.5 3440,-300.5 3440,-300.5 3440,-286.5 3440,-286.5 3440,-280.5 3446,-274.5 3452,-274.5"/>
<text text-anchor="middle" x="3514.5" y="-297.3" font-family="Dejavu Sans Mono" font-size="14.00">pulmonary artery</text>
<text text-anchor="middle" x="3514.5" y="-282.3" font-family="Dejavu Sans Mono" font-size="14.00">(UBERON:0002012)</text>
</g>
<!-- nUBERON_0007240 -->
<g id="node10" class="node">
<title>nUBERON_0007240</title>
<path fill="none" stroke="black" d="M2987,-217.5C2987,-217.5 3202,-217.5 3202,-217.5 3208,-217.5 3214,-223.5 3214,-229.5 3214,-229.5 3214,-243.5 3214,-243.5 3214,-249.5 3208,-255.5 3202,-255.5 3202,-255.5 2987,-255.5 2987,-255.5 2981,-255.5 2975,-249.5 2975,-243.5 2975,-243.5 2975,-229.5 2975,-229.5 2975,-223.5 2981,-217.5 2987,-217.5"/>
<text text-anchor="middle" x="3094.5" y="-240.3" font-family="Dejavu Sans Mono" font-size="14.00">tunica adventitia of artery</text>
<text text-anchor="middle" x="3094.5" y="-225.3" font-family="Dejavu Sans Mono" font-size="14.00">(UBERON:0007240)</text>
</g>
<!-- naacar_ac_sn_icg_12_lnk_1&#45;&gt;naacar_A61 -->
<g id="edge16" class="edge">
<title>naacar_ac_sn_icg_12_lnk_1&#45;&gt;naacar_A61</title>
<path fill="none" stroke="black" d="M1785.15,-357.62C1833.76,-360.21 1891.22,-363.28 1943.73,-366.08"/>
<polygon fill="black" stroke="black" points="1943.65,-369.58 1953.82,-366.62 1944.02,-362.59 1943.65,-369.58"/>
<text text-anchor="middle" x="1869.5" y="-368.3" font-family="Dejavu Sans Mono" font-size="14.00">apinatomy:endsIn</text>
</g>
<!-- naacar_ref_mat_AM_54_A79_3 -->
<g id="node12" class="node">
<title>naacar_ref_mat_AM_54_A79_3</title>
<path fill="none" stroke="black" d="M2489,-174.5C2489,-174.5 2704,-174.5 2704,-174.5 2710,-174.5 2716,-180.5 2716,-186.5 2716,-186.5 2716,-200.5 2716,-200.5 2716,-206.5 2710,-212.5 2704,-212.5 2704,-212.5 2489,-212.5 2489,-212.5 2483,-212.5 2477,-206.5 2477,-200.5 2477,-200.5 2477,-186.5 2477,-186.5 2477,-180.5 2483,-174.5 2489,-174.5"/>
<text text-anchor="middle" x="2596.5" y="-197.3" font-family="Dejavu Sans Mono" font-size="14.00">Arterial Adventitia</text>
<text text-anchor="middle" x="2596.5" y="-182.3" font-family="Dejavu Sans Mono" font-size="14.00">(aacar:ref_mat_AM_54_A79_3)</text>
</g>
<!-- naacar_ref_mat_AM_54_A79_3&#45;&gt;nUBERON_0007240 -->
<g id="edge7" class="edge">
<title>naacar_ref_mat_AM_54_A79_3&#45;&gt;nUBERON_0007240</title>
<path fill="none" stroke="black" d="M2716.26,-199.91C2786.39,-204.16 2876.85,-210.44 2957,-218.5 2959.55,-218.76 2962.12,-219.02 2964.72,-219.3"/>
<polygon fill="black" stroke="black" points="2964.48,-222.79 2974.81,-220.4 2965.25,-215.84 2964.48,-222.79"/>
<text text-anchor="middle" x="2845.5" y="-222.3" font-family="Dejavu Sans Mono" font-size="14.00">apinatomy:inheritedExternal</text>
</g>
<!-- naacar_A79 -->
<g id="node22" class="node">
<title>naacar_A79</title>
<path fill="none" stroke="black" d="M3044.5,-160.5C3044.5,-160.5 3144.5,-160.5 3144.5,-160.5 3150.5,-160.5 3156.5,-166.5 3156.5,-172.5 3156.5,-172.5 3156.5,-186.5 3156.5,-186.5 3156.5,-192.5 3150.5,-198.5 3144.5,-198.5 3144.5,-198.5 3044.5,-198.5 3044.5,-198.5 3038.5,-198.5 3032.5,-192.5 3032.5,-186.5 3032.5,-186.5 3032.5,-172.5 3032.5,-172.5 3032.5,-166.5 3038.5,-160.5 3044.5,-160.5"/>
<text text-anchor="middle" x="3094.5" y="-183.3" font-family="Dejavu Sans Mono" font-size="14.00">Aorta (aacar)</text>
<text text-anchor="middle" x="3094.5" y="-168.3" font-family="Dejavu Sans Mono" font-size="14.00">(aacar:A79)</text>
</g>
<!-- naacar_ref_mat_AM_54_A79_3&#45;&gt;naacar_A79 -->
<g id="edge5" class="edge">
<title>naacar_ref_mat_AM_54_A79_3&#45;&gt;naacar_A79</title>
<path fill="none" stroke="black" d="M2716.2,-181.53C2722.21,-181.13 2728.17,-180.78 2734,-180.5 2833.82,-175.62 2949.42,-176.45 3022,-177.76"/>
<polygon fill="black" stroke="black" points="3022.33,-181.27 3032.39,-177.96 3022.46,-174.27 3022.33,-181.27"/>
<text text-anchor="middle" x="2845.5" y="-184.3" font-family="Dejavu Sans Mono" font-size="14.00">apinatomy:layerIn</text>
</g>
<!-- naacar_ref_mat_AM_54_A95_3 -->
<g id="node14" class="node">
<title>naacar_ref_mat_AM_54_A95_3</title>
<path fill="none" stroke="black" d="M2489,-260.5C2489,-260.5 2704,-260.5 2704,-260.5 2710,-260.5 2716,-266.5 2716,-272.5 2716,-272.5 2716,-286.5 2716,-286.5 2716,-292.5 2710,-298.5 2704,-298.5 2704,-298.5 2489,-298.5 2489,-298.5 2483,-298.5 2477,-292.5 2477,-286.5 2477,-286.5 2477,-272.5 2477,-272.5 2477,-266.5 2483,-260.5 2489,-260.5"/>
<text text-anchor="middle" x="2596.5" y="-283.3" font-family="Dejavu Sans Mono" font-size="14.00">Arterial Adventitia</text>
<text text-anchor="middle" x="2596.5" y="-268.3" font-family="Dejavu Sans Mono" font-size="14.00">(aacar:ref_mat_AM_54_A95_3)</text>
</g>
<!-- naacar_ref_mat_AM_54_A95_3&#45;&gt;nUBERON_0007240 -->
<g id="edge14" class="edge">
<title>naacar_ref_mat_AM_54_A95_3&#45;&gt;nUBERON_0007240</title>
<path fill="none" stroke="black" d="M2716.22,-266.22C2722.23,-265.62 2728.18,-265.05 2734,-264.5 2810.49,-257.32 2896.25,-250.59 2964.82,-245.53"/>
<polygon fill="black" stroke="black" points="2965.1,-249.02 2974.81,-244.79 2964.58,-242.04 2965.1,-249.02"/>
<text text-anchor="middle" x="2845.5" y="-268.3" font-family="Dejavu Sans Mono" font-size="14.00">apinatomy:inheritedExternal</text>
</g>
<!-- naacar_A95 -->
<g id="node23" class="node">
<title>naacar_A95</title>
<path fill="none" stroke="black" d="M2999,-274.5C2999,-274.5 3190,-274.5 3190,-274.5 3196,-274.5 3202,-280.5 3202,-286.5 3202,-286.5 3202,-300.5 3202,-300.5 3202,-306.5 3196,-312.5 3190,-312.5 3190,-312.5 2999,-312.5 2999,-312.5 2993,-312.5 2987,-306.5 2987,-300.5 2987,-300.5 2987,-286.5 2987,-286.5 2987,-280.5 2993,-274.5 2999,-274.5"/>
<text text-anchor="middle" x="3094.5" y="-297.3" font-family="Dejavu Sans Mono" font-size="14.00">Pulmonary artery (aacar)</text>
<text text-anchor="middle" x="3094.5" y="-282.3" font-family="Dejavu Sans Mono" font-size="14.00">(aacar:A95)</text>
</g>
<!-- naacar_ref_mat_AM_54_A95_3&#45;&gt;naacar_A95 -->
<g id="edge28" class="edge">
<title>naacar_ref_mat_AM_54_A95_3&#45;&gt;naacar_A95</title>
<path fill="none" stroke="black" d="M2716.3,-282.85C2795.02,-285.08 2897.84,-287.98 2976.24,-290.19"/>
<polygon fill="black" stroke="black" points="2976.55,-293.7 2986.65,-290.48 2976.75,-286.7 2976.55,-293.7"/>
<text text-anchor="middle" x="2845.5" y="-292.3" font-family="Dejavu Sans Mono" font-size="14.00">apinatomy:layerIn</text>
</g>
<!-- nUBERON_0000947 -->
<g id="node15" class="node">
<title>nUBERON_0000947</title>
<path fill="none" stroke="black" d="M3452,-160.5C3452,-160.5 3577,-160.5 3577,-160.5 3583,-160.5 3589,-166.5 3589,-172.5 3589,-172.5 3589,-186.5 3589,-186.5 3589,-192.5 3583,-198.5 3577,-198.5 3577,-198.5 3452,-198.5 3452,-198.5 3446,-198.5 3440,-192.5 3440,-186.5 3440,-186.5 3440,-172.5 3440,-172.5 3440,-166.5 3446,-160.5 3452,-160.5"/>
<text text-anchor="middle" x="3514.5" y="-183.3" font-family="Dejavu Sans Mono" font-size="14.00">aorta</text>
<text text-anchor="middle" x="3514.5" y="-168.3" font-family="Dejavu Sans Mono" font-size="14.00">(UBERON:0000947)</text>
</g>
<!-- ndoi_10_1002_cphy_c150046 -->
<g id="node16" class="node">
<title>ndoi_10_1002_cphy_c150046</title>
<path fill="none" stroke="black" d="M993.5,-26.5C993.5,-26.5 1200.5,-26.5 1200.5,-26.5 1206.5,-26.5 1212.5,-32.5 1212.5,-38.5 1212.5,-38.5 1212.5,-52.5 1212.5,-52.5 1212.5,-58.5 1206.5,-64.5 1200.5,-64.5 1200.5,-64.5 993.5,-64.5 993.5,-64.5 987.5,-64.5 981.5,-58.5 981.5,-52.5 981.5,-52.5 981.5,-38.5 981.5,-38.5 981.5,-32.5 987.5,-26.5 993.5,-26.5"/>
<text text-anchor="middle" x="1097" y="-49.3" font-family="Dejavu Sans Mono" font-size="14.00">MISSING LABEL</text>
<text text-anchor="middle" x="1097" y="-34.3" font-family="Dejavu Sans Mono" font-size="14.00">(doi:10.1002/cphy.c150046)</text>
</g>
<!-- ndoi_10_1002_cphy_c150046&#45;&gt;nelements_Reference -->
<g id="edge20" class="edge">
<title>ndoi_10_1002_cphy_c150046&#45;&gt;nelements_Reference</title>
<path fill="none" stroke="black" d="M1212.76,-40.27C1316.89,-35.52 1468.89,-28.6 1568.24,-24.07"/>
<polygon fill="black" stroke="black" points="1568.45,-27.56 1578.28,-23.61 1568.13,-20.57 1568.45,-27.56"/>
<text text-anchor="middle" x="1474" y="-35.3" font-family="Dejavu Sans Mono" font-size="14.00">type</text>
</g>
<!-- naacar_sn_mcg_12 -->
<g id="node17" class="node">
<title>naacar_sn_mcg_12</title>
<path fill="none" stroke="black" d="M820,-109.5C820,-109.5 1374,-109.5 1374,-109.5 1380,-109.5 1386,-115.5 1386,-121.5 1386,-121.5 1386,-135.5 1386,-135.5 1386,-141.5 1380,-147.5 1374,-147.5 1374,-147.5 820,-147.5 820,-147.5 814,-147.5 808,-141.5 808,-135.5 808,-135.5 808,-121.5 808,-121.5 808,-115.5 814,-109.5 820,-109.5"/>
<text text-anchor="middle" x="1097" y="-132.3" font-family="Dejavu Sans Mono" font-size="14.00">Soma of sensory neuron in middle cervical ganglion_Neuron 12 (aacar)</text>
<text text-anchor="middle" x="1097" y="-117.3" font-family="Dejavu Sans Mono" font-size="14.00">(aacar:sn&#45;mcg_12)</text>
</g>
<!-- naacar_sn_mcg_12&#45;&gt;naacar_ac_sn_mcg_12_lnk_1 -->
<g id="edge10" class="edge">
<title>naacar_sn_mcg_12&#45;&gt;naacar_ac_sn_mcg_12_lnk_1</title>
<path fill="none" stroke="black" d="M1386.17,-128.5C1441.59,-128.5 1496.85,-128.5 1543.61,-128.5"/>
<polygon fill="black" stroke="black" points="1543.76,-132 1553.76,-128.5 1543.76,-125 1543.76,-132"/>
<text text-anchor="middle" x="1474" y="-132.3" font-family="Dejavu Sans Mono" font-size="14.00">apinatomy:next*</text>
</g>
<!-- naacar_sn_mcg_12&#45;&gt;naacar_dc_sn_mcg_12_lnk_1 -->
<g id="edge29" class="edge">
<title>naacar_sn_mcg_12&#45;&gt;naacar_dc_sn_mcg_12_lnk_1</title>
<path fill="none" stroke="black" d="M1288.36,-147.52C1372.39,-155.91 1468.81,-165.55 1543.51,-173.01"/>
<polygon fill="black" stroke="black" points="1543.61,-176.54 1553.91,-174.05 1544.3,-169.57 1543.61,-176.54"/>
<text text-anchor="middle" x="1474" y="-176.3" font-family="Dejavu Sans Mono" font-size="14.00">apinatomy:next*</text>
</g>
<!-- naacar_sn_mcg_12&#45;&gt;naacar_A62 -->
<g id="edge17" class="edge">
<title>naacar_sn_mcg_12&#45;&gt;naacar_A62</title>
<path fill="none" stroke="black" d="M1256,-109.48C1343.65,-99.88 1454.7,-89.28 1554,-84.5 1656.55,-79.56 1682.41,-80.62 1785,-84.5 1839.45,-86.56 1899.05,-90.61 1951.71,-94.8"/>
<polygon fill="black" stroke="black" points="1951.55,-98.3 1961.8,-95.62 1952.11,-91.33 1951.55,-98.3"/>
<text text-anchor="middle" x="1669.5" y="-88.3" font-family="Dejavu Sans Mono" font-size="14.00">apinatomy:internalIn</text>
</g>
<!-- naacar_dc_sn_aorta_12_lnk_1&#45;&gt;naacar_ref_mat_AM_54_A79_3 -->
<g id="edge4" class="edge">
<title>naacar_dc_sn_aorta_12_lnk_1&#45;&gt;naacar_ref_mat_AM_54_A79_3</title>
<path fill="none" stroke="black" d="M2226.7,-193.5C2299.83,-193.5 2392.43,-193.5 2466.54,-193.5"/>
<polygon fill="black" stroke="black" points="2466.88,-197 2476.88,-193.5 2466.88,-190 2466.88,-197"/>
<text text-anchor="middle" x="2364" y="-197.3" font-family="Dejavu Sans Mono" font-size="14.00">apinatomy:endsIn</text>
</g>
<!-- naacar_A62&#45;&gt;nUBERON_0001990 -->
<g id="edge18" class="edge">
<title>naacar_A62&#45;&gt;nUBERON_0001990</title>
<path fill="none" stroke="black" d="M2243.17,-108.5C2317.5,-108.5 2407.87,-108.5 2478.47,-108.5"/>
<polygon fill="black" stroke="black" points="2478.74,-112 2488.74,-108.5 2478.74,-105 2478.74,-112"/>
<text text-anchor="middle" x="2364" y="-112.3" font-family="Dejavu Sans Mono" font-size="14.00">apinatomy:ontologyTerms</text>
</g>
<!-- naacar_dc_sn_pulart_12_lnk_1&#45;&gt;naacar_ref_mat_AM_54_A95_3 -->
<g id="edge13" class="edge">
<title>naacar_dc_sn_pulart_12_lnk_1&#45;&gt;naacar_ref_mat_AM_54_A95_3</title>
<path fill="none" stroke="black" d="M2230.52,-279.5C2303.13,-279.5 2393.95,-279.5 2466.83,-279.5"/>
<polygon fill="black" stroke="black" points="2466.99,-283 2476.99,-279.5 2466.99,-276 2466.99,-283"/>
<text text-anchor="middle" x="2364" y="-283.3" font-family="Dejavu Sans Mono" font-size="14.00">apinatomy:endsIn</text>
</g>
<!-- naacar_neuron_12&#45;&gt;naacar_sn_icg_12 -->
<g id="edge1" class="edge">
<title>naacar_neuron_12&#45;&gt;naacar_sn_icg_12</title>
<path fill="none" stroke="black" d="M576.73,-147.55C683.64,-183.78 915.7,-262.41 1029.87,-301.09"/>
<polygon fill="black" stroke="black" points="1028.95,-304.48 1039.54,-304.37 1031.19,-297.85 1028.95,-304.48"/>
<text text-anchor="middle" x="699" y="-217.3" font-family="Dejavu Sans Mono" font-size="14.00">apinatomy:lyphs</text>
</g>
<!-- naacar_neuron_12&#45;&gt;ndoi_10_1002_cphy_c150046 -->
<g id="edge23" class="edge">
<title>naacar_neuron_12&#45;&gt;ndoi_10_1002_cphy_c150046</title>
<path fill="none" stroke="black" d="M598.08,-112.63C604.14,-111.53 610.16,-110.47 616,-109.5 736.15,-89.56 874.04,-71.69 971.1,-59.94"/>
<polygon fill="black" stroke="black" points="971.74,-63.38 981.25,-58.71 970.9,-56.43 971.74,-63.38"/>
<text text-anchor="middle" x="699" y="-113.3" font-family="Dejavu Sans Mono" font-size="14.00">apinatomy:references</text>
</g>
<!-- naacar_neuron_12&#45;&gt;naacar_sn_mcg_12 -->
<g id="edge8" class="edge">
<title>naacar_neuron_12&#45;&gt;naacar_sn_mcg_12</title>
<path fill="none" stroke="black" d="M598.11,-128.5C650.57,-128.5 723.5,-128.5 797.39,-128.5"/>
<polygon fill="black" stroke="black" points="797.82,-132 807.82,-128.5 797.82,-125 797.82,-132"/>
<text text-anchor="middle" x="699" y="-132.3" font-family="Dejavu Sans Mono" font-size="14.00">apinatomy:lyphs</text>
</g>
<!-- naacar_A79&#45;&gt;nUBERON_0000947 -->
<g id="edge11" class="edge">
<title>naacar_A79&#45;&gt;nUBERON_0000947</title>
<path fill="none" stroke="black" d="M3156.73,-179.5C3228.82,-179.5 3348.93,-179.5 3429.64,-179.5"/>
<polygon fill="black" stroke="black" points="3429.77,-183 3439.77,-179.5 3429.77,-176 3429.77,-183"/>
<text text-anchor="middle" x="3327" y="-183.3" font-family="Dejavu Sans Mono" font-size="14.00">apinatomy:ontologyTerms</text>
</g>
<!-- naacar_A95&#45;&gt;nUBERON_0002012 -->
<g id="edge22" class="edge">
<title>naacar_A95&#45;&gt;nUBERON_0002012</title>
<path fill="none" stroke="black" d="M3202.06,-293.5C3272.66,-293.5 3363.98,-293.5 3429.45,-293.5"/>
<polygon fill="black" stroke="black" points="3429.73,-297 3439.73,-293.5 3429.73,-290 3429.73,-297"/>
<text text-anchor="middle" x="3327" y="-297.3" font-family="Dejavu Sans Mono" font-size="14.00">apinatomy:ontologyTerms</text>
</g>
</g>
</svg>
