<?xml version="1.0" encoding="UTF-8" standalone="no"?>
<!DOCTYPE svg PUBLIC "-//W3C//DTD SVG 1.1//EN"
 "http://www.w3.org/Graphics/SVG/1.1/DTD/svg11.dtd">
<!-- Generated by graphviz version 2.47.1 (20210417.1919)
 -->
<!-- Pages: 1 -->
<svg width="4232pt" height="1770pt"
 viewBox="0.00 0.00 4232.00 1770.23" xmlns="http://www.w3.org/2000/svg" xmlns:xlink="http://www.w3.org/1999/xlink">
<g id="graph0" class="graph" transform="scale(1 1) rotate(0) translate(4 1766.23)">
<polygon fill="white" stroke="transparent" points="-4,4 -4,-1766.23 4228,-1766.23 4228,4 -4,4"/>
<!-- nkblad_lnk_snl16 -->
<g id="node1" class="node">
<title>nkblad_lnk_snl16</title>
<path fill="none" stroke="black" d="M893,-1709.23C893,-1709.23 1026,-1709.23 1026,-1709.23 1032,-1709.23 1038,-1715.23 1038,-1721.23 1038,-1721.23 1038,-1735.23 1038,-1735.23 1038,-1741.23 1032,-1747.23 1026,-1747.23 1026,-1747.23 893,-1747.23 893,-1747.23 887,-1747.23 881,-1741.23 881,-1735.23 881,-1735.23 881,-1721.23 881,-1721.23 881,-1715.23 887,-1709.23 893,-1709.23"/>
<text text-anchor="middle" x="959.5" y="-1732.03" font-family="Dejavu Sans Mono" font-size="14.00">MISSING LABEL</text>
<text text-anchor="middle" x="959.5" y="-1717.03" font-family="Dejavu Sans Mono" font-size="14.00">(kblad:lnk&#45;snl16)</text>
</g>
<!-- nkblad_dc_snl16_lnk_1 -->
<g id="node2" class="node">
<title>nkblad_dc_snl16_lnk_1</title>
<path fill="none" stroke="black" d="M872.5,-1652.23C872.5,-1652.23 1046.5,-1652.23 1046.5,-1652.23 1052.5,-1652.23 1058.5,-1658.23 1058.5,-1664.23 1058.5,-1664.23 1058.5,-1678.23 1058.5,-1678.23 1058.5,-1684.23 1052.5,-1690.23 1046.5,-1690.23 1046.5,-1690.23 872.5,-1690.23 872.5,-1690.23 866.5,-1690.23 860.5,-1684.23 860.5,-1678.23 860.5,-1678.23 860.5,-1664.23 860.5,-1664.23 860.5,-1658.23 866.5,-1652.23 872.5,-1652.23"/>
<text text-anchor="middle" x="959.5" y="-1675.03" font-family="Dejavu Sans Mono" font-size="14.00">MISSING LABEL</text>
<text text-anchor="middle" x="959.5" y="-1660.03" font-family="Dejavu Sans Mono" font-size="14.00">(kblad:dc&#45;snl16_lnk_1)</text>
</g>
<!-- nkblad_dc_snl16 -->
<g id="node17" class="node">
<title>nkblad_dc_snl16</title>
<path fill="none" stroke="black" d="M1367,-1652.23C1367,-1652.23 1690,-1652.23 1690,-1652.23 1696,-1652.23 1702,-1658.23 1702,-1664.23 1702,-1664.23 1702,-1678.23 1702,-1678.23 1702,-1684.23 1696,-1690.23 1690,-1690.23 1690,-1690.23 1367,-1690.23 1367,-1690.23 1361,-1690.23 1355,-1684.23 1355,-1678.23 1355,-1678.23 1355,-1664.23 1355,-1664.23 1355,-1658.23 1361,-1652.23 1367,-1652.23"/>
<text text-anchor="middle" x="1528.5" y="-1675.03" font-family="Dejavu Sans Mono" font-size="14.00">L1&#45;6 SPR dendrite chain_Neuron 6 (kblad)</text>
<text text-anchor="middle" x="1528.5" y="-1660.03" font-family="Dejavu Sans Mono" font-size="14.00">(kblad:dc&#45;snl16)</text>
</g>
<!-- nkblad_dc_snl16_lnk_1&#45;&gt;nkblad_dc_snl16 -->
<g id="edge58" class="edge">
<title>nkblad_dc_snl16_lnk_1&#45;&gt;nkblad_dc_snl16</title>
<path fill="none" stroke="black" d="M1058.62,-1671.23C1137.21,-1671.23 1249.66,-1671.23 1344.74,-1671.23"/>
<polygon fill="black" stroke="black" points="1344.77,-1674.73 1354.77,-1671.23 1344.77,-1667.73 1344.77,-1674.73"/>
<text text-anchor="middle" x="1266.5" y="-1675.03" font-family="Dejavu Sans Mono" font-size="14.00">apinatomy:levelIn</text>
</g>
<!-- nkblad_ac_l1l26a -->
<g id="node3" class="node">
<title>nkblad_ac_l1l26a</title>
<path fill="none" stroke="black" d="M2640,-1310.23C2640,-1310.23 2971,-1310.23 2971,-1310.23 2977,-1310.23 2983,-1316.23 2983,-1322.23 2983,-1322.23 2983,-1336.23 2983,-1336.23 2983,-1342.23 2977,-1348.23 2971,-1348.23 2971,-1348.23 2640,-1348.23 2640,-1348.23 2634,-1348.23 2628,-1342.23 2628,-1336.23 2628,-1336.23 2628,-1322.23 2628,-1322.23 2628,-1316.23 2634,-1310.23 2640,-1310.23"/>
<text text-anchor="middle" x="2805.5" y="-1333.03" font-family="Dejavu Sans Mono" font-size="14.00">L1&#45;6 L2&#45;6 SPR axon chain_Neuron 6 (kblad)</text>
<text text-anchor="middle" x="2805.5" y="-1318.03" font-family="Dejavu Sans Mono" font-size="14.00">(kblad:ac&#45;l1l26a)</text>
</g>
<!-- nkblad_lnk_ac_l1l26a_node_3_ac_l1l26a_node_3_clone -->
<g id="node4" class="node">
<title>nkblad_lnk_ac_l1l26a_node_3_ac_l1l26a_node_3_clone</title>
<path fill="none" stroke="black" d="M753,-1595.23C753,-1595.23 1166,-1595.23 1166,-1595.23 1172,-1595.23 1178,-1601.23 1178,-1607.23 1178,-1607.23 1178,-1621.23 1178,-1621.23 1178,-1627.23 1172,-1633.23 1166,-1633.23 1166,-1633.23 753,-1633.23 753,-1633.23 747,-1633.23 741,-1627.23 741,-1621.23 741,-1621.23 741,-1607.23 741,-1607.23 741,-1601.23 747,-1595.23 753,-1595.23"/>
<text text-anchor="middle" x="959.5" y="-1618.03" font-family="Dejavu Sans Mono" font-size="14.00">MISSING LABEL</text>
<text text-anchor="middle" x="959.5" y="-1603.03" font-family="Dejavu Sans Mono" font-size="14.00">(kblad:lnk_ac&#45;l1l26a_node_3_ac&#45;l1l26a_node_3_clone)</text>
</g>
<!-- nkblad_lnk_ac_l1l26a_node_1_ac_l1l26a_node_1_clone -->
<g id="node5" class="node">
<title>nkblad_lnk_ac_l1l26a_node_1_ac_l1l26a_node_1_clone</title>
<path fill="none" stroke="black" d="M753,-1538.23C753,-1538.23 1166,-1538.23 1166,-1538.23 1172,-1538.23 1178,-1544.23 1178,-1550.23 1178,-1550.23 1178,-1564.23 1178,-1564.23 1178,-1570.23 1172,-1576.23 1166,-1576.23 1166,-1576.23 753,-1576.23 753,-1576.23 747,-1576.23 741,-1570.23 741,-1564.23 741,-1564.23 741,-1550.23 741,-1550.23 741,-1544.23 747,-1538.23 753,-1538.23"/>
<text text-anchor="middle" x="959.5" y="-1561.03" font-family="Dejavu Sans Mono" font-size="14.00">MISSING LABEL</text>
<text text-anchor="middle" x="959.5" y="-1546.03" font-family="Dejavu Sans Mono" font-size="14.00">(kblad:lnk_ac&#45;l1l26a_node_1_ac&#45;l1l26a_node_1_clone)</text>
</g>
<!-- nkblad_dc_snl26_lnk_1 -->
<g id="node6" class="node">
<title>nkblad_dc_snl26_lnk_1</title>
<path fill="none" stroke="black" d="M872.5,-1481.23C872.5,-1481.23 1046.5,-1481.23 1046.5,-1481.23 1052.5,-1481.23 1058.5,-1487.23 1058.5,-1493.23 1058.5,-1493.23 1058.5,-1507.23 1058.5,-1507.23 1058.5,-1513.23 1052.5,-1519.23 1046.5,-1519.23 1046.5,-1519.23 872.5,-1519.23 872.5,-1519.23 866.5,-1519.23 860.5,-1513.23 860.5,-1507.23 860.5,-1507.23 860.5,-1493.23 860.5,-1493.23 860.5,-1487.23 866.5,-1481.23 872.5,-1481.23"/>
<text text-anchor="middle" x="959.5" y="-1504.03" font-family="Dejavu Sans Mono" font-size="14.00">MISSING LABEL</text>
<text text-anchor="middle" x="959.5" y="-1489.03" font-family="Dejavu Sans Mono" font-size="14.00">(kblad:dc&#45;snl26_lnk_1)</text>
</g>
<!-- nkblad_dc_snl26 -->
<g id="node16" class="node">
<title>nkblad_dc_snl26</title>
<path fill="none" stroke="black" d="M1367,-1481.23C1367,-1481.23 1690,-1481.23 1690,-1481.23 1696,-1481.23 1702,-1487.23 1702,-1493.23 1702,-1493.23 1702,-1507.23 1702,-1507.23 1702,-1513.23 1696,-1519.23 1690,-1519.23 1690,-1519.23 1367,-1519.23 1367,-1519.23 1361,-1519.23 1355,-1513.23 1355,-1507.23 1355,-1507.23 1355,-1493.23 1355,-1493.23 1355,-1487.23 1361,-1481.23 1367,-1481.23"/>
<text text-anchor="middle" x="1528.5" y="-1504.03" font-family="Dejavu Sans Mono" font-size="14.00">L2&#45;6 SPR dendrite chain_Neuron 6 (kblad)</text>
<text text-anchor="middle" x="1528.5" y="-1489.03" font-family="Dejavu Sans Mono" font-size="14.00">(kblad:dc&#45;snl26)</text>
</g>
<!-- nkblad_dc_snl26_lnk_1&#45;&gt;nkblad_dc_snl26 -->
<g id="edge21" class="edge">
<title>nkblad_dc_snl26_lnk_1&#45;&gt;nkblad_dc_snl26</title>
<path fill="none" stroke="black" d="M1058.62,-1500.23C1137.21,-1500.23 1249.66,-1500.23 1344.74,-1500.23"/>
<polygon fill="black" stroke="black" points="1344.77,-1503.73 1354.77,-1500.23 1344.77,-1496.73 1344.77,-1503.73"/>
<text text-anchor="middle" x="1266.5" y="-1504.03" font-family="Dejavu Sans Mono" font-size="14.00">apinatomy:levelIn</text>
</g>
<!-- nkblad_lnk_ac_snl16_node_3_ac_snl16_node_3_clone -->
<g id="node7" class="node">
<title>nkblad_lnk_ac_snl16_node_3_ac_snl16_node_3_clone</title>
<path fill="none" stroke="black" d="M761,-1424.23C761,-1424.23 1158,-1424.23 1158,-1424.23 1164,-1424.23 1170,-1430.23 1170,-1436.23 1170,-1436.23 1170,-1450.23 1170,-1450.23 1170,-1456.23 1164,-1462.23 1158,-1462.23 1158,-1462.23 761,-1462.23 761,-1462.23 755,-1462.23 749,-1456.23 749,-1450.23 749,-1450.23 749,-1436.23 749,-1436.23 749,-1430.23 755,-1424.23 761,-1424.23"/>
<text text-anchor="middle" x="959.5" y="-1447.03" font-family="Dejavu Sans Mono" font-size="14.00">MISSING LABEL</text>
<text text-anchor="middle" x="959.5" y="-1432.03" font-family="Dejavu Sans Mono" font-size="14.00">(kblad:lnk_ac&#45;snl16_node_3_ac&#45;snl16_node_3_clone)</text>
</g>
<!-- nilxtr_neuron_type_keast_6 -->
<g id="node8" class="node">
<title>nilxtr_neuron_type_keast_6</title>
<path fill="none" stroke="black" d="M12,-873.23C12,-873.23 227,-873.23 227,-873.23 233,-873.23 239,-879.23 239,-885.23 239,-885.23 239,-899.23 239,-899.23 239,-905.23 233,-911.23 227,-911.23 227,-911.23 12,-911.23 12,-911.23 6,-911.23 0,-905.23 0,-899.23 0,-899.23 0,-885.23 0,-885.23 0,-879.23 6,-873.23 12,-873.23"/>
<text text-anchor="middle" x="119.5" y="-896.03" font-family="Dejavu Sans Mono" font-size="14.00">MISSING LABEL</text>
<text text-anchor="middle" x="119.5" y="-881.03" font-family="Dejavu Sans Mono" font-size="14.00">(ilxtr:neuron&#45;type&#45;keast&#45;6)</text>
</g>
<!-- nkblad_neuron_6 -->
<g id="node34" class="node">
<title>nkblad_neuron_6</title>
<path fill="none" stroke="black" d="M444,-873.23C444,-873.23 569,-873.23 569,-873.23 575,-873.23 581,-879.23 581,-885.23 581,-885.23 581,-899.23 581,-899.23 581,-905.23 575,-911.23 569,-911.23 569,-911.23 444,-911.23 444,-911.23 438,-911.23 432,-905.23 432,-899.23 432,-899.23 432,-885.23 432,-885.23 432,-879.23 438,-873.23 444,-873.23"/>
<text text-anchor="middle" x="506.5" y="-896.03" font-family="Dejavu Sans Mono" font-size="14.00">Neuron 6</text>
<text text-anchor="middle" x="506.5" y="-881.03" font-family="Dejavu Sans Mono" font-size="14.00">(kblad:neuron&#45;6)</text>
</g>
<!-- nilxtr_neuron_type_keast_6&#45;&gt;nkblad_neuron_6 -->
<g id="edge27" class="edge">
<title>nilxtr_neuron_type_keast_6&#45;&gt;nkblad_neuron_6</title>
<path fill="none" stroke="black" d="M239.15,-892.23C298.31,-892.23 368.43,-892.23 421.87,-892.23"/>
<polygon fill="black" stroke="black" points="421.99,-895.73 431.99,-892.23 421.99,-888.73 421.99,-895.73"/>
<text text-anchor="middle" x="335.5" y="-896.03" font-family="Dejavu Sans Mono" font-size="14.00">apinatomy:annotates</text>
</g>
<!-- nkblad_ac_l1l26a_lnk_3 -->
<g id="node9" class="node">
<title>nkblad_ac_l1l26a_lnk_3</title>
<path fill="none" stroke="black" d="M1874,-1278.23C1874,-1278.23 2056,-1278.23 2056,-1278.23 2062,-1278.23 2068,-1284.23 2068,-1290.23 2068,-1290.23 2068,-1304.23 2068,-1304.23 2068,-1310.23 2062,-1316.23 2056,-1316.23 2056,-1316.23 1874,-1316.23 1874,-1316.23 1868,-1316.23 1862,-1310.23 1862,-1304.23 1862,-1304.23 1862,-1290.23 1862,-1290.23 1862,-1284.23 1868,-1278.23 1874,-1278.23"/>
<text text-anchor="middle" x="1965" y="-1301.03" font-family="Dejavu Sans Mono" font-size="14.00">MISSING LABEL</text>
<text text-anchor="middle" x="1965" y="-1286.03" font-family="Dejavu Sans Mono" font-size="14.00">(kblad:ac&#45;l1l26a_lnk_3)</text>
</g>
<!-- nkblad_ac_l1l26a_lnk_3&#45;&gt;nkblad_ac_l1l26a -->
<g id="edge3" class="edge">
<title>nkblad_ac_l1l26a_lnk_3&#45;&gt;nkblad_ac_l1l26a</title>
<path fill="none" stroke="black" d="M2068.4,-1301.14C2204.72,-1306.34 2448.28,-1315.64 2617.74,-1322.1"/>
<polygon fill="black" stroke="black" points="2617.65,-1325.6 2627.78,-1322.49 2617.92,-1318.61 2617.65,-1325.6"/>
<text text-anchor="middle" x="2348" y="-1319.03" font-family="Dejavu Sans Mono" font-size="14.00">apinatomy:levelIn</text>
</g>
<!-- nkblad_ac_l1l26a_lnk_4 -->
<g id="node22" class="node">
<title>nkblad_ac_l1l26a_lnk_4</title>
<path fill="none" stroke="black" d="M2257,-1232.23C2257,-1232.23 2439,-1232.23 2439,-1232.23 2445,-1232.23 2451,-1238.23 2451,-1244.23 2451,-1244.23 2451,-1258.23 2451,-1258.23 2451,-1264.23 2445,-1270.23 2439,-1270.23 2439,-1270.23 2257,-1270.23 2257,-1270.23 2251,-1270.23 2245,-1264.23 2245,-1258.23 2245,-1258.23 2245,-1244.23 2245,-1244.23 2245,-1238.23 2251,-1232.23 2257,-1232.23"/>
<text text-anchor="middle" x="2348" y="-1255.03" font-family="Dejavu Sans Mono" font-size="14.00">MISSING LABEL</text>
<text text-anchor="middle" x="2348" y="-1240.03" font-family="Dejavu Sans Mono" font-size="14.00">(kblad:ac&#45;l1l26a_lnk_4)</text>
</g>
<!-- nkblad_ac_l1l26a_lnk_3&#45;&gt;nkblad_ac_l1l26a_lnk_4 -->
<g id="edge10" class="edge">
<title>nkblad_ac_l1l26a_lnk_3&#45;&gt;nkblad_ac_l1l26a_lnk_4</title>
<path fill="none" stroke="black" d="M2068.07,-1280.68C2074.13,-1279.82 2080.14,-1279 2086,-1278.23 2134.71,-1271.86 2188.7,-1266.06 2234.87,-1261.49"/>
<polygon fill="black" stroke="black" points="2235.29,-1264.97 2244.9,-1260.5 2234.61,-1258 2235.29,-1264.97"/>
<text text-anchor="middle" x="2156.5" y="-1282.03" font-family="Dejavu Sans Mono" font-size="14.00">apinatomy:next</text>
</g>
<!-- nkblad_lnk_ac_snl26_node_2_ac_snl26_node_2_clone -->
<g id="node10" class="node">
<title>nkblad_lnk_ac_snl26_node_2_ac_snl26_node_2_clone</title>
<path fill="none" stroke="black" d="M761,-1182.23C761,-1182.23 1158,-1182.23 1158,-1182.23 1164,-1182.23 1170,-1188.23 1170,-1194.23 1170,-1194.23 1170,-1208.23 1170,-1208.23 1170,-1214.23 1164,-1220.23 1158,-1220.23 1158,-1220.23 761,-1220.23 761,-1220.23 755,-1220.23 749,-1214.23 749,-1208.23 749,-1208.23 749,-1194.23 749,-1194.23 749,-1188.23 755,-1182.23 761,-1182.23"/>
<text text-anchor="middle" x="959.5" y="-1205.03" font-family="Dejavu Sans Mono" font-size="14.00">MISSING LABEL</text>
<text text-anchor="middle" x="959.5" y="-1190.03" font-family="Dejavu Sans Mono" font-size="14.00">(kblad:lnk_ac&#45;snl26_node_2_ac&#45;snl26_node_2_clone)</text>
</g>
<!-- nkblad_ac_snl16_lnk_1 -->
<g id="node11" class="node">
<title>nkblad_ac_snl16_lnk_1</title>
<path fill="none" stroke="black" d="M872.5,-1086.23C872.5,-1086.23 1046.5,-1086.23 1046.5,-1086.23 1052.5,-1086.23 1058.5,-1092.23 1058.5,-1098.23 1058.5,-1098.23 1058.5,-1112.23 1058.5,-1112.23 1058.5,-1118.23 1052.5,-1124.23 1046.5,-1124.23 1046.5,-1124.23 872.5,-1124.23 872.5,-1124.23 866.5,-1124.23 860.5,-1118.23 860.5,-1112.23 860.5,-1112.23 860.5,-1098.23 860.5,-1098.23 860.5,-1092.23 866.5,-1086.23 872.5,-1086.23"/>
<text text-anchor="middle" x="959.5" y="-1109.03" font-family="Dejavu Sans Mono" font-size="14.00">MISSING LABEL</text>
<text text-anchor="middle" x="959.5" y="-1094.03" font-family="Dejavu Sans Mono" font-size="14.00">(kblad:ac&#45;snl16_lnk_1)</text>
</g>
<!-- nkblad_ac_snl16_lnk_2 -->
<g id="node40" class="node">
<title>nkblad_ac_snl16_lnk_2</title>
<path fill="none" stroke="black" d="M1441.5,-1048.23C1441.5,-1048.23 1615.5,-1048.23 1615.5,-1048.23 1621.5,-1048.23 1627.5,-1054.23 1627.5,-1060.23 1627.5,-1060.23 1627.5,-1074.23 1627.5,-1074.23 1627.5,-1080.23 1621.5,-1086.23 1615.5,-1086.23 1615.5,-1086.23 1441.5,-1086.23 1441.5,-1086.23 1435.5,-1086.23 1429.5,-1080.23 1429.5,-1074.23 1429.5,-1074.23 1429.5,-1060.23 1429.5,-1060.23 1429.5,-1054.23 1435.5,-1048.23 1441.5,-1048.23"/>
<text text-anchor="middle" x="1528.5" y="-1071.03" font-family="Dejavu Sans Mono" font-size="14.00">MISSING LABEL</text>
<text text-anchor="middle" x="1528.5" y="-1056.03" font-family="Dejavu Sans Mono" font-size="14.00">(kblad:ac&#45;snl16_lnk_2)</text>
</g>
<!-- nkblad_ac_snl16_lnk_1&#45;&gt;nkblad_ac_snl16_lnk_2 -->
<g id="edge50" class="edge">
<title>nkblad_ac_snl16_lnk_1&#45;&gt;nkblad_ac_snl16_lnk_2</title>
<path fill="none" stroke="black" d="M1058.62,-1098.65C1159.08,-1091.92 1314.84,-1081.48 1418.94,-1074.51"/>
<polygon fill="black" stroke="black" points="1419.42,-1077.98 1429.16,-1073.82 1418.95,-1071 1419.42,-1077.98"/>
<text text-anchor="middle" x="1266.5" y="-1092.03" font-family="Dejavu Sans Mono" font-size="14.00">apinatomy:next</text>
</g>
<!-- nkblad_ac_snl16 -->
<g id="node41" class="node">
<title>nkblad_ac_snl16</title>
<path fill="none" stroke="black" d="M3922,-1004.23C3922,-1004.23 4212,-1004.23 4212,-1004.23 4218,-1004.23 4224,-1010.23 4224,-1016.23 4224,-1016.23 4224,-1030.23 4224,-1030.23 4224,-1036.23 4218,-1042.23 4212,-1042.23 4212,-1042.23 3922,-1042.23 3922,-1042.23 3916,-1042.23 3910,-1036.23 3910,-1030.23 3910,-1030.23 3910,-1016.23 3910,-1016.23 3910,-1010.23 3916,-1004.23 3922,-1004.23"/>
<text text-anchor="middle" x="4067" y="-1027.03" font-family="Dejavu Sans Mono" font-size="14.00">L1&#45;6 SPR axon chain_Neuron 6 (kblad)</text>
<text text-anchor="middle" x="4067" y="-1012.03" font-family="Dejavu Sans Mono" font-size="14.00">(kblad:ac&#45;snl16)</text>
</g>
<!-- nkblad_ac_snl16_lnk_1&#45;&gt;nkblad_ac_snl16 -->
<g id="edge1" class="edge">
<title>nkblad_ac_snl16_lnk_1&#45;&gt;nkblad_ac_snl16</title>
<path fill="none" stroke="black" d="M1058.55,-1109.95C1171.57,-1114.98 1362.91,-1122.23 1527.5,-1122.23 1527.5,-1122.23 1527.5,-1122.23 2157.5,-1122.23 2445.19,-1122.23 2516.81,-1142.23 2804.5,-1142.23 2804.5,-1142.23 2804.5,-1142.23 3635,-1142.23 3751.2,-1142.23 3780.52,-1127.01 3892,-1094.23 3935.2,-1081.52 3982.4,-1061.88 4016.72,-1046.47"/>
<polygon fill="black" stroke="black" points="4018.39,-1049.56 4026.05,-1042.25 4015.5,-1043.19 4018.39,-1049.56"/>
<text text-anchor="middle" x="2539.5" y="-1142.03" font-family="Dejavu Sans Mono" font-size="14.00">apinatomy:levelIn</text>
</g>
<!-- nkblad_ac_snl16_lnk_6 -->
<g id="node12" class="node">
<title>nkblad_ac_snl16_lnk_6</title>
<path fill="none" stroke="black" d="M3172,-956.23C3172,-956.23 3346,-956.23 3346,-956.23 3352,-956.23 3358,-962.23 3358,-968.23 3358,-968.23 3358,-982.23 3358,-982.23 3358,-988.23 3352,-994.23 3346,-994.23 3346,-994.23 3172,-994.23 3172,-994.23 3166,-994.23 3160,-988.23 3160,-982.23 3160,-982.23 3160,-968.23 3160,-968.23 3160,-962.23 3166,-956.23 3172,-956.23"/>
<text text-anchor="middle" x="3259" y="-979.03" font-family="Dejavu Sans Mono" font-size="14.00">MISSING LABEL</text>
<text text-anchor="middle" x="3259" y="-964.03" font-family="Dejavu Sans Mono" font-size="14.00">(kblad:ac&#45;snl16_lnk_6)</text>
</g>
<!-- nkblad_ac_snl16_lnk_7 -->
<g id="node38" class="node">
<title>nkblad_ac_snl16_lnk_7</title>
<path fill="none" stroke="black" d="M3547,-905.23C3547,-905.23 3721,-905.23 3721,-905.23 3727,-905.23 3733,-911.23 3733,-917.23 3733,-917.23 3733,-931.23 3733,-931.23 3733,-937.23 3727,-943.23 3721,-943.23 3721,-943.23 3547,-943.23 3547,-943.23 3541,-943.23 3535,-937.23 3535,-931.23 3535,-931.23 3535,-917.23 3535,-917.23 3535,-911.23 3541,-905.23 3547,-905.23"/>
<text text-anchor="middle" x="3634" y="-928.03" font-family="Dejavu Sans Mono" font-size="14.00">MISSING LABEL</text>
<text text-anchor="middle" x="3634" y="-913.03" font-family="Dejavu Sans Mono" font-size="14.00">(kblad:ac&#45;snl16_lnk_7)</text>
</g>
<!-- nkblad_ac_snl16_lnk_6&#45;&gt;nkblad_ac_snl16_lnk_7 -->
<g id="edge9" class="edge">
<title>nkblad_ac_snl16_lnk_6&#45;&gt;nkblad_ac_snl16_lnk_7</title>
<path fill="none" stroke="black" d="M3347.24,-956.21C3356.92,-954.39 3366.65,-952.68 3376,-951.23 3424.63,-943.66 3478.78,-937.62 3524.78,-933.19"/>
<polygon fill="black" stroke="black" points="3525.14,-936.67 3534.77,-932.24 3524.48,-929.7 3525.14,-936.67"/>
<text text-anchor="middle" x="3446.5" y="-955.03" font-family="Dejavu Sans Mono" font-size="14.00">apinatomy:next</text>
</g>
<!-- nkblad_ac_snl16_lnk_6&#45;&gt;nkblad_ac_snl16 -->
<g id="edge41" class="edge">
<title>nkblad_ac_snl16_lnk_6&#45;&gt;nkblad_ac_snl16</title>
<path fill="none" stroke="black" d="M3358.36,-977.84C3454.08,-980.7 3603.62,-986 3733,-994.23 3787.27,-997.68 3846.43,-1002.49 3899.63,-1007.2"/>
<polygon fill="black" stroke="black" points="3899.57,-1010.71 3909.84,-1008.11 3900.19,-1003.74 3899.57,-1010.71"/>
<text text-anchor="middle" x="3634" y="-998.03" font-family="Dejavu Sans Mono" font-size="14.00">apinatomy:levelIn</text>
</g>
<!-- nkblad_ac_snl16_lnk_3 -->
<g id="node13" class="node">
<title>nkblad_ac_snl16_lnk_3</title>
<path fill="none" stroke="black" d="M1878,-1007.23C1878,-1007.23 2052,-1007.23 2052,-1007.23 2058,-1007.23 2064,-1013.23 2064,-1019.23 2064,-1019.23 2064,-1033.23 2064,-1033.23 2064,-1039.23 2058,-1045.23 2052,-1045.23 2052,-1045.23 1878,-1045.23 1878,-1045.23 1872,-1045.23 1866,-1039.23 1866,-1033.23 1866,-1033.23 1866,-1019.23 1866,-1019.23 1866,-1013.23 1872,-1007.23 1878,-1007.23"/>
<text text-anchor="middle" x="1965" y="-1030.03" font-family="Dejavu Sans Mono" font-size="14.00">MISSING LABEL</text>
<text text-anchor="middle" x="1965" y="-1015.03" font-family="Dejavu Sans Mono" font-size="14.00">(kblad:ac&#45;snl16_lnk_3)</text>
</g>
<!-- nkblad_ac_snl16_lnk_3&#45;&gt;nkblad_ac_snl16 -->
<g id="edge59" class="edge">
<title>nkblad_ac_snl16_lnk_3&#45;&gt;nkblad_ac_snl16</title>
<path fill="none" stroke="black" d="M2064.14,-1027.74C2193.38,-1029.66 2427.72,-1032.89 2628,-1034.23 3023.1,-1036.88 3121.89,-1035.76 3517,-1035.23 3683.67,-1035.01 3725.42,-1039.71 3892,-1034.23 3894.58,-1034.14 3897.18,-1034.05 3899.8,-1033.96"/>
<polygon fill="black" stroke="black" points="3900.13,-1037.45 3909.98,-1033.55 3899.85,-1030.45 3900.13,-1037.45"/>
<text text-anchor="middle" x="3071.5" y="-1039.03" font-family="Dejavu Sans Mono" font-size="14.00">apinatomy:levelIn</text>
</g>
<!-- nkblad_ac_snl16_lnk_4 -->
<g id="node42" class="node">
<title>nkblad_ac_snl16_lnk_4</title>
<path fill="none" stroke="black" d="M2261,-950.23C2261,-950.23 2435,-950.23 2435,-950.23 2441,-950.23 2447,-956.23 2447,-962.23 2447,-962.23 2447,-976.23 2447,-976.23 2447,-982.23 2441,-988.23 2435,-988.23 2435,-988.23 2261,-988.23 2261,-988.23 2255,-988.23 2249,-982.23 2249,-976.23 2249,-976.23 2249,-962.23 2249,-962.23 2249,-956.23 2255,-950.23 2261,-950.23"/>
<text text-anchor="middle" x="2348" y="-973.03" font-family="Dejavu Sans Mono" font-size="14.00">MISSING LABEL</text>
<text text-anchor="middle" x="2348" y="-958.03" font-family="Dejavu Sans Mono" font-size="14.00">(kblad:ac&#45;snl16_lnk_4)</text>
</g>
<!-- nkblad_ac_snl16_lnk_3&#45;&gt;nkblad_ac_snl16_lnk_4 -->
<g id="edge45" class="edge">
<title>nkblad_ac_snl16_lnk_3&#45;&gt;nkblad_ac_snl16_lnk_4</title>
<path fill="none" stroke="black" d="M2064.12,-1011.55C2117.56,-1003.55 2183.81,-993.64 2238.76,-985.42"/>
<polygon fill="black" stroke="black" points="2239.51,-988.85 2248.88,-983.91 2238.48,-981.93 2239.51,-988.85"/>
<text text-anchor="middle" x="2156.5" y="-1011.03" font-family="Dejavu Sans Mono" font-size="14.00">apinatomy:next</text>
</g>
<!-- nkblad_ac_snl16_lnk_5 -->
<g id="node14" class="node">
<title>nkblad_ac_snl16_lnk_5</title>
<path fill="none" stroke="black" d="M2718.5,-986.23C2718.5,-986.23 2892.5,-986.23 2892.5,-986.23 2898.5,-986.23 2904.5,-992.23 2904.5,-998.23 2904.5,-998.23 2904.5,-1012.23 2904.5,-1012.23 2904.5,-1018.23 2898.5,-1024.23 2892.5,-1024.23 2892.5,-1024.23 2718.5,-1024.23 2718.5,-1024.23 2712.5,-1024.23 2706.5,-1018.23 2706.5,-1012.23 2706.5,-1012.23 2706.5,-998.23 2706.5,-998.23 2706.5,-992.23 2712.5,-986.23 2718.5,-986.23"/>
<text text-anchor="middle" x="2805.5" y="-1009.03" font-family="Dejavu Sans Mono" font-size="14.00">MISSING LABEL</text>
<text text-anchor="middle" x="2805.5" y="-994.03" font-family="Dejavu Sans Mono" font-size="14.00">(kblad:ac&#45;snl16_lnk_5)</text>
</g>
<!-- nkblad_ac_snl16_lnk_5&#45;&gt;nkblad_ac_snl16_lnk_6 -->
<g id="edge61" class="edge">
<title>nkblad_ac_snl16_lnk_5&#45;&gt;nkblad_ac_snl16_lnk_6</title>
<path fill="none" stroke="black" d="M2904.75,-998.7C2976.97,-993.9 3075.1,-987.38 3149.6,-982.43"/>
<polygon fill="black" stroke="black" points="3150.21,-985.9 3159.95,-981.74 3149.74,-978.92 3150.21,-985.9"/>
<text text-anchor="middle" x="3071.5" y="-995.03" font-family="Dejavu Sans Mono" font-size="14.00">apinatomy:next</text>
</g>
<!-- nkblad_ac_snl16_lnk_5&#45;&gt;nkblad_ac_snl16 -->
<g id="edge5" class="edge">
<title>nkblad_ac_snl16_lnk_5&#45;&gt;nkblad_ac_snl16</title>
<path fill="none" stroke="black" d="M2904.95,-1007.4C2935.71,-1008.03 2969.76,-1008.7 3001,-1009.23 3318.88,-1014.59 3690.16,-1019.06 3899.73,-1021.43"/>
<polygon fill="black" stroke="black" points="3899.86,-1024.93 3909.89,-1021.54 3899.93,-1017.93 3899.86,-1024.93"/>
<text text-anchor="middle" x="3446.5" y="-1020.03" font-family="Dejavu Sans Mono" font-size="14.00">apinatomy:levelIn</text>
</g>
<!-- nkblad_lnk_ac_snl16_node_6_ac_snl16_node_6_clone -->
<g id="node15" class="node">
<title>nkblad_lnk_ac_snl16_node_6_ac_snl16_node_6_clone</title>
<path fill="none" stroke="black" d="M761,-825.23C761,-825.23 1158,-825.23 1158,-825.23 1164,-825.23 1170,-831.23 1170,-837.23 1170,-837.23 1170,-851.23 1170,-851.23 1170,-857.23 1164,-863.23 1158,-863.23 1158,-863.23 761,-863.23 761,-863.23 755,-863.23 749,-857.23 749,-851.23 749,-851.23 749,-837.23 749,-837.23 749,-831.23 755,-825.23 761,-825.23"/>
<text text-anchor="middle" x="959.5" y="-848.03" font-family="Dejavu Sans Mono" font-size="14.00">MISSING LABEL</text>
<text text-anchor="middle" x="959.5" y="-833.03" font-family="Dejavu Sans Mono" font-size="14.00">(kblad:lnk_ac&#45;snl16_node_6_ac&#45;snl16_node_6_clone)</text>
</g>
<!-- nkblad_ac_snl26_lnk_7 -->
<g id="node18" class="node">
<title>nkblad_ac_snl26_lnk_7</title>
<path fill="none" stroke="black" d="M3547,-548.23C3547,-548.23 3721,-548.23 3721,-548.23 3727,-548.23 3733,-554.23 3733,-560.23 3733,-560.23 3733,-574.23 3733,-574.23 3733,-580.23 3727,-586.23 3721,-586.23 3721,-586.23 3547,-586.23 3547,-586.23 3541,-586.23 3535,-580.23 3535,-574.23 3535,-574.23 3535,-560.23 3535,-560.23 3535,-554.23 3541,-548.23 3547,-548.23"/>
<text text-anchor="middle" x="3634" y="-571.03" font-family="Dejavu Sans Mono" font-size="14.00">MISSING LABEL</text>
<text text-anchor="middle" x="3634" y="-556.03" font-family="Dejavu Sans Mono" font-size="14.00">(kblad:ac&#45;snl26_lnk_7)</text>
</g>
<!-- nkblad_ac_snl26 -->
<g id="node35" class="node">
<title>nkblad_ac_snl26</title>
<path fill="none" stroke="black" d="M3922,-647.23C3922,-647.23 4212,-647.23 4212,-647.23 4218,-647.23 4224,-653.23 4224,-659.23 4224,-659.23 4224,-673.23 4224,-673.23 4224,-679.23 4218,-685.23 4212,-685.23 4212,-685.23 3922,-685.23 3922,-685.23 3916,-685.23 3910,-679.23 3910,-673.23 3910,-673.23 3910,-659.23 3910,-659.23 3910,-653.23 3916,-647.23 3922,-647.23"/>
<text text-anchor="middle" x="4067" y="-670.03" font-family="Dejavu Sans Mono" font-size="14.00">L2&#45;6 SPR axon chain_Neuron 6 (kblad)</text>
<text text-anchor="middle" x="4067" y="-655.03" font-family="Dejavu Sans Mono" font-size="14.00">(kblad:ac&#45;snl26)</text>
</g>
<!-- nkblad_ac_snl26_lnk_7&#45;&gt;nkblad_ac_snl26 -->
<g id="edge38" class="edge">
<title>nkblad_ac_snl26_lnk_7&#45;&gt;nkblad_ac_snl26</title>
<path fill="none" stroke="black" d="M3733.18,-570.91C3781.58,-574.4 3840.47,-581.15 3892,-594.23 3936.75,-605.59 3985.08,-626.32 4019.42,-642.64"/>
<polygon fill="black" stroke="black" points="4018.19,-645.93 4028.72,-647.11 4021.22,-639.62 4018.19,-645.93"/>
<text text-anchor="middle" x="3821.5" y="-598.03" font-family="Dejavu Sans Mono" font-size="14.00">apinatomy:levelIn</text>
</g>
<!-- nkblad_ac_snl26_lnk_2 -->
<g id="node19" class="node">
<title>nkblad_ac_snl26_lnk_2</title>
<path fill="none" stroke="black" d="M1441.5,-691.23C1441.5,-691.23 1615.5,-691.23 1615.5,-691.23 1621.5,-691.23 1627.5,-697.23 1627.5,-703.23 1627.5,-703.23 1627.5,-717.23 1627.5,-717.23 1627.5,-723.23 1621.5,-729.23 1615.5,-729.23 1615.5,-729.23 1441.5,-729.23 1441.5,-729.23 1435.5,-729.23 1429.5,-723.23 1429.5,-717.23 1429.5,-717.23 1429.5,-703.23 1429.5,-703.23 1429.5,-697.23 1435.5,-691.23 1441.5,-691.23"/>
<text text-anchor="middle" x="1528.5" y="-714.03" font-family="Dejavu Sans Mono" font-size="14.00">MISSING LABEL</text>
<text text-anchor="middle" x="1528.5" y="-699.03" font-family="Dejavu Sans Mono" font-size="14.00">(kblad:ac&#45;snl26_lnk_2)</text>
</g>
<!-- nkblad_ac_snl26_lnk_3 -->
<g id="node29" class="node">
<title>nkblad_ac_snl26_lnk_3</title>
<path fill="none" stroke="black" d="M1878,-650.23C1878,-650.23 2052,-650.23 2052,-650.23 2058,-650.23 2064,-656.23 2064,-662.23 2064,-662.23 2064,-676.23 2064,-676.23 2064,-682.23 2058,-688.23 2052,-688.23 2052,-688.23 1878,-688.23 1878,-688.23 1872,-688.23 1866,-682.23 1866,-676.23 1866,-676.23 1866,-662.23 1866,-662.23 1866,-656.23 1872,-650.23 1878,-650.23"/>
<text text-anchor="middle" x="1965" y="-673.03" font-family="Dejavu Sans Mono" font-size="14.00">MISSING LABEL</text>
<text text-anchor="middle" x="1965" y="-658.03" font-family="Dejavu Sans Mono" font-size="14.00">(kblad:ac&#45;snl26_lnk_3)</text>
</g>
<!-- nkblad_ac_snl26_lnk_2&#45;&gt;nkblad_ac_snl26_lnk_3 -->
<g id="edge7" class="edge">
<title>nkblad_ac_snl26_lnk_2&#45;&gt;nkblad_ac_snl26_lnk_3</title>
<path fill="none" stroke="black" d="M1627.55,-700.98C1695.42,-694.57 1785.77,-686.05 1855.76,-679.44"/>
<polygon fill="black" stroke="black" points="1856.3,-682.91 1865.93,-678.48 1855.64,-675.94 1856.3,-682.91"/>
<text text-anchor="middle" x="1782" y="-696.03" font-family="Dejavu Sans Mono" font-size="14.00">apinatomy:next</text>
</g>
<!-- nkblad_ac_snl26_lnk_2&#45;&gt;nkblad_ac_snl26 -->
<g id="edge43" class="edge">
<title>nkblad_ac_snl26_lnk_2&#45;&gt;nkblad_ac_snl26</title>
<path fill="none" stroke="black" d="M1627.74,-713.68C1871.79,-721.96 2525.28,-742.23 3070.5,-742.23 3070.5,-742.23 3070.5,-742.23 3635,-742.23 3760.89,-742.23 3904.37,-710.39 3989.93,-687.93"/>
<polygon fill="black" stroke="black" points="3991.05,-691.26 3999.82,-685.31 3989.26,-684.49 3991.05,-691.26"/>
<text text-anchor="middle" x="2805.5" y="-746.03" font-family="Dejavu Sans Mono" font-size="14.00">apinatomy:levelIn</text>
</g>
<!-- nkblad_ac_snl26_lnk_5 -->
<g id="node20" class="node">
<title>nkblad_ac_snl26_lnk_5</title>
<path fill="none" stroke="black" d="M2718.5,-629.23C2718.5,-629.23 2892.5,-629.23 2892.5,-629.23 2898.5,-629.23 2904.5,-635.23 2904.5,-641.23 2904.5,-641.23 2904.5,-655.23 2904.5,-655.23 2904.5,-661.23 2898.5,-667.23 2892.5,-667.23 2892.5,-667.23 2718.5,-667.23 2718.5,-667.23 2712.5,-667.23 2706.5,-661.23 2706.5,-655.23 2706.5,-655.23 2706.5,-641.23 2706.5,-641.23 2706.5,-635.23 2712.5,-629.23 2718.5,-629.23"/>
<text text-anchor="middle" x="2805.5" y="-652.03" font-family="Dejavu Sans Mono" font-size="14.00">MISSING LABEL</text>
<text text-anchor="middle" x="2805.5" y="-637.03" font-family="Dejavu Sans Mono" font-size="14.00">(kblad:ac&#45;snl26_lnk_5)</text>
</g>
<!-- nkblad_ac_snl26_lnk_6 -->
<g id="node27" class="node">
<title>nkblad_ac_snl26_lnk_6</title>
<path fill="none" stroke="black" d="M3172,-599.23C3172,-599.23 3346,-599.23 3346,-599.23 3352,-599.23 3358,-605.23 3358,-611.23 3358,-611.23 3358,-625.23 3358,-625.23 3358,-631.23 3352,-637.23 3346,-637.23 3346,-637.23 3172,-637.23 3172,-637.23 3166,-637.23 3160,-631.23 3160,-625.23 3160,-625.23 3160,-611.23 3160,-611.23 3160,-605.23 3166,-599.23 3172,-599.23"/>
<text text-anchor="middle" x="3259" y="-622.03" font-family="Dejavu Sans Mono" font-size="14.00">MISSING LABEL</text>
<text text-anchor="middle" x="3259" y="-607.03" font-family="Dejavu Sans Mono" font-size="14.00">(kblad:ac&#45;snl26_lnk_6)</text>
</g>
<!-- nkblad_ac_snl26_lnk_5&#45;&gt;nkblad_ac_snl26_lnk_6 -->
<g id="edge30" class="edge">
<title>nkblad_ac_snl26_lnk_5&#45;&gt;nkblad_ac_snl26_lnk_6</title>
<path fill="none" stroke="black" d="M2904.75,-641.7C2976.97,-636.9 3075.1,-630.38 3149.6,-625.43"/>
<polygon fill="black" stroke="black" points="3150.21,-628.9 3159.95,-624.74 3149.74,-621.92 3150.21,-628.9"/>
<text text-anchor="middle" x="3071.5" y="-639.03" font-family="Dejavu Sans Mono" font-size="14.00">apinatomy:next</text>
</g>
<!-- nkblad_ac_snl26_lnk_5&#45;&gt;nkblad_ac_snl26 -->
<g id="edge56" class="edge">
<title>nkblad_ac_snl26_lnk_5&#45;&gt;nkblad_ac_snl26</title>
<path fill="none" stroke="black" d="M2904.95,-650.4C2935.71,-651.03 2969.76,-651.7 3001,-652.23 3318.88,-657.59 3690.16,-662.06 3899.73,-664.43"/>
<polygon fill="black" stroke="black" points="3899.86,-667.93 3909.89,-664.54 3899.93,-660.93 3899.86,-667.93"/>
<text text-anchor="middle" x="3446.5" y="-664.03" font-family="Dejavu Sans Mono" font-size="14.00">apinatomy:levelIn</text>
</g>
<!-- nkblad_ac_snl26_lnk_1 -->
<g id="node21" class="node">
<title>nkblad_ac_snl26_lnk_1</title>
<path fill="none" stroke="black" d="M872.5,-729.23C872.5,-729.23 1046.5,-729.23 1046.5,-729.23 1052.5,-729.23 1058.5,-735.23 1058.5,-741.23 1058.5,-741.23 1058.5,-755.23 1058.5,-755.23 1058.5,-761.23 1052.5,-767.23 1046.5,-767.23 1046.5,-767.23 872.5,-767.23 872.5,-767.23 866.5,-767.23 860.5,-761.23 860.5,-755.23 860.5,-755.23 860.5,-741.23 860.5,-741.23 860.5,-735.23 866.5,-729.23 872.5,-729.23"/>
<text text-anchor="middle" x="959.5" y="-752.03" font-family="Dejavu Sans Mono" font-size="14.00">MISSING LABEL</text>
<text text-anchor="middle" x="959.5" y="-737.03" font-family="Dejavu Sans Mono" font-size="14.00">(kblad:ac&#45;snl26_lnk_1)</text>
</g>
<!-- nkblad_ac_snl26_lnk_1&#45;&gt;nkblad_ac_snl26_lnk_2 -->
<g id="edge16" class="edge">
<title>nkblad_ac_snl26_lnk_1&#45;&gt;nkblad_ac_snl26_lnk_2</title>
<path fill="none" stroke="black" d="M1058.62,-741.65C1159.08,-734.92 1314.84,-724.48 1418.94,-717.51"/>
<polygon fill="black" stroke="black" points="1419.42,-720.98 1429.16,-716.82 1418.95,-714 1419.42,-720.98"/>
<text text-anchor="middle" x="1266.5" y="-736.03" font-family="Dejavu Sans Mono" font-size="14.00">apinatomy:next</text>
</g>
<!-- nkblad_ac_snl26_lnk_1&#45;&gt;nkblad_ac_snl26 -->
<g id="edge20" class="edge">
<title>nkblad_ac_snl26_lnk_1&#45;&gt;nkblad_ac_snl26</title>
<path fill="none" stroke="black" d="M1058.55,-752.95C1171.57,-757.98 1362.91,-765.23 1527.5,-765.23 1527.5,-765.23 1527.5,-765.23 2157.5,-765.23 2445.19,-765.23 2516.81,-785.23 2804.5,-785.23 2804.5,-785.23 2804.5,-785.23 3635,-785.23 3751.12,-785.23 3780.62,-771.06 3892,-738.23 3935.57,-725.39 3983.1,-705.28 4017.46,-689.57"/>
<polygon fill="black" stroke="black" points="4019.17,-692.64 4026.78,-685.27 4016.24,-686.28 4019.17,-692.64"/>
<text text-anchor="middle" x="2539.5" y="-786.03" font-family="Dejavu Sans Mono" font-size="14.00">apinatomy:levelIn</text>
</g>
<!-- nkblad_ac_l1l26a_lnk_4&#45;&gt;nkblad_ac_l1l26a -->
<g id="edge65" class="edge">
<title>nkblad_ac_l1l26a_lnk_4&#45;&gt;nkblad_ac_l1l26a</title>
<path fill="none" stroke="black" d="M2451.15,-1258.15C2499.55,-1262.35 2558.01,-1268.78 2610,-1278.23 2650.81,-1285.65 2695.64,-1297.17 2731.97,-1307.38"/>
<polygon fill="black" stroke="black" points="2731.4,-1310.86 2741.98,-1310.22 2733.31,-1304.13 2731.4,-1310.86"/>
<text text-anchor="middle" x="2539.5" y="-1282.03" font-family="Dejavu Sans Mono" font-size="14.00">apinatomy:levelIn</text>
</g>
<!-- nkblad_ac_l1l26a_lnk_2 -->
<g id="node23" class="node">
<title>nkblad_ac_l1l26a_lnk_2</title>
<path fill="none" stroke="black" d="M1437.5,-1323.23C1437.5,-1323.23 1619.5,-1323.23 1619.5,-1323.23 1625.5,-1323.23 1631.5,-1329.23 1631.5,-1335.23 1631.5,-1335.23 1631.5,-1349.23 1631.5,-1349.23 1631.5,-1355.23 1625.5,-1361.23 1619.5,-1361.23 1619.5,-1361.23 1437.5,-1361.23 1437.5,-1361.23 1431.5,-1361.23 1425.5,-1355.23 1425.5,-1349.23 1425.5,-1349.23 1425.5,-1335.23 1425.5,-1335.23 1425.5,-1329.23 1431.5,-1323.23 1437.5,-1323.23"/>
<text text-anchor="middle" x="1528.5" y="-1346.03" font-family="Dejavu Sans Mono" font-size="14.00">MISSING LABEL</text>
<text text-anchor="middle" x="1528.5" y="-1331.03" font-family="Dejavu Sans Mono" font-size="14.00">(kblad:ac&#45;l1l26a_lnk_2)</text>
</g>
<!-- nkblad_ac_l1l26a_lnk_2&#45;&gt;nkblad_ac_l1l26a -->
<g id="edge46" class="edge">
<title>nkblad_ac_l1l26a_lnk_2&#45;&gt;nkblad_ac_l1l26a</title>
<path fill="none" stroke="black" d="M1631.55,-1341.61C1823.26,-1340.37 2250.32,-1337.27 2610,-1332.23 2612.59,-1332.19 2615.19,-1332.16 2617.81,-1332.12"/>
<polygon fill="black" stroke="black" points="2618.04,-1335.62 2627.99,-1331.97 2617.94,-1328.62 2618.04,-1335.62"/>
<text text-anchor="middle" x="2156.5" y="-1341.03" font-family="Dejavu Sans Mono" font-size="14.00">apinatomy:levelIn</text>
</g>
<!-- nkblad_ac_l1l26a_lnk_2&#45;&gt;nkblad_ac_l1l26a_lnk_3 -->
<g id="edge12" class="edge">
<title>nkblad_ac_l1l26a_lnk_2&#45;&gt;nkblad_ac_l1l26a_lnk_3</title>
<path fill="none" stroke="black" d="M1631.8,-1330.73C1660.34,-1327.58 1691.37,-1324.22 1720,-1321.23 1763.02,-1316.74 1810.34,-1312.04 1851.76,-1307.99"/>
<polygon fill="black" stroke="black" points="1852.26,-1311.46 1861.88,-1307 1851.58,-1304.49 1852.26,-1311.46"/>
<text text-anchor="middle" x="1782" y="-1325.03" font-family="Dejavu Sans Mono" font-size="14.00">apinatomy:next</text>
</g>
<!-- nkblad_lnk_snl26 -->
<g id="node24" class="node">
<title>nkblad_lnk_snl26</title>
<path fill="none" stroke="black" d="M893,-468.23C893,-468.23 1026,-468.23 1026,-468.23 1032,-468.23 1038,-474.23 1038,-480.23 1038,-480.23 1038,-494.23 1038,-494.23 1038,-500.23 1032,-506.23 1026,-506.23 1026,-506.23 893,-506.23 893,-506.23 887,-506.23 881,-500.23 881,-494.23 881,-494.23 881,-480.23 881,-480.23 881,-474.23 887,-468.23 893,-468.23"/>
<text text-anchor="middle" x="959.5" y="-491.03" font-family="Dejavu Sans Mono" font-size="14.00">MISSING LABEL</text>
<text text-anchor="middle" x="959.5" y="-476.03" font-family="Dejavu Sans Mono" font-size="14.00">(kblad:lnk&#45;snl26)</text>
</g>
<!-- nkblad_lnk_ac_snl16_node_5_ac_snl16_node_5_clone -->
<g id="node25" class="node">
<title>nkblad_lnk_ac_snl16_node_5_ac_snl16_node_5_clone</title>
<path fill="none" stroke="black" d="M761,-411.23C761,-411.23 1158,-411.23 1158,-411.23 1164,-411.23 1170,-417.23 1170,-423.23 1170,-423.23 1170,-437.23 1170,-437.23 1170,-443.23 1164,-449.23 1158,-449.23 1158,-449.23 761,-449.23 761,-449.23 755,-449.23 749,-443.23 749,-437.23 749,-437.23 749,-423.23 749,-423.23 749,-417.23 755,-411.23 761,-411.23"/>
<text text-anchor="middle" x="959.5" y="-434.03" font-family="Dejavu Sans Mono" font-size="14.00">MISSING LABEL</text>
<text text-anchor="middle" x="959.5" y="-419.03" font-family="Dejavu Sans Mono" font-size="14.00">(kblad:lnk_ac&#45;snl16_node_5_ac&#45;snl16_node_5_clone)</text>
</g>
<!-- nkblad_lnk_ac_snl26_node_4_ac_snl26_node_4_clone -->
<g id="node26" class="node">
<title>nkblad_lnk_ac_snl26_node_4_ac_snl26_node_4_clone</title>
<path fill="none" stroke="black" d="M761,-354.23C761,-354.23 1158,-354.23 1158,-354.23 1164,-354.23 1170,-360.23 1170,-366.23 1170,-366.23 1170,-380.23 1170,-380.23 1170,-386.23 1164,-392.23 1158,-392.23 1158,-392.23 761,-392.23 761,-392.23 755,-392.23 749,-386.23 749,-380.23 749,-380.23 749,-366.23 749,-366.23 749,-360.23 755,-354.23 761,-354.23"/>
<text text-anchor="middle" x="959.5" y="-377.03" font-family="Dejavu Sans Mono" font-size="14.00">MISSING LABEL</text>
<text text-anchor="middle" x="959.5" y="-362.03" font-family="Dejavu Sans Mono" font-size="14.00">(kblad:lnk_ac&#45;snl26_node_4_ac&#45;snl26_node_4_clone)</text>
</g>
<!-- nkblad_ac_snl26_lnk_6&#45;&gt;nkblad_ac_snl26_lnk_7 -->
<g id="edge70" class="edge">
<title>nkblad_ac_snl26_lnk_6&#45;&gt;nkblad_ac_snl26_lnk_7</title>
<path fill="none" stroke="black" d="M3347.24,-599.21C3356.92,-597.39 3366.65,-595.68 3376,-594.23 3424.63,-586.66 3478.78,-580.62 3524.78,-576.19"/>
<polygon fill="black" stroke="black" points="3525.14,-579.67 3534.77,-575.24 3524.48,-572.7 3525.14,-579.67"/>
<text text-anchor="middle" x="3446.5" y="-598.03" font-family="Dejavu Sans Mono" font-size="14.00">apinatomy:next</text>
</g>
<!-- nkblad_ac_snl26_lnk_6&#45;&gt;nkblad_ac_snl26 -->
<g id="edge11" class="edge">
<title>nkblad_ac_snl26_lnk_6&#45;&gt;nkblad_ac_snl26</title>
<path fill="none" stroke="black" d="M3358.36,-620.84C3454.08,-623.7 3603.62,-629 3733,-637.23 3787.27,-640.68 3846.43,-645.49 3899.63,-650.2"/>
<polygon fill="black" stroke="black" points="3899.57,-653.71 3909.84,-651.11 3900.19,-646.74 3899.57,-653.71"/>
<text text-anchor="middle" x="3634" y="-641.03" font-family="Dejavu Sans Mono" font-size="14.00">apinatomy:levelIn</text>
</g>
<!-- nkblad_lnk_ac_l1l26a_node_2_ac_l1l26a_node_2_clone -->
<g id="node28" class="node">
<title>nkblad_lnk_ac_l1l26a_node_2_ac_l1l26a_node_2_clone</title>
<path fill="none" stroke="black" d="M753,-297.23C753,-297.23 1166,-297.23 1166,-297.23 1172,-297.23 1178,-303.23 1178,-309.23 1178,-309.23 1178,-323.23 1178,-323.23 1178,-329.23 1172,-335.23 1166,-335.23 1166,-335.23 753,-335.23 753,-335.23 747,-335.23 741,-329.23 741,-323.23 741,-323.23 741,-309.23 741,-309.23 741,-303.23 747,-297.23 753,-297.23"/>
<text text-anchor="middle" x="959.5" y="-320.03" font-family="Dejavu Sans Mono" font-size="14.00">MISSING LABEL</text>
<text text-anchor="middle" x="959.5" y="-305.03" font-family="Dejavu Sans Mono" font-size="14.00">(kblad:lnk_ac&#45;l1l26a_node_2_ac&#45;l1l26a_node_2_clone)</text>
</g>
<!-- nkblad_ac_snl26_lnk_3&#45;&gt;nkblad_ac_snl26 -->
<g id="edge34" class="edge">
<title>nkblad_ac_snl26_lnk_3&#45;&gt;nkblad_ac_snl26</title>
<path fill="none" stroke="black" d="M2064.14,-670.47C2193.38,-672.05 2427.73,-674.77 2628,-676.23 3023.1,-679.11 3121.89,-679.76 3517,-679.23 3683.67,-679.01 3725.44,-684.19 3892,-678.23 3894.58,-678.14 3897.18,-678.04 3899.8,-677.93"/>
<polygon fill="black" stroke="black" points="3900.14,-681.42 3909.98,-677.49 3899.84,-674.43 3900.14,-681.42"/>
<text text-anchor="middle" x="3071.5" y="-683.03" font-family="Dejavu Sans Mono" font-size="14.00">apinatomy:levelIn</text>
</g>
<!-- nkblad_ac_snl26_lnk_4 -->
<g id="node39" class="node">
<title>nkblad_ac_snl26_lnk_4</title>
<path fill="none" stroke="black" d="M2261,-593.23C2261,-593.23 2435,-593.23 2435,-593.23 2441,-593.23 2447,-599.23 2447,-605.23 2447,-605.23 2447,-619.23 2447,-619.23 2447,-625.23 2441,-631.23 2435,-631.23 2435,-631.23 2261,-631.23 2261,-631.23 2255,-631.23 2249,-625.23 2249,-619.23 2249,-619.23 2249,-605.23 2249,-605.23 2249,-599.23 2255,-593.23 2261,-593.23"/>
<text text-anchor="middle" x="2348" y="-616.03" font-family="Dejavu Sans Mono" font-size="14.00">MISSING LABEL</text>
<text text-anchor="middle" x="2348" y="-601.03" font-family="Dejavu Sans Mono" font-size="14.00">(kblad:ac&#45;snl26_lnk_4)</text>
</g>
<!-- nkblad_ac_snl26_lnk_3&#45;&gt;nkblad_ac_snl26_lnk_4 -->
<g id="edge24" class="edge">
<title>nkblad_ac_snl26_lnk_3&#45;&gt;nkblad_ac_snl26_lnk_4</title>
<path fill="none" stroke="black" d="M2064.12,-654.55C2117.56,-646.55 2183.81,-636.64 2238.76,-628.42"/>
<polygon fill="black" stroke="black" points="2239.51,-631.85 2248.88,-626.91 2238.48,-624.93 2239.51,-631.85"/>
<text text-anchor="middle" x="2156.5" y="-655.03" font-family="Dejavu Sans Mono" font-size="14.00">apinatomy:next</text>
</g>
<!-- nkblad_lnk_ac_snl26_node_6_ac_snl26_node_6_clone -->
<g id="node30" class="node">
<title>nkblad_lnk_ac_snl26_node_6_ac_snl26_node_6_clone</title>
<path fill="none" stroke="black" d="M761,-240.23C761,-240.23 1158,-240.23 1158,-240.23 1164,-240.23 1170,-246.23 1170,-252.23 1170,-252.23 1170,-266.23 1170,-266.23 1170,-272.23 1164,-278.23 1158,-278.23 1158,-278.23 761,-278.23 761,-278.23 755,-278.23 749,-272.23 749,-266.23 749,-266.23 749,-252.23 749,-252.23 749,-246.23 755,-240.23 761,-240.23"/>
<text text-anchor="middle" x="959.5" y="-263.03" font-family="Dejavu Sans Mono" font-size="14.00">MISSING LABEL</text>
<text text-anchor="middle" x="959.5" y="-248.03" font-family="Dejavu Sans Mono" font-size="14.00">(kblad:lnk_ac&#45;snl26_node_6_ac&#45;snl26_node_6_clone)</text>
</g>
<!-- nkblad_lnk_ac_snl26_node_3_ac_snl26_node_3_clone -->
<g id="node31" class="node">
<title>nkblad_lnk_ac_snl26_node_3_ac_snl26_node_3_clone</title>
<path fill="none" stroke="black" d="M761,-183.23C761,-183.23 1158,-183.23 1158,-183.23 1164,-183.23 1170,-189.23 1170,-195.23 1170,-195.23 1170,-209.23 1170,-209.23 1170,-215.23 1164,-221.23 1158,-221.23 1158,-221.23 761,-221.23 761,-221.23 755,-221.23 749,-215.23 749,-209.23 749,-209.23 749,-195.23 749,-195.23 749,-189.23 755,-183.23 761,-183.23"/>
<text text-anchor="middle" x="959.5" y="-206.03" font-family="Dejavu Sans Mono" font-size="14.00">MISSING LABEL</text>
<text text-anchor="middle" x="959.5" y="-191.03" font-family="Dejavu Sans Mono" font-size="14.00">(kblad:lnk_ac&#45;snl26_node_3_ac&#45;snl26_node_3_clone)</text>
</g>
<!-- nkblad_ac_l1l26a_lnk_1 -->
<g id="node32" class="node">
<title>nkblad_ac_l1l26a_lnk_1</title>
<path fill="none" stroke="black" d="M868.5,-1367.23C868.5,-1367.23 1050.5,-1367.23 1050.5,-1367.23 1056.5,-1367.23 1062.5,-1373.23 1062.5,-1379.23 1062.5,-1379.23 1062.5,-1393.23 1062.5,-1393.23 1062.5,-1399.23 1056.5,-1405.23 1050.5,-1405.23 1050.5,-1405.23 868.5,-1405.23 868.5,-1405.23 862.5,-1405.23 856.5,-1399.23 856.5,-1393.23 856.5,-1393.23 856.5,-1379.23 856.5,-1379.23 856.5,-1373.23 862.5,-1367.23 868.5,-1367.23"/>
<text text-anchor="middle" x="959.5" y="-1390.03" font-family="Dejavu Sans Mono" font-size="14.00">MISSING LABEL</text>
<text text-anchor="middle" x="959.5" y="-1375.03" font-family="Dejavu Sans Mono" font-size="14.00">(kblad:ac&#45;l1l26a_lnk_1)</text>
</g>
<!-- nkblad_ac_l1l26a_lnk_1&#45;&gt;nkblad_ac_l1l26a -->
<g id="edge54" class="edge">
<title>nkblad_ac_l1l26a_lnk_1&#45;&gt;nkblad_ac_l1l26a</title>
<path fill="none" stroke="black" d="M1062.66,-1389.12C1176.18,-1392.07 1364.93,-1396.23 1527.5,-1396.23 1527.5,-1396.23 1527.5,-1396.23 2349,-1396.23 2477.02,-1396.23 2623.15,-1370 2714.61,-1350.37"/>
<polygon fill="black" stroke="black" points="2715.36,-1353.79 2724.39,-1348.25 2713.87,-1346.95 2715.36,-1353.79"/>
<text text-anchor="middle" x="1965" y="-1400.03" font-family="Dejavu Sans Mono" font-size="14.00">apinatomy:levelIn</text>
</g>
<!-- nkblad_ac_l1l26a_lnk_1&#45;&gt;nkblad_ac_l1l26a_lnk_2 -->
<g id="edge26" class="edge">
<title>nkblad_ac_l1l26a_lnk_1&#45;&gt;nkblad_ac_l1l26a_lnk_2</title>
<path fill="none" stroke="black" d="M1062.79,-1377.86C1104.15,-1374.51 1152.35,-1370.64 1196,-1367.23 1268.92,-1361.54 1350.87,-1355.36 1415.05,-1350.56"/>
<polygon fill="black" stroke="black" points="1415.48,-1354.04 1425.19,-1349.81 1414.96,-1347.06 1415.48,-1354.04"/>
<text text-anchor="middle" x="1266.5" y="-1371.03" font-family="Dejavu Sans Mono" font-size="14.00">apinatomy:next</text>
</g>
<!-- nkblad_lnk_ac_snl26_node_5_ac_snl26_node_5_clone -->
<g id="node33" class="node">
<title>nkblad_lnk_ac_snl26_node_5_ac_snl26_node_5_clone</title>
<path fill="none" stroke="black" d="M761,-126.23C761,-126.23 1158,-126.23 1158,-126.23 1164,-126.23 1170,-132.23 1170,-138.23 1170,-138.23 1170,-152.23 1170,-152.23 1170,-158.23 1164,-164.23 1158,-164.23 1158,-164.23 761,-164.23 761,-164.23 755,-164.23 749,-158.23 749,-152.23 749,-152.23 749,-138.23 749,-138.23 749,-132.23 755,-126.23 761,-126.23"/>
<text text-anchor="middle" x="959.5" y="-149.03" font-family="Dejavu Sans Mono" font-size="14.00">MISSING LABEL</text>
<text text-anchor="middle" x="959.5" y="-134.03" font-family="Dejavu Sans Mono" font-size="14.00">(kblad:lnk_ac&#45;snl26_node_5_ac&#45;snl26_node_5_clone)</text>
</g>
<!-- nkblad_neuron_6&#45;&gt;nkblad_lnk_snl16 -->
<g id="edge49" class="edge">
<title>nkblad_neuron_6&#45;&gt;nkblad_lnk_snl16</title>
<path fill="none" stroke="black" d="M508.27,-911.25C513.15,-1027.15 541.39,-1635.42 599,-1692.23 669.32,-1761.56 789.11,-1759.24 870.93,-1747.16"/>
<polygon fill="black" stroke="black" points="871.62,-1750.6 880.96,-1745.61 870.54,-1743.68 871.62,-1750.6"/>
<text text-anchor="middle" x="661" y="-1751.03" font-family="Dejavu Sans Mono" font-size="14.00">apinatomy:links</text>
</g>
<!-- nkblad_neuron_6&#45;&gt;nkblad_dc_snl16_lnk_1 -->
<g id="edge4" class="edge">
<title>nkblad_neuron_6&#45;&gt;nkblad_dc_snl16_lnk_1</title>
<path fill="none" stroke="black" d="M508.43,-911.46C514.01,-1023.39 544.75,-1587.88 599,-1640.23 633.85,-1673.86 757.74,-1678.17 850.41,-1676.32"/>
<polygon fill="black" stroke="black" points="850.49,-1679.82 860.4,-1676.09 850.33,-1672.82 850.49,-1679.82"/>
<text text-anchor="middle" x="661" y="-1677.03" font-family="Dejavu Sans Mono" font-size="14.00">apinatomy:links</text>
</g>
<!-- nkblad_neuron_6&#45;&gt;nkblad_lnk_ac_l1l26a_node_3_ac_l1l26a_node_3_clone -->
<g id="edge29" class="edge">
<title>nkblad_neuron_6&#45;&gt;nkblad_lnk_ac_l1l26a_node_3_ac_l1l26a_node_3_clone</title>
<path fill="none" stroke="black" d="M508.57,-911.29C514.75,-1018.57 547.54,-1544.19 599,-1592.23 620.01,-1611.84 672.29,-1620.21 730.68,-1622.87"/>
<polygon fill="black" stroke="black" points="730.73,-1626.38 740.86,-1623.28 731.01,-1619.38 730.73,-1626.38"/>
<text text-anchor="middle" x="661" y="-1626.03" font-family="Dejavu Sans Mono" font-size="14.00">apinatomy:links</text>
</g>
<!-- nkblad_neuron_6&#45;&gt;nkblad_lnk_ac_l1l26a_node_1_ac_l1l26a_node_1_clone -->
<g id="edge71" class="edge">
<title>nkblad_neuron_6&#45;&gt;nkblad_lnk_ac_l1l26a_node_1_ac_l1l26a_node_1_clone</title>
<path fill="none" stroke="black" d="M507.29,-911.53C506.67,-1007.57 509.08,-1432.8 599,-1519.23 664.96,-1582.63 772.36,-1586.15 852.62,-1577.42"/>
<polygon fill="black" stroke="black" points="853.24,-1580.88 862.77,-1576.24 852.43,-1573.92 853.24,-1580.88"/>
<text text-anchor="middle" x="661" y="-1578.03" font-family="Dejavu Sans Mono" font-size="14.00">apinatomy:links</text>
</g>
<!-- nkblad_neuron_6&#45;&gt;nkblad_dc_snl26_lnk_1 -->
<g id="edge31" class="edge">
<title>nkblad_neuron_6&#45;&gt;nkblad_dc_snl26_lnk_1</title>
<path fill="none" stroke="black" d="M507.53,-911.49C508.12,-1002.74 515.55,-1390.33 599,-1468.23 634.32,-1501.2 757.55,-1506.06 849.95,-1504.71"/>
<polygon fill="black" stroke="black" points="850.27,-1508.21 860.21,-1504.54 850.15,-1501.21 850.27,-1508.21"/>
<text text-anchor="middle" x="661" y="-1504.03" font-family="Dejavu Sans Mono" font-size="14.00">apinatomy:links</text>
</g>
<!-- nkblad_neuron_6&#45;&gt;nkblad_lnk_ac_snl16_node_3_ac_snl16_node_3_clone -->
<g id="edge47" class="edge">
<title>nkblad_neuron_6&#45;&gt;nkblad_lnk_ac_snl16_node_3_ac_snl16_node_3_clone</title>
<path fill="none" stroke="black" d="M507.79,-911.36C509.53,-997.79 521.38,-1350.55 599,-1420.23 621.26,-1440.22 677.1,-1448.48 738.3,-1450.98"/>
<polygon fill="black" stroke="black" points="738.45,-1454.49 748.57,-1451.35 738.7,-1447.49 738.45,-1454.49"/>
<text text-anchor="middle" x="661" y="-1453.03" font-family="Dejavu Sans Mono" font-size="14.00">apinatomy:links</text>
</g>
<!-- nkblad_neuron_6&#45;&gt;nkblad_ac_l1l26a_lnk_3 -->
<g id="edge44" class="edge">
<title>nkblad_neuron_6&#45;&gt;nkblad_ac_l1l26a_lnk_3</title>
<path fill="none" stroke="black" d="M509.22,-911.33C515.91,-980.75 542.63,-1217.93 599,-1263.23 647.47,-1302.18 1533.66,-1300.12 1851.62,-1298.11"/>
<polygon fill="black" stroke="black" points="1851.8,-1301.61 1861.78,-1298.05 1851.75,-1294.61 1851.8,-1301.61"/>
<text text-anchor="middle" x="1266.5" y="-1302.03" font-family="Dejavu Sans Mono" font-size="14.00">apinatomy:links</text>
</g>
<!-- nkblad_neuron_6&#45;&gt;nkblad_lnk_ac_snl26_node_2_ac_snl26_node_2_clone -->
<g id="edge35" class="edge">
<title>nkblad_neuron_6&#45;&gt;nkblad_lnk_ac_snl26_node_2_ac_snl26_node_2_clone</title>
<path fill="none" stroke="black" d="M507.31,-911.47C507.97,-962.61 517.49,-1102.39 599,-1167.23 664.85,-1219.61 760.48,-1226.41 836.55,-1221.03"/>
<polygon fill="black" stroke="black" points="836.98,-1224.5 846.68,-1220.23 836.43,-1217.53 836.98,-1224.5"/>
<text text-anchor="middle" x="661" y="-1221.03" font-family="Dejavu Sans Mono" font-size="14.00">apinatomy:links</text>
</g>
<!-- nkblad_neuron_6&#45;&gt;nkblad_ac_snl16_lnk_1 -->
<g id="edge68" class="edge">
<title>nkblad_neuron_6&#45;&gt;nkblad_ac_snl16_lnk_1</title>
<path fill="none" stroke="black" d="M511.37,-911.35C519.94,-948.27 544.25,-1028.99 599,-1066.23 672.15,-1115.99 773.7,-1122.79 850.22,-1118.84"/>
<polygon fill="black" stroke="black" points="850.59,-1122.32 860.37,-1118.24 850.19,-1115.33 850.59,-1122.32"/>
<text text-anchor="middle" x="661" y="-1115.03" font-family="Dejavu Sans Mono" font-size="14.00">apinatomy:links</text>
</g>
<!-- nkblad_neuron_6&#45;&gt;nkblad_ac_snl16_lnk_6 -->
<g id="edge36" class="edge">
<title>nkblad_neuron_6&#45;&gt;nkblad_ac_snl16_lnk_6</title>
<path fill="none" stroke="black" d="M581.31,-904.38C587.28,-905.11 593.24,-905.74 599,-906.23 1419.26,-976.42 1628.12,-916.12 2451,-941.23 2701.3,-948.87 2995.09,-962.39 3149.89,-969.88"/>
<polygon fill="black" stroke="black" points="3149.73,-973.37 3159.89,-970.36 3150.07,-966.38 3149.73,-973.37"/>
<text text-anchor="middle" x="1965" y="-939.03" font-family="Dejavu Sans Mono" font-size="14.00">apinatomy:links</text>
</g>
<!-- nkblad_neuron_6&#45;&gt;nkblad_ac_snl16_lnk_3 -->
<g id="edge33" class="edge">
<title>nkblad_neuron_6&#45;&gt;nkblad_ac_snl16_lnk_3</title>
<path fill="none" stroke="black" d="M520.3,-911.6C535.94,-933.34 564.59,-967.49 599,-982.23 713.05,-1031.08 1553.1,-1029.46 1855.73,-1027.25"/>
<polygon fill="black" stroke="black" points="1855.86,-1030.75 1865.83,-1027.17 1855.81,-1023.75 1855.86,-1030.75"/>
<text text-anchor="middle" x="1266.5" y="-1030.03" font-family="Dejavu Sans Mono" font-size="14.00">apinatomy:links</text>
</g>
<!-- nkblad_neuron_6&#45;&gt;nkblad_ac_snl16_lnk_5 -->
<g id="edge62" class="edge">
<title>nkblad_neuron_6&#45;&gt;nkblad_ac_snl16_lnk_5</title>
<path fill="none" stroke="black" d="M508.17,-911.24C510.95,-957.9 525.29,-1078.06 599,-1130.23 683.95,-1190.36 2020.95,-1140.38 2068,-1136.23 2303.38,-1115.46 2576.21,-1058.04 2714.36,-1026.56"/>
<polygon fill="black" stroke="black" points="2715.51,-1029.89 2724.47,-1024.25 2713.94,-1023.06 2715.51,-1029.89"/>
<text text-anchor="middle" x="1782" y="-1152.03" font-family="Dejavu Sans Mono" font-size="14.00">apinatomy:links</text>
</g>
<!-- nkblad_neuron_6&#45;&gt;nkblad_lnk_ac_snl16_node_6_ac_snl16_node_6_clone -->
<g id="edge60" class="edge">
<title>nkblad_neuron_6&#45;&gt;nkblad_lnk_ac_snl16_node_6_ac_snl16_node_6_clone</title>
<path fill="none" stroke="black" d="M559.66,-873.19C572.38,-869.25 586.05,-865.58 599,-863.23 643.83,-855.08 692.28,-850.03 738.65,-846.98"/>
<polygon fill="black" stroke="black" points="739.06,-850.46 748.82,-846.34 738.62,-843.47 739.06,-850.46"/>
<text text-anchor="middle" x="661" y="-867.03" font-family="Dejavu Sans Mono" font-size="14.00">apinatomy:links</text>
</g>
<!-- nkblad_neuron_6&#45;&gt;nkblad_ac_snl26_lnk_7 -->
<g id="edge22" class="edge">
<title>nkblad_neuron_6&#45;&gt;nkblad_ac_snl26_lnk_7</title>
<path fill="none" stroke="black" d="M510.17,-872.89C519.28,-809.91 551.26,-612.46 599,-573.23 618.21,-557.45 807.67,-519.23 2155.5,-519.23 2155.5,-519.23 2155.5,-519.23 3072.5,-519.23 3199.54,-519.23 3231.43,-522.32 3358,-533.23 3413.16,-537.99 3474.29,-545.34 3524.89,-551.99"/>
<polygon fill="black" stroke="black" points="3524.49,-555.46 3534.86,-553.31 3525.41,-548.53 3524.49,-555.46"/>
<text text-anchor="middle" x="2156.5" y="-524.03" font-family="Dejavu Sans Mono" font-size="14.00">apinatomy:links</text>
</g>
<!-- nkblad_neuron_6&#45;&gt;nkblad_ac_snl26_lnk_2 -->
<g id="edge51" class="edge">
<title>nkblad_neuron_6&#45;&gt;nkblad_ac_snl26_lnk_2</title>
<path fill="none" stroke="black" d="M512.28,-873.1C522.1,-838.14 547.99,-764.24 599,-728.23 728.01,-637.16 1203.25,-674.92 1419.31,-697.68"/>
<polygon fill="black" stroke="black" points="1419.08,-701.17 1429.4,-698.75 1419.82,-694.21 1419.08,-701.17"/>
<text text-anchor="middle" x="959.5" y="-686.03" font-family="Dejavu Sans Mono" font-size="14.00">apinatomy:links</text>
</g>
<!-- nkblad_neuron_6&#45;&gt;nkblad_ac_snl26_lnk_5 -->
<g id="edge53" class="edge">
<title>nkblad_neuron_6&#45;&gt;nkblad_ac_snl26_lnk_5</title>
<path fill="none" stroke="black" d="M539.59,-873.07C556.73,-863.54 578.47,-852.52 599,-845.23 659.78,-823.64 676.94,-822.8 741,-815.23 1326.92,-745.97 1481.05,-839.06 2068,-779.23 2301.42,-755.44 2572.19,-699.98 2711.34,-669.41"/>
<polygon fill="black" stroke="black" points="2712.11,-672.82 2721.13,-667.25 2710.61,-665.98 2712.11,-672.82"/>
<text text-anchor="middle" x="1782" y="-804.03" font-family="Dejavu Sans Mono" font-size="14.00">apinatomy:links</text>
</g>
<!-- nkblad_neuron_6&#45;&gt;nkblad_ac_snl26_lnk_1 -->
<g id="edge39" class="edge">
<title>nkblad_neuron_6&#45;&gt;nkblad_ac_snl26_lnk_1</title>
<path fill="none" stroke="black" d="M515.22,-872.77C527.86,-843.87 555.95,-790.52 599,-767.23 675.52,-725.84 775.12,-723.84 850.07,-730.64"/>
<polygon fill="black" stroke="black" points="850.19,-734.16 860.48,-731.65 850.87,-727.2 850.19,-734.16"/>
<text text-anchor="middle" x="661" y="-771.03" font-family="Dejavu Sans Mono" font-size="14.00">apinatomy:links</text>
</g>
<!-- nkblad_neuron_6&#45;&gt;nkblad_ac_l1l26a_lnk_4 -->
<g id="edge13" class="edge">
<title>nkblad_neuron_6&#45;&gt;nkblad_ac_l1l26a_lnk_4</title>
<path fill="none" stroke="black" d="M509.6,-911.29C517.29,-977.29 546.28,-1194.34 599,-1235.23 663.61,-1285.34 1858.5,-1262.41 2234.63,-1253.91"/>
<polygon fill="black" stroke="black" points="2234.79,-1257.41 2244.71,-1253.68 2234.63,-1250.41 2234.79,-1257.41"/>
<text text-anchor="middle" x="1528.5" y="-1270.03" font-family="Dejavu Sans Mono" font-size="14.00">apinatomy:links</text>
</g>
<!-- nkblad_neuron_6&#45;&gt;nkblad_ac_l1l26a_lnk_2 -->
<g id="edge64" class="edge">
<title>nkblad_neuron_6&#45;&gt;nkblad_ac_l1l26a_lnk_2</title>
<path fill="none" stroke="black" d="M508.8,-911.42C514.22,-985.32 537.72,-1249.88 599,-1301.23 629.79,-1327.03 1174.52,-1337.5 1414.99,-1340.88"/>
<polygon fill="black" stroke="black" points="1415.11,-1344.38 1425.16,-1341.02 1415.21,-1337.38 1415.11,-1344.38"/>
<text text-anchor="middle" x="959.5" y="-1340.03" font-family="Dejavu Sans Mono" font-size="14.00">apinatomy:links</text>
</g>
<!-- nkblad_neuron_6&#45;&gt;nkblad_lnk_snl26 -->
<g id="edge48" class="edge">
<title>nkblad_neuron_6&#45;&gt;nkblad_lnk_snl26</title>
<path fill="none" stroke="black" d="M509.1,-872.91C515.42,-801.55 541.23,-554.44 599,-506.23 638.72,-473.08 777.4,-474.86 870.44,-480.25"/>
<polygon fill="black" stroke="black" points="870.51,-483.77 880.71,-480.88 870.94,-476.78 870.51,-483.77"/>
<text text-anchor="middle" x="661" y="-510.03" font-family="Dejavu Sans Mono" font-size="14.00">apinatomy:links</text>
</g>
<!-- nkblad_neuron_6&#45;&gt;nkblad_lnk_ac_snl16_node_5_ac_snl16_node_5_clone -->
<g id="edge19" class="edge">
<title>nkblad_neuron_6&#45;&gt;nkblad_lnk_ac_snl16_node_5_ac_snl16_node_5_clone</title>
<path fill="none" stroke="black" d="M508.62,-873.1C513.49,-796.86 535.53,-516.19 599,-460.23 670.06,-397.57 782.68,-398.49 862.92,-409.73"/>
<polygon fill="black" stroke="black" points="862.63,-413.22 873.03,-411.22 863.65,-406.3 862.63,-413.22"/>
<text text-anchor="middle" x="661" y="-464.03" font-family="Dejavu Sans Mono" font-size="14.00">apinatomy:links</text>
</g>
<!-- nkblad_neuron_6&#45;&gt;nkblad_lnk_ac_snl26_node_4_ac_snl26_node_4_clone -->
<g id="edge52" class="edge">
<title>nkblad_neuron_6&#45;&gt;nkblad_lnk_ac_snl26_node_4_ac_snl26_node_4_clone</title>
<path fill="none" stroke="black" d="M507.95,-873.16C510.34,-789.41 524.5,-455.42 599,-390.23 621.49,-370.55 677.39,-363.2 738.57,-361.72"/>
<polygon fill="black" stroke="black" points="738.9,-365.21 748.83,-361.53 738.77,-358.22 738.9,-365.21"/>
<text text-anchor="middle" x="661" y="-394.03" font-family="Dejavu Sans Mono" font-size="14.00">apinatomy:links</text>
</g>
<!-- nkblad_neuron_6&#45;&gt;nkblad_ac_snl26_lnk_6 -->
<g id="edge57" class="edge">
<title>nkblad_neuron_6&#45;&gt;nkblad_ac_snl26_lnk_6</title>
<path fill="none" stroke="black" d="M510.52,-872.96C520.33,-812.99 553.39,-631.59 599,-597.23 681.18,-535.32 2348.14,-580.87 2451,-583.23 2701.37,-588.98 2995.13,-603.74 3149.91,-612.14"/>
<polygon fill="black" stroke="black" points="3149.73,-615.64 3159.9,-612.69 3150.11,-608.65 3149.73,-615.64"/>
<text text-anchor="middle" x="1965" y="-579.03" font-family="Dejavu Sans Mono" font-size="14.00">apinatomy:links</text>
</g>
<!-- nkblad_neuron_6&#45;&gt;nkblad_lnk_ac_l1l26a_node_2_ac_l1l26a_node_2_clone -->
<g id="edge15" class="edge">
<title>nkblad_neuron_6&#45;&gt;nkblad_lnk_ac_l1l26a_node_2_ac_l1l26a_node_2_clone</title>
<path fill="none" stroke="black" d="M507.68,-873C508.96,-784.48 519.07,-417.44 599,-344.23 670.94,-278.34 788.51,-282.29 869.5,-295.47"/>
<polygon fill="black" stroke="black" points="869.24,-298.98 879.68,-297.21 870.41,-292.08 869.24,-298.98"/>
<text text-anchor="middle" x="661" y="-348.03" font-family="Dejavu Sans Mono" font-size="14.00">apinatomy:links</text>
</g>
<!-- nkblad_neuron_6&#45;&gt;nkblad_ac_snl26_lnk_3 -->
<g id="edge40" class="edge">
<title>nkblad_neuron_6&#45;&gt;nkblad_ac_snl26_lnk_3</title>
<path fill="none" stroke="black" d="M509.66,-873.15C515.52,-831.23 535.77,-731.09 599,-684.23 650.07,-646.39 677.58,-671.43 741,-667.23 1151.9,-640 1642.17,-655.18 1855.7,-664.13"/>
<polygon fill="black" stroke="black" points="1855.82,-667.64 1865.96,-664.57 1856.12,-660.65 1855.82,-667.64"/>
<text text-anchor="middle" x="1266.5" y="-656.03" font-family="Dejavu Sans Mono" font-size="14.00">apinatomy:links</text>
</g>
<!-- nkblad_neuron_6&#45;&gt;nkblad_lnk_ac_snl26_node_6_ac_snl26_node_6_clone -->
<g id="edge55" class="edge">
<title>nkblad_neuron_6&#45;&gt;nkblad_lnk_ac_snl26_node_6_ac_snl26_node_6_clone</title>
<path fill="none" stroke="black" d="M507.22,-873.06C506.27,-777.66 507.34,-355.5 599,-273.23 621.24,-253.27 677.06,-246.28 738.27,-245.34"/>
<polygon fill="black" stroke="black" points="738.57,-248.84 748.54,-245.24 738.5,-241.84 738.57,-248.84"/>
<text text-anchor="middle" x="661" y="-277.03" font-family="Dejavu Sans Mono" font-size="14.00">apinatomy:links</text>
</g>
<!-- nkblad_neuron_6&#45;&gt;nkblad_lnk_ac_snl26_node_3_ac_snl26_node_3_clone -->
<g id="edge28" class="edge">
<title>nkblad_neuron_6&#45;&gt;nkblad_lnk_ac_snl26_node_3_ac_snl26_node_3_clone</title>
<path fill="none" stroke="black" d="M508.71,-873.12C515.5,-768.96 550.26,-272.79 599,-227.23 620.92,-206.74 676.87,-198.09 738.28,-195.29"/>
<polygon fill="black" stroke="black" points="738.74,-198.78 748.59,-194.88 738.45,-191.78 738.74,-198.78"/>
<text text-anchor="middle" x="661" y="-231.03" font-family="Dejavu Sans Mono" font-size="14.00">apinatomy:links</text>
</g>
<!-- nkblad_neuron_6&#45;&gt;nkblad_ac_l1l26a_lnk_1 -->
<g id="edge8" class="edge">
<title>nkblad_neuron_6&#45;&gt;nkblad_ac_l1l26a_lnk_1</title>
<path fill="none" stroke="black" d="M508.43,-911.25C512.7,-989.71 533.04,-1286.98 599,-1347.23 664.57,-1407.12 767.43,-1412.73 846.36,-1405.77"/>
<polygon fill="black" stroke="black" points="846.73,-1409.25 856.35,-1404.81 846.06,-1402.28 846.73,-1409.25"/>
<text text-anchor="middle" x="661" y="-1405.03" font-family="Dejavu Sans Mono" font-size="14.00">apinatomy:links</text>
</g>
<!-- nkblad_neuron_6&#45;&gt;nkblad_lnk_ac_snl26_node_5_ac_snl26_node_5_clone -->
<g id="edge63" class="edge">
<title>nkblad_neuron_6&#45;&gt;nkblad_lnk_ac_snl26_node_5_ac_snl26_node_5_clone</title>
<path fill="none" stroke="black" d="M508.54,-873.15C514.61,-764.5 547.15,-227.12 599,-177.23 668.6,-110.25 784.74,-112.34 866.13,-124.59"/>
<polygon fill="black" stroke="black" points="865.95,-128.11 876.37,-126.22 867.05,-121.2 865.95,-128.11"/>
<text text-anchor="middle" x="661" y="-181.03" font-family="Dejavu Sans Mono" font-size="14.00">apinatomy:links</text>
</g>
<!-- nkblad_lnk_ac_snl16_node_2_ac_snl16_node_2_clone -->
<g id="node36" class="node">
<title>nkblad_lnk_ac_snl16_node_2_ac_snl16_node_2_clone</title>
<path fill="none" stroke="black" d="M761,-69.23C761,-69.23 1158,-69.23 1158,-69.23 1164,-69.23 1170,-75.23 1170,-81.23 1170,-81.23 1170,-95.23 1170,-95.23 1170,-101.23 1164,-107.23 1158,-107.23 1158,-107.23 761,-107.23 761,-107.23 755,-107.23 749,-101.23 749,-95.23 749,-95.23 749,-81.23 749,-81.23 749,-75.23 755,-69.23 761,-69.23"/>
<text text-anchor="middle" x="959.5" y="-92.03" font-family="Dejavu Sans Mono" font-size="14.00">MISSING LABEL</text>
<text text-anchor="middle" x="959.5" y="-77.03" font-family="Dejavu Sans Mono" font-size="14.00">(kblad:lnk_ac&#45;snl16_node_2_ac&#45;snl16_node_2_clone)</text>
</g>
<!-- nkblad_neuron_6&#45;&gt;nkblad_lnk_ac_snl16_node_2_ac_snl16_node_2_clone -->
<g id="edge25" class="edge">
<title>nkblad_neuron_6&#45;&gt;nkblad_lnk_ac_snl16_node_2_ac_snl16_node_2_clone</title>
<path fill="none" stroke="black" d="M508.27,-873.08C513.07,-757.72 540.73,-158.49 599,-104.23 620.92,-83.81 676.88,-76.45 738.29,-75.22"/>
<polygon fill="black" stroke="black" points="738.65,-78.72 748.6,-75.07 738.55,-71.72 738.65,-78.72"/>
<text text-anchor="middle" x="661" y="-108.03" font-family="Dejavu Sans Mono" font-size="14.00">apinatomy:links</text>
</g>
<!-- nkblad_lnk_ac_snl16_node_4_ac_snl16_node_4_clone -->
<g id="node37" class="node">
<title>nkblad_lnk_ac_snl16_node_4_ac_snl16_node_4_clone</title>
<path fill="none" stroke="black" d="M761,-12.23C761,-12.23 1158,-12.23 1158,-12.23 1164,-12.23 1170,-18.23 1170,-24.23 1170,-24.23 1170,-38.23 1170,-38.23 1170,-44.23 1164,-50.23 1158,-50.23 1158,-50.23 761,-50.23 761,-50.23 755,-50.23 749,-44.23 749,-38.23 749,-38.23 749,-24.23 749,-24.23 749,-18.23 755,-12.23 761,-12.23"/>
<text text-anchor="middle" x="959.5" y="-35.03" font-family="Dejavu Sans Mono" font-size="14.00">MISSING LABEL</text>
<text text-anchor="middle" x="959.5" y="-20.03" font-family="Dejavu Sans Mono" font-size="14.00">(kblad:lnk_ac&#45;snl16_node_4_ac&#45;snl16_node_4_clone)</text>
</g>
<!-- nkblad_neuron_6&#45;&gt;nkblad_lnk_ac_snl16_node_4_ac_snl16_node_4_clone -->
<g id="edge32" class="edge">
<title>nkblad_neuron_6&#45;&gt;nkblad_lnk_ac_snl16_node_4_ac_snl16_node_4_clone</title>
<path fill="none" stroke="black" d="M508.16,-873.14C512.43,-754.01 538.1,-115.92 599,-57.23 671.16,12.31 793.73,5.02 875.4,-10.19"/>
<polygon fill="black" stroke="black" points="875.16,-13.71 885.64,-12.18 876.49,-6.84 875.16,-13.71"/>
<text text-anchor="middle" x="661" y="-61.03" font-family="Dejavu Sans Mono" font-size="14.00">apinatomy:links</text>
</g>
<!-- nkblad_neuron_6&#45;&gt;nkblad_ac_snl16_lnk_7 -->
<g id="edge14" class="edge">
<title>nkblad_neuron_6&#45;&gt;nkblad_ac_snl16_lnk_7</title>
<path fill="none" stroke="black" d="M581,-891.01C812.49,-887.27 1547.13,-876.23 2155.5,-876.23 2155.5,-876.23 2155.5,-876.23 3072.5,-876.23 3199.54,-876.23 3231.43,-879.32 3358,-890.23 3413.16,-894.99 3474.29,-902.34 3524.89,-908.99"/>
<polygon fill="black" stroke="black" points="3524.49,-912.46 3534.86,-910.31 3525.41,-905.53 3524.49,-912.46"/>
<text text-anchor="middle" x="2156.5" y="-881.03" font-family="Dejavu Sans Mono" font-size="14.00">apinatomy:links</text>
</g>
<!-- nkblad_neuron_6&#45;&gt;nkblad_ac_snl26_lnk_4 -->
<g id="edge2" class="edge">
<title>nkblad_neuron_6&#45;&gt;nkblad_ac_snl26_lnk_4</title>
<path fill="none" stroke="black" d="M508.74,-873.07C512.8,-827.71 529.73,-713.51 599,-659.23 725.88,-559.8 797.3,-611.23 958.5,-611.23 958.5,-611.23 958.5,-611.23 1966,-611.23 2057.95,-611.23 2162.38,-611.52 2238.63,-611.79"/>
<polygon fill="black" stroke="black" points="2238.71,-615.29 2248.72,-611.83 2238.73,-608.29 2238.71,-615.29"/>
<text text-anchor="middle" x="1528.5" y="-615.03" font-family="Dejavu Sans Mono" font-size="14.00">apinatomy:links</text>
</g>
<!-- nkblad_neuron_6&#45;&gt;nkblad_ac_snl16_lnk_2 -->
<g id="edge37" class="edge">
<title>nkblad_neuron_6&#45;&gt;nkblad_ac_snl16_lnk_2</title>
<path fill="none" stroke="black" d="M514.88,-911.67C527.23,-941.14 555.14,-996.25 599,-1020.23 634.43,-1039.6 1181.89,-1057.41 1419.18,-1064.26"/>
<polygon fill="black" stroke="black" points="1419.11,-1067.76 1429.21,-1064.55 1419.31,-1060.76 1419.11,-1067.76"/>
<text text-anchor="middle" x="959.5" y="-1060.03" font-family="Dejavu Sans Mono" font-size="14.00">apinatomy:links</text>
</g>
<!-- nkblad_neuron_6&#45;&gt;nkblad_ac_snl16_lnk_4 -->
<g id="edge6" class="edge">
<title>nkblad_neuron_6&#45;&gt;nkblad_ac_snl16_lnk_4</title>
<path fill="none" stroke="black" d="M533.67,-911.34C551.22,-923.06 575.38,-937.14 599,-944.23 752.37,-990.28 798.37,-968.23 958.5,-968.23 958.5,-968.23 958.5,-968.23 1966,-968.23 2057.95,-968.23 2162.38,-968.52 2238.63,-968.79"/>
<polygon fill="black" stroke="black" points="2238.71,-972.29 2248.72,-968.83 2238.73,-965.29 2238.71,-972.29"/>
<text text-anchor="middle" x="1528.5" y="-972.03" font-family="Dejavu Sans Mono" font-size="14.00">apinatomy:links</text>
</g>
<!-- nkblad_ac_snl16_lnk_7&#45;&gt;nkblad_ac_snl16 -->
<g id="edge17" class="edge">
<title>nkblad_ac_snl16_lnk_7&#45;&gt;nkblad_ac_snl16</title>
<path fill="none" stroke="black" d="M3733.18,-927.91C3781.58,-931.4 3840.47,-938.15 3892,-951.23 3936.75,-962.59 3985.08,-983.32 4019.42,-999.64"/>
<polygon fill="black" stroke="black" points="4018.19,-1002.93 4028.72,-1004.11 4021.22,-996.62 4018.19,-1002.93"/>
<text text-anchor="middle" x="3821.5" y="-955.03" font-family="Dejavu Sans Mono" font-size="14.00">apinatomy:levelIn</text>
</g>
<!-- nkblad_ac_snl26_lnk_4&#45;&gt;nkblad_ac_snl26_lnk_5 -->
<g id="edge67" class="edge">
<title>nkblad_ac_snl26_lnk_4&#45;&gt;nkblad_ac_snl26_lnk_5</title>
<path fill="none" stroke="black" d="M2447.28,-620C2520.61,-625.79 2620.77,-633.71 2696.37,-639.68"/>
<polygon fill="black" stroke="black" points="2696.16,-643.18 2706.4,-640.48 2696.71,-636.2 2696.16,-643.18"/>
<text text-anchor="middle" x="2539.5" y="-637.03" font-family="Dejavu Sans Mono" font-size="14.00">apinatomy:next</text>
</g>
<!-- nkblad_ac_snl26_lnk_4&#45;&gt;nkblad_ac_snl26 -->
<g id="edge23" class="edge">
<title>nkblad_ac_snl26_lnk_4&#45;&gt;nkblad_ac_snl26</title>
<path fill="none" stroke="black" d="M2447.38,-596.89C2674.39,-563.69 3252.19,-491.8 3733,-538.23 3804.66,-545.15 3824.38,-544.5 3892,-569.23 3942.39,-587.66 3995.61,-619.37 4029.72,-641.5"/>
<polygon fill="black" stroke="black" points="4028.11,-644.63 4038.39,-647.19 4031.95,-638.78 4028.11,-644.63"/>
<text text-anchor="middle" x="3259" y="-532.03" font-family="Dejavu Sans Mono" font-size="14.00">apinatomy:levelIn</text>
</g>
<!-- nkblad_ac_snl16_lnk_2&#45;&gt;nkblad_ac_snl16_lnk_3 -->
<g id="edge42" class="edge">
<title>nkblad_ac_snl16_lnk_2&#45;&gt;nkblad_ac_snl16_lnk_3</title>
<path fill="none" stroke="black" d="M1627.55,-1057.98C1695.42,-1051.57 1785.77,-1043.05 1855.76,-1036.44"/>
<polygon fill="black" stroke="black" points="1856.3,-1039.91 1865.93,-1035.48 1855.64,-1032.94 1856.3,-1039.91"/>
<text text-anchor="middle" x="1782" y="-1052.03" font-family="Dejavu Sans Mono" font-size="14.00">apinatomy:next</text>
</g>
<!-- nkblad_ac_snl16_lnk_2&#45;&gt;nkblad_ac_snl16 -->
<g id="edge69" class="edge">
<title>nkblad_ac_snl16_lnk_2&#45;&gt;nkblad_ac_snl16</title>
<path fill="none" stroke="black" d="M1627.74,-1070.68C1871.79,-1078.96 2525.28,-1099.23 3070.5,-1099.23 3070.5,-1099.23 3070.5,-1099.23 3635,-1099.23 3760.89,-1099.23 3904.37,-1067.39 3989.93,-1044.93"/>
<polygon fill="black" stroke="black" points="3991.05,-1048.26 3999.82,-1042.31 3989.26,-1041.49 3991.05,-1048.26"/>
<text text-anchor="middle" x="2805.5" y="-1102.03" font-family="Dejavu Sans Mono" font-size="14.00">apinatomy:levelIn</text>
</g>
<!-- nkblad_ac_snl16_lnk_4&#45;&gt;nkblad_ac_snl16_lnk_5 -->
<g id="edge18" class="edge">
<title>nkblad_ac_snl16_lnk_4&#45;&gt;nkblad_ac_snl16_lnk_5</title>
<path fill="none" stroke="black" d="M2447.28,-977C2520.61,-982.79 2620.77,-990.71 2696.37,-996.68"/>
<polygon fill="black" stroke="black" points="2696.16,-1000.18 2706.4,-997.48 2696.71,-993.2 2696.16,-1000.18"/>
<text text-anchor="middle" x="2539.5" y="-993.03" font-family="Dejavu Sans Mono" font-size="14.00">apinatomy:next</text>
</g>
<!-- nkblad_ac_snl16_lnk_4&#45;&gt;nkblad_ac_snl16 -->
<g id="edge66" class="edge">
<title>nkblad_ac_snl16_lnk_4&#45;&gt;nkblad_ac_snl16</title>
<path fill="none" stroke="black" d="M2447.36,-954.09C2674.33,-921.32 3252.05,-850.25 3733,-895.23 3804.6,-901.93 3824.44,-900.59 3892,-925.23 3942.68,-943.71 3996.03,-975.93 4030.09,-998.36"/>
<polygon fill="black" stroke="black" points="4028.47,-1001.49 4038.74,-1004.12 4032.35,-995.66 4028.47,-1001.49"/>
<text text-anchor="middle" x="3259" y="-890.03" font-family="Dejavu Sans Mono" font-size="14.00">apinatomy:levelIn</text>
</g>
</g>
</svg>
