<?xml version="1.0" encoding="UTF-8" standalone="no"?>
<!DOCTYPE svg PUBLIC "-//W3C//DTD SVG 1.1//EN"
 "http://www.w3.org/Graphics/SVG/1.1/DTD/svg11.dtd">
<!-- Generated by graphviz version 2.47.1 (20210417.1919)
 -->
<!-- Pages: 1 -->
<svg width="3592pt" height="731pt"
 viewBox="0.00 0.00 3592.00 731.00" xmlns="http://www.w3.org/2000/svg" xmlns:xlink="http://www.w3.org/1999/xlink">
<g id="graph0" class="graph" transform="scale(1 1) rotate(0) translate(4 727)">
<polygon fill="white" stroke="transparent" points="-4,4 -4,-727 3588,-727 3588,4 -4,4"/>
<!-- nilxtr_neuron_type_bolew_18 -->
<g id="node1" class="node">
<title>nilxtr_neuron_type_bolew_18</title>
<path fill="none" stroke="black" d="M16.5,-0.5C16.5,-0.5 2871.5,-0.5 2871.5,-0.5 2877.5,-0.5 2883.5,-6.5 2883.5,-12.5 2883.5,-12.5 2883.5,-26.5 2883.5,-26.5 2883.5,-32.5 2877.5,-38.5 2871.5,-38.5 2871.5,-38.5 16.5,-38.5 16.5,-38.5 10.5,-38.5 4.5,-32.5 4.5,-26.5 4.5,-26.5 4.5,-12.5 4.5,-12.5 4.5,-6.5 10.5,-0.5 16.5,-0.5"/>
<text text-anchor="middle" x="1444" y="-23.3" font-family="Dejavu Sans Mono" font-size="14.00">Mammalia superior cervical ganglion (with&#45;dendrite&#45;in superior cervical ganglion) (with&#45;axons&#45;in External branch of superior laryngeal nerve) External carotid nerve plexus superior cervical ganglion superior laryngeal nerve vagus nerve (with&#45;presynaptic&#45;terminals&#45;in External branch of inferior laryngeal nerve) neuron projection phenotype (bolew)</text>
<text text-anchor="middle" x="1444" y="-8.3" font-family="Dejavu Sans Mono" font-size="14.00">(ilxtr:neuron&#45;type&#45;bolew&#45;18)</text>
</g>
<!-- nbolew_neuron_18 -->
<g id="node17" class="node">
<title>nbolew_neuron_18</title>
<path fill="none" stroke="black" d="M3093,-0.5C3093,-0.5 3572,-0.5 3572,-0.5 3578,-0.5 3584,-6.5 3584,-12.5 3584,-12.5 3584,-26.5 3584,-26.5 3584,-32.5 3578,-38.5 3572,-38.5 3572,-38.5 3093,-38.5 3093,-38.5 3087,-38.5 3081,-32.5 3081,-26.5 3081,-26.5 3081,-12.5 3081,-12.5 3081,-6.5 3087,-0.5 3093,-0.5"/>
<text text-anchor="middle" x="3332.5" y="-23.3" font-family="Dejavu Sans Mono" font-size="14.00">Neuron population in superior cervical ganglion (6) (bolew)</text>
<text text-anchor="middle" x="3332.5" y="-8.3" font-family="Dejavu Sans Mono" font-size="14.00">(bolew:neuron&#45;18)</text>
</g>
<!-- nilxtr_neuron_type_bolew_18&#45;&gt;nbolew_neuron_18 -->
<g id="edge9" class="edge">
<title>nilxtr_neuron_type_bolew_18&#45;&gt;nbolew_neuron_18</title>
<path fill="none" stroke="black" d="M2883.53,-19.5C2951.44,-19.5 3014.58,-19.5 3070.76,-19.5"/>
<polygon fill="black" stroke="black" points="3070.8,-23 3080.8,-19.5 3070.8,-16 3070.8,-23"/>
<text text-anchor="middle" x="2984.5" y="-23.3" font-family="Dejavu Sans Mono" font-size="14.00">apinatomy:annotates</text>
</g>
<!-- nilxtr_neuron_type_bolew_17 -->
<g id="node2" class="node">
<title>nilxtr_neuron_type_bolew_17</title>
<path fill="none" stroke="black" d="M169,-57.5C169,-57.5 2719,-57.5 2719,-57.5 2725,-57.5 2731,-63.5 2731,-69.5 2731,-69.5 2731,-83.5 2731,-83.5 2731,-89.5 2725,-95.5 2719,-95.5 2719,-95.5 169,-95.5 169,-95.5 163,-95.5 157,-89.5 157,-83.5 157,-83.5 157,-69.5 157,-69.5 157,-63.5 163,-57.5 169,-57.5"/>
<text text-anchor="middle" x="1444" y="-80.3" font-family="Dejavu Sans Mono" font-size="14.00">Mammalia superior cervical ganglion (with&#45;dendrite&#45;in superior cervical ganglion) (with&#45;axons&#45;in External carotid nerve plexus Internal branch of superior laryngeal nerve) superior cervical ganglion superior laryngeal nerve vagus nerve (with&#45;presynaptic&#45;terminals&#45;in larynx) neuron projection phenotype (bolew)</text>
<text text-anchor="middle" x="1444" y="-65.3" font-family="Dejavu Sans Mono" font-size="14.00">(ilxtr:neuron&#45;type&#45;bolew&#45;17)</text>
</g>
<!-- nbolew_neuron_17 -->
<g id="node11" class="node">
<title>nbolew_neuron_17</title>
<path fill="none" stroke="black" d="M3093,-57.5C3093,-57.5 3572,-57.5 3572,-57.5 3578,-57.5 3584,-63.5 3584,-69.5 3584,-69.5 3584,-83.5 3584,-83.5 3584,-89.5 3578,-95.5 3572,-95.5 3572,-95.5 3093,-95.5 3093,-95.5 3087,-95.5 3081,-89.5 3081,-83.5 3081,-83.5 3081,-69.5 3081,-69.5 3081,-63.5 3087,-57.5 3093,-57.5"/>
<text text-anchor="middle" x="3332.5" y="-80.3" font-family="Dejavu Sans Mono" font-size="14.00">Neuron population in superior cervical ganglion (5) (bolew)</text>
<text text-anchor="middle" x="3332.5" y="-65.3" font-family="Dejavu Sans Mono" font-size="14.00">(bolew:neuron&#45;17)</text>
</g>
<!-- nilxtr_neuron_type_bolew_17&#45;&gt;nbolew_neuron_17 -->
<g id="edge4" class="edge">
<title>nilxtr_neuron_type_bolew_17&#45;&gt;nbolew_neuron_17</title>
<path fill="none" stroke="black" d="M2731.03,-76.5C2857.4,-76.5 2974.26,-76.5 3070.66,-76.5"/>
<polygon fill="black" stroke="black" points="3070.82,-80 3080.82,-76.5 3070.82,-73 3070.82,-80"/>
<text text-anchor="middle" x="2984.5" y="-80.3" font-family="Dejavu Sans Mono" font-size="14.00">apinatomy:annotates</text>
</g>
<!-- nilxtr_neuron_type_bolew_9 -->
<g id="node3" class="node">
<title>nilxtr_neuron_type_bolew_9</title>
<path fill="none" stroke="black" d="M565,-114.5C565,-114.5 2323,-114.5 2323,-114.5 2329,-114.5 2335,-120.5 2335,-126.5 2335,-126.5 2335,-140.5 2335,-140.5 2335,-146.5 2329,-152.5 2323,-152.5 2323,-152.5 565,-152.5 565,-152.5 559,-152.5 553,-146.5 553,-140.5 553,-140.5 553,-126.5 553,-126.5 553,-120.5 559,-114.5 565,-114.5"/>
<text text-anchor="middle" x="1444" y="-137.3" font-family="Dejavu Sans Mono" font-size="14.00">Mammalia Nodose Ganglion (with&#45;dendrites&#45;in larynx superior laryngeal nerve) vagus nerve (with&#45;axon&#45;in vagus nerve) (with&#45;presynaptic&#45;terminals&#45;in solitary tract nuclear complex) neuron projection phenotype (bolew)</text>
<text text-anchor="middle" x="1444" y="-122.3" font-family="Dejavu Sans Mono" font-size="14.00">(ilxtr:neuron&#45;type&#45;bolew&#45;9)</text>
</g>
<!-- nbolew_neuron_9 -->
<g id="node15" class="node">
<title>nbolew_neuron_9</title>
<path fill="none" stroke="black" d="M3101,-114.5C3101,-114.5 3564,-114.5 3564,-114.5 3570,-114.5 3576,-120.5 3576,-126.5 3576,-126.5 3576,-140.5 3576,-140.5 3576,-146.5 3570,-152.5 3564,-152.5 3564,-152.5 3101,-152.5 3101,-152.5 3095,-152.5 3089,-146.5 3089,-140.5 3089,-140.5 3089,-126.5 3089,-126.5 3089,-120.5 3095,-114.5 3101,-114.5"/>
<text text-anchor="middle" x="3332.5" y="-137.3" font-family="Dejavu Sans Mono" font-size="14.00">Neuron population in nodose ganglion lar proj (2) (bolew)</text>
<text text-anchor="middle" x="3332.5" y="-122.3" font-family="Dejavu Sans Mono" font-size="14.00">(bolew:neuron&#45;9)</text>
</g>
<!-- nilxtr_neuron_type_bolew_9&#45;&gt;nbolew_neuron_9 -->
<g id="edge3" class="edge">
<title>nilxtr_neuron_type_bolew_9&#45;&gt;nbolew_neuron_9</title>
<path fill="none" stroke="black" d="M2335.08,-133.5C2607.23,-133.5 2885.3,-133.5 3078.29,-133.5"/>
<polygon fill="black" stroke="black" points="3078.57,-137 3088.57,-133.5 3078.57,-130 3078.57,-137"/>
<text text-anchor="middle" x="2984.5" y="-137.3" font-family="Dejavu Sans Mono" font-size="14.00">apinatomy:annotates</text>
</g>
<!-- nsstom_neuron_9 -->
<g id="node4" class="node">
<title>nsstom_neuron_9</title>
<path fill="none" stroke="black" d="M1381.5,-171.5C1381.5,-171.5 1506.5,-171.5 1506.5,-171.5 1512.5,-171.5 1518.5,-177.5 1518.5,-183.5 1518.5,-183.5 1518.5,-197.5 1518.5,-197.5 1518.5,-203.5 1512.5,-209.5 1506.5,-209.5 1506.5,-209.5 1381.5,-209.5 1381.5,-209.5 1375.5,-209.5 1369.5,-203.5 1369.5,-197.5 1369.5,-197.5 1369.5,-183.5 1369.5,-183.5 1369.5,-177.5 1375.5,-171.5 1381.5,-171.5"/>
<text text-anchor="middle" x="1444" y="-194.3" font-family="Dejavu Sans Mono" font-size="14.00">Neuron 9</text>
<text text-anchor="middle" x="1444" y="-179.3" font-family="Dejavu Sans Mono" font-size="14.00">(sstom:neuron&#45;9)</text>
</g>
<!-- nsstom_neuron_10 -->
<g id="node5" class="node">
<title>nsstom_neuron_10</title>
<path fill="none" stroke="black" d="M1377.5,-228.5C1377.5,-228.5 1510.5,-228.5 1510.5,-228.5 1516.5,-228.5 1522.5,-234.5 1522.5,-240.5 1522.5,-240.5 1522.5,-254.5 1522.5,-254.5 1522.5,-260.5 1516.5,-266.5 1510.5,-266.5 1510.5,-266.5 1377.5,-266.5 1377.5,-266.5 1371.5,-266.5 1365.5,-260.5 1365.5,-254.5 1365.5,-254.5 1365.5,-240.5 1365.5,-240.5 1365.5,-234.5 1371.5,-228.5 1377.5,-228.5"/>
<text text-anchor="middle" x="1444" y="-251.3" font-family="Dejavu Sans Mono" font-size="14.00">Neuron 10</text>
<text text-anchor="middle" x="1444" y="-236.3" font-family="Dejavu Sans Mono" font-size="14.00">(sstom:neuron&#45;10)</text>
</g>
<!-- nbolew_neuron_8 -->
<g id="node6" class="node">
<title>nbolew_neuron_8</title>
<path fill="none" stroke="black" d="M3105,-285.5C3105,-285.5 3560,-285.5 3560,-285.5 3566,-285.5 3572,-291.5 3572,-297.5 3572,-297.5 3572,-311.5 3572,-311.5 3572,-317.5 3566,-323.5 3560,-323.5 3560,-323.5 3105,-323.5 3105,-323.5 3099,-323.5 3093,-317.5 3093,-311.5 3093,-311.5 3093,-297.5 3093,-297.5 3093,-291.5 3099,-285.5 3105,-285.5"/>
<text text-anchor="middle" x="3332.5" y="-308.3" font-family="Dejavu Sans Mono" font-size="14.00">Neuron population in nodose ganglion aa proj (1) (bolew)</text>
<text text-anchor="middle" x="3332.5" y="-293.3" font-family="Dejavu Sans Mono" font-size="14.00">(bolew:neuron&#45;8)</text>
</g>
<!-- nbolew_neuron_19 -->
<g id="node7" class="node">
<title>nbolew_neuron_19</title>
<path fill="none" stroke="black" d="M3093,-342.5C3093,-342.5 3572,-342.5 3572,-342.5 3578,-342.5 3584,-348.5 3584,-354.5 3584,-354.5 3584,-368.5 3584,-368.5 3584,-374.5 3578,-380.5 3572,-380.5 3572,-380.5 3093,-380.5 3093,-380.5 3087,-380.5 3081,-374.5 3081,-368.5 3081,-368.5 3081,-354.5 3081,-354.5 3081,-348.5 3087,-342.5 3093,-342.5"/>
<text text-anchor="middle" x="3332.5" y="-365.3" font-family="Dejavu Sans Mono" font-size="14.00">Neuron population in superior cervical ganglion (7) (bolew)</text>
<text text-anchor="middle" x="3332.5" y="-350.3" font-family="Dejavu Sans Mono" font-size="14.00">(bolew:neuron&#45;19)</text>
</g>
<!-- nilxtr_neuron_type_bolew_10 -->
<g id="node8" class="node">
<title>nilxtr_neuron_type_bolew_10</title>
<path fill="none" stroke="black" d="M474,-399.5C474,-399.5 2414,-399.5 2414,-399.5 2420,-399.5 2426,-405.5 2426,-411.5 2426,-411.5 2426,-425.5 2426,-425.5 2426,-431.5 2420,-437.5 2414,-437.5 2414,-437.5 474,-437.5 474,-437.5 468,-437.5 462,-431.5 462,-425.5 462,-425.5 462,-411.5 462,-411.5 462,-405.5 468,-399.5 474,-399.5"/>
<text text-anchor="middle" x="1444" y="-422.3" font-family="Dejavu Sans Mono" font-size="14.00">Mammalia Nodose Ganglion (with&#45;dendrites&#45;in Pharyngeal branch of the Hypoglossal nerve) epiglottis vagus nerve (with&#45;axon&#45;in vagus nerve) (with&#45;presynaptic&#45;terminals&#45;in solitary tract nuclear complex) neuron projection phenotype (bolew)</text>
<text text-anchor="middle" x="1444" y="-407.3" font-family="Dejavu Sans Mono" font-size="14.00">(ilxtr:neuron&#45;type&#45;bolew&#45;10)</text>
</g>
<!-- nbolew_neuron_10 -->
<g id="node10" class="node">
<title>nbolew_neuron_10</title>
<path fill="none" stroke="black" d="M3101,-399.5C3101,-399.5 3564,-399.5 3564,-399.5 3570,-399.5 3576,-405.5 3576,-411.5 3576,-411.5 3576,-425.5 3576,-425.5 3576,-431.5 3570,-437.5 3564,-437.5 3564,-437.5 3101,-437.5 3101,-437.5 3095,-437.5 3089,-431.5 3089,-425.5 3089,-425.5 3089,-411.5 3089,-411.5 3089,-405.5 3095,-399.5 3101,-399.5"/>
<text text-anchor="middle" x="3332.5" y="-422.3" font-family="Dejavu Sans Mono" font-size="14.00">Neuron population in nodose ganglion epi proj (3) (bolew)</text>
<text text-anchor="middle" x="3332.5" y="-407.3" font-family="Dejavu Sans Mono" font-size="14.00">(bolew:neuron&#45;10)</text>
</g>
<!-- nilxtr_neuron_type_bolew_10&#45;&gt;nbolew_neuron_10 -->
<g id="edge8" class="edge">
<title>nilxtr_neuron_type_bolew_10&#45;&gt;nbolew_neuron_10</title>
<path fill="none" stroke="black" d="M2426.24,-418.5C2668.42,-418.5 2907.26,-418.5 3078.75,-418.5"/>
<polygon fill="black" stroke="black" points="3078.92,-422 3088.92,-418.5 3078.92,-415 3078.92,-422"/>
<text text-anchor="middle" x="2984.5" y="-422.3" font-family="Dejavu Sans Mono" font-size="14.00">apinatomy:annotates</text>
</g>
<!-- nsstom_neuron_7 -->
<g id="node9" class="node">
<title>nsstom_neuron_7</title>
<path fill="none" stroke="black" d="M1381.5,-456.5C1381.5,-456.5 1506.5,-456.5 1506.5,-456.5 1512.5,-456.5 1518.5,-462.5 1518.5,-468.5 1518.5,-468.5 1518.5,-482.5 1518.5,-482.5 1518.5,-488.5 1512.5,-494.5 1506.5,-494.5 1506.5,-494.5 1381.5,-494.5 1381.5,-494.5 1375.5,-494.5 1369.5,-488.5 1369.5,-482.5 1369.5,-482.5 1369.5,-468.5 1369.5,-468.5 1369.5,-462.5 1375.5,-456.5 1381.5,-456.5"/>
<text text-anchor="middle" x="1444" y="-479.3" font-family="Dejavu Sans Mono" font-size="14.00">Neuron 7</text>
<text text-anchor="middle" x="1444" y="-464.3" font-family="Dejavu Sans Mono" font-size="14.00">(sstom:neuron&#45;7)</text>
</g>
<!-- nbolew_neuron_21 -->
<g id="node12" class="node">
<title>nbolew_neuron_21</title>
<path fill="none" stroke="black" d="M3093,-513.5C3093,-513.5 3572,-513.5 3572,-513.5 3578,-513.5 3584,-519.5 3584,-525.5 3584,-525.5 3584,-539.5 3584,-539.5 3584,-545.5 3578,-551.5 3572,-551.5 3572,-551.5 3093,-551.5 3093,-551.5 3087,-551.5 3081,-545.5 3081,-539.5 3081,-539.5 3081,-525.5 3081,-525.5 3081,-519.5 3087,-513.5 3093,-513.5"/>
<text text-anchor="middle" x="3332.5" y="-536.3" font-family="Dejavu Sans Mono" font-size="14.00">Neuron population in superior cervical ganglion (9) (bolew)</text>
<text text-anchor="middle" x="3332.5" y="-521.3" font-family="Dejavu Sans Mono" font-size="14.00">(bolew:neuron&#45;21)</text>
</g>
<!-- nilxtr_neuron_type_bolew_19 -->
<g id="node13" class="node">
<title>nilxtr_neuron_type_bolew_19</title>
<path fill="none" stroke="black" d="M16.5,-342.5C16.5,-342.5 2871.5,-342.5 2871.5,-342.5 2877.5,-342.5 2883.5,-348.5 2883.5,-354.5 2883.5,-354.5 2883.5,-368.5 2883.5,-368.5 2883.5,-374.5 2877.5,-380.5 2871.5,-380.5 2871.5,-380.5 16.5,-380.5 16.5,-380.5 10.5,-380.5 4.5,-374.5 4.5,-368.5 4.5,-368.5 4.5,-354.5 4.5,-354.5 4.5,-348.5 10.5,-342.5 16.5,-342.5"/>
<text text-anchor="middle" x="1444" y="-365.3" font-family="Dejavu Sans Mono" font-size="14.00">Mammalia superior cervical ganglion (with&#45;dendrite&#45;in superior cervical ganglion) (with&#45;axons&#45;in External carotid nerve plexus Internal branch of superior laryngeal nerve) superior cervical ganglion superior laryngeal nerve vagus nerve (with&#45;presynaptic&#45;terminals&#45;in External branch of inferior laryngeal nerve) neuron projection phenotype (bolew)</text>
<text text-anchor="middle" x="1444" y="-350.3" font-family="Dejavu Sans Mono" font-size="14.00">(ilxtr:neuron&#45;type&#45;bolew&#45;19)</text>
</g>
<!-- nilxtr_neuron_type_bolew_19&#45;&gt;nbolew_neuron_19 -->
<g id="edge1" class="edge">
<title>nilxtr_neuron_type_bolew_19&#45;&gt;nbolew_neuron_19</title>
<path fill="none" stroke="black" d="M2883.53,-361.5C2951.44,-361.5 3014.58,-361.5 3070.76,-361.5"/>
<polygon fill="black" stroke="black" points="3070.8,-365 3080.8,-361.5 3070.8,-358 3070.8,-365"/>
<text text-anchor="middle" x="2984.5" y="-365.3" font-family="Dejavu Sans Mono" font-size="14.00">apinatomy:annotates</text>
</g>
<!-- nilxtr_neuron_type_bolew_16 -->
<g id="node14" class="node">
<title>nilxtr_neuron_type_bolew_16</title>
<path fill="none" stroke="black" d="M280.5,-570.5C280.5,-570.5 2607.5,-570.5 2607.5,-570.5 2613.5,-570.5 2619.5,-576.5 2619.5,-582.5 2619.5,-582.5 2619.5,-596.5 2619.5,-596.5 2619.5,-602.5 2613.5,-608.5 2607.5,-608.5 2607.5,-608.5 280.5,-608.5 280.5,-608.5 274.5,-608.5 268.5,-602.5 268.5,-596.5 268.5,-596.5 268.5,-582.5 268.5,-582.5 268.5,-576.5 274.5,-570.5 280.5,-570.5"/>
<text text-anchor="middle" x="1444" y="-593.3" font-family="Dejavu Sans Mono" font-size="14.00">Mammalia superior cervical ganglion (with&#45;dendrite&#45;in superior cervical ganglion) (with&#45;axons&#45;in External branch of superior laryngeal nerve) External carotid nerve plexus superior laryngeal nerve vagus nerve (with&#45;presynaptic&#45;terminals&#45;in larynx) neuron projection phenotype (bolew)</text>
<text text-anchor="middle" x="1444" y="-578.3" font-family="Dejavu Sans Mono" font-size="14.00">(ilxtr:neuron&#45;type&#45;bolew&#45;16)</text>
</g>
<!-- nbolew_neuron_16 -->
<g id="node16" class="node">
<title>nbolew_neuron_16</title>
<path fill="none" stroke="black" d="M3093,-570.5C3093,-570.5 3572,-570.5 3572,-570.5 3578,-570.5 3584,-576.5 3584,-582.5 3584,-582.5 3584,-596.5 3584,-596.5 3584,-602.5 3578,-608.5 3572,-608.5 3572,-608.5 3093,-608.5 3093,-608.5 3087,-608.5 3081,-602.5 3081,-596.5 3081,-596.5 3081,-582.5 3081,-582.5 3081,-576.5 3087,-570.5 3093,-570.5"/>
<text text-anchor="middle" x="3332.5" y="-593.3" font-family="Dejavu Sans Mono" font-size="14.00">Neuron population in superior cervical ganglion (4) (bolew)</text>
<text text-anchor="middle" x="3332.5" y="-578.3" font-family="Dejavu Sans Mono" font-size="14.00">(bolew:neuron&#45;16)</text>
</g>
<!-- nilxtr_neuron_type_bolew_16&#45;&gt;nbolew_neuron_16 -->
<g id="edge5" class="edge">
<title>nilxtr_neuron_type_bolew_16&#45;&gt;nbolew_neuron_16</title>
<path fill="none" stroke="black" d="M2619.64,-589.5C2788.46,-589.5 2946.73,-589.5 3070.97,-589.5"/>
<polygon fill="black" stroke="black" points="3070.99,-593 3080.99,-589.5 3070.99,-586 3070.99,-593"/>
<text text-anchor="middle" x="2984.5" y="-593.3" font-family="Dejavu Sans Mono" font-size="14.00">apinatomy:annotates</text>
</g>
<!-- nbolew_neuron_20 -->
<g id="node18" class="node">
<title>nbolew_neuron_20</title>
<path fill="none" stroke="black" d="M3093,-627.5C3093,-627.5 3572,-627.5 3572,-627.5 3578,-627.5 3584,-633.5 3584,-639.5 3584,-639.5 3584,-653.5 3584,-653.5 3584,-659.5 3578,-665.5 3572,-665.5 3572,-665.5 3093,-665.5 3093,-665.5 3087,-665.5 3081,-659.5 3081,-653.5 3081,-653.5 3081,-639.5 3081,-639.5 3081,-633.5 3087,-627.5 3093,-627.5"/>
<text text-anchor="middle" x="3332.5" y="-650.3" font-family="Dejavu Sans Mono" font-size="14.00">Neuron population in superior cervical ganglion (8) (bolew)</text>
<text text-anchor="middle" x="3332.5" y="-635.3" font-family="Dejavu Sans Mono" font-size="14.00">(bolew:neuron&#45;20)</text>
</g>
<!-- nilxtr_neuron_type_bolew_21 -->
<g id="node19" class="node">
<title>nilxtr_neuron_type_bolew_21</title>
<path fill="none" stroke="black" d="M148.5,-513.5C148.5,-513.5 2739.5,-513.5 2739.5,-513.5 2745.5,-513.5 2751.5,-519.5 2751.5,-525.5 2751.5,-525.5 2751.5,-539.5 2751.5,-539.5 2751.5,-545.5 2745.5,-551.5 2739.5,-551.5 2739.5,-551.5 148.5,-551.5 148.5,-551.5 142.5,-551.5 136.5,-545.5 136.5,-539.5 136.5,-539.5 136.5,-525.5 136.5,-525.5 136.5,-519.5 142.5,-513.5 148.5,-513.5"/>
<text text-anchor="middle" x="1444" y="-536.3" font-family="Dejavu Sans Mono" font-size="14.00">Mammalia superior cervical ganglion (with&#45;dendrite&#45;in superior cervical ganglion) (with&#45;axons&#45;in External carotid nerve plexus Internal branch of inferior laryngeal nerve) Laryngeal Nerve, Inferior superior cervical ganglion vagus nerve (with&#45;presynaptic&#45;terminals&#45;in epiglottis) neuron projection phenotype (bolew)</text>
<text text-anchor="middle" x="1444" y="-521.3" font-family="Dejavu Sans Mono" font-size="14.00">(ilxtr:neuron&#45;type&#45;bolew&#45;21)</text>
</g>
<!-- nilxtr_neuron_type_bolew_21&#45;&gt;nbolew_neuron_21 -->
<g id="edge2" class="edge">
<title>nilxtr_neuron_type_bolew_21&#45;&gt;nbolew_neuron_21</title>
<path fill="none" stroke="black" d="M2751.7,-532.5C2870.18,-532.5 2979.63,-532.5 3070.78,-532.5"/>
<polygon fill="black" stroke="black" points="3070.95,-536 3080.95,-532.5 3070.95,-529 3070.95,-536"/>
<text text-anchor="middle" x="2984.5" y="-536.3" font-family="Dejavu Sans Mono" font-size="14.00">apinatomy:annotates</text>
</g>
<!-- nsstom_neuron_8 -->
<g id="node20" class="node">
<title>nsstom_neuron_8</title>
<path fill="none" stroke="black" d="M1381.5,-684.5C1381.5,-684.5 1506.5,-684.5 1506.5,-684.5 1512.5,-684.5 1518.5,-690.5 1518.5,-696.5 1518.5,-696.5 1518.5,-710.5 1518.5,-710.5 1518.5,-716.5 1512.5,-722.5 1506.5,-722.5 1506.5,-722.5 1381.5,-722.5 1381.5,-722.5 1375.5,-722.5 1369.5,-716.5 1369.5,-710.5 1369.5,-710.5 1369.5,-696.5 1369.5,-696.5 1369.5,-690.5 1375.5,-684.5 1381.5,-684.5"/>
<text text-anchor="middle" x="1444" y="-707.3" font-family="Dejavu Sans Mono" font-size="14.00">Neuron 8</text>
<text text-anchor="middle" x="1444" y="-692.3" font-family="Dejavu Sans Mono" font-size="14.00">(sstom:neuron&#45;8)</text>
</g>
<!-- nilxtr_neuron_type_bolew_20 -->
<g id="node21" class="node">
<title>nilxtr_neuron_type_bolew_20</title>
<path fill="none" stroke="black" d="M12,-627.5C12,-627.5 2876,-627.5 2876,-627.5 2882,-627.5 2888,-633.5 2888,-639.5 2888,-639.5 2888,-653.5 2888,-653.5 2888,-659.5 2882,-665.5 2876,-665.5 2876,-665.5 12,-665.5 12,-665.5 6,-665.5 0,-659.5 0,-653.5 0,-653.5 0,-639.5 0,-639.5 0,-633.5 6,-627.5 12,-627.5"/>
<text text-anchor="middle" x="1444" y="-650.3" font-family="Dejavu Sans Mono" font-size="14.00">Mammalia superior cervical ganglion (with&#45;dendrite&#45;in superior cervical ganglion) (with&#45;axons&#45;in External branch of inferior laryngeal nerve) External carotid nerve plexus Laryngeal Nerve, Inferior superior cervical ganglion vagus nerve (with&#45;presynaptic&#45;terminals&#45;in External branch of inferior laryngeal nerve) neuron projection phenotype (bolew)</text>
<text text-anchor="middle" x="1444" y="-635.3" font-family="Dejavu Sans Mono" font-size="14.00">(ilxtr:neuron&#45;type&#45;bolew&#45;20)</text>
</g>
<!-- nilxtr_neuron_type_bolew_20&#45;&gt;nbolew_neuron_20 -->
<g id="edge7" class="edge">
<title>nilxtr_neuron_type_bolew_20&#45;&gt;nbolew_neuron_20</title>
<path fill="none" stroke="black" d="M2888.01,-646.5C2954.24,-646.5 3015.85,-646.5 3070.8,-646.5"/>
<polygon fill="black" stroke="black" points="3070.98,-650 3080.98,-646.5 3070.98,-643 3070.98,-650"/>
<text text-anchor="middle" x="2984.5" y="-650.3" font-family="Dejavu Sans Mono" font-size="14.00">apinatomy:annotates</text>
</g>
<!-- nilxtr_neuron_type_bolew_8 -->
<g id="node22" class="node">
<title>nilxtr_neuron_type_bolew_8</title>
<path fill="none" stroke="black" d="M523.5,-285.5C523.5,-285.5 2364.5,-285.5 2364.5,-285.5 2370.5,-285.5 2376.5,-291.5 2376.5,-297.5 2376.5,-297.5 2376.5,-311.5 2376.5,-311.5 2376.5,-317.5 2370.5,-323.5 2364.5,-323.5 2364.5,-323.5 523.5,-323.5 523.5,-323.5 517.5,-323.5 511.5,-317.5 511.5,-311.5 511.5,-311.5 511.5,-297.5 511.5,-297.5 511.5,-291.5 517.5,-285.5 523.5,-285.5"/>
<text text-anchor="middle" x="1444" y="-308.3" font-family="Dejavu Sans Mono" font-size="14.00">Mammalia Nodose Ganglion (with&#45;dendrites&#45;in Aortic arch depressor nerve) arch of aorta vagus nerve (with&#45;axon&#45;in vagus nerve) (with&#45;presynaptic&#45;terminals&#45;in solitary tract nuclear complex) neuron projection phenotype (bolew)</text>
<text text-anchor="middle" x="1444" y="-293.3" font-family="Dejavu Sans Mono" font-size="14.00">(ilxtr:neuron&#45;type&#45;bolew&#45;8)</text>
</g>
<!-- nilxtr_neuron_type_bolew_8&#45;&gt;nbolew_neuron_8 -->
<g id="edge6" class="edge">
<title>nilxtr_neuron_type_bolew_8&#45;&gt;nbolew_neuron_8</title>
<path fill="none" stroke="black" d="M2376.51,-304.5C2637.32,-304.5 2899.34,-304.5 3082.77,-304.5"/>
<polygon fill="black" stroke="black" points="3082.81,-308 3092.81,-304.5 3082.81,-301 3082.81,-308"/>
<text text-anchor="middle" x="2984.5" y="-308.3" font-family="Dejavu Sans Mono" font-size="14.00">apinatomy:annotates</text>
</g>
</g>
</svg>
