<?xml version="1.0" encoding="UTF-8" standalone="no"?>
<!DOCTYPE svg PUBLIC "-//W3C//DTD SVG 1.1//EN"
 "http://www.w3.org/Graphics/SVG/1.1/DTD/svg11.dtd">
<!-- Generated by graphviz version 2.47.1 (20210417.1919)
 -->
<!-- Pages: 1 -->
<svg width="8091pt" height="1361pt"
 viewBox="0.00 0.00 8091.00 1361.35" xmlns="http://www.w3.org/2000/svg" xmlns:xlink="http://www.w3.org/1999/xlink">
<g id="graph0" class="graph" transform="scale(1 1) rotate(0) translate(4 1357.35)">
<polygon fill="white" stroke="transparent" points="-4,4 -4,-1357.35 8087,-1357.35 8087,4 -4,4"/>
<!-- nkblad_snl16 -->
<g id="node1" class="node">
<title>nkblad_snl16</title>
<path fill="none" stroke="black" d="M811,-1293.35C811,-1293.35 1142,-1293.35 1142,-1293.35 1148,-1293.35 1154,-1299.35 1154,-1305.35 1154,-1305.35 1154,-1319.35 1154,-1319.35 1154,-1325.35 1148,-1331.35 1142,-1331.35 1142,-1331.35 811,-1331.35 811,-1331.35 805,-1331.35 799,-1325.35 799,-1319.35 799,-1319.35 799,-1305.35 799,-1305.35 799,-1299.35 805,-1293.35 811,-1293.35"/>
<text text-anchor="middle" x="976.5" y="-1316.15" font-family="Dejavu Sans Mono" font-size="14.00">Soma of SPR neuron in L1_Neuron 6 (kblad)</text>
<text text-anchor="middle" x="976.5" y="-1301.15" font-family="Dejavu Sans Mono" font-size="14.00">(kblad:snl16)</text>
</g>
<!-- nkblad_ref_mat_K_83_K_129_K22_7 -->
<g id="node54" class="node">
<title>nkblad_ref_mat_K_83_K_129_K22_7</title>
<path fill="none" stroke="black" d="M1401,-1262.35C1401,-1262.35 2029,-1262.35 2029,-1262.35 2035,-1262.35 2041,-1268.35 2041,-1274.35 2041,-1274.35 2041,-1288.35 2041,-1288.35 2041,-1294.35 2035,-1300.35 2029,-1300.35 2029,-1300.35 1401,-1300.35 1401,-1300.35 1395,-1300.35 1389,-1294.35 1389,-1288.35 1389,-1288.35 1389,-1274.35 1389,-1274.35 1389,-1268.35 1395,-1262.35 1401,-1262.35"/>
<text text-anchor="middle" x="1715" y="-1285.15" font-family="Dejavu Sans Mono" font-size="14.00">lamina VII of gray matter of spinal cord in L1 spinal segment (kblad) layer 7</text>
<text text-anchor="middle" x="1715" y="-1270.15" font-family="Dejavu Sans Mono" font-size="14.00">(kblad:ref_mat_K_83_K_129_K22_7)</text>
</g>
<!-- nkblad_snl16&#45;&gt;nkblad_ref_mat_K_83_K_129_K22_7 -->
<g id="edge19" class="edge">
<title>nkblad_snl16&#45;&gt;nkblad_ref_mat_K_83_K_129_K22_7</title>
<path fill="none" stroke="black" d="M1154.38,-1304.9C1221.79,-1302.07 1301.05,-1298.73 1378.37,-1295.48"/>
<polygon fill="black" stroke="black" points="1378.93,-1298.96 1388.78,-1295.04 1378.64,-1291.96 1378.93,-1298.96"/>
<text text-anchor="middle" x="1271.5" y="-1307.15" font-family="Dejavu Sans Mono" font-size="14.00">apinatomy:internalIn</text>
</g>
<!-- nkblad_dc_snl16_lnk_1 -->
<g id="node2" class="node">
<title>nkblad_dc_snl16_lnk_1</title>
<path fill="none" stroke="black" d="M889.5,-1236.35C889.5,-1236.35 1063.5,-1236.35 1063.5,-1236.35 1069.5,-1236.35 1075.5,-1242.35 1075.5,-1248.35 1075.5,-1248.35 1075.5,-1262.35 1075.5,-1262.35 1075.5,-1268.35 1069.5,-1274.35 1063.5,-1274.35 1063.5,-1274.35 889.5,-1274.35 889.5,-1274.35 883.5,-1274.35 877.5,-1268.35 877.5,-1262.35 877.5,-1262.35 877.5,-1248.35 877.5,-1248.35 877.5,-1242.35 883.5,-1236.35 889.5,-1236.35"/>
<text text-anchor="middle" x="976.5" y="-1259.15" font-family="Dejavu Sans Mono" font-size="14.00">MISSING LABEL</text>
<text text-anchor="middle" x="976.5" y="-1244.15" font-family="Dejavu Sans Mono" font-size="14.00">(kblad:dc&#45;snl16_lnk_1)</text>
</g>
<!-- nkblad_dc_snl16_lnk_1&#45;&gt;nkblad_ref_mat_K_83_K_129_K22_7 -->
<g id="edge27" class="edge">
<title>nkblad_dc_snl16_lnk_1&#45;&gt;nkblad_ref_mat_K_83_K_129_K22_7</title>
<path fill="none" stroke="black" d="M1075.75,-1257.67C1155.37,-1259.65 1270.43,-1262.74 1371,-1266.35 1373.45,-1266.44 1375.91,-1266.53 1378.38,-1266.62"/>
<polygon fill="black" stroke="black" points="1378.45,-1270.12 1388.58,-1266.99 1378.71,-1263.12 1378.45,-1270.12"/>
<text text-anchor="middle" x="1271.5" y="-1270.15" font-family="Dejavu Sans Mono" font-size="14.00">apinatomy:fasciculatesIn</text>
</g>
<!-- nPMID_1619047 -->
<g id="node3" class="node">
<title>nPMID_1619047</title>
<path fill="none" stroke="black" d="M922.5,-123.35C922.5,-123.35 1030.5,-123.35 1030.5,-123.35 1036.5,-123.35 1042.5,-129.35 1042.5,-135.35 1042.5,-135.35 1042.5,-149.35 1042.5,-149.35 1042.5,-155.35 1036.5,-161.35 1030.5,-161.35 1030.5,-161.35 922.5,-161.35 922.5,-161.35 916.5,-161.35 910.5,-155.35 910.5,-149.35 910.5,-149.35 910.5,-135.35 910.5,-135.35 910.5,-129.35 916.5,-123.35 922.5,-123.35"/>
<text text-anchor="middle" x="976.5" y="-146.15" font-family="Dejavu Sans Mono" font-size="14.00">MISSING LABEL</text>
<text text-anchor="middle" x="976.5" y="-131.15" font-family="Dejavu Sans Mono" font-size="14.00">(PMID:1619047)</text>
</g>
<!-- nelements_External -->
<g id="node37" class="node">
<title>nelements_External</title>
<path fill="none" stroke="black" d="M1640.5,-208.35C1640.5,-208.35 1789.5,-208.35 1789.5,-208.35 1795.5,-208.35 1801.5,-214.35 1801.5,-220.35 1801.5,-220.35 1801.5,-234.35 1801.5,-234.35 1801.5,-240.35 1795.5,-246.35 1789.5,-246.35 1789.5,-246.35 1640.5,-246.35 1640.5,-246.35 1634.5,-246.35 1628.5,-240.35 1628.5,-234.35 1628.5,-234.35 1628.5,-220.35 1628.5,-220.35 1628.5,-214.35 1634.5,-208.35 1640.5,-208.35"/>
<text text-anchor="middle" x="1715" y="-231.15" font-family="Dejavu Sans Mono" font-size="14.00">MISSING LABEL</text>
<text text-anchor="middle" x="1715" y="-216.15" font-family="Dejavu Sans Mono" font-size="14.00">(elements:External)</text>
</g>
<!-- nPMID_1619047&#45;&gt;nelements_External -->
<g id="edge9" class="edge">
<title>nPMID_1619047&#45;&gt;nelements_External</title>
<path fill="none" stroke="black" d="M1042.54,-149.85C1172.69,-164.88 1465.73,-198.7 1618.02,-216.27"/>
<polygon fill="black" stroke="black" points="1617.95,-219.79 1628.29,-217.46 1618.76,-212.83 1617.95,-219.79"/>
<text text-anchor="middle" x="1271.5" y="-192.15" font-family="Dejavu Sans Mono" font-size="14.00">type</text>
</g>
<!-- nkblad_ac_l1l26a -->
<g id="node4" class="node">
<title>nkblad_ac_l1l26a</title>
<path fill="none" stroke="black" d="M5084,-471.35C5084,-471.35 5415,-471.35 5415,-471.35 5421,-471.35 5427,-477.35 5427,-483.35 5427,-483.35 5427,-497.35 5427,-497.35 5427,-503.35 5421,-509.35 5415,-509.35 5415,-509.35 5084,-509.35 5084,-509.35 5078,-509.35 5072,-503.35 5072,-497.35 5072,-497.35 5072,-483.35 5072,-483.35 5072,-477.35 5078,-471.35 5084,-471.35"/>
<text text-anchor="middle" x="5249.5" y="-494.15" font-family="Dejavu Sans Mono" font-size="14.00">L1&#45;6 L2&#45;6 SPR axon chain_Neuron 6 (kblad)</text>
<text text-anchor="middle" x="5249.5" y="-479.15" font-family="Dejavu Sans Mono" font-size="14.00">(kblad:ac&#45;l1l26a)</text>
</g>
<!-- nkblad_ac_l1l26a_lnk_3 -->
<g id="node11" class="node">
<title>nkblad_ac_l1l26a_lnk_3</title>
<path fill="none" stroke="black" d="M6610,-552.35C6610,-552.35 6792,-552.35 6792,-552.35 6798,-552.35 6804,-558.35 6804,-564.35 6804,-564.35 6804,-578.35 6804,-578.35 6804,-584.35 6798,-590.35 6792,-590.35 6792,-590.35 6610,-590.35 6610,-590.35 6604,-590.35 6598,-584.35 6598,-578.35 6598,-578.35 6598,-564.35 6598,-564.35 6598,-558.35 6604,-552.35 6610,-552.35"/>
<text text-anchor="middle" x="6701" y="-575.15" font-family="Dejavu Sans Mono" font-size="14.00">MISSING LABEL</text>
<text text-anchor="middle" x="6701" y="-560.15" font-family="Dejavu Sans Mono" font-size="14.00">(kblad:ac&#45;l1l26a_lnk_3)</text>
</g>
<!-- nkblad_ac_l1l26a&#45;&gt;nkblad_ac_l1l26a_lnk_3 -->
<g id="edge38" class="edge">
<title>nkblad_ac_l1l26a&#45;&gt;nkblad_ac_l1l26a_lnk_3</title>
<path fill="none" stroke="black" d="M5427.3,-509.16C5539.64,-520.45 5688.21,-534.17 5820,-542.35 6095.66,-559.46 6420.57,-566.86 6587.89,-569.74"/>
<polygon fill="black" stroke="black" points="6587.89,-573.24 6597.95,-569.91 6588.01,-566.24 6587.89,-573.24"/>
<text text-anchor="middle" x="5919.5" y="-557.15" font-family="Dejavu Sans Mono" font-size="14.00">apinatomy:levels</text>
</g>
<!-- nkblad_ac_l1l26a_lnk_4 -->
<g id="node18" class="node">
<title>nkblad_ac_l1l26a_lnk_4</title>
<path fill="none" stroke="black" d="M7113.5,-449.35C7113.5,-449.35 7295.5,-449.35 7295.5,-449.35 7301.5,-449.35 7307.5,-455.35 7307.5,-461.35 7307.5,-461.35 7307.5,-475.35 7307.5,-475.35 7307.5,-481.35 7301.5,-487.35 7295.5,-487.35 7295.5,-487.35 7113.5,-487.35 7113.5,-487.35 7107.5,-487.35 7101.5,-481.35 7101.5,-475.35 7101.5,-475.35 7101.5,-461.35 7101.5,-461.35 7101.5,-455.35 7107.5,-449.35 7113.5,-449.35"/>
<text text-anchor="middle" x="7204.5" y="-472.15" font-family="Dejavu Sans Mono" font-size="14.00">MISSING LABEL</text>
<text text-anchor="middle" x="7204.5" y="-457.15" font-family="Dejavu Sans Mono" font-size="14.00">(kblad:ac&#45;l1l26a_lnk_4)</text>
</g>
<!-- nkblad_ac_l1l26a&#45;&gt;nkblad_ac_l1l26a_lnk_4 -->
<g id="edge39" class="edge">
<title>nkblad_ac_l1l26a&#45;&gt;nkblad_ac_l1l26a_lnk_4</title>
<path fill="none" stroke="black" d="M5427.08,-477.66C5509.37,-472.78 5608.64,-468.35 5698,-468.35 5698,-468.35 5698,-468.35 6702,-468.35 6835.63,-468.35 6989.28,-468.35 7090.92,-468.35"/>
<polygon fill="black" stroke="black" points="7091.21,-471.85 7101.21,-468.35 7091.21,-464.85 7091.21,-471.85"/>
<text text-anchor="middle" x="6173" y="-472.15" font-family="Dejavu Sans Mono" font-size="14.00">apinatomy:levels</text>
</g>
<!-- nkblad_ac_l1l26a_lnk_2 -->
<g id="node49" class="node">
<title>nkblad_ac_l1l26a_lnk_2</title>
<path fill="none" stroke="black" d="M6082,-593.35C6082,-593.35 6264,-593.35 6264,-593.35 6270,-593.35 6276,-599.35 6276,-605.35 6276,-605.35 6276,-619.35 6276,-619.35 6276,-625.35 6270,-631.35 6264,-631.35 6264,-631.35 6082,-631.35 6082,-631.35 6076,-631.35 6070,-625.35 6070,-619.35 6070,-619.35 6070,-605.35 6070,-605.35 6070,-599.35 6076,-593.35 6082,-593.35"/>
<text text-anchor="middle" x="6173" y="-616.15" font-family="Dejavu Sans Mono" font-size="14.00">MISSING LABEL</text>
<text text-anchor="middle" x="6173" y="-601.15" font-family="Dejavu Sans Mono" font-size="14.00">(kblad:ac&#45;l1l26a_lnk_2)</text>
</g>
<!-- nkblad_ac_l1l26a&#45;&gt;nkblad_ac_l1l26a_lnk_2 -->
<g id="edge43" class="edge">
<title>nkblad_ac_l1l26a&#45;&gt;nkblad_ac_l1l26a_lnk_2</title>
<path fill="none" stroke="black" d="M5356.41,-509.35C5385.13,-514.37 5416.24,-519.69 5445,-524.35 5611.34,-551.3 5652.69,-560.27 5820,-580.35 5899.99,-589.95 5990.52,-598.12 6059.74,-603.8"/>
<polygon fill="black" stroke="black" points="6059.54,-607.3 6069.79,-604.62 6060.11,-600.32 6059.54,-607.3"/>
<text text-anchor="middle" x="5699" y="-582.15" font-family="Dejavu Sans Mono" font-size="14.00">apinatomy:levels</text>
</g>
<!-- nkblad_ac_l1l26a_lnk_1 -->
<g id="node55" class="node">
<title>nkblad_ac_l1l26a_lnk_1</title>
<path fill="none" stroke="black" d="M5608,-399.35C5608,-399.35 5790,-399.35 5790,-399.35 5796,-399.35 5802,-405.35 5802,-411.35 5802,-411.35 5802,-425.35 5802,-425.35 5802,-431.35 5796,-437.35 5790,-437.35 5790,-437.35 5608,-437.35 5608,-437.35 5602,-437.35 5596,-431.35 5596,-425.35 5596,-425.35 5596,-411.35 5596,-411.35 5596,-405.35 5602,-399.35 5608,-399.35"/>
<text text-anchor="middle" x="5699" y="-422.15" font-family="Dejavu Sans Mono" font-size="14.00">MISSING LABEL</text>
<text text-anchor="middle" x="5699" y="-407.15" font-family="Dejavu Sans Mono" font-size="14.00">(kblad:ac&#45;l1l26a_lnk_1)</text>
</g>
<!-- nkblad_ac_l1l26a&#45;&gt;nkblad_ac_l1l26a_lnk_1 -->
<g id="edge29" class="edge">
<title>nkblad_ac_l1l26a&#45;&gt;nkblad_ac_l1l26a_lnk_1</title>
<path fill="none" stroke="black" d="M5312.09,-471.27C5350.05,-460.24 5399.93,-447.07 5445,-439.35 5490.74,-431.51 5541.66,-426.57 5585.76,-423.47"/>
<polygon fill="black" stroke="black" points="5586.19,-426.95 5595.93,-422.78 5585.72,-419.96 5586.19,-426.95"/>
<text text-anchor="middle" x="5511.5" y="-443.15" font-family="Dejavu Sans Mono" font-size="14.00">apinatomy:levels</text>
</g>
<!-- nkblad_ref_mat_K_83_K_129_K23_7 -->
<g id="node5" class="node">
<title>nkblad_ref_mat_K_83_K_129_K23_7</title>
<path fill="none" stroke="black" d="M1401,-613.35C1401,-613.35 2029,-613.35 2029,-613.35 2035,-613.35 2041,-619.35 2041,-625.35 2041,-625.35 2041,-639.35 2041,-639.35 2041,-645.35 2035,-651.35 2029,-651.35 2029,-651.35 1401,-651.35 1401,-651.35 1395,-651.35 1389,-645.35 1389,-639.35 1389,-639.35 1389,-625.35 1389,-625.35 1389,-619.35 1395,-613.35 1401,-613.35"/>
<text text-anchor="middle" x="1715" y="-636.15" font-family="Dejavu Sans Mono" font-size="14.00">lamina VII of gray matter of spinal cord in L2 spinal segment (kblad) layer 7</text>
<text text-anchor="middle" x="1715" y="-621.15" font-family="Dejavu Sans Mono" font-size="14.00">(kblad:ref_mat_K_83_K_129_K23_7)</text>
</g>
<!-- nkblad_K23 -->
<g id="node13" class="node">
<title>nkblad_K23</title>
<path fill="none" stroke="black" d="M3010,-673.35C3010,-673.35 3209,-673.35 3209,-673.35 3215,-673.35 3221,-679.35 3221,-685.35 3221,-685.35 3221,-699.35 3221,-699.35 3221,-705.35 3215,-711.35 3209,-711.35 3209,-711.35 3010,-711.35 3010,-711.35 3004,-711.35 2998,-705.35 2998,-699.35 2998,-699.35 2998,-685.35 2998,-685.35 2998,-679.35 3004,-673.35 3010,-673.35"/>
<text text-anchor="middle" x="3109.5" y="-696.15" font-family="Dejavu Sans Mono" font-size="14.00">L2 spinal segment (kblad)</text>
<text text-anchor="middle" x="3109.5" y="-681.15" font-family="Dejavu Sans Mono" font-size="14.00">(kblad:K23)</text>
</g>
<!-- nkblad_ref_mat_K_83_K_129_K23_7&#45;&gt;nkblad_K23 -->
<g id="edge37" class="edge">
<title>nkblad_ref_mat_K_83_K_129_K23_7&#45;&gt;nkblad_K23</title>
<path fill="none" stroke="black" d="M2041.16,-646.36C2344.02,-659.41 2779.24,-678.16 2987.93,-687.15"/>
<polygon fill="black" stroke="black" points="2987.86,-690.65 2998,-687.59 2988.16,-683.66 2987.86,-690.65"/>
<text text-anchor="middle" x="2519.5" y="-681.15" font-family="Dejavu Sans Mono" font-size="14.00">apinatomy:layerIn</text>
</g>
<!-- nkblad_K63 -->
<g id="node6" class="node">
<title>nkblad_K63</title>
<path fill="none" stroke="black" d="M3018.5,-1095.35C3018.5,-1095.35 3200.5,-1095.35 3200.5,-1095.35 3206.5,-1095.35 3212.5,-1101.35 3212.5,-1107.35 3212.5,-1107.35 3212.5,-1121.35 3212.5,-1121.35 3212.5,-1127.35 3206.5,-1133.35 3200.5,-1133.35 3200.5,-1133.35 3018.5,-1133.35 3018.5,-1133.35 3012.5,-1133.35 3006.5,-1127.35 3006.5,-1121.35 3006.5,-1121.35 3006.5,-1107.35 3006.5,-1107.35 3006.5,-1101.35 3012.5,-1095.35 3018.5,-1095.35"/>
<text text-anchor="middle" x="3109.5" y="-1118.15" font-family="Dejavu Sans Mono" font-size="14.00">L1 ventral root (kblad)</text>
<text text-anchor="middle" x="3109.5" y="-1103.15" font-family="Dejavu Sans Mono" font-size="14.00">(kblad:K63)</text>
</g>
<!-- nEMAPA_25269 -->
<g id="node32" class="node">
<title>nEMAPA_25269</title>
<path fill="none" stroke="black" d="M3505,-1098.35C3505,-1098.35 3605,-1098.35 3605,-1098.35 3611,-1098.35 3617,-1104.35 3617,-1110.35 3617,-1110.35 3617,-1124.35 3617,-1124.35 3617,-1130.35 3611,-1136.35 3605,-1136.35 3605,-1136.35 3505,-1136.35 3505,-1136.35 3499,-1136.35 3493,-1130.35 3493,-1124.35 3493,-1124.35 3493,-1110.35 3493,-1110.35 3493,-1104.35 3499,-1098.35 3505,-1098.35"/>
<text text-anchor="middle" x="3555" y="-1121.15" font-family="Dejavu Sans Mono" font-size="14.00">MISSING LABEL</text>
<text text-anchor="middle" x="3555" y="-1106.15" font-family="Dejavu Sans Mono" font-size="14.00">(EMAPA:25269)</text>
</g>
<!-- nkblad_K63&#45;&gt;nEMAPA_25269 -->
<g id="edge32" class="edge">
<title>nkblad_K63&#45;&gt;nEMAPA_25269</title>
<path fill="none" stroke="black" d="M3212.53,-1115.04C3295.22,-1115.6 3409.63,-1116.37 3482.73,-1116.87"/>
<polygon fill="black" stroke="black" points="3482.74,-1120.37 3492.77,-1116.93 3482.79,-1113.37 3482.74,-1120.37"/>
<text text-anchor="middle" x="3338.5" y="-1120.15" font-family="Dejavu Sans Mono" font-size="14.00">apinatomy:external</text>
</g>
<!-- nFMA_6541 -->
<g id="node7" class="node">
<title>nFMA_6541</title>
<path fill="none" stroke="black" d="M4445,-751.35C4445,-751.35 4545,-751.35 4545,-751.35 4551,-751.35 4557,-757.35 4557,-763.35 4557,-763.35 4557,-777.35 4557,-777.35 4557,-783.35 4551,-789.35 4545,-789.35 4545,-789.35 4445,-789.35 4445,-789.35 4439,-789.35 4433,-783.35 4433,-777.35 4433,-777.35 4433,-763.35 4433,-763.35 4433,-757.35 4439,-751.35 4445,-751.35"/>
<text text-anchor="middle" x="4495" y="-774.15" font-family="Dejavu Sans Mono" font-size="14.00">MISSING LABEL</text>
<text text-anchor="middle" x="4495" y="-759.15" font-family="Dejavu Sans Mono" font-size="14.00">(FMA:6541)</text>
</g>
<!-- nkblad_dc_snl26_lnk_1 -->
<g id="node8" class="node">
<title>nkblad_dc_snl26_lnk_1</title>
<path fill="none" stroke="black" d="M889.5,-561.35C889.5,-561.35 1063.5,-561.35 1063.5,-561.35 1069.5,-561.35 1075.5,-567.35 1075.5,-573.35 1075.5,-573.35 1075.5,-587.35 1075.5,-587.35 1075.5,-593.35 1069.5,-599.35 1063.5,-599.35 1063.5,-599.35 889.5,-599.35 889.5,-599.35 883.5,-599.35 877.5,-593.35 877.5,-587.35 877.5,-587.35 877.5,-573.35 877.5,-573.35 877.5,-567.35 883.5,-561.35 889.5,-561.35"/>
<text text-anchor="middle" x="976.5" y="-584.15" font-family="Dejavu Sans Mono" font-size="14.00">MISSING LABEL</text>
<text text-anchor="middle" x="976.5" y="-569.15" font-family="Dejavu Sans Mono" font-size="14.00">(kblad:dc&#45;snl26_lnk_1)</text>
</g>
<!-- nkblad_dc_snl26_lnk_1&#45;&gt;nkblad_ref_mat_K_83_K_129_K23_7 -->
<g id="edge30" class="edge">
<title>nkblad_dc_snl26_lnk_1&#45;&gt;nkblad_ref_mat_K_83_K_129_K23_7</title>
<path fill="none" stroke="black" d="M1075.68,-587.28C1167.2,-593.74 1308.13,-603.69 1434.32,-612.6"/>
<polygon fill="black" stroke="black" points="1434.32,-616.11 1444.54,-613.32 1434.81,-609.13 1434.32,-616.11"/>
<text text-anchor="middle" x="1271.5" y="-612.15" font-family="Dejavu Sans Mono" font-size="14.00">apinatomy:fasciculatesIn</text>
</g>
<!-- nkblad_K88 -->
<g id="node9" class="node">
<title>nkblad_K88</title>
<path fill="none" stroke="black" d="M3468,-1041.35C3468,-1041.35 3642,-1041.35 3642,-1041.35 3648,-1041.35 3654,-1047.35 3654,-1053.35 3654,-1053.35 3654,-1067.35 3654,-1067.35 3654,-1073.35 3648,-1079.35 3642,-1079.35 3642,-1079.35 3468,-1079.35 3468,-1079.35 3462,-1079.35 3456,-1073.35 3456,-1067.35 3456,-1067.35 3456,-1053.35 3456,-1053.35 3456,-1047.35 3462,-1041.35 3468,-1041.35"/>
<text text-anchor="middle" x="3555" y="-1064.15" font-family="Dejavu Sans Mono" font-size="14.00">L1 white ramus (kblad)</text>
<text text-anchor="middle" x="3555" y="-1049.15" font-family="Dejavu Sans Mono" font-size="14.00">(kblad:K88)</text>
</g>
<!-- nFMA_12697 -->
<g id="node40" class="node">
<title>nFMA_12697</title>
<path fill="none" stroke="black" d="M3975,-1048.35C3975,-1048.35 4075,-1048.35 4075,-1048.35 4081,-1048.35 4087,-1054.35 4087,-1060.35 4087,-1060.35 4087,-1074.35 4087,-1074.35 4087,-1080.35 4081,-1086.35 4075,-1086.35 4075,-1086.35 3975,-1086.35 3975,-1086.35 3969,-1086.35 3963,-1080.35 3963,-1074.35 3963,-1074.35 3963,-1060.35 3963,-1060.35 3963,-1054.35 3969,-1048.35 3975,-1048.35"/>
<text text-anchor="middle" x="4025" y="-1071.15" font-family="Dejavu Sans Mono" font-size="14.00">MISSING LABEL</text>
<text text-anchor="middle" x="4025" y="-1056.15" font-family="Dejavu Sans Mono" font-size="14.00">(FMA:12697)</text>
</g>
<!-- nkblad_K88&#45;&gt;nFMA_12697 -->
<g id="edge96" class="edge">
<title>nkblad_K88&#45;&gt;nFMA_12697</title>
<path fill="none" stroke="black" d="M3654.11,-1061.82C3743.25,-1063.15 3872.65,-1065.08 3952.4,-1066.28"/>
<polygon fill="black" stroke="black" points="3952.78,-1069.78 3962.83,-1066.43 3952.88,-1062.78 3952.78,-1069.78"/>
<text text-anchor="middle" x="3771.5" y="-1068.15" font-family="Dejavu Sans Mono" font-size="14.00">apinatomy:external</text>
</g>
<!-- nFMA_6540 -->
<g id="node10" class="node">
<title>nFMA_6540</title>
<path fill="none" stroke="black" d="M4445,-991.35C4445,-991.35 4545,-991.35 4545,-991.35 4551,-991.35 4557,-997.35 4557,-1003.35 4557,-1003.35 4557,-1017.35 4557,-1017.35 4557,-1023.35 4551,-1029.35 4545,-1029.35 4545,-1029.35 4445,-1029.35 4445,-1029.35 4439,-1029.35 4433,-1023.35 4433,-1017.35 4433,-1017.35 4433,-1003.35 4433,-1003.35 4433,-997.35 4439,-991.35 4445,-991.35"/>
<text text-anchor="middle" x="4495" y="-1014.15" font-family="Dejavu Sans Mono" font-size="14.00">MISSING LABEL</text>
<text text-anchor="middle" x="4495" y="-999.15" font-family="Dejavu Sans Mono" font-size="14.00">(FMA:6540)</text>
</g>
<!-- nkblad_ac_l1l26a_lnk_3&#45;&gt;nkblad_ac_l1l26a_lnk_4 -->
<g id="edge51" class="edge">
<title>nkblad_ac_l1l26a_lnk_3&#45;&gt;nkblad_ac_l1l26a_lnk_4</title>
<path fill="none" stroke="black" d="M6794.57,-552.34C6881.32,-534.52 7010.75,-507.94 7100.68,-489.47"/>
<polygon fill="black" stroke="black" points="7101.53,-492.86 7110.62,-487.42 7100.12,-486.01 7101.53,-492.86"/>
<text text-anchor="middle" x="6975.5" y="-539.15" font-family="Dejavu Sans Mono" font-size="14.00">apinatomy:next</text>
</g>
<!-- nkblad_n_hypo -->
<g id="node43" class="node">
<title>nkblad_n_hypo</title>
<path fill="none" stroke="black" d="M7105,-552.35C7105,-552.35 7304,-552.35 7304,-552.35 7310,-552.35 7316,-558.35 7316,-564.35 7316,-564.35 7316,-578.35 7316,-578.35 7316,-584.35 7310,-590.35 7304,-590.35 7304,-590.35 7105,-590.35 7105,-590.35 7099,-590.35 7093,-584.35 7093,-578.35 7093,-578.35 7093,-564.35 7093,-564.35 7093,-558.35 7099,-552.35 7105,-552.35"/>
<text text-anchor="middle" x="7204.5" y="-575.15" font-family="Dejavu Sans Mono" font-size="14.00">Hypogastric nerve (kblad)</text>
<text text-anchor="middle" x="7204.5" y="-560.15" font-family="Dejavu Sans Mono" font-size="14.00">(kblad:n&#45;hypo)</text>
</g>
<!-- nkblad_ac_l1l26a_lnk_3&#45;&gt;nkblad_n_hypo -->
<g id="edge91" class="edge">
<title>nkblad_ac_l1l26a_lnk_3&#45;&gt;nkblad_n_hypo</title>
<path fill="none" stroke="black" d="M6804.09,-571.35C6884.72,-571.35 6997.46,-571.35 7082.6,-571.35"/>
<polygon fill="black" stroke="black" points="7082.85,-574.85 7092.85,-571.35 7082.85,-567.85 7082.85,-574.85"/>
<text text-anchor="middle" x="6975.5" y="-575.15" font-family="Dejavu Sans Mono" font-size="14.00">apinatomy:fasciculatesIn</text>
</g>
<!-- nkblad_ac_snl16_lnk_1 -->
<g id="node12" class="node">
<title>nkblad_ac_snl16_lnk_1</title>
<path fill="none" stroke="black" d="M889.5,-1140.35C889.5,-1140.35 1063.5,-1140.35 1063.5,-1140.35 1069.5,-1140.35 1075.5,-1146.35 1075.5,-1152.35 1075.5,-1152.35 1075.5,-1166.35 1075.5,-1166.35 1075.5,-1172.35 1069.5,-1178.35 1063.5,-1178.35 1063.5,-1178.35 889.5,-1178.35 889.5,-1178.35 883.5,-1178.35 877.5,-1172.35 877.5,-1166.35 877.5,-1166.35 877.5,-1152.35 877.5,-1152.35 877.5,-1146.35 883.5,-1140.35 889.5,-1140.35"/>
<text text-anchor="middle" x="976.5" y="-1163.15" font-family="Dejavu Sans Mono" font-size="14.00">MISSING LABEL</text>
<text text-anchor="middle" x="976.5" y="-1148.15" font-family="Dejavu Sans Mono" font-size="14.00">(kblad:ac&#45;snl16_lnk_1)</text>
</g>
<!-- nkblad_ac_snl16_lnk_2 -->
<g id="node36" class="node">
<title>nkblad_ac_snl16_lnk_2</title>
<path fill="none" stroke="black" d="M1628,-1111.35C1628,-1111.35 1802,-1111.35 1802,-1111.35 1808,-1111.35 1814,-1117.35 1814,-1123.35 1814,-1123.35 1814,-1137.35 1814,-1137.35 1814,-1143.35 1808,-1149.35 1802,-1149.35 1802,-1149.35 1628,-1149.35 1628,-1149.35 1622,-1149.35 1616,-1143.35 1616,-1137.35 1616,-1137.35 1616,-1123.35 1616,-1123.35 1616,-1117.35 1622,-1111.35 1628,-1111.35"/>
<text text-anchor="middle" x="1715" y="-1134.15" font-family="Dejavu Sans Mono" font-size="14.00">MISSING LABEL</text>
<text text-anchor="middle" x="1715" y="-1119.15" font-family="Dejavu Sans Mono" font-size="14.00">(kblad:ac&#45;snl16_lnk_2)</text>
</g>
<!-- nkblad_ac_snl16_lnk_1&#45;&gt;nkblad_ac_snl16_lnk_2 -->
<g id="edge36" class="edge">
<title>nkblad_ac_snl16_lnk_1&#45;&gt;nkblad_ac_snl16_lnk_2</title>
<path fill="none" stroke="black" d="M1075.83,-1148.22C1106.59,-1145.15 1140.67,-1142.17 1172,-1140.35 1322.33,-1131.63 1496.48,-1129.91 1605.94,-1129.84"/>
<polygon fill="black" stroke="black" points="1606,-1133.34 1616,-1129.83 1606,-1126.34 1606,-1133.34"/>
<text text-anchor="middle" x="1271.5" y="-1144.15" font-family="Dejavu Sans Mono" font-size="14.00">apinatomy:next</text>
</g>
<!-- nkblad_ac_snl16_lnk_1&#45;&gt;nkblad_ref_mat_K_83_K_129_K22_7 -->
<g id="edge61" class="edge">
<title>nkblad_ac_snl16_lnk_1&#45;&gt;nkblad_ref_mat_K_83_K_129_K22_7</title>
<path fill="none" stroke="black" d="M1075.68,-1175.61C1208.11,-1197.55 1444.02,-1236.63 1588.98,-1260.64"/>
<polygon fill="black" stroke="black" points="1588.82,-1264.16 1599.26,-1262.34 1589.96,-1257.25 1588.82,-1264.16"/>
<text text-anchor="middle" x="1271.5" y="-1227.15" font-family="Dejavu Sans Mono" font-size="14.00">apinatomy:fasciculatesIn</text>
</g>
<!-- nUBERON_0006450 -->
<g id="node22" class="node">
<title>nUBERON_0006450</title>
<path fill="none" stroke="black" d="M3492.5,-673.35C3492.5,-673.35 3617.5,-673.35 3617.5,-673.35 3623.5,-673.35 3629.5,-679.35 3629.5,-685.35 3629.5,-685.35 3629.5,-699.35 3629.5,-699.35 3629.5,-705.35 3623.5,-711.35 3617.5,-711.35 3617.5,-711.35 3492.5,-711.35 3492.5,-711.35 3486.5,-711.35 3480.5,-705.35 3480.5,-699.35 3480.5,-699.35 3480.5,-685.35 3480.5,-685.35 3480.5,-679.35 3486.5,-673.35 3492.5,-673.35"/>
<text text-anchor="middle" x="3555" y="-696.15" font-family="Dejavu Sans Mono" font-size="14.00">MISSING LABEL</text>
<text text-anchor="middle" x="3555" y="-681.15" font-family="Dejavu Sans Mono" font-size="14.00">(UBERON:0006450)</text>
</g>
<!-- nkblad_K23&#45;&gt;nUBERON_0006450 -->
<g id="edge75" class="edge">
<title>nkblad_K23&#45;&gt;nUBERON_0006450</title>
<path fill="none" stroke="black" d="M3221.27,-692.35C3298.42,-692.35 3399.72,-692.35 3470.19,-692.35"/>
<polygon fill="black" stroke="black" points="3470.36,-695.85 3480.36,-692.35 3470.36,-688.85 3470.36,-695.85"/>
<text text-anchor="middle" x="3338.5" y="-696.15" font-family="Dejavu Sans Mono" font-size="14.00">apinatomy:external</text>
</g>
<!-- nkblad_K89 -->
<g id="node14" class="node">
<title>nkblad_K89</title>
<path fill="none" stroke="black" d="M3468,-822.35C3468,-822.35 3642,-822.35 3642,-822.35 3648,-822.35 3654,-828.35 3654,-834.35 3654,-834.35 3654,-848.35 3654,-848.35 3654,-854.35 3648,-860.35 3642,-860.35 3642,-860.35 3468,-860.35 3468,-860.35 3462,-860.35 3456,-854.35 3456,-848.35 3456,-848.35 3456,-834.35 3456,-834.35 3456,-828.35 3462,-822.35 3468,-822.35"/>
<text text-anchor="middle" x="3555" y="-845.15" font-family="Dejavu Sans Mono" font-size="14.00">L2 white ramus (kblad)</text>
<text text-anchor="middle" x="3555" y="-830.15" font-family="Dejavu Sans Mono" font-size="14.00">(kblad:K89)</text>
</g>
<!-- nFMA_12698 -->
<g id="node39" class="node">
<title>nFMA_12698</title>
<path fill="none" stroke="black" d="M3975,-822.35C3975,-822.35 4075,-822.35 4075,-822.35 4081,-822.35 4087,-828.35 4087,-834.35 4087,-834.35 4087,-848.35 4087,-848.35 4087,-854.35 4081,-860.35 4075,-860.35 4075,-860.35 3975,-860.35 3975,-860.35 3969,-860.35 3963,-854.35 3963,-848.35 3963,-848.35 3963,-834.35 3963,-834.35 3963,-828.35 3969,-822.35 3975,-822.35"/>
<text text-anchor="middle" x="4025" y="-845.15" font-family="Dejavu Sans Mono" font-size="14.00">MISSING LABEL</text>
<text text-anchor="middle" x="4025" y="-830.15" font-family="Dejavu Sans Mono" font-size="14.00">(FMA:12698)</text>
</g>
<!-- nkblad_K89&#45;&gt;nFMA_12698 -->
<g id="edge18" class="edge">
<title>nkblad_K89&#45;&gt;nFMA_12698</title>
<path fill="none" stroke="black" d="M3654.11,-841.35C3743.25,-841.35 3872.65,-841.35 3952.4,-841.35"/>
<polygon fill="black" stroke="black" points="3952.83,-844.85 3962.83,-841.35 3952.83,-837.85 3952.83,-844.85"/>
<text text-anchor="middle" x="3771.5" y="-845.15" font-family="Dejavu Sans Mono" font-size="14.00">apinatomy:external</text>
</g>
<!-- nkblad_K22 -->
<g id="node15" class="node">
<title>nkblad_K22</title>
<path fill="none" stroke="black" d="M3010,-1264.35C3010,-1264.35 3209,-1264.35 3209,-1264.35 3215,-1264.35 3221,-1270.35 3221,-1276.35 3221,-1276.35 3221,-1290.35 3221,-1290.35 3221,-1296.35 3215,-1302.35 3209,-1302.35 3209,-1302.35 3010,-1302.35 3010,-1302.35 3004,-1302.35 2998,-1296.35 2998,-1290.35 2998,-1290.35 2998,-1276.35 2998,-1276.35 2998,-1270.35 3004,-1264.35 3010,-1264.35"/>
<text text-anchor="middle" x="3109.5" y="-1287.15" font-family="Dejavu Sans Mono" font-size="14.00">L1 spinal segment (kblad)</text>
<text text-anchor="middle" x="3109.5" y="-1272.15" font-family="Dejavu Sans Mono" font-size="14.00">(kblad:K22)</text>
</g>
<!-- nUBERON_0006448 -->
<g id="node53" class="node">
<title>nUBERON_0006448</title>
<path fill="none" stroke="black" d="M3492.5,-1264.35C3492.5,-1264.35 3617.5,-1264.35 3617.5,-1264.35 3623.5,-1264.35 3629.5,-1270.35 3629.5,-1276.35 3629.5,-1276.35 3629.5,-1290.35 3629.5,-1290.35 3629.5,-1296.35 3623.5,-1302.35 3617.5,-1302.35 3617.5,-1302.35 3492.5,-1302.35 3492.5,-1302.35 3486.5,-1302.35 3480.5,-1296.35 3480.5,-1290.35 3480.5,-1290.35 3480.5,-1276.35 3480.5,-1276.35 3480.5,-1270.35 3486.5,-1264.35 3492.5,-1264.35"/>
<text text-anchor="middle" x="3555" y="-1287.15" font-family="Dejavu Sans Mono" font-size="14.00">MISSING LABEL</text>
<text text-anchor="middle" x="3555" y="-1272.15" font-family="Dejavu Sans Mono" font-size="14.00">(UBERON:0006448)</text>
</g>
<!-- nkblad_K22&#45;&gt;nUBERON_0006448 -->
<g id="edge70" class="edge">
<title>nkblad_K22&#45;&gt;nUBERON_0006448</title>
<path fill="none" stroke="black" d="M3221.27,-1283.35C3298.42,-1283.35 3399.72,-1283.35 3470.19,-1283.35"/>
<polygon fill="black" stroke="black" points="3470.36,-1286.85 3480.36,-1283.35 3470.36,-1279.85 3470.36,-1286.85"/>
<text text-anchor="middle" x="3338.5" y="-1287.15" font-family="Dejavu Sans Mono" font-size="14.00">apinatomy:external</text>
</g>
<!-- nkblad_ac_snl26_lnk_7 -->
<g id="node16" class="node">
<title>nkblad_ac_snl26_lnk_7</title>
<path fill="none" stroke="black" d="M4408,-445.35C4408,-445.35 4582,-445.35 4582,-445.35 4588,-445.35 4594,-451.35 4594,-457.35 4594,-457.35 4594,-471.35 4594,-471.35 4594,-477.35 4588,-483.35 4582,-483.35 4582,-483.35 4408,-483.35 4408,-483.35 4402,-483.35 4396,-477.35 4396,-471.35 4396,-471.35 4396,-457.35 4396,-457.35 4396,-451.35 4402,-445.35 4408,-445.35"/>
<text text-anchor="middle" x="4495" y="-468.15" font-family="Dejavu Sans Mono" font-size="14.00">MISSING LABEL</text>
<text text-anchor="middle" x="4495" y="-453.15" font-family="Dejavu Sans Mono" font-size="14.00">(kblad:ac&#45;snl26_lnk_7)</text>
</g>
<!-- nkblad_ns23 -->
<g id="node58" class="node">
<title>nkblad_ns23</title>
<path fill="none" stroke="black" d="M4791,-471.35C4791,-471.35 4891,-471.35 4891,-471.35 4897,-471.35 4903,-477.35 4903,-483.35 4903,-483.35 4903,-497.35 4903,-497.35 4903,-503.35 4897,-509.35 4891,-509.35 4891,-509.35 4791,-509.35 4791,-509.35 4785,-509.35 4779,-503.35 4779,-497.35 4779,-497.35 4779,-483.35 4779,-483.35 4779,-477.35 4785,-471.35 4791,-471.35"/>
<text text-anchor="middle" x="4841" y="-494.15" font-family="Dejavu Sans Mono" font-size="14.00">MISSING LABEL</text>
<text text-anchor="middle" x="4841" y="-479.15" font-family="Dejavu Sans Mono" font-size="14.00">(kblad:ns23)</text>
</g>
<!-- nkblad_ac_snl26_lnk_7&#45;&gt;nkblad_ns23 -->
<g id="edge76" class="edge">
<title>nkblad_ac_snl26_lnk_7&#45;&gt;nkblad_ns23</title>
<path fill="none" stroke="black" d="M4594.12,-471.76C4649.76,-475.97 4718.14,-481.14 4768.65,-484.96"/>
<polygon fill="black" stroke="black" points="4768.59,-488.46 4778.83,-485.73 4769.12,-481.48 4768.59,-488.46"/>
<text text-anchor="middle" x="4686.5" y="-488.15" font-family="Dejavu Sans Mono" font-size="14.00">apinatomy:target</text>
</g>
<!-- nkblad_n_lumspl -->
<g id="node59" class="node">
<title>nkblad_n_lumspl</title>
<path fill="none" stroke="black" d="M6049,-393.35C6049,-393.35 6297,-393.35 6297,-393.35 6303,-393.35 6309,-399.35 6309,-405.35 6309,-405.35 6309,-419.35 6309,-419.35 6309,-425.35 6303,-431.35 6297,-431.35 6297,-431.35 6049,-431.35 6049,-431.35 6043,-431.35 6037,-425.35 6037,-419.35 6037,-419.35 6037,-405.35 6037,-405.35 6037,-399.35 6043,-393.35 6049,-393.35"/>
<text text-anchor="middle" x="6173" y="-416.15" font-family="Dejavu Sans Mono" font-size="14.00">lumbar splanchnic nerve (kblad)</text>
<text text-anchor="middle" x="6173" y="-401.15" font-family="Dejavu Sans Mono" font-size="14.00">(kblad:n&#45;lumspl)</text>
</g>
<!-- nkblad_ac_snl26_lnk_7&#45;&gt;nkblad_n_lumspl -->
<g id="edge88" class="edge">
<title>nkblad_ac_snl26_lnk_7&#45;&gt;nkblad_n_lumspl</title>
<path fill="none" stroke="black" d="M4594.22,-452.76C4811.67,-428.42 5350.27,-375.32 5802,-389.35 5876.04,-391.65 5958.29,-396.53 6026.4,-401.2"/>
<polygon fill="black" stroke="black" points="6026.56,-404.72 6036.78,-401.92 6027.04,-397.74 6026.56,-404.72"/>
<text text-anchor="middle" x="5249.5" y="-413.15" font-family="Dejavu Sans Mono" font-size="14.00">apinatomy:fasciculatesIn</text>
</g>
<!-- nkblad_ac_snl26_lnk_2 -->
<g id="node17" class="node">
<title>nkblad_ac_snl26_lnk_2</title>
<path fill="none" stroke="black" d="M1628,-790.35C1628,-790.35 1802,-790.35 1802,-790.35 1808,-790.35 1814,-796.35 1814,-802.35 1814,-802.35 1814,-816.35 1814,-816.35 1814,-822.35 1808,-828.35 1802,-828.35 1802,-828.35 1628,-828.35 1628,-828.35 1622,-828.35 1616,-822.35 1616,-816.35 1616,-816.35 1616,-802.35 1616,-802.35 1616,-796.35 1622,-790.35 1628,-790.35"/>
<text text-anchor="middle" x="1715" y="-813.15" font-family="Dejavu Sans Mono" font-size="14.00">MISSING LABEL</text>
<text text-anchor="middle" x="1715" y="-798.15" font-family="Dejavu Sans Mono" font-size="14.00">(kblad:ac&#45;snl26_lnk_2)</text>
</g>
<!-- nkblad_ac_snl26_lnk_3 -->
<g id="node51" class="node">
<title>nkblad_ac_snl26_lnk_3</title>
<path fill="none" stroke="black" d="M2432.5,-871.35C2432.5,-871.35 2606.5,-871.35 2606.5,-871.35 2612.5,-871.35 2618.5,-877.35 2618.5,-883.35 2618.5,-883.35 2618.5,-897.35 2618.5,-897.35 2618.5,-903.35 2612.5,-909.35 2606.5,-909.35 2606.5,-909.35 2432.5,-909.35 2432.5,-909.35 2426.5,-909.35 2420.5,-903.35 2420.5,-897.35 2420.5,-897.35 2420.5,-883.35 2420.5,-883.35 2420.5,-877.35 2426.5,-871.35 2432.5,-871.35"/>
<text text-anchor="middle" x="2519.5" y="-894.15" font-family="Dejavu Sans Mono" font-size="14.00">MISSING LABEL</text>
<text text-anchor="middle" x="2519.5" y="-879.15" font-family="Dejavu Sans Mono" font-size="14.00">(kblad:ac&#45;snl26_lnk_3)</text>
</g>
<!-- nkblad_ac_snl26_lnk_2&#45;&gt;nkblad_ac_snl26_lnk_3 -->
<g id="edge3" class="edge">
<title>nkblad_ac_snl26_lnk_2&#45;&gt;nkblad_ac_snl26_lnk_3</title>
<path fill="none" stroke="black" d="M1814,-819.24C1964.97,-834.48 2253.38,-863.59 2410.29,-879.43"/>
<polygon fill="black" stroke="black" points="2410.14,-882.93 2420.44,-880.45 2410.84,-875.96 2410.14,-882.93"/>
<text text-anchor="middle" x="2158.5" y="-866.15" font-family="Dejavu Sans Mono" font-size="14.00">apinatomy:next</text>
</g>
<!-- nkblad_ref_mat_KM_27_K_129_K23_14 -->
<g id="node52" class="node">
<title>nkblad_ref_mat_KM_27_K_129_K23_14</title>
<path fill="none" stroke="black" d="M2288,-703.35C2288,-703.35 2751,-703.35 2751,-703.35 2757,-703.35 2763,-709.35 2763,-715.35 2763,-715.35 2763,-729.35 2763,-729.35 2763,-735.35 2757,-741.35 2751,-741.35 2751,-741.35 2288,-741.35 2288,-741.35 2282,-741.35 2276,-735.35 2276,-729.35 2276,-729.35 2276,-715.35 2276,-715.35 2276,-709.35 2282,-703.35 2288,-703.35"/>
<text text-anchor="middle" x="2519.5" y="-726.15" font-family="Dejavu Sans Mono" font-size="14.00">White matter of CNS in L2 spinal segment (kblad) layer 14</text>
<text text-anchor="middle" x="2519.5" y="-711.15" font-family="Dejavu Sans Mono" font-size="14.00">(kblad:ref_mat_KM_27_K_129_K23_14)</text>
</g>
<!-- nkblad_ac_snl26_lnk_2&#45;&gt;nkblad_ref_mat_KM_27_K_129_K23_14 -->
<g id="edge78" class="edge">
<title>nkblad_ac_snl26_lnk_2&#45;&gt;nkblad_ref_mat_KM_27_K_129_K23_14</title>
<path fill="none" stroke="black" d="M1814.32,-807.6C1923.23,-804.68 2103.82,-796.91 2258,-776.35 2316.26,-768.58 2380.98,-755.19 2431.33,-743.69"/>
<polygon fill="black" stroke="black" points="2432.24,-747.07 2441.2,-741.41 2430.67,-740.25 2432.24,-747.07"/>
<text text-anchor="middle" x="2158.5" y="-800.15" font-family="Dejavu Sans Mono" font-size="14.00">apinatomy:fasciculatesIn</text>
</g>
<!-- nkblad_K104 -->
<g id="node41" class="node">
<title>nkblad_K104</title>
<path fill="none" stroke="black" d="M7563,-449.35C7563,-449.35 7737,-449.35 7737,-449.35 7743,-449.35 7749,-455.35 7749,-461.35 7749,-461.35 7749,-475.35 7749,-475.35 7749,-481.35 7743,-487.35 7737,-487.35 7737,-487.35 7563,-487.35 7563,-487.35 7557,-487.35 7551,-481.35 7551,-475.35 7551,-475.35 7551,-461.35 7551,-461.35 7551,-455.35 7557,-449.35 7563,-449.35"/>
<text text-anchor="middle" x="7650" y="-472.15" font-family="Dejavu Sans Mono" font-size="14.00">Pelvic ganglia (kblad)</text>
<text text-anchor="middle" x="7650" y="-457.15" font-family="Dejavu Sans Mono" font-size="14.00">(kblad:K104)</text>
</g>
<!-- nkblad_ac_l1l26a_lnk_4&#45;&gt;nkblad_K104 -->
<g id="edge47" class="edge">
<title>nkblad_ac_l1l26a_lnk_4&#45;&gt;nkblad_K104</title>
<path fill="none" stroke="black" d="M7307.53,-468.35C7377.25,-468.35 7469.52,-468.35 7540.57,-468.35"/>
<polygon fill="black" stroke="black" points="7540.9,-471.85 7550.9,-468.35 7540.9,-464.85 7540.9,-471.85"/>
<text text-anchor="middle" x="7433.5" y="-472.15" font-family="Dejavu Sans Mono" font-size="14.00">apinatomy:fasciculatesIn</text>
</g>
<!-- nkblad_ac_snl26_lnk_1 -->
<g id="node19" class="node">
<title>nkblad_ac_snl26_lnk_1</title>
<path fill="none" stroke="black" d="M889.5,-714.35C889.5,-714.35 1063.5,-714.35 1063.5,-714.35 1069.5,-714.35 1075.5,-720.35 1075.5,-726.35 1075.5,-726.35 1075.5,-740.35 1075.5,-740.35 1075.5,-746.35 1069.5,-752.35 1063.5,-752.35 1063.5,-752.35 889.5,-752.35 889.5,-752.35 883.5,-752.35 877.5,-746.35 877.5,-740.35 877.5,-740.35 877.5,-726.35 877.5,-726.35 877.5,-720.35 883.5,-714.35 889.5,-714.35"/>
<text text-anchor="middle" x="976.5" y="-737.15" font-family="Dejavu Sans Mono" font-size="14.00">MISSING LABEL</text>
<text text-anchor="middle" x="976.5" y="-722.15" font-family="Dejavu Sans Mono" font-size="14.00">(kblad:ac&#45;snl26_lnk_1)</text>
</g>
<!-- nkblad_ac_snl26_lnk_1&#45;&gt;nkblad_ref_mat_K_83_K_129_K23_7 -->
<g id="edge17" class="edge">
<title>nkblad_ac_snl26_lnk_1&#45;&gt;nkblad_ref_mat_K_83_K_129_K23_7</title>
<path fill="none" stroke="black" d="M1075.68,-719.88C1201.16,-702.68 1419.55,-672.73 1565.43,-652.72"/>
<polygon fill="black" stroke="black" points="1565.94,-656.19 1575.37,-651.36 1564.99,-649.25 1565.94,-656.19"/>
<text text-anchor="middle" x="1271.5" y="-710.15" font-family="Dejavu Sans Mono" font-size="14.00">apinatomy:fasciculatesIn</text>
</g>
<!-- nkblad_ac_snl26_lnk_1&#45;&gt;nkblad_ac_snl26_lnk_2 -->
<g id="edge10" class="edge">
<title>nkblad_ac_snl26_lnk_1&#45;&gt;nkblad_ac_snl26_lnk_2</title>
<path fill="none" stroke="black" d="M1075.68,-743.48C1213.37,-757.69 1462.93,-783.44 1605.81,-798.18"/>
<polygon fill="black" stroke="black" points="1605.6,-801.68 1615.91,-799.23 1606.32,-794.72 1605.6,-801.68"/>
<text text-anchor="middle" x="1271.5" y="-778.15" font-family="Dejavu Sans Mono" font-size="14.00">apinatomy:next</text>
</g>
<!-- nPMID_3558884 -->
<g id="node20" class="node">
<title>nPMID_3558884</title>
<path fill="none" stroke="black" d="M922.5,-66.35C922.5,-66.35 1030.5,-66.35 1030.5,-66.35 1036.5,-66.35 1042.5,-72.35 1042.5,-78.35 1042.5,-78.35 1042.5,-92.35 1042.5,-92.35 1042.5,-98.35 1036.5,-104.35 1030.5,-104.35 1030.5,-104.35 922.5,-104.35 922.5,-104.35 916.5,-104.35 910.5,-98.35 910.5,-92.35 910.5,-92.35 910.5,-78.35 910.5,-78.35 910.5,-72.35 916.5,-66.35 922.5,-66.35"/>
<text text-anchor="middle" x="976.5" y="-89.15" font-family="Dejavu Sans Mono" font-size="14.00">MISSING LABEL</text>
<text text-anchor="middle" x="976.5" y="-74.15" font-family="Dejavu Sans Mono" font-size="14.00">(PMID:3558884)</text>
</g>
<!-- nPMID_3558884&#45;&gt;nelements_External -->
<g id="edge73" class="edge">
<title>nPMID_3558884&#45;&gt;nelements_External</title>
<path fill="none" stroke="black" d="M1042.53,-93.84C1120.77,-104.43 1255.99,-123.89 1371,-146.35 1460.29,-163.78 1561.57,-188.29 1630.79,-205.77"/>
<polygon fill="black" stroke="black" points="1630.21,-209.24 1640.76,-208.3 1631.93,-202.45 1630.21,-209.24"/>
<text text-anchor="middle" x="1271.5" y="-150.15" font-family="Dejavu Sans Mono" font-size="14.00">type</text>
</g>
<!-- nkblad_ac_snl26_lnk_6 -->
<g id="node21" class="node">
<title>nkblad_ac_snl26_lnk_6</title>
<path fill="none" stroke="black" d="M3938,-490.35C3938,-490.35 4112,-490.35 4112,-490.35 4118,-490.35 4124,-496.35 4124,-502.35 4124,-502.35 4124,-516.35 4124,-516.35 4124,-522.35 4118,-528.35 4112,-528.35 4112,-528.35 3938,-528.35 3938,-528.35 3932,-528.35 3926,-522.35 3926,-516.35 3926,-516.35 3926,-502.35 3926,-502.35 3926,-496.35 3932,-490.35 3938,-490.35"/>
<text text-anchor="middle" x="4025" y="-513.15" font-family="Dejavu Sans Mono" font-size="14.00">MISSING LABEL</text>
<text text-anchor="middle" x="4025" y="-498.15" font-family="Dejavu Sans Mono" font-size="14.00">(kblad:ac&#45;snl26_lnk_6)</text>
</g>
<!-- nkblad_ac_snl26_lnk_6&#45;&gt;nkblad_ac_snl26_lnk_7 -->
<g id="edge95" class="edge">
<title>nkblad_ac_snl26_lnk_6&#45;&gt;nkblad_ac_snl26_lnk_7</title>
<path fill="none" stroke="black" d="M4124.11,-499.92C4200.58,-492.56 4306.68,-482.36 4385.64,-474.77"/>
<polygon fill="black" stroke="black" points="4386,-478.25 4395.62,-473.81 4385.33,-471.28 4386,-478.25"/>
<text text-anchor="middle" x="4278.5" y="-498.15" font-family="Dejavu Sans Mono" font-size="14.00">apinatomy:next</text>
</g>
<!-- nkblad_K93 -->
<g id="node23" class="node">
<title>nkblad_K93</title>
<path fill="none" stroke="black" d="M4412,-508.35C4412,-508.35 4578,-508.35 4578,-508.35 4584,-508.35 4590,-514.35 4590,-520.35 4590,-520.35 4590,-534.35 4590,-534.35 4590,-540.35 4584,-546.35 4578,-546.35 4578,-546.35 4412,-546.35 4412,-546.35 4406,-546.35 4400,-540.35 4400,-534.35 4400,-534.35 4400,-520.35 4400,-520.35 4400,-514.35 4406,-508.35 4412,-508.35"/>
<text text-anchor="middle" x="4495" y="-531.15" font-family="Dejavu Sans Mono" font-size="14.00">L2 gray ramus (kblad)</text>
<text text-anchor="middle" x="4495" y="-516.15" font-family="Dejavu Sans Mono" font-size="14.00">(kblad:K93)</text>
</g>
<!-- nkblad_ac_snl26_lnk_6&#45;&gt;nkblad_K93 -->
<g id="edge15" class="edge">
<title>nkblad_ac_snl26_lnk_6&#45;&gt;nkblad_K93</title>
<path fill="none" stroke="black" d="M4124.11,-513.12C4201.86,-516.11 4310.25,-520.28 4389.6,-523.33"/>
<polygon fill="black" stroke="black" points="4389.49,-526.83 4399.62,-523.72 4389.76,-519.84 4389.49,-526.83"/>
<text text-anchor="middle" x="4278.5" y="-527.15" font-family="Dejavu Sans Mono" font-size="14.00">apinatomy:fasciculatesIn</text>
</g>
<!-- nFMA_65911 -->
<g id="node38" class="node">
<title>nFMA_65911</title>
<path fill="none" stroke="black" d="M4791,-528.35C4791,-528.35 4891,-528.35 4891,-528.35 4897,-528.35 4903,-534.35 4903,-540.35 4903,-540.35 4903,-554.35 4903,-554.35 4903,-560.35 4897,-566.35 4891,-566.35 4891,-566.35 4791,-566.35 4791,-566.35 4785,-566.35 4779,-560.35 4779,-554.35 4779,-554.35 4779,-540.35 4779,-540.35 4779,-534.35 4785,-528.35 4791,-528.35"/>
<text text-anchor="middle" x="4841" y="-551.15" font-family="Dejavu Sans Mono" font-size="14.00">MISSING LABEL</text>
<text text-anchor="middle" x="4841" y="-536.15" font-family="Dejavu Sans Mono" font-size="14.00">(FMA:65911)</text>
</g>
<!-- nkblad_K93&#45;&gt;nFMA_65911 -->
<g id="edge77" class="edge">
<title>nkblad_K93&#45;&gt;nFMA_65911</title>
<path fill="none" stroke="black" d="M4590.15,-522.41C4640.93,-521.08 4704.59,-521.55 4761,-528.35 4763.51,-528.65 4766.06,-529 4768.63,-529.4"/>
<polygon fill="black" stroke="black" points="4768.13,-532.87 4778.58,-531.12 4769.32,-525.97 4768.13,-532.87"/>
<text text-anchor="middle" x="4686.5" y="-532.15" font-family="Dejavu Sans Mono" font-size="14.00">apinatomy:external</text>
</g>
<!-- nkblad_snl26 -->
<g id="node24" class="node">
<title>nkblad_snl26</title>
<path fill="none" stroke="black" d="M811,-618.35C811,-618.35 1142,-618.35 1142,-618.35 1148,-618.35 1154,-624.35 1154,-630.35 1154,-630.35 1154,-644.35 1154,-644.35 1154,-650.35 1148,-656.35 1142,-656.35 1142,-656.35 811,-656.35 811,-656.35 805,-656.35 799,-650.35 799,-644.35 799,-644.35 799,-630.35 799,-630.35 799,-624.35 805,-618.35 811,-618.35"/>
<text text-anchor="middle" x="976.5" y="-641.15" font-family="Dejavu Sans Mono" font-size="14.00">Soma of SPR neuron in L2_Neuron 6 (kblad)</text>
<text text-anchor="middle" x="976.5" y="-626.15" font-family="Dejavu Sans Mono" font-size="14.00">(kblad:snl26)</text>
</g>
<!-- nkblad_snl26&#45;&gt;nkblad_ref_mat_K_83_K_129_K23_7 -->
<g id="edge62" class="edge">
<title>nkblad_snl26&#45;&gt;nkblad_ref_mat_K_83_K_129_K23_7</title>
<path fill="none" stroke="black" d="M1154.38,-636.15C1221.79,-635.69 1301.05,-635.15 1378.37,-634.63"/>
<polygon fill="black" stroke="black" points="1378.8,-638.12 1388.78,-634.56 1378.75,-631.12 1378.8,-638.12"/>
<text text-anchor="middle" x="1271.5" y="-640.15" font-family="Dejavu Sans Mono" font-size="14.00">apinatomy:internalIn</text>
</g>
<!-- nUBERON_0005453 -->
<g id="node25" class="node">
<title>nUBERON_0005453</title>
<path fill="none" stroke="black" d="M7142,-616.35C7142,-616.35 7267,-616.35 7267,-616.35 7273,-616.35 7279,-622.35 7279,-628.35 7279,-628.35 7279,-642.35 7279,-642.35 7279,-648.35 7273,-654.35 7267,-654.35 7267,-654.35 7142,-654.35 7142,-654.35 7136,-654.35 7130,-648.35 7130,-642.35 7130,-642.35 7130,-628.35 7130,-628.35 7130,-622.35 7136,-616.35 7142,-616.35"/>
<text text-anchor="middle" x="7204.5" y="-639.15" font-family="Dejavu Sans Mono" font-size="14.00">MISSING LABEL</text>
<text text-anchor="middle" x="7204.5" y="-624.15" font-family="Dejavu Sans Mono" font-size="14.00">(UBERON:0005453)</text>
</g>
<!-- nPMID_1358408 -->
<g id="node26" class="node">
<title>nPMID_1358408</title>
<path fill="none" stroke="black" d="M922.5,-351.35C922.5,-351.35 1030.5,-351.35 1030.5,-351.35 1036.5,-351.35 1042.5,-357.35 1042.5,-363.35 1042.5,-363.35 1042.5,-377.35 1042.5,-377.35 1042.5,-383.35 1036.5,-389.35 1030.5,-389.35 1030.5,-389.35 922.5,-389.35 922.5,-389.35 916.5,-389.35 910.5,-383.35 910.5,-377.35 910.5,-377.35 910.5,-363.35 910.5,-363.35 910.5,-357.35 916.5,-351.35 922.5,-351.35"/>
<text text-anchor="middle" x="976.5" y="-374.15" font-family="Dejavu Sans Mono" font-size="14.00">MISSING LABEL</text>
<text text-anchor="middle" x="976.5" y="-359.15" font-family="Dejavu Sans Mono" font-size="14.00">(PMID:1358408)</text>
</g>
<!-- nPMID_1358408&#45;&gt;nelements_External -->
<g id="edge45" class="edge">
<title>nPMID_1358408&#45;&gt;nelements_External</title>
<path fill="none" stroke="black" d="M1042.55,-362.18C1120.83,-351.94 1256.07,-332.97 1371,-310.35 1461.38,-292.56 1563.92,-267.03 1633.15,-249"/>
<polygon fill="black" stroke="black" points="1634.33,-252.31 1643.12,-246.39 1632.56,-245.53 1634.33,-252.31"/>
<text text-anchor="middle" x="1271.5" y="-347.15" font-family="Dejavu Sans Mono" font-size="14.00">type</text>
</g>
<!-- nkblad_K102 -->
<g id="node27" class="node">
<title>nkblad_K102</title>
<path fill="none" stroke="black" d="M6556,-616.35C6556,-616.35 6846,-616.35 6846,-616.35 6852,-616.35 6858,-622.35 6858,-628.35 6858,-628.35 6858,-642.35 6858,-642.35 6858,-648.35 6852,-654.35 6846,-654.35 6846,-654.35 6556,-654.35 6556,-654.35 6550,-654.35 6544,-648.35 6544,-642.35 6544,-642.35 6544,-628.35 6544,-628.35 6544,-622.35 6550,-616.35 6556,-616.35"/>
<text text-anchor="middle" x="6701" y="-639.15" font-family="Dejavu Sans Mono" font-size="14.00">Inferior Mesenteric Ganglion (kblad)</text>
<text text-anchor="middle" x="6701" y="-624.15" font-family="Dejavu Sans Mono" font-size="14.00">(kblad:K102)</text>
</g>
<!-- nkblad_K102&#45;&gt;nUBERON_0005453 -->
<g id="edge93" class="edge">
<title>nkblad_K102&#45;&gt;nUBERON_0005453</title>
<path fill="none" stroke="black" d="M6858.27,-635.35C6944.58,-635.35 7048.38,-635.35 7119.47,-635.35"/>
<polygon fill="black" stroke="black" points="7119.72,-638.85 7129.72,-635.35 7119.72,-631.85 7119.72,-638.85"/>
<text text-anchor="middle" x="6975.5" y="-639.15" font-family="Dejavu Sans Mono" font-size="14.00">apinatomy:external</text>
</g>
<!-- nEMAPA_25271 -->
<g id="node28" class="node">
<title>nEMAPA_25271</title>
<path fill="none" stroke="black" d="M3505,-879.35C3505,-879.35 3605,-879.35 3605,-879.35 3611,-879.35 3617,-885.35 3617,-891.35 3617,-891.35 3617,-905.35 3617,-905.35 3617,-911.35 3611,-917.35 3605,-917.35 3605,-917.35 3505,-917.35 3505,-917.35 3499,-917.35 3493,-911.35 3493,-905.35 3493,-905.35 3493,-891.35 3493,-891.35 3493,-885.35 3499,-879.35 3505,-879.35"/>
<text text-anchor="middle" x="3555" y="-902.15" font-family="Dejavu Sans Mono" font-size="14.00">MISSING LABEL</text>
<text text-anchor="middle" x="3555" y="-887.15" font-family="Dejavu Sans Mono" font-size="14.00">(EMAPA:25271)</text>
</g>
<!-- nkblad_neuron_6 -->
<g id="node29" class="node">
<title>nkblad_neuron_6</title>
<path fill="none" stroke="black" d="M444,-686.35C444,-686.35 569,-686.35 569,-686.35 575,-686.35 581,-692.35 581,-698.35 581,-698.35 581,-712.35 581,-712.35 581,-718.35 575,-724.35 569,-724.35 569,-724.35 444,-724.35 444,-724.35 438,-724.35 432,-718.35 432,-712.35 432,-712.35 432,-698.35 432,-698.35 432,-692.35 438,-686.35 444,-686.35"/>
<text text-anchor="middle" x="506.5" y="-709.15" font-family="Dejavu Sans Mono" font-size="14.00">Neuron 6</text>
<text text-anchor="middle" x="506.5" y="-694.15" font-family="Dejavu Sans Mono" font-size="14.00">(kblad:neuron&#45;6)</text>
</g>
<!-- nkblad_neuron_6&#45;&gt;nkblad_snl16 -->
<g id="edge67" class="edge">
<title>nkblad_neuron_6&#45;&gt;nkblad_snl16</title>
<path fill="none" stroke="black" d="M507.57,-724.43C508.33,-814.85 516.45,-1198.89 599,-1276.35 672.46,-1345.29 793.1,-1344.52 877.99,-1332.84"/>
<polygon fill="black" stroke="black" points="878.5,-1336.31 887.89,-1331.41 877.5,-1329.38 878.5,-1336.31"/>
<text text-anchor="middle" x="690" y="-1342.15" font-family="Dejavu Sans Mono" font-size="14.00">apinatomy:lyphs</text>
</g>
<!-- nkblad_neuron_6&#45;&gt;nkblad_dc_snl16_lnk_1 -->
<g id="edge48" class="edge">
<title>nkblad_neuron_6&#45;&gt;nkblad_dc_snl16_lnk_1</title>
<path fill="none" stroke="black" d="M507.92,-724.58C510.21,-809.82 524.02,-1152.52 599,-1221.35 636.94,-1256.18 769.87,-1261.08 867.06,-1259.66"/>
<polygon fill="black" stroke="black" points="867.3,-1263.16 877.24,-1259.49 867.18,-1256.16 867.3,-1263.16"/>
<text text-anchor="middle" x="690" y="-1262.15" font-family="Dejavu Sans Mono" font-size="14.00">apinatomy:links</text>
</g>
<!-- nkblad_neuron_6&#45;&gt;nPMID_1619047 -->
<g id="edge1" class="edge">
<title>nkblad_neuron_6&#45;&gt;nPMID_1619047</title>
<path fill="none" stroke="black" d="M507.85,-686.31C509.84,-600.28 522.61,-249.1 599,-178.35 641.34,-139.13 803.04,-136.8 900.23,-139.19"/>
<polygon fill="black" stroke="black" points="900.21,-142.69 910.3,-139.46 900.4,-135.69 900.21,-142.69"/>
<text text-anchor="middle" x="690" y="-182.15" font-family="Dejavu Sans Mono" font-size="14.00">apinatomy:publications</text>
</g>
<!-- nkblad_neuron_6&#45;&gt;nkblad_dc_snl26_lnk_1 -->
<g id="edge21" class="edge">
<title>nkblad_neuron_6&#45;&gt;nkblad_dc_snl26_lnk_1</title>
<path fill="none" stroke="black" d="M520.02,-686.07C535.57,-663.94 564.35,-628.62 599,-612.35 682.82,-572.98 788.67,-567.29 866.78,-570.12"/>
<polygon fill="black" stroke="black" points="866.99,-573.63 877.13,-570.55 867.28,-566.64 866.99,-573.63"/>
<text text-anchor="middle" x="690" y="-616.15" font-family="Dejavu Sans Mono" font-size="14.00">apinatomy:links</text>
</g>
<!-- nkblad_neuron_6&#45;&gt;nkblad_ac_l1l26a_lnk_3 -->
<g id="edge31" class="edge">
<title>nkblad_neuron_6&#45;&gt;nkblad_ac_l1l26a_lnk_3</title>
<path fill="none" stroke="black" d="M508.23,-724.62C511.75,-805.53 529.63,-1116.48 599,-1178.35 661.63,-1234.2 891.59,-1207.35 975.5,-1207.35 975.5,-1207.35 975.5,-1207.35 6174,-1207.35 6468.35,-1207.35 6387.05,-905.84 6526,-646.35 6535.2,-629.16 6528.89,-618.67 6544,-606.35 6556.73,-595.96 6571.92,-588.5 6587.75,-583.18"/>
<polygon fill="black" stroke="black" points="6589.14,-586.42 6597.67,-580.13 6587.08,-579.72 6589.14,-586.42"/>
<text text-anchor="middle" x="4025" y="-1211.15" font-family="Dejavu Sans Mono" font-size="14.00">apinatomy:links</text>
</g>
<!-- nkblad_neuron_6&#45;&gt;nkblad_ac_snl16_lnk_1 -->
<g id="edge92" class="edge">
<title>nkblad_neuron_6&#45;&gt;nkblad_ac_snl16_lnk_1</title>
<path fill="none" stroke="black" d="M508.83,-724.46C514.39,-798.66 538.44,-1066.32 599,-1120.35 637.48,-1154.68 770.29,-1161.57 867.3,-1161.77"/>
<polygon fill="black" stroke="black" points="867.46,-1165.27 877.46,-1161.77 867.46,-1158.27 867.46,-1165.27"/>
<text text-anchor="middle" x="690" y="-1163.15" font-family="Dejavu Sans Mono" font-size="14.00">apinatomy:links</text>
</g>
<!-- nkblad_neuron_6&#45;&gt;nkblad_ac_snl26_lnk_7 -->
<g id="edge55" class="edge">
<title>nkblad_neuron_6&#45;&gt;nkblad_ac_snl26_lnk_7</title>
<path fill="none" stroke="black" d="M508.66,-686.33C512.54,-641.37 529.12,-528.55 599,-478.35 667.06,-429.45 891.69,-456.35 975.5,-456.35 975.5,-456.35 975.5,-456.35 4026,-456.35 4149.29,-456.35 4290.83,-459.16 4385.68,-461.45"/>
<polygon fill="black" stroke="black" points="4385.77,-464.95 4395.85,-461.7 4385.94,-457.95 4385.77,-464.95"/>
<text text-anchor="middle" x="2880.5" y="-460.15" font-family="Dejavu Sans Mono" font-size="14.00">apinatomy:links</text>
</g>
<!-- nkblad_neuron_6&#45;&gt;nkblad_ac_snl26_lnk_2 -->
<g id="edge79" class="edge">
<title>nkblad_neuron_6&#45;&gt;nkblad_ac_snl26_lnk_2</title>
<path fill="none" stroke="black" d="M519.98,-724.45C535.5,-746.28 564.24,-780.86 599,-795.35 690.09,-833.31 1343.42,-819.68 1605.57,-812.56"/>
<polygon fill="black" stroke="black" points="1605.97,-816.05 1615.87,-812.28 1605.78,-809.05 1605.97,-816.05"/>
<text text-anchor="middle" x="976.5" y="-825.15" font-family="Dejavu Sans Mono" font-size="14.00">apinatomy:links</text>
</g>
<!-- nkblad_neuron_6&#45;&gt;nkblad_ac_l1l26a_lnk_4 -->
<g id="edge53" class="edge">
<title>nkblad_neuron_6&#45;&gt;nkblad_ac_l1l26a_lnk_4</title>
<path fill="none" stroke="black" d="M507.09,-686.22C505.41,-588.13 503.22,-142.69 599,-55.35 722.78,57.53 807.98,-37.35 975.5,-37.35 975.5,-37.35 975.5,-37.35 6702,-37.35 6950.31,-37.35 7137.03,-345.03 7188.97,-440.46"/>
<polygon fill="black" stroke="black" points="7185.89,-442.12 7193.71,-449.27 7192.06,-438.81 7185.89,-442.12"/>
<text text-anchor="middle" x="4278.5" y="-41.15" font-family="Dejavu Sans Mono" font-size="14.00">apinatomy:links</text>
</g>
<!-- nkblad_neuron_6&#45;&gt;nkblad_ac_snl26_lnk_1 -->
<g id="edge24" class="edge">
<title>nkblad_neuron_6&#45;&gt;nkblad_ac_snl26_lnk_1</title>
<path fill="none" stroke="black" d="M581.14,-709.75C658.1,-714.36 779.65,-721.63 867.47,-726.89"/>
<polygon fill="black" stroke="black" points="867.28,-730.38 877.47,-727.48 867.7,-723.39 867.28,-730.38"/>
<text text-anchor="middle" x="690" y="-725.15" font-family="Dejavu Sans Mono" font-size="14.00">apinatomy:links</text>
</g>
<!-- nkblad_neuron_6&#45;&gt;nPMID_3558884 -->
<g id="edge57" class="edge">
<title>nkblad_neuron_6&#45;&gt;nPMID_3558884</title>
<path fill="none" stroke="black" d="M507.5,-686.14C507.92,-594.25 514.67,-200.76 599,-121.35 679.05,-45.97 815.45,-53.8 900.25,-68.23"/>
<polygon fill="black" stroke="black" points="899.87,-71.72 910.32,-70.02 901.09,-64.83 899.87,-71.72"/>
<text text-anchor="middle" x="690" y="-125.15" font-family="Dejavu Sans Mono" font-size="14.00">apinatomy:publications</text>
</g>
<!-- nkblad_neuron_6&#45;&gt;nkblad_ac_snl26_lnk_6 -->
<g id="edge84" class="edge">
<title>nkblad_neuron_6&#45;&gt;nkblad_ac_snl26_lnk_6</title>
<path fill="none" stroke="black" d="M513.95,-686.13C525.51,-655.04 552.94,-594.5 599,-567.35 675.82,-522.07 709.91,-555.14 799,-551.35 1722.84,-512.01 1954.82,-540.35 2879.5,-540.35 2879.5,-540.35 2879.5,-540.35 3556,-540.35 3679.54,-540.35 3821.03,-529.46 3915.8,-520.59"/>
<polygon fill="black" stroke="black" points="3916.34,-524.05 3925.97,-519.63 3915.69,-517.08 3916.34,-524.05"/>
<text text-anchor="middle" x="2519.5" y="-544.15" font-family="Dejavu Sans Mono" font-size="14.00">apinatomy:links</text>
</g>
<!-- nkblad_neuron_6&#45;&gt;nkblad_snl26 -->
<g id="edge58" class="edge">
<title>nkblad_neuron_6&#45;&gt;nkblad_snl26</title>
<path fill="none" stroke="black" d="M535.37,-686.23C552.83,-675.35 576.26,-662.67 599,-656.35 659.33,-639.58 727.15,-632.7 788.44,-630.64"/>
<polygon fill="black" stroke="black" points="788.72,-634.14 798.61,-630.35 788.52,-627.14 788.72,-634.14"/>
<text text-anchor="middle" x="690" y="-660.15" font-family="Dejavu Sans Mono" font-size="14.00">apinatomy:lyphs</text>
</g>
<!-- nkblad_neuron_6&#45;&gt;nPMID_1358408 -->
<g id="edge49" class="edge">
<title>nkblad_neuron_6&#45;&gt;nPMID_1358408</title>
<path fill="none" stroke="black" d="M510.15,-686.13C519.19,-623.53 550.97,-427.37 599,-389.35 643.97,-353.74 803.89,-357.99 900.25,-364.21"/>
<polygon fill="black" stroke="black" points="900.02,-367.7 910.23,-364.87 900.49,-360.71 900.02,-367.7"/>
<text text-anchor="middle" x="690" y="-393.15" font-family="Dejavu Sans Mono" font-size="14.00">apinatomy:publications</text>
</g>
<!-- nkblad_ac_snl16_lnk_7 -->
<g id="node31" class="node">
<title>nkblad_ac_snl16_lnk_7</title>
<path fill="none" stroke="black" d="M4408,-566.35C4408,-566.35 4582,-566.35 4582,-566.35 4588,-566.35 4594,-572.35 4594,-578.35 4594,-578.35 4594,-592.35 4594,-592.35 4594,-598.35 4588,-604.35 4582,-604.35 4582,-604.35 4408,-604.35 4408,-604.35 4402,-604.35 4396,-598.35 4396,-592.35 4396,-592.35 4396,-578.35 4396,-578.35 4396,-572.35 4402,-566.35 4408,-566.35"/>
<text text-anchor="middle" x="4495" y="-589.15" font-family="Dejavu Sans Mono" font-size="14.00">MISSING LABEL</text>
<text text-anchor="middle" x="4495" y="-574.15" font-family="Dejavu Sans Mono" font-size="14.00">(kblad:ac&#45;snl16_lnk_7)</text>
</g>
<!-- nkblad_neuron_6&#45;&gt;nkblad_ac_snl16_lnk_7 -->
<g id="edge54" class="edge">
<title>nkblad_neuron_6&#45;&gt;nkblad_ac_snl16_lnk_7</title>
<path fill="none" stroke="black" d="M511.9,-686.31C521.2,-650.77 546.47,-574.75 599,-539.35 738.75,-445.17 806.98,-494.35 975.5,-494.35 975.5,-494.35 975.5,-494.35 2159.5,-494.35 2727.9,-494.35 2870.06,-503.38 3438,-526.35 3784.52,-540.36 4194.53,-565.81 4385.73,-578.2"/>
<polygon fill="black" stroke="black" points="4385.57,-581.69 4395.78,-578.85 4386.03,-574.71 4385.57,-581.69"/>
<text text-anchor="middle" x="2880.5" y="-512.15" font-family="Dejavu Sans Mono" font-size="14.00">apinatomy:links</text>
</g>
<!-- nPMID_30704972 -->
<g id="node34" class="node">
<title>nPMID_30704972</title>
<path fill="none" stroke="black" d="M918.5,-294.35C918.5,-294.35 1034.5,-294.35 1034.5,-294.35 1040.5,-294.35 1046.5,-300.35 1046.5,-306.35 1046.5,-306.35 1046.5,-320.35 1046.5,-320.35 1046.5,-326.35 1040.5,-332.35 1034.5,-332.35 1034.5,-332.35 918.5,-332.35 918.5,-332.35 912.5,-332.35 906.5,-326.35 906.5,-320.35 906.5,-320.35 906.5,-306.35 906.5,-306.35 906.5,-300.35 912.5,-294.35 918.5,-294.35"/>
<text text-anchor="middle" x="976.5" y="-317.15" font-family="Dejavu Sans Mono" font-size="14.00">MISSING LABEL</text>
<text text-anchor="middle" x="976.5" y="-302.15" font-family="Dejavu Sans Mono" font-size="14.00">(PMID:30704972)</text>
</g>
<!-- nkblad_neuron_6&#45;&gt;nPMID_30704972 -->
<g id="edge35" class="edge">
<title>nkblad_neuron_6&#45;&gt;nPMID_30704972</title>
<path fill="none" stroke="black" d="M509.41,-686.22C516.64,-617.82 544.77,-386.97 599,-341.35 642.42,-304.82 799.3,-304.9 896.32,-308.77"/>
<polygon fill="black" stroke="black" points="896.25,-312.27 906.39,-309.19 896.55,-305.27 896.25,-312.27"/>
<text text-anchor="middle" x="690" y="-345.15" font-family="Dejavu Sans Mono" font-size="14.00">apinatomy:publications</text>
</g>
<!-- nkblad_neuron_6&#45;&gt;nkblad_ac_snl16_lnk_2 -->
<g id="edge66" class="edge">
<title>nkblad_neuron_6&#45;&gt;nkblad_ac_snl16_lnk_2</title>
<path fill="none" stroke="black" d="M509.33,-724.78C516.29,-794.27 543.59,-1028.72 599,-1074.35 618.27,-1090.22 1329.05,-1116.83 1605.53,-1126.6"/>
<polygon fill="black" stroke="black" points="1605.46,-1130.1 1615.58,-1126.96 1605.71,-1123.11 1605.46,-1130.1"/>
<text text-anchor="middle" x="976.5" y="-1112.15" font-family="Dejavu Sans Mono" font-size="14.00">apinatomy:links</text>
</g>
<!-- nkblad_ac_snl16_lnk_6 -->
<g id="node45" class="node">
<title>nkblad_ac_snl16_lnk_6</title>
<path fill="none" stroke="black" d="M3938,-927.35C3938,-927.35 4112,-927.35 4112,-927.35 4118,-927.35 4124,-933.35 4124,-939.35 4124,-939.35 4124,-953.35 4124,-953.35 4124,-959.35 4118,-965.35 4112,-965.35 4112,-965.35 3938,-965.35 3938,-965.35 3932,-965.35 3926,-959.35 3926,-953.35 3926,-953.35 3926,-939.35 3926,-939.35 3926,-933.35 3932,-927.35 3938,-927.35"/>
<text text-anchor="middle" x="4025" y="-950.15" font-family="Dejavu Sans Mono" font-size="14.00">MISSING LABEL</text>
<text text-anchor="middle" x="4025" y="-935.15" font-family="Dejavu Sans Mono" font-size="14.00">(kblad:ac&#45;snl16_lnk_6)</text>
</g>
<!-- nkblad_neuron_6&#45;&gt;nkblad_ac_snl16_lnk_6 -->
<g id="edge65" class="edge">
<title>nkblad_neuron_6&#45;&gt;nkblad_ac_snl16_lnk_6</title>
<path fill="none" stroke="black" d="M509.76,-724.48C515.79,-765.99 536.29,-864.24 599,-909.35 667.25,-958.44 891.43,-946.35 975.5,-946.35 975.5,-946.35 975.5,-946.35 3556,-946.35 3679.27,-946.35 3820.81,-946.35 3915.67,-946.35"/>
<polygon fill="black" stroke="black" points="3915.85,-949.85 3925.85,-946.35 3915.85,-942.85 3915.85,-949.85"/>
<text text-anchor="middle" x="2519.5" y="-950.15" font-family="Dejavu Sans Mono" font-size="14.00">apinatomy:links</text>
</g>
<!-- nkblad_ac_snl16_lnk_3 -->
<g id="node46" class="node">
<title>nkblad_ac_snl16_lnk_3</title>
<path fill="none" stroke="black" d="M2432.5,-1088.35C2432.5,-1088.35 2606.5,-1088.35 2606.5,-1088.35 2612.5,-1088.35 2618.5,-1094.35 2618.5,-1100.35 2618.5,-1100.35 2618.5,-1114.35 2618.5,-1114.35 2618.5,-1120.35 2612.5,-1126.35 2606.5,-1126.35 2606.5,-1126.35 2432.5,-1126.35 2432.5,-1126.35 2426.5,-1126.35 2420.5,-1120.35 2420.5,-1114.35 2420.5,-1114.35 2420.5,-1100.35 2420.5,-1100.35 2420.5,-1094.35 2426.5,-1088.35 2432.5,-1088.35"/>
<text text-anchor="middle" x="2519.5" y="-1111.15" font-family="Dejavu Sans Mono" font-size="14.00">MISSING LABEL</text>
<text text-anchor="middle" x="2519.5" y="-1096.15" font-family="Dejavu Sans Mono" font-size="14.00">(kblad:ac&#45;snl16_lnk_3)</text>
</g>
<!-- nkblad_neuron_6&#45;&gt;nkblad_ac_snl16_lnk_3 -->
<g id="edge22" class="edge">
<title>nkblad_neuron_6&#45;&gt;nkblad_ac_snl16_lnk_3</title>
<path fill="none" stroke="black" d="M509.86,-724.59C518.22,-789.19 548.61,-996.5 599,-1036.35 634.75,-1064.62 2010.04,-1096.4 2410.28,-1105.06"/>
<polygon fill="black" stroke="black" points="2410.34,-1108.57 2420.41,-1105.28 2410.49,-1101.57 2410.34,-1108.57"/>
<text text-anchor="middle" x="1271.5" y="-1081.15" font-family="Dejavu Sans Mono" font-size="14.00">apinatomy:links</text>
</g>
<!-- nkblad_ac_snl16_lnk_5 -->
<g id="node47" class="node">
<title>nkblad_ac_snl16_lnk_5</title>
<path fill="none" stroke="black" d="M3468,-980.35C3468,-980.35 3642,-980.35 3642,-980.35 3648,-980.35 3654,-986.35 3654,-992.35 3654,-992.35 3654,-1006.35 3654,-1006.35 3654,-1012.35 3648,-1018.35 3642,-1018.35 3642,-1018.35 3468,-1018.35 3468,-1018.35 3462,-1018.35 3456,-1012.35 3456,-1006.35 3456,-1006.35 3456,-992.35 3456,-992.35 3456,-986.35 3462,-980.35 3468,-980.35"/>
<text text-anchor="middle" x="3555" y="-1003.15" font-family="Dejavu Sans Mono" font-size="14.00">MISSING LABEL</text>
<text text-anchor="middle" x="3555" y="-988.15" font-family="Dejavu Sans Mono" font-size="14.00">(kblad:ac&#45;snl16_lnk_5)</text>
</g>
<!-- nkblad_neuron_6&#45;&gt;nkblad_ac_snl16_lnk_5 -->
<g id="edge86" class="edge">
<title>nkblad_neuron_6&#45;&gt;nkblad_ac_snl16_lnk_5</title>
<path fill="none" stroke="black" d="M507.59,-724.65C509,-773.88 520.32,-904.21 599,-960.35 716.92,-1044.49 2927.23,-1010.51 3445.78,-1001.35"/>
<polygon fill="black" stroke="black" points="3445.94,-1004.85 3455.88,-1001.17 3445.82,-997.85 3445.94,-1004.85"/>
<text text-anchor="middle" x="2158.5" y="-1019.15" font-family="Dejavu Sans Mono" font-size="14.00">apinatomy:links</text>
</g>
<!-- nkblad_ac_snl26_lnk_5 -->
<g id="node48" class="node">
<title>nkblad_ac_snl26_lnk_5</title>
<path fill="none" stroke="black" d="M3468,-751.35C3468,-751.35 3642,-751.35 3642,-751.35 3648,-751.35 3654,-757.35 3654,-763.35 3654,-763.35 3654,-777.35 3654,-777.35 3654,-783.35 3648,-789.35 3642,-789.35 3642,-789.35 3468,-789.35 3468,-789.35 3462,-789.35 3456,-783.35 3456,-777.35 3456,-777.35 3456,-763.35 3456,-763.35 3456,-757.35 3462,-751.35 3468,-751.35"/>
<text text-anchor="middle" x="3555" y="-774.15" font-family="Dejavu Sans Mono" font-size="14.00">MISSING LABEL</text>
<text text-anchor="middle" x="3555" y="-759.15" font-family="Dejavu Sans Mono" font-size="14.00">(kblad:ac&#45;snl26_lnk_5)</text>
</g>
<!-- nkblad_neuron_6&#45;&gt;nkblad_ac_snl26_lnk_5 -->
<g id="edge82" class="edge">
<title>nkblad_neuron_6&#45;&gt;nkblad_ac_snl26_lnk_5</title>
<path fill="none" stroke="black" d="M550.52,-724.45C565.58,-730.43 582.79,-736.47 599,-740.35 846.94,-799.71 917.06,-765.3 1172,-767.35 1260.44,-768.06 1282.56,-767.99 1371,-767.35 1676.8,-765.13 1753.2,-759.57 2059,-757.35 2578.37,-753.57 3199.21,-763.64 3445.58,-768.22"/>
<polygon fill="black" stroke="black" points="3445.54,-771.72 3455.61,-768.41 3445.67,-764.72 3445.54,-771.72"/>
<text text-anchor="middle" x="2158.5" y="-761.15" font-family="Dejavu Sans Mono" font-size="14.00">apinatomy:links</text>
</g>
<!-- nkblad_neuron_6&#45;&gt;nkblad_ac_l1l26a_lnk_2 -->
<g id="edge87" class="edge">
<title>nkblad_neuron_6&#45;&gt;nkblad_ac_l1l26a_lnk_2</title>
<path fill="none" stroke="black" d="M581.12,-703.17C894,-693.93 2105.09,-658.22 2276,-654.35 3773,-620.43 5594.2,-613.77 6059.57,-612.58"/>
<polygon fill="black" stroke="black" points="6059.66,-616.08 6069.65,-612.56 6059.64,-609.08 6059.66,-616.08"/>
<text text-anchor="middle" x="3771.5" y="-635.15" font-family="Dejavu Sans Mono" font-size="14.00">apinatomy:links</text>
</g>
<!-- nkblad_neuron_6&#45;&gt;nkblad_ac_snl26_lnk_3 -->
<g id="edge25" class="edge">
<title>nkblad_neuron_6&#45;&gt;nkblad_ac_snl26_lnk_3</title>
<path fill="none" stroke="black" d="M510.67,-724.63C518.16,-763.08 540.86,-848.64 599,-884.35 676.43,-931.9 2015.49,-902.77 2409.99,-893.12"/>
<polygon fill="black" stroke="black" points="2410.35,-896.61 2420.26,-892.86 2410.17,-889.61 2410.35,-896.61"/>
<text text-anchor="middle" x="1271.5" y="-915.15" font-family="Dejavu Sans Mono" font-size="14.00">apinatomy:links</text>
</g>
<!-- nkblad_neuron_6&#45;&gt;nkblad_ac_l1l26a_lnk_1 -->
<g id="edge50" class="edge">
<title>nkblad_neuron_6&#45;&gt;nkblad_ac_l1l26a_lnk_1</title>
<path fill="none" stroke="black" d="M507.42,-686.02C508.4,-636.06 518.73,-502.57 599,-445.35 728.24,-353.21 3297.28,-428.17 3456,-427.35 4272.79,-423.14 5256.98,-419.78 5585.3,-418.71"/>
<polygon fill="black" stroke="black" points="5585.78,-422.21 5595.77,-418.68 5585.75,-415.21 5585.78,-422.21"/>
<text text-anchor="middle" x="3555" y="-431.15" font-family="Dejavu Sans Mono" font-size="14.00">apinatomy:links</text>
</g>
<!-- nPMID_3225349 -->
<g id="node57" class="node">
<title>nPMID_3225349</title>
<path fill="none" stroke="black" d="M922.5,-237.35C922.5,-237.35 1030.5,-237.35 1030.5,-237.35 1036.5,-237.35 1042.5,-243.35 1042.5,-249.35 1042.5,-249.35 1042.5,-263.35 1042.5,-263.35 1042.5,-269.35 1036.5,-275.35 1030.5,-275.35 1030.5,-275.35 922.5,-275.35 922.5,-275.35 916.5,-275.35 910.5,-269.35 910.5,-263.35 910.5,-263.35 910.5,-249.35 910.5,-249.35 910.5,-243.35 916.5,-237.35 922.5,-237.35"/>
<text text-anchor="middle" x="976.5" y="-260.15" font-family="Dejavu Sans Mono" font-size="14.00">MISSING LABEL</text>
<text text-anchor="middle" x="976.5" y="-245.15" font-family="Dejavu Sans Mono" font-size="14.00">(PMID:3225349)</text>
</g>
<!-- nkblad_neuron_6&#45;&gt;nPMID_3225349 -->
<g id="edge8" class="edge">
<title>nkblad_neuron_6&#45;&gt;nPMID_3225349</title>
<path fill="none" stroke="black" d="M508.79,-686.17C514.24,-611.68 537.89,-343.04 599,-289.35 642.26,-251.34 803.22,-249.94 900.12,-252.81"/>
<polygon fill="black" stroke="black" points="900.05,-256.31 910.16,-253.13 900.28,-249.32 900.05,-256.31"/>
<text text-anchor="middle" x="690" y="-293.15" font-family="Dejavu Sans Mono" font-size="14.00">apinatomy:publications</text>
</g>
<!-- nkblad_ac_snl26_lnk_4 -->
<g id="node62" class="node">
<title>nkblad_ac_snl26_lnk_4</title>
<path fill="none" stroke="black" d="M3022.5,-822.35C3022.5,-822.35 3196.5,-822.35 3196.5,-822.35 3202.5,-822.35 3208.5,-828.35 3208.5,-834.35 3208.5,-834.35 3208.5,-848.35 3208.5,-848.35 3208.5,-854.35 3202.5,-860.35 3196.5,-860.35 3196.5,-860.35 3022.5,-860.35 3022.5,-860.35 3016.5,-860.35 3010.5,-854.35 3010.5,-848.35 3010.5,-848.35 3010.5,-834.35 3010.5,-834.35 3010.5,-828.35 3016.5,-822.35 3022.5,-822.35"/>
<text text-anchor="middle" x="3109.5" y="-845.15" font-family="Dejavu Sans Mono" font-size="14.00">MISSING LABEL</text>
<text text-anchor="middle" x="3109.5" y="-830.15" font-family="Dejavu Sans Mono" font-size="14.00">(kblad:ac&#45;snl26_lnk_4)</text>
</g>
<!-- nkblad_neuron_6&#45;&gt;nkblad_ac_snl26_lnk_4 -->
<g id="edge46" class="edge">
<title>nkblad_neuron_6&#45;&gt;nkblad_ac_snl26_lnk_4</title>
<path fill="none" stroke="black" d="M516.47,-724.37C530.14,-750.97 558.9,-798.49 599,-820.35 677.43,-863.11 709.8,-835.47 799,-840.35 1446.5,-875.73 1609.55,-856.54 2258,-852.35 2524.59,-850.62 2838.15,-845.86 2999.85,-843.2"/>
<polygon fill="black" stroke="black" points="3000.34,-846.7 3010.28,-843.03 3000.23,-839.7 3000.34,-846.7"/>
<text text-anchor="middle" x="1715" y="-865.15" font-family="Dejavu Sans Mono" font-size="14.00">apinatomy:links</text>
</g>
<!-- nPMID_2891149 -->
<g id="node63" class="node">
<title>nPMID_2891149</title>
<path fill="none" stroke="black" d="M922.5,-180.35C922.5,-180.35 1030.5,-180.35 1030.5,-180.35 1036.5,-180.35 1042.5,-186.35 1042.5,-192.35 1042.5,-192.35 1042.5,-206.35 1042.5,-206.35 1042.5,-212.35 1036.5,-218.35 1030.5,-218.35 1030.5,-218.35 922.5,-218.35 922.5,-218.35 916.5,-218.35 910.5,-212.35 910.5,-206.35 910.5,-206.35 910.5,-192.35 910.5,-192.35 910.5,-186.35 916.5,-180.35 922.5,-180.35"/>
<text text-anchor="middle" x="976.5" y="-203.15" font-family="Dejavu Sans Mono" font-size="14.00">MISSING LABEL</text>
<text text-anchor="middle" x="976.5" y="-188.15" font-family="Dejavu Sans Mono" font-size="14.00">(PMID:2891149)</text>
</g>
<!-- nkblad_neuron_6&#45;&gt;nPMID_2891149 -->
<g id="edge33" class="edge">
<title>nkblad_neuron_6&#45;&gt;nPMID_2891149</title>
<path fill="none" stroke="black" d="M508.27,-686.19C511.94,-605.73 530.38,-296.48 599,-234.35 641.77,-195.62 803.31,-193.58 900.36,-196.1"/>
<polygon fill="black" stroke="black" points="900.32,-199.6 910.41,-196.38 900.51,-192.6 900.32,-199.6"/>
<text text-anchor="middle" x="690" y="-238.15" font-family="Dejavu Sans Mono" font-size="14.00">apinatomy:publications</text>
</g>
<!-- nkblad_ac_snl16_lnk_4 -->
<g id="node64" class="node">
<title>nkblad_ac_snl16_lnk_4</title>
<path fill="none" stroke="black" d="M3022.5,-1029.35C3022.5,-1029.35 3196.5,-1029.35 3196.5,-1029.35 3202.5,-1029.35 3208.5,-1035.35 3208.5,-1041.35 3208.5,-1041.35 3208.5,-1055.35 3208.5,-1055.35 3208.5,-1061.35 3202.5,-1067.35 3196.5,-1067.35 3196.5,-1067.35 3022.5,-1067.35 3022.5,-1067.35 3016.5,-1067.35 3010.5,-1061.35 3010.5,-1055.35 3010.5,-1055.35 3010.5,-1041.35 3010.5,-1041.35 3010.5,-1035.35 3016.5,-1029.35 3022.5,-1029.35"/>
<text text-anchor="middle" x="3109.5" y="-1052.15" font-family="Dejavu Sans Mono" font-size="14.00">MISSING LABEL</text>
<text text-anchor="middle" x="3109.5" y="-1037.15" font-family="Dejavu Sans Mono" font-size="14.00">(kblad:ac&#45;snl16_lnk_4)</text>
</g>
<!-- nkblad_neuron_6&#45;&gt;nkblad_ac_snl16_lnk_4 -->
<g id="edge2" class="edge">
<title>nkblad_neuron_6&#45;&gt;nkblad_ac_snl16_lnk_4</title>
<path fill="none" stroke="black" d="M510.54,-724.49C520.41,-784.06 553.61,-964.27 599,-998.35 696.21,-1071.33 2530.99,-1055.07 3000.04,-1049.69"/>
<polygon fill="black" stroke="black" points="3000.24,-1053.19 3010.2,-1049.58 3000.16,-1046.19 3000.24,-1053.19"/>
<text text-anchor="middle" x="1715" y="-1058.15" font-family="Dejavu Sans Mono" font-size="14.00">apinatomy:links</text>
</g>
<!-- nUBERON_0005303 -->
<g id="node30" class="node">
<title>nUBERON_0005303</title>
<path fill="none" stroke="black" d="M7587.5,-552.35C7587.5,-552.35 7712.5,-552.35 7712.5,-552.35 7718.5,-552.35 7724.5,-558.35 7724.5,-564.35 7724.5,-564.35 7724.5,-578.35 7724.5,-578.35 7724.5,-584.35 7718.5,-590.35 7712.5,-590.35 7712.5,-590.35 7587.5,-590.35 7587.5,-590.35 7581.5,-590.35 7575.5,-584.35 7575.5,-578.35 7575.5,-578.35 7575.5,-564.35 7575.5,-564.35 7575.5,-558.35 7581.5,-552.35 7587.5,-552.35"/>
<text text-anchor="middle" x="7650" y="-575.15" font-family="Dejavu Sans Mono" font-size="14.00">MISSING LABEL</text>
<text text-anchor="middle" x="7650" y="-560.15" font-family="Dejavu Sans Mono" font-size="14.00">(UBERON:0005303)</text>
</g>
<!-- nkblad_ac_snl16_lnk_7&#45;&gt;nkblad_ns23 -->
<g id="edge97" class="edge">
<title>nkblad_ac_snl16_lnk_7&#45;&gt;nkblad_ns23</title>
<path fill="none" stroke="black" d="M4594.09,-569.22C4600.15,-568.24 4606.16,-567.28 4612,-566.35 4678.17,-555.82 4703.87,-578.37 4761,-543.35 4772.67,-536.19 4768.43,-527.05 4779,-518.35 4780.36,-517.23 4781.77,-516.14 4783.23,-515.09"/>
<polygon fill="black" stroke="black" points="4785.45,-517.83 4791.93,-509.45 4781.64,-511.95 4785.45,-517.83"/>
<text text-anchor="middle" x="4686.5" y="-570.15" font-family="Dejavu Sans Mono" font-size="14.00">apinatomy:target</text>
</g>
<!-- nkblad_ac_snl16_lnk_7&#45;&gt;nkblad_n_lumspl -->
<g id="edge41" class="edge">
<title>nkblad_ac_snl16_lnk_7&#45;&gt;nkblad_n_lumspl</title>
<path fill="none" stroke="black" d="M4594.18,-584.5C4644.13,-583.91 4705.81,-582.93 4761,-581.35 4824.14,-579.54 4839.9,-578.32 4903,-575.35 4965.01,-572.43 5971.01,-556.73 6019,-517.35 6044.16,-496.7 6013.96,-469.35 6037,-446.35 6040.5,-442.85 6044.31,-439.69 6048.35,-436.85"/>
<polygon fill="black" stroke="black" points="6050.35,-439.72 6056.95,-431.43 6046.62,-433.8 6050.35,-439.72"/>
<text text-anchor="middle" x="5249.5" y="-575.15" font-family="Dejavu Sans Mono" font-size="14.00">apinatomy:fasciculatesIn</text>
</g>
<!-- nkblad_ref_mat_KM_27_K_129_K22_14 -->
<g id="node33" class="node">
<title>nkblad_ref_mat_KM_27_K_129_K22_14</title>
<path fill="none" stroke="black" d="M2288,-1236.35C2288,-1236.35 2751,-1236.35 2751,-1236.35 2757,-1236.35 2763,-1242.35 2763,-1248.35 2763,-1248.35 2763,-1262.35 2763,-1262.35 2763,-1268.35 2757,-1274.35 2751,-1274.35 2751,-1274.35 2288,-1274.35 2288,-1274.35 2282,-1274.35 2276,-1268.35 2276,-1262.35 2276,-1262.35 2276,-1248.35 2276,-1248.35 2276,-1242.35 2282,-1236.35 2288,-1236.35"/>
<text text-anchor="middle" x="2519.5" y="-1259.15" font-family="Dejavu Sans Mono" font-size="14.00">White matter of CNS in L1 spinal segment (kblad) layer 14</text>
<text text-anchor="middle" x="2519.5" y="-1244.15" font-family="Dejavu Sans Mono" font-size="14.00">(kblad:ref_mat_KM_27_K_129_K22_14)</text>
</g>
<!-- nkblad_ref_mat_KM_27_K_129_K22_14&#45;&gt;nkblad_K22 -->
<g id="edge64" class="edge">
<title>nkblad_ref_mat_KM_27_K_129_K22_14&#45;&gt;nkblad_K22</title>
<path fill="none" stroke="black" d="M2763.06,-1266.9C2840.38,-1270.58 2922.6,-1274.5 2987.43,-1277.58"/>
<polygon fill="black" stroke="black" points="2987.52,-1281.09 2997.68,-1278.07 2987.86,-1274.1 2987.52,-1281.09"/>
<text text-anchor="middle" x="2880.5" y="-1280.15" font-family="Dejavu Sans Mono" font-size="14.00">apinatomy:layerIn</text>
</g>
<!-- nPMID_30704972&#45;&gt;nelements_External -->
<g id="edge7" class="edge">
<title>nPMID_30704972&#45;&gt;nelements_External</title>
<path fill="none" stroke="black" d="M1046.82,-305.53C1125.43,-296.64 1257.46,-281.63 1371,-268.35 1454.6,-258.57 1549.63,-247.19 1618.43,-238.91"/>
<polygon fill="black" stroke="black" points="1618.87,-242.38 1628.38,-237.71 1618.03,-235.43 1618.87,-242.38"/>
<text text-anchor="middle" x="1271.5" y="-295.15" font-family="Dejavu Sans Mono" font-size="14.00">type</text>
</g>
<!-- nUBERON_0016508 -->
<g id="node35" class="node">
<title>nUBERON_0016508</title>
<path fill="none" stroke="black" d="M7946,-449.35C7946,-449.35 8071,-449.35 8071,-449.35 8077,-449.35 8083,-455.35 8083,-461.35 8083,-461.35 8083,-475.35 8083,-475.35 8083,-481.35 8077,-487.35 8071,-487.35 8071,-487.35 7946,-487.35 7946,-487.35 7940,-487.35 7934,-481.35 7934,-475.35 7934,-475.35 7934,-461.35 7934,-461.35 7934,-455.35 7940,-449.35 7946,-449.35"/>
<text text-anchor="middle" x="8008.5" y="-472.15" font-family="Dejavu Sans Mono" font-size="14.00">pelvic ganglion</text>
<text text-anchor="middle" x="8008.5" y="-457.15" font-family="Dejavu Sans Mono" font-size="14.00">(UBERON:0016508)</text>
</g>
<!-- nkblad_ac_snl16_lnk_2&#45;&gt;nkblad_ref_mat_KM_27_K_129_K22_14 -->
<g id="edge72" class="edge">
<title>nkblad_ac_snl16_lnk_2&#45;&gt;nkblad_ref_mat_KM_27_K_129_K22_14</title>
<path fill="none" stroke="black" d="M1814,-1145.61C1957.55,-1167.97 2225.34,-1209.69 2386.22,-1234.74"/>
<polygon fill="black" stroke="black" points="2385.76,-1238.21 2396.18,-1236.3 2386.84,-1231.3 2385.76,-1238.21"/>
<text text-anchor="middle" x="2158.5" y="-1215.15" font-family="Dejavu Sans Mono" font-size="14.00">apinatomy:fasciculatesIn</text>
</g>
<!-- nkblad_ac_snl16_lnk_2&#45;&gt;nkblad_ac_snl16_lnk_3 -->
<g id="edge71" class="edge">
<title>nkblad_ac_snl16_lnk_2&#45;&gt;nkblad_ac_snl16_lnk_3</title>
<path fill="none" stroke="black" d="M1814,-1127.54C1964.97,-1123.21 2253.38,-1114.95 2410.29,-1110.45"/>
<polygon fill="black" stroke="black" points="2410.54,-1113.94 2420.44,-1110.16 2410.34,-1106.95 2410.54,-1113.94"/>
<text text-anchor="middle" x="2158.5" y="-1123.15" font-family="Dejavu Sans Mono" font-size="14.00">apinatomy:next</text>
</g>
<!-- nkblad_K104&#45;&gt;nUBERON_0016508 -->
<g id="edge26" class="edge">
<title>nkblad_K104&#45;&gt;nUBERON_0016508</title>
<path fill="none" stroke="black" d="M7749.36,-468.35C7804.04,-468.35 7871.37,-468.35 7923.55,-468.35"/>
<polygon fill="black" stroke="black" points="7923.78,-471.85 7933.78,-468.35 7923.78,-464.85 7923.78,-471.85"/>
<text text-anchor="middle" x="7841.5" y="-472.15" font-family="Dejavu Sans Mono" font-size="14.00">apinatomy:external</text>
</g>
<!-- nilxtr_neuron_type_keast_6 -->
<g id="node42" class="node">
<title>nilxtr_neuron_type_keast_6</title>
<path fill="none" stroke="black" d="M12,-686.35C12,-686.35 227,-686.35 227,-686.35 233,-686.35 239,-692.35 239,-698.35 239,-698.35 239,-712.35 239,-712.35 239,-718.35 233,-724.35 227,-724.35 227,-724.35 12,-724.35 12,-724.35 6,-724.35 0,-718.35 0,-712.35 0,-712.35 0,-698.35 0,-698.35 0,-692.35 6,-686.35 12,-686.35"/>
<text text-anchor="middle" x="119.5" y="-709.15" font-family="Dejavu Sans Mono" font-size="14.00">MISSING LABEL</text>
<text text-anchor="middle" x="119.5" y="-694.15" font-family="Dejavu Sans Mono" font-size="14.00">(ilxtr:neuron&#45;type&#45;keast&#45;6)</text>
</g>
<!-- nilxtr_neuron_type_keast_6&#45;&gt;nkblad_neuron_6 -->
<g id="edge16" class="edge">
<title>nilxtr_neuron_type_keast_6&#45;&gt;nkblad_neuron_6</title>
<path fill="none" stroke="black" d="M239.15,-705.35C298.31,-705.35 368.43,-705.35 421.87,-705.35"/>
<polygon fill="black" stroke="black" points="421.99,-708.85 431.99,-705.35 421.99,-701.85 421.99,-708.85"/>
<text text-anchor="middle" x="335.5" y="-709.15" font-family="Dejavu Sans Mono" font-size="14.00">apinatomy:annotates</text>
</g>
<!-- nkblad_n_hypo&#45;&gt;nUBERON_0005303 -->
<g id="edge40" class="edge">
<title>nkblad_n_hypo&#45;&gt;nUBERON_0005303</title>
<path fill="none" stroke="black" d="M7316.27,-571.35C7393.42,-571.35 7494.72,-571.35 7565.19,-571.35"/>
<polygon fill="black" stroke="black" points="7565.36,-574.85 7575.36,-571.35 7565.36,-567.85 7565.36,-574.85"/>
<text text-anchor="middle" x="7433.5" y="-575.15" font-family="Dejavu Sans Mono" font-size="14.00">apinatomy:external</text>
</g>
<!-- nkblad_K92 -->
<g id="node44" class="node">
<title>nkblad_K92</title>
<path fill="none" stroke="black" d="M4412,-927.35C4412,-927.35 4578,-927.35 4578,-927.35 4584,-927.35 4590,-933.35 4590,-939.35 4590,-939.35 4590,-953.35 4590,-953.35 4590,-959.35 4584,-965.35 4578,-965.35 4578,-965.35 4412,-965.35 4412,-965.35 4406,-965.35 4400,-959.35 4400,-953.35 4400,-953.35 4400,-939.35 4400,-939.35 4400,-933.35 4406,-927.35 4412,-927.35"/>
<text text-anchor="middle" x="4495" y="-950.15" font-family="Dejavu Sans Mono" font-size="14.00">L1 gray ramus (kblad)</text>
<text text-anchor="middle" x="4495" y="-935.15" font-family="Dejavu Sans Mono" font-size="14.00">(kblad:K92)</text>
</g>
<!-- nFMA_65910 -->
<g id="node50" class="node">
<title>nFMA_65910</title>
<path fill="none" stroke="black" d="M4791,-927.35C4791,-927.35 4891,-927.35 4891,-927.35 4897,-927.35 4903,-933.35 4903,-939.35 4903,-939.35 4903,-953.35 4903,-953.35 4903,-959.35 4897,-965.35 4891,-965.35 4891,-965.35 4791,-965.35 4791,-965.35 4785,-965.35 4779,-959.35 4779,-953.35 4779,-953.35 4779,-939.35 4779,-939.35 4779,-933.35 4785,-927.35 4791,-927.35"/>
<text text-anchor="middle" x="4841" y="-950.15" font-family="Dejavu Sans Mono" font-size="14.00">MISSING LABEL</text>
<text text-anchor="middle" x="4841" y="-935.15" font-family="Dejavu Sans Mono" font-size="14.00">(FMA:65910)</text>
</g>
<!-- nkblad_K92&#45;&gt;nFMA_65910 -->
<g id="edge80" class="edge">
<title>nkblad_K92&#45;&gt;nFMA_65910</title>
<path fill="none" stroke="black" d="M4590.45,-946.35C4646.77,-946.35 4717.11,-946.35 4768.74,-946.35"/>
<polygon fill="black" stroke="black" points="4768.81,-949.85 4778.81,-946.35 4768.81,-942.85 4768.81,-949.85"/>
<text text-anchor="middle" x="4686.5" y="-950.15" font-family="Dejavu Sans Mono" font-size="14.00">apinatomy:external</text>
</g>
<!-- nkblad_ac_snl16_lnk_6&#45;&gt;nkblad_ac_snl16_lnk_7 -->
<g id="edge4" class="edge">
<title>nkblad_ac_snl16_lnk_6&#45;&gt;nkblad_ac_snl16_lnk_7</title>
<path fill="none" stroke="black" d="M4083.27,-927.3C4111.09,-915.09 4142.44,-896.37 4161,-869.35 4191.04,-825.62 4148.24,-794.57 4179,-751.35 4233.46,-674.83 4334.23,-630.67 4407.15,-607.41"/>
<polygon fill="black" stroke="black" points="4408.3,-610.72 4416.8,-604.4 4406.21,-604.04 4408.3,-610.72"/>
<text text-anchor="middle" x="4278.5" y="-755.15" font-family="Dejavu Sans Mono" font-size="14.00">apinatomy:next</text>
</g>
<!-- nkblad_ac_snl16_lnk_6&#45;&gt;nkblad_K92 -->
<g id="edge63" class="edge">
<title>nkblad_ac_snl16_lnk_6&#45;&gt;nkblad_K92</title>
<path fill="none" stroke="black" d="M4124.11,-946.35C4201.86,-946.35 4310.25,-946.35 4389.6,-946.35"/>
<polygon fill="black" stroke="black" points="4389.62,-949.85 4399.62,-946.35 4389.62,-942.85 4389.62,-949.85"/>
<text text-anchor="middle" x="4278.5" y="-950.15" font-family="Dejavu Sans Mono" font-size="14.00">apinatomy:fasciculatesIn</text>
</g>
<!-- nkblad_ac_snl16_lnk_3&#45;&gt;nkblad_K63 -->
<g id="edge56" class="edge">
<title>nkblad_ac_snl16_lnk_3&#45;&gt;nkblad_K63</title>
<path fill="none" stroke="black" d="M2618.59,-1108.52C2722.67,-1109.76 2886.89,-1111.71 2996.12,-1113.01"/>
<polygon fill="black" stroke="black" points="2996.14,-1116.51 3006.18,-1113.13 2996.22,-1109.51 2996.14,-1116.51"/>
<text text-anchor="middle" x="2880.5" y="-1116.15" font-family="Dejavu Sans Mono" font-size="14.00">apinatomy:fasciculatesIn</text>
</g>
<!-- nkblad_ac_snl16_lnk_3&#45;&gt;nkblad_ac_snl16_lnk_4 -->
<g id="edge34" class="edge">
<title>nkblad_ac_snl16_lnk_3&#45;&gt;nkblad_ac_snl16_lnk_4</title>
<path fill="none" stroke="black" d="M2618.59,-1097.51C2723.94,-1086.94 2890.9,-1070.18 3000.08,-1059.23"/>
<polygon fill="black" stroke="black" points="3000.53,-1062.7 3010.14,-1058.22 2999.84,-1055.73 3000.53,-1062.7"/>
<text text-anchor="middle" x="2880.5" y="-1083.15" font-family="Dejavu Sans Mono" font-size="14.00">apinatomy:next</text>
</g>
<!-- nkblad_ac_snl16_lnk_5&#45;&gt;nkblad_ac_snl16_lnk_6 -->
<g id="edge85" class="edge">
<title>nkblad_ac_snl16_lnk_5&#45;&gt;nkblad_ac_snl16_lnk_6</title>
<path fill="none" stroke="black" d="M3654.07,-985.6C3660.13,-984.81 3666.15,-984.06 3672,-983.35 3753.54,-973.44 3845.9,-963.79 3915.55,-956.83"/>
<polygon fill="black" stroke="black" points="3916.05,-960.3 3925.66,-955.83 3915.36,-953.34 3916.05,-960.3"/>
<text text-anchor="middle" x="3771.5" y="-987.15" font-family="Dejavu Sans Mono" font-size="14.00">apinatomy:next</text>
</g>
<!-- nkblad_K80 -->
<g id="node56" class="node">
<title>nkblad_K80</title>
<path fill="none" stroke="black" d="M3901,-991.35C3901,-991.35 4149,-991.35 4149,-991.35 4155,-991.35 4161,-997.35 4161,-1003.35 4161,-1003.35 4161,-1017.35 4161,-1017.35 4161,-1023.35 4155,-1029.35 4149,-1029.35 4149,-1029.35 3901,-1029.35 3901,-1029.35 3895,-1029.35 3889,-1023.35 3889,-1017.35 3889,-1017.35 3889,-1003.35 3889,-1003.35 3889,-997.35 3895,-991.35 3901,-991.35"/>
<text text-anchor="middle" x="4025" y="-1014.15" font-family="Dejavu Sans Mono" font-size="14.00">L1 sympathetic ganglion (kblad)</text>
<text text-anchor="middle" x="4025" y="-999.15" font-family="Dejavu Sans Mono" font-size="14.00">(kblad:K80)</text>
</g>
<!-- nkblad_ac_snl16_lnk_5&#45;&gt;nkblad_K80 -->
<g id="edge68" class="edge">
<title>nkblad_ac_snl16_lnk_5&#45;&gt;nkblad_K80</title>
<path fill="none" stroke="black" d="M3654.11,-1001.65C3719.13,-1003.18 3805.57,-1005.21 3878.54,-1006.93"/>
<polygon fill="black" stroke="black" points="3878.67,-1010.43 3888.75,-1007.17 3878.83,-1003.44 3878.67,-1010.43"/>
<text text-anchor="middle" x="3771.5" y="-1011.15" font-family="Dejavu Sans Mono" font-size="14.00">apinatomy:fasciculatesIn</text>
</g>
<!-- nkblad_ac_snl26_lnk_5&#45;&gt;nkblad_ac_snl26_lnk_6 -->
<g id="edge20" class="edge">
<title>nkblad_ac_snl26_lnk_5&#45;&gt;nkblad_ac_snl26_lnk_6</title>
<path fill="none" stroke="black" d="M3628.39,-751.35C3694.67,-732.01 3793.87,-698.09 3871,-650.35 3922.6,-618.41 3972.36,-567.67 4000.48,-536.56"/>
<polygon fill="black" stroke="black" points="4003.43,-538.51 4007.48,-528.72 3998.21,-533.84 4003.43,-538.51"/>
<text text-anchor="middle" x="3771.5" y="-742.15" font-family="Dejavu Sans Mono" font-size="14.00">apinatomy:next</text>
</g>
<!-- nkblad_K81 -->
<g id="node60" class="node">
<title>nkblad_K81</title>
<path fill="none" stroke="black" d="M3901,-751.35C3901,-751.35 4149,-751.35 4149,-751.35 4155,-751.35 4161,-757.35 4161,-763.35 4161,-763.35 4161,-777.35 4161,-777.35 4161,-783.35 4155,-789.35 4149,-789.35 4149,-789.35 3901,-789.35 3901,-789.35 3895,-789.35 3889,-783.35 3889,-777.35 3889,-777.35 3889,-763.35 3889,-763.35 3889,-757.35 3895,-751.35 3901,-751.35"/>
<text text-anchor="middle" x="4025" y="-774.15" font-family="Dejavu Sans Mono" font-size="14.00">L2 sympathetic ganglion (kblad)</text>
<text text-anchor="middle" x="4025" y="-759.15" font-family="Dejavu Sans Mono" font-size="14.00">(kblad:K81)</text>
</g>
<!-- nkblad_ac_snl26_lnk_5&#45;&gt;nkblad_K81 -->
<g id="edge89" class="edge">
<title>nkblad_ac_snl26_lnk_5&#45;&gt;nkblad_K81</title>
<path fill="none" stroke="black" d="M3654.11,-770.35C3719.13,-770.35 3805.57,-770.35 3878.54,-770.35"/>
<polygon fill="black" stroke="black" points="3878.75,-773.85 3888.75,-770.35 3878.75,-766.85 3878.75,-773.85"/>
<text text-anchor="middle" x="3771.5" y="-774.15" font-family="Dejavu Sans Mono" font-size="14.00">apinatomy:fasciculatesIn</text>
</g>
<!-- nkblad_ac_l1l26a_lnk_2&#45;&gt;nkblad_ac_l1l26a_lnk_3 -->
<g id="edge52" class="edge">
<title>nkblad_ac_l1l26a_lnk_2&#45;&gt;nkblad_ac_l1l26a_lnk_3</title>
<path fill="none" stroke="black" d="M6276.05,-604.33C6293.06,-603 6310.53,-601.63 6327,-600.35 6414.51,-593.51 6513.58,-585.81 6587.61,-580.07"/>
<polygon fill="black" stroke="black" points="6588.19,-583.53 6597.89,-579.27 6587.64,-576.55 6588.19,-583.53"/>
<text text-anchor="middle" x="6426.5" y="-604.15" font-family="Dejavu Sans Mono" font-size="14.00">apinatomy:next</text>
</g>
<!-- nkblad_ac_l1l26a_lnk_2&#45;&gt;nkblad_K102 -->
<g id="edge69" class="edge">
<title>nkblad_ac_l1l26a_lnk_2&#45;&gt;nkblad_K102</title>
<path fill="none" stroke="black" d="M6276.04,-616.81C6349.11,-620.01 6449.1,-624.38 6533.62,-628.07"/>
<polygon fill="black" stroke="black" points="6533.71,-631.58 6543.85,-628.52 6534.02,-624.59 6533.71,-631.58"/>
<text text-anchor="middle" x="6426.5" y="-631.15" font-family="Dejavu Sans Mono" font-size="14.00">apinatomy:fasciculatesIn</text>
</g>
<!-- nkblad_K64 -->
<g id="node61" class="node">
<title>nkblad_K64</title>
<path fill="none" stroke="black" d="M3018.5,-879.35C3018.5,-879.35 3200.5,-879.35 3200.5,-879.35 3206.5,-879.35 3212.5,-885.35 3212.5,-891.35 3212.5,-891.35 3212.5,-905.35 3212.5,-905.35 3212.5,-911.35 3206.5,-917.35 3200.5,-917.35 3200.5,-917.35 3018.5,-917.35 3018.5,-917.35 3012.5,-917.35 3006.5,-911.35 3006.5,-905.35 3006.5,-905.35 3006.5,-891.35 3006.5,-891.35 3006.5,-885.35 3012.5,-879.35 3018.5,-879.35"/>
<text text-anchor="middle" x="3109.5" y="-902.15" font-family="Dejavu Sans Mono" font-size="14.00">L2 ventral root (kblad)</text>
<text text-anchor="middle" x="3109.5" y="-887.15" font-family="Dejavu Sans Mono" font-size="14.00">(kblad:K64)</text>
</g>
<!-- nkblad_ac_snl26_lnk_3&#45;&gt;nkblad_K64 -->
<g id="edge90" class="edge">
<title>nkblad_ac_snl26_lnk_3&#45;&gt;nkblad_K64</title>
<path fill="none" stroke="black" d="M2618.59,-891.68C2722.67,-893.1 2886.89,-895.33 2996.12,-896.82"/>
<polygon fill="black" stroke="black" points="2996.14,-900.32 3006.18,-896.96 2996.23,-893.32 2996.14,-900.32"/>
<text text-anchor="middle" x="2880.5" y="-901.15" font-family="Dejavu Sans Mono" font-size="14.00">apinatomy:fasciculatesIn</text>
</g>
<!-- nkblad_ac_snl26_lnk_3&#45;&gt;nkblad_ac_snl26_lnk_4 -->
<g id="edge14" class="edge">
<title>nkblad_ac_snl26_lnk_3&#45;&gt;nkblad_ac_snl26_lnk_4</title>
<path fill="none" stroke="black" d="M2618.68,-882.81C2711.74,-875.57 2855.42,-864.18 2980,-853.35 2986.6,-852.77 2993.39,-852.17 3000.23,-851.56"/>
<polygon fill="black" stroke="black" points="3000.65,-855.04 3010.29,-850.65 3000.02,-848.06 3000.65,-855.04"/>
<text text-anchor="middle" x="2880.5" y="-873.15" font-family="Dejavu Sans Mono" font-size="14.00">apinatomy:next</text>
</g>
<!-- nkblad_ref_mat_KM_27_K_129_K23_14&#45;&gt;nkblad_K23 -->
<g id="edge13" class="edge">
<title>nkblad_ref_mat_KM_27_K_129_K23_14&#45;&gt;nkblad_K23</title>
<path fill="none" stroke="black" d="M2763.06,-709.97C2840.38,-706.03 2922.6,-701.83 2987.43,-698.53"/>
<polygon fill="black" stroke="black" points="2987.87,-702.01 2997.68,-698 2987.51,-695.02 2987.87,-702.01"/>
<text text-anchor="middle" x="2880.5" y="-712.15" font-family="Dejavu Sans Mono" font-size="14.00">apinatomy:layerIn</text>
</g>
<!-- nkblad_ref_mat_K_83_K_129_K22_7&#45;&gt;nkblad_K22 -->
<g id="edge60" class="edge">
<title>nkblad_ref_mat_K_83_K_129_K22_7&#45;&gt;nkblad_K22</title>
<path fill="none" stroke="black" d="M2041.09,-1286.73C2252,-1289.95 2532.76,-1293.72 2781,-1295.35 2869.44,-1295.93 2891.65,-1299.46 2980,-1295.35 2982.55,-1295.23 2985.12,-1295.1 2987.71,-1294.95"/>
<polygon fill="black" stroke="black" points="2988.03,-1298.44 2997.8,-1294.35 2987.61,-1291.45 2988.03,-1298.44"/>
<text text-anchor="middle" x="2519.5" y="-1298.15" font-family="Dejavu Sans Mono" font-size="14.00">apinatomy:layerIn</text>
</g>
<!-- nkblad_ac_l1l26a_lnk_1&#45;&gt;nkblad_ac_l1l26a_lnk_2 -->
<g id="edge59" class="edge">
<title>nkblad_ac_l1l26a_lnk_1&#45;&gt;nkblad_ac_l1l26a_lnk_2</title>
<path fill="none" stroke="black" d="M5766.99,-437.44C5832.47,-456.97 5934.36,-489.74 6019,-527.35 6059.06,-545.15 6102.55,-569.88 6132.89,-588.08"/>
<polygon fill="black" stroke="black" points="6131.11,-591.09 6141.48,-593.26 6134.73,-585.1 6131.11,-591.09"/>
<text text-anchor="middle" x="5919.5" y="-531.15" font-family="Dejavu Sans Mono" font-size="14.00">apinatomy:next</text>
</g>
<!-- nkblad_ac_l1l26a_lnk_1&#45;&gt;nkblad_n_lumspl -->
<g id="edge74" class="edge">
<title>nkblad_ac_l1l26a_lnk_1&#45;&gt;nkblad_n_lumspl</title>
<path fill="none" stroke="black" d="M5802.13,-417.05C5867.76,-416.22 5954.02,-415.12 6026.74,-414.2"/>
<polygon fill="black" stroke="black" points="6026.95,-417.69 6036.9,-414.07 6026.86,-410.69 6026.95,-417.69"/>
<text text-anchor="middle" x="5919.5" y="-421.15" font-family="Dejavu Sans Mono" font-size="14.00">apinatomy:fasciculatesIn</text>
</g>
<!-- nkblad_K80&#45;&gt;nFMA_6540 -->
<g id="edge94" class="edge">
<title>nkblad_K80&#45;&gt;nFMA_6540</title>
<path fill="none" stroke="black" d="M4161.05,-1010.35C4246.31,-1010.35 4353.06,-1010.35 4422.35,-1010.35"/>
<polygon fill="black" stroke="black" points="4422.72,-1013.85 4432.72,-1010.35 4422.72,-1006.85 4422.72,-1013.85"/>
<text text-anchor="middle" x="4278.5" y="-1014.15" font-family="Dejavu Sans Mono" font-size="14.00">apinatomy:external</text>
</g>
<!-- nPMID_3225349&#45;&gt;nelements_External -->
<g id="edge5" class="edge">
<title>nPMID_3225349&#45;&gt;nelements_External</title>
<path fill="none" stroke="black" d="M1042.54,-253.79C1172.69,-248.66 1465.73,-237.12 1618.02,-231.13"/>
<polygon fill="black" stroke="black" points="1618.43,-234.61 1628.29,-230.72 1618.16,-227.62 1618.43,-234.61"/>
<text text-anchor="middle" x="1271.5" y="-253.15" font-family="Dejavu Sans Mono" font-size="14.00">type</text>
</g>
<!-- nkblad_ns23&#45;&gt;nkblad_ac_l1l26a -->
<g id="edge6" class="edge">
<title>nkblad_ns23&#45;&gt;nkblad_ac_l1l26a</title>
<path fill="none" stroke="black" d="M4903.3,-490.35C4945.67,-490.35 5004.47,-490.35 5061.56,-490.35"/>
<polygon fill="black" stroke="black" points="5061.82,-493.85 5071.82,-490.35 5061.82,-486.85 5061.82,-493.85"/>
<text text-anchor="middle" x="4987.5" y="-494.15" font-family="Dejavu Sans Mono" font-size="14.00">apinatomy:rootOf</text>
</g>
<!-- nUBERON_0018683 -->
<g id="node65" class="node">
<title>nUBERON_0018683</title>
<path fill="none" stroke="black" d="M6638.5,-393.35C6638.5,-393.35 6763.5,-393.35 6763.5,-393.35 6769.5,-393.35 6775.5,-399.35 6775.5,-405.35 6775.5,-405.35 6775.5,-419.35 6775.5,-419.35 6775.5,-425.35 6769.5,-431.35 6763.5,-431.35 6763.5,-431.35 6638.5,-431.35 6638.5,-431.35 6632.5,-431.35 6626.5,-425.35 6626.5,-419.35 6626.5,-419.35 6626.5,-405.35 6626.5,-405.35 6626.5,-399.35 6632.5,-393.35 6638.5,-393.35"/>
<text text-anchor="middle" x="6701" y="-416.15" font-family="Dejavu Sans Mono" font-size="14.00">MISSING LABEL</text>
<text text-anchor="middle" x="6701" y="-401.15" font-family="Dejavu Sans Mono" font-size="14.00">(UBERON:0018683)</text>
</g>
<!-- nkblad_n_lumspl&#45;&gt;nUBERON_0018683 -->
<g id="edge28" class="edge">
<title>nkblad_n_lumspl&#45;&gt;nUBERON_0018683</title>
<path fill="none" stroke="black" d="M6309.12,-412.35C6405.98,-412.35 6533.44,-412.35 6616.04,-412.35"/>
<polygon fill="black" stroke="black" points="6616.13,-415.85 6626.13,-412.35 6616.13,-408.85 6616.13,-415.85"/>
<text text-anchor="middle" x="6426.5" y="-416.15" font-family="Dejavu Sans Mono" font-size="14.00">apinatomy:external</text>
</g>
<!-- nkblad_K81&#45;&gt;nFMA_6541 -->
<g id="edge42" class="edge">
<title>nkblad_K81&#45;&gt;nFMA_6541</title>
<path fill="none" stroke="black" d="M4161.05,-770.35C4246.31,-770.35 4353.06,-770.35 4422.35,-770.35"/>
<polygon fill="black" stroke="black" points="4422.72,-773.85 4432.72,-770.35 4422.72,-766.85 4422.72,-773.85"/>
<text text-anchor="middle" x="4278.5" y="-774.15" font-family="Dejavu Sans Mono" font-size="14.00">apinatomy:external</text>
</g>
<!-- nkblad_K64&#45;&gt;nEMAPA_25271 -->
<g id="edge11" class="edge">
<title>nkblad_K64&#45;&gt;nEMAPA_25271</title>
<path fill="none" stroke="black" d="M3212.53,-898.35C3295.22,-898.35 3409.63,-898.35 3482.73,-898.35"/>
<polygon fill="black" stroke="black" points="3482.77,-901.85 3492.77,-898.35 3482.77,-894.85 3482.77,-901.85"/>
<text text-anchor="middle" x="3338.5" y="-902.15" font-family="Dejavu Sans Mono" font-size="14.00">apinatomy:external</text>
</g>
<!-- nkblad_ac_snl26_lnk_4&#45;&gt;nkblad_K89 -->
<g id="edge83" class="edge">
<title>nkblad_ac_snl26_lnk_4&#45;&gt;nkblad_K89</title>
<path fill="none" stroke="black" d="M3208.65,-841.35C3278.83,-841.35 3373.28,-841.35 3445.67,-841.35"/>
<polygon fill="black" stroke="black" points="3445.73,-844.85 3455.73,-841.35 3445.73,-837.85 3445.73,-844.85"/>
<text text-anchor="middle" x="3338.5" y="-845.15" font-family="Dejavu Sans Mono" font-size="14.00">apinatomy:fasciculatesIn</text>
</g>
<!-- nkblad_ac_snl26_lnk_4&#45;&gt;nkblad_ac_snl26_lnk_5 -->
<g id="edge44" class="edge">
<title>nkblad_ac_snl26_lnk_4&#45;&gt;nkblad_ac_snl26_lnk_5</title>
<path fill="none" stroke="black" d="M3208.65,-825.64C3278.83,-814.4 3373.28,-799.28 3445.67,-787.69"/>
<polygon fill="black" stroke="black" points="3446.41,-791.12 3455.73,-786.08 3445.3,-784.21 3446.41,-791.12"/>
<text text-anchor="middle" x="3338.5" y="-825.15" font-family="Dejavu Sans Mono" font-size="14.00">apinatomy:next</text>
</g>
<!-- nPMID_2891149&#45;&gt;nelements_External -->
<g id="edge81" class="edge">
<title>nPMID_2891149&#45;&gt;nelements_External</title>
<path fill="none" stroke="black" d="M1042.54,-201.82C1172.69,-206.77 1465.73,-217.91 1618.02,-223.7"/>
<polygon fill="black" stroke="black" points="1618.16,-227.21 1628.29,-224.09 1618.43,-220.21 1618.16,-227.21"/>
<text text-anchor="middle" x="1271.5" y="-218.15" font-family="Dejavu Sans Mono" font-size="14.00">type</text>
</g>
<!-- nkblad_ac_snl16_lnk_4&#45;&gt;nkblad_K88 -->
<g id="edge23" class="edge">
<title>nkblad_ac_snl16_lnk_4&#45;&gt;nkblad_K88</title>
<path fill="none" stroke="black" d="M3208.65,-1051C3278.83,-1052.9 3373.28,-1055.46 3445.67,-1057.42"/>
<polygon fill="black" stroke="black" points="3445.64,-1060.92 3455.73,-1057.69 3445.83,-1053.92 3445.64,-1060.92"/>
<text text-anchor="middle" x="3338.5" y="-1060.15" font-family="Dejavu Sans Mono" font-size="14.00">apinatomy:fasciculatesIn</text>
</g>
<!-- nkblad_ac_snl16_lnk_4&#45;&gt;nkblad_ac_snl16_lnk_5 -->
<g id="edge12" class="edge">
<title>nkblad_ac_snl16_lnk_4&#45;&gt;nkblad_ac_snl16_lnk_5</title>
<path fill="none" stroke="black" d="M3208.7,-1035.92C3218.93,-1034.69 3229.17,-1033.48 3239,-1032.35 3307.7,-1024.47 3384.91,-1016.37 3445.7,-1010.17"/>
<polygon fill="black" stroke="black" points="3446.1,-1013.65 3455.69,-1009.15 3445.39,-1006.68 3446.1,-1013.65"/>
<text text-anchor="middle" x="3338.5" y="-1036.15" font-family="Dejavu Sans Mono" font-size="14.00">apinatomy:next</text>
</g>
</g>
</svg>
