<?xml version="1.0" encoding="UTF-8" standalone="no"?>
<!DOCTYPE svg PUBLIC "-//W3C//DTD SVG 1.1//EN"
 "http://www.w3.org/Graphics/SVG/1.1/DTD/svg11.dtd">
<!-- Generated by graphviz version 2.47.1 (20210417.1919)
 -->
<!-- Pages: 1 -->
<svg width="5310pt" height="508pt"
 viewBox="0.00 0.00 5310.00 508.00" xmlns="http://www.w3.org/2000/svg" xmlns:xlink="http://www.w3.org/1999/xlink">
<g id="graph0" class="graph" transform="scale(1 1) rotate(0) translate(4 504)">
<polygon fill="white" stroke="transparent" points="-4,4 -4,-504 5306,-504 5306,4 -4,4"/>
<!-- nkblad_ac_snl6s1_lnk_1 -->
<g id="node1" class="node">
<title>nkblad_ac_snl6s1_lnk_1</title>
<path fill="none" stroke="black" d="M3978.5,-192.5C3978.5,-192.5 4160.5,-192.5 4160.5,-192.5 4166.5,-192.5 4172.5,-198.5 4172.5,-204.5 4172.5,-204.5 4172.5,-218.5 4172.5,-218.5 4172.5,-224.5 4166.5,-230.5 4160.5,-230.5 4160.5,-230.5 3978.5,-230.5 3978.5,-230.5 3972.5,-230.5 3966.5,-224.5 3966.5,-218.5 3966.5,-218.5 3966.5,-204.5 3966.5,-204.5 3966.5,-198.5 3972.5,-192.5 3978.5,-192.5"/>
<text text-anchor="middle" x="4069.5" y="-215.3" font-family="Dejavu Sans Mono" font-size="14.00">MISSING LABEL</text>
<text text-anchor="middle" x="4069.5" y="-200.3" font-family="Dejavu Sans Mono" font-size="14.00">(kblad:ac&#45;snl6s1_lnk_1)</text>
</g>
<!-- nkblad_n_pelspl -->
<g id="node12" class="node">
<title>nkblad_n_pelspl</title>
<path fill="none" stroke="black" d="M4391,-182.5C4391,-182.5 4573,-182.5 4573,-182.5 4579,-182.5 4585,-188.5 4585,-194.5 4585,-194.5 4585,-208.5 4585,-208.5 4585,-214.5 4579,-220.5 4573,-220.5 4573,-220.5 4391,-220.5 4391,-220.5 4385,-220.5 4379,-214.5 4379,-208.5 4379,-208.5 4379,-194.5 4379,-194.5 4379,-188.5 4385,-182.5 4391,-182.5"/>
<text text-anchor="middle" x="4482" y="-205.3" font-family="Dejavu Sans Mono" font-size="14.00">Pelvic splanchnic nerve</text>
<text text-anchor="middle" x="4482" y="-190.3" font-family="Dejavu Sans Mono" font-size="14.00">(kblad:n&#45;pelspl)</text>
</g>
<!-- nkblad_ac_snl6s1_lnk_1&#45;&gt;nkblad_n_pelspl -->
<g id="edge20" class="edge">
<title>nkblad_ac_snl6s1_lnk_1&#45;&gt;nkblad_n_pelspl</title>
<path fill="none" stroke="black" d="M4172.56,-204.88C4191,-203.9 4210.07,-203.05 4228,-202.5 4274.03,-201.1 4324.78,-200.67 4368.68,-200.66"/>
<polygon fill="black" stroke="black" points="4368.8,-204.16 4378.81,-200.67 4368.81,-197.16 4368.8,-204.16"/>
<text text-anchor="middle" x="4294.5" y="-206.3" font-family="Dejavu Sans Mono" font-size="14.00">apinatomy:endsIn</text>
</g>
<!-- nkblad_ac_snl6s1_lnk_2 -->
<g id="node20" class="node">
<title>nkblad_ac_snl6s1_lnk_2</title>
<path fill="none" stroke="black" d="M4391,-275.5C4391,-275.5 4573,-275.5 4573,-275.5 4579,-275.5 4585,-281.5 4585,-287.5 4585,-287.5 4585,-301.5 4585,-301.5 4585,-307.5 4579,-313.5 4573,-313.5 4573,-313.5 4391,-313.5 4391,-313.5 4385,-313.5 4379,-307.5 4379,-301.5 4379,-301.5 4379,-287.5 4379,-287.5 4379,-281.5 4385,-275.5 4391,-275.5"/>
<text text-anchor="middle" x="4482" y="-298.3" font-family="Dejavu Sans Mono" font-size="14.00">MISSING LABEL</text>
<text text-anchor="middle" x="4482" y="-283.3" font-family="Dejavu Sans Mono" font-size="14.00">(kblad:ac&#45;snl6s1_lnk_2)</text>
</g>
<!-- nkblad_ac_snl6s1_lnk_1&#45;&gt;nkblad_ac_snl6s1_lnk_2 -->
<g id="edge8" class="edge">
<title>nkblad_ac_snl6s1_lnk_1&#45;&gt;nkblad_ac_snl6s1_lnk_2</title>
<path fill="none" stroke="black" d="M4172.6,-229.11C4228.41,-239.07 4298.67,-252.18 4361,-265.5 4372.02,-267.85 4383.58,-270.47 4394.99,-273.13"/>
<polygon fill="black" stroke="black" points="4394.43,-276.59 4404.96,-275.48 4396.03,-269.78 4394.43,-276.59"/>
<text text-anchor="middle" x="4294.5" y="-269.3" font-family="Dejavu Sans Mono" font-size="14.00">apinatomy:next</text>
</g>
<!-- nkblad_K69 -->
<g id="node2" class="node">
<title>nkblad_K69</title>
<path fill="none" stroke="black" d="M3475.5,-70.5C3475.5,-70.5 3657.5,-70.5 3657.5,-70.5 3663.5,-70.5 3669.5,-76.5 3669.5,-82.5 3669.5,-82.5 3669.5,-96.5 3669.5,-96.5 3669.5,-102.5 3663.5,-108.5 3657.5,-108.5 3657.5,-108.5 3475.5,-108.5 3475.5,-108.5 3469.5,-108.5 3463.5,-102.5 3463.5,-96.5 3463.5,-96.5 3463.5,-82.5 3463.5,-82.5 3463.5,-76.5 3469.5,-70.5 3475.5,-70.5"/>
<text text-anchor="middle" x="3566.5" y="-93.3" font-family="Dejavu Sans Mono" font-size="14.00">S1 ventral root (kblad)</text>
<text text-anchor="middle" x="3566.5" y="-78.3" font-family="Dejavu Sans Mono" font-size="14.00">(kblad:K69)</text>
</g>
<!-- nEMAPA_25281 -->
<g id="node3" class="node">
<title>nEMAPA_25281</title>
<path fill="none" stroke="black" d="M4019.5,-70.5C4019.5,-70.5 4119.5,-70.5 4119.5,-70.5 4125.5,-70.5 4131.5,-76.5 4131.5,-82.5 4131.5,-82.5 4131.5,-96.5 4131.5,-96.5 4131.5,-102.5 4125.5,-108.5 4119.5,-108.5 4119.5,-108.5 4019.5,-108.5 4019.5,-108.5 4013.5,-108.5 4007.5,-102.5 4007.5,-96.5 4007.5,-96.5 4007.5,-82.5 4007.5,-82.5 4007.5,-76.5 4013.5,-70.5 4019.5,-70.5"/>
<text text-anchor="middle" x="4069.5" y="-93.3" font-family="Dejavu Sans Mono" font-size="14.00">MISSING LABEL</text>
<text text-anchor="middle" x="4069.5" y="-78.3" font-family="Dejavu Sans Mono" font-size="14.00">(EMAPA:25281)</text>
</g>
<!-- nkblad_K69&#45;&gt;nEMAPA_25281 -->
<g id="edge44" class="edge">
<title>nkblad_K69&#45;&gt;nEMAPA_25281</title>
<path fill="none" stroke="black" d="M3669.79,-89.5C3767.28,-89.5 3911.54,-89.5 3997.18,-89.5"/>
<polygon fill="black" stroke="black" points="3997.33,-93 4007.33,-89.5 3997.33,-86 3997.33,-93"/>
<text text-anchor="middle" x="3836.5" y="-93.3" font-family="Dejavu Sans Mono" font-size="14.00">apinatomy:external</text>
</g>
<!-- nkblad_ac_sns15_lnk_4 -->
<g id="node4" class="node">
<title>nkblad_ac_sns15_lnk_4</title>
<path fill="none" stroke="black" d="M3479.5,-184.5C3479.5,-184.5 3653.5,-184.5 3653.5,-184.5 3659.5,-184.5 3665.5,-190.5 3665.5,-196.5 3665.5,-196.5 3665.5,-210.5 3665.5,-210.5 3665.5,-216.5 3659.5,-222.5 3653.5,-222.5 3653.5,-222.5 3479.5,-222.5 3479.5,-222.5 3473.5,-222.5 3467.5,-216.5 3467.5,-210.5 3467.5,-210.5 3467.5,-196.5 3467.5,-196.5 3467.5,-190.5 3473.5,-184.5 3479.5,-184.5"/>
<text text-anchor="middle" x="3566.5" y="-207.3" font-family="Dejavu Sans Mono" font-size="14.00">MISSING LABEL</text>
<text text-anchor="middle" x="3566.5" y="-192.3" font-family="Dejavu Sans Mono" font-size="14.00">(kblad:ac&#45;sns15_lnk_4)</text>
</g>
<!-- nkblad_ac_sns15_lnk_4&#45;&gt;nkblad_ac_snl6s1_lnk_1 -->
<g id="edge10" class="edge">
<title>nkblad_ac_sns15_lnk_4&#45;&gt;nkblad_ac_snl6s1_lnk_1</title>
<path fill="none" stroke="black" d="M3665.62,-200.37C3734.34,-198.74 3828.3,-197.62 3911,-200.5 3925.72,-201.01 3941.2,-201.8 3956.47,-202.71"/>
<polygon fill="black" stroke="black" points="3956.27,-206.21 3966.46,-203.33 3956.7,-199.22 3956.27,-206.21"/>
<text text-anchor="middle" x="3836.5" y="-204.3" font-family="Dejavu Sans Mono" font-size="14.00">apinatomy:next*</text>
</g>
<!-- nkblad_ac_sns15_lnk_4&#45;&gt;nkblad_n_pelspl -->
<g id="edge11" class="edge">
<title>nkblad_ac_sns15_lnk_4&#45;&gt;nkblad_n_pelspl</title>
<path fill="none" stroke="black" d="M3665.88,-191.04C3738.46,-182.5 3839.71,-171.94 3929,-167.5 4053.74,-161.3 4085.35,-159.71 4210,-167.5 4262.47,-170.78 4320.31,-177.59 4369.04,-184.27"/>
<polygon fill="black" stroke="black" points="4368.59,-187.74 4378.98,-185.64 4369.55,-180.8 4368.59,-187.74"/>
<text text-anchor="middle" x="4069.5" y="-171.3" font-family="Dejavu Sans Mono" font-size="14.00">apinatomy:endsIn</text>
</g>
<!-- nkblad_ac_sns15_lnk_4&#45;&gt;nkblad_ac_snl6s1_lnk_2 -->
<g id="edge33" class="edge">
<title>nkblad_ac_sns15_lnk_4&#45;&gt;nkblad_ac_snl6s1_lnk_2</title>
<path fill="none" stroke="black" d="M3628.61,-222.53C3666.6,-233.53 3716.68,-246.53 3762,-253.5 3959.08,-283.8 4011.79,-255.74 4210,-277.5 4218.06,-278.38 4219.94,-279.61 4228,-280.5 4273.94,-285.58 4324.79,-288.85 4368.77,-290.94"/>
<polygon fill="black" stroke="black" points="4368.77,-294.44 4378.92,-291.41 4369.09,-287.45 4368.77,-294.44"/>
<text text-anchor="middle" x="4069.5" y="-281.3" font-family="Dejavu Sans Mono" font-size="14.00">apinatomy:next*</text>
</g>
<!-- nUBERON_0006460 -->
<g id="node5" class="node">
<title>nUBERON_0006460</title>
<path fill="none" stroke="black" d="M4007,-13.5C4007,-13.5 4132,-13.5 4132,-13.5 4138,-13.5 4144,-19.5 4144,-25.5 4144,-25.5 4144,-39.5 4144,-39.5 4144,-45.5 4138,-51.5 4132,-51.5 4132,-51.5 4007,-51.5 4007,-51.5 4001,-51.5 3995,-45.5 3995,-39.5 3995,-39.5 3995,-25.5 3995,-25.5 3995,-19.5 4001,-13.5 4007,-13.5"/>
<text text-anchor="middle" x="4069.5" y="-36.3" font-family="Dejavu Sans Mono" font-size="14.00">MISSING LABEL</text>
<text text-anchor="middle" x="4069.5" y="-21.3" font-family="Dejavu Sans Mono" font-size="14.00">(UBERON:0006460)</text>
</g>
<!-- nEMAPA_25279 -->
<g id="node6" class="node">
<title>nEMAPA_25279</title>
<path fill="none" stroke="black" d="M4019.5,-461.5C4019.5,-461.5 4119.5,-461.5 4119.5,-461.5 4125.5,-461.5 4131.5,-467.5 4131.5,-473.5 4131.5,-473.5 4131.5,-487.5 4131.5,-487.5 4131.5,-493.5 4125.5,-499.5 4119.5,-499.5 4119.5,-499.5 4019.5,-499.5 4019.5,-499.5 4013.5,-499.5 4007.5,-493.5 4007.5,-487.5 4007.5,-487.5 4007.5,-473.5 4007.5,-473.5 4007.5,-467.5 4013.5,-461.5 4019.5,-461.5"/>
<text text-anchor="middle" x="4069.5" y="-484.3" font-family="Dejavu Sans Mono" font-size="14.00">MISSING LABEL</text>
<text text-anchor="middle" x="4069.5" y="-469.3" font-family="Dejavu Sans Mono" font-size="14.00">(EMAPA:25279)</text>
</g>
<!-- nkblad_ref_mat_K_83_K_129_K28_7 -->
<g id="node7" class="node">
<title>nkblad_ref_mat_K_83_K_129_K28_7</title>
<path fill="none" stroke="black" d="M1726,-57.5C1726,-57.5 2354,-57.5 2354,-57.5 2360,-57.5 2366,-63.5 2366,-69.5 2366,-69.5 2366,-83.5 2366,-83.5 2366,-89.5 2360,-95.5 2354,-95.5 2354,-95.5 1726,-95.5 1726,-95.5 1720,-95.5 1714,-89.5 1714,-83.5 1714,-83.5 1714,-69.5 1714,-69.5 1714,-63.5 1720,-57.5 1726,-57.5"/>
<text text-anchor="middle" x="2040" y="-80.3" font-family="Dejavu Sans Mono" font-size="14.00">lamina VII of gray matter of spinal cord in S1 spinal segment (kblad) layer 7</text>
<text text-anchor="middle" x="2040" y="-65.3" font-family="Dejavu Sans Mono" font-size="14.00">(kblad:ref_mat_K_83_K_129_K28_7)</text>
</g>
<!-- nkblad_K28 -->
<g id="node28" class="node">
<title>nkblad_K28</title>
<path fill="none" stroke="black" d="M3467,-13.5C3467,-13.5 3666,-13.5 3666,-13.5 3672,-13.5 3678,-19.5 3678,-25.5 3678,-25.5 3678,-39.5 3678,-39.5 3678,-45.5 3672,-51.5 3666,-51.5 3666,-51.5 3467,-51.5 3467,-51.5 3461,-51.5 3455,-45.5 3455,-39.5 3455,-39.5 3455,-25.5 3455,-25.5 3455,-19.5 3461,-13.5 3467,-13.5"/>
<text text-anchor="middle" x="3566.5" y="-36.3" font-family="Dejavu Sans Mono" font-size="14.00">S1 spinal segment (kblad)</text>
<text text-anchor="middle" x="3566.5" y="-21.3" font-family="Dejavu Sans Mono" font-size="14.00">(kblad:K28)</text>
</g>
<!-- nkblad_ref_mat_K_83_K_129_K28_7&#45;&gt;nkblad_K28 -->
<g id="edge39" class="edge">
<title>nkblad_ref_mat_K_83_K_129_K28_7&#45;&gt;nkblad_K28</title>
<path fill="none" stroke="black" d="M2315.06,-57.5C2415.35,-51.29 2529.77,-45.08 2634,-41.5 2924.75,-31.52 3266.82,-31.12 3444.53,-31.77"/>
<polygon fill="black" stroke="black" points="3444.68,-35.27 3454.69,-31.81 3444.71,-28.27 3444.68,-35.27"/>
<text text-anchor="middle" x="2877.5" y="-45.3" font-family="Dejavu Sans Mono" font-size="14.00">apinatomy:layerIn</text>
</g>
<!-- nUBERON_0016578 -->
<g id="node29" class="node">
<title>nUBERON_0016578</title>
<path fill="none" stroke="black" d="M2815,-123.5C2815,-123.5 2940,-123.5 2940,-123.5 2946,-123.5 2952,-129.5 2952,-135.5 2952,-135.5 2952,-149.5 2952,-149.5 2952,-155.5 2946,-161.5 2940,-161.5 2940,-161.5 2815,-161.5 2815,-161.5 2809,-161.5 2803,-155.5 2803,-149.5 2803,-149.5 2803,-135.5 2803,-135.5 2803,-129.5 2809,-123.5 2815,-123.5"/>
<text text-anchor="middle" x="2877.5" y="-146.3" font-family="Dejavu Sans Mono" font-size="14.00">MISSING LABEL</text>
<text text-anchor="middle" x="2877.5" y="-131.3" font-family="Dejavu Sans Mono" font-size="14.00">(UBERON:0016578)</text>
</g>
<!-- nkblad_ref_mat_K_83_K_129_K28_7&#45;&gt;nUBERON_0016578 -->
<g id="edge17" class="edge">
<title>nkblad_ref_mat_K_83_K_129_K28_7&#45;&gt;nUBERON_0016578</title>
<path fill="none" stroke="black" d="M2366.06,-65.82C2448.79,-70.13 2536.7,-80.95 2616,-103.5 2624.8,-106 2625.29,-110.68 2634,-113.5 2685.11,-130.05 2745.03,-137.32 2792.52,-140.44"/>
<polygon fill="black" stroke="black" points="2792.57,-143.95 2802.77,-141.06 2793,-136.96 2792.57,-143.95"/>
<text text-anchor="middle" x="2500" y="-107.3" font-family="Dejavu Sans Mono" font-size="14.00">apinatomy:inheritedExternal*</text>
</g>
<!-- nkblad_ac_sns15_lnk_3 -->
<g id="node8" class="node">
<title>nkblad_ac_sns15_lnk_3</title>
<path fill="none" stroke="black" d="M2790.5,-180.5C2790.5,-180.5 2964.5,-180.5 2964.5,-180.5 2970.5,-180.5 2976.5,-186.5 2976.5,-192.5 2976.5,-192.5 2976.5,-206.5 2976.5,-206.5 2976.5,-212.5 2970.5,-218.5 2964.5,-218.5 2964.5,-218.5 2790.5,-218.5 2790.5,-218.5 2784.5,-218.5 2778.5,-212.5 2778.5,-206.5 2778.5,-206.5 2778.5,-192.5 2778.5,-192.5 2778.5,-186.5 2784.5,-180.5 2790.5,-180.5"/>
<text text-anchor="middle" x="2877.5" y="-203.3" font-family="Dejavu Sans Mono" font-size="14.00">MISSING LABEL</text>
<text text-anchor="middle" x="2877.5" y="-188.3" font-family="Dejavu Sans Mono" font-size="14.00">(kblad:ac&#45;sns15_lnk_3)</text>
</g>
<!-- nkblad_ac_sns15_lnk_3&#45;&gt;nkblad_K69 -->
<g id="edge35" class="edge">
<title>nkblad_ac_sns15_lnk_3&#45;&gt;nkblad_K69</title>
<path fill="none" stroke="black" d="M2976.74,-187.85C3020.85,-182.59 3073.54,-176.28 3121,-170.5 3232.14,-156.96 3272.97,-193.59 3371,-139.5 3382.06,-133.4 3378.04,-123.79 3389,-117.5 3408.45,-106.33 3431,-99.24 3453.33,-94.81"/>
<polygon fill="black" stroke="black" points="3454.01,-98.24 3463.23,-93.01 3452.76,-91.35 3454.01,-98.24"/>
<text text-anchor="middle" x="3255" y="-174.3" font-family="Dejavu Sans Mono" font-size="14.00">apinatomy:fasciculatesIn</text>
</g>
<!-- nkblad_ac_sns15_lnk_3&#45;&gt;nkblad_ac_sns15_lnk_4 -->
<g id="edge37" class="edge">
<title>nkblad_ac_sns15_lnk_3&#45;&gt;nkblad_ac_sns15_lnk_4</title>
<path fill="none" stroke="black" d="M2976.62,-199.31C3076.02,-199.21 3234.2,-199.31 3371,-200.5 3398.82,-200.74 3428.88,-201.14 3456.85,-201.57"/>
<polygon fill="black" stroke="black" points="3457,-205.07 3467.06,-201.73 3457.11,-198.07 3457,-205.07"/>
<text text-anchor="middle" x="3255" y="-204.3" font-family="Dejavu Sans Mono" font-size="14.00">apinatomy:next</text>
</g>
<!-- nkblad_dc_snl65_lnk_1 -->
<g id="node9" class="node">
<title>nkblad_dc_snl65_lnk_1</title>
<path fill="none" stroke="black" d="M1359,-166.5C1359,-166.5 1533,-166.5 1533,-166.5 1539,-166.5 1545,-172.5 1545,-178.5 1545,-178.5 1545,-192.5 1545,-192.5 1545,-198.5 1539,-204.5 1533,-204.5 1533,-204.5 1359,-204.5 1359,-204.5 1353,-204.5 1347,-198.5 1347,-192.5 1347,-192.5 1347,-178.5 1347,-178.5 1347,-172.5 1353,-166.5 1359,-166.5"/>
<text text-anchor="middle" x="1446" y="-189.3" font-family="Dejavu Sans Mono" font-size="14.00">MISSING LABEL</text>
<text text-anchor="middle" x="1446" y="-174.3" font-family="Dejavu Sans Mono" font-size="14.00">(kblad:dc&#45;snl65_lnk_1)</text>
</g>
<!-- nkblad_ref_mat_K_83_K_129_K27_7 -->
<g id="node33" class="node">
<title>nkblad_ref_mat_K_83_K_129_K27_7</title>
<path fill="none" stroke="black" d="M1726,-223.5C1726,-223.5 2354,-223.5 2354,-223.5 2360,-223.5 2366,-229.5 2366,-235.5 2366,-235.5 2366,-249.5 2366,-249.5 2366,-255.5 2360,-261.5 2354,-261.5 2354,-261.5 1726,-261.5 1726,-261.5 1720,-261.5 1714,-255.5 1714,-249.5 1714,-249.5 1714,-235.5 1714,-235.5 1714,-229.5 1720,-223.5 1726,-223.5"/>
<text text-anchor="middle" x="2040" y="-246.3" font-family="Dejavu Sans Mono" font-size="14.00">lamina VII of gray matter of spinal cord in L6 spinal segment (kblad) layer 7</text>
<text text-anchor="middle" x="2040" y="-231.3" font-family="Dejavu Sans Mono" font-size="14.00">(kblad:ref_mat_K_83_K_129_K27_7)</text>
</g>
<!-- nkblad_dc_snl65_lnk_1&#45;&gt;nkblad_ref_mat_K_83_K_129_K27_7 -->
<g id="edge45" class="edge">
<title>nkblad_dc_snl65_lnk_1&#45;&gt;nkblad_ref_mat_K_83_K_129_K27_7</title>
<path fill="none" stroke="black" d="M1545.09,-194.94C1622.84,-202.43 1734.22,-213.15 1831.54,-222.52"/>
<polygon fill="black" stroke="black" points="1831.22,-226.01 1841.51,-223.49 1831.89,-219.04 1831.22,-226.01"/>
<text text-anchor="middle" x="1629.5" y="-213.3" font-family="Dejavu Sans Mono" font-size="14.00">apinatomy:endsIn</text>
</g>
<!-- nkblad_K27 -->
<g id="node10" class="node">
<title>nkblad_K27</title>
<path fill="none" stroke="black" d="M3467,-301.5C3467,-301.5 3666,-301.5 3666,-301.5 3672,-301.5 3678,-307.5 3678,-313.5 3678,-313.5 3678,-327.5 3678,-327.5 3678,-333.5 3672,-339.5 3666,-339.5 3666,-339.5 3467,-339.5 3467,-339.5 3461,-339.5 3455,-333.5 3455,-327.5 3455,-327.5 3455,-313.5 3455,-313.5 3455,-307.5 3461,-301.5 3467,-301.5"/>
<text text-anchor="middle" x="3566.5" y="-324.3" font-family="Dejavu Sans Mono" font-size="14.00">L6 spinal segment (kblad)</text>
<text text-anchor="middle" x="3566.5" y="-309.3" font-family="Dejavu Sans Mono" font-size="14.00">(kblad:K27)</text>
</g>
<!-- nEMAPA_19574 -->
<g id="node31" class="node">
<title>nEMAPA_19574</title>
<path fill="none" stroke="black" d="M3941,-301.5C3941,-301.5 4198,-301.5 4198,-301.5 4204,-301.5 4210,-307.5 4210,-313.5 4210,-313.5 4210,-327.5 4210,-327.5 4210,-333.5 4204,-339.5 4198,-339.5 4198,-339.5 3941,-339.5 3941,-339.5 3935,-339.5 3929,-333.5 3929,-327.5 3929,-327.5 3929,-313.5 3929,-313.5 3929,-307.5 3935,-301.5 3941,-301.5"/>
<text text-anchor="middle" x="4069.5" y="-324.3" font-family="Dejavu Sans Mono" font-size="14.00">Sixth lumbar spinal cord segment</text>
<text text-anchor="middle" x="4069.5" y="-309.3" font-family="Dejavu Sans Mono" font-size="14.00">(EMAPA:19574)</text>
</g>
<!-- nkblad_K27&#45;&gt;nEMAPA_19574 -->
<g id="edge1" class="edge">
<title>nkblad_K27&#45;&gt;nEMAPA_19574</title>
<path fill="none" stroke="black" d="M3678.07,-320.5C3748.67,-320.5 3841.1,-320.5 3918.31,-320.5"/>
<polygon fill="black" stroke="black" points="3918.61,-324 3928.61,-320.5 3918.61,-317 3918.61,-324"/>
<text text-anchor="middle" x="3836.5" y="-324.3" font-family="Dejavu Sans Mono" font-size="14.00">apinatomy:external</text>
</g>
<!-- nkblad_ac_snl65_lnk_1 -->
<g id="node11" class="node">
<title>nkblad_ac_snl65_lnk_1</title>
<path fill="none" stroke="black" d="M1359,-223.5C1359,-223.5 1533,-223.5 1533,-223.5 1539,-223.5 1545,-229.5 1545,-235.5 1545,-235.5 1545,-249.5 1545,-249.5 1545,-255.5 1539,-261.5 1533,-261.5 1533,-261.5 1359,-261.5 1359,-261.5 1353,-261.5 1347,-255.5 1347,-249.5 1347,-249.5 1347,-235.5 1347,-235.5 1347,-229.5 1353,-223.5 1359,-223.5"/>
<text text-anchor="middle" x="1446" y="-246.3" font-family="Dejavu Sans Mono" font-size="14.00">MISSING LABEL</text>
<text text-anchor="middle" x="1446" y="-231.3" font-family="Dejavu Sans Mono" font-size="14.00">(kblad:ac&#45;snl65_lnk_1)</text>
</g>
<!-- nkblad_ac_snl65_lnk_2 -->
<g id="node26" class="node">
<title>nkblad_ac_snl65_lnk_2</title>
<path fill="none" stroke="black" d="M1953,-312.5C1953,-312.5 2127,-312.5 2127,-312.5 2133,-312.5 2139,-318.5 2139,-324.5 2139,-324.5 2139,-338.5 2139,-338.5 2139,-344.5 2133,-350.5 2127,-350.5 2127,-350.5 1953,-350.5 1953,-350.5 1947,-350.5 1941,-344.5 1941,-338.5 1941,-338.5 1941,-324.5 1941,-324.5 1941,-318.5 1947,-312.5 1953,-312.5"/>
<text text-anchor="middle" x="2040" y="-335.3" font-family="Dejavu Sans Mono" font-size="14.00">MISSING LABEL</text>
<text text-anchor="middle" x="2040" y="-320.3" font-family="Dejavu Sans Mono" font-size="14.00">(kblad:ac&#45;snl65_lnk_2)</text>
</g>
<!-- nkblad_ac_snl65_lnk_1&#45;&gt;nkblad_ac_snl65_lnk_2 -->
<g id="edge42" class="edge">
<title>nkblad_ac_snl65_lnk_1&#45;&gt;nkblad_ac_snl65_lnk_2</title>
<path fill="none" stroke="black" d="M1545.08,-258.68C1551.14,-259.64 1557.15,-260.59 1563,-261.5 1689.15,-281.11 1834.34,-302.25 1930.87,-316.11"/>
<polygon fill="black" stroke="black" points="1930.53,-319.6 1940.93,-317.56 1931.53,-312.67 1930.53,-319.6"/>
<text text-anchor="middle" x="1629.5" y="-284.3" font-family="Dejavu Sans Mono" font-size="14.00">apinatomy:next</text>
</g>
<!-- nkblad_ac_snl65_lnk_1&#45;&gt;nkblad_ref_mat_K_83_K_129_K27_7 -->
<g id="edge43" class="edge">
<title>nkblad_ac_snl65_lnk_1&#45;&gt;nkblad_ref_mat_K_83_K_129_K27_7</title>
<path fill="none" stroke="black" d="M1545.09,-242.5C1589.9,-242.5 1645.87,-242.5 1703.89,-242.5"/>
<polygon fill="black" stroke="black" points="1703.97,-246 1713.97,-242.5 1703.97,-239 1703.97,-246"/>
<text text-anchor="middle" x="1629.5" y="-246.3" font-family="Dejavu Sans Mono" font-size="14.00">apinatomy:endsIn</text>
</g>
<!-- nUBERON_0018675 -->
<g id="node17" class="node">
<title>nUBERON_0018675</title>
<path fill="none" stroke="black" d="M4806.5,-182.5C4806.5,-182.5 4931.5,-182.5 4931.5,-182.5 4937.5,-182.5 4943.5,-188.5 4943.5,-194.5 4943.5,-194.5 4943.5,-208.5 4943.5,-208.5 4943.5,-214.5 4937.5,-220.5 4931.5,-220.5 4931.5,-220.5 4806.5,-220.5 4806.5,-220.5 4800.5,-220.5 4794.5,-214.5 4794.5,-208.5 4794.5,-208.5 4794.5,-194.5 4794.5,-194.5 4794.5,-188.5 4800.5,-182.5 4806.5,-182.5"/>
<text text-anchor="middle" x="4869" y="-205.3" font-family="Dejavu Sans Mono" font-size="14.00">MISSING LABEL</text>
<text text-anchor="middle" x="4869" y="-190.3" font-family="Dejavu Sans Mono" font-size="14.00">(UBERON:0018675)</text>
</g>
<!-- nkblad_n_pelspl&#45;&gt;nUBERON_0018675 -->
<g id="edge27" class="edge">
<title>nkblad_n_pelspl&#45;&gt;nUBERON_0018675</title>
<path fill="none" stroke="black" d="M4585.16,-201.5C4647.26,-201.5 4725.58,-201.5 4784.05,-201.5"/>
<polygon fill="black" stroke="black" points="4784.36,-205 4794.36,-201.5 4784.36,-198 4784.36,-205"/>
<text text-anchor="middle" x="4677.5" y="-205.3" font-family="Dejavu Sans Mono" font-size="14.00">apinatomy:external</text>
</g>
<!-- nkblad_K68 -->
<g id="node13" class="node">
<title>nkblad_K68</title>
<path fill="none" stroke="black" d="M3475.5,-438.5C3475.5,-438.5 3657.5,-438.5 3657.5,-438.5 3663.5,-438.5 3669.5,-444.5 3669.5,-450.5 3669.5,-450.5 3669.5,-464.5 3669.5,-464.5 3669.5,-470.5 3663.5,-476.5 3657.5,-476.5 3657.5,-476.5 3475.5,-476.5 3475.5,-476.5 3469.5,-476.5 3463.5,-470.5 3463.5,-464.5 3463.5,-464.5 3463.5,-450.5 3463.5,-450.5 3463.5,-444.5 3469.5,-438.5 3475.5,-438.5"/>
<text text-anchor="middle" x="3566.5" y="-461.3" font-family="Dejavu Sans Mono" font-size="14.00">L6 ventral root (kblad)</text>
<text text-anchor="middle" x="3566.5" y="-446.3" font-family="Dejavu Sans Mono" font-size="14.00">(kblad:K68)</text>
</g>
<!-- nkblad_K68&#45;&gt;nEMAPA_25279 -->
<g id="edge15" class="edge">
<title>nkblad_K68&#45;&gt;nEMAPA_25279</title>
<path fill="none" stroke="black" d="M3669.79,-462.2C3767.28,-466.67 3911.54,-473.29 3997.18,-477.23"/>
<polygon fill="black" stroke="black" points="3997.18,-480.73 4007.33,-477.69 3997.5,-473.74 3997.18,-480.73"/>
<text text-anchor="middle" x="3836.5" y="-476.3" font-family="Dejavu Sans Mono" font-size="14.00">apinatomy:external</text>
</g>
<!-- nkblad_ref_mat_KM_27_K_129_K28_14 -->
<g id="node14" class="node">
<title>nkblad_ref_mat_KM_27_K_129_K28_14</title>
<path fill="none" stroke="black" d="M2646,-66.5C2646,-66.5 3109,-66.5 3109,-66.5 3115,-66.5 3121,-72.5 3121,-78.5 3121,-78.5 3121,-92.5 3121,-92.5 3121,-98.5 3115,-104.5 3109,-104.5 3109,-104.5 2646,-104.5 2646,-104.5 2640,-104.5 2634,-98.5 2634,-92.5 2634,-92.5 2634,-78.5 2634,-78.5 2634,-72.5 2640,-66.5 2646,-66.5"/>
<text text-anchor="middle" x="2877.5" y="-89.3" font-family="Dejavu Sans Mono" font-size="14.00">White matter of CNS in S1 spinal segment (kblad) layer 14</text>
<text text-anchor="middle" x="2877.5" y="-74.3" font-family="Dejavu Sans Mono" font-size="14.00">(kblad:ref_mat_KM_27_K_129_K28_14)</text>
</g>
<!-- nkblad_ref_mat_KM_27_K_129_K28_14&#45;&gt;nkblad_K28 -->
<g id="edge9" class="edge">
<title>nkblad_ref_mat_KM_27_K_129_K28_14&#45;&gt;nkblad_K28</title>
<path fill="none" stroke="black" d="M3121.19,-66.78C3230.7,-58.33 3355.19,-48.72 3444.49,-41.84"/>
<polygon fill="black" stroke="black" points="3444.95,-45.31 3454.65,-41.05 3444.41,-38.33 3444.95,-45.31"/>
<text text-anchor="middle" x="3255" y="-69.3" font-family="Dejavu Sans Mono" font-size="14.00">apinatomy:layerIn</text>
</g>
<!-- nUBERON_0016549 -->
<g id="node32" class="node">
<title>nUBERON_0016549</title>
<path fill="none" stroke="black" d="M3401,-127.5C3401,-127.5 3732,-127.5 3732,-127.5 3738,-127.5 3744,-133.5 3744,-139.5 3744,-139.5 3744,-153.5 3744,-153.5 3744,-159.5 3738,-165.5 3732,-165.5 3732,-165.5 3401,-165.5 3401,-165.5 3395,-165.5 3389,-159.5 3389,-153.5 3389,-153.5 3389,-139.5 3389,-139.5 3389,-133.5 3395,-127.5 3401,-127.5"/>
<text text-anchor="middle" x="3566.5" y="-150.3" font-family="Dejavu Sans Mono" font-size="14.00">central nervous system white matter layer</text>
<text text-anchor="middle" x="3566.5" y="-135.3" font-family="Dejavu Sans Mono" font-size="14.00">(UBERON:0016549)</text>
</g>
<!-- nkblad_ref_mat_KM_27_K_129_K28_14&#45;&gt;nUBERON_0016549 -->
<g id="edge38" class="edge">
<title>nkblad_ref_mat_KM_27_K_129_K28_14&#45;&gt;nUBERON_0016549</title>
<path fill="none" stroke="black" d="M3121,-103.07C3200.69,-109.28 3289.68,-116.68 3371,-124.5 3377.38,-125.11 3383.88,-125.76 3390.44,-126.42"/>
<polygon fill="black" stroke="black" points="3390.49,-129.94 3400.8,-127.48 3391.21,-122.98 3390.49,-129.94"/>
<text text-anchor="middle" x="3255" y="-128.3" font-family="Dejavu Sans Mono" font-size="14.00">apinatomy:inheritedExternal*</text>
</g>
<!-- nkblad_K104 -->
<g id="node15" class="node">
<title>nkblad_K104</title>
<path fill="none" stroke="black" d="M4782,-275.5C4782,-275.5 4956,-275.5 4956,-275.5 4962,-275.5 4968,-281.5 4968,-287.5 4968,-287.5 4968,-301.5 4968,-301.5 4968,-307.5 4962,-313.5 4956,-313.5 4956,-313.5 4782,-313.5 4782,-313.5 4776,-313.5 4770,-307.5 4770,-301.5 4770,-301.5 4770,-287.5 4770,-287.5 4770,-281.5 4776,-275.5 4782,-275.5"/>
<text text-anchor="middle" x="4869" y="-298.3" font-family="Dejavu Sans Mono" font-size="14.00">Pelvic ganglia (kblad)</text>
<text text-anchor="middle" x="4869" y="-283.3" font-family="Dejavu Sans Mono" font-size="14.00">(kblad:K104)</text>
</g>
<!-- nUBERON_0016508 -->
<g id="node19" class="node">
<title>nUBERON_0016508</title>
<path fill="none" stroke="black" d="M5165,-275.5C5165,-275.5 5290,-275.5 5290,-275.5 5296,-275.5 5302,-281.5 5302,-287.5 5302,-287.5 5302,-301.5 5302,-301.5 5302,-307.5 5296,-313.5 5290,-313.5 5290,-313.5 5165,-313.5 5165,-313.5 5159,-313.5 5153,-307.5 5153,-301.5 5153,-301.5 5153,-287.5 5153,-287.5 5153,-281.5 5159,-275.5 5165,-275.5"/>
<text text-anchor="middle" x="5227.5" y="-298.3" font-family="Dejavu Sans Mono" font-size="14.00">pelvic ganglion</text>
<text text-anchor="middle" x="5227.5" y="-283.3" font-family="Dejavu Sans Mono" font-size="14.00">(UBERON:0016508)</text>
</g>
<!-- nkblad_K104&#45;&gt;nUBERON_0016508 -->
<g id="edge22" class="edge">
<title>nkblad_K104&#45;&gt;nUBERON_0016508</title>
<path fill="none" stroke="black" d="M4968.36,-294.5C5023.04,-294.5 5090.37,-294.5 5142.55,-294.5"/>
<polygon fill="black" stroke="black" points="5142.78,-298 5152.78,-294.5 5142.78,-291 5142.78,-298"/>
<text text-anchor="middle" x="5060.5" y="-298.3" font-family="Dejavu Sans Mono" font-size="14.00">apinatomy:external</text>
</g>
<!-- nkblad_ac_sns15_lnk_1 -->
<g id="node16" class="node">
<title>nkblad_ac_sns15_lnk_1</title>
<path fill="none" stroke="black" d="M1359,-57.5C1359,-57.5 1533,-57.5 1533,-57.5 1539,-57.5 1545,-63.5 1545,-69.5 1545,-69.5 1545,-83.5 1545,-83.5 1545,-89.5 1539,-95.5 1533,-95.5 1533,-95.5 1359,-95.5 1359,-95.5 1353,-95.5 1347,-89.5 1347,-83.5 1347,-83.5 1347,-69.5 1347,-69.5 1347,-63.5 1353,-57.5 1359,-57.5"/>
<text text-anchor="middle" x="1446" y="-80.3" font-family="Dejavu Sans Mono" font-size="14.00">MISSING LABEL</text>
<text text-anchor="middle" x="1446" y="-65.3" font-family="Dejavu Sans Mono" font-size="14.00">(kblad:ac&#45;sns15_lnk_1)</text>
</g>
<!-- nkblad_ac_sns15_lnk_1&#45;&gt;nkblad_ref_mat_K_83_K_129_K28_7 -->
<g id="edge29" class="edge">
<title>nkblad_ac_sns15_lnk_1&#45;&gt;nkblad_ref_mat_K_83_K_129_K28_7</title>
<path fill="none" stroke="black" d="M1545.09,-76.5C1589.9,-76.5 1645.87,-76.5 1703.89,-76.5"/>
<polygon fill="black" stroke="black" points="1703.97,-80 1713.97,-76.5 1703.97,-73 1703.97,-80"/>
<text text-anchor="middle" x="1629.5" y="-80.3" font-family="Dejavu Sans Mono" font-size="14.00">apinatomy:endsIn</text>
</g>
<!-- nkblad_ac_sns15_lnk_2 -->
<g id="node30" class="node">
<title>nkblad_ac_sns15_lnk_2</title>
<path fill="none" stroke="black" d="M1953,-146.5C1953,-146.5 2127,-146.5 2127,-146.5 2133,-146.5 2139,-152.5 2139,-158.5 2139,-158.5 2139,-172.5 2139,-172.5 2139,-178.5 2133,-184.5 2127,-184.5 2127,-184.5 1953,-184.5 1953,-184.5 1947,-184.5 1941,-178.5 1941,-172.5 1941,-172.5 1941,-158.5 1941,-158.5 1941,-152.5 1947,-146.5 1953,-146.5"/>
<text text-anchor="middle" x="2040" y="-169.3" font-family="Dejavu Sans Mono" font-size="14.00">MISSING LABEL</text>
<text text-anchor="middle" x="2040" y="-154.3" font-family="Dejavu Sans Mono" font-size="14.00">(kblad:ac&#45;sns15_lnk_2)</text>
</g>
<!-- nkblad_ac_sns15_lnk_1&#45;&gt;nkblad_ac_sns15_lnk_2 -->
<g id="edge21" class="edge">
<title>nkblad_ac_sns15_lnk_1&#45;&gt;nkblad_ac_sns15_lnk_2</title>
<path fill="none" stroke="black" d="M1545.08,-92.68C1551.14,-93.64 1557.15,-94.59 1563,-95.5 1689.15,-115.11 1834.34,-136.25 1930.87,-150.11"/>
<polygon fill="black" stroke="black" points="1930.53,-153.6 1940.93,-151.56 1931.53,-146.67 1930.53,-153.6"/>
<text text-anchor="middle" x="1629.5" y="-119.3" font-family="Dejavu Sans Mono" font-size="14.00">apinatomy:next</text>
</g>
<!-- nkblad_ac_snl65_lnk_4 -->
<g id="node18" class="node">
<title>nkblad_ac_snl65_lnk_4</title>
<path fill="none" stroke="black" d="M3479.5,-358.5C3479.5,-358.5 3653.5,-358.5 3653.5,-358.5 3659.5,-358.5 3665.5,-364.5 3665.5,-370.5 3665.5,-370.5 3665.5,-384.5 3665.5,-384.5 3665.5,-390.5 3659.5,-396.5 3653.5,-396.5 3653.5,-396.5 3479.5,-396.5 3479.5,-396.5 3473.5,-396.5 3467.5,-390.5 3467.5,-384.5 3467.5,-384.5 3467.5,-370.5 3467.5,-370.5 3467.5,-364.5 3473.5,-358.5 3479.5,-358.5"/>
<text text-anchor="middle" x="3566.5" y="-381.3" font-family="Dejavu Sans Mono" font-size="14.00">MISSING LABEL</text>
<text text-anchor="middle" x="3566.5" y="-366.3" font-family="Dejavu Sans Mono" font-size="14.00">(kblad:ac&#45;snl65_lnk_4)</text>
</g>
<!-- nkblad_ac_snl65_lnk_4&#45;&gt;nkblad_ac_snl6s1_lnk_1 -->
<g id="edge12" class="edge">
<title>nkblad_ac_snl65_lnk_4&#45;&gt;nkblad_ac_snl6s1_lnk_1</title>
<path fill="none" stroke="black" d="M3665.69,-379.85C3693.51,-376.05 3722.13,-367.36 3744,-349.5 3761.65,-335.09 3745.61,-317.32 3762,-301.5 3818.32,-247.13 3853.79,-267.23 3929,-245.5 3943.83,-241.21 3959.65,-237.01 3975.11,-233.1"/>
<polygon fill="black" stroke="black" points="3976.36,-236.4 3985.21,-230.58 3974.66,-229.61 3976.36,-236.4"/>
<text text-anchor="middle" x="3836.5" y="-305.3" font-family="Dejavu Sans Mono" font-size="14.00">apinatomy:next*</text>
</g>
<!-- nkblad_ac_snl65_lnk_4&#45;&gt;nkblad_n_pelspl -->
<g id="edge14" class="edge">
<title>nkblad_ac_snl65_lnk_4&#45;&gt;nkblad_n_pelspl</title>
<path fill="none" stroke="black" d="M3665.83,-376.42C3840.82,-374.05 4189.95,-367.14 4210,-349.5 4245.22,-318.52 4194.84,-278.68 4228,-245.5 4233.33,-240.17 4303.7,-228.18 4368.87,-218.06"/>
<polygon fill="black" stroke="black" points="4369.51,-221.51 4378.86,-216.52 4368.44,-214.59 4369.51,-221.51"/>
<text text-anchor="middle" x="4069.5" y="-374.3" font-family="Dejavu Sans Mono" font-size="14.00">apinatomy:endsIn</text>
</g>
<!-- nkblad_ac_snl65_lnk_4&#45;&gt;nkblad_ac_snl6s1_lnk_2 -->
<g id="edge36" class="edge">
<title>nkblad_ac_snl65_lnk_4&#45;&gt;nkblad_ac_snl6s1_lnk_2</title>
<path fill="none" stroke="black" d="M3665.58,-392.64C3792.41,-409.4 4019.6,-429.83 4210,-395.5 4291.81,-380.75 4381.15,-342.84 4434.06,-317.89"/>
<polygon fill="black" stroke="black" points="4435.66,-321 4443.19,-313.54 4432.65,-314.68 4435.66,-321"/>
<text text-anchor="middle" x="4069.5" y="-417.3" font-family="Dejavu Sans Mono" font-size="14.00">apinatomy:next*</text>
</g>
<!-- nkblad_ac_snl6s1_lnk_2&#45;&gt;nkblad_K104 -->
<g id="edge25" class="edge">
<title>nkblad_ac_snl6s1_lnk_2&#45;&gt;nkblad_K104</title>
<path fill="none" stroke="black" d="M4585.16,-294.5C4638.95,-294.5 4704.92,-294.5 4759.61,-294.5"/>
<polygon fill="black" stroke="black" points="4759.68,-298 4769.68,-294.5 4759.68,-291 4759.68,-298"/>
<text text-anchor="middle" x="4677.5" y="-298.3" font-family="Dejavu Sans Mono" font-size="14.00">apinatomy:endsIn</text>
</g>
<!-- nkblad_ac_snl65_lnk_3 -->
<g id="node21" class="node">
<title>nkblad_ac_snl65_lnk_3</title>
<path fill="none" stroke="black" d="M2790.5,-358.5C2790.5,-358.5 2964.5,-358.5 2964.5,-358.5 2970.5,-358.5 2976.5,-364.5 2976.5,-370.5 2976.5,-370.5 2976.5,-384.5 2976.5,-384.5 2976.5,-390.5 2970.5,-396.5 2964.5,-396.5 2964.5,-396.5 2790.5,-396.5 2790.5,-396.5 2784.5,-396.5 2778.5,-390.5 2778.5,-384.5 2778.5,-384.5 2778.5,-370.5 2778.5,-370.5 2778.5,-364.5 2784.5,-358.5 2790.5,-358.5"/>
<text text-anchor="middle" x="2877.5" y="-381.3" font-family="Dejavu Sans Mono" font-size="14.00">MISSING LABEL</text>
<text text-anchor="middle" x="2877.5" y="-366.3" font-family="Dejavu Sans Mono" font-size="14.00">(kblad:ac&#45;snl65_lnk_3)</text>
</g>
<!-- nkblad_ac_snl65_lnk_3&#45;&gt;nkblad_K68 -->
<g id="edge41" class="edge">
<title>nkblad_ac_snl65_lnk_3&#45;&gt;nkblad_K68</title>
<path fill="none" stroke="black" d="M2976.57,-388.92C3102.58,-403.59 3320.83,-429.01 3453.32,-444.44"/>
<polygon fill="black" stroke="black" points="3453.16,-447.94 3463.49,-445.62 3453.97,-440.99 3453.16,-447.94"/>
<text text-anchor="middle" x="3255" y="-437.3" font-family="Dejavu Sans Mono" font-size="14.00">apinatomy:fasciculatesIn</text>
</g>
<!-- nkblad_ac_snl65_lnk_3&#45;&gt;nkblad_ac_snl65_lnk_4 -->
<g id="edge31" class="edge">
<title>nkblad_ac_snl65_lnk_3&#45;&gt;nkblad_ac_snl65_lnk_4</title>
<path fill="none" stroke="black" d="M2976.57,-377.5C3103.84,-377.5 3325.22,-377.5 3457.28,-377.5"/>
<polygon fill="black" stroke="black" points="3457.42,-381 3467.42,-377.5 3457.42,-374 3457.42,-381"/>
<text text-anchor="middle" x="3255" y="-381.3" font-family="Dejavu Sans Mono" font-size="14.00">apinatomy:next</text>
</g>
<!-- nkblad_neuron_5 -->
<g id="node22" class="node">
<title>nkblad_neuron_5</title>
<path fill="none" stroke="black" d="M527,-135.5C527,-135.5 652,-135.5 652,-135.5 658,-135.5 664,-141.5 664,-147.5 664,-147.5 664,-161.5 664,-161.5 664,-167.5 658,-173.5 652,-173.5 652,-173.5 527,-173.5 527,-173.5 521,-173.5 515,-167.5 515,-161.5 515,-161.5 515,-147.5 515,-147.5 515,-141.5 521,-135.5 527,-135.5"/>
<text text-anchor="middle" x="589.5" y="-158.3" font-family="Dejavu Sans Mono" font-size="14.00">Neuron 5</text>
<text text-anchor="middle" x="589.5" y="-143.3" font-family="Dejavu Sans Mono" font-size="14.00">(kblad:neuron&#45;5)</text>
</g>
<!-- nkblad_sns15 -->
<g id="node25" class="node">
<title>nkblad_sns15</title>
<path fill="none" stroke="black" d="M836,-107.5C836,-107.5 1175,-107.5 1175,-107.5 1181,-107.5 1187,-113.5 1187,-119.5 1187,-119.5 1187,-133.5 1187,-133.5 1187,-139.5 1181,-145.5 1175,-145.5 1175,-145.5 836,-145.5 836,-145.5 830,-145.5 824,-139.5 824,-133.5 824,-133.5 824,-119.5 824,-119.5 824,-113.5 830,-107.5 836,-107.5"/>
<text text-anchor="middle" x="1005.5" y="-130.3" font-family="Dejavu Sans Mono" font-size="14.00">Soma of PSPR neuron in S1_Neuron 5 (kblad)</text>
<text text-anchor="middle" x="1005.5" y="-115.3" font-family="Dejavu Sans Mono" font-size="14.00">(kblad:sns15)</text>
</g>
<!-- nkblad_neuron_5&#45;&gt;nkblad_sns15 -->
<g id="edge28" class="edge">
<title>nkblad_neuron_5&#45;&gt;nkblad_sns15</title>
<path fill="none" stroke="black" d="M664.04,-149.53C705.84,-146.7 760.3,-143.02 813.36,-139.43"/>
<polygon fill="black" stroke="black" points="813.86,-142.9 823.6,-138.73 813.39,-135.92 813.86,-142.9"/>
<text text-anchor="middle" x="744" y="-152.3" font-family="Dejavu Sans Mono" font-size="14.00">apinatomy:lyphs</text>
</g>
<!-- nkblad_snl65 -->
<g id="node27" class="node">
<title>nkblad_snl65</title>
<path fill="none" stroke="black" d="M836,-182.5C836,-182.5 1175,-182.5 1175,-182.5 1181,-182.5 1187,-188.5 1187,-194.5 1187,-194.5 1187,-208.5 1187,-208.5 1187,-214.5 1181,-220.5 1175,-220.5 1175,-220.5 836,-220.5 836,-220.5 830,-220.5 824,-214.5 824,-208.5 824,-208.5 824,-194.5 824,-194.5 824,-188.5 830,-182.5 836,-182.5"/>
<text text-anchor="middle" x="1005.5" y="-205.3" font-family="Dejavu Sans Mono" font-size="14.00">Soma of PSPR neuron in L6_Neuron 5 (kblad)</text>
<text text-anchor="middle" x="1005.5" y="-190.3" font-family="Dejavu Sans Mono" font-size="14.00">(kblad:snl65)</text>
</g>
<!-- nkblad_neuron_5&#45;&gt;nkblad_snl65 -->
<g id="edge32" class="edge">
<title>nkblad_neuron_5&#45;&gt;nkblad_snl65</title>
<path fill="none" stroke="black" d="M664.4,-163.44C670.36,-164.14 676.28,-164.84 682,-165.5 727.23,-170.74 776.04,-176.26 821.67,-181.36"/>
<polygon fill="black" stroke="black" points="821.33,-184.85 831.66,-182.48 822.11,-177.89 821.33,-184.85"/>
<text text-anchor="middle" x="744" y="-183.3" font-family="Dejavu Sans Mono" font-size="14.00">apinatomy:lyphs</text>
</g>
<!-- nilxtr_neuron_type_keast_5 -->
<g id="node23" class="node">
<title>nilxtr_neuron_type_keast_5</title>
<path fill="none" stroke="black" d="M12,-135.5C12,-135.5 310,-135.5 310,-135.5 316,-135.5 322,-141.5 322,-147.5 322,-147.5 322,-161.5 322,-161.5 322,-167.5 316,-173.5 310,-173.5 310,-173.5 12,-173.5 12,-173.5 6,-173.5 0,-167.5 0,-161.5 0,-161.5 0,-147.5 0,-147.5 0,-141.5 6,-135.5 12,-135.5"/>
<text text-anchor="middle" x="161" y="-158.3" font-family="Dejavu Sans Mono" font-size="14.00">ilxtr:neuron&#45;phenotype&#45;keast&#45;5 neuron</text>
<text text-anchor="middle" x="161" y="-143.3" font-family="Dejavu Sans Mono" font-size="14.00">(ilxtr:neuron&#45;type&#45;keast&#45;5)</text>
</g>
<!-- nilxtr_neuron_type_keast_5&#45;&gt;nkblad_neuron_5 -->
<g id="edge24" class="edge">
<title>nilxtr_neuron_type_keast_5&#45;&gt;nkblad_neuron_5</title>
<path fill="none" stroke="black" d="M322.03,-154.5C384.18,-154.5 452.79,-154.5 504.82,-154.5"/>
<polygon fill="black" stroke="black" points="505,-158 515,-154.5 505,-151 505,-158"/>
<text text-anchor="middle" x="418.5" y="-158.3" font-family="Dejavu Sans Mono" font-size="14.00">apinatomy:annotates</text>
</g>
<!-- nkblad_ref_mat_KM_27_K_129_K27_14 -->
<g id="node24" class="node">
<title>nkblad_ref_mat_KM_27_K_129_K27_14</title>
<path fill="none" stroke="black" d="M2646,-301.5C2646,-301.5 3109,-301.5 3109,-301.5 3115,-301.5 3121,-307.5 3121,-313.5 3121,-313.5 3121,-327.5 3121,-327.5 3121,-333.5 3115,-339.5 3109,-339.5 3109,-339.5 2646,-339.5 2646,-339.5 2640,-339.5 2634,-333.5 2634,-327.5 2634,-327.5 2634,-313.5 2634,-313.5 2634,-307.5 2640,-301.5 2646,-301.5"/>
<text text-anchor="middle" x="2877.5" y="-324.3" font-family="Dejavu Sans Mono" font-size="14.00">White matter of CNS in L6 spinal segment (kblad) layer 14</text>
<text text-anchor="middle" x="2877.5" y="-309.3" font-family="Dejavu Sans Mono" font-size="14.00">(kblad:ref_mat_KM_27_K_129_K27_14)</text>
</g>
<!-- nkblad_ref_mat_KM_27_K_129_K27_14&#45;&gt;nkblad_K27 -->
<g id="edge6" class="edge">
<title>nkblad_ref_mat_KM_27_K_129_K27_14&#45;&gt;nkblad_K27</title>
<path fill="none" stroke="black" d="M3121.19,-320.5C3230.7,-320.5 3355.19,-320.5 3444.49,-320.5"/>
<polygon fill="black" stroke="black" points="3444.65,-324 3454.65,-320.5 3444.65,-317 3444.65,-324"/>
<text text-anchor="middle" x="3255" y="-324.3" font-family="Dejavu Sans Mono" font-size="14.00">apinatomy:layerIn</text>
</g>
<!-- nkblad_ref_mat_KM_27_K_129_K27_14&#45;&gt;nUBERON_0016549 -->
<g id="edge13" class="edge">
<title>nkblad_ref_mat_KM_27_K_129_K27_14&#45;&gt;nUBERON_0016549</title>
<path fill="none" stroke="black" d="M3036.89,-301.49C3065.02,-297.21 3093.96,-292.21 3121,-286.5 3234.02,-262.65 3283.93,-291.39 3371,-215.5 3386,-202.42 3373.24,-186.66 3389,-174.5 3390.44,-173.39 3391.9,-172.32 3393.38,-171.28"/>
<polygon fill="black" stroke="black" points="3395.58,-174.03 3402.15,-165.72 3391.83,-168.12 3395.58,-174.03"/>
<text text-anchor="middle" x="3255" y="-286.3" font-family="Dejavu Sans Mono" font-size="14.00">apinatomy:inheritedExternal*</text>
</g>
<!-- nkblad_sns15&#45;&gt;nkblad_ref_mat_K_83_K_129_K28_7 -->
<g id="edge23" class="edge">
<title>nkblad_sns15&#45;&gt;nkblad_ref_mat_K_83_K_129_K28_7</title>
<path fill="none" stroke="black" d="M1187.34,-123.11C1233.54,-121.94 1283.11,-120.43 1329,-118.5 1465.78,-112.76 1617.26,-104.11 1745.05,-96.16"/>
<polygon fill="black" stroke="black" points="1745.62,-99.63 1755.38,-95.51 1745.18,-92.64 1745.62,-99.63"/>
<text text-anchor="middle" x="1446" y="-122.3" font-family="Dejavu Sans Mono" font-size="14.00">apinatomy:internalIn</text>
</g>
<!-- nkblad_sns15&#45;&gt;nkblad_ac_sns15_lnk_1 -->
<g id="edge3" class="edge">
<title>nkblad_sns15&#45;&gt;nkblad_ac_sns15_lnk_1</title>
<path fill="none" stroke="black" d="M1170.33,-107.47C1182.06,-106.12 1193.71,-104.79 1205,-103.5 1248.1,-98.58 1295.57,-93.22 1336.83,-88.59"/>
<polygon fill="black" stroke="black" points="1337.36,-92.05 1346.91,-87.46 1336.58,-85.1 1337.36,-92.05"/>
<text text-anchor="middle" x="1267" y="-107.3" font-family="Dejavu Sans Mono" font-size="14.00">apinatomy:next*</text>
</g>
<!-- nkblad_dc_sns15_lnk_1 -->
<g id="node34" class="node">
<title>nkblad_dc_sns15_lnk_1</title>
<path fill="none" stroke="black" d="M1359,-0.5C1359,-0.5 1533,-0.5 1533,-0.5 1539,-0.5 1545,-6.5 1545,-12.5 1545,-12.5 1545,-26.5 1545,-26.5 1545,-32.5 1539,-38.5 1533,-38.5 1533,-38.5 1359,-38.5 1359,-38.5 1353,-38.5 1347,-32.5 1347,-26.5 1347,-26.5 1347,-12.5 1347,-12.5 1347,-6.5 1353,-0.5 1359,-0.5"/>
<text text-anchor="middle" x="1446" y="-23.3" font-family="Dejavu Sans Mono" font-size="14.00">MISSING LABEL</text>
<text text-anchor="middle" x="1446" y="-8.3" font-family="Dejavu Sans Mono" font-size="14.00">(kblad:dc&#45;sns15_lnk_1)</text>
</g>
<!-- nkblad_sns15&#45;&gt;nkblad_dc_sns15_lnk_1 -->
<g id="edge7" class="edge">
<title>nkblad_sns15&#45;&gt;nkblad_dc_sns15_lnk_1</title>
<path fill="none" stroke="black" d="M1071.52,-107.48C1110.16,-96.43 1160.21,-82.55 1205,-71.5 1249.45,-60.54 1298.84,-49.62 1341.21,-40.64"/>
<polygon fill="black" stroke="black" points="1342.19,-44.01 1351.25,-38.52 1340.75,-37.16 1342.19,-44.01"/>
<text text-anchor="middle" x="1267" y="-75.3" font-family="Dejavu Sans Mono" font-size="14.00">apinatomy:next*</text>
</g>
<!-- nkblad_ac_snl65_lnk_2&#45;&gt;nkblad_ac_snl65_lnk_3 -->
<g id="edge46" class="edge">
<title>nkblad_ac_snl65_lnk_2&#45;&gt;nkblad_ac_snl65_lnk_3</title>
<path fill="none" stroke="black" d="M2139.3,-336.91C2296.79,-345.58 2604.54,-362.53 2768.17,-371.54"/>
<polygon fill="black" stroke="black" points="2768.07,-375.04 2778.25,-372.09 2768.46,-368.05 2768.07,-375.04"/>
<text text-anchor="middle" x="2500" y="-366.3" font-family="Dejavu Sans Mono" font-size="14.00">apinatomy:next</text>
</g>
<!-- nkblad_ac_snl65_lnk_2&#45;&gt;nkblad_ref_mat_KM_27_K_129_K27_14 -->
<g id="edge40" class="edge">
<title>nkblad_ac_snl65_lnk_2&#45;&gt;nkblad_ref_mat_KM_27_K_129_K27_14</title>
<path fill="none" stroke="black" d="M2139.3,-330.21C2257.6,-328.65 2460.69,-325.97 2623.79,-323.83"/>
<polygon fill="black" stroke="black" points="2624.03,-327.32 2633.98,-323.69 2623.93,-320.33 2624.03,-327.32"/>
<text text-anchor="middle" x="2500" y="-330.3" font-family="Dejavu Sans Mono" font-size="14.00">apinatomy:fasciculatesIn</text>
</g>
<!-- nkblad_snl65&#45;&gt;nkblad_dc_snl65_lnk_1 -->
<g id="edge30" class="edge">
<title>nkblad_snl65&#45;&gt;nkblad_dc_snl65_lnk_1</title>
<path fill="none" stroke="black" d="M1187.07,-194.91C1237.88,-193.06 1291.55,-191.1 1336.69,-189.45"/>
<polygon fill="black" stroke="black" points="1336.92,-192.95 1346.79,-189.08 1336.66,-185.95 1336.92,-192.95"/>
<text text-anchor="middle" x="1267" y="-198.3" font-family="Dejavu Sans Mono" font-size="14.00">apinatomy:next*</text>
</g>
<!-- nkblad_snl65&#45;&gt;nkblad_ac_snl65_lnk_1 -->
<g id="edge5" class="edge">
<title>nkblad_snl65&#45;&gt;nkblad_ac_snl65_lnk_1</title>
<path fill="none" stroke="black" d="M1187.07,-218.38C1237.88,-223.13 1291.55,-228.15 1336.69,-232.37"/>
<polygon fill="black" stroke="black" points="1336.5,-235.87 1346.79,-233.32 1337.16,-228.9 1336.5,-235.87"/>
<text text-anchor="middle" x="1267" y="-236.3" font-family="Dejavu Sans Mono" font-size="14.00">apinatomy:next*</text>
</g>
<!-- nkblad_snl65&#45;&gt;nkblad_ref_mat_K_83_K_129_K27_7 -->
<g id="edge16" class="edge">
<title>nkblad_snl65&#45;&gt;nkblad_ref_mat_K_83_K_129_K27_7</title>
<path fill="none" stroke="black" d="M1074.54,-220.55C1112.67,-230.75 1161.23,-242.93 1205,-251.5 1439.07,-297.33 1717.2,-280.46 1885.79,-262.6"/>
<polygon fill="black" stroke="black" points="1886.17,-266.08 1895.73,-261.53 1885.42,-259.12 1886.17,-266.08"/>
<text text-anchor="middle" x="1446" y="-284.3" font-family="Dejavu Sans Mono" font-size="14.00">apinatomy:internalIn</text>
</g>
<!-- nkblad_K28&#45;&gt;nUBERON_0006460 -->
<g id="edge18" class="edge">
<title>nkblad_K28&#45;&gt;nUBERON_0006460</title>
<path fill="none" stroke="black" d="M3678.07,-32.5C3770.55,-32.5 3900.51,-32.5 3984.62,-32.5"/>
<polygon fill="black" stroke="black" points="3984.64,-36 3994.64,-32.5 3984.64,-29 3984.64,-36"/>
<text text-anchor="middle" x="3836.5" y="-36.3" font-family="Dejavu Sans Mono" font-size="14.00">apinatomy:external</text>
</g>
<!-- nkblad_ac_sns15_lnk_2&#45;&gt;nkblad_ac_sns15_lnk_3 -->
<g id="edge2" class="edge">
<title>nkblad_ac_sns15_lnk_2&#45;&gt;nkblad_ac_sns15_lnk_3</title>
<path fill="none" stroke="black" d="M2139.3,-169.5C2296.79,-175.91 2604.54,-188.43 2768.17,-195.09"/>
<polygon fill="black" stroke="black" points="2768.12,-198.59 2778.25,-195.5 2768.4,-191.6 2768.12,-198.59"/>
<text text-anchor="middle" x="2500" y="-193.3" font-family="Dejavu Sans Mono" font-size="14.00">apinatomy:next</text>
</g>
<!-- nkblad_ac_sns15_lnk_2&#45;&gt;nkblad_ref_mat_KM_27_K_129_K28_14 -->
<g id="edge19" class="edge">
<title>nkblad_ac_sns15_lnk_2&#45;&gt;nkblad_ref_mat_KM_27_K_129_K28_14</title>
<path fill="none" stroke="black" d="M2139.14,-163.13C2254.18,-159.04 2450.22,-148.03 2616,-118.5 2624.17,-117.04 2625.85,-115.09 2634,-113.5 2647.86,-110.79 2662.21,-108.32 2676.7,-106.06"/>
<polygon fill="black" stroke="black" points="2677.39,-109.49 2686.75,-104.53 2676.34,-102.57 2677.39,-109.49"/>
<text text-anchor="middle" x="2500" y="-151.3" font-family="Dejavu Sans Mono" font-size="14.00">apinatomy:fasciculatesIn</text>
</g>
<!-- nkblad_ref_mat_K_83_K_129_K27_7&#45;&gt;nkblad_K27 -->
<g id="edge26" class="edge">
<title>nkblad_ref_mat_K_83_K_129_K27_7&#45;&gt;nkblad_K27</title>
<path fill="none" stroke="black" d="M2366.06,-252.97C2682.37,-263.17 3116.25,-277.19 3121,-277.5 3230.7,-284.58 3355.23,-297 3444.52,-306.69"/>
<polygon fill="black" stroke="black" points="3444.37,-310.19 3454.69,-307.79 3445.12,-303.23 3444.37,-310.19"/>
<text text-anchor="middle" x="2877.5" y="-281.3" font-family="Dejavu Sans Mono" font-size="14.00">apinatomy:layerIn</text>
</g>
<!-- nkblad_ref_mat_K_83_K_129_K27_7&#45;&gt;nUBERON_0016578 -->
<g id="edge34" class="edge">
<title>nkblad_ref_mat_K_83_K_129_K27_7&#45;&gt;nUBERON_0016578</title>
<path fill="none" stroke="black" d="M2366.1,-236.97C2483.59,-232.35 2593.18,-223.9 2616,-208.5 2631.49,-198.04 2618.81,-181.38 2634,-170.5 2679.36,-138 2742.22,-131.52 2792.57,-132.9"/>
<polygon fill="black" stroke="black" points="2792.66,-136.41 2802.79,-133.29 2792.93,-129.41 2792.66,-136.41"/>
<text text-anchor="middle" x="2500" y="-240.3" font-family="Dejavu Sans Mono" font-size="14.00">apinatomy:inheritedExternal*</text>
</g>
<!-- nkblad_dc_sns15_lnk_1&#45;&gt;nkblad_ref_mat_K_83_K_129_K28_7 -->
<g id="edge4" class="edge">
<title>nkblad_dc_sns15_lnk_1&#45;&gt;nkblad_ref_mat_K_83_K_129_K28_7</title>
<path fill="none" stroke="black" d="M1545.09,-28.94C1622.84,-36.43 1734.22,-47.15 1831.54,-56.52"/>
<polygon fill="black" stroke="black" points="1831.22,-60.01 1841.51,-57.49 1831.89,-53.04 1831.22,-60.01"/>
<text text-anchor="middle" x="1629.5" y="-47.3" font-family="Dejavu Sans Mono" font-size="14.00">apinatomy:endsIn</text>
</g>
</g>
</svg>
