<?xml version="1.0" encoding="UTF-8" standalone="no"?>
<!DOCTYPE svg PUBLIC "-//W3C//DTD SVG 1.1//EN"
 "http://www.w3.org/Graphics/SVG/1.1/DTD/svg11.dtd">
<!-- Generated by graphviz version 2.47.1 (20210417.1919)
 -->
<!-- Pages: 1 -->
<svg width="8174pt" height="1483pt"
 viewBox="0.00 0.00 8174.00 1483.00" xmlns="http://www.w3.org/2000/svg" xmlns:xlink="http://www.w3.org/1999/xlink">
<g id="graph0" class="graph" transform="scale(1 1) rotate(0) translate(4 1479)">
<polygon fill="white" stroke="transparent" points="-4,4 -4,-1479 8170,-1479 8170,4 -4,4"/>
<!-- nUBERON_0018683 -->
<g id="node1" class="node">
<title>nUBERON_0018683</title>
<path fill="none" stroke="black" d="M6721.5,-1436.5C6721.5,-1436.5 6846.5,-1436.5 6846.5,-1436.5 6852.5,-1436.5 6858.5,-1442.5 6858.5,-1448.5 6858.5,-1448.5 6858.5,-1462.5 6858.5,-1462.5 6858.5,-1468.5 6852.5,-1474.5 6846.5,-1474.5 6846.5,-1474.5 6721.5,-1474.5 6721.5,-1474.5 6715.5,-1474.5 6709.5,-1468.5 6709.5,-1462.5 6709.5,-1462.5 6709.5,-1448.5 6709.5,-1448.5 6709.5,-1442.5 6715.5,-1436.5 6721.5,-1436.5"/>
<text text-anchor="middle" x="6784" y="-1459.3" font-family="Dejavu Sans Mono" font-size="14.00">MISSING LABEL</text>
<text text-anchor="middle" x="6784" y="-1444.3" font-family="Dejavu Sans Mono" font-size="14.00">(UBERON:0018683)</text>
</g>
<!-- nkblad_K92 -->
<g id="node2" class="node">
<title>nkblad_K92</title>
<path fill="none" stroke="black" d="M4495,-404.5C4495,-404.5 4661,-404.5 4661,-404.5 4667,-404.5 4673,-410.5 4673,-416.5 4673,-416.5 4673,-430.5 4673,-430.5 4673,-436.5 4667,-442.5 4661,-442.5 4661,-442.5 4495,-442.5 4495,-442.5 4489,-442.5 4483,-436.5 4483,-430.5 4483,-430.5 4483,-416.5 4483,-416.5 4483,-410.5 4489,-404.5 4495,-404.5"/>
<text text-anchor="middle" x="4578" y="-427.3" font-family="Dejavu Sans Mono" font-size="14.00">L1 gray ramus (kblad)</text>
<text text-anchor="middle" x="4578" y="-412.3" font-family="Dejavu Sans Mono" font-size="14.00">(kblad:K92)</text>
</g>
<!-- nFMA_65910 -->
<g id="node3" class="node">
<title>nFMA_65910</title>
<path fill="none" stroke="black" d="M4874,-417.5C4874,-417.5 4974,-417.5 4974,-417.5 4980,-417.5 4986,-423.5 4986,-429.5 4986,-429.5 4986,-443.5 4986,-443.5 4986,-449.5 4980,-455.5 4974,-455.5 4974,-455.5 4874,-455.5 4874,-455.5 4868,-455.5 4862,-449.5 4862,-443.5 4862,-443.5 4862,-429.5 4862,-429.5 4862,-423.5 4868,-417.5 4874,-417.5"/>
<text text-anchor="middle" x="4924" y="-440.3" font-family="Dejavu Sans Mono" font-size="14.00">MISSING LABEL</text>
<text text-anchor="middle" x="4924" y="-425.3" font-family="Dejavu Sans Mono" font-size="14.00">(FMA:65910)</text>
</g>
<!-- nkblad_K92&#45;&gt;nFMA_65910 -->
<g id="edge7" class="edge">
<title>nkblad_K92&#45;&gt;nFMA_65910</title>
<path fill="none" stroke="black" d="M4673.45,-427.07C4729.77,-429.2 4800.11,-431.86 4851.74,-433.81"/>
<polygon fill="black" stroke="black" points="4851.69,-437.31 4861.81,-434.19 4851.95,-430.31 4851.69,-437.31"/>
<text text-anchor="middle" x="4769.5" y="-437.3" font-family="Dejavu Sans Mono" font-size="14.00">apinatomy:external</text>
</g>
<!-- nkblad_ac_snl26_lnk_5 -->
<g id="node4" class="node">
<title>nkblad_ac_snl26_lnk_5</title>
<path fill="none" stroke="black" d="M3551,-1294.5C3551,-1294.5 3725,-1294.5 3725,-1294.5 3731,-1294.5 3737,-1300.5 3737,-1306.5 3737,-1306.5 3737,-1320.5 3737,-1320.5 3737,-1326.5 3731,-1332.5 3725,-1332.5 3725,-1332.5 3551,-1332.5 3551,-1332.5 3545,-1332.5 3539,-1326.5 3539,-1320.5 3539,-1320.5 3539,-1306.5 3539,-1306.5 3539,-1300.5 3545,-1294.5 3551,-1294.5"/>
<text text-anchor="middle" x="3638" y="-1317.3" font-family="Dejavu Sans Mono" font-size="14.00">MISSING LABEL</text>
<text text-anchor="middle" x="3638" y="-1302.3" font-family="Dejavu Sans Mono" font-size="14.00">(kblad:ac&#45;snl26_lnk_5)</text>
</g>
<!-- nkblad_ac_snl26_lnk_6 -->
<g id="node15" class="node">
<title>nkblad_ac_snl26_lnk_6</title>
<path fill="none" stroke="black" d="M4021,-1233.5C4021,-1233.5 4195,-1233.5 4195,-1233.5 4201,-1233.5 4207,-1239.5 4207,-1245.5 4207,-1245.5 4207,-1259.5 4207,-1259.5 4207,-1265.5 4201,-1271.5 4195,-1271.5 4195,-1271.5 4021,-1271.5 4021,-1271.5 4015,-1271.5 4009,-1265.5 4009,-1259.5 4009,-1259.5 4009,-1245.5 4009,-1245.5 4009,-1239.5 4015,-1233.5 4021,-1233.5"/>
<text text-anchor="middle" x="4108" y="-1256.3" font-family="Dejavu Sans Mono" font-size="14.00">MISSING LABEL</text>
<text text-anchor="middle" x="4108" y="-1241.3" font-family="Dejavu Sans Mono" font-size="14.00">(kblad:ac&#45;snl26_lnk_6)</text>
</g>
<!-- nkblad_ac_snl26_lnk_5&#45;&gt;nkblad_ac_snl26_lnk_6 -->
<g id="edge60" class="edge">
<title>nkblad_ac_snl26_lnk_5&#45;&gt;nkblad_ac_snl26_lnk_6</title>
<path fill="none" stroke="black" d="M3736.38,-1294.47C3742.67,-1293.41 3748.92,-1292.41 3755,-1291.5 3836.43,-1279.29 3928.98,-1269.18 3998.75,-1262.32"/>
<polygon fill="black" stroke="black" points="3999.26,-1265.78 4008.87,-1261.33 3998.58,-1258.82 3999.26,-1265.78"/>
<text text-anchor="middle" x="3854.5" y="-1295.3" font-family="Dejavu Sans Mono" font-size="14.00">apinatomy:next</text>
</g>
<!-- nkblad_K81 -->
<g id="node28" class="node">
<title>nkblad_K81</title>
<path fill="none" stroke="black" d="M3984,-1290.5C3984,-1290.5 4232,-1290.5 4232,-1290.5 4238,-1290.5 4244,-1296.5 4244,-1302.5 4244,-1302.5 4244,-1316.5 4244,-1316.5 4244,-1322.5 4238,-1328.5 4232,-1328.5 4232,-1328.5 3984,-1328.5 3984,-1328.5 3978,-1328.5 3972,-1322.5 3972,-1316.5 3972,-1316.5 3972,-1302.5 3972,-1302.5 3972,-1296.5 3978,-1290.5 3984,-1290.5"/>
<text text-anchor="middle" x="4108" y="-1313.3" font-family="Dejavu Sans Mono" font-size="14.00">L2 sympathetic ganglion (kblad)</text>
<text text-anchor="middle" x="4108" y="-1298.3" font-family="Dejavu Sans Mono" font-size="14.00">(kblad:K81)</text>
</g>
<!-- nkblad_ac_snl26_lnk_5&#45;&gt;nkblad_K81 -->
<g id="edge49" class="edge">
<title>nkblad_ac_snl26_lnk_5&#45;&gt;nkblad_K81</title>
<path fill="none" stroke="black" d="M3737.11,-1312.66C3802.13,-1312.11 3888.57,-1311.37 3961.54,-1310.74"/>
<polygon fill="black" stroke="black" points="3961.78,-1314.24 3971.75,-1310.66 3961.72,-1307.24 3961.78,-1314.24"/>
<text text-anchor="middle" x="3854.5" y="-1315.3" font-family="Dejavu Sans Mono" font-size="14.00">apinatomy:fasciculatesIn</text>
</g>
<!-- nUBERON_0016508 -->
<g id="node5" class="node">
<title>nUBERON_0016508</title>
<path fill="none" stroke="black" d="M8029,-207.5C8029,-207.5 8154,-207.5 8154,-207.5 8160,-207.5 8166,-213.5 8166,-219.5 8166,-219.5 8166,-233.5 8166,-233.5 8166,-239.5 8160,-245.5 8154,-245.5 8154,-245.5 8029,-245.5 8029,-245.5 8023,-245.5 8017,-239.5 8017,-233.5 8017,-233.5 8017,-219.5 8017,-219.5 8017,-213.5 8023,-207.5 8029,-207.5"/>
<text text-anchor="middle" x="8091.5" y="-230.3" font-family="Dejavu Sans Mono" font-size="14.00">pelvic ganglion</text>
<text text-anchor="middle" x="8091.5" y="-215.3" font-family="Dejavu Sans Mono" font-size="14.00">(UBERON:0016508)</text>
</g>
<!-- nkblad_ref_mat_KM_27_K_129_K22_14 -->
<g id="node6" class="node">
<title>nkblad_ref_mat_KM_27_K_129_K22_14</title>
<path fill="none" stroke="black" d="M2371,-778.5C2371,-778.5 2834,-778.5 2834,-778.5 2840,-778.5 2846,-784.5 2846,-790.5 2846,-790.5 2846,-804.5 2846,-804.5 2846,-810.5 2840,-816.5 2834,-816.5 2834,-816.5 2371,-816.5 2371,-816.5 2365,-816.5 2359,-810.5 2359,-804.5 2359,-804.5 2359,-790.5 2359,-790.5 2359,-784.5 2365,-778.5 2371,-778.5"/>
<text text-anchor="middle" x="2602.5" y="-801.3" font-family="Dejavu Sans Mono" font-size="14.00">White matter of CNS in L1 spinal segment (kblad) layer 14</text>
<text text-anchor="middle" x="2602.5" y="-786.3" font-family="Dejavu Sans Mono" font-size="14.00">(kblad:ref_mat_KM_27_K_129_K22_14)</text>
</g>
<!-- nkblad_K22 -->
<g id="node54" class="node">
<title>nkblad_K22</title>
<path fill="none" stroke="black" d="M3093,-738.5C3093,-738.5 3292,-738.5 3292,-738.5 3298,-738.5 3304,-744.5 3304,-750.5 3304,-750.5 3304,-764.5 3304,-764.5 3304,-770.5 3298,-776.5 3292,-776.5 3292,-776.5 3093,-776.5 3093,-776.5 3087,-776.5 3081,-770.5 3081,-764.5 3081,-764.5 3081,-750.5 3081,-750.5 3081,-744.5 3087,-738.5 3093,-738.5"/>
<text text-anchor="middle" x="3192.5" y="-761.3" font-family="Dejavu Sans Mono" font-size="14.00">L1 spinal segment (kblad)</text>
<text text-anchor="middle" x="3192.5" y="-746.3" font-family="Dejavu Sans Mono" font-size="14.00">(kblad:K22)</text>
</g>
<!-- nkblad_ref_mat_KM_27_K_129_K22_14&#45;&gt;nkblad_K22 -->
<g id="edge55" class="edge">
<title>nkblad_ref_mat_KM_27_K_129_K22_14&#45;&gt;nkblad_K22</title>
<path fill="none" stroke="black" d="M2846.06,-781C2923.38,-775.74 3005.6,-770.15 3070.43,-765.74"/>
<polygon fill="black" stroke="black" points="3070.94,-769.21 3080.68,-765.04 3070.46,-762.23 3070.94,-769.21"/>
<text text-anchor="middle" x="2963.5" y="-783.3" font-family="Dejavu Sans Mono" font-size="14.00">apinatomy:layerIn</text>
</g>
<!-- nkblad_ac_snl16_lnk_4 -->
<g id="node7" class="node">
<title>nkblad_ac_snl16_lnk_4</title>
<path fill="none" stroke="black" d="M3105.5,-1130.5C3105.5,-1130.5 3279.5,-1130.5 3279.5,-1130.5 3285.5,-1130.5 3291.5,-1136.5 3291.5,-1142.5 3291.5,-1142.5 3291.5,-1156.5 3291.5,-1156.5 3291.5,-1162.5 3285.5,-1168.5 3279.5,-1168.5 3279.5,-1168.5 3105.5,-1168.5 3105.5,-1168.5 3099.5,-1168.5 3093.5,-1162.5 3093.5,-1156.5 3093.5,-1156.5 3093.5,-1142.5 3093.5,-1142.5 3093.5,-1136.5 3099.5,-1130.5 3105.5,-1130.5"/>
<text text-anchor="middle" x="3192.5" y="-1153.3" font-family="Dejavu Sans Mono" font-size="14.00">MISSING LABEL</text>
<text text-anchor="middle" x="3192.5" y="-1138.3" font-family="Dejavu Sans Mono" font-size="14.00">(kblad:ac&#45;snl16_lnk_4)</text>
</g>
<!-- nkblad_ac_snl16_lnk_5 -->
<g id="node33" class="node">
<title>nkblad_ac_snl16_lnk_5</title>
<path fill="none" stroke="black" d="M3551,-1074.5C3551,-1074.5 3725,-1074.5 3725,-1074.5 3731,-1074.5 3737,-1080.5 3737,-1086.5 3737,-1086.5 3737,-1100.5 3737,-1100.5 3737,-1106.5 3731,-1112.5 3725,-1112.5 3725,-1112.5 3551,-1112.5 3551,-1112.5 3545,-1112.5 3539,-1106.5 3539,-1100.5 3539,-1100.5 3539,-1086.5 3539,-1086.5 3539,-1080.5 3545,-1074.5 3551,-1074.5"/>
<text text-anchor="middle" x="3638" y="-1097.3" font-family="Dejavu Sans Mono" font-size="14.00">MISSING LABEL</text>
<text text-anchor="middle" x="3638" y="-1082.3" font-family="Dejavu Sans Mono" font-size="14.00">(kblad:ac&#45;snl16_lnk_5)</text>
</g>
<!-- nkblad_ac_snl16_lnk_4&#45;&gt;nkblad_ac_snl16_lnk_5 -->
<g id="edge81" class="edge">
<title>nkblad_ac_snl16_lnk_4&#45;&gt;nkblad_ac_snl16_lnk_5</title>
<path fill="none" stroke="black" d="M3291.66,-1134.56C3301.9,-1133.13 3312.16,-1131.75 3322,-1130.5 3410.23,-1119.33 3432.72,-1120.24 3521,-1109.5 3523.56,-1109.19 3526.15,-1108.87 3528.77,-1108.54"/>
<polygon fill="black" stroke="black" points="3529.45,-1111.98 3538.93,-1107.25 3528.57,-1105.04 3529.45,-1111.98"/>
<text text-anchor="middle" x="3421.5" y="-1134.3" font-family="Dejavu Sans Mono" font-size="14.00">apinatomy:next</text>
</g>
<!-- nkblad_K88 -->
<g id="node44" class="node">
<title>nkblad_K88</title>
<path fill="none" stroke="black" d="M3551,-1131.5C3551,-1131.5 3725,-1131.5 3725,-1131.5 3731,-1131.5 3737,-1137.5 3737,-1143.5 3737,-1143.5 3737,-1157.5 3737,-1157.5 3737,-1163.5 3731,-1169.5 3725,-1169.5 3725,-1169.5 3551,-1169.5 3551,-1169.5 3545,-1169.5 3539,-1163.5 3539,-1157.5 3539,-1157.5 3539,-1143.5 3539,-1143.5 3539,-1137.5 3545,-1131.5 3551,-1131.5"/>
<text text-anchor="middle" x="3638" y="-1154.3" font-family="Dejavu Sans Mono" font-size="14.00">L1 white ramus (kblad)</text>
<text text-anchor="middle" x="3638" y="-1139.3" font-family="Dejavu Sans Mono" font-size="14.00">(kblad:K88)</text>
</g>
<!-- nkblad_ac_snl16_lnk_4&#45;&gt;nkblad_K88 -->
<g id="edge71" class="edge">
<title>nkblad_ac_snl16_lnk_4&#45;&gt;nkblad_K88</title>
<path fill="none" stroke="black" d="M3291.65,-1149.72C3361.83,-1149.88 3456.28,-1150.09 3528.67,-1150.26"/>
<polygon fill="black" stroke="black" points="3528.72,-1153.76 3538.73,-1150.28 3528.74,-1146.76 3528.72,-1153.76"/>
<text text-anchor="middle" x="3421.5" y="-1153.3" font-family="Dejavu Sans Mono" font-size="14.00">apinatomy:fasciculatesIn</text>
</g>
<!-- nkblad_K23 -->
<g id="node8" class="node">
<title>nkblad_K23</title>
<path fill="none" stroke="black" d="M3093,-1002.5C3093,-1002.5 3292,-1002.5 3292,-1002.5 3298,-1002.5 3304,-1008.5 3304,-1014.5 3304,-1014.5 3304,-1028.5 3304,-1028.5 3304,-1034.5 3298,-1040.5 3292,-1040.5 3292,-1040.5 3093,-1040.5 3093,-1040.5 3087,-1040.5 3081,-1034.5 3081,-1028.5 3081,-1028.5 3081,-1014.5 3081,-1014.5 3081,-1008.5 3087,-1002.5 3093,-1002.5"/>
<text text-anchor="middle" x="3192.5" y="-1025.3" font-family="Dejavu Sans Mono" font-size="14.00">L2 spinal segment (kblad)</text>
<text text-anchor="middle" x="3192.5" y="-1010.3" font-family="Dejavu Sans Mono" font-size="14.00">(kblad:K23)</text>
</g>
<!-- nUBERON_0006450 -->
<g id="node16" class="node">
<title>nUBERON_0006450</title>
<path fill="none" stroke="black" d="M3575.5,-1002.5C3575.5,-1002.5 3700.5,-1002.5 3700.5,-1002.5 3706.5,-1002.5 3712.5,-1008.5 3712.5,-1014.5 3712.5,-1014.5 3712.5,-1028.5 3712.5,-1028.5 3712.5,-1034.5 3706.5,-1040.5 3700.5,-1040.5 3700.5,-1040.5 3575.5,-1040.5 3575.5,-1040.5 3569.5,-1040.5 3563.5,-1034.5 3563.5,-1028.5 3563.5,-1028.5 3563.5,-1014.5 3563.5,-1014.5 3563.5,-1008.5 3569.5,-1002.5 3575.5,-1002.5"/>
<text text-anchor="middle" x="3638" y="-1025.3" font-family="Dejavu Sans Mono" font-size="14.00">MISSING LABEL</text>
<text text-anchor="middle" x="3638" y="-1010.3" font-family="Dejavu Sans Mono" font-size="14.00">(UBERON:0006450)</text>
</g>
<!-- nkblad_K23&#45;&gt;nUBERON_0006450 -->
<g id="edge85" class="edge">
<title>nkblad_K23&#45;&gt;nUBERON_0006450</title>
<path fill="none" stroke="black" d="M3304.27,-1021.5C3381.42,-1021.5 3482.72,-1021.5 3553.19,-1021.5"/>
<polygon fill="black" stroke="black" points="3553.36,-1025 3563.36,-1021.5 3553.36,-1018 3553.36,-1025"/>
<text text-anchor="middle" x="3421.5" y="-1025.3" font-family="Dejavu Sans Mono" font-size="14.00">apinatomy:external</text>
</g>
<!-- nkblad_dc_snl16_lnk_1 -->
<g id="node9" class="node">
<title>nkblad_dc_snl16_lnk_1</title>
<path fill="none" stroke="black" d="M972.5,-648.5C972.5,-648.5 1146.5,-648.5 1146.5,-648.5 1152.5,-648.5 1158.5,-654.5 1158.5,-660.5 1158.5,-660.5 1158.5,-674.5 1158.5,-674.5 1158.5,-680.5 1152.5,-686.5 1146.5,-686.5 1146.5,-686.5 972.5,-686.5 972.5,-686.5 966.5,-686.5 960.5,-680.5 960.5,-674.5 960.5,-674.5 960.5,-660.5 960.5,-660.5 960.5,-654.5 966.5,-648.5 972.5,-648.5"/>
<text text-anchor="middle" x="1059.5" y="-671.3" font-family="Dejavu Sans Mono" font-size="14.00">MISSING LABEL</text>
<text text-anchor="middle" x="1059.5" y="-656.3" font-family="Dejavu Sans Mono" font-size="14.00">(kblad:dc&#45;snl16_lnk_1)</text>
</g>
<!-- nkblad_ref_mat_K_83_K_129_K22_7 -->
<g id="node26" class="node">
<title>nkblad_ref_mat_K_83_K_129_K22_7</title>
<path fill="none" stroke="black" d="M1484,-707.5C1484,-707.5 2112,-707.5 2112,-707.5 2118,-707.5 2124,-713.5 2124,-719.5 2124,-719.5 2124,-733.5 2124,-733.5 2124,-739.5 2118,-745.5 2112,-745.5 2112,-745.5 1484,-745.5 1484,-745.5 1478,-745.5 1472,-739.5 1472,-733.5 1472,-733.5 1472,-719.5 1472,-719.5 1472,-713.5 1478,-707.5 1484,-707.5"/>
<text text-anchor="middle" x="1798" y="-730.3" font-family="Dejavu Sans Mono" font-size="14.00">lamina VII of gray matter of spinal cord in L1 spinal segment (kblad) layer 7</text>
<text text-anchor="middle" x="1798" y="-715.3" font-family="Dejavu Sans Mono" font-size="14.00">(kblad:ref_mat_K_83_K_129_K22_7)</text>
</g>
<!-- nkblad_dc_snl16_lnk_1&#45;&gt;nkblad_ref_mat_K_83_K_129_K22_7 -->
<g id="edge45" class="edge">
<title>nkblad_dc_snl16_lnk_1&#45;&gt;nkblad_ref_mat_K_83_K_129_K22_7</title>
<path fill="none" stroke="black" d="M1158.68,-675.37C1258.12,-683.33 1415.9,-695.97 1549.71,-706.69"/>
<polygon fill="black" stroke="black" points="1549.47,-710.18 1559.71,-707.49 1550.02,-703.2 1549.47,-710.18"/>
<text text-anchor="middle" x="1354.5" y="-703.3" font-family="Dejavu Sans Mono" font-size="14.00">apinatomy:fasciculatesIn</text>
</g>
<!-- nPMID_3558884 -->
<g id="node10" class="node">
<title>nPMID_3558884</title>
<path fill="none" stroke="black" d="M1005.5,-420.5C1005.5,-420.5 1113.5,-420.5 1113.5,-420.5 1119.5,-420.5 1125.5,-426.5 1125.5,-432.5 1125.5,-432.5 1125.5,-446.5 1125.5,-446.5 1125.5,-452.5 1119.5,-458.5 1113.5,-458.5 1113.5,-458.5 1005.5,-458.5 1005.5,-458.5 999.5,-458.5 993.5,-452.5 993.5,-446.5 993.5,-446.5 993.5,-432.5 993.5,-432.5 993.5,-426.5 999.5,-420.5 1005.5,-420.5"/>
<text text-anchor="middle" x="1059.5" y="-443.3" font-family="Dejavu Sans Mono" font-size="14.00">MISSING LABEL</text>
<text text-anchor="middle" x="1059.5" y="-428.3" font-family="Dejavu Sans Mono" font-size="14.00">(PMID:3558884)</text>
</g>
<!-- nelements_External -->
<g id="node48" class="node">
<title>nelements_External</title>
<path fill="none" stroke="black" d="M1723.5,-440.5C1723.5,-440.5 1872.5,-440.5 1872.5,-440.5 1878.5,-440.5 1884.5,-446.5 1884.5,-452.5 1884.5,-452.5 1884.5,-466.5 1884.5,-466.5 1884.5,-472.5 1878.5,-478.5 1872.5,-478.5 1872.5,-478.5 1723.5,-478.5 1723.5,-478.5 1717.5,-478.5 1711.5,-472.5 1711.5,-466.5 1711.5,-466.5 1711.5,-452.5 1711.5,-452.5 1711.5,-446.5 1717.5,-440.5 1723.5,-440.5"/>
<text text-anchor="middle" x="1798" y="-463.3" font-family="Dejavu Sans Mono" font-size="14.00">MISSING LABEL</text>
<text text-anchor="middle" x="1798" y="-448.3" font-family="Dejavu Sans Mono" font-size="14.00">(elements:External)</text>
</g>
<!-- nPMID_3558884&#45;&gt;nelements_External -->
<g id="edge72" class="edge">
<title>nPMID_3558884&#45;&gt;nelements_External</title>
<path fill="none" stroke="black" d="M1125.54,-441.27C1255.69,-444.8 1548.73,-452.76 1701.02,-456.89"/>
<polygon fill="black" stroke="black" points="1701.2,-460.4 1711.29,-457.17 1701.39,-453.4 1701.2,-460.4"/>
<text text-anchor="middle" x="1354.5" y="-454.3" font-family="Dejavu Sans Mono" font-size="14.00">type</text>
</g>
<!-- nFMA_6541 -->
<g id="node11" class="node">
<title>nFMA_6541</title>
<path fill="none" stroke="black" d="M4528,-1290.5C4528,-1290.5 4628,-1290.5 4628,-1290.5 4634,-1290.5 4640,-1296.5 4640,-1302.5 4640,-1302.5 4640,-1316.5 4640,-1316.5 4640,-1322.5 4634,-1328.5 4628,-1328.5 4628,-1328.5 4528,-1328.5 4528,-1328.5 4522,-1328.5 4516,-1322.5 4516,-1316.5 4516,-1316.5 4516,-1302.5 4516,-1302.5 4516,-1296.5 4522,-1290.5 4528,-1290.5"/>
<text text-anchor="middle" x="4578" y="-1313.3" font-family="Dejavu Sans Mono" font-size="14.00">MISSING LABEL</text>
<text text-anchor="middle" x="4578" y="-1298.3" font-family="Dejavu Sans Mono" font-size="14.00">(FMA:6541)</text>
</g>
<!-- nkblad_ref_mat_K_83_K_129_K23_7 -->
<g id="node12" class="node">
<title>nkblad_ref_mat_K_83_K_129_K23_7</title>
<path fill="none" stroke="black" d="M1484,-1021.5C1484,-1021.5 2112,-1021.5 2112,-1021.5 2118,-1021.5 2124,-1027.5 2124,-1033.5 2124,-1033.5 2124,-1047.5 2124,-1047.5 2124,-1053.5 2118,-1059.5 2112,-1059.5 2112,-1059.5 1484,-1059.5 1484,-1059.5 1478,-1059.5 1472,-1053.5 1472,-1047.5 1472,-1047.5 1472,-1033.5 1472,-1033.5 1472,-1027.5 1478,-1021.5 1484,-1021.5"/>
<text text-anchor="middle" x="1798" y="-1044.3" font-family="Dejavu Sans Mono" font-size="14.00">lamina VII of gray matter of spinal cord in L2 spinal segment (kblad) layer 7</text>
<text text-anchor="middle" x="1798" y="-1029.3" font-family="Dejavu Sans Mono" font-size="14.00">(kblad:ref_mat_K_83_K_129_K23_7)</text>
</g>
<!-- nkblad_ref_mat_K_83_K_129_K23_7&#45;&gt;nkblad_K23 -->
<g id="edge90" class="edge">
<title>nkblad_ref_mat_K_83_K_129_K23_7&#45;&gt;nkblad_K23</title>
<path fill="none" stroke="black" d="M2124.09,-1038.36C2379.41,-1036.27 2743.9,-1032.36 3063,-1025.5 3065.54,-1025.45 3068.1,-1025.39 3070.69,-1025.33"/>
<polygon fill="black" stroke="black" points="3070.84,-1028.82 3080.76,-1025.08 3070.67,-1021.83 3070.84,-1028.82"/>
<text text-anchor="middle" x="2602.5" y="-1039.3" font-family="Dejavu Sans Mono" font-size="14.00">apinatomy:layerIn</text>
</g>
<!-- nFMA_6540 -->
<g id="node13" class="node">
<title>nFMA_6540</title>
<path fill="none" stroke="black" d="M4528,-1074.5C4528,-1074.5 4628,-1074.5 4628,-1074.5 4634,-1074.5 4640,-1080.5 4640,-1086.5 4640,-1086.5 4640,-1100.5 4640,-1100.5 4640,-1106.5 4634,-1112.5 4628,-1112.5 4628,-1112.5 4528,-1112.5 4528,-1112.5 4522,-1112.5 4516,-1106.5 4516,-1100.5 4516,-1100.5 4516,-1086.5 4516,-1086.5 4516,-1080.5 4522,-1074.5 4528,-1074.5"/>
<text text-anchor="middle" x="4578" y="-1097.3" font-family="Dejavu Sans Mono" font-size="14.00">MISSING LABEL</text>
<text text-anchor="middle" x="4578" y="-1082.3" font-family="Dejavu Sans Mono" font-size="14.00">(FMA:6540)</text>
</g>
<!-- nkblad_snl26 -->
<g id="node14" class="node">
<title>nkblad_snl26</title>
<path fill="none" stroke="black" d="M894,-1074.5C894,-1074.5 1225,-1074.5 1225,-1074.5 1231,-1074.5 1237,-1080.5 1237,-1086.5 1237,-1086.5 1237,-1100.5 1237,-1100.5 1237,-1106.5 1231,-1112.5 1225,-1112.5 1225,-1112.5 894,-1112.5 894,-1112.5 888,-1112.5 882,-1106.5 882,-1100.5 882,-1100.5 882,-1086.5 882,-1086.5 882,-1080.5 888,-1074.5 894,-1074.5"/>
<text text-anchor="middle" x="1059.5" y="-1097.3" font-family="Dejavu Sans Mono" font-size="14.00">Soma of SPR neuron in L2_Neuron 6 (kblad)</text>
<text text-anchor="middle" x="1059.5" y="-1082.3" font-family="Dejavu Sans Mono" font-size="14.00">(kblad:snl26)</text>
</g>
<!-- nkblad_snl26&#45;&gt;nkblad_ref_mat_K_83_K_129_K23_7 -->
<g id="edge9" class="edge">
<title>nkblad_snl26&#45;&gt;nkblad_ref_mat_K_83_K_129_K23_7</title>
<path fill="none" stroke="black" d="M1237.38,-1080.77C1322.78,-1074.63 1427.19,-1067.11 1522.59,-1060.25"/>
<polygon fill="black" stroke="black" points="1522.96,-1063.73 1532.69,-1059.52 1522.46,-1056.75 1522.96,-1063.73"/>
<text text-anchor="middle" x="1354.5" y="-1082.3" font-family="Dejavu Sans Mono" font-size="14.00">apinatomy:internalIn</text>
</g>
<!-- nkblad_K93 -->
<g id="node19" class="node">
<title>nkblad_K93</title>
<path fill="none" stroke="black" d="M4495,-1233.5C4495,-1233.5 4661,-1233.5 4661,-1233.5 4667,-1233.5 4673,-1239.5 4673,-1245.5 4673,-1245.5 4673,-1259.5 4673,-1259.5 4673,-1265.5 4667,-1271.5 4661,-1271.5 4661,-1271.5 4495,-1271.5 4495,-1271.5 4489,-1271.5 4483,-1265.5 4483,-1259.5 4483,-1259.5 4483,-1245.5 4483,-1245.5 4483,-1239.5 4489,-1233.5 4495,-1233.5"/>
<text text-anchor="middle" x="4578" y="-1256.3" font-family="Dejavu Sans Mono" font-size="14.00">L2 gray ramus (kblad)</text>
<text text-anchor="middle" x="4578" y="-1241.3" font-family="Dejavu Sans Mono" font-size="14.00">(kblad:K93)</text>
</g>
<!-- nkblad_ac_snl26_lnk_6&#45;&gt;nkblad_K93 -->
<g id="edge52" class="edge">
<title>nkblad_ac_snl26_lnk_6&#45;&gt;nkblad_K93</title>
<path fill="none" stroke="black" d="M4207.11,-1252.5C4284.86,-1252.5 4393.25,-1252.5 4472.6,-1252.5"/>
<polygon fill="black" stroke="black" points="4472.62,-1256 4482.62,-1252.5 4472.62,-1249 4472.62,-1256"/>
<text text-anchor="middle" x="4361.5" y="-1256.3" font-family="Dejavu Sans Mono" font-size="14.00">apinatomy:fasciculatesIn</text>
</g>
<!-- nkblad_ac_snl26_lnk_7 -->
<g id="node58" class="node">
<title>nkblad_ac_snl26_lnk_7</title>
<path fill="none" stroke="black" d="M4491,-334.5C4491,-334.5 4665,-334.5 4665,-334.5 4671,-334.5 4677,-340.5 4677,-346.5 4677,-346.5 4677,-360.5 4677,-360.5 4677,-366.5 4671,-372.5 4665,-372.5 4665,-372.5 4491,-372.5 4491,-372.5 4485,-372.5 4479,-366.5 4479,-360.5 4479,-360.5 4479,-346.5 4479,-346.5 4479,-340.5 4485,-334.5 4491,-334.5"/>
<text text-anchor="middle" x="4578" y="-357.3" font-family="Dejavu Sans Mono" font-size="14.00">MISSING LABEL</text>
<text text-anchor="middle" x="4578" y="-342.3" font-family="Dejavu Sans Mono" font-size="14.00">(kblad:ac&#45;snl26_lnk_7)</text>
</g>
<!-- nkblad_ac_snl26_lnk_6&#45;&gt;nkblad_ac_snl26_lnk_7 -->
<g id="edge44" class="edge">
<title>nkblad_ac_snl26_lnk_6&#45;&gt;nkblad_ac_snl26_lnk_7</title>
<path fill="none" stroke="black" d="M4169.8,-1233.41C4196.57,-1221.95 4225.98,-1204.61 4244,-1179.5 4271.6,-1141.03 4250.78,-1120.5 4262,-1074.5 4299.6,-920.4 4371.84,-511.45 4479,-394.5 4485.18,-387.76 4492.63,-382.09 4500.65,-377.33"/>
<polygon fill="black" stroke="black" points="4502.4,-380.37 4509.53,-372.52 4499.07,-374.21 4502.4,-380.37"/>
<text text-anchor="middle" x="4361.5" y="-1078.3" font-family="Dejavu Sans Mono" font-size="14.00">apinatomy:next</text>
</g>
<!-- nUBERON_0005453 -->
<g id="node17" class="node">
<title>nUBERON_0005453</title>
<path fill="none" stroke="black" d="M7225,-0.5C7225,-0.5 7350,-0.5 7350,-0.5 7356,-0.5 7362,-6.5 7362,-12.5 7362,-12.5 7362,-26.5 7362,-26.5 7362,-32.5 7356,-38.5 7350,-38.5 7350,-38.5 7225,-38.5 7225,-38.5 7219,-38.5 7213,-32.5 7213,-26.5 7213,-26.5 7213,-12.5 7213,-12.5 7213,-6.5 7219,-0.5 7225,-0.5"/>
<text text-anchor="middle" x="7287.5" y="-23.3" font-family="Dejavu Sans Mono" font-size="14.00">MISSING LABEL</text>
<text text-anchor="middle" x="7287.5" y="-8.3" font-family="Dejavu Sans Mono" font-size="14.00">(UBERON:0005453)</text>
</g>
<!-- nkblad_ac_snl26_lnk_3 -->
<g id="node18" class="node">
<title>nkblad_ac_snl26_lnk_3</title>
<path fill="none" stroke="black" d="M2515.5,-1141.5C2515.5,-1141.5 2689.5,-1141.5 2689.5,-1141.5 2695.5,-1141.5 2701.5,-1147.5 2701.5,-1153.5 2701.5,-1153.5 2701.5,-1167.5 2701.5,-1167.5 2701.5,-1173.5 2695.5,-1179.5 2689.5,-1179.5 2689.5,-1179.5 2515.5,-1179.5 2515.5,-1179.5 2509.5,-1179.5 2503.5,-1173.5 2503.5,-1167.5 2503.5,-1167.5 2503.5,-1153.5 2503.5,-1153.5 2503.5,-1147.5 2509.5,-1141.5 2515.5,-1141.5"/>
<text text-anchor="middle" x="2602.5" y="-1164.3" font-family="Dejavu Sans Mono" font-size="14.00">MISSING LABEL</text>
<text text-anchor="middle" x="2602.5" y="-1149.3" font-family="Dejavu Sans Mono" font-size="14.00">(kblad:ac&#45;snl26_lnk_3)</text>
</g>
<!-- nkblad_ac_snl26_lnk_4 -->
<g id="node21" class="node">
<title>nkblad_ac_snl26_lnk_4</title>
<path fill="none" stroke="black" d="M3105.5,-1284.5C3105.5,-1284.5 3279.5,-1284.5 3279.5,-1284.5 3285.5,-1284.5 3291.5,-1290.5 3291.5,-1296.5 3291.5,-1296.5 3291.5,-1310.5 3291.5,-1310.5 3291.5,-1316.5 3285.5,-1322.5 3279.5,-1322.5 3279.5,-1322.5 3105.5,-1322.5 3105.5,-1322.5 3099.5,-1322.5 3093.5,-1316.5 3093.5,-1310.5 3093.5,-1310.5 3093.5,-1296.5 3093.5,-1296.5 3093.5,-1290.5 3099.5,-1284.5 3105.5,-1284.5"/>
<text text-anchor="middle" x="3192.5" y="-1307.3" font-family="Dejavu Sans Mono" font-size="14.00">MISSING LABEL</text>
<text text-anchor="middle" x="3192.5" y="-1292.3" font-family="Dejavu Sans Mono" font-size="14.00">(kblad:ac&#45;snl26_lnk_4)</text>
</g>
<!-- nkblad_ac_snl26_lnk_3&#45;&gt;nkblad_ac_snl26_lnk_4 -->
<g id="edge35" class="edge">
<title>nkblad_ac_snl26_lnk_3&#45;&gt;nkblad_ac_snl26_lnk_4</title>
<path fill="none" stroke="black" d="M2681.89,-1179.56C2791.26,-1206.16 2989.06,-1254.27 3103.4,-1282.08"/>
<polygon fill="black" stroke="black" points="3102.64,-1285.49 3113.19,-1284.45 3104.3,-1278.69 3102.64,-1285.49"/>
<text text-anchor="middle" x="2963.5" y="-1272.3" font-family="Dejavu Sans Mono" font-size="14.00">apinatomy:next</text>
</g>
<!-- nkblad_K64 -->
<g id="node22" class="node">
<title>nkblad_K64</title>
<path fill="none" stroke="black" d="M3101.5,-1187.5C3101.5,-1187.5 3283.5,-1187.5 3283.5,-1187.5 3289.5,-1187.5 3295.5,-1193.5 3295.5,-1199.5 3295.5,-1199.5 3295.5,-1213.5 3295.5,-1213.5 3295.5,-1219.5 3289.5,-1225.5 3283.5,-1225.5 3283.5,-1225.5 3101.5,-1225.5 3101.5,-1225.5 3095.5,-1225.5 3089.5,-1219.5 3089.5,-1213.5 3089.5,-1213.5 3089.5,-1199.5 3089.5,-1199.5 3089.5,-1193.5 3095.5,-1187.5 3101.5,-1187.5"/>
<text text-anchor="middle" x="3192.5" y="-1210.3" font-family="Dejavu Sans Mono" font-size="14.00">L2 ventral root (kblad)</text>
<text text-anchor="middle" x="3192.5" y="-1195.3" font-family="Dejavu Sans Mono" font-size="14.00">(kblad:K64)</text>
</g>
<!-- nkblad_ac_snl26_lnk_3&#45;&gt;nkblad_K64 -->
<g id="edge79" class="edge">
<title>nkblad_ac_snl26_lnk_3&#45;&gt;nkblad_K64</title>
<path fill="none" stroke="black" d="M2701.59,-1168.17C2805.67,-1176.32 2969.89,-1189.16 3079.12,-1197.71"/>
<polygon fill="black" stroke="black" points="3078.94,-1201.2 3089.18,-1198.5 3079.49,-1194.23 3078.94,-1201.2"/>
<text text-anchor="middle" x="2963.5" y="-1198.3" font-family="Dejavu Sans Mono" font-size="14.00">apinatomy:fasciculatesIn</text>
</g>
<!-- nFMA_65911 -->
<g id="node34" class="node">
<title>nFMA_65911</title>
<path fill="none" stroke="black" d="M4874,-1233.5C4874,-1233.5 4974,-1233.5 4974,-1233.5 4980,-1233.5 4986,-1239.5 4986,-1245.5 4986,-1245.5 4986,-1259.5 4986,-1259.5 4986,-1265.5 4980,-1271.5 4974,-1271.5 4974,-1271.5 4874,-1271.5 4874,-1271.5 4868,-1271.5 4862,-1265.5 4862,-1259.5 4862,-1259.5 4862,-1245.5 4862,-1245.5 4862,-1239.5 4868,-1233.5 4874,-1233.5"/>
<text text-anchor="middle" x="4924" y="-1256.3" font-family="Dejavu Sans Mono" font-size="14.00">MISSING LABEL</text>
<text text-anchor="middle" x="4924" y="-1241.3" font-family="Dejavu Sans Mono" font-size="14.00">(FMA:65911)</text>
</g>
<!-- nkblad_K93&#45;&gt;nFMA_65911 -->
<g id="edge5" class="edge">
<title>nkblad_K93&#45;&gt;nFMA_65911</title>
<path fill="none" stroke="black" d="M4673.45,-1252.5C4729.77,-1252.5 4800.11,-1252.5 4851.74,-1252.5"/>
<polygon fill="black" stroke="black" points="4851.81,-1256 4861.81,-1252.5 4851.81,-1249 4851.81,-1256"/>
<text text-anchor="middle" x="4769.5" y="-1256.3" font-family="Dejavu Sans Mono" font-size="14.00">apinatomy:external</text>
</g>
<!-- nkblad_dc_snl26_lnk_1 -->
<g id="node20" class="node">
<title>nkblad_dc_snl26_lnk_1</title>
<path fill="none" stroke="black" d="M972.5,-960.5C972.5,-960.5 1146.5,-960.5 1146.5,-960.5 1152.5,-960.5 1158.5,-966.5 1158.5,-972.5 1158.5,-972.5 1158.5,-986.5 1158.5,-986.5 1158.5,-992.5 1152.5,-998.5 1146.5,-998.5 1146.5,-998.5 972.5,-998.5 972.5,-998.5 966.5,-998.5 960.5,-992.5 960.5,-986.5 960.5,-986.5 960.5,-972.5 960.5,-972.5 960.5,-966.5 966.5,-960.5 972.5,-960.5"/>
<text text-anchor="middle" x="1059.5" y="-983.3" font-family="Dejavu Sans Mono" font-size="14.00">MISSING LABEL</text>
<text text-anchor="middle" x="1059.5" y="-968.3" font-family="Dejavu Sans Mono" font-size="14.00">(kblad:dc&#45;snl26_lnk_1)</text>
</g>
<!-- nkblad_dc_snl26_lnk_1&#45;&gt;nkblad_ref_mat_K_83_K_129_K23_7 -->
<g id="edge46" class="edge">
<title>nkblad_dc_snl26_lnk_1&#45;&gt;nkblad_ref_mat_K_83_K_129_K23_7</title>
<path fill="none" stroke="black" d="M1158.68,-987.63C1260.03,-996.03 1421.99,-1009.44 1557.4,-1020.66"/>
<polygon fill="black" stroke="black" points="1557.26,-1024.16 1567.51,-1021.49 1557.84,-1017.18 1557.26,-1024.16"/>
<text text-anchor="middle" x="1354.5" y="-1015.3" font-family="Dejavu Sans Mono" font-size="14.00">apinatomy:fasciculatesIn</text>
</g>
<!-- nkblad_ac_snl26_lnk_4&#45;&gt;nkblad_ac_snl26_lnk_5 -->
<g id="edge38" class="edge">
<title>nkblad_ac_snl26_lnk_4&#45;&gt;nkblad_ac_snl26_lnk_5</title>
<path fill="none" stroke="black" d="M3291.65,-1305.71C3361.83,-1307.3 3456.28,-1309.43 3528.67,-1311.06"/>
<polygon fill="black" stroke="black" points="3528.65,-1314.56 3538.73,-1311.28 3528.81,-1307.56 3528.65,-1314.56"/>
<text text-anchor="middle" x="3421.5" y="-1314.3" font-family="Dejavu Sans Mono" font-size="14.00">apinatomy:next</text>
</g>
<!-- nkblad_K89 -->
<g id="node41" class="node">
<title>nkblad_K89</title>
<path fill="none" stroke="black" d="M3551,-1352.5C3551,-1352.5 3725,-1352.5 3725,-1352.5 3731,-1352.5 3737,-1358.5 3737,-1364.5 3737,-1364.5 3737,-1378.5 3737,-1378.5 3737,-1384.5 3731,-1390.5 3725,-1390.5 3725,-1390.5 3551,-1390.5 3551,-1390.5 3545,-1390.5 3539,-1384.5 3539,-1378.5 3539,-1378.5 3539,-1364.5 3539,-1364.5 3539,-1358.5 3545,-1352.5 3551,-1352.5"/>
<text text-anchor="middle" x="3638" y="-1375.3" font-family="Dejavu Sans Mono" font-size="14.00">L2 white ramus (kblad)</text>
<text text-anchor="middle" x="3638" y="-1360.3" font-family="Dejavu Sans Mono" font-size="14.00">(kblad:K89)</text>
</g>
<!-- nkblad_ac_snl26_lnk_4&#45;&gt;nkblad_K89 -->
<g id="edge87" class="edge">
<title>nkblad_ac_snl26_lnk_4&#45;&gt;nkblad_K89</title>
<path fill="none" stroke="black" d="M3283.57,-1322.52C3296.45,-1325.01 3309.54,-1327.41 3322,-1329.5 3390.55,-1340.99 3467.92,-1351.35 3528.83,-1358.9"/>
<polygon fill="black" stroke="black" points="3528.49,-1362.38 3538.84,-1360.13 3529.35,-1355.43 3528.49,-1362.38"/>
<text text-anchor="middle" x="3421.5" y="-1360.3" font-family="Dejavu Sans Mono" font-size="14.00">apinatomy:fasciculatesIn</text>
</g>
<!-- nEMAPA_25271 -->
<g id="node62" class="node">
<title>nEMAPA_25271</title>
<path fill="none" stroke="black" d="M3588,-1188.5C3588,-1188.5 3688,-1188.5 3688,-1188.5 3694,-1188.5 3700,-1194.5 3700,-1200.5 3700,-1200.5 3700,-1214.5 3700,-1214.5 3700,-1220.5 3694,-1226.5 3688,-1226.5 3688,-1226.5 3588,-1226.5 3588,-1226.5 3582,-1226.5 3576,-1220.5 3576,-1214.5 3576,-1214.5 3576,-1200.5 3576,-1200.5 3576,-1194.5 3582,-1188.5 3588,-1188.5"/>
<text text-anchor="middle" x="3638" y="-1211.3" font-family="Dejavu Sans Mono" font-size="14.00">MISSING LABEL</text>
<text text-anchor="middle" x="3638" y="-1196.3" font-family="Dejavu Sans Mono" font-size="14.00">(EMAPA:25271)</text>
</g>
<!-- nkblad_K64&#45;&gt;nEMAPA_25271 -->
<g id="edge21" class="edge">
<title>nkblad_K64&#45;&gt;nEMAPA_25271</title>
<path fill="none" stroke="black" d="M3295.53,-1206.73C3378.22,-1206.92 3492.63,-1207.17 3565.73,-1207.34"/>
<polygon fill="black" stroke="black" points="3565.76,-1210.84 3575.77,-1207.36 3565.77,-1203.84 3565.76,-1210.84"/>
<text text-anchor="middle" x="3421.5" y="-1210.3" font-family="Dejavu Sans Mono" font-size="14.00">apinatomy:external</text>
</g>
<!-- nkblad_ac_snl16_lnk_3 -->
<g id="node23" class="node">
<title>nkblad_ac_snl16_lnk_3</title>
<path fill="none" stroke="black" d="M2515.5,-861.5C2515.5,-861.5 2689.5,-861.5 2689.5,-861.5 2695.5,-861.5 2701.5,-867.5 2701.5,-873.5 2701.5,-873.5 2701.5,-887.5 2701.5,-887.5 2701.5,-893.5 2695.5,-899.5 2689.5,-899.5 2689.5,-899.5 2515.5,-899.5 2515.5,-899.5 2509.5,-899.5 2503.5,-893.5 2503.5,-887.5 2503.5,-887.5 2503.5,-873.5 2503.5,-873.5 2503.5,-867.5 2509.5,-861.5 2515.5,-861.5"/>
<text text-anchor="middle" x="2602.5" y="-884.3" font-family="Dejavu Sans Mono" font-size="14.00">MISSING LABEL</text>
<text text-anchor="middle" x="2602.5" y="-869.3" font-family="Dejavu Sans Mono" font-size="14.00">(kblad:ac&#45;snl16_lnk_3)</text>
</g>
<!-- nkblad_ac_snl16_lnk_3&#45;&gt;nkblad_ac_snl16_lnk_4 -->
<g id="edge68" class="edge">
<title>nkblad_ac_snl16_lnk_3&#45;&gt;nkblad_ac_snl16_lnk_4</title>
<path fill="none" stroke="black" d="M2701.5,-887.69C2751.23,-896.37 2808.82,-914.99 2846,-954.5 2869.49,-979.46 2841.2,-1003.9 2864,-1029.5 2919.87,-1092.23 3011.36,-1122.22 3083.46,-1136.52"/>
<polygon fill="black" stroke="black" points="3083.02,-1140 3093.49,-1138.44 3084.33,-1133.12 3083.02,-1140"/>
<text text-anchor="middle" x="2963.5" y="-1134.3" font-family="Dejavu Sans Mono" font-size="14.00">apinatomy:next</text>
</g>
<!-- nkblad_K63 -->
<g id="node45" class="node">
<title>nkblad_K63</title>
<path fill="none" stroke="black" d="M3101.5,-861.5C3101.5,-861.5 3283.5,-861.5 3283.5,-861.5 3289.5,-861.5 3295.5,-867.5 3295.5,-873.5 3295.5,-873.5 3295.5,-887.5 3295.5,-887.5 3295.5,-893.5 3289.5,-899.5 3283.5,-899.5 3283.5,-899.5 3101.5,-899.5 3101.5,-899.5 3095.5,-899.5 3089.5,-893.5 3089.5,-887.5 3089.5,-887.5 3089.5,-873.5 3089.5,-873.5 3089.5,-867.5 3095.5,-861.5 3101.5,-861.5"/>
<text text-anchor="middle" x="3192.5" y="-884.3" font-family="Dejavu Sans Mono" font-size="14.00">L1 ventral root (kblad)</text>
<text text-anchor="middle" x="3192.5" y="-869.3" font-family="Dejavu Sans Mono" font-size="14.00">(kblad:K63)</text>
</g>
<!-- nkblad_ac_snl16_lnk_3&#45;&gt;nkblad_K63 -->
<g id="edge16" class="edge">
<title>nkblad_ac_snl16_lnk_3&#45;&gt;nkblad_K63</title>
<path fill="none" stroke="black" d="M2701.59,-880.5C2805.67,-880.5 2969.89,-880.5 3079.12,-880.5"/>
<polygon fill="black" stroke="black" points="3079.18,-884 3089.18,-880.5 3079.18,-877 3079.18,-884"/>
<text text-anchor="middle" x="2963.5" y="-884.3" font-family="Dejavu Sans Mono" font-size="14.00">apinatomy:fasciculatesIn</text>
</g>
<!-- nkblad_ac_l1l26a -->
<g id="node24" class="node">
<title>nkblad_ac_l1l26a</title>
<path fill="none" stroke="black" d="M5167,-215.5C5167,-215.5 5498,-215.5 5498,-215.5 5504,-215.5 5510,-221.5 5510,-227.5 5510,-227.5 5510,-241.5 5510,-241.5 5510,-247.5 5504,-253.5 5498,-253.5 5498,-253.5 5167,-253.5 5167,-253.5 5161,-253.5 5155,-247.5 5155,-241.5 5155,-241.5 5155,-227.5 5155,-227.5 5155,-221.5 5161,-215.5 5167,-215.5"/>
<text text-anchor="middle" x="5332.5" y="-238.3" font-family="Dejavu Sans Mono" font-size="14.00">L1&#45;6 L2&#45;6 SPR axon chain_Neuron 6 (kblad)</text>
<text text-anchor="middle" x="5332.5" y="-223.3" font-family="Dejavu Sans Mono" font-size="14.00">(kblad:ac&#45;l1l26a)</text>
</g>
<!-- nkblad_ac_l1l26a_lnk_3 -->
<g id="node30" class="node">
<title>nkblad_ac_l1l26a_lnk_3</title>
<path fill="none" stroke="black" d="M6693,-207.5C6693,-207.5 6875,-207.5 6875,-207.5 6881,-207.5 6887,-213.5 6887,-219.5 6887,-219.5 6887,-233.5 6887,-233.5 6887,-239.5 6881,-245.5 6875,-245.5 6875,-245.5 6693,-245.5 6693,-245.5 6687,-245.5 6681,-239.5 6681,-233.5 6681,-233.5 6681,-219.5 6681,-219.5 6681,-213.5 6687,-207.5 6693,-207.5"/>
<text text-anchor="middle" x="6784" y="-230.3" font-family="Dejavu Sans Mono" font-size="14.00">MISSING LABEL</text>
<text text-anchor="middle" x="6784" y="-215.3" font-family="Dejavu Sans Mono" font-size="14.00">(kblad:ac&#45;l1l26a_lnk_3)</text>
</g>
<!-- nkblad_ac_l1l26a&#45;&gt;nkblad_ac_l1l26a_lnk_3 -->
<g id="edge93" class="edge">
<title>nkblad_ac_l1l26a&#45;&gt;nkblad_ac_l1l26a_lnk_3</title>
<path fill="none" stroke="black" d="M5510.15,-233.53C5812.24,-231.86 6419.75,-228.5 6670.65,-227.12"/>
<polygon fill="black" stroke="black" points="6670.9,-230.62 6680.88,-227.06 6670.86,-223.62 6670.9,-230.62"/>
<text text-anchor="middle" x="6002.5" y="-235.3" font-family="Dejavu Sans Mono" font-size="14.00">apinatomy:levels</text>
</g>
<!-- nkblad_ac_l1l26a_lnk_2 -->
<g id="node51" class="node">
<title>nkblad_ac_l1l26a_lnk_2</title>
<path fill="none" stroke="black" d="M6165,-114.5C6165,-114.5 6347,-114.5 6347,-114.5 6353,-114.5 6359,-120.5 6359,-126.5 6359,-126.5 6359,-140.5 6359,-140.5 6359,-146.5 6353,-152.5 6347,-152.5 6347,-152.5 6165,-152.5 6165,-152.5 6159,-152.5 6153,-146.5 6153,-140.5 6153,-140.5 6153,-126.5 6153,-126.5 6153,-120.5 6159,-114.5 6165,-114.5"/>
<text text-anchor="middle" x="6256" y="-137.3" font-family="Dejavu Sans Mono" font-size="14.00">MISSING LABEL</text>
<text text-anchor="middle" x="6256" y="-122.3" font-family="Dejavu Sans Mono" font-size="14.00">(kblad:ac&#45;l1l26a_lnk_2)</text>
</g>
<!-- nkblad_ac_l1l26a&#45;&gt;nkblad_ac_l1l26a_lnk_2 -->
<g id="edge11" class="edge">
<title>nkblad_ac_l1l26a&#45;&gt;nkblad_ac_l1l26a_lnk_2</title>
<path fill="none" stroke="black" d="M5388.29,-215.44C5455.72,-193.03 5574.17,-157.05 5679,-142.5 5839.03,-120.29 6026.45,-122.52 6142.97,-127.2"/>
<polygon fill="black" stroke="black" points="6142.84,-130.7 6152.98,-127.61 6143.13,-123.7 6142.84,-130.7"/>
<text text-anchor="middle" x="5782" y="-146.3" font-family="Dejavu Sans Mono" font-size="14.00">apinatomy:levels</text>
</g>
<!-- nkblad_ac_l1l26a_lnk_1 -->
<g id="node61" class="node">
<title>nkblad_ac_l1l26a_lnk_1</title>
<path fill="none" stroke="black" d="M5691,-167.5C5691,-167.5 5873,-167.5 5873,-167.5 5879,-167.5 5885,-173.5 5885,-179.5 5885,-179.5 5885,-193.5 5885,-193.5 5885,-199.5 5879,-205.5 5873,-205.5 5873,-205.5 5691,-205.5 5691,-205.5 5685,-205.5 5679,-199.5 5679,-193.5 5679,-193.5 5679,-179.5 5679,-179.5 5679,-173.5 5685,-167.5 5691,-167.5"/>
<text text-anchor="middle" x="5782" y="-190.3" font-family="Dejavu Sans Mono" font-size="14.00">MISSING LABEL</text>
<text text-anchor="middle" x="5782" y="-175.3" font-family="Dejavu Sans Mono" font-size="14.00">(kblad:ac&#45;l1l26a_lnk_1)</text>
</g>
<!-- nkblad_ac_l1l26a&#45;&gt;nkblad_ac_l1l26a_lnk_1 -->
<g id="edge97" class="edge">
<title>nkblad_ac_l1l26a&#45;&gt;nkblad_ac_l1l26a_lnk_1</title>
<path fill="none" stroke="black" d="M5451.6,-215.48C5476.77,-211.82 5503.23,-208.27 5528,-205.5 5573.99,-200.35 5624.85,-196.23 5668.83,-193.16"/>
<polygon fill="black" stroke="black" points="5669.24,-196.64 5678.97,-192.46 5668.76,-189.65 5669.24,-196.64"/>
<text text-anchor="middle" x="5594.5" y="-209.3" font-family="Dejavu Sans Mono" font-size="14.00">apinatomy:levels</text>
</g>
<!-- nkblad_ac_l1l26a_lnk_4 -->
<g id="node65" class="node">
<title>nkblad_ac_l1l26a_lnk_4</title>
<path fill="none" stroke="black" d="M7196.5,-207.5C7196.5,-207.5 7378.5,-207.5 7378.5,-207.5 7384.5,-207.5 7390.5,-213.5 7390.5,-219.5 7390.5,-219.5 7390.5,-233.5 7390.5,-233.5 7390.5,-239.5 7384.5,-245.5 7378.5,-245.5 7378.5,-245.5 7196.5,-245.5 7196.5,-245.5 7190.5,-245.5 7184.5,-239.5 7184.5,-233.5 7184.5,-233.5 7184.5,-219.5 7184.5,-219.5 7184.5,-213.5 7190.5,-207.5 7196.5,-207.5"/>
<text text-anchor="middle" x="7287.5" y="-230.3" font-family="Dejavu Sans Mono" font-size="14.00">MISSING LABEL</text>
<text text-anchor="middle" x="7287.5" y="-215.3" font-family="Dejavu Sans Mono" font-size="14.00">(kblad:ac&#45;l1l26a_lnk_4)</text>
</g>
<!-- nkblad_ac_l1l26a&#45;&gt;nkblad_ac_l1l26a_lnk_4 -->
<g id="edge95" class="edge">
<title>nkblad_ac_l1l26a&#45;&gt;nkblad_ac_l1l26a_lnk_4</title>
<path fill="none" stroke="black" d="M5473.8,-253.5C5561.84,-263.82 5677.84,-274.5 5781,-274.5 5781,-274.5 5781,-274.5 6785,-274.5 6919.37,-274.5 7073.08,-257.21 7174.52,-243.39"/>
<polygon fill="black" stroke="black" points="7175.05,-246.85 7184.48,-242.02 7174.1,-239.91 7175.05,-246.85"/>
<text text-anchor="middle" x="6256" y="-278.3" font-family="Dejavu Sans Mono" font-size="14.00">apinatomy:levels</text>
</g>
<!-- nkblad_K104 -->
<g id="node25" class="node">
<title>nkblad_K104</title>
<path fill="none" stroke="black" d="M7646,-207.5C7646,-207.5 7820,-207.5 7820,-207.5 7826,-207.5 7832,-213.5 7832,-219.5 7832,-219.5 7832,-233.5 7832,-233.5 7832,-239.5 7826,-245.5 7820,-245.5 7820,-245.5 7646,-245.5 7646,-245.5 7640,-245.5 7634,-239.5 7634,-233.5 7634,-233.5 7634,-219.5 7634,-219.5 7634,-213.5 7640,-207.5 7646,-207.5"/>
<text text-anchor="middle" x="7733" y="-230.3" font-family="Dejavu Sans Mono" font-size="14.00">Pelvic ganglia (kblad)</text>
<text text-anchor="middle" x="7733" y="-215.3" font-family="Dejavu Sans Mono" font-size="14.00">(kblad:K104)</text>
</g>
<!-- nkblad_K104&#45;&gt;nUBERON_0016508 -->
<g id="edge92" class="edge">
<title>nkblad_K104&#45;&gt;nUBERON_0016508</title>
<path fill="none" stroke="black" d="M7832.36,-226.5C7887.04,-226.5 7954.37,-226.5 8006.55,-226.5"/>
<polygon fill="black" stroke="black" points="8006.78,-230 8016.78,-226.5 8006.78,-223 8006.78,-230"/>
<text text-anchor="middle" x="7924.5" y="-230.3" font-family="Dejavu Sans Mono" font-size="14.00">apinatomy:external</text>
</g>
<!-- nkblad_ref_mat_K_83_K_129_K22_7&#45;&gt;nkblad_K22 -->
<g id="edge61" class="edge">
<title>nkblad_ref_mat_K_83_K_129_K22_7&#45;&gt;nkblad_K22</title>
<path fill="none" stroke="black" d="M2124.16,-733.74C2427.02,-740.48 2862.24,-750.17 3070.93,-754.82"/>
<polygon fill="black" stroke="black" points="3070.92,-758.32 3081,-755.04 3071.08,-751.32 3070.92,-758.32"/>
<text text-anchor="middle" x="2602.5" y="-753.3" font-family="Dejavu Sans Mono" font-size="14.00">apinatomy:layerIn</text>
</g>
<!-- nUBERON_0005303 -->
<g id="node27" class="node">
<title>nUBERON_0005303</title>
<path fill="none" stroke="black" d="M7670.5,-288.5C7670.5,-288.5 7795.5,-288.5 7795.5,-288.5 7801.5,-288.5 7807.5,-294.5 7807.5,-300.5 7807.5,-300.5 7807.5,-314.5 7807.5,-314.5 7807.5,-320.5 7801.5,-326.5 7795.5,-326.5 7795.5,-326.5 7670.5,-326.5 7670.5,-326.5 7664.5,-326.5 7658.5,-320.5 7658.5,-314.5 7658.5,-314.5 7658.5,-300.5 7658.5,-300.5 7658.5,-294.5 7664.5,-288.5 7670.5,-288.5"/>
<text text-anchor="middle" x="7733" y="-311.3" font-family="Dejavu Sans Mono" font-size="14.00">MISSING LABEL</text>
<text text-anchor="middle" x="7733" y="-296.3" font-family="Dejavu Sans Mono" font-size="14.00">(UBERON:0005303)</text>
</g>
<!-- nkblad_K81&#45;&gt;nFMA_6541 -->
<g id="edge48" class="edge">
<title>nkblad_K81&#45;&gt;nFMA_6541</title>
<path fill="none" stroke="black" d="M4244.05,-1309.5C4329.31,-1309.5 4436.06,-1309.5 4505.35,-1309.5"/>
<polygon fill="black" stroke="black" points="4505.72,-1313 4515.72,-1309.5 4505.72,-1306 4505.72,-1313"/>
<text text-anchor="middle" x="4361.5" y="-1313.3" font-family="Dejavu Sans Mono" font-size="14.00">apinatomy:external</text>
</g>
<!-- nkblad_snl16 -->
<g id="node29" class="node">
<title>nkblad_snl16</title>
<path fill="none" stroke="black" d="M894,-705.5C894,-705.5 1225,-705.5 1225,-705.5 1231,-705.5 1237,-711.5 1237,-717.5 1237,-717.5 1237,-731.5 1237,-731.5 1237,-737.5 1231,-743.5 1225,-743.5 1225,-743.5 894,-743.5 894,-743.5 888,-743.5 882,-737.5 882,-731.5 882,-731.5 882,-717.5 882,-717.5 882,-711.5 888,-705.5 894,-705.5"/>
<text text-anchor="middle" x="1059.5" y="-728.3" font-family="Dejavu Sans Mono" font-size="14.00">Soma of SPR neuron in L1_Neuron 6 (kblad)</text>
<text text-anchor="middle" x="1059.5" y="-713.3" font-family="Dejavu Sans Mono" font-size="14.00">(kblad:snl16)</text>
</g>
<!-- nkblad_snl16&#45;&gt;nkblad_ref_mat_K_83_K_129_K22_7 -->
<g id="edge94" class="edge">
<title>nkblad_snl16&#45;&gt;nkblad_ref_mat_K_83_K_129_K22_7</title>
<path fill="none" stroke="black" d="M1237.38,-724.98C1304.79,-725.16 1384.05,-725.38 1461.37,-725.59"/>
<polygon fill="black" stroke="black" points="1461.77,-729.09 1471.78,-725.62 1461.78,-722.09 1461.77,-729.09"/>
<text text-anchor="middle" x="1354.5" y="-730.3" font-family="Dejavu Sans Mono" font-size="14.00">apinatomy:internalIn</text>
</g>
<!-- nkblad_n_hypo -->
<g id="node42" class="node">
<title>nkblad_n_hypo</title>
<path fill="none" stroke="black" d="M7188,-288.5C7188,-288.5 7387,-288.5 7387,-288.5 7393,-288.5 7399,-294.5 7399,-300.5 7399,-300.5 7399,-314.5 7399,-314.5 7399,-320.5 7393,-326.5 7387,-326.5 7387,-326.5 7188,-326.5 7188,-326.5 7182,-326.5 7176,-320.5 7176,-314.5 7176,-314.5 7176,-300.5 7176,-300.5 7176,-294.5 7182,-288.5 7188,-288.5"/>
<text text-anchor="middle" x="7287.5" y="-311.3" font-family="Dejavu Sans Mono" font-size="14.00">Hypogastric nerve (kblad)</text>
<text text-anchor="middle" x="7287.5" y="-296.3" font-family="Dejavu Sans Mono" font-size="14.00">(kblad:n&#45;hypo)</text>
</g>
<!-- nkblad_ac_l1l26a_lnk_3&#45;&gt;nkblad_n_hypo -->
<g id="edge15" class="edge">
<title>nkblad_ac_l1l26a_lnk_3&#45;&gt;nkblad_n_hypo</title>
<path fill="none" stroke="black" d="M6887.09,-242.99C6967.81,-256.03 7080.69,-274.26 7165.86,-288.02"/>
<polygon fill="black" stroke="black" points="7165.42,-291.49 7175.85,-289.63 7166.53,-284.58 7165.42,-291.49"/>
<text text-anchor="middle" x="7058.5" y="-290.3" font-family="Dejavu Sans Mono" font-size="14.00">apinatomy:fasciculatesIn</text>
</g>
<!-- nkblad_ac_l1l26a_lnk_3&#45;&gt;nkblad_ac_l1l26a_lnk_4 -->
<g id="edge20" class="edge">
<title>nkblad_ac_l1l26a_lnk_3&#45;&gt;nkblad_ac_l1l26a_lnk_4</title>
<path fill="none" stroke="black" d="M6887.09,-226.5C6970.42,-226.5 7088.04,-226.5 7174.06,-226.5"/>
<polygon fill="black" stroke="black" points="7174.12,-230 7184.12,-226.5 7174.12,-223 7174.12,-230"/>
<text text-anchor="middle" x="7058.5" y="-230.3" font-family="Dejavu Sans Mono" font-size="14.00">apinatomy:next</text>
</g>
<!-- nPMID_1619047 -->
<g id="node31" class="node">
<title>nPMID_1619047</title>
<path fill="none" stroke="black" d="M1005.5,-534.5C1005.5,-534.5 1113.5,-534.5 1113.5,-534.5 1119.5,-534.5 1125.5,-540.5 1125.5,-546.5 1125.5,-546.5 1125.5,-560.5 1125.5,-560.5 1125.5,-566.5 1119.5,-572.5 1113.5,-572.5 1113.5,-572.5 1005.5,-572.5 1005.5,-572.5 999.5,-572.5 993.5,-566.5 993.5,-560.5 993.5,-560.5 993.5,-546.5 993.5,-546.5 993.5,-540.5 999.5,-534.5 1005.5,-534.5"/>
<text text-anchor="middle" x="1059.5" y="-557.3" font-family="Dejavu Sans Mono" font-size="14.00">MISSING LABEL</text>
<text text-anchor="middle" x="1059.5" y="-542.3" font-family="Dejavu Sans Mono" font-size="14.00">(PMID:1619047)</text>
</g>
<!-- nPMID_1619047&#45;&gt;nelements_External -->
<g id="edge40" class="edge">
<title>nPMID_1619047&#45;&gt;nelements_External</title>
<path fill="none" stroke="black" d="M1125.64,-546.07C1203.72,-537.08 1338.5,-521.31 1454,-506.5 1537.67,-495.77 1632.69,-482.68 1701.47,-473.04"/>
<polygon fill="black" stroke="black" points="1702,-476.5 1711.42,-471.64 1701.03,-469.57 1702,-476.5"/>
<text text-anchor="middle" x="1354.5" y="-534.3" font-family="Dejavu Sans Mono" font-size="14.00">type</text>
</g>
<!-- nkblad_K80 -->
<g id="node32" class="node">
<title>nkblad_K80</title>
<path fill="none" stroke="black" d="M3984,-1074.5C3984,-1074.5 4232,-1074.5 4232,-1074.5 4238,-1074.5 4244,-1080.5 4244,-1086.5 4244,-1086.5 4244,-1100.5 4244,-1100.5 4244,-1106.5 4238,-1112.5 4232,-1112.5 4232,-1112.5 3984,-1112.5 3984,-1112.5 3978,-1112.5 3972,-1106.5 3972,-1100.5 3972,-1100.5 3972,-1086.5 3972,-1086.5 3972,-1080.5 3978,-1074.5 3984,-1074.5"/>
<text text-anchor="middle" x="4108" y="-1097.3" font-family="Dejavu Sans Mono" font-size="14.00">L1 sympathetic ganglion (kblad)</text>
<text text-anchor="middle" x="4108" y="-1082.3" font-family="Dejavu Sans Mono" font-size="14.00">(kblad:K80)</text>
</g>
<!-- nkblad_K80&#45;&gt;nFMA_6540 -->
<g id="edge62" class="edge">
<title>nkblad_K80&#45;&gt;nFMA_6540</title>
<path fill="none" stroke="black" d="M4244.05,-1093.5C4329.31,-1093.5 4436.06,-1093.5 4505.35,-1093.5"/>
<polygon fill="black" stroke="black" points="4505.72,-1097 4515.72,-1093.5 4505.72,-1090 4505.72,-1097"/>
<text text-anchor="middle" x="4361.5" y="-1097.3" font-family="Dejavu Sans Mono" font-size="14.00">apinatomy:external</text>
</g>
<!-- nkblad_ac_snl16_lnk_5&#45;&gt;nkblad_K80 -->
<g id="edge36" class="edge">
<title>nkblad_ac_snl16_lnk_5&#45;&gt;nkblad_K80</title>
<path fill="none" stroke="black" d="M3737.11,-1093.5C3802.13,-1093.5 3888.57,-1093.5 3961.54,-1093.5"/>
<polygon fill="black" stroke="black" points="3961.75,-1097 3971.75,-1093.5 3961.75,-1090 3961.75,-1097"/>
<text text-anchor="middle" x="3854.5" y="-1097.3" font-family="Dejavu Sans Mono" font-size="14.00">apinatomy:fasciculatesIn</text>
</g>
<!-- nkblad_ac_snl16_lnk_6 -->
<g id="node35" class="node">
<title>nkblad_ac_snl16_lnk_6</title>
<path fill="none" stroke="black" d="M4021,-304.5C4021,-304.5 4195,-304.5 4195,-304.5 4201,-304.5 4207,-310.5 4207,-316.5 4207,-316.5 4207,-330.5 4207,-330.5 4207,-336.5 4201,-342.5 4195,-342.5 4195,-342.5 4021,-342.5 4021,-342.5 4015,-342.5 4009,-336.5 4009,-330.5 4009,-330.5 4009,-316.5 4009,-316.5 4009,-310.5 4015,-304.5 4021,-304.5"/>
<text text-anchor="middle" x="4108" y="-327.3" font-family="Dejavu Sans Mono" font-size="14.00">MISSING LABEL</text>
<text text-anchor="middle" x="4108" y="-312.3" font-family="Dejavu Sans Mono" font-size="14.00">(kblad:ac&#45;snl16_lnk_6)</text>
</g>
<!-- nkblad_ac_snl16_lnk_5&#45;&gt;nkblad_ac_snl16_lnk_6 -->
<g id="edge43" class="edge">
<title>nkblad_ac_snl16_lnk_5&#45;&gt;nkblad_ac_snl16_lnk_6</title>
<path fill="none" stroke="black" d="M3699.97,-1074.47C3713.25,-1068.33 3726.46,-1060.45 3737,-1050.5 3961.71,-838.31 4072.18,-459.57 4099.89,-352.44"/>
<polygon fill="black" stroke="black" points="4103.3,-353.22 4102.38,-342.66 4096.52,-351.49 4103.3,-353.22"/>
<text text-anchor="middle" x="3854.5" y="-1023.3" font-family="Dejavu Sans Mono" font-size="14.00">apinatomy:next</text>
</g>
<!-- nkblad_ac_snl16_lnk_6&#45;&gt;nkblad_K92 -->
<g id="edge22" class="edge">
<title>nkblad_ac_snl16_lnk_6&#45;&gt;nkblad_K92</title>
<path fill="none" stroke="black" d="M4198.13,-342.54C4278.02,-359.62 4395.06,-384.62 4477.88,-402.32"/>
<polygon fill="black" stroke="black" points="4477.29,-405.77 4487.81,-404.44 4478.76,-398.93 4477.29,-405.77"/>
<text text-anchor="middle" x="4361.5" y="-401.3" font-family="Dejavu Sans Mono" font-size="14.00">apinatomy:fasciculatesIn</text>
</g>
<!-- nkblad_ac_snl16_lnk_7 -->
<g id="node59" class="node">
<title>nkblad_ac_snl16_lnk_7</title>
<path fill="none" stroke="black" d="M4491,-251.5C4491,-251.5 4665,-251.5 4665,-251.5 4671,-251.5 4677,-257.5 4677,-263.5 4677,-263.5 4677,-277.5 4677,-277.5 4677,-283.5 4671,-289.5 4665,-289.5 4665,-289.5 4491,-289.5 4491,-289.5 4485,-289.5 4479,-283.5 4479,-277.5 4479,-277.5 4479,-263.5 4479,-263.5 4479,-257.5 4485,-251.5 4491,-251.5"/>
<text text-anchor="middle" x="4578" y="-274.3" font-family="Dejavu Sans Mono" font-size="14.00">MISSING LABEL</text>
<text text-anchor="middle" x="4578" y="-259.3" font-family="Dejavu Sans Mono" font-size="14.00">(kblad:ac&#45;snl16_lnk_7)</text>
</g>
<!-- nkblad_ac_snl16_lnk_6&#45;&gt;nkblad_ac_snl16_lnk_7 -->
<g id="edge69" class="edge">
<title>nkblad_ac_snl16_lnk_6&#45;&gt;nkblad_ac_snl16_lnk_7</title>
<path fill="none" stroke="black" d="M4207.11,-312.39C4283.58,-303.73 4389.68,-291.71 4468.64,-282.77"/>
<polygon fill="black" stroke="black" points="4469.08,-286.24 4478.62,-281.64 4468.29,-279.29 4469.08,-286.24"/>
<text text-anchor="middle" x="4361.5" y="-309.3" font-family="Dejavu Sans Mono" font-size="14.00">apinatomy:next</text>
</g>
<!-- nilxtr_neuron_type_keast_6 -->
<g id="node36" class="node">
<title>nilxtr_neuron_type_keast_6</title>
<path fill="none" stroke="black" d="M12,-738.5C12,-738.5 310,-738.5 310,-738.5 316,-738.5 322,-744.5 322,-750.5 322,-750.5 322,-764.5 322,-764.5 322,-770.5 316,-776.5 310,-776.5 310,-776.5 12,-776.5 12,-776.5 6,-776.5 0,-770.5 0,-764.5 0,-764.5 0,-750.5 0,-750.5 0,-744.5 6,-738.5 12,-738.5"/>
<text text-anchor="middle" x="161" y="-761.3" font-family="Dejavu Sans Mono" font-size="14.00">ilxtr:neuron&#45;phenotype&#45;keast&#45;6 neuron</text>
<text text-anchor="middle" x="161" y="-746.3" font-family="Dejavu Sans Mono" font-size="14.00">(ilxtr:neuron&#45;type&#45;keast&#45;6)</text>
</g>
<!-- nkblad_neuron_6 -->
<g id="node46" class="node">
<title>nkblad_neuron_6</title>
<path fill="none" stroke="black" d="M527,-738.5C527,-738.5 652,-738.5 652,-738.5 658,-738.5 664,-744.5 664,-750.5 664,-750.5 664,-764.5 664,-764.5 664,-770.5 658,-776.5 652,-776.5 652,-776.5 527,-776.5 527,-776.5 521,-776.5 515,-770.5 515,-764.5 515,-764.5 515,-750.5 515,-750.5 515,-744.5 521,-738.5 527,-738.5"/>
<text text-anchor="middle" x="589.5" y="-761.3" font-family="Dejavu Sans Mono" font-size="14.00">Neuron 6</text>
<text text-anchor="middle" x="589.5" y="-746.3" font-family="Dejavu Sans Mono" font-size="14.00">(kblad:neuron&#45;6)</text>
</g>
<!-- nilxtr_neuron_type_keast_6&#45;&gt;nkblad_neuron_6 -->
<g id="edge96" class="edge">
<title>nilxtr_neuron_type_keast_6&#45;&gt;nkblad_neuron_6</title>
<path fill="none" stroke="black" d="M322.03,-757.5C384.18,-757.5 452.79,-757.5 504.82,-757.5"/>
<polygon fill="black" stroke="black" points="505,-761 515,-757.5 505,-754 505,-761"/>
<text text-anchor="middle" x="418.5" y="-761.3" font-family="Dejavu Sans Mono" font-size="14.00">apinatomy:annotates</text>
</g>
<!-- nkblad_ns23 -->
<g id="node37" class="node">
<title>nkblad_ns23</title>
<path fill="none" stroke="black" d="M4874,-250.5C4874,-250.5 4974,-250.5 4974,-250.5 4980,-250.5 4986,-256.5 4986,-262.5 4986,-262.5 4986,-276.5 4986,-276.5 4986,-282.5 4980,-288.5 4974,-288.5 4974,-288.5 4874,-288.5 4874,-288.5 4868,-288.5 4862,-282.5 4862,-276.5 4862,-276.5 4862,-262.5 4862,-262.5 4862,-256.5 4868,-250.5 4874,-250.5"/>
<text text-anchor="middle" x="4924" y="-273.3" font-family="Dejavu Sans Mono" font-size="14.00">MISSING LABEL</text>
<text text-anchor="middle" x="4924" y="-258.3" font-family="Dejavu Sans Mono" font-size="14.00">(kblad:ns23)</text>
</g>
<!-- nkblad_ns23&#45;&gt;nkblad_ac_l1l26a -->
<g id="edge12" class="edge">
<title>nkblad_ns23&#45;&gt;nkblad_ac_l1l26a</title>
<path fill="none" stroke="black" d="M4986.3,-264.22C5028.67,-260.57 5087.47,-255.51 5144.56,-250.6"/>
<polygon fill="black" stroke="black" points="5145.15,-254.06 5154.82,-249.71 5144.55,-247.08 5145.15,-254.06"/>
<text text-anchor="middle" x="5070.5" y="-266.3" font-family="Dejavu Sans Mono" font-size="14.00">apinatomy:rootOf</text>
</g>
<!-- nkblad_ref_mat_KM_27_K_129_K23_14 -->
<g id="node38" class="node">
<title>nkblad_ref_mat_KM_27_K_129_K23_14</title>
<path fill="none" stroke="black" d="M2371,-963.5C2371,-963.5 2834,-963.5 2834,-963.5 2840,-963.5 2846,-969.5 2846,-975.5 2846,-975.5 2846,-989.5 2846,-989.5 2846,-995.5 2840,-1001.5 2834,-1001.5 2834,-1001.5 2371,-1001.5 2371,-1001.5 2365,-1001.5 2359,-995.5 2359,-989.5 2359,-989.5 2359,-975.5 2359,-975.5 2359,-969.5 2365,-963.5 2371,-963.5"/>
<text text-anchor="middle" x="2602.5" y="-986.3" font-family="Dejavu Sans Mono" font-size="14.00">White matter of CNS in L2 spinal segment (kblad) layer 14</text>
<text text-anchor="middle" x="2602.5" y="-971.3" font-family="Dejavu Sans Mono" font-size="14.00">(kblad:ref_mat_KM_27_K_129_K23_14)</text>
</g>
<!-- nkblad_ref_mat_KM_27_K_129_K23_14&#45;&gt;nkblad_K23 -->
<g id="edge65" class="edge">
<title>nkblad_ref_mat_KM_27_K_129_K23_14&#45;&gt;nkblad_K23</title>
<path fill="none" stroke="black" d="M2846.22,-996.17C2916.21,-1000.42 2992.66,-1005.35 3063,-1010.5 3065.54,-1010.69 3068.11,-1010.88 3070.7,-1011.07"/>
<polygon fill="black" stroke="black" points="3070.53,-1014.57 3080.77,-1011.85 3071.06,-1007.59 3070.53,-1014.57"/>
<text text-anchor="middle" x="2963.5" y="-1014.3" font-family="Dejavu Sans Mono" font-size="14.00">apinatomy:layerIn</text>
</g>
<!-- nkblad_K102 -->
<g id="node39" class="node">
<title>nkblad_K102</title>
<path fill="none" stroke="black" d="M6639,-87.5C6639,-87.5 6929,-87.5 6929,-87.5 6935,-87.5 6941,-93.5 6941,-99.5 6941,-99.5 6941,-113.5 6941,-113.5 6941,-119.5 6935,-125.5 6929,-125.5 6929,-125.5 6639,-125.5 6639,-125.5 6633,-125.5 6627,-119.5 6627,-113.5 6627,-113.5 6627,-99.5 6627,-99.5 6627,-93.5 6633,-87.5 6639,-87.5"/>
<text text-anchor="middle" x="6784" y="-110.3" font-family="Dejavu Sans Mono" font-size="14.00">Inferior Mesenteric Ganglion (kblad)</text>
<text text-anchor="middle" x="6784" y="-95.3" font-family="Dejavu Sans Mono" font-size="14.00">(kblad:K102)</text>
</g>
<!-- nkblad_K102&#45;&gt;nUBERON_0005453 -->
<g id="edge23" class="edge">
<title>nkblad_K102&#45;&gt;nUBERON_0005453</title>
<path fill="none" stroke="black" d="M6894.75,-87.46C6987.41,-71.39 7118.12,-48.71 7202.6,-34.06"/>
<polygon fill="black" stroke="black" points="7203.41,-37.47 7212.66,-32.31 7202.21,-30.57 7203.41,-37.47"/>
<text text-anchor="middle" x="7058.5" y="-80.3" font-family="Dejavu Sans Mono" font-size="14.00">apinatomy:external</text>
</g>
<!-- nkblad_n_lumspl -->
<g id="node40" class="node">
<title>nkblad_n_lumspl</title>
<path fill="none" stroke="black" d="M6132,-344.5C6132,-344.5 6380,-344.5 6380,-344.5 6386,-344.5 6392,-350.5 6392,-356.5 6392,-356.5 6392,-370.5 6392,-370.5 6392,-376.5 6386,-382.5 6380,-382.5 6380,-382.5 6132,-382.5 6132,-382.5 6126,-382.5 6120,-376.5 6120,-370.5 6120,-370.5 6120,-356.5 6120,-356.5 6120,-350.5 6126,-344.5 6132,-344.5"/>
<text text-anchor="middle" x="6256" y="-367.3" font-family="Dejavu Sans Mono" font-size="14.00">lumbar splanchnic nerve (kblad)</text>
<text text-anchor="middle" x="6256" y="-352.3" font-family="Dejavu Sans Mono" font-size="14.00">(kblad:n&#45;lumspl)</text>
</g>
<!-- nkblad_n_lumspl&#45;&gt;nUBERON_0018683 -->
<g id="edge4" class="edge">
<title>nkblad_n_lumspl&#45;&gt;nUBERON_0018683</title>
<path fill="none" stroke="black" d="M6266.35,-382.92C6329.54,-514.1 6693.77,-1270.26 6769.29,-1427.04"/>
<polygon fill="black" stroke="black" points="6766.35,-1429 6773.84,-1436.49 6772.66,-1425.96 6766.35,-1429"/>
<text text-anchor="middle" x="6509.5" y="-1074.3" font-family="Dejavu Sans Mono" font-size="14.00">apinatomy:external</text>
</g>
<!-- nFMA_12698 -->
<g id="node49" class="node">
<title>nFMA_12698</title>
<path fill="none" stroke="black" d="M4058,-1347.5C4058,-1347.5 4158,-1347.5 4158,-1347.5 4164,-1347.5 4170,-1353.5 4170,-1359.5 4170,-1359.5 4170,-1373.5 4170,-1373.5 4170,-1379.5 4164,-1385.5 4158,-1385.5 4158,-1385.5 4058,-1385.5 4058,-1385.5 4052,-1385.5 4046,-1379.5 4046,-1373.5 4046,-1373.5 4046,-1359.5 4046,-1359.5 4046,-1353.5 4052,-1347.5 4058,-1347.5"/>
<text text-anchor="middle" x="4108" y="-1370.3" font-family="Dejavu Sans Mono" font-size="14.00">MISSING LABEL</text>
<text text-anchor="middle" x="4108" y="-1355.3" font-family="Dejavu Sans Mono" font-size="14.00">(FMA:12698)</text>
</g>
<!-- nkblad_K89&#45;&gt;nFMA_12698 -->
<g id="edge75" class="edge">
<title>nkblad_K89&#45;&gt;nFMA_12698</title>
<path fill="none" stroke="black" d="M3737.11,-1370.45C3826.25,-1369.5 3955.65,-1368.12 4035.4,-1367.26"/>
<polygon fill="black" stroke="black" points="4035.87,-1370.76 4045.83,-1367.15 4035.79,-1363.76 4035.87,-1370.76"/>
<text text-anchor="middle" x="3854.5" y="-1373.3" font-family="Dejavu Sans Mono" font-size="14.00">apinatomy:external</text>
</g>
<!-- nkblad_n_hypo&#45;&gt;nUBERON_0005303 -->
<g id="edge78" class="edge">
<title>nkblad_n_hypo&#45;&gt;nUBERON_0005303</title>
<path fill="none" stroke="black" d="M7399.27,-307.5C7476.42,-307.5 7577.72,-307.5 7648.19,-307.5"/>
<polygon fill="black" stroke="black" points="7648.36,-311 7658.36,-307.5 7648.36,-304 7648.36,-311"/>
<text text-anchor="middle" x="7516.5" y="-311.3" font-family="Dejavu Sans Mono" font-size="14.00">apinatomy:external</text>
</g>
<!-- nkblad_ac_snl26_lnk_2 -->
<g id="node43" class="node">
<title>nkblad_ac_snl26_lnk_2</title>
<path fill="none" stroke="black" d="M1711,-948.5C1711,-948.5 1885,-948.5 1885,-948.5 1891,-948.5 1897,-954.5 1897,-960.5 1897,-960.5 1897,-974.5 1897,-974.5 1897,-980.5 1891,-986.5 1885,-986.5 1885,-986.5 1711,-986.5 1711,-986.5 1705,-986.5 1699,-980.5 1699,-974.5 1699,-974.5 1699,-960.5 1699,-960.5 1699,-954.5 1705,-948.5 1711,-948.5"/>
<text text-anchor="middle" x="1798" y="-971.3" font-family="Dejavu Sans Mono" font-size="14.00">MISSING LABEL</text>
<text text-anchor="middle" x="1798" y="-956.3" font-family="Dejavu Sans Mono" font-size="14.00">(kblad:ac&#45;snl26_lnk_2)</text>
</g>
<!-- nkblad_ac_snl26_lnk_2&#45;&gt;nkblad_ac_snl26_lnk_3 -->
<g id="edge13" class="edge">
<title>nkblad_ac_snl26_lnk_2&#45;&gt;nkblad_ac_snl26_lnk_3</title>
<path fill="none" stroke="black" d="M1897.15,-952.89C1969.54,-948.04 2065.27,-955.03 2124,-1012.5 2160.04,-1047.76 2104.93,-1090.33 2142,-1124.5 2167.26,-1147.79 2365.39,-1156.03 2493.11,-1158.94"/>
<polygon fill="black" stroke="black" points="2493.25,-1162.44 2503.32,-1159.16 2493.4,-1155.44 2493.25,-1162.44"/>
<text text-anchor="middle" x="2241.5" y="-1156.3" font-family="Dejavu Sans Mono" font-size="14.00">apinatomy:next</text>
</g>
<!-- nkblad_ac_snl26_lnk_2&#45;&gt;nkblad_ref_mat_KM_27_K_129_K23_14 -->
<g id="edge84" class="edge">
<title>nkblad_ac_snl26_lnk_2&#45;&gt;nkblad_ref_mat_KM_27_K_129_K23_14</title>
<path fill="none" stroke="black" d="M1897,-969.33C2008.7,-971.42 2195.62,-974.91 2348.86,-977.78"/>
<polygon fill="black" stroke="black" points="2348.84,-981.28 2358.9,-977.97 2348.97,-974.28 2348.84,-981.28"/>
<text text-anchor="middle" x="2241.5" y="-980.3" font-family="Dejavu Sans Mono" font-size="14.00">apinatomy:fasciculatesIn</text>
</g>
<!-- nFMA_12697 -->
<g id="node47" class="node">
<title>nFMA_12697</title>
<path fill="none" stroke="black" d="M4058,-1131.5C4058,-1131.5 4158,-1131.5 4158,-1131.5 4164,-1131.5 4170,-1137.5 4170,-1143.5 4170,-1143.5 4170,-1157.5 4170,-1157.5 4170,-1163.5 4164,-1169.5 4158,-1169.5 4158,-1169.5 4058,-1169.5 4058,-1169.5 4052,-1169.5 4046,-1163.5 4046,-1157.5 4046,-1157.5 4046,-1143.5 4046,-1143.5 4046,-1137.5 4052,-1131.5 4058,-1131.5"/>
<text text-anchor="middle" x="4108" y="-1154.3" font-family="Dejavu Sans Mono" font-size="14.00">MISSING LABEL</text>
<text text-anchor="middle" x="4108" y="-1139.3" font-family="Dejavu Sans Mono" font-size="14.00">(FMA:12697)</text>
</g>
<!-- nkblad_K88&#45;&gt;nFMA_12697 -->
<g id="edge70" class="edge">
<title>nkblad_K88&#45;&gt;nFMA_12697</title>
<path fill="none" stroke="black" d="M3737.11,-1150.5C3826.25,-1150.5 3955.65,-1150.5 4035.4,-1150.5"/>
<polygon fill="black" stroke="black" points="4035.83,-1154 4045.83,-1150.5 4035.83,-1147 4035.83,-1154"/>
<text text-anchor="middle" x="3854.5" y="-1154.3" font-family="Dejavu Sans Mono" font-size="14.00">apinatomy:external</text>
</g>
<!-- nEMAPA_25269 -->
<g id="node52" class="node">
<title>nEMAPA_25269</title>
<path fill="none" stroke="black" d="M3588,-861.5C3588,-861.5 3688,-861.5 3688,-861.5 3694,-861.5 3700,-867.5 3700,-873.5 3700,-873.5 3700,-887.5 3700,-887.5 3700,-893.5 3694,-899.5 3688,-899.5 3688,-899.5 3588,-899.5 3588,-899.5 3582,-899.5 3576,-893.5 3576,-887.5 3576,-887.5 3576,-873.5 3576,-873.5 3576,-867.5 3582,-861.5 3588,-861.5"/>
<text text-anchor="middle" x="3638" y="-884.3" font-family="Dejavu Sans Mono" font-size="14.00">MISSING LABEL</text>
<text text-anchor="middle" x="3638" y="-869.3" font-family="Dejavu Sans Mono" font-size="14.00">(EMAPA:25269)</text>
</g>
<!-- nkblad_K63&#45;&gt;nEMAPA_25269 -->
<g id="edge89" class="edge">
<title>nkblad_K63&#45;&gt;nEMAPA_25269</title>
<path fill="none" stroke="black" d="M3295.53,-880.5C3378.22,-880.5 3492.63,-880.5 3565.73,-880.5"/>
<polygon fill="black" stroke="black" points="3565.77,-884 3575.77,-880.5 3565.77,-877 3565.77,-884"/>
<text text-anchor="middle" x="3421.5" y="-884.3" font-family="Dejavu Sans Mono" font-size="14.00">apinatomy:external</text>
</g>
<!-- nkblad_neuron_6&#45;&gt;nkblad_ac_snl26_lnk_5 -->
<g id="edge58" class="edge">
<title>nkblad_neuron_6&#45;&gt;nkblad_ac_snl26_lnk_5</title>
<path fill="none" stroke="black" d="M590.84,-776.69C592.8,-861.78 605.4,-1203.64 682,-1269.5 783.1,-1356.42 2947.69,-1330.75 3081,-1332.5 3276.54,-1335.07 3326,-1344.24 3521,-1329.5 3523.57,-1329.31 3526.17,-1329.09 3528.8,-1328.86"/>
<polygon fill="black" stroke="black" points="3529.37,-1332.32 3539,-1327.88 3528.71,-1325.35 3529.37,-1332.32"/>
<text text-anchor="middle" x="2241.5" y="-1338.3" font-family="Dejavu Sans Mono" font-size="14.00">apinatomy:links</text>
</g>
<!-- nkblad_neuron_6&#45;&gt;nkblad_ac_snl16_lnk_4 -->
<g id="edge2" class="edge">
<title>nkblad_neuron_6&#45;&gt;nkblad_ac_snl16_lnk_4</title>
<path fill="none" stroke="black" d="M591.91,-776.97C597.62,-850.08 621.76,-1106.53 682,-1155.5 754.31,-1214.28 2265.82,-1188.09 2359,-1189.5 2515.43,-1191.86 2916.76,-1250.1 3063,-1194.5 3073,-1190.7 3071.56,-1183.55 3081,-1178.5 3085.04,-1176.33 3089.26,-1174.32 3093.58,-1172.46"/>
<polygon fill="black" stroke="black" points="3095.21,-1175.57 3103.19,-1168.6 3092.6,-1169.08 3095.21,-1175.57"/>
<text text-anchor="middle" x="1798" y="-1197.3" font-family="Dejavu Sans Mono" font-size="14.00">apinatomy:links</text>
</g>
<!-- nkblad_neuron_6&#45;&gt;nkblad_dc_snl16_lnk_1 -->
<g id="edge42" class="edge">
<title>nkblad_neuron_6&#45;&gt;nkblad_dc_snl16_lnk_1</title>
<path fill="none" stroke="black" d="M623.35,-738.47C640.33,-729.48 661.7,-719.45 682,-713.5 770.15,-687.68 874.02,-676.34 950.3,-671.37"/>
<polygon fill="black" stroke="black" points="950.65,-674.85 960.41,-670.74 950.21,-667.87 950.65,-674.85"/>
<text text-anchor="middle" x="773" y="-717.3" font-family="Dejavu Sans Mono" font-size="14.00">apinatomy:links</text>
</g>
<!-- nkblad_neuron_6&#45;&gt;nPMID_3558884 -->
<g id="edge27" class="edge">
<title>nkblad_neuron_6&#45;&gt;nPMID_3558884</title>
<path fill="none" stroke="black" d="M590.07,-738.39C590.04,-686.22 597.85,-540.8 682,-473.5 726.88,-437.61 886.54,-434.91 982.94,-436.79"/>
<polygon fill="black" stroke="black" points="983.15,-440.29 993.22,-437.01 983.3,-433.3 983.15,-440.29"/>
<text text-anchor="middle" x="773" y="-477.3" font-family="Dejavu Sans Mono" font-size="14.00">apinatomy:publications</text>
</g>
<!-- nkblad_neuron_6&#45;&gt;nkblad_snl26 -->
<g id="edge83" class="edge">
<title>nkblad_neuron_6&#45;&gt;nkblad_snl26</title>
<path fill="none" stroke="black" d="M589.94,-776.71C589.53,-829.87 596.37,-979.7 682,-1050.5 741.44,-1099.65 825.4,-1112.8 898.95,-1112.62"/>
<polygon fill="black" stroke="black" points="899.3,-1116.11 909.26,-1112.5 899.22,-1109.11 899.3,-1116.11"/>
<text text-anchor="middle" x="773" y="-1114.3" font-family="Dejavu Sans Mono" font-size="14.00">apinatomy:lyphs</text>
</g>
<!-- nkblad_neuron_6&#45;&gt;nkblad_ac_snl26_lnk_6 -->
<g id="edge54" class="edge">
<title>nkblad_neuron_6&#45;&gt;nkblad_ac_snl26_lnk_6</title>
<path fill="none" stroke="black" d="M591.39,-776.74C595.47,-856.11 615.18,-1156.79 682,-1217.5 744.24,-1274.05 974.41,-1255.5 1058.5,-1255.5 1058.5,-1255.5 1058.5,-1255.5 3639,-1255.5 3762.28,-1255.5 3903.81,-1254.45 3998.67,-1253.59"/>
<polygon fill="black" stroke="black" points="3998.88,-1257.09 4008.85,-1253.49 3998.82,-1250.09 3998.88,-1257.09"/>
<text text-anchor="middle" x="2602.5" y="-1259.3" font-family="Dejavu Sans Mono" font-size="14.00">apinatomy:links</text>
</g>
<!-- nkblad_neuron_6&#45;&gt;nkblad_ac_snl26_lnk_3 -->
<g id="edge19" class="edge">
<title>nkblad_neuron_6&#45;&gt;nkblad_ac_snl26_lnk_3</title>
<path fill="none" stroke="black" d="M591.44,-776.7C595.67,-853.84 615.65,-1139.63 682,-1193.5 744.19,-1244 2043.94,-1196.26 2124,-1193.5 2250.93,-1189.12 2396.5,-1178.21 2493.21,-1170.12"/>
<polygon fill="black" stroke="black" points="2493.62,-1173.6 2503.29,-1169.28 2493.04,-1166.63 2493.62,-1173.6"/>
<text text-anchor="middle" x="1354.5" y="-1218.3" font-family="Dejavu Sans Mono" font-size="14.00">apinatomy:links</text>
</g>
<!-- nkblad_neuron_6&#45;&gt;nkblad_dc_snl26_lnk_1 -->
<g id="edge51" class="edge">
<title>nkblad_neuron_6&#45;&gt;nkblad_dc_snl26_lnk_1</title>
<path fill="none" stroke="black" d="M593.85,-776.71C601.64,-815.1 624.89,-900.99 682,-940.5 724.15,-969.66 854.71,-977.76 950.29,-979.64"/>
<polygon fill="black" stroke="black" points="950.24,-983.14 960.31,-979.82 950.37,-976.15 950.24,-983.14"/>
<text text-anchor="middle" x="773" y="-979.3" font-family="Dejavu Sans Mono" font-size="14.00">apinatomy:links</text>
</g>
<!-- nkblad_neuron_6&#45;&gt;nkblad_ac_snl26_lnk_4 -->
<g id="edge34" class="edge">
<title>nkblad_neuron_6&#45;&gt;nkblad_ac_snl26_lnk_4</title>
<path fill="none" stroke="black" d="M590.55,-776.63C591.24,-865.53 599.11,-1236.87 682,-1307.5 866.45,-1464.67 2625.82,-1345.63 3083.25,-1311.77"/>
<polygon fill="black" stroke="black" points="3083.77,-1315.24 3093.48,-1311.01 3083.25,-1308.26 3083.77,-1315.24"/>
<text text-anchor="middle" x="1798" y="-1390.3" font-family="Dejavu Sans Mono" font-size="14.00">apinatomy:links</text>
</g>
<!-- nkblad_neuron_6&#45;&gt;nkblad_ac_snl16_lnk_3 -->
<g id="edge77" class="edge">
<title>nkblad_neuron_6&#45;&gt;nkblad_ac_snl16_lnk_3</title>
<path fill="none" stroke="black" d="M615.48,-776.7C633.11,-789.23 657.81,-804.83 682,-813.5 766.49,-843.78 792.54,-834.25 882,-841.5 1489.53,-890.75 2221.45,-886.25 2493.14,-882.41"/>
<polygon fill="black" stroke="black" points="2493.44,-885.91 2503.39,-882.26 2493.34,-878.91 2493.44,-885.91"/>
<text text-anchor="middle" x="1354.5" y="-877.3" font-family="Dejavu Sans Mono" font-size="14.00">apinatomy:links</text>
</g>
<!-- nkblad_neuron_6&#45;&gt;nkblad_snl16 -->
<g id="edge8" class="edge">
<title>nkblad_neuron_6&#45;&gt;nkblad_snl16</title>
<path fill="none" stroke="black" d="M664.34,-746.44C670.31,-745.72 676.25,-745.06 682,-744.5 743.56,-738.5 810.97,-734.21 871.52,-731.18"/>
<polygon fill="black" stroke="black" points="871.75,-734.67 881.57,-730.68 871.41,-727.68 871.75,-734.67"/>
<text text-anchor="middle" x="773" y="-748.3" font-family="Dejavu Sans Mono" font-size="14.00">apinatomy:lyphs</text>
</g>
<!-- nkblad_neuron_6&#45;&gt;nkblad_ac_l1l26a_lnk_3 -->
<g id="edge59" class="edge">
<title>nkblad_neuron_6&#45;&gt;nkblad_ac_l1l26a_lnk_3</title>
<path fill="none" stroke="black" d="M590.64,-776.73C591.72,-868.72 601.09,-1262.99 682,-1347.5 799.99,-1470.74 887.88,-1422.5 1058.5,-1422.5 1058.5,-1422.5 1058.5,-1422.5 6257,-1422.5 6520.27,-1422.5 6738.57,-439.17 6777,-255.76"/>
<polygon fill="black" stroke="black" points="6780.47,-256.27 6779.08,-245.77 6773.61,-254.85 6780.47,-256.27"/>
<text text-anchor="middle" x="4108" y="-1426.3" font-family="Dejavu Sans Mono" font-size="14.00">apinatomy:links</text>
</g>
<!-- nkblad_neuron_6&#45;&gt;nPMID_1619047 -->
<g id="edge30" class="edge">
<title>nkblad_neuron_6&#45;&gt;nPMID_1619047</title>
<path fill="none" stroke="black" d="M595,-738.35C604.42,-703 629.77,-628.01 682,-593.5 772.2,-533.91 901.9,-534.37 983.11,-542.33"/>
<polygon fill="black" stroke="black" points="982.95,-545.83 993.26,-543.39 983.68,-538.87 982.95,-545.83"/>
<text text-anchor="middle" x="773" y="-597.3" font-family="Dejavu Sans Mono" font-size="14.00">apinatomy:publications</text>
</g>
<!-- nkblad_neuron_6&#45;&gt;nkblad_ac_snl16_lnk_5 -->
<g id="edge14" class="edge">
<title>nkblad_neuron_6&#45;&gt;nkblad_ac_snl16_lnk_5</title>
<path fill="none" stroke="black" d="M592.2,-776.6C598.79,-845.99 625.21,-1083.04 682,-1127.5 689.28,-1133.2 992.94,-1126.43 1237,-1122.5 1639.24,-1116.03 1739.74,-1110.89 2142,-1105.5 2661.33,-1098.54 3282.2,-1095.13 3528.57,-1093.97"/>
<polygon fill="black" stroke="black" points="3528.62,-1097.47 3538.6,-1093.92 3528.58,-1090.47 3528.62,-1097.47"/>
<text text-anchor="middle" x="2241.5" y="-1109.3" font-family="Dejavu Sans Mono" font-size="14.00">apinatomy:links</text>
</g>
<!-- nkblad_neuron_6&#45;&gt;nkblad_ac_snl16_lnk_6 -->
<g id="edge33" class="edge">
<title>nkblad_neuron_6&#45;&gt;nkblad_ac_snl16_lnk_6</title>
<path fill="none" stroke="black" d="M591.43,-738.43C595.64,-660.46 615.74,-367.28 682,-309.5 703.75,-290.54 817.31,-285.5 2962.5,-285.5 2962.5,-285.5 2962.5,-285.5 3639,-285.5 3762.48,-285.5 3903.69,-298.81 3998.42,-309.67"/>
<polygon fill="black" stroke="black" points="3998.25,-313.17 4008.58,-310.85 3999.05,-306.22 3998.25,-313.17"/>
<text text-anchor="middle" x="2602.5" y="-290.3" font-family="Dejavu Sans Mono" font-size="14.00">apinatomy:links</text>
</g>
<!-- nkblad_neuron_6&#45;&gt;nkblad_ac_snl26_lnk_2 -->
<g id="edge6" class="edge">
<title>nkblad_neuron_6&#45;&gt;nkblad_ac_snl26_lnk_2</title>
<path fill="none" stroke="black" d="M596.94,-776.68C608.48,-807.67 635.89,-867.97 682,-894.5 719.25,-915.93 1411.13,-939.6 1454,-942.5 1532.48,-947.8 1621.02,-954.27 1688.48,-959.29"/>
<polygon fill="black" stroke="black" points="1688.47,-962.8 1698.7,-960.06 1688.99,-955.82 1688.47,-962.8"/>
<text text-anchor="middle" x="1059.5" y="-936.3" font-family="Dejavu Sans Mono" font-size="14.00">apinatomy:links</text>
</g>
<!-- nPMID_2891149 -->
<g id="node50" class="node">
<title>nPMID_2891149</title>
<path fill="none" stroke="black" d="M1005.5,-306.5C1005.5,-306.5 1113.5,-306.5 1113.5,-306.5 1119.5,-306.5 1125.5,-312.5 1125.5,-318.5 1125.5,-318.5 1125.5,-332.5 1125.5,-332.5 1125.5,-338.5 1119.5,-344.5 1113.5,-344.5 1113.5,-344.5 1005.5,-344.5 1005.5,-344.5 999.5,-344.5 993.5,-338.5 993.5,-332.5 993.5,-332.5 993.5,-318.5 993.5,-318.5 993.5,-312.5 999.5,-306.5 1005.5,-306.5"/>
<text text-anchor="middle" x="1059.5" y="-329.3" font-family="Dejavu Sans Mono" font-size="14.00">MISSING LABEL</text>
<text text-anchor="middle" x="1059.5" y="-314.3" font-family="Dejavu Sans Mono" font-size="14.00">(PMID:2891149)</text>
</g>
<!-- nkblad_neuron_6&#45;&gt;nPMID_2891149 -->
<g id="edge3" class="edge">
<title>nkblad_neuron_6&#45;&gt;nPMID_2891149</title>
<path fill="none" stroke="black" d="M591.71,-738.49C596.85,-664.05 619.63,-393.86 682,-341.5 725.98,-304.58 886.67,-310.77 983.33,-318.31"/>
<polygon fill="black" stroke="black" points="983.1,-321.8 993.35,-319.11 983.66,-314.82 983.1,-321.8"/>
<text text-anchor="middle" x="773" y="-345.3" font-family="Dejavu Sans Mono" font-size="14.00">apinatomy:publications</text>
</g>
<!-- nkblad_neuron_6&#45;&gt;nkblad_ac_l1l26a_lnk_2 -->
<g id="edge66" class="edge">
<title>nkblad_neuron_6&#45;&gt;nkblad_ac_l1l26a_lnk_2</title>
<path fill="none" stroke="black" d="M590.26,-738.36C589.47,-642.14 591.12,-212.54 682,-125.5 742.73,-67.34 974.41,-87.5 1058.5,-87.5 1058.5,-87.5 1058.5,-87.5 5783,-87.5 5906.45,-87.5 6047.22,-103.28 6142.66,-116.36"/>
<polygon fill="black" stroke="black" points="6142.23,-119.83 6152.62,-117.73 6143.19,-112.9 6142.23,-119.83"/>
<text text-anchor="middle" x="3854.5" y="-91.3" font-family="Dejavu Sans Mono" font-size="14.00">apinatomy:links</text>
</g>
<!-- nkblad_ac_snl16_lnk_2 -->
<g id="node53" class="node">
<title>nkblad_ac_snl16_lnk_2</title>
<path fill="none" stroke="black" d="M1711,-797.5C1711,-797.5 1885,-797.5 1885,-797.5 1891,-797.5 1897,-803.5 1897,-809.5 1897,-809.5 1897,-823.5 1897,-823.5 1897,-829.5 1891,-835.5 1885,-835.5 1885,-835.5 1711,-835.5 1711,-835.5 1705,-835.5 1699,-829.5 1699,-823.5 1699,-823.5 1699,-809.5 1699,-809.5 1699,-803.5 1705,-797.5 1711,-797.5"/>
<text text-anchor="middle" x="1798" y="-820.3" font-family="Dejavu Sans Mono" font-size="14.00">MISSING LABEL</text>
<text text-anchor="middle" x="1798" y="-805.3" font-family="Dejavu Sans Mono" font-size="14.00">(kblad:ac&#45;snl16_lnk_2)</text>
</g>
<!-- nkblad_neuron_6&#45;&gt;nkblad_ac_snl16_lnk_2 -->
<g id="edge29" class="edge">
<title>nkblad_neuron_6&#45;&gt;nkblad_ac_snl16_lnk_2</title>
<path fill="none" stroke="black" d="M636.38,-776.6C650.76,-781.89 666.84,-787.1 682,-790.5 769.13,-810.02 792.88,-804.08 882,-809.5 1173.12,-827.21 1517.28,-823.12 1688.68,-819.39"/>
<polygon fill="black" stroke="black" points="1688.79,-822.89 1698.71,-819.16 1688.64,-815.89 1688.79,-822.89"/>
<text text-anchor="middle" x="1059.5" y="-826.3" font-family="Dejavu Sans Mono" font-size="14.00">apinatomy:links</text>
</g>
<!-- nPMID_1358408 -->
<g id="node55" class="node">
<title>nPMID_1358408</title>
<path fill="none" stroke="black" d="M1005.5,-477.5C1005.5,-477.5 1113.5,-477.5 1113.5,-477.5 1119.5,-477.5 1125.5,-483.5 1125.5,-489.5 1125.5,-489.5 1125.5,-503.5 1125.5,-503.5 1125.5,-509.5 1119.5,-515.5 1113.5,-515.5 1113.5,-515.5 1005.5,-515.5 1005.5,-515.5 999.5,-515.5 993.5,-509.5 993.5,-503.5 993.5,-503.5 993.5,-489.5 993.5,-489.5 993.5,-483.5 999.5,-477.5 1005.5,-477.5"/>
<text text-anchor="middle" x="1059.5" y="-500.3" font-family="Dejavu Sans Mono" font-size="14.00">MISSING LABEL</text>
<text text-anchor="middle" x="1059.5" y="-485.3" font-family="Dejavu Sans Mono" font-size="14.00">(PMID:1358408)</text>
</g>
<!-- nkblad_neuron_6&#45;&gt;nPMID_1358408 -->
<g id="edge63" class="edge">
<title>nkblad_neuron_6&#45;&gt;nPMID_1358408</title>
<path fill="none" stroke="black" d="M591.44,-738.22C594.82,-692.07 610.41,-575.16 682,-522.5 728.15,-488.55 886.94,-488.85 982.94,-492.45"/>
<polygon fill="black" stroke="black" points="983.05,-495.96 993.18,-492.86 983.33,-488.96 983.05,-495.96"/>
<text text-anchor="middle" x="773" y="-526.3" font-family="Dejavu Sans Mono" font-size="14.00">apinatomy:publications</text>
</g>
<!-- nPMID_30704972 -->
<g id="node56" class="node">
<title>nPMID_30704972</title>
<path fill="none" stroke="black" d="M1001.5,-363.5C1001.5,-363.5 1117.5,-363.5 1117.5,-363.5 1123.5,-363.5 1129.5,-369.5 1129.5,-375.5 1129.5,-375.5 1129.5,-389.5 1129.5,-389.5 1129.5,-395.5 1123.5,-401.5 1117.5,-401.5 1117.5,-401.5 1001.5,-401.5 1001.5,-401.5 995.5,-401.5 989.5,-395.5 989.5,-389.5 989.5,-389.5 989.5,-375.5 989.5,-375.5 989.5,-369.5 995.5,-363.5 1001.5,-363.5"/>
<text text-anchor="middle" x="1059.5" y="-386.3" font-family="Dejavu Sans Mono" font-size="14.00">MISSING LABEL</text>
<text text-anchor="middle" x="1059.5" y="-371.3" font-family="Dejavu Sans Mono" font-size="14.00">(PMID:30704972)</text>
</g>
<!-- nkblad_neuron_6&#45;&gt;nPMID_30704972 -->
<g id="edge37" class="edge">
<title>nkblad_neuron_6&#45;&gt;nPMID_30704972</title>
<path fill="none" stroke="black" d="M592.83,-738.43C601.2,-673.38 631.88,-461.91 682,-419.5 764.15,-350 895.36,-354.3 979.19,-366.41"/>
<polygon fill="black" stroke="black" points="978.76,-369.88 989.17,-367.92 979.81,-362.96 978.76,-369.88"/>
<text text-anchor="middle" x="773" y="-423.3" font-family="Dejavu Sans Mono" font-size="14.00">apinatomy:publications</text>
</g>
<!-- nkblad_ac_snl26_lnk_1 -->
<g id="node57" class="node">
<title>nkblad_ac_snl26_lnk_1</title>
<path fill="none" stroke="black" d="M972.5,-1017.5C972.5,-1017.5 1146.5,-1017.5 1146.5,-1017.5 1152.5,-1017.5 1158.5,-1023.5 1158.5,-1029.5 1158.5,-1029.5 1158.5,-1043.5 1158.5,-1043.5 1158.5,-1049.5 1152.5,-1055.5 1146.5,-1055.5 1146.5,-1055.5 972.5,-1055.5 972.5,-1055.5 966.5,-1055.5 960.5,-1049.5 960.5,-1043.5 960.5,-1043.5 960.5,-1029.5 960.5,-1029.5 960.5,-1023.5 966.5,-1017.5 972.5,-1017.5"/>
<text text-anchor="middle" x="1059.5" y="-1040.3" font-family="Dejavu Sans Mono" font-size="14.00">MISSING LABEL</text>
<text text-anchor="middle" x="1059.5" y="-1025.3" font-family="Dejavu Sans Mono" font-size="14.00">(kblad:ac&#45;snl26_lnk_1)</text>
</g>
<!-- nkblad_neuron_6&#45;&gt;nkblad_ac_snl26_lnk_1 -->
<g id="edge10" class="edge">
<title>nkblad_neuron_6&#45;&gt;nkblad_ac_snl26_lnk_1</title>
<path fill="none" stroke="black" d="M591.52,-776.74C595.1,-822.84 611.09,-939.84 682,-994.5 722.69,-1025.86 853.92,-1034.59 950.04,-1036.63"/>
<polygon fill="black" stroke="black" points="950.04,-1040.13 960.11,-1036.82 950.18,-1033.13 950.04,-1040.13"/>
<text text-anchor="middle" x="773" y="-1035.3" font-family="Dejavu Sans Mono" font-size="14.00">apinatomy:links</text>
</g>
<!-- nkblad_neuron_6&#45;&gt;nkblad_ac_snl26_lnk_7 -->
<g id="edge47" class="edge">
<title>nkblad_neuron_6&#45;&gt;nkblad_ac_snl26_lnk_7</title>
<path fill="none" stroke="black" d="M590.77,-738.22C592.4,-651.14 603.84,-295.74 682,-225.5 744.36,-169.46 974.66,-201.5 1058.5,-201.5 1058.5,-201.5 1058.5,-201.5 3855.5,-201.5 4040.26,-201.5 4081.19,-250.5 4262,-288.5 4332.66,-303.35 4412.3,-319.78 4473.82,-332.41"/>
<polygon fill="black" stroke="black" points="4473.43,-335.9 4483.93,-334.48 4474.83,-329.04 4473.43,-335.9"/>
<text text-anchor="middle" x="2963.5" y="-205.3" font-family="Dejavu Sans Mono" font-size="14.00">apinatomy:links</text>
</g>
<!-- nkblad_neuron_6&#45;&gt;nkblad_ac_snl16_lnk_7 -->
<g id="edge53" class="edge">
<title>nkblad_neuron_6&#45;&gt;nkblad_ac_snl16_lnk_7</title>
<path fill="none" stroke="black" d="M591.37,-738.26C595.41,-658.17 615.07,-352.47 682,-289.5 743.47,-231.67 974.1,-239.5 1058.5,-239.5 1058.5,-239.5 1058.5,-239.5 4109,-239.5 4232.54,-239.5 4374.03,-250.39 4468.8,-259.26"/>
<polygon fill="black" stroke="black" points="4468.69,-262.76 4478.97,-260.22 4469.34,-255.8 4468.69,-262.76"/>
<text text-anchor="middle" x="2963.5" y="-243.3" font-family="Dejavu Sans Mono" font-size="14.00">apinatomy:links</text>
</g>
<!-- nkblad_ac_snl16_lnk_1 -->
<g id="node60" class="node">
<title>nkblad_ac_snl16_lnk_1</title>
<path fill="none" stroke="black" d="M972.5,-762.5C972.5,-762.5 1146.5,-762.5 1146.5,-762.5 1152.5,-762.5 1158.5,-768.5 1158.5,-774.5 1158.5,-774.5 1158.5,-788.5 1158.5,-788.5 1158.5,-794.5 1152.5,-800.5 1146.5,-800.5 1146.5,-800.5 972.5,-800.5 972.5,-800.5 966.5,-800.5 960.5,-794.5 960.5,-788.5 960.5,-788.5 960.5,-774.5 960.5,-774.5 960.5,-768.5 966.5,-762.5 972.5,-762.5"/>
<text text-anchor="middle" x="1059.5" y="-785.3" font-family="Dejavu Sans Mono" font-size="14.00">MISSING LABEL</text>
<text text-anchor="middle" x="1059.5" y="-770.3" font-family="Dejavu Sans Mono" font-size="14.00">(kblad:ac&#45;snl16_lnk_1)</text>
</g>
<!-- nkblad_neuron_6&#45;&gt;nkblad_ac_snl16_lnk_1 -->
<g id="edge64" class="edge">
<title>nkblad_neuron_6&#45;&gt;nkblad_ac_snl16_lnk_1</title>
<path fill="none" stroke="black" d="M664.14,-761.28C741.1,-765.22 862.65,-771.46 950.47,-775.96"/>
<polygon fill="black" stroke="black" points="950.31,-779.46 960.47,-776.47 950.67,-772.47 950.31,-779.46"/>
<text text-anchor="middle" x="773" y="-775.3" font-family="Dejavu Sans Mono" font-size="14.00">apinatomy:links</text>
</g>
<!-- nkblad_neuron_6&#45;&gt;nkblad_ac_l1l26a_lnk_1 -->
<g id="edge41" class="edge">
<title>nkblad_neuron_6&#45;&gt;nkblad_ac_l1l26a_lnk_1</title>
<path fill="none" stroke="black" d="M590.56,-738.45C591.25,-648.23 599.11,-265.02 682,-188.5 805.35,-74.64 890.64,-158.5 1058.5,-158.5 1058.5,-158.5 1058.5,-158.5 5333.5,-158.5 5447.92,-158.5 5578.48,-167.73 5668.92,-175.59"/>
<polygon fill="black" stroke="black" points="5668.65,-179.08 5678.92,-176.47 5669.26,-172.11 5668.65,-179.08"/>
<text text-anchor="middle" x="3638" y="-162.3" font-family="Dejavu Sans Mono" font-size="14.00">apinatomy:links</text>
</g>
<!-- nPMID_3225349 -->
<g id="node63" class="node">
<title>nPMID_3225349</title>
<path fill="none" stroke="black" d="M1005.5,-591.5C1005.5,-591.5 1113.5,-591.5 1113.5,-591.5 1119.5,-591.5 1125.5,-597.5 1125.5,-603.5 1125.5,-603.5 1125.5,-617.5 1125.5,-617.5 1125.5,-623.5 1119.5,-629.5 1113.5,-629.5 1113.5,-629.5 1005.5,-629.5 1005.5,-629.5 999.5,-629.5 993.5,-623.5 993.5,-617.5 993.5,-617.5 993.5,-603.5 993.5,-603.5 993.5,-597.5 999.5,-591.5 1005.5,-591.5"/>
<text text-anchor="middle" x="1059.5" y="-614.3" font-family="Dejavu Sans Mono" font-size="14.00">MISSING LABEL</text>
<text text-anchor="middle" x="1059.5" y="-599.3" font-family="Dejavu Sans Mono" font-size="14.00">(PMID:3225349)</text>
</g>
<!-- nkblad_neuron_6&#45;&gt;nPMID_3225349 -->
<g id="edge80" class="edge">
<title>nkblad_neuron_6&#45;&gt;nPMID_3225349</title>
<path fill="none" stroke="black" d="M602.74,-738.3C618.23,-715.79 647.14,-679.3 682,-661.5 777.58,-612.71 903.74,-605.33 983.01,-606.44"/>
<polygon fill="black" stroke="black" points="983.33,-609.95 993.39,-606.64 983.46,-602.95 983.33,-609.95"/>
<text text-anchor="middle" x="773" y="-665.3" font-family="Dejavu Sans Mono" font-size="14.00">apinatomy:publications</text>
</g>
<!-- nkblad_neuron_6&#45;&gt;nkblad_ac_l1l26a_lnk_4 -->
<g id="edge26" class="edge">
<title>nkblad_neuron_6&#45;&gt;nkblad_ac_l1l26a_lnk_4</title>
<path fill="none" stroke="black" d="M591.68,-738.43C598.35,-633.39 632.83,-128.29 682,-81.5 803.67,34.26 890.56,-49.5 1058.5,-49.5 1058.5,-49.5 1058.5,-49.5 6785,-49.5 6966.32,-49.5 7164.58,-153.67 7247.08,-202.18"/>
<polygon fill="black" stroke="black" points="7245.48,-205.3 7255.86,-207.39 7249.05,-199.28 7245.48,-205.3"/>
<text text-anchor="middle" x="4361.5" y="-53.3" font-family="Dejavu Sans Mono" font-size="14.00">apinatomy:links</text>
</g>
<!-- nPMID_2891149&#45;&gt;nelements_External -->
<g id="edge73" class="edge">
<title>nPMID_2891149&#45;&gt;nelements_External</title>
<path fill="none" stroke="black" d="M1125.82,-333.94C1204.07,-344.37 1339.01,-363.33 1454,-384.5 1540.42,-400.41 1638.28,-422.18 1707.29,-438.17"/>
<polygon fill="black" stroke="black" points="1706.72,-441.63 1717.26,-440.49 1708.31,-434.82 1706.72,-441.63"/>
<text text-anchor="middle" x="1354.5" y="-388.3" font-family="Dejavu Sans Mono" font-size="14.00">type</text>
</g>
<!-- nkblad_ac_l1l26a_lnk_2&#45;&gt;nkblad_ac_l1l26a_lnk_3 -->
<g id="edge17" class="edge">
<title>nkblad_ac_l1l26a_lnk_2&#45;&gt;nkblad_ac_l1l26a_lnk_3</title>
<path fill="none" stroke="black" d="M6359.04,-151.54C6448.54,-167.37 6578.46,-190.34 6670.85,-206.67"/>
<polygon fill="black" stroke="black" points="6670.34,-210.13 6680.79,-208.43 6671.56,-203.24 6670.34,-210.13"/>
<text text-anchor="middle" x="6509.5" y="-198.3" font-family="Dejavu Sans Mono" font-size="14.00">apinatomy:next</text>
</g>
<!-- nkblad_ac_l1l26a_lnk_2&#45;&gt;nkblad_K102 -->
<g id="edge39" class="edge">
<title>nkblad_ac_l1l26a_lnk_2&#45;&gt;nkblad_K102</title>
<path fill="none" stroke="black" d="M6359.04,-128.26C6432.11,-124.51 6532.1,-119.38 6616.62,-115.04"/>
<polygon fill="black" stroke="black" points="6617.05,-118.52 6626.85,-114.52 6616.69,-111.53 6617.05,-118.52"/>
<text text-anchor="middle" x="6509.5" y="-130.3" font-family="Dejavu Sans Mono" font-size="14.00">apinatomy:fasciculatesIn</text>
</g>
<!-- nkblad_ac_snl16_lnk_2&#45;&gt;nkblad_ref_mat_KM_27_K_129_K22_14 -->
<g id="edge57" class="edge">
<title>nkblad_ac_snl16_lnk_2&#45;&gt;nkblad_ref_mat_KM_27_K_129_K22_14</title>
<path fill="none" stroke="black" d="M1897.31,-812.55C1965.87,-809.91 2059.5,-806.57 2142,-804.5 2208.95,-802.82 2281.4,-801.49 2348.54,-800.46"/>
<polygon fill="black" stroke="black" points="2348.89,-803.95 2358.84,-800.3 2348.78,-796.95 2348.89,-803.95"/>
<text text-anchor="middle" x="2241.5" y="-808.3" font-family="Dejavu Sans Mono" font-size="14.00">apinatomy:fasciculatesIn</text>
</g>
<!-- nkblad_ac_snl16_lnk_2&#45;&gt;nkblad_ac_snl16_lnk_3 -->
<g id="edge31" class="edge">
<title>nkblad_ac_snl16_lnk_2&#45;&gt;nkblad_ac_snl16_lnk_3</title>
<path fill="none" stroke="black" d="M1897.02,-821.46C2005.66,-827.27 2186.01,-837.88 2341,-851.5 2391.04,-855.9 2446.37,-861.9 2493.12,-867.3"/>
<polygon fill="black" stroke="black" points="2492.93,-870.8 2503.27,-868.48 2493.74,-863.85 2492.93,-870.8"/>
<text text-anchor="middle" x="2241.5" y="-855.3" font-family="Dejavu Sans Mono" font-size="14.00">apinatomy:next</text>
</g>
<!-- nUBERON_0006448 -->
<g id="node64" class="node">
<title>nUBERON_0006448</title>
<path fill="none" stroke="black" d="M3575.5,-738.5C3575.5,-738.5 3700.5,-738.5 3700.5,-738.5 3706.5,-738.5 3712.5,-744.5 3712.5,-750.5 3712.5,-750.5 3712.5,-764.5 3712.5,-764.5 3712.5,-770.5 3706.5,-776.5 3700.5,-776.5 3700.5,-776.5 3575.5,-776.5 3575.5,-776.5 3569.5,-776.5 3563.5,-770.5 3563.5,-764.5 3563.5,-764.5 3563.5,-750.5 3563.5,-750.5 3563.5,-744.5 3569.5,-738.5 3575.5,-738.5"/>
<text text-anchor="middle" x="3638" y="-761.3" font-family="Dejavu Sans Mono" font-size="14.00">MISSING LABEL</text>
<text text-anchor="middle" x="3638" y="-746.3" font-family="Dejavu Sans Mono" font-size="14.00">(UBERON:0006448)</text>
</g>
<!-- nkblad_K22&#45;&gt;nUBERON_0006448 -->
<g id="edge76" class="edge">
<title>nkblad_K22&#45;&gt;nUBERON_0006448</title>
<path fill="none" stroke="black" d="M3304.27,-757.5C3381.42,-757.5 3482.72,-757.5 3553.19,-757.5"/>
<polygon fill="black" stroke="black" points="3553.36,-761 3563.36,-757.5 3553.36,-754 3553.36,-761"/>
<text text-anchor="middle" x="3421.5" y="-761.3" font-family="Dejavu Sans Mono" font-size="14.00">apinatomy:external</text>
</g>
<!-- nPMID_1358408&#45;&gt;nelements_External -->
<g id="edge86" class="edge">
<title>nPMID_1358408&#45;&gt;nelements_External</title>
<path fill="none" stroke="black" d="M1125.54,-493.23C1255.69,-486.69 1548.73,-471.97 1701.02,-464.32"/>
<polygon fill="black" stroke="black" points="1701.48,-467.8 1711.29,-463.81 1701.12,-460.81 1701.48,-467.8"/>
<text text-anchor="middle" x="1354.5" y="-491.3" font-family="Dejavu Sans Mono" font-size="14.00">type</text>
</g>
<!-- nPMID_30704972&#45;&gt;nelements_External -->
<g id="edge74" class="edge">
<title>nPMID_30704972&#45;&gt;nelements_External</title>
<path fill="none" stroke="black" d="M1129.79,-389.74C1262.02,-403.57 1550.57,-433.74 1701.18,-449.48"/>
<polygon fill="black" stroke="black" points="1701.03,-452.99 1711.34,-450.54 1701.76,-446.02 1701.03,-452.99"/>
<text text-anchor="middle" x="1354.5" y="-427.3" font-family="Dejavu Sans Mono" font-size="14.00">type</text>
</g>
<!-- nkblad_ac_snl26_lnk_1&#45;&gt;nkblad_ref_mat_K_83_K_129_K23_7 -->
<g id="edge32" class="edge">
<title>nkblad_ac_snl26_lnk_1&#45;&gt;nkblad_ref_mat_K_83_K_129_K23_7</title>
<path fill="none" stroke="black" d="M1158.68,-1037.03C1236.92,-1037.46 1351.27,-1038.08 1461.65,-1038.68"/>
<polygon fill="black" stroke="black" points="1461.96,-1042.18 1471.98,-1038.73 1462,-1035.18 1461.96,-1042.18"/>
<text text-anchor="middle" x="1354.5" y="-1042.3" font-family="Dejavu Sans Mono" font-size="14.00">apinatomy:fasciculatesIn</text>
</g>
<!-- nkblad_ac_snl26_lnk_1&#45;&gt;nkblad_ac_snl26_lnk_2 -->
<g id="edge18" class="edge">
<title>nkblad_ac_snl26_lnk_1&#45;&gt;nkblad_ac_snl26_lnk_2</title>
<path fill="none" stroke="black" d="M1158.9,-1036.43C1186.09,-1032.46 1214.33,-1024.27 1237,-1008.5 1250.39,-999.18 1240.98,-984.85 1255,-976.5 1325.54,-934.46 1551.76,-945.55 1688.64,-956.87"/>
<polygon fill="black" stroke="black" points="1688.49,-960.37 1698.75,-957.72 1689.08,-953.4 1688.49,-960.37"/>
<text text-anchor="middle" x="1354.5" y="-980.3" font-family="Dejavu Sans Mono" font-size="14.00">apinatomy:next</text>
</g>
<!-- nkblad_ac_snl26_lnk_7&#45;&gt;nkblad_ns23 -->
<g id="edge56" class="edge">
<title>nkblad_ac_snl26_lnk_7&#45;&gt;nkblad_ns23</title>
<path fill="none" stroke="black" d="M4657.06,-334.44C4715.59,-320.15 4795.06,-300.74 4851.85,-286.87"/>
<polygon fill="black" stroke="black" points="4852.94,-290.21 4861.82,-284.44 4851.28,-283.41 4852.94,-290.21"/>
<text text-anchor="middle" x="4769.5" y="-328.3" font-family="Dejavu Sans Mono" font-size="14.00">apinatomy:target</text>
</g>
<!-- nkblad_ac_snl26_lnk_7&#45;&gt;nkblad_n_lumspl -->
<g id="edge1" class="edge">
<title>nkblad_ac_snl26_lnk_7&#45;&gt;nkblad_n_lumspl</title>
<path fill="none" stroke="black" d="M4677.34,-368.85C4745.99,-378.26 4839.86,-388.5 4923,-388.5 4923,-388.5 4923,-388.5 5783,-388.5 5892.66,-388.5 6016.44,-381.69 6109.73,-375.18"/>
<polygon fill="black" stroke="black" points="6110.07,-378.66 6119.8,-374.47 6109.58,-371.68 6110.07,-378.66"/>
<text text-anchor="middle" x="5332.5" y="-392.3" font-family="Dejavu Sans Mono" font-size="14.00">apinatomy:fasciculatesIn</text>
</g>
<!-- nkblad_ac_snl16_lnk_7&#45;&gt;nkblad_ns23 -->
<g id="edge50" class="edge">
<title>nkblad_ac_snl16_lnk_7&#45;&gt;nkblad_ns23</title>
<path fill="none" stroke="black" d="M4677.12,-270.21C4732.76,-270.05 4801.14,-269.85 4851.65,-269.71"/>
<polygon fill="black" stroke="black" points="4851.84,-273.21 4861.83,-269.68 4851.82,-266.21 4851.84,-273.21"/>
<text text-anchor="middle" x="4769.5" y="-274.3" font-family="Dejavu Sans Mono" font-size="14.00">apinatomy:target</text>
</g>
<!-- nkblad_ac_snl16_lnk_7&#45;&gt;nkblad_n_lumspl -->
<g id="edge91" class="edge">
<title>nkblad_ac_snl16_lnk_7&#45;&gt;nkblad_n_lumspl</title>
<path fill="none" stroke="black" d="M4612.31,-289.71C4634.87,-301.7 4665.79,-316.2 4695,-323.5 4793.49,-348.12 4821.48,-337.5 4923,-337.5 4923,-337.5 4923,-337.5 5783,-337.5 5892.67,-337.5 6016.45,-344.58 6109.74,-351.36"/>
<polygon fill="black" stroke="black" points="6109.58,-354.86 6119.81,-352.1 6110.09,-347.87 6109.58,-354.86"/>
<text text-anchor="middle" x="5332.5" y="-341.3" font-family="Dejavu Sans Mono" font-size="14.00">apinatomy:fasciculatesIn</text>
</g>
<!-- nkblad_ac_snl16_lnk_1&#45;&gt;nkblad_ref_mat_K_83_K_129_K22_7 -->
<g id="edge28" class="edge">
<title>nkblad_ac_snl16_lnk_1&#45;&gt;nkblad_ref_mat_K_83_K_129_K22_7</title>
<path fill="none" stroke="black" d="M1158.68,-774.17C1253.82,-767.06 1402.37,-755.97 1532.23,-746.27"/>
<polygon fill="black" stroke="black" points="1532.63,-749.75 1542.34,-745.52 1532.11,-742.77 1532.63,-749.75"/>
<text text-anchor="middle" x="1354.5" y="-771.3" font-family="Dejavu Sans Mono" font-size="14.00">apinatomy:fasciculatesIn</text>
</g>
<!-- nkblad_ac_snl16_lnk_1&#45;&gt;nkblad_ac_snl16_lnk_2 -->
<g id="edge67" class="edge">
<title>nkblad_ac_snl16_lnk_1&#45;&gt;nkblad_ac_snl16_lnk_2</title>
<path fill="none" stroke="black" d="M1158.68,-786.17C1296.37,-792.71 1545.93,-804.57 1688.81,-811.36"/>
<polygon fill="black" stroke="black" points="1688.75,-814.86 1698.91,-811.84 1689.08,-807.87 1688.75,-814.86"/>
<text text-anchor="middle" x="1354.5" y="-804.3" font-family="Dejavu Sans Mono" font-size="14.00">apinatomy:next</text>
</g>
<!-- nkblad_ac_l1l26a_lnk_1&#45;&gt;nkblad_n_lumspl -->
<g id="edge88" class="edge">
<title>nkblad_ac_l1l26a_lnk_1&#45;&gt;nkblad_n_lumspl</title>
<path fill="none" stroke="black" d="M5815.84,-205.56C5839.54,-218.79 5872.57,-236.17 5903,-248.5 5988.62,-283.18 6014.28,-279.53 6102,-308.5 6132.69,-318.63 6166.53,-330.71 6194.57,-340.95"/>
<polygon fill="black" stroke="black" points="6193.64,-344.34 6204.23,-344.5 6196.05,-337.77 6193.64,-344.34"/>
<text text-anchor="middle" x="6002.5" y="-312.3" font-family="Dejavu Sans Mono" font-size="14.00">apinatomy:fasciculatesIn</text>
</g>
<!-- nkblad_ac_l1l26a_lnk_1&#45;&gt;nkblad_ac_l1l26a_lnk_2 -->
<g id="edge25" class="edge">
<title>nkblad_ac_l1l26a_lnk_1&#45;&gt;nkblad_ac_l1l26a_lnk_2</title>
<path fill="none" stroke="black" d="M5885.13,-175.03C5960.88,-166.53 6064.12,-154.93 6142.29,-146.16"/>
<polygon fill="black" stroke="black" points="6143.11,-149.59 6152.66,-144.99 6142.33,-142.63 6143.11,-149.59"/>
<text text-anchor="middle" x="6002.5" y="-176.3" font-family="Dejavu Sans Mono" font-size="14.00">apinatomy:next</text>
</g>
<!-- nPMID_3225349&#45;&gt;nelements_External -->
<g id="edge82" class="edge">
<title>nPMID_3225349&#45;&gt;nelements_External</title>
<path fill="none" stroke="black" d="M1125.62,-602.49C1203.97,-592.38 1339.28,-573.38 1454,-549.5 1547.35,-530.07 1653.3,-501.21 1722.43,-481.44"/>
<polygon fill="black" stroke="black" points="1723.71,-484.71 1732.35,-478.59 1721.78,-477.98 1723.71,-484.71"/>
<text text-anchor="middle" x="1354.5" y="-587.3" font-family="Dejavu Sans Mono" font-size="14.00">type</text>
</g>
<!-- nkblad_ac_l1l26a_lnk_4&#45;&gt;nkblad_K104 -->
<g id="edge24" class="edge">
<title>nkblad_ac_l1l26a_lnk_4&#45;&gt;nkblad_K104</title>
<path fill="none" stroke="black" d="M7390.53,-226.5C7460.25,-226.5 7552.52,-226.5 7623.57,-226.5"/>
<polygon fill="black" stroke="black" points="7623.9,-230 7633.9,-226.5 7623.9,-223 7623.9,-230"/>
<text text-anchor="middle" x="7516.5" y="-230.3" font-family="Dejavu Sans Mono" font-size="14.00">apinatomy:fasciculatesIn</text>
</g>
</g>
</svg>
