<?xml version="1.0" encoding="UTF-8" standalone="no"?>
<!DOCTYPE svg PUBLIC "-//W3C//DTD SVG 1.1//EN"
 "http://www.w3.org/Graphics/SVG/1.1/DTD/svg11.dtd">
<!-- Generated by graphviz version 2.47.1 (20210417.1919)
 -->
<!-- Pages: 1 -->
<svg width="2874pt" height="1605pt"
 viewBox="0.00 0.00 2874.00 1604.50" xmlns="http://www.w3.org/2000/svg" xmlns:xlink="http://www.w3.org/1999/xlink">
<g id="graph0" class="graph" transform="scale(1 1) rotate(0) translate(4 1600.5)">
<polygon fill="white" stroke="transparent" points="-4,4 -4,-1600.5 2870,-1600.5 2870,4 -4,4"/>
<!-- nUBERON_0018683 -->
<g id="node1" class="node">
<title>nUBERON_0018683</title>
<path fill="none" stroke="black" d="M2358,-114.5C2358,-114.5 2483,-114.5 2483,-114.5 2489,-114.5 2495,-120.5 2495,-126.5 2495,-126.5 2495,-140.5 2495,-140.5 2495,-146.5 2489,-152.5 2483,-152.5 2483,-152.5 2358,-152.5 2358,-152.5 2352,-152.5 2346,-146.5 2346,-140.5 2346,-140.5 2346,-126.5 2346,-126.5 2346,-120.5 2352,-114.5 2358,-114.5"/>
<text text-anchor="middle" x="2420.5" y="-137.3" font-family="Dejavu Sans Mono" font-size="14.00">MISSING LABEL</text>
<text text-anchor="middle" x="2420.5" y="-122.3" font-family="Dejavu Sans Mono" font-size="14.00">(UBERON:0018683)</text>
</g>
<!-- nkblad_K92 -->
<g id="node2" class="node">
<title>nkblad_K92</title>
<path fill="none" stroke="black" d="M1715,-855.5C1715,-855.5 1881,-855.5 1881,-855.5 1887,-855.5 1893,-861.5 1893,-867.5 1893,-867.5 1893,-881.5 1893,-881.5 1893,-887.5 1887,-893.5 1881,-893.5 1881,-893.5 1715,-893.5 1715,-893.5 1709,-893.5 1703,-887.5 1703,-881.5 1703,-881.5 1703,-867.5 1703,-867.5 1703,-861.5 1709,-855.5 1715,-855.5"/>
<text text-anchor="middle" x="1798" y="-878.3" font-family="Dejavu Sans Mono" font-size="14.00">L1 gray ramus (kblad)</text>
<text text-anchor="middle" x="1798" y="-863.3" font-family="Dejavu Sans Mono" font-size="14.00">(kblad:K92)</text>
</g>
<!-- nFMA_65910 -->
<g id="node3" class="node">
<title>nFMA_65910</title>
<path fill="none" stroke="black" d="M2370.5,-855.5C2370.5,-855.5 2470.5,-855.5 2470.5,-855.5 2476.5,-855.5 2482.5,-861.5 2482.5,-867.5 2482.5,-867.5 2482.5,-881.5 2482.5,-881.5 2482.5,-887.5 2476.5,-893.5 2470.5,-893.5 2470.5,-893.5 2370.5,-893.5 2370.5,-893.5 2364.5,-893.5 2358.5,-887.5 2358.5,-881.5 2358.5,-881.5 2358.5,-867.5 2358.5,-867.5 2358.5,-861.5 2364.5,-855.5 2370.5,-855.5"/>
<text text-anchor="middle" x="2420.5" y="-878.3" font-family="Dejavu Sans Mono" font-size="14.00">MISSING LABEL</text>
<text text-anchor="middle" x="2420.5" y="-863.3" font-family="Dejavu Sans Mono" font-size="14.00">(FMA:65910)</text>
</g>
<!-- nkblad_K92&#45;&gt;nFMA_65910 -->
<g id="edge12" class="edge">
<title>nkblad_K92&#45;&gt;nFMA_65910</title>
<path fill="none" stroke="black" d="M1893.24,-874.5C2018.17,-874.5 2235.87,-874.5 2348.09,-874.5"/>
<polygon fill="black" stroke="black" points="2348.29,-878 2358.29,-874.5 2348.29,-871 2348.29,-878"/>
<text text-anchor="middle" x="2216.5" y="-878.3" font-family="Dejavu Sans Mono" font-size="14.00">apinatomy:external</text>
</g>
<!-- nkblad_ac_snl26_lnk_5 -->
<g id="node4" class="node">
<title>nkblad_ac_snl26_lnk_5</title>
<path fill="none" stroke="black" d="M972.5,-1539.5C972.5,-1539.5 1146.5,-1539.5 1146.5,-1539.5 1152.5,-1539.5 1158.5,-1545.5 1158.5,-1551.5 1158.5,-1551.5 1158.5,-1565.5 1158.5,-1565.5 1158.5,-1571.5 1152.5,-1577.5 1146.5,-1577.5 1146.5,-1577.5 972.5,-1577.5 972.5,-1577.5 966.5,-1577.5 960.5,-1571.5 960.5,-1565.5 960.5,-1565.5 960.5,-1551.5 960.5,-1551.5 960.5,-1545.5 966.5,-1539.5 972.5,-1539.5"/>
<text text-anchor="middle" x="1059.5" y="-1562.3" font-family="Dejavu Sans Mono" font-size="14.00">MISSING LABEL</text>
<text text-anchor="middle" x="1059.5" y="-1547.3" font-family="Dejavu Sans Mono" font-size="14.00">(kblad:ac&#45;snl26_lnk_5)</text>
</g>
<!-- nkblad_K81 -->
<g id="node27" class="node">
<title>nkblad_K81</title>
<path fill="none" stroke="black" d="M1674,-1539.5C1674,-1539.5 1922,-1539.5 1922,-1539.5 1928,-1539.5 1934,-1545.5 1934,-1551.5 1934,-1551.5 1934,-1565.5 1934,-1565.5 1934,-1571.5 1928,-1577.5 1922,-1577.5 1922,-1577.5 1674,-1577.5 1674,-1577.5 1668,-1577.5 1662,-1571.5 1662,-1565.5 1662,-1565.5 1662,-1551.5 1662,-1551.5 1662,-1545.5 1668,-1539.5 1674,-1539.5"/>
<text text-anchor="middle" x="1798" y="-1562.3" font-family="Dejavu Sans Mono" font-size="14.00">L2 sympathetic ganglion (kblad)</text>
<text text-anchor="middle" x="1798" y="-1547.3" font-family="Dejavu Sans Mono" font-size="14.00">(kblad:K81)</text>
</g>
<!-- nkblad_ac_snl26_lnk_5&#45;&gt;nkblad_K81 -->
<g id="edge70" class="edge">
<title>nkblad_ac_snl26_lnk_5&#45;&gt;nkblad_K81</title>
<path fill="none" stroke="black" d="M1158.68,-1558.5C1284.99,-1558.5 1505.44,-1558.5 1651.32,-1558.5"/>
<polygon fill="black" stroke="black" points="1651.69,-1562 1661.69,-1558.5 1651.69,-1555 1651.69,-1562"/>
<text text-anchor="middle" x="1354.5" y="-1562.3" font-family="Dejavu Sans Mono" font-size="14.00">apinatomy:fasciculatesIn</text>
</g>
<!-- nUBERON_0016508 -->
<g id="node5" class="node">
<title>nUBERON_0016508</title>
<path fill="none" stroke="black" d="M2358,-0.5C2358,-0.5 2483,-0.5 2483,-0.5 2489,-0.5 2495,-6.5 2495,-12.5 2495,-12.5 2495,-26.5 2495,-26.5 2495,-32.5 2489,-38.5 2483,-38.5 2483,-38.5 2358,-38.5 2358,-38.5 2352,-38.5 2346,-32.5 2346,-26.5 2346,-26.5 2346,-12.5 2346,-12.5 2346,-6.5 2352,-0.5 2358,-0.5"/>
<text text-anchor="middle" x="2420.5" y="-23.3" font-family="Dejavu Sans Mono" font-size="14.00">pelvic ganglion</text>
<text text-anchor="middle" x="2420.5" y="-8.3" font-family="Dejavu Sans Mono" font-size="14.00">(UBERON:0016508)</text>
</g>
<!-- nkblad_ref_mat_KM_27_K_129_K22_14 -->
<g id="node6" class="node">
<title>nkblad_ref_mat_KM_27_K_129_K22_14</title>
<path fill="none" stroke="black" d="M1566.5,-642.5C1566.5,-642.5 2029.5,-642.5 2029.5,-642.5 2035.5,-642.5 2041.5,-648.5 2041.5,-654.5 2041.5,-654.5 2041.5,-668.5 2041.5,-668.5 2041.5,-674.5 2035.5,-680.5 2029.5,-680.5 2029.5,-680.5 1566.5,-680.5 1566.5,-680.5 1560.5,-680.5 1554.5,-674.5 1554.5,-668.5 1554.5,-668.5 1554.5,-654.5 1554.5,-654.5 1554.5,-648.5 1560.5,-642.5 1566.5,-642.5"/>
<text text-anchor="middle" x="1798" y="-665.3" font-family="Dejavu Sans Mono" font-size="14.00">White matter of CNS in L1 spinal segment (kblad) layer 14</text>
<text text-anchor="middle" x="1798" y="-650.3" font-family="Dejavu Sans Mono" font-size="14.00">(kblad:ref_mat_KM_27_K_129_K22_14)</text>
</g>
<!-- nkblad_K22 -->
<g id="node52" class="node">
<title>nkblad_K22</title>
<path fill="none" stroke="black" d="M2321,-701.5C2321,-701.5 2520,-701.5 2520,-701.5 2526,-701.5 2532,-707.5 2532,-713.5 2532,-713.5 2532,-727.5 2532,-727.5 2532,-733.5 2526,-739.5 2520,-739.5 2520,-739.5 2321,-739.5 2321,-739.5 2315,-739.5 2309,-733.5 2309,-727.5 2309,-727.5 2309,-713.5 2309,-713.5 2309,-707.5 2315,-701.5 2321,-701.5"/>
<text text-anchor="middle" x="2420.5" y="-724.3" font-family="Dejavu Sans Mono" font-size="14.00">L1 spinal segment (kblad)</text>
<text text-anchor="middle" x="2420.5" y="-709.3" font-family="Dejavu Sans Mono" font-size="14.00">(kblad:K22)</text>
</g>
<!-- nkblad_ref_mat_KM_27_K_129_K22_14&#45;&gt;nkblad_K22 -->
<g id="edge6" class="edge">
<title>nkblad_ref_mat_KM_27_K_129_K22_14&#45;&gt;nkblad_K22</title>
<path fill="none" stroke="black" d="M2006.1,-680.51C2093.97,-688.67 2197.5,-698.4 2291,-707.5 2293.54,-707.75 2296.11,-708 2298.69,-708.25"/>
<polygon fill="black" stroke="black" points="2298.46,-711.75 2308.76,-709.24 2299.15,-704.78 2298.46,-711.75"/>
<text text-anchor="middle" x="2216.5" y="-711.3" font-family="Dejavu Sans Mono" font-size="14.00">apinatomy:layerIn</text>
</g>
<!-- nkblad_ac_snl16_lnk_4 -->
<g id="node7" class="node">
<title>nkblad_ac_snl16_lnk_4</title>
<path fill="none" stroke="black" d="M972.5,-1482.5C972.5,-1482.5 1146.5,-1482.5 1146.5,-1482.5 1152.5,-1482.5 1158.5,-1488.5 1158.5,-1494.5 1158.5,-1494.5 1158.5,-1508.5 1158.5,-1508.5 1158.5,-1514.5 1152.5,-1520.5 1146.5,-1520.5 1146.5,-1520.5 972.5,-1520.5 972.5,-1520.5 966.5,-1520.5 960.5,-1514.5 960.5,-1508.5 960.5,-1508.5 960.5,-1494.5 960.5,-1494.5 960.5,-1488.5 966.5,-1482.5 972.5,-1482.5"/>
<text text-anchor="middle" x="1059.5" y="-1505.3" font-family="Dejavu Sans Mono" font-size="14.00">MISSING LABEL</text>
<text text-anchor="middle" x="1059.5" y="-1490.3" font-family="Dejavu Sans Mono" font-size="14.00">(kblad:ac&#45;snl16_lnk_4)</text>
</g>
<!-- nkblad_K88 -->
<g id="node42" class="node">
<title>nkblad_K88</title>
<path fill="none" stroke="black" d="M1711,-1482.5C1711,-1482.5 1885,-1482.5 1885,-1482.5 1891,-1482.5 1897,-1488.5 1897,-1494.5 1897,-1494.5 1897,-1508.5 1897,-1508.5 1897,-1514.5 1891,-1520.5 1885,-1520.5 1885,-1520.5 1711,-1520.5 1711,-1520.5 1705,-1520.5 1699,-1514.5 1699,-1508.5 1699,-1508.5 1699,-1494.5 1699,-1494.5 1699,-1488.5 1705,-1482.5 1711,-1482.5"/>
<text text-anchor="middle" x="1798" y="-1505.3" font-family="Dejavu Sans Mono" font-size="14.00">L1 white ramus (kblad)</text>
<text text-anchor="middle" x="1798" y="-1490.3" font-family="Dejavu Sans Mono" font-size="14.00">(kblad:K88)</text>
</g>
<!-- nkblad_ac_snl16_lnk_4&#45;&gt;nkblad_K88 -->
<g id="edge28" class="edge">
<title>nkblad_ac_snl16_lnk_4&#45;&gt;nkblad_K88</title>
<path fill="none" stroke="black" d="M1158.68,-1501.5C1296.37,-1501.5 1545.93,-1501.5 1688.81,-1501.5"/>
<polygon fill="black" stroke="black" points="1688.91,-1505 1698.91,-1501.5 1688.91,-1498 1688.91,-1505"/>
<text text-anchor="middle" x="1354.5" y="-1505.3" font-family="Dejavu Sans Mono" font-size="14.00">apinatomy:fasciculatesIn</text>
</g>
<!-- nkblad_K23 -->
<g id="node8" class="node">
<title>nkblad_K23</title>
<path fill="none" stroke="black" d="M2321,-1054.5C2321,-1054.5 2520,-1054.5 2520,-1054.5 2526,-1054.5 2532,-1060.5 2532,-1066.5 2532,-1066.5 2532,-1080.5 2532,-1080.5 2532,-1086.5 2526,-1092.5 2520,-1092.5 2520,-1092.5 2321,-1092.5 2321,-1092.5 2315,-1092.5 2309,-1086.5 2309,-1080.5 2309,-1080.5 2309,-1066.5 2309,-1066.5 2309,-1060.5 2315,-1054.5 2321,-1054.5"/>
<text text-anchor="middle" x="2420.5" y="-1077.3" font-family="Dejavu Sans Mono" font-size="14.00">L2 spinal segment (kblad)</text>
<text text-anchor="middle" x="2420.5" y="-1062.3" font-family="Dejavu Sans Mono" font-size="14.00">(kblad:K23)</text>
</g>
<!-- nUBERON_0006450 -->
<g id="node16" class="node">
<title>nUBERON_0006450</title>
<path fill="none" stroke="black" d="M2729,-1054.5C2729,-1054.5 2854,-1054.5 2854,-1054.5 2860,-1054.5 2866,-1060.5 2866,-1066.5 2866,-1066.5 2866,-1080.5 2866,-1080.5 2866,-1086.5 2860,-1092.5 2854,-1092.5 2854,-1092.5 2729,-1092.5 2729,-1092.5 2723,-1092.5 2717,-1086.5 2717,-1080.5 2717,-1080.5 2717,-1066.5 2717,-1066.5 2717,-1060.5 2723,-1054.5 2729,-1054.5"/>
<text text-anchor="middle" x="2791.5" y="-1077.3" font-family="Dejavu Sans Mono" font-size="14.00">MISSING LABEL</text>
<text text-anchor="middle" x="2791.5" y="-1062.3" font-family="Dejavu Sans Mono" font-size="14.00">(UBERON:0006450)</text>
</g>
<!-- nkblad_K23&#45;&gt;nUBERON_0006450 -->
<g id="edge55" class="edge">
<title>nkblad_K23&#45;&gt;nUBERON_0006450</title>
<path fill="none" stroke="black" d="M2532.21,-1073.5C2588.24,-1073.5 2655.13,-1073.5 2706.8,-1073.5"/>
<polygon fill="black" stroke="black" points="2706.92,-1077 2716.92,-1073.5 2706.92,-1070 2706.92,-1077"/>
<text text-anchor="middle" x="2624.5" y="-1077.3" font-family="Dejavu Sans Mono" font-size="14.00">apinatomy:external</text>
</g>
<!-- nkblad_dc_snl16_lnk_1 -->
<g id="node9" class="node">
<title>nkblad_dc_snl16_lnk_1</title>
<path fill="none" stroke="black" d="M972.5,-684.5C972.5,-684.5 1146.5,-684.5 1146.5,-684.5 1152.5,-684.5 1158.5,-690.5 1158.5,-696.5 1158.5,-696.5 1158.5,-710.5 1158.5,-710.5 1158.5,-716.5 1152.5,-722.5 1146.5,-722.5 1146.5,-722.5 972.5,-722.5 972.5,-722.5 966.5,-722.5 960.5,-716.5 960.5,-710.5 960.5,-710.5 960.5,-696.5 960.5,-696.5 960.5,-690.5 966.5,-684.5 972.5,-684.5"/>
<text text-anchor="middle" x="1059.5" y="-707.3" font-family="Dejavu Sans Mono" font-size="14.00">MISSING LABEL</text>
<text text-anchor="middle" x="1059.5" y="-692.3" font-family="Dejavu Sans Mono" font-size="14.00">(kblad:dc&#45;snl16_lnk_1)</text>
</g>
<!-- nkblad_ref_mat_K_83_K_129_K22_7 -->
<g id="node25" class="node">
<title>nkblad_ref_mat_K_83_K_129_K22_7</title>
<path fill="none" stroke="black" d="M1484,-727.5C1484,-727.5 2112,-727.5 2112,-727.5 2118,-727.5 2124,-733.5 2124,-739.5 2124,-739.5 2124,-753.5 2124,-753.5 2124,-759.5 2118,-765.5 2112,-765.5 2112,-765.5 1484,-765.5 1484,-765.5 1478,-765.5 1472,-759.5 1472,-753.5 1472,-753.5 1472,-739.5 1472,-739.5 1472,-733.5 1478,-727.5 1484,-727.5"/>
<text text-anchor="middle" x="1798" y="-750.3" font-family="Dejavu Sans Mono" font-size="14.00">lamina VII of gray matter of spinal cord in L1 spinal segment (kblad) layer 7</text>
<text text-anchor="middle" x="1798" y="-735.3" font-family="Dejavu Sans Mono" font-size="14.00">(kblad:ref_mat_K_83_K_129_K22_7)</text>
</g>
<!-- nkblad_dc_snl16_lnk_1&#45;&gt;nkblad_ref_mat_K_83_K_129_K22_7 -->
<g id="edge65" class="edge">
<title>nkblad_dc_snl16_lnk_1&#45;&gt;nkblad_ref_mat_K_83_K_129_K22_7</title>
<path fill="none" stroke="black" d="M1158.68,-709.23C1237,-713.8 1351.5,-720.49 1461.99,-726.94"/>
<polygon fill="black" stroke="black" points="1461.79,-730.43 1471.98,-727.52 1462.2,-723.45 1461.79,-730.43"/>
<text text-anchor="middle" x="1354.5" y="-730.3" font-family="Dejavu Sans Mono" font-size="14.00">apinatomy:fasciculatesIn</text>
</g>
<!-- nPMID_3558884 -->
<g id="node10" class="node">
<title>nPMID_3558884</title>
<path fill="none" stroke="black" d="M1005.5,-456.5C1005.5,-456.5 1113.5,-456.5 1113.5,-456.5 1119.5,-456.5 1125.5,-462.5 1125.5,-468.5 1125.5,-468.5 1125.5,-482.5 1125.5,-482.5 1125.5,-488.5 1119.5,-494.5 1113.5,-494.5 1113.5,-494.5 1005.5,-494.5 1005.5,-494.5 999.5,-494.5 993.5,-488.5 993.5,-482.5 993.5,-482.5 993.5,-468.5 993.5,-468.5 993.5,-462.5 999.5,-456.5 1005.5,-456.5"/>
<text text-anchor="middle" x="1059.5" y="-479.3" font-family="Dejavu Sans Mono" font-size="14.00">MISSING LABEL</text>
<text text-anchor="middle" x="1059.5" y="-464.3" font-family="Dejavu Sans Mono" font-size="14.00">(PMID:3558884)</text>
</g>
<!-- nelements_External -->
<g id="node46" class="node">
<title>nelements_External</title>
<path fill="none" stroke="black" d="M1723.5,-428.5C1723.5,-428.5 1872.5,-428.5 1872.5,-428.5 1878.5,-428.5 1884.5,-434.5 1884.5,-440.5 1884.5,-440.5 1884.5,-454.5 1884.5,-454.5 1884.5,-460.5 1878.5,-466.5 1872.5,-466.5 1872.5,-466.5 1723.5,-466.5 1723.5,-466.5 1717.5,-466.5 1711.5,-460.5 1711.5,-454.5 1711.5,-454.5 1711.5,-440.5 1711.5,-440.5 1711.5,-434.5 1717.5,-428.5 1723.5,-428.5"/>
<text text-anchor="middle" x="1798" y="-451.3" font-family="Dejavu Sans Mono" font-size="14.00">MISSING LABEL</text>
<text text-anchor="middle" x="1798" y="-436.3" font-family="Dejavu Sans Mono" font-size="14.00">(elements:External)</text>
</g>
<!-- nPMID_3558884&#45;&gt;nelements_External -->
<g id="edge29" class="edge">
<title>nPMID_3558884&#45;&gt;nelements_External</title>
<path fill="none" stroke="black" d="M1125.54,-473.03C1255.69,-468.08 1548.73,-456.94 1701.02,-451.15"/>
<polygon fill="black" stroke="black" points="1701.43,-454.64 1711.29,-450.76 1701.16,-447.64 1701.43,-454.64"/>
<text text-anchor="middle" x="1354.5" y="-472.3" font-family="Dejavu Sans Mono" font-size="14.00">type</text>
</g>
<!-- nFMA_6541 -->
<g id="node11" class="node">
<title>nFMA_6541</title>
<path fill="none" stroke="black" d="M2370.5,-1539.5C2370.5,-1539.5 2470.5,-1539.5 2470.5,-1539.5 2476.5,-1539.5 2482.5,-1545.5 2482.5,-1551.5 2482.5,-1551.5 2482.5,-1565.5 2482.5,-1565.5 2482.5,-1571.5 2476.5,-1577.5 2470.5,-1577.5 2470.5,-1577.5 2370.5,-1577.5 2370.5,-1577.5 2364.5,-1577.5 2358.5,-1571.5 2358.5,-1565.5 2358.5,-1565.5 2358.5,-1551.5 2358.5,-1551.5 2358.5,-1545.5 2364.5,-1539.5 2370.5,-1539.5"/>
<text text-anchor="middle" x="2420.5" y="-1562.3" font-family="Dejavu Sans Mono" font-size="14.00">MISSING LABEL</text>
<text text-anchor="middle" x="2420.5" y="-1547.3" font-family="Dejavu Sans Mono" font-size="14.00">(FMA:6541)</text>
</g>
<!-- nkblad_ref_mat_K_83_K_129_K23_7 -->
<g id="node12" class="node">
<title>nkblad_ref_mat_K_83_K_129_K23_7</title>
<path fill="none" stroke="black" d="M1484,-1120.5C1484,-1120.5 2112,-1120.5 2112,-1120.5 2118,-1120.5 2124,-1126.5 2124,-1132.5 2124,-1132.5 2124,-1146.5 2124,-1146.5 2124,-1152.5 2118,-1158.5 2112,-1158.5 2112,-1158.5 1484,-1158.5 1484,-1158.5 1478,-1158.5 1472,-1152.5 1472,-1146.5 1472,-1146.5 1472,-1132.5 1472,-1132.5 1472,-1126.5 1478,-1120.5 1484,-1120.5"/>
<text text-anchor="middle" x="1798" y="-1143.3" font-family="Dejavu Sans Mono" font-size="14.00">lamina VII of gray matter of spinal cord in L2 spinal segment (kblad) layer 7</text>
<text text-anchor="middle" x="1798" y="-1128.3" font-family="Dejavu Sans Mono" font-size="14.00">(kblad:ref_mat_K_83_K_129_K23_7)</text>
</g>
<!-- nkblad_ref_mat_K_83_K_129_K23_7&#45;&gt;nkblad_K23 -->
<g id="edge64" class="edge">
<title>nkblad_ref_mat_K_83_K_129_K23_7&#45;&gt;nkblad_K23</title>
<path fill="none" stroke="black" d="M1977.64,-1120.5C2080.65,-1109.54 2207.42,-1096.06 2298.72,-1086.35"/>
<polygon fill="black" stroke="black" points="2299.26,-1089.81 2308.83,-1085.27 2298.52,-1082.85 2299.26,-1089.81"/>
<text text-anchor="middle" x="2216.5" y="-1106.3" font-family="Dejavu Sans Mono" font-size="14.00">apinatomy:layerIn</text>
</g>
<!-- nFMA_6540 -->
<g id="node13" class="node">
<title>nFMA_6540</title>
<path fill="none" stroke="black" d="M2370.5,-912.5C2370.5,-912.5 2470.5,-912.5 2470.5,-912.5 2476.5,-912.5 2482.5,-918.5 2482.5,-924.5 2482.5,-924.5 2482.5,-938.5 2482.5,-938.5 2482.5,-944.5 2476.5,-950.5 2470.5,-950.5 2470.5,-950.5 2370.5,-950.5 2370.5,-950.5 2364.5,-950.5 2358.5,-944.5 2358.5,-938.5 2358.5,-938.5 2358.5,-924.5 2358.5,-924.5 2358.5,-918.5 2364.5,-912.5 2370.5,-912.5"/>
<text text-anchor="middle" x="2420.5" y="-935.3" font-family="Dejavu Sans Mono" font-size="14.00">MISSING LABEL</text>
<text text-anchor="middle" x="2420.5" y="-920.3" font-family="Dejavu Sans Mono" font-size="14.00">(FMA:6540)</text>
</g>
<!-- nkblad_snl26 -->
<g id="node14" class="node">
<title>nkblad_snl26</title>
<path fill="none" stroke="black" d="M894,-1197.5C894,-1197.5 1225,-1197.5 1225,-1197.5 1231,-1197.5 1237,-1203.5 1237,-1209.5 1237,-1209.5 1237,-1223.5 1237,-1223.5 1237,-1229.5 1231,-1235.5 1225,-1235.5 1225,-1235.5 894,-1235.5 894,-1235.5 888,-1235.5 882,-1229.5 882,-1223.5 882,-1223.5 882,-1209.5 882,-1209.5 882,-1203.5 888,-1197.5 894,-1197.5"/>
<text text-anchor="middle" x="1059.5" y="-1220.3" font-family="Dejavu Sans Mono" font-size="14.00">Soma of SPR neuron in L2_Neuron 6 (kblad)</text>
<text text-anchor="middle" x="1059.5" y="-1205.3" font-family="Dejavu Sans Mono" font-size="14.00">(kblad:snl26)</text>
</g>
<!-- nkblad_snl26&#45;&gt;nkblad_ref_mat_K_83_K_129_K23_7 -->
<g id="edge15" class="edge">
<title>nkblad_snl26&#45;&gt;nkblad_ref_mat_K_83_K_129_K23_7</title>
<path fill="none" stroke="black" d="M1237.38,-1198.01C1348.31,-1186.41 1491.31,-1171.46 1605,-1159.57"/>
<polygon fill="black" stroke="black" points="1605.63,-1163.03 1615.21,-1158.51 1604.9,-1156.07 1605.63,-1163.03"/>
<text text-anchor="middle" x="1354.5" y="-1199.3" font-family="Dejavu Sans Mono" font-size="14.00">apinatomy:internalIn</text>
</g>
<!-- nkblad_ac_snl26_lnk_6 -->
<g id="node15" class="node">
<title>nkblad_ac_snl26_lnk_6</title>
<path fill="none" stroke="black" d="M972.5,-1425.5C972.5,-1425.5 1146.5,-1425.5 1146.5,-1425.5 1152.5,-1425.5 1158.5,-1431.5 1158.5,-1437.5 1158.5,-1437.5 1158.5,-1451.5 1158.5,-1451.5 1158.5,-1457.5 1152.5,-1463.5 1146.5,-1463.5 1146.5,-1463.5 972.5,-1463.5 972.5,-1463.5 966.5,-1463.5 960.5,-1457.5 960.5,-1451.5 960.5,-1451.5 960.5,-1437.5 960.5,-1437.5 960.5,-1431.5 966.5,-1425.5 972.5,-1425.5"/>
<text text-anchor="middle" x="1059.5" y="-1448.3" font-family="Dejavu Sans Mono" font-size="14.00">MISSING LABEL</text>
<text text-anchor="middle" x="1059.5" y="-1433.3" font-family="Dejavu Sans Mono" font-size="14.00">(kblad:ac&#45;snl26_lnk_6)</text>
</g>
<!-- nkblad_K93 -->
<g id="node19" class="node">
<title>nkblad_K93</title>
<path fill="none" stroke="black" d="M1715,-1425.5C1715,-1425.5 1881,-1425.5 1881,-1425.5 1887,-1425.5 1893,-1431.5 1893,-1437.5 1893,-1437.5 1893,-1451.5 1893,-1451.5 1893,-1457.5 1887,-1463.5 1881,-1463.5 1881,-1463.5 1715,-1463.5 1715,-1463.5 1709,-1463.5 1703,-1457.5 1703,-1451.5 1703,-1451.5 1703,-1437.5 1703,-1437.5 1703,-1431.5 1709,-1425.5 1715,-1425.5"/>
<text text-anchor="middle" x="1798" y="-1448.3" font-family="Dejavu Sans Mono" font-size="14.00">L2 gray ramus (kblad)</text>
<text text-anchor="middle" x="1798" y="-1433.3" font-family="Dejavu Sans Mono" font-size="14.00">(kblad:K93)</text>
</g>
<!-- nkblad_ac_snl26_lnk_6&#45;&gt;nkblad_K93 -->
<g id="edge74" class="edge">
<title>nkblad_ac_snl26_lnk_6&#45;&gt;nkblad_K93</title>
<path fill="none" stroke="black" d="M1158.68,-1444.5C1297.7,-1444.5 1550.79,-1444.5 1692.94,-1444.5"/>
<polygon fill="black" stroke="black" points="1692.98,-1448 1702.98,-1444.5 1692.98,-1441 1692.98,-1448"/>
<text text-anchor="middle" x="1354.5" y="-1448.3" font-family="Dejavu Sans Mono" font-size="14.00">apinatomy:fasciculatesIn</text>
</g>
<!-- nUBERON_0005453 -->
<g id="node17" class="node">
<title>nUBERON_0005453</title>
<path fill="none" stroke="black" d="M2358,-228.5C2358,-228.5 2483,-228.5 2483,-228.5 2489,-228.5 2495,-234.5 2495,-240.5 2495,-240.5 2495,-254.5 2495,-254.5 2495,-260.5 2489,-266.5 2483,-266.5 2483,-266.5 2358,-266.5 2358,-266.5 2352,-266.5 2346,-260.5 2346,-254.5 2346,-254.5 2346,-240.5 2346,-240.5 2346,-234.5 2352,-228.5 2358,-228.5"/>
<text text-anchor="middle" x="2420.5" y="-251.3" font-family="Dejavu Sans Mono" font-size="14.00">MISSING LABEL</text>
<text text-anchor="middle" x="2420.5" y="-236.3" font-family="Dejavu Sans Mono" font-size="14.00">(UBERON:0005453)</text>
</g>
<!-- nkblad_ac_snl26_lnk_3 -->
<g id="node18" class="node">
<title>nkblad_ac_snl26_lnk_3</title>
<path fill="none" stroke="black" d="M972.5,-1368.5C972.5,-1368.5 1146.5,-1368.5 1146.5,-1368.5 1152.5,-1368.5 1158.5,-1374.5 1158.5,-1380.5 1158.5,-1380.5 1158.5,-1394.5 1158.5,-1394.5 1158.5,-1400.5 1152.5,-1406.5 1146.5,-1406.5 1146.5,-1406.5 972.5,-1406.5 972.5,-1406.5 966.5,-1406.5 960.5,-1400.5 960.5,-1394.5 960.5,-1394.5 960.5,-1380.5 960.5,-1380.5 960.5,-1374.5 966.5,-1368.5 972.5,-1368.5"/>
<text text-anchor="middle" x="1059.5" y="-1391.3" font-family="Dejavu Sans Mono" font-size="14.00">MISSING LABEL</text>
<text text-anchor="middle" x="1059.5" y="-1376.3" font-family="Dejavu Sans Mono" font-size="14.00">(kblad:ac&#45;snl26_lnk_3)</text>
</g>
<!-- nkblad_K64 -->
<g id="node22" class="node">
<title>nkblad_K64</title>
<path fill="none" stroke="black" d="M1707,-1368.5C1707,-1368.5 1889,-1368.5 1889,-1368.5 1895,-1368.5 1901,-1374.5 1901,-1380.5 1901,-1380.5 1901,-1394.5 1901,-1394.5 1901,-1400.5 1895,-1406.5 1889,-1406.5 1889,-1406.5 1707,-1406.5 1707,-1406.5 1701,-1406.5 1695,-1400.5 1695,-1394.5 1695,-1394.5 1695,-1380.5 1695,-1380.5 1695,-1374.5 1701,-1368.5 1707,-1368.5"/>
<text text-anchor="middle" x="1798" y="-1391.3" font-family="Dejavu Sans Mono" font-size="14.00">L2 ventral root (kblad)</text>
<text text-anchor="middle" x="1798" y="-1376.3" font-family="Dejavu Sans Mono" font-size="14.00">(kblad:K64)</text>
</g>
<!-- nkblad_ac_snl26_lnk_3&#45;&gt;nkblad_K64 -->
<g id="edge50" class="edge">
<title>nkblad_ac_snl26_lnk_3&#45;&gt;nkblad_K64</title>
<path fill="none" stroke="black" d="M1158.68,-1387.5C1295.03,-1387.5 1541.08,-1387.5 1684.61,-1387.5"/>
<polygon fill="black" stroke="black" points="1684.76,-1391 1694.76,-1387.5 1684.76,-1384 1684.76,-1391"/>
<text text-anchor="middle" x="1354.5" y="-1391.3" font-family="Dejavu Sans Mono" font-size="14.00">apinatomy:fasciculatesIn</text>
</g>
<!-- nFMA_65911 -->
<g id="node33" class="node">
<title>nFMA_65911</title>
<path fill="none" stroke="black" d="M2370.5,-1425.5C2370.5,-1425.5 2470.5,-1425.5 2470.5,-1425.5 2476.5,-1425.5 2482.5,-1431.5 2482.5,-1437.5 2482.5,-1437.5 2482.5,-1451.5 2482.5,-1451.5 2482.5,-1457.5 2476.5,-1463.5 2470.5,-1463.5 2470.5,-1463.5 2370.5,-1463.5 2370.5,-1463.5 2364.5,-1463.5 2358.5,-1457.5 2358.5,-1451.5 2358.5,-1451.5 2358.5,-1437.5 2358.5,-1437.5 2358.5,-1431.5 2364.5,-1425.5 2370.5,-1425.5"/>
<text text-anchor="middle" x="2420.5" y="-1448.3" font-family="Dejavu Sans Mono" font-size="14.00">MISSING LABEL</text>
<text text-anchor="middle" x="2420.5" y="-1433.3" font-family="Dejavu Sans Mono" font-size="14.00">(FMA:65911)</text>
</g>
<!-- nkblad_K93&#45;&gt;nFMA_65911 -->
<g id="edge8" class="edge">
<title>nkblad_K93&#45;&gt;nFMA_65911</title>
<path fill="none" stroke="black" d="M1893.24,-1444.5C2018.17,-1444.5 2235.87,-1444.5 2348.09,-1444.5"/>
<polygon fill="black" stroke="black" points="2348.29,-1448 2358.29,-1444.5 2348.29,-1441 2348.29,-1448"/>
<text text-anchor="middle" x="2216.5" y="-1448.3" font-family="Dejavu Sans Mono" font-size="14.00">apinatomy:external</text>
</g>
<!-- nkblad_dc_snl26_lnk_1 -->
<g id="node20" class="node">
<title>nkblad_dc_snl26_lnk_1</title>
<path fill="none" stroke="black" d="M972.5,-1140.5C972.5,-1140.5 1146.5,-1140.5 1146.5,-1140.5 1152.5,-1140.5 1158.5,-1146.5 1158.5,-1152.5 1158.5,-1152.5 1158.5,-1166.5 1158.5,-1166.5 1158.5,-1172.5 1152.5,-1178.5 1146.5,-1178.5 1146.5,-1178.5 972.5,-1178.5 972.5,-1178.5 966.5,-1178.5 960.5,-1172.5 960.5,-1166.5 960.5,-1166.5 960.5,-1152.5 960.5,-1152.5 960.5,-1146.5 966.5,-1140.5 972.5,-1140.5"/>
<text text-anchor="middle" x="1059.5" y="-1163.3" font-family="Dejavu Sans Mono" font-size="14.00">MISSING LABEL</text>
<text text-anchor="middle" x="1059.5" y="-1148.3" font-family="Dejavu Sans Mono" font-size="14.00">(kblad:dc&#45;snl26_lnk_1)</text>
</g>
<!-- nkblad_dc_snl26_lnk_1&#45;&gt;nkblad_ref_mat_K_83_K_129_K23_7 -->
<g id="edge67" class="edge">
<title>nkblad_dc_snl26_lnk_1&#45;&gt;nkblad_ref_mat_K_83_K_129_K23_7</title>
<path fill="none" stroke="black" d="M1158.68,-1156.83C1236.92,-1154.71 1351.27,-1151.6 1461.65,-1148.61"/>
<polygon fill="black" stroke="black" points="1462.08,-1152.1 1471.98,-1148.33 1461.89,-1145.1 1462.08,-1152.1"/>
<text text-anchor="middle" x="1354.5" y="-1157.3" font-family="Dejavu Sans Mono" font-size="14.00">apinatomy:fasciculatesIn</text>
</g>
<!-- nkblad_ac_snl26_lnk_4 -->
<g id="node21" class="node">
<title>nkblad_ac_snl26_lnk_4</title>
<path fill="none" stroke="black" d="M972.5,-1311.5C972.5,-1311.5 1146.5,-1311.5 1146.5,-1311.5 1152.5,-1311.5 1158.5,-1317.5 1158.5,-1323.5 1158.5,-1323.5 1158.5,-1337.5 1158.5,-1337.5 1158.5,-1343.5 1152.5,-1349.5 1146.5,-1349.5 1146.5,-1349.5 972.5,-1349.5 972.5,-1349.5 966.5,-1349.5 960.5,-1343.5 960.5,-1337.5 960.5,-1337.5 960.5,-1323.5 960.5,-1323.5 960.5,-1317.5 966.5,-1311.5 972.5,-1311.5"/>
<text text-anchor="middle" x="1059.5" y="-1334.3" font-family="Dejavu Sans Mono" font-size="14.00">MISSING LABEL</text>
<text text-anchor="middle" x="1059.5" y="-1319.3" font-family="Dejavu Sans Mono" font-size="14.00">(kblad:ac&#45;snl26_lnk_4)</text>
</g>
<!-- nkblad_K89 -->
<g id="node39" class="node">
<title>nkblad_K89</title>
<path fill="none" stroke="black" d="M1711,-1311.5C1711,-1311.5 1885,-1311.5 1885,-1311.5 1891,-1311.5 1897,-1317.5 1897,-1323.5 1897,-1323.5 1897,-1337.5 1897,-1337.5 1897,-1343.5 1891,-1349.5 1885,-1349.5 1885,-1349.5 1711,-1349.5 1711,-1349.5 1705,-1349.5 1699,-1343.5 1699,-1337.5 1699,-1337.5 1699,-1323.5 1699,-1323.5 1699,-1317.5 1705,-1311.5 1711,-1311.5"/>
<text text-anchor="middle" x="1798" y="-1334.3" font-family="Dejavu Sans Mono" font-size="14.00">L2 white ramus (kblad)</text>
<text text-anchor="middle" x="1798" y="-1319.3" font-family="Dejavu Sans Mono" font-size="14.00">(kblad:K89)</text>
</g>
<!-- nkblad_ac_snl26_lnk_4&#45;&gt;nkblad_K89 -->
<g id="edge61" class="edge">
<title>nkblad_ac_snl26_lnk_4&#45;&gt;nkblad_K89</title>
<path fill="none" stroke="black" d="M1158.68,-1330.5C1296.37,-1330.5 1545.93,-1330.5 1688.81,-1330.5"/>
<polygon fill="black" stroke="black" points="1688.91,-1334 1698.91,-1330.5 1688.91,-1327 1688.91,-1334"/>
<text text-anchor="middle" x="1354.5" y="-1334.3" font-family="Dejavu Sans Mono" font-size="14.00">apinatomy:fasciculatesIn</text>
</g>
<!-- nEMAPA_25271 -->
<g id="node59" class="node">
<title>nEMAPA_25271</title>
<path fill="none" stroke="black" d="M2370.5,-1368.5C2370.5,-1368.5 2470.5,-1368.5 2470.5,-1368.5 2476.5,-1368.5 2482.5,-1374.5 2482.5,-1380.5 2482.5,-1380.5 2482.5,-1394.5 2482.5,-1394.5 2482.5,-1400.5 2476.5,-1406.5 2470.5,-1406.5 2470.5,-1406.5 2370.5,-1406.5 2370.5,-1406.5 2364.5,-1406.5 2358.5,-1400.5 2358.5,-1394.5 2358.5,-1394.5 2358.5,-1380.5 2358.5,-1380.5 2358.5,-1374.5 2364.5,-1368.5 2370.5,-1368.5"/>
<text text-anchor="middle" x="2420.5" y="-1391.3" font-family="Dejavu Sans Mono" font-size="14.00">MISSING LABEL</text>
<text text-anchor="middle" x="2420.5" y="-1376.3" font-family="Dejavu Sans Mono" font-size="14.00">(EMAPA:25271)</text>
</g>
<!-- nkblad_K64&#45;&gt;nEMAPA_25271 -->
<g id="edge30" class="edge">
<title>nkblad_K64&#45;&gt;nEMAPA_25271</title>
<path fill="none" stroke="black" d="M1901.12,-1387.5C2027.09,-1387.5 2238.04,-1387.5 2347.97,-1387.5"/>
<polygon fill="black" stroke="black" points="2348.28,-1391 2358.28,-1387.5 2348.28,-1384 2348.28,-1391"/>
<text text-anchor="middle" x="2216.5" y="-1391.3" font-family="Dejavu Sans Mono" font-size="14.00">apinatomy:external</text>
</g>
<!-- nkblad_ac_snl16_lnk_3 -->
<g id="node23" class="node">
<title>nkblad_ac_snl16_lnk_3</title>
<path fill="none" stroke="black" d="M972.5,-1254.5C972.5,-1254.5 1146.5,-1254.5 1146.5,-1254.5 1152.5,-1254.5 1158.5,-1260.5 1158.5,-1266.5 1158.5,-1266.5 1158.5,-1280.5 1158.5,-1280.5 1158.5,-1286.5 1152.5,-1292.5 1146.5,-1292.5 1146.5,-1292.5 972.5,-1292.5 972.5,-1292.5 966.5,-1292.5 960.5,-1286.5 960.5,-1280.5 960.5,-1280.5 960.5,-1266.5 960.5,-1266.5 960.5,-1260.5 966.5,-1254.5 972.5,-1254.5"/>
<text text-anchor="middle" x="1059.5" y="-1277.3" font-family="Dejavu Sans Mono" font-size="14.00">MISSING LABEL</text>
<text text-anchor="middle" x="1059.5" y="-1262.3" font-family="Dejavu Sans Mono" font-size="14.00">(kblad:ac&#45;snl16_lnk_3)</text>
</g>
<!-- nkblad_K63 -->
<g id="node43" class="node">
<title>nkblad_K63</title>
<path fill="none" stroke="black" d="M1707,-1254.5C1707,-1254.5 1889,-1254.5 1889,-1254.5 1895,-1254.5 1901,-1260.5 1901,-1266.5 1901,-1266.5 1901,-1280.5 1901,-1280.5 1901,-1286.5 1895,-1292.5 1889,-1292.5 1889,-1292.5 1707,-1292.5 1707,-1292.5 1701,-1292.5 1695,-1286.5 1695,-1280.5 1695,-1280.5 1695,-1266.5 1695,-1266.5 1695,-1260.5 1701,-1254.5 1707,-1254.5"/>
<text text-anchor="middle" x="1798" y="-1277.3" font-family="Dejavu Sans Mono" font-size="14.00">L1 ventral root (kblad)</text>
<text text-anchor="middle" x="1798" y="-1262.3" font-family="Dejavu Sans Mono" font-size="14.00">(kblad:K63)</text>
</g>
<!-- nkblad_ac_snl16_lnk_3&#45;&gt;nkblad_K63 -->
<g id="edge23" class="edge">
<title>nkblad_ac_snl16_lnk_3&#45;&gt;nkblad_K63</title>
<path fill="none" stroke="black" d="M1158.68,-1273.5C1295.03,-1273.5 1541.08,-1273.5 1684.61,-1273.5"/>
<polygon fill="black" stroke="black" points="1684.76,-1277 1694.76,-1273.5 1684.76,-1270 1684.76,-1277"/>
<text text-anchor="middle" x="1354.5" y="-1277.3" font-family="Dejavu Sans Mono" font-size="14.00">apinatomy:fasciculatesIn</text>
</g>
<!-- nkblad_K104 -->
<g id="node24" class="node">
<title>nkblad_K104</title>
<path fill="none" stroke="black" d="M1711,-0.5C1711,-0.5 1885,-0.5 1885,-0.5 1891,-0.5 1897,-6.5 1897,-12.5 1897,-12.5 1897,-26.5 1897,-26.5 1897,-32.5 1891,-38.5 1885,-38.5 1885,-38.5 1711,-38.5 1711,-38.5 1705,-38.5 1699,-32.5 1699,-26.5 1699,-26.5 1699,-12.5 1699,-12.5 1699,-6.5 1705,-0.5 1711,-0.5"/>
<text text-anchor="middle" x="1798" y="-23.3" font-family="Dejavu Sans Mono" font-size="14.00">Pelvic ganglia (kblad)</text>
<text text-anchor="middle" x="1798" y="-8.3" font-family="Dejavu Sans Mono" font-size="14.00">(kblad:K104)</text>
</g>
<!-- nkblad_K104&#45;&gt;nUBERON_0016508 -->
<g id="edge71" class="edge">
<title>nkblad_K104&#45;&gt;nUBERON_0016508</title>
<path fill="none" stroke="black" d="M1897.32,-19.5C2018.4,-19.5 2221.96,-19.5 2335.87,-19.5"/>
<polygon fill="black" stroke="black" points="2335.93,-23 2345.93,-19.5 2335.93,-16 2335.93,-23"/>
<text text-anchor="middle" x="2216.5" y="-23.3" font-family="Dejavu Sans Mono" font-size="14.00">apinatomy:external</text>
</g>
<!-- nkblad_ref_mat_K_83_K_129_K22_7&#45;&gt;nkblad_K22 -->
<g id="edge16" class="edge">
<title>nkblad_ref_mat_K_83_K_129_K22_7&#45;&gt;nkblad_K22</title>
<path fill="none" stroke="black" d="M2124.24,-732.87C2186.45,-730.27 2247.85,-727.69 2298.41,-725.57"/>
<polygon fill="black" stroke="black" points="2298.85,-729.06 2308.7,-725.14 2298.56,-722.06 2298.85,-729.06"/>
<text text-anchor="middle" x="2216.5" y="-736.3" font-family="Dejavu Sans Mono" font-size="14.00">apinatomy:layerIn</text>
</g>
<!-- nUBERON_0005303 -->
<g id="node26" class="node">
<title>nUBERON_0005303</title>
<path fill="none" stroke="black" d="M2358,-969.5C2358,-969.5 2483,-969.5 2483,-969.5 2489,-969.5 2495,-975.5 2495,-981.5 2495,-981.5 2495,-995.5 2495,-995.5 2495,-1001.5 2489,-1007.5 2483,-1007.5 2483,-1007.5 2358,-1007.5 2358,-1007.5 2352,-1007.5 2346,-1001.5 2346,-995.5 2346,-995.5 2346,-981.5 2346,-981.5 2346,-975.5 2352,-969.5 2358,-969.5"/>
<text text-anchor="middle" x="2420.5" y="-992.3" font-family="Dejavu Sans Mono" font-size="14.00">MISSING LABEL</text>
<text text-anchor="middle" x="2420.5" y="-977.3" font-family="Dejavu Sans Mono" font-size="14.00">(UBERON:0005303)</text>
</g>
<!-- nkblad_K81&#45;&gt;nFMA_6541 -->
<g id="edge69" class="edge">
<title>nkblad_K81&#45;&gt;nFMA_6541</title>
<path fill="none" stroke="black" d="M1934.02,-1558.5C2061.38,-1558.5 2247.35,-1558.5 2348.15,-1558.5"/>
<polygon fill="black" stroke="black" points="2348.23,-1562 2358.23,-1558.5 2348.23,-1555 2348.23,-1562"/>
<text text-anchor="middle" x="2216.5" y="-1562.3" font-family="Dejavu Sans Mono" font-size="14.00">apinatomy:external</text>
</g>
<!-- nkblad_snl16 -->
<g id="node28" class="node">
<title>nkblad_snl16</title>
<path fill="none" stroke="black" d="M894,-798.5C894,-798.5 1225,-798.5 1225,-798.5 1231,-798.5 1237,-804.5 1237,-810.5 1237,-810.5 1237,-824.5 1237,-824.5 1237,-830.5 1231,-836.5 1225,-836.5 1225,-836.5 894,-836.5 894,-836.5 888,-836.5 882,-830.5 882,-824.5 882,-824.5 882,-810.5 882,-810.5 882,-804.5 888,-798.5 894,-798.5"/>
<text text-anchor="middle" x="1059.5" y="-821.3" font-family="Dejavu Sans Mono" font-size="14.00">Soma of SPR neuron in L1_Neuron 6 (kblad)</text>
<text text-anchor="middle" x="1059.5" y="-806.3" font-family="Dejavu Sans Mono" font-size="14.00">(kblad:snl16)</text>
</g>
<!-- nkblad_snl16&#45;&gt;nkblad_ref_mat_K_83_K_129_K22_7 -->
<g id="edge73" class="edge">
<title>nkblad_snl16&#45;&gt;nkblad_ref_mat_K_83_K_129_K22_7</title>
<path fill="none" stroke="black" d="M1237.38,-800.45C1343.45,-790.22 1478.86,-777.17 1589.91,-766.46"/>
<polygon fill="black" stroke="black" points="1590.28,-769.94 1599.89,-765.5 1589.6,-762.98 1590.28,-769.94"/>
<text text-anchor="middle" x="1354.5" y="-802.3" font-family="Dejavu Sans Mono" font-size="14.00">apinatomy:internalIn</text>
</g>
<!-- nkblad_ac_l1l26a_lnk_3 -->
<g id="node29" class="node">
<title>nkblad_ac_l1l26a_lnk_3</title>
<path fill="none" stroke="black" d="M968.5,-969.5C968.5,-969.5 1150.5,-969.5 1150.5,-969.5 1156.5,-969.5 1162.5,-975.5 1162.5,-981.5 1162.5,-981.5 1162.5,-995.5 1162.5,-995.5 1162.5,-1001.5 1156.5,-1007.5 1150.5,-1007.5 1150.5,-1007.5 968.5,-1007.5 968.5,-1007.5 962.5,-1007.5 956.5,-1001.5 956.5,-995.5 956.5,-995.5 956.5,-981.5 956.5,-981.5 956.5,-975.5 962.5,-969.5 968.5,-969.5"/>
<text text-anchor="middle" x="1059.5" y="-992.3" font-family="Dejavu Sans Mono" font-size="14.00">MISSING LABEL</text>
<text text-anchor="middle" x="1059.5" y="-977.3" font-family="Dejavu Sans Mono" font-size="14.00">(kblad:ac&#45;l1l26a_lnk_3)</text>
</g>
<!-- nkblad_n_hypo -->
<g id="node40" class="node">
<title>nkblad_n_hypo</title>
<path fill="none" stroke="black" d="M1698.5,-969.5C1698.5,-969.5 1897.5,-969.5 1897.5,-969.5 1903.5,-969.5 1909.5,-975.5 1909.5,-981.5 1909.5,-981.5 1909.5,-995.5 1909.5,-995.5 1909.5,-1001.5 1903.5,-1007.5 1897.5,-1007.5 1897.5,-1007.5 1698.5,-1007.5 1698.5,-1007.5 1692.5,-1007.5 1686.5,-1001.5 1686.5,-995.5 1686.5,-995.5 1686.5,-981.5 1686.5,-981.5 1686.5,-975.5 1692.5,-969.5 1698.5,-969.5"/>
<text text-anchor="middle" x="1798" y="-992.3" font-family="Dejavu Sans Mono" font-size="14.00">Hypogastric nerve (kblad)</text>
<text text-anchor="middle" x="1798" y="-977.3" font-family="Dejavu Sans Mono" font-size="14.00">(kblad:n&#45;hypo)</text>
</g>
<!-- nkblad_ac_l1l26a_lnk_3&#45;&gt;nkblad_n_hypo -->
<g id="edge21" class="edge">
<title>nkblad_ac_l1l26a_lnk_3&#45;&gt;nkblad_n_hypo</title>
<path fill="none" stroke="black" d="M1162.52,-988.5C1296.93,-988.5 1532.99,-988.5 1676.18,-988.5"/>
<polygon fill="black" stroke="black" points="1676.32,-992 1686.32,-988.5 1676.32,-985 1676.32,-992"/>
<text text-anchor="middle" x="1354.5" y="-992.3" font-family="Dejavu Sans Mono" font-size="14.00">apinatomy:fasciculatesIn</text>
</g>
<!-- nPMID_1619047 -->
<g id="node30" class="node">
<title>nPMID_1619047</title>
<path fill="none" stroke="black" d="M1005.5,-570.5C1005.5,-570.5 1113.5,-570.5 1113.5,-570.5 1119.5,-570.5 1125.5,-576.5 1125.5,-582.5 1125.5,-582.5 1125.5,-596.5 1125.5,-596.5 1125.5,-602.5 1119.5,-608.5 1113.5,-608.5 1113.5,-608.5 1005.5,-608.5 1005.5,-608.5 999.5,-608.5 993.5,-602.5 993.5,-596.5 993.5,-596.5 993.5,-582.5 993.5,-582.5 993.5,-576.5 999.5,-570.5 1005.5,-570.5"/>
<text text-anchor="middle" x="1059.5" y="-593.3" font-family="Dejavu Sans Mono" font-size="14.00">MISSING LABEL</text>
<text text-anchor="middle" x="1059.5" y="-578.3" font-family="Dejavu Sans Mono" font-size="14.00">(PMID:1619047)</text>
</g>
<!-- nPMID_1619047&#45;&gt;nelements_External -->
<g id="edge58" class="edge">
<title>nPMID_1619047&#45;&gt;nelements_External</title>
<path fill="none" stroke="black" d="M1125.54,-581.27C1203.81,-570.98 1339.04,-551.97 1454,-529.5 1543.92,-511.93 1645.91,-486.88 1715.14,-469.1"/>
<polygon fill="black" stroke="black" points="1716.3,-472.42 1725.11,-466.53 1714.56,-465.64 1716.3,-472.42"/>
<text text-anchor="middle" x="1354.5" y="-566.3" font-family="Dejavu Sans Mono" font-size="14.00">type</text>
</g>
<!-- nkblad_K80 -->
<g id="node31" class="node">
<title>nkblad_K80</title>
<path fill="none" stroke="black" d="M1674,-912.5C1674,-912.5 1922,-912.5 1922,-912.5 1928,-912.5 1934,-918.5 1934,-924.5 1934,-924.5 1934,-938.5 1934,-938.5 1934,-944.5 1928,-950.5 1922,-950.5 1922,-950.5 1674,-950.5 1674,-950.5 1668,-950.5 1662,-944.5 1662,-938.5 1662,-938.5 1662,-924.5 1662,-924.5 1662,-918.5 1668,-912.5 1674,-912.5"/>
<text text-anchor="middle" x="1798" y="-935.3" font-family="Dejavu Sans Mono" font-size="14.00">L1 sympathetic ganglion (kblad)</text>
<text text-anchor="middle" x="1798" y="-920.3" font-family="Dejavu Sans Mono" font-size="14.00">(kblad:K80)</text>
</g>
<!-- nkblad_K80&#45;&gt;nFMA_6540 -->
<g id="edge18" class="edge">
<title>nkblad_K80&#45;&gt;nFMA_6540</title>
<path fill="none" stroke="black" d="M1934.02,-931.5C2061.38,-931.5 2247.35,-931.5 2348.15,-931.5"/>
<polygon fill="black" stroke="black" points="2348.23,-935 2358.23,-931.5 2348.23,-928 2348.23,-935"/>
<text text-anchor="middle" x="2216.5" y="-935.3" font-family="Dejavu Sans Mono" font-size="14.00">apinatomy:external</text>
</g>
<!-- nkblad_ac_snl16_lnk_5 -->
<g id="node32" class="node">
<title>nkblad_ac_snl16_lnk_5</title>
<path fill="none" stroke="black" d="M972.5,-912.5C972.5,-912.5 1146.5,-912.5 1146.5,-912.5 1152.5,-912.5 1158.5,-918.5 1158.5,-924.5 1158.5,-924.5 1158.5,-938.5 1158.5,-938.5 1158.5,-944.5 1152.5,-950.5 1146.5,-950.5 1146.5,-950.5 972.5,-950.5 972.5,-950.5 966.5,-950.5 960.5,-944.5 960.5,-938.5 960.5,-938.5 960.5,-924.5 960.5,-924.5 960.5,-918.5 966.5,-912.5 972.5,-912.5"/>
<text text-anchor="middle" x="1059.5" y="-935.3" font-family="Dejavu Sans Mono" font-size="14.00">MISSING LABEL</text>
<text text-anchor="middle" x="1059.5" y="-920.3" font-family="Dejavu Sans Mono" font-size="14.00">(kblad:ac&#45;snl16_lnk_5)</text>
</g>
<!-- nkblad_ac_snl16_lnk_5&#45;&gt;nkblad_K80 -->
<g id="edge48" class="edge">
<title>nkblad_ac_snl16_lnk_5&#45;&gt;nkblad_K80</title>
<path fill="none" stroke="black" d="M1158.68,-931.5C1284.99,-931.5 1505.44,-931.5 1651.32,-931.5"/>
<polygon fill="black" stroke="black" points="1651.69,-935 1661.69,-931.5 1651.69,-928 1651.69,-935"/>
<text text-anchor="middle" x="1354.5" y="-935.3" font-family="Dejavu Sans Mono" font-size="14.00">apinatomy:fasciculatesIn</text>
</g>
<!-- nkblad_ac_snl16_lnk_6 -->
<g id="node34" class="node">
<title>nkblad_ac_snl16_lnk_6</title>
<path fill="none" stroke="black" d="M972.5,-855.5C972.5,-855.5 1146.5,-855.5 1146.5,-855.5 1152.5,-855.5 1158.5,-861.5 1158.5,-867.5 1158.5,-867.5 1158.5,-881.5 1158.5,-881.5 1158.5,-887.5 1152.5,-893.5 1146.5,-893.5 1146.5,-893.5 972.5,-893.5 972.5,-893.5 966.5,-893.5 960.5,-887.5 960.5,-881.5 960.5,-881.5 960.5,-867.5 960.5,-867.5 960.5,-861.5 966.5,-855.5 972.5,-855.5"/>
<text text-anchor="middle" x="1059.5" y="-878.3" font-family="Dejavu Sans Mono" font-size="14.00">MISSING LABEL</text>
<text text-anchor="middle" x="1059.5" y="-863.3" font-family="Dejavu Sans Mono" font-size="14.00">(kblad:ac&#45;snl16_lnk_6)</text>
</g>
<!-- nkblad_ac_snl16_lnk_6&#45;&gt;nkblad_K92 -->
<g id="edge31" class="edge">
<title>nkblad_ac_snl16_lnk_6&#45;&gt;nkblad_K92</title>
<path fill="none" stroke="black" d="M1158.68,-874.5C1297.7,-874.5 1550.79,-874.5 1692.94,-874.5"/>
<polygon fill="black" stroke="black" points="1692.98,-878 1702.98,-874.5 1692.98,-871 1692.98,-878"/>
<text text-anchor="middle" x="1354.5" y="-878.3" font-family="Dejavu Sans Mono" font-size="14.00">apinatomy:fasciculatesIn</text>
</g>
<!-- nilxtr_neuron_type_keast_6 -->
<g id="node35" class="node">
<title>nilxtr_neuron_type_keast_6</title>
<path fill="none" stroke="black" d="M12,-769.5C12,-769.5 310,-769.5 310,-769.5 316,-769.5 322,-775.5 322,-781.5 322,-781.5 322,-795.5 322,-795.5 322,-801.5 316,-807.5 310,-807.5 310,-807.5 12,-807.5 12,-807.5 6,-807.5 0,-801.5 0,-795.5 0,-795.5 0,-781.5 0,-781.5 0,-775.5 6,-769.5 12,-769.5"/>
<text text-anchor="middle" x="161" y="-792.3" font-family="Dejavu Sans Mono" font-size="14.00">ilxtr:neuron&#45;phenotype&#45;keast&#45;6 neuron</text>
<text text-anchor="middle" x="161" y="-777.3" font-family="Dejavu Sans Mono" font-size="14.00">(ilxtr:neuron&#45;type&#45;keast&#45;6)</text>
</g>
<!-- nkblad_neuron_6 -->
<g id="node44" class="node">
<title>nkblad_neuron_6</title>
<path fill="none" stroke="black" d="M527,-769.5C527,-769.5 652,-769.5 652,-769.5 658,-769.5 664,-775.5 664,-781.5 664,-781.5 664,-795.5 664,-795.5 664,-801.5 658,-807.5 652,-807.5 652,-807.5 527,-807.5 527,-807.5 521,-807.5 515,-801.5 515,-795.5 515,-795.5 515,-781.5 515,-781.5 515,-775.5 521,-769.5 527,-769.5"/>
<text text-anchor="middle" x="589.5" y="-792.3" font-family="Dejavu Sans Mono" font-size="14.00">Neuron 6</text>
<text text-anchor="middle" x="589.5" y="-777.3" font-family="Dejavu Sans Mono" font-size="14.00">(kblad:neuron&#45;6)</text>
</g>
<!-- nilxtr_neuron_type_keast_6&#45;&gt;nkblad_neuron_6 -->
<g id="edge75" class="edge">
<title>nilxtr_neuron_type_keast_6&#45;&gt;nkblad_neuron_6</title>
<path fill="none" stroke="black" d="M322.03,-788.5C384.18,-788.5 452.79,-788.5 504.82,-788.5"/>
<polygon fill="black" stroke="black" points="505,-792 515,-788.5 505,-785 505,-792"/>
<text text-anchor="middle" x="418.5" y="-792.3" font-family="Dejavu Sans Mono" font-size="14.00">apinatomy:annotates</text>
</g>
<!-- nkblad_ref_mat_KM_27_K_129_K23_14 -->
<g id="node36" class="node">
<title>nkblad_ref_mat_KM_27_K_129_K23_14</title>
<path fill="none" stroke="black" d="M1566.5,-1033.5C1566.5,-1033.5 2029.5,-1033.5 2029.5,-1033.5 2035.5,-1033.5 2041.5,-1039.5 2041.5,-1045.5 2041.5,-1045.5 2041.5,-1059.5 2041.5,-1059.5 2041.5,-1065.5 2035.5,-1071.5 2029.5,-1071.5 2029.5,-1071.5 1566.5,-1071.5 1566.5,-1071.5 1560.5,-1071.5 1554.5,-1065.5 1554.5,-1059.5 1554.5,-1059.5 1554.5,-1045.5 1554.5,-1045.5 1554.5,-1039.5 1560.5,-1033.5 1566.5,-1033.5"/>
<text text-anchor="middle" x="1798" y="-1056.3" font-family="Dejavu Sans Mono" font-size="14.00">White matter of CNS in L2 spinal segment (kblad) layer 14</text>
<text text-anchor="middle" x="1798" y="-1041.3" font-family="Dejavu Sans Mono" font-size="14.00">(kblad:ref_mat_KM_27_K_129_K23_14)</text>
</g>
<!-- nkblad_ref_mat_KM_27_K_129_K23_14&#45;&gt;nkblad_K23 -->
<g id="edge24" class="edge">
<title>nkblad_ref_mat_KM_27_K_129_K23_14&#45;&gt;nkblad_K23</title>
<path fill="none" stroke="black" d="M2041.57,-1060.71C2129.71,-1063.69 2225.51,-1066.93 2298.6,-1069.41"/>
<polygon fill="black" stroke="black" points="2298.65,-1072.91 2308.76,-1069.75 2298.88,-1065.92 2298.65,-1072.91"/>
<text text-anchor="middle" x="2216.5" y="-1072.3" font-family="Dejavu Sans Mono" font-size="14.00">apinatomy:layerIn</text>
</g>
<!-- nkblad_K102 -->
<g id="node37" class="node">
<title>nkblad_K102</title>
<path fill="none" stroke="black" d="M1653,-228.5C1653,-228.5 1943,-228.5 1943,-228.5 1949,-228.5 1955,-234.5 1955,-240.5 1955,-240.5 1955,-254.5 1955,-254.5 1955,-260.5 1949,-266.5 1943,-266.5 1943,-266.5 1653,-266.5 1653,-266.5 1647,-266.5 1641,-260.5 1641,-254.5 1641,-254.5 1641,-240.5 1641,-240.5 1641,-234.5 1647,-228.5 1653,-228.5"/>
<text text-anchor="middle" x="1798" y="-251.3" font-family="Dejavu Sans Mono" font-size="14.00">Inferior Mesenteric Ganglion (kblad)</text>
<text text-anchor="middle" x="1798" y="-236.3" font-family="Dejavu Sans Mono" font-size="14.00">(kblad:K102)</text>
</g>
<!-- nkblad_K102&#45;&gt;nUBERON_0005453 -->
<g id="edge32" class="edge">
<title>nkblad_K102&#45;&gt;nUBERON_0005453</title>
<path fill="none" stroke="black" d="M1955.18,-247.5C2076.02,-247.5 2238.64,-247.5 2335.89,-247.5"/>
<polygon fill="black" stroke="black" points="2335.97,-251 2345.97,-247.5 2335.97,-244 2335.97,-251"/>
<text text-anchor="middle" x="2216.5" y="-251.3" font-family="Dejavu Sans Mono" font-size="14.00">apinatomy:external</text>
</g>
<!-- nkblad_n_lumspl -->
<g id="node38" class="node">
<title>nkblad_n_lumspl</title>
<path fill="none" stroke="black" d="M1674,-114.5C1674,-114.5 1922,-114.5 1922,-114.5 1928,-114.5 1934,-120.5 1934,-126.5 1934,-126.5 1934,-140.5 1934,-140.5 1934,-146.5 1928,-152.5 1922,-152.5 1922,-152.5 1674,-152.5 1674,-152.5 1668,-152.5 1662,-146.5 1662,-140.5 1662,-140.5 1662,-126.5 1662,-126.5 1662,-120.5 1668,-114.5 1674,-114.5"/>
<text text-anchor="middle" x="1798" y="-137.3" font-family="Dejavu Sans Mono" font-size="14.00">lumbar splanchnic nerve (kblad)</text>
<text text-anchor="middle" x="1798" y="-122.3" font-family="Dejavu Sans Mono" font-size="14.00">(kblad:n&#45;lumspl)</text>
</g>
<!-- nkblad_n_lumspl&#45;&gt;nUBERON_0018683 -->
<g id="edge7" class="edge">
<title>nkblad_n_lumspl&#45;&gt;nUBERON_0018683</title>
<path fill="none" stroke="black" d="M1934.02,-133.5C2056.33,-133.5 2232.71,-133.5 2335.77,-133.5"/>
<polygon fill="black" stroke="black" points="2335.82,-137 2345.82,-133.5 2335.82,-130 2335.82,-137"/>
<text text-anchor="middle" x="2216.5" y="-137.3" font-family="Dejavu Sans Mono" font-size="14.00">apinatomy:external</text>
</g>
<!-- nFMA_12698 -->
<g id="node47" class="node">
<title>nFMA_12698</title>
<path fill="none" stroke="black" d="M2370.5,-1311.5C2370.5,-1311.5 2470.5,-1311.5 2470.5,-1311.5 2476.5,-1311.5 2482.5,-1317.5 2482.5,-1323.5 2482.5,-1323.5 2482.5,-1337.5 2482.5,-1337.5 2482.5,-1343.5 2476.5,-1349.5 2470.5,-1349.5 2470.5,-1349.5 2370.5,-1349.5 2370.5,-1349.5 2364.5,-1349.5 2358.5,-1343.5 2358.5,-1337.5 2358.5,-1337.5 2358.5,-1323.5 2358.5,-1323.5 2358.5,-1317.5 2364.5,-1311.5 2370.5,-1311.5"/>
<text text-anchor="middle" x="2420.5" y="-1334.3" font-family="Dejavu Sans Mono" font-size="14.00">MISSING LABEL</text>
<text text-anchor="middle" x="2420.5" y="-1319.3" font-family="Dejavu Sans Mono" font-size="14.00">(FMA:12698)</text>
</g>
<!-- nkblad_K89&#45;&gt;nFMA_12698 -->
<g id="edge41" class="edge">
<title>nkblad_K89&#45;&gt;nFMA_12698</title>
<path fill="none" stroke="black" d="M1897.32,-1330.5C2022.91,-1330.5 2237.26,-1330.5 2348.23,-1330.5"/>
<polygon fill="black" stroke="black" points="2348.32,-1334 2358.32,-1330.5 2348.32,-1327 2348.32,-1334"/>
<text text-anchor="middle" x="2216.5" y="-1334.3" font-family="Dejavu Sans Mono" font-size="14.00">apinatomy:external</text>
</g>
<!-- nkblad_n_hypo&#45;&gt;nUBERON_0005303 -->
<g id="edge47" class="edge">
<title>nkblad_n_hypo&#45;&gt;nUBERON_0005303</title>
<path fill="none" stroke="black" d="M1909.58,-988.5C2031.72,-988.5 2225.65,-988.5 2335.81,-988.5"/>
<polygon fill="black" stroke="black" points="2335.87,-992 2345.87,-988.5 2335.87,-985 2335.87,-992"/>
<text text-anchor="middle" x="2216.5" y="-992.3" font-family="Dejavu Sans Mono" font-size="14.00">apinatomy:external</text>
</g>
<!-- nkblad_ac_snl26_lnk_2 -->
<g id="node41" class="node">
<title>nkblad_ac_snl26_lnk_2</title>
<path fill="none" stroke="black" d="M972.5,-1026.5C972.5,-1026.5 1146.5,-1026.5 1146.5,-1026.5 1152.5,-1026.5 1158.5,-1032.5 1158.5,-1038.5 1158.5,-1038.5 1158.5,-1052.5 1158.5,-1052.5 1158.5,-1058.5 1152.5,-1064.5 1146.5,-1064.5 1146.5,-1064.5 972.5,-1064.5 972.5,-1064.5 966.5,-1064.5 960.5,-1058.5 960.5,-1052.5 960.5,-1052.5 960.5,-1038.5 960.5,-1038.5 960.5,-1032.5 966.5,-1026.5 972.5,-1026.5"/>
<text text-anchor="middle" x="1059.5" y="-1049.3" font-family="Dejavu Sans Mono" font-size="14.00">MISSING LABEL</text>
<text text-anchor="middle" x="1059.5" y="-1034.3" font-family="Dejavu Sans Mono" font-size="14.00">(kblad:ac&#45;snl26_lnk_2)</text>
</g>
<!-- nkblad_ac_snl26_lnk_2&#45;&gt;nkblad_ref_mat_KM_27_K_129_K23_14 -->
<g id="edge54" class="edge">
<title>nkblad_ac_snl26_lnk_2&#45;&gt;nkblad_ref_mat_KM_27_K_129_K23_14</title>
<path fill="none" stroke="black" d="M1158.68,-1046.43C1256.68,-1047.36 1411.36,-1048.83 1543.9,-1050.09"/>
<polygon fill="black" stroke="black" points="1544.18,-1053.6 1554.22,-1050.19 1544.25,-1046.6 1544.18,-1053.6"/>
<text text-anchor="middle" x="1354.5" y="-1052.3" font-family="Dejavu Sans Mono" font-size="14.00">apinatomy:fasciculatesIn</text>
</g>
<!-- nFMA_12697 -->
<g id="node45" class="node">
<title>nFMA_12697</title>
<path fill="none" stroke="black" d="M2370.5,-1482.5C2370.5,-1482.5 2470.5,-1482.5 2470.5,-1482.5 2476.5,-1482.5 2482.5,-1488.5 2482.5,-1494.5 2482.5,-1494.5 2482.5,-1508.5 2482.5,-1508.5 2482.5,-1514.5 2476.5,-1520.5 2470.5,-1520.5 2470.5,-1520.5 2370.5,-1520.5 2370.5,-1520.5 2364.5,-1520.5 2358.5,-1514.5 2358.5,-1508.5 2358.5,-1508.5 2358.5,-1494.5 2358.5,-1494.5 2358.5,-1488.5 2364.5,-1482.5 2370.5,-1482.5"/>
<text text-anchor="middle" x="2420.5" y="-1505.3" font-family="Dejavu Sans Mono" font-size="14.00">MISSING LABEL</text>
<text text-anchor="middle" x="2420.5" y="-1490.3" font-family="Dejavu Sans Mono" font-size="14.00">(FMA:12697)</text>
</g>
<!-- nkblad_K88&#45;&gt;nFMA_12697 -->
<g id="edge27" class="edge">
<title>nkblad_K88&#45;&gt;nFMA_12697</title>
<path fill="none" stroke="black" d="M1897.32,-1501.5C2022.91,-1501.5 2237.26,-1501.5 2348.23,-1501.5"/>
<polygon fill="black" stroke="black" points="2348.32,-1505 2358.32,-1501.5 2348.32,-1498 2348.32,-1505"/>
<text text-anchor="middle" x="2216.5" y="-1505.3" font-family="Dejavu Sans Mono" font-size="14.00">apinatomy:external</text>
</g>
<!-- nEMAPA_25269 -->
<g id="node50" class="node">
<title>nEMAPA_25269</title>
<path fill="none" stroke="black" d="M2370.5,-1254.5C2370.5,-1254.5 2470.5,-1254.5 2470.5,-1254.5 2476.5,-1254.5 2482.5,-1260.5 2482.5,-1266.5 2482.5,-1266.5 2482.5,-1280.5 2482.5,-1280.5 2482.5,-1286.5 2476.5,-1292.5 2470.5,-1292.5 2470.5,-1292.5 2370.5,-1292.5 2370.5,-1292.5 2364.5,-1292.5 2358.5,-1286.5 2358.5,-1280.5 2358.5,-1280.5 2358.5,-1266.5 2358.5,-1266.5 2358.5,-1260.5 2364.5,-1254.5 2370.5,-1254.5"/>
<text text-anchor="middle" x="2420.5" y="-1277.3" font-family="Dejavu Sans Mono" font-size="14.00">MISSING LABEL</text>
<text text-anchor="middle" x="2420.5" y="-1262.3" font-family="Dejavu Sans Mono" font-size="14.00">(EMAPA:25269)</text>
</g>
<!-- nkblad_K63&#45;&gt;nEMAPA_25269 -->
<g id="edge63" class="edge">
<title>nkblad_K63&#45;&gt;nEMAPA_25269</title>
<path fill="none" stroke="black" d="M1901.12,-1273.5C2027.09,-1273.5 2238.04,-1273.5 2347.97,-1273.5"/>
<polygon fill="black" stroke="black" points="2348.28,-1277 2358.28,-1273.5 2348.28,-1270 2348.28,-1277"/>
<text text-anchor="middle" x="2216.5" y="-1277.3" font-family="Dejavu Sans Mono" font-size="14.00">apinatomy:external</text>
</g>
<!-- nkblad_neuron_6&#45;&gt;nkblad_ac_snl26_lnk_5 -->
<g id="edge10" class="edge">
<title>nkblad_neuron_6&#45;&gt;nkblad_ac_snl26_lnk_5</title>
<path fill="none" stroke="black" d="M591.5,-807.58C597.45,-917.42 629.66,-1466.01 682,-1517.5 752.34,-1586.69 869.58,-1588.86 954.57,-1578.8"/>
<polygon fill="black" stroke="black" points="955.02,-1582.27 964.51,-1577.55 954.15,-1575.32 955.02,-1582.27"/>
<text text-anchor="middle" x="773" y="-1585.3" font-family="Dejavu Sans Mono" font-size="14.00">apinatomy:links</text>
</g>
<!-- nkblad_neuron_6&#45;&gt;nkblad_ac_snl16_lnk_4 -->
<g id="edge3" class="edge">
<title>nkblad_neuron_6&#45;&gt;nkblad_ac_snl16_lnk_4</title>
<path fill="none" stroke="black" d="M590.09,-807.83C588.38,-907.99 585.93,-1366.97 682,-1460.5 719.03,-1496.55 852.53,-1503.78 950.07,-1504"/>
<polygon fill="black" stroke="black" points="950.29,-1507.5 960.29,-1504 950.29,-1500.5 950.29,-1507.5"/>
<text text-anchor="middle" x="773" y="-1505.3" font-family="Dejavu Sans Mono" font-size="14.00">apinatomy:links</text>
</g>
<!-- nkblad_neuron_6&#45;&gt;nkblad_dc_snl16_lnk_1 -->
<g id="edge60" class="edge">
<title>nkblad_neuron_6&#45;&gt;nkblad_dc_snl16_lnk_1</title>
<path fill="none" stroke="black" d="M625.14,-769.44C641.85,-761.08 662.47,-751.95 682,-746.5 770.24,-721.89 873.88,-711.33 950.06,-706.81"/>
<polygon fill="black" stroke="black" points="950.37,-710.3 960.15,-706.24 949.97,-703.31 950.37,-710.3"/>
<text text-anchor="middle" x="773" y="-750.3" font-family="Dejavu Sans Mono" font-size="14.00">apinatomy:links</text>
</g>
<!-- nkblad_neuron_6&#45;&gt;nPMID_3558884 -->
<g id="edge37" class="edge">
<title>nkblad_neuron_6&#45;&gt;nPMID_3558884</title>
<path fill="none" stroke="black" d="M592.44,-769.32C597.89,-726.66 617.39,-623.97 682,-576.5 747.54,-528.34 800.58,-608.42 864,-557.5 883.73,-541.66 862.7,-519.86 882,-503.5 909.68,-480.04 948.91,-472.17 983.35,-470.54"/>
<polygon fill="black" stroke="black" points="983.51,-474.04 993.4,-470.23 983.29,-467.04 983.51,-474.04"/>
<text text-anchor="middle" x="773" y="-580.3" font-family="Dejavu Sans Mono" font-size="14.00">apinatomy:publications</text>
</g>
<!-- nkblad_neuron_6&#45;&gt;nkblad_snl26 -->
<g id="edge53" class="edge">
<title>nkblad_neuron_6&#45;&gt;nkblad_snl26</title>
<path fill="none" stroke="black" d="M592.19,-807.71C598.84,-878.69 625.66,-1124.63 682,-1174.5 710.84,-1200.03 792.09,-1210.99 871.76,-1215.37"/>
<polygon fill="black" stroke="black" points="871.8,-1218.87 881.97,-1215.89 872.16,-1211.88 871.8,-1218.87"/>
<text text-anchor="middle" x="773" y="-1218.3" font-family="Dejavu Sans Mono" font-size="14.00">apinatomy:lyphs</text>
</g>
<!-- nkblad_neuron_6&#45;&gt;nkblad_ac_snl26_lnk_6 -->
<g id="edge4" class="edge">
<title>nkblad_neuron_6&#45;&gt;nkblad_ac_snl26_lnk_6</title>
<path fill="none" stroke="black" d="M590.35,-807.74C590.06,-902.54 593.88,-1318.77 682,-1403.5 719.25,-1439.32 852.7,-1446.61 950.17,-1446.9"/>
<polygon fill="black" stroke="black" points="950.38,-1450.4 960.38,-1446.9 950.38,-1443.4 950.38,-1450.4"/>
<text text-anchor="middle" x="773" y="-1447.3" font-family="Dejavu Sans Mono" font-size="14.00">apinatomy:links</text>
</g>
<!-- nkblad_neuron_6&#45;&gt;nkblad_ac_snl26_lnk_3 -->
<g id="edge26" class="edge">
<title>nkblad_neuron_6&#45;&gt;nkblad_ac_snl26_lnk_3</title>
<path fill="none" stroke="black" d="M590.67,-807.72C591.9,-897.06 601.83,-1270.55 682,-1346.5 719.51,-1382.04 852.91,-1389.39 950.29,-1389.77"/>
<polygon fill="black" stroke="black" points="950.48,-1393.28 960.49,-1389.79 950.49,-1386.28 950.48,-1393.28"/>
<text text-anchor="middle" x="773" y="-1390.3" font-family="Dejavu Sans Mono" font-size="14.00">apinatomy:links</text>
</g>
<!-- nkblad_neuron_6&#45;&gt;nkblad_dc_snl26_lnk_1 -->
<g id="edge72" class="edge">
<title>nkblad_neuron_6&#45;&gt;nkblad_dc_snl26_lnk_1</title>
<path fill="none" stroke="black" d="M593.08,-807.81C602.03,-871.67 633.82,-1074.33 682,-1115.5 721.2,-1149 853.48,-1157.97 950.2,-1159.9"/>
<polygon fill="black" stroke="black" points="950.27,-1163.4 960.33,-1160.07 950.4,-1156.4 950.27,-1163.4"/>
<text text-anchor="middle" x="773" y="-1159.3" font-family="Dejavu Sans Mono" font-size="14.00">apinatomy:links</text>
</g>
<!-- nkblad_neuron_6&#45;&gt;nkblad_ac_snl26_lnk_4 -->
<g id="edge46" class="edge">
<title>nkblad_neuron_6&#45;&gt;nkblad_ac_snl26_lnk_4</title>
<path fill="none" stroke="black" d="M591.06,-807.7C593.92,-891.29 609.74,-1222.27 682,-1289.5 719.78,-1324.64 852.74,-1332.11 949.98,-1332.62"/>
<polygon fill="black" stroke="black" points="950.16,-1336.12 960.17,-1332.65 950.18,-1329.12 950.16,-1336.12"/>
<text text-anchor="middle" x="773" y="-1333.3" font-family="Dejavu Sans Mono" font-size="14.00">apinatomy:links</text>
</g>
<!-- nkblad_neuron_6&#45;&gt;nkblad_ac_snl16_lnk_3 -->
<g id="edge45" class="edge">
<title>nkblad_neuron_6&#45;&gt;nkblad_ac_snl16_lnk_3</title>
<path fill="none" stroke="black" d="M591.54,-807.58C596.17,-884.95 617.59,-1173.92 682,-1232.5 720.17,-1267.22 853.05,-1274.77 950.16,-1275.43"/>
<polygon fill="black" stroke="black" points="950.32,-1278.93 960.33,-1275.47 950.35,-1271.93 950.32,-1278.93"/>
<text text-anchor="middle" x="773" y="-1276.3" font-family="Dejavu Sans Mono" font-size="14.00">apinatomy:links</text>
</g>
<!-- nkblad_neuron_6&#45;&gt;nkblad_snl16 -->
<g id="edge14" class="edge">
<title>nkblad_neuron_6&#45;&gt;nkblad_snl16</title>
<path fill="none" stroke="black" d="M664.14,-793.06C719.82,-796.51 798.85,-801.41 871.56,-805.92"/>
<polygon fill="black" stroke="black" points="871.58,-809.42 881.77,-806.55 872.01,-802.44 871.58,-809.42"/>
<text text-anchor="middle" x="773" y="-809.3" font-family="Dejavu Sans Mono" font-size="14.00">apinatomy:lyphs</text>
</g>
<!-- nkblad_neuron_6&#45;&gt;nkblad_ac_l1l26a_lnk_3 -->
<g id="edge13" class="edge">
<title>nkblad_neuron_6&#45;&gt;nkblad_ac_l1l26a_lnk_3</title>
<path fill="none" stroke="black" d="M595.52,-807.62C605.58,-841.75 631.68,-912.64 682,-945.5 724.25,-973.09 851.07,-983.05 945.93,-986.61"/>
<polygon fill="black" stroke="black" points="946.05,-990.12 956.16,-986.97 946.29,-983.12 946.05,-990.12"/>
<text text-anchor="middle" x="773" y="-984.3" font-family="Dejavu Sans Mono" font-size="14.00">apinatomy:links</text>
</g>
<!-- nkblad_neuron_6&#45;&gt;nPMID_1619047 -->
<g id="edge40" class="edge">
<title>nkblad_neuron_6&#45;&gt;nPMID_1619047</title>
<path fill="none" stroke="black" d="M597.36,-769.35C609.33,-739 637.13,-680.53 682,-653.5 751.7,-611.5 789.63,-666.54 864,-633.5 873.78,-629.15 872.32,-622.08 882,-617.5 913.25,-602.71 950.74,-595.49 983.12,-592.05"/>
<polygon fill="black" stroke="black" points="983.81,-595.5 993.43,-591.07 983.14,-588.54 983.81,-595.5"/>
<text text-anchor="middle" x="773" y="-657.3" font-family="Dejavu Sans Mono" font-size="14.00">apinatomy:publications</text>
</g>
<!-- nkblad_neuron_6&#45;&gt;nkblad_ac_snl16_lnk_5 -->
<g id="edge20" class="edge">
<title>nkblad_neuron_6&#45;&gt;nkblad_ac_snl16_lnk_5</title>
<path fill="none" stroke="black" d="M604.29,-807.51C620.42,-828.18 649.14,-860.41 682,-876.5 765.88,-917.59 871.97,-930.07 950.14,-933"/>
<polygon fill="black" stroke="black" points="950.38,-936.51 960.49,-933.34 950.61,-929.52 950.38,-936.51"/>
<text text-anchor="middle" x="773" y="-930.3" font-family="Dejavu Sans Mono" font-size="14.00">apinatomy:links</text>
</g>
<!-- nkblad_neuron_6&#45;&gt;nkblad_ac_snl16_lnk_6 -->
<g id="edge44" class="edge">
<title>nkblad_neuron_6&#45;&gt;nkblad_ac_snl16_lnk_6</title>
<path fill="none" stroke="black" d="M632.61,-807.54C647.9,-813.79 665.47,-820.22 682,-824.5 770.73,-847.48 874.11,-860.25 950.07,-867.12"/>
<polygon fill="black" stroke="black" points="949.86,-870.61 960.13,-868.01 950.48,-863.64 949.86,-870.61"/>
<text text-anchor="middle" x="773" y="-861.3" font-family="Dejavu Sans Mono" font-size="14.00">apinatomy:links</text>
</g>
<!-- nkblad_neuron_6&#45;&gt;nkblad_ac_snl26_lnk_2 -->
<g id="edge11" class="edge">
<title>nkblad_neuron_6&#45;&gt;nkblad_ac_snl26_lnk_2</title>
<path fill="none" stroke="black" d="M592.54,-807.51C598.16,-849.81 618.02,-951.71 682,-999.5 723.21,-1030.28 854.33,-1040.63 950.28,-1044.01"/>
<polygon fill="black" stroke="black" points="950.22,-1047.51 960.33,-1044.35 950.45,-1040.52 950.22,-1047.51"/>
<text text-anchor="middle" x="773" y="-1041.3" font-family="Dejavu Sans Mono" font-size="14.00">apinatomy:links</text>
</g>
<!-- nPMID_2891149 -->
<g id="node48" class="node">
<title>nPMID_2891149</title>
<path fill="none" stroke="black" d="M1005.5,-285.5C1005.5,-285.5 1113.5,-285.5 1113.5,-285.5 1119.5,-285.5 1125.5,-291.5 1125.5,-297.5 1125.5,-297.5 1125.5,-311.5 1125.5,-311.5 1125.5,-317.5 1119.5,-323.5 1113.5,-323.5 1113.5,-323.5 1005.5,-323.5 1005.5,-323.5 999.5,-323.5 993.5,-317.5 993.5,-311.5 993.5,-311.5 993.5,-297.5 993.5,-297.5 993.5,-291.5 999.5,-285.5 1005.5,-285.5"/>
<text text-anchor="middle" x="1059.5" y="-308.3" font-family="Dejavu Sans Mono" font-size="14.00">MISSING LABEL</text>
<text text-anchor="middle" x="1059.5" y="-293.3" font-family="Dejavu Sans Mono" font-size="14.00">(PMID:2891149)</text>
</g>
<!-- nkblad_neuron_6&#45;&gt;nPMID_2891149 -->
<g id="edge5" class="edge">
<title>nkblad_neuron_6&#45;&gt;nPMID_2891149</title>
<path fill="none" stroke="black" d="M593.1,-769.07C602.12,-704.82 634.11,-500.82 682,-458.5 743.27,-404.35 805.24,-488.37 864,-431.5 896.13,-400.4 850.02,-363.76 882,-332.5 908.25,-306.84 947.94,-298.91 983.03,-297.82"/>
<polygon fill="black" stroke="black" points="983.32,-301.31 993.28,-297.68 983.23,-294.31 983.32,-301.31"/>
<text text-anchor="middle" x="773" y="-462.3" font-family="Dejavu Sans Mono" font-size="14.00">apinatomy:publications</text>
</g>
<!-- nkblad_ac_l1l26a_lnk_2 -->
<g id="node49" class="node">
<title>nkblad_ac_l1l26a_lnk_2</title>
<path fill="none" stroke="black" d="M968.5,-228.5C968.5,-228.5 1150.5,-228.5 1150.5,-228.5 1156.5,-228.5 1162.5,-234.5 1162.5,-240.5 1162.5,-240.5 1162.5,-254.5 1162.5,-254.5 1162.5,-260.5 1156.5,-266.5 1150.5,-266.5 1150.5,-266.5 968.5,-266.5 968.5,-266.5 962.5,-266.5 956.5,-260.5 956.5,-254.5 956.5,-254.5 956.5,-240.5 956.5,-240.5 956.5,-234.5 962.5,-228.5 968.5,-228.5"/>
<text text-anchor="middle" x="1059.5" y="-251.3" font-family="Dejavu Sans Mono" font-size="14.00">MISSING LABEL</text>
<text text-anchor="middle" x="1059.5" y="-236.3" font-family="Dejavu Sans Mono" font-size="14.00">(kblad:ac&#45;l1l26a_lnk_2)</text>
</g>
<!-- nkblad_neuron_6&#45;&gt;nkblad_ac_l1l26a_lnk_2 -->
<g id="edge25" class="edge">
<title>nkblad_neuron_6&#45;&gt;nkblad_ac_l1l26a_lnk_2</title>
<path fill="none" stroke="black" d="M592.44,-769.43C599.87,-700.11 628.84,-462.86 682,-412.5 741.74,-355.91 806.15,-437.03 864,-378.5 896.67,-345.45 848.88,-308.1 882,-275.5 899.29,-258.47 922.5,-249.24 946.39,-244.62"/>
<polygon fill="black" stroke="black" points="947,-248.07 956.29,-242.97 945.85,-241.16 947,-248.07"/>
<text text-anchor="middle" x="773" y="-416.3" font-family="Dejavu Sans Mono" font-size="14.00">apinatomy:links</text>
</g>
<!-- nkblad_ac_snl16_lnk_2 -->
<g id="node51" class="node">
<title>nkblad_ac_snl16_lnk_2</title>
<path fill="none" stroke="black" d="M972.5,-627.5C972.5,-627.5 1146.5,-627.5 1146.5,-627.5 1152.5,-627.5 1158.5,-633.5 1158.5,-639.5 1158.5,-639.5 1158.5,-653.5 1158.5,-653.5 1158.5,-659.5 1152.5,-665.5 1146.5,-665.5 1146.5,-665.5 972.5,-665.5 972.5,-665.5 966.5,-665.5 960.5,-659.5 960.5,-653.5 960.5,-653.5 960.5,-639.5 960.5,-639.5 960.5,-633.5 966.5,-627.5 972.5,-627.5"/>
<text text-anchor="middle" x="1059.5" y="-650.3" font-family="Dejavu Sans Mono" font-size="14.00">MISSING LABEL</text>
<text text-anchor="middle" x="1059.5" y="-635.3" font-family="Dejavu Sans Mono" font-size="14.00">(kblad:ac&#45;snl16_lnk_2)</text>
</g>
<!-- nkblad_neuron_6&#45;&gt;nkblad_ac_snl16_lnk_2 -->
<g id="edge39" class="edge">
<title>nkblad_neuron_6&#45;&gt;nkblad_ac_snl16_lnk_2</title>
<path fill="none" stroke="black" d="M603.48,-769.32C619.28,-747.67 648.09,-713.3 682,-696.5 685.04,-694.99 839.84,-674.75 949.98,-660.49"/>
<polygon fill="black" stroke="black" points="950.69,-663.93 960.15,-659.17 949.79,-656.99 950.69,-663.93"/>
<text text-anchor="middle" x="773" y="-700.3" font-family="Dejavu Sans Mono" font-size="14.00">apinatomy:links</text>
</g>
<!-- nPMID_1358408 -->
<g id="node53" class="node">
<title>nPMID_1358408</title>
<path fill="none" stroke="black" d="M1005.5,-399.5C1005.5,-399.5 1113.5,-399.5 1113.5,-399.5 1119.5,-399.5 1125.5,-405.5 1125.5,-411.5 1125.5,-411.5 1125.5,-425.5 1125.5,-425.5 1125.5,-431.5 1119.5,-437.5 1113.5,-437.5 1113.5,-437.5 1005.5,-437.5 1005.5,-437.5 999.5,-437.5 993.5,-431.5 993.5,-425.5 993.5,-425.5 993.5,-411.5 993.5,-411.5 993.5,-405.5 999.5,-399.5 1005.5,-399.5"/>
<text text-anchor="middle" x="1059.5" y="-422.3" font-family="Dejavu Sans Mono" font-size="14.00">MISSING LABEL</text>
<text text-anchor="middle" x="1059.5" y="-407.3" font-family="Dejavu Sans Mono" font-size="14.00">(PMID:1358408)</text>
</g>
<!-- nkblad_neuron_6&#45;&gt;nPMID_1358408 -->
<g id="edge19" class="edge">
<title>nkblad_neuron_6&#45;&gt;nPMID_1358408</title>
<path fill="none" stroke="black" d="M591.09,-769.3C593.68,-721.49 607.61,-596.8 682,-538.5 746.05,-488.31 802.69,-572.01 864,-518.5 888.85,-496.81 857.68,-468.78 882,-446.5 908.86,-421.9 948.21,-413.97 982.94,-412.6"/>
<polygon fill="black" stroke="black" points="983.15,-416.1 993.07,-412.38 983,-409.1 983.15,-416.1"/>
<text text-anchor="middle" x="773" y="-542.3" font-family="Dejavu Sans Mono" font-size="14.00">apinatomy:publications</text>
</g>
<!-- nPMID_30704972 -->
<g id="node54" class="node">
<title>nPMID_30704972</title>
<path fill="none" stroke="black" d="M1001.5,-342.5C1001.5,-342.5 1117.5,-342.5 1117.5,-342.5 1123.5,-342.5 1129.5,-348.5 1129.5,-354.5 1129.5,-354.5 1129.5,-368.5 1129.5,-368.5 1129.5,-374.5 1123.5,-380.5 1117.5,-380.5 1117.5,-380.5 1001.5,-380.5 1001.5,-380.5 995.5,-380.5 989.5,-374.5 989.5,-368.5 989.5,-368.5 989.5,-354.5 989.5,-354.5 989.5,-348.5 995.5,-342.5 1001.5,-342.5"/>
<text text-anchor="middle" x="1059.5" y="-365.3" font-family="Dejavu Sans Mono" font-size="14.00">MISSING LABEL</text>
<text text-anchor="middle" x="1059.5" y="-350.3" font-family="Dejavu Sans Mono" font-size="14.00">(PMID:30704972)</text>
</g>
<!-- nkblad_neuron_6&#45;&gt;nPMID_30704972 -->
<g id="edge49" class="edge">
<title>nkblad_neuron_6&#45;&gt;nPMID_30704972</title>
<path fill="none" stroke="black" d="M590.06,-769.2C589.99,-716.49 597.73,-569.37 682,-499.5 744.72,-447.5 804.09,-532.72 864,-477.5 893.35,-450.44 853.15,-417.09 882,-389.5 907.4,-365.21 944.88,-356.93 978.78,-355.25"/>
<polygon fill="black" stroke="black" points="979.28,-358.74 989.16,-354.93 979.06,-351.74 979.28,-358.74"/>
<text text-anchor="middle" x="773" y="-503.3" font-family="Dejavu Sans Mono" font-size="14.00">apinatomy:publications</text>
</g>
<!-- nkblad_ac_snl26_lnk_1 -->
<g id="node55" class="node">
<title>nkblad_ac_snl26_lnk_1</title>
<path fill="none" stroke="black" d="M972.5,-1083.5C972.5,-1083.5 1146.5,-1083.5 1146.5,-1083.5 1152.5,-1083.5 1158.5,-1089.5 1158.5,-1095.5 1158.5,-1095.5 1158.5,-1109.5 1158.5,-1109.5 1158.5,-1115.5 1152.5,-1121.5 1146.5,-1121.5 1146.5,-1121.5 972.5,-1121.5 972.5,-1121.5 966.5,-1121.5 960.5,-1115.5 960.5,-1109.5 960.5,-1109.5 960.5,-1095.5 960.5,-1095.5 960.5,-1089.5 966.5,-1083.5 972.5,-1083.5"/>
<text text-anchor="middle" x="1059.5" y="-1106.3" font-family="Dejavu Sans Mono" font-size="14.00">MISSING LABEL</text>
<text text-anchor="middle" x="1059.5" y="-1091.3" font-family="Dejavu Sans Mono" font-size="14.00">(kblad:ac&#45;snl26_lnk_1)</text>
</g>
<!-- nkblad_neuron_6&#45;&gt;nkblad_ac_snl26_lnk_1 -->
<g id="edge17" class="edge">
<title>nkblad_neuron_6&#45;&gt;nkblad_ac_snl26_lnk_1</title>
<path fill="none" stroke="black" d="M590.6,-807.51C591.98,-857.38 603.16,-992.53 682,-1056.5 722,-1088.96 853.75,-1098.93 950.15,-1101.77"/>
<polygon fill="black" stroke="black" points="950.15,-1105.27 960.24,-1102.04 950.34,-1098.27 950.15,-1105.27"/>
<text text-anchor="middle" x="773" y="-1100.3" font-family="Dejavu Sans Mono" font-size="14.00">apinatomy:links</text>
</g>
<!-- nkblad_ac_snl26_lnk_7 -->
<g id="node56" class="node">
<title>nkblad_ac_snl26_lnk_7</title>
<path fill="none" stroke="black" d="M972.5,-57.5C972.5,-57.5 1146.5,-57.5 1146.5,-57.5 1152.5,-57.5 1158.5,-63.5 1158.5,-69.5 1158.5,-69.5 1158.5,-83.5 1158.5,-83.5 1158.5,-89.5 1152.5,-95.5 1146.5,-95.5 1146.5,-95.5 972.5,-95.5 972.5,-95.5 966.5,-95.5 960.5,-89.5 960.5,-83.5 960.5,-83.5 960.5,-69.5 960.5,-69.5 960.5,-63.5 966.5,-57.5 972.5,-57.5"/>
<text text-anchor="middle" x="1059.5" y="-80.3" font-family="Dejavu Sans Mono" font-size="14.00">MISSING LABEL</text>
<text text-anchor="middle" x="1059.5" y="-65.3" font-family="Dejavu Sans Mono" font-size="14.00">(kblad:ac&#45;snl26_lnk_7)</text>
</g>
<!-- nkblad_neuron_6&#45;&gt;nkblad_ac_snl26_lnk_7 -->
<g id="edge68" class="edge">
<title>nkblad_neuron_6&#45;&gt;nkblad_ac_snl26_lnk_7</title>
<path fill="none" stroke="black" d="M590.53,-769.26C591.08,-676.29 598.34,-274.68 682,-190.5 739.74,-132.4 801.96,-214.98 864,-161.5 884.12,-144.15 861.87,-121.84 882,-104.5 900.9,-88.22 925.35,-79.4 949.99,-74.97"/>
<polygon fill="black" stroke="black" points="950.83,-78.38 960.17,-73.37 949.75,-71.46 950.83,-78.38"/>
<text text-anchor="middle" x="773" y="-194.3" font-family="Dejavu Sans Mono" font-size="14.00">apinatomy:links</text>
</g>
<!-- nkblad_ac_snl16_lnk_7 -->
<g id="node57" class="node">
<title>nkblad_ac_snl16_lnk_7</title>
<path fill="none" stroke="black" d="M972.5,-171.5C972.5,-171.5 1146.5,-171.5 1146.5,-171.5 1152.5,-171.5 1158.5,-177.5 1158.5,-183.5 1158.5,-183.5 1158.5,-197.5 1158.5,-197.5 1158.5,-203.5 1152.5,-209.5 1146.5,-209.5 1146.5,-209.5 972.5,-209.5 972.5,-209.5 966.5,-209.5 960.5,-203.5 960.5,-197.5 960.5,-197.5 960.5,-183.5 960.5,-183.5 960.5,-177.5 966.5,-171.5 972.5,-171.5"/>
<text text-anchor="middle" x="1059.5" y="-194.3" font-family="Dejavu Sans Mono" font-size="14.00">MISSING LABEL</text>
<text text-anchor="middle" x="1059.5" y="-179.3" font-family="Dejavu Sans Mono" font-size="14.00">(kblad:ac&#45;snl16_lnk_7)</text>
</g>
<!-- nkblad_neuron_6&#45;&gt;nkblad_ac_snl16_lnk_7 -->
<g id="edge2" class="edge">
<title>nkblad_neuron_6&#45;&gt;nkblad_ac_snl16_lnk_7</title>
<path fill="none" stroke="black" d="M591.99,-769.31C598.2,-694.08 624.44,-420.5 682,-359.5 739.57,-298.49 806.88,-370.94 864,-309.5 892.07,-279.31 852.3,-247.09 882,-218.5 900.35,-200.83 925.08,-191.62 950.22,-187.25"/>
<polygon fill="black" stroke="black" points="950.86,-190.69 960.24,-185.76 949.83,-183.77 950.86,-190.69"/>
<text text-anchor="middle" x="773" y="-363.3" font-family="Dejavu Sans Mono" font-size="14.00">apinatomy:links</text>
</g>
<!-- nkblad_ac_snl16_lnk_1 -->
<g id="node58" class="node">
<title>nkblad_ac_snl16_lnk_1</title>
<path fill="none" stroke="black" d="M972.5,-741.5C972.5,-741.5 1146.5,-741.5 1146.5,-741.5 1152.5,-741.5 1158.5,-747.5 1158.5,-753.5 1158.5,-753.5 1158.5,-767.5 1158.5,-767.5 1158.5,-773.5 1152.5,-779.5 1146.5,-779.5 1146.5,-779.5 972.5,-779.5 972.5,-779.5 966.5,-779.5 960.5,-773.5 960.5,-767.5 960.5,-767.5 960.5,-753.5 960.5,-753.5 960.5,-747.5 966.5,-741.5 972.5,-741.5"/>
<text text-anchor="middle" x="1059.5" y="-764.3" font-family="Dejavu Sans Mono" font-size="14.00">MISSING LABEL</text>
<text text-anchor="middle" x="1059.5" y="-749.3" font-family="Dejavu Sans Mono" font-size="14.00">(kblad:ac&#45;snl16_lnk_1)</text>
</g>
<!-- nkblad_neuron_6&#45;&gt;nkblad_ac_snl16_lnk_1 -->
<g id="edge22" class="edge">
<title>nkblad_neuron_6&#45;&gt;nkblad_ac_snl16_lnk_1</title>
<path fill="none" stroke="black" d="M664.34,-777.36C670.3,-776.65 676.25,-776.02 682,-775.5 772.07,-767.33 874.66,-763.61 949.98,-761.91"/>
<polygon fill="black" stroke="black" points="950.5,-765.4 960.42,-761.69 950.34,-758.41 950.5,-765.4"/>
<text text-anchor="middle" x="773" y="-779.3" font-family="Dejavu Sans Mono" font-size="14.00">apinatomy:links</text>
</g>
<!-- nkblad_ac_l1l26a_lnk_1 -->
<g id="node60" class="node">
<title>nkblad_ac_l1l26a_lnk_1</title>
<path fill="none" stroke="black" d="M968.5,-114.5C968.5,-114.5 1150.5,-114.5 1150.5,-114.5 1156.5,-114.5 1162.5,-120.5 1162.5,-126.5 1162.5,-126.5 1162.5,-140.5 1162.5,-140.5 1162.5,-146.5 1156.5,-152.5 1150.5,-152.5 1150.5,-152.5 968.5,-152.5 968.5,-152.5 962.5,-152.5 956.5,-146.5 956.5,-140.5 956.5,-140.5 956.5,-126.5 956.5,-126.5 956.5,-120.5 962.5,-114.5 968.5,-114.5"/>
<text text-anchor="middle" x="1059.5" y="-137.3" font-family="Dejavu Sans Mono" font-size="14.00">MISSING LABEL</text>
<text text-anchor="middle" x="1059.5" y="-122.3" font-family="Dejavu Sans Mono" font-size="14.00">(kblad:ac&#45;l1l26a_lnk_1)</text>
</g>
<!-- nkblad_neuron_6&#45;&gt;nkblad_ac_l1l26a_lnk_1 -->
<g id="edge59" class="edge">
<title>nkblad_neuron_6&#45;&gt;nkblad_ac_l1l26a_lnk_1</title>
<path fill="none" stroke="black" d="M591.66,-769.37C596.99,-687.52 621.44,-367.43 682,-290.5 736.76,-220.93 803.3,-273.95 864,-209.5 879.62,-192.91 864.35,-175.91 882,-161.5 900.19,-146.65 923.05,-138.13 946.23,-133.5"/>
<polygon fill="black" stroke="black" points="946.94,-136.93 956.18,-131.75 945.72,-130.04 946.94,-136.93"/>
<text text-anchor="middle" x="773" y="-294.3" font-family="Dejavu Sans Mono" font-size="14.00">apinatomy:links</text>
</g>
<!-- nPMID_3225349 -->
<g id="node61" class="node">
<title>nPMID_3225349</title>
<path fill="none" stroke="black" d="M1005.5,-513.5C1005.5,-513.5 1113.5,-513.5 1113.5,-513.5 1119.5,-513.5 1125.5,-519.5 1125.5,-525.5 1125.5,-525.5 1125.5,-539.5 1125.5,-539.5 1125.5,-545.5 1119.5,-551.5 1113.5,-551.5 1113.5,-551.5 1005.5,-551.5 1005.5,-551.5 999.5,-551.5 993.5,-545.5 993.5,-539.5 993.5,-539.5 993.5,-525.5 993.5,-525.5 993.5,-519.5 999.5,-513.5 1005.5,-513.5"/>
<text text-anchor="middle" x="1059.5" y="-536.3" font-family="Dejavu Sans Mono" font-size="14.00">MISSING LABEL</text>
<text text-anchor="middle" x="1059.5" y="-521.3" font-family="Dejavu Sans Mono" font-size="14.00">(PMID:3225349)</text>
</g>
<!-- nkblad_neuron_6&#45;&gt;nPMID_3225349 -->
<g id="edge51" class="edge">
<title>nkblad_neuron_6&#45;&gt;nPMID_3225349</title>
<path fill="none" stroke="black" d="M594.35,-769.36C602.9,-732.41 627.18,-651.63 682,-614.5 749.34,-568.89 796.87,-641.41 864,-595.5 878.44,-585.62 867.83,-570.76 882,-560.5 910.81,-539.64 949.21,-531.85 982.84,-529.61"/>
<polygon fill="black" stroke="black" points="983.3,-533.09 993.11,-529.08 982.94,-526.1 983.3,-533.09"/>
<text text-anchor="middle" x="773" y="-618.3" font-family="Dejavu Sans Mono" font-size="14.00">apinatomy:publications</text>
</g>
<!-- nkblad_ac_l1l26a_lnk_4 -->
<g id="node63" class="node">
<title>nkblad_ac_l1l26a_lnk_4</title>
<path fill="none" stroke="black" d="M968.5,-0.5C968.5,-0.5 1150.5,-0.5 1150.5,-0.5 1156.5,-0.5 1162.5,-6.5 1162.5,-12.5 1162.5,-12.5 1162.5,-26.5 1162.5,-26.5 1162.5,-32.5 1156.5,-38.5 1150.5,-38.5 1150.5,-38.5 968.5,-38.5 968.5,-38.5 962.5,-38.5 956.5,-32.5 956.5,-26.5 956.5,-26.5 956.5,-12.5 956.5,-12.5 956.5,-6.5 962.5,-0.5 968.5,-0.5"/>
<text text-anchor="middle" x="1059.5" y="-23.3" font-family="Dejavu Sans Mono" font-size="14.00">MISSING LABEL</text>
<text text-anchor="middle" x="1059.5" y="-8.3" font-family="Dejavu Sans Mono" font-size="14.00">(kblad:ac&#45;l1l26a_lnk_4)</text>
</g>
<!-- nkblad_neuron_6&#45;&gt;nkblad_ac_l1l26a_lnk_4 -->
<g id="edge36" class="edge">
<title>nkblad_neuron_6&#45;&gt;nkblad_ac_l1l26a_lnk_4</title>
<path fill="none" stroke="black" d="M590.82,-769.5C592.8,-673.9 605.84,-246.08 682,-142.5 742.31,-60.48 858.78,-32.19 946.28,-22.92"/>
<polygon fill="black" stroke="black" points="946.66,-26.4 956.26,-21.93 945.97,-19.43 946.66,-26.4"/>
<text text-anchor="middle" x="773" y="-146.3" font-family="Dejavu Sans Mono" font-size="14.00">apinatomy:links</text>
</g>
<!-- nPMID_2891149&#45;&gt;nelements_External -->
<g id="edge33" class="edge">
<title>nPMID_2891149&#45;&gt;nelements_External</title>
<path fill="none" stroke="black" d="M1125.52,-313.21C1203.76,-324.04 1338.98,-343.89 1454,-366.5 1543.13,-384.02 1644.22,-408.46 1713.44,-425.9"/>
<polygon fill="black" stroke="black" points="1712.86,-429.36 1723.42,-428.42 1714.58,-422.58 1712.86,-429.36"/>
<text text-anchor="middle" x="1354.5" y="-370.3" font-family="Dejavu Sans Mono" font-size="14.00">type</text>
</g>
<!-- nkblad_ac_l1l26a_lnk_2&#45;&gt;nkblad_K102 -->
<g id="edge56" class="edge">
<title>nkblad_ac_l1l26a_lnk_2&#45;&gt;nkblad_K102</title>
<path fill="none" stroke="black" d="M1162.52,-247.5C1283.43,-247.5 1486.6,-247.5 1630.42,-247.5"/>
<polygon fill="black" stroke="black" points="1630.67,-251 1640.67,-247.5 1630.67,-244 1630.67,-251"/>
<text text-anchor="middle" x="1354.5" y="-251.3" font-family="Dejavu Sans Mono" font-size="14.00">apinatomy:fasciculatesIn</text>
</g>
<!-- nkblad_ac_snl16_lnk_2&#45;&gt;nkblad_ref_mat_KM_27_K_129_K22_14 -->
<g id="edge9" class="edge">
<title>nkblad_ac_snl16_lnk_2&#45;&gt;nkblad_ref_mat_KM_27_K_129_K22_14</title>
<path fill="none" stroke="black" d="M1158.68,-648.5C1256.68,-650.5 1411.36,-653.65 1543.9,-656.35"/>
<polygon fill="black" stroke="black" points="1544.15,-659.85 1554.22,-656.56 1544.29,-652.85 1544.15,-659.85"/>
<text text-anchor="middle" x="1354.5" y="-658.3" font-family="Dejavu Sans Mono" font-size="14.00">apinatomy:fasciculatesIn</text>
</g>
<!-- nUBERON_0006448 -->
<g id="node62" class="node">
<title>nUBERON_0006448</title>
<path fill="none" stroke="black" d="M2729,-701.5C2729,-701.5 2854,-701.5 2854,-701.5 2860,-701.5 2866,-707.5 2866,-713.5 2866,-713.5 2866,-727.5 2866,-727.5 2866,-733.5 2860,-739.5 2854,-739.5 2854,-739.5 2729,-739.5 2729,-739.5 2723,-739.5 2717,-733.5 2717,-727.5 2717,-727.5 2717,-713.5 2717,-713.5 2717,-707.5 2723,-701.5 2729,-701.5"/>
<text text-anchor="middle" x="2791.5" y="-724.3" font-family="Dejavu Sans Mono" font-size="14.00">MISSING LABEL</text>
<text text-anchor="middle" x="2791.5" y="-709.3" font-family="Dejavu Sans Mono" font-size="14.00">(UBERON:0006448)</text>
</g>
<!-- nkblad_K22&#45;&gt;nUBERON_0006448 -->
<g id="edge42" class="edge">
<title>nkblad_K22&#45;&gt;nUBERON_0006448</title>
<path fill="none" stroke="black" d="M2532.21,-720.5C2588.24,-720.5 2655.13,-720.5 2706.8,-720.5"/>
<polygon fill="black" stroke="black" points="2706.92,-724 2716.92,-720.5 2706.92,-717 2706.92,-724"/>
<text text-anchor="middle" x="2624.5" y="-724.3" font-family="Dejavu Sans Mono" font-size="14.00">apinatomy:external</text>
</g>
<!-- nPMID_1358408&#45;&gt;nelements_External -->
<g id="edge57" class="edge">
<title>nPMID_1358408&#45;&gt;nelements_External</title>
<path fill="none" stroke="black" d="M1125.54,-421.06C1255.69,-426.19 1548.73,-437.72 1701.02,-443.72"/>
<polygon fill="black" stroke="black" points="1701.16,-447.23 1711.29,-444.13 1701.43,-440.23 1701.16,-447.23"/>
<text text-anchor="middle" x="1354.5" y="-438.3" font-family="Dejavu Sans Mono" font-size="14.00">type</text>
</g>
<!-- nPMID_30704972&#45;&gt;nelements_External -->
<g id="edge35" class="edge">
<title>nPMID_30704972&#45;&gt;nelements_External</title>
<path fill="none" stroke="black" d="M1129.79,-369.59C1262.02,-385.03 1550.57,-418.72 1701.18,-436.31"/>
<polygon fill="black" stroke="black" points="1701,-439.81 1711.34,-437.5 1701.81,-432.86 1701,-439.81"/>
<text text-anchor="middle" x="1354.5" y="-411.3" font-family="Dejavu Sans Mono" font-size="14.00">type</text>
</g>
<!-- nkblad_ac_snl26_lnk_1&#45;&gt;nkblad_ref_mat_K_83_K_129_K23_7 -->
<g id="edge43" class="edge">
<title>nkblad_ac_snl26_lnk_1&#45;&gt;nkblad_ref_mat_K_83_K_129_K23_7</title>
<path fill="none" stroke="black" d="M1158.68,-1107.43C1237,-1111.37 1351.5,-1117.12 1461.99,-1122.67"/>
<polygon fill="black" stroke="black" points="1461.81,-1126.17 1471.98,-1123.17 1462.17,-1119.17 1461.81,-1126.17"/>
<text text-anchor="middle" x="1354.5" y="-1125.3" font-family="Dejavu Sans Mono" font-size="14.00">apinatomy:fasciculatesIn</text>
</g>
<!-- nkblad_ac_snl26_lnk_7&#45;&gt;nkblad_n_lumspl -->
<g id="edge1" class="edge">
<title>nkblad_ac_snl26_lnk_7&#45;&gt;nkblad_n_lumspl</title>
<path fill="none" stroke="black" d="M1158.68,-84.1C1284.99,-93.87 1505.44,-110.94 1651.32,-122.23"/>
<polygon fill="black" stroke="black" points="1651.45,-125.75 1661.69,-123.03 1651.99,-118.77 1651.45,-125.75"/>
<text text-anchor="middle" x="1354.5" y="-111.3" font-family="Dejavu Sans Mono" font-size="14.00">apinatomy:fasciculatesIn</text>
</g>
<!-- nkblad_ac_snl16_lnk_7&#45;&gt;nkblad_n_lumspl -->
<g id="edge66" class="edge">
<title>nkblad_ac_snl16_lnk_7&#45;&gt;nkblad_n_lumspl</title>
<path fill="none" stroke="black" d="M1158.68,-182.9C1284.99,-173.13 1505.44,-156.06 1651.32,-144.77"/>
<polygon fill="black" stroke="black" points="1651.99,-148.23 1661.69,-143.97 1651.45,-141.25 1651.99,-148.23"/>
<text text-anchor="middle" x="1354.5" y="-179.3" font-family="Dejavu Sans Mono" font-size="14.00">apinatomy:fasciculatesIn</text>
</g>
<!-- nkblad_ac_snl16_lnk_1&#45;&gt;nkblad_ref_mat_K_83_K_129_K22_7 -->
<g id="edge38" class="edge">
<title>nkblad_ac_snl16_lnk_1&#45;&gt;nkblad_ref_mat_K_83_K_129_K22_7</title>
<path fill="none" stroke="black" d="M1158.68,-758.63C1236.92,-757.15 1351.27,-754.97 1461.65,-752.87"/>
<polygon fill="black" stroke="black" points="1462.05,-756.37 1471.98,-752.68 1461.91,-749.37 1462.05,-756.37"/>
<text text-anchor="middle" x="1354.5" y="-761.3" font-family="Dejavu Sans Mono" font-size="14.00">apinatomy:fasciculatesIn</text>
</g>
<!-- nkblad_ac_l1l26a_lnk_1&#45;&gt;nkblad_n_lumspl -->
<g id="edge62" class="edge">
<title>nkblad_ac_l1l26a_lnk_1&#45;&gt;nkblad_n_lumspl</title>
<path fill="none" stroke="black" d="M1162.52,-133.5C1289.5,-133.5 1507.22,-133.5 1651.63,-133.5"/>
<polygon fill="black" stroke="black" points="1651.9,-137 1661.9,-133.5 1651.9,-130 1651.9,-137"/>
<text text-anchor="middle" x="1354.5" y="-137.3" font-family="Dejavu Sans Mono" font-size="14.00">apinatomy:fasciculatesIn</text>
</g>
<!-- nPMID_3225349&#45;&gt;nelements_External -->
<g id="edge52" class="edge">
<title>nPMID_3225349&#45;&gt;nelements_External</title>
<path fill="none" stroke="black" d="M1125.61,-525.1C1203.65,-516.22 1338.39,-500.85 1454,-487.5 1537.59,-477.85 1632.61,-466.76 1701.42,-458.7"/>
<polygon fill="black" stroke="black" points="1701.85,-462.18 1711.37,-457.54 1701.03,-455.23 1701.85,-462.18"/>
<text text-anchor="middle" x="1354.5" y="-514.3" font-family="Dejavu Sans Mono" font-size="14.00">type</text>
</g>
<!-- nkblad_ac_l1l26a_lnk_4&#45;&gt;nkblad_K104 -->
<g id="edge34" class="edge">
<title>nkblad_ac_l1l26a_lnk_4&#45;&gt;nkblad_K104</title>
<path fill="none" stroke="black" d="M1162.52,-19.5C1300.98,-19.5 1547.31,-19.5 1688.86,-19.5"/>
<polygon fill="black" stroke="black" points="1688.87,-23 1698.87,-19.5 1688.87,-16 1688.87,-23"/>
<text text-anchor="middle" x="1354.5" y="-23.3" font-family="Dejavu Sans Mono" font-size="14.00">apinatomy:fasciculatesIn</text>
</g>
</g>
</svg>
