<?xml version="1.0" encoding="UTF-8" standalone="no"?>
<!DOCTYPE svg PUBLIC "-//W3C//DTD SVG 1.1//EN"
 "http://www.w3.org/Graphics/SVG/1.1/DTD/svg11.dtd">
<!-- Generated by graphviz version 2.47.1 (20210417.1919)
 -->
<!-- Pages: 1 -->
<svg width="7245pt" height="981pt"
 viewBox="0.00 0.00 7245.00 980.95" xmlns="http://www.w3.org/2000/svg" xmlns:xlink="http://www.w3.org/1999/xlink">
<g id="graph0" class="graph" transform="scale(1 1) rotate(0) translate(4 976.95)">
<polygon fill="white" stroke="transparent" points="-4,4 -4,-976.95 7241,-976.95 7241,4 -4,4"/>
<!-- nkblad_ac_snl6s1_lnk_1 -->
<g id="node1" class="node">
<title>nkblad_ac_snl6s1_lnk_1</title>
<path fill="none" stroke="black" d="M5745,-646.95C5745,-646.95 5927,-646.95 5927,-646.95 5933,-646.95 5939,-652.95 5939,-658.95 5939,-658.95 5939,-672.95 5939,-672.95 5939,-678.95 5933,-684.95 5927,-684.95 5927,-684.95 5745,-684.95 5745,-684.95 5739,-684.95 5733,-678.95 5733,-672.95 5733,-672.95 5733,-658.95 5733,-658.95 5733,-652.95 5739,-646.95 5745,-646.95"/>
<text text-anchor="middle" x="5836" y="-669.75" font-family="Dejavu Sans Mono" font-size="14.00">MISSING LABEL</text>
<text text-anchor="middle" x="5836" y="-654.75" font-family="Dejavu Sans Mono" font-size="14.00">(kblad:ac&#45;snl6s1_lnk_1)</text>
</g>
<!-- nkblad_ac_snl6s1_lyph_1 -->
<g id="node12" class="node">
<title>nkblad_ac_snl6s1_lyph_1</title>
<path fill="none" stroke="black" d="M6177,-383.95C6177,-383.95 6368,-383.95 6368,-383.95 6374,-383.95 6380,-389.95 6380,-395.95 6380,-395.95 6380,-409.95 6380,-409.95 6380,-415.95 6374,-421.95 6368,-421.95 6368,-421.95 6177,-421.95 6177,-421.95 6171,-421.95 6165,-415.95 6165,-409.95 6165,-409.95 6165,-395.95 6165,-395.95 6165,-389.95 6171,-383.95 6177,-383.95"/>
<text text-anchor="middle" x="6272.5" y="-406.75" font-family="Dejavu Sans Mono" font-size="14.00">Axon terminal (kblad)</text>
<text text-anchor="middle" x="6272.5" y="-391.75" font-family="Dejavu Sans Mono" font-size="14.00">(kblad:ac&#45;snl6s1_lyph_1)</text>
</g>
<!-- nkblad_ac_snl6s1_lnk_1&#45;&gt;nkblad_ac_snl6s1_lyph_1 -->
<g id="edge25" class="edge">
<title>nkblad_ac_snl6s1_lnk_1&#45;&gt;nkblad_ac_snl6s1_lyph_1</title>
<path fill="none" stroke="black" d="M5857.95,-646.86C5907.56,-602.63 6037.64,-492.34 6165,-431.95 6169.92,-429.61 6175.07,-427.44 6180.32,-425.42"/>
<polygon fill="black" stroke="black" points="6181.67,-428.65 6189.88,-421.95 6179.28,-422.07 6181.67,-428.65"/>
<text text-anchor="middle" x="6052" y="-562.75" font-family="Dejavu Sans Mono" font-size="14.00">apinatomy:conveyingLyph</text>
</g>
<!-- nkblad_n_pelspl -->
<g id="node19" class="node">
<title>nkblad_n_pelspl</title>
<path fill="none" stroke="black" d="M6181.5,-603.95C6181.5,-603.95 6363.5,-603.95 6363.5,-603.95 6369.5,-603.95 6375.5,-609.95 6375.5,-615.95 6375.5,-615.95 6375.5,-629.95 6375.5,-629.95 6375.5,-635.95 6369.5,-641.95 6363.5,-641.95 6363.5,-641.95 6181.5,-641.95 6181.5,-641.95 6175.5,-641.95 6169.5,-635.95 6169.5,-629.95 6169.5,-629.95 6169.5,-615.95 6169.5,-615.95 6169.5,-609.95 6175.5,-603.95 6181.5,-603.95"/>
<text text-anchor="middle" x="6272.5" y="-626.75" font-family="Dejavu Sans Mono" font-size="14.00">Pelvic splanchnic nerve</text>
<text text-anchor="middle" x="6272.5" y="-611.75" font-family="Dejavu Sans Mono" font-size="14.00">(kblad:n&#45;pelspl)</text>
</g>
<!-- nkblad_ac_snl6s1_lnk_1&#45;&gt;nkblad_n_pelspl -->
<g id="edge52" class="edge">
<title>nkblad_ac_snl6s1_lnk_1&#45;&gt;nkblad_n_pelspl</title>
<path fill="none" stroke="black" d="M5939.11,-653.87C5945.16,-653.2 5951.16,-652.56 5957,-651.95 6024.02,-644.95 6099.17,-637.99 6159.2,-632.64"/>
<polygon fill="black" stroke="black" points="6159.81,-636.1 6169.46,-631.73 6159.19,-629.13 6159.81,-636.1"/>
<text text-anchor="middle" x="6052" y="-655.75" font-family="Dejavu Sans Mono" font-size="14.00">apinatomy:endsIn</text>
</g>
<!-- nkblad_ac_snl6s1_lnk_2 -->
<g id="node39" class="node">
<title>nkblad_ac_snl6s1_lnk_2</title>
<path fill="none" stroke="black" d="M6181.5,-723.95C6181.5,-723.95 6363.5,-723.95 6363.5,-723.95 6369.5,-723.95 6375.5,-729.95 6375.5,-735.95 6375.5,-735.95 6375.5,-749.95 6375.5,-749.95 6375.5,-755.95 6369.5,-761.95 6363.5,-761.95 6363.5,-761.95 6181.5,-761.95 6181.5,-761.95 6175.5,-761.95 6169.5,-755.95 6169.5,-749.95 6169.5,-749.95 6169.5,-735.95 6169.5,-735.95 6169.5,-729.95 6175.5,-723.95 6181.5,-723.95"/>
<text text-anchor="middle" x="6272.5" y="-746.75" font-family="Dejavu Sans Mono" font-size="14.00">MISSING LABEL</text>
<text text-anchor="middle" x="6272.5" y="-731.75" font-family="Dejavu Sans Mono" font-size="14.00">(kblad:ac&#45;snl6s1_lnk_2)</text>
</g>
<!-- nkblad_ac_snl6s1_lnk_1&#45;&gt;nkblad_ac_snl6s1_lnk_2 -->
<g id="edge15" class="edge">
<title>nkblad_ac_snl6s1_lnk_1&#45;&gt;nkblad_ac_snl6s1_lnk_2</title>
<path fill="none" stroke="black" d="M5939.21,-680.41C5999.79,-689.4 6077.96,-701.74 6147,-714.95 6157.86,-717.02 6169.21,-719.35 6180.45,-721.76"/>
<polygon fill="black" stroke="black" points="6179.77,-725.2 6190.29,-723.89 6181.26,-718.35 6179.77,-725.2"/>
<text text-anchor="middle" x="6052" y="-718.75" font-family="Dejavu Sans Mono" font-size="14.00">apinatomy:next</text>
</g>
<!-- nkblad_ac_sns15_lyph_2 -->
<g id="node2" class="node">
<title>nkblad_ac_sns15_lyph_2</title>
<path fill="none" stroke="black" d="M6181.5,-440.95C6181.5,-440.95 6363.5,-440.95 6363.5,-440.95 6369.5,-440.95 6375.5,-446.95 6375.5,-452.95 6375.5,-452.95 6375.5,-466.95 6375.5,-466.95 6375.5,-472.95 6369.5,-478.95 6363.5,-478.95 6363.5,-478.95 6181.5,-478.95 6181.5,-478.95 6175.5,-478.95 6169.5,-472.95 6169.5,-466.95 6169.5,-466.95 6169.5,-452.95 6169.5,-452.95 6169.5,-446.95 6175.5,-440.95 6181.5,-440.95"/>
<text text-anchor="middle" x="6272.5" y="-463.75" font-family="Dejavu Sans Mono" font-size="14.00">Axon segment (kblad)</text>
<text text-anchor="middle" x="6272.5" y="-448.75" font-family="Dejavu Sans Mono" font-size="14.00">(kblad:ac&#45;sns15_lyph_2)</text>
</g>
<!-- napinatomy_TUBE -->
<g id="node48" class="node">
<title>napinatomy_TUBE</title>
<path fill="none" stroke="black" d="M6655,-327.95C6655,-327.95 6780,-327.95 6780,-327.95 6786,-327.95 6792,-333.95 6792,-339.95 6792,-339.95 6792,-353.95 6792,-353.95 6792,-359.95 6786,-365.95 6780,-365.95 6780,-365.95 6655,-365.95 6655,-365.95 6649,-365.95 6643,-359.95 6643,-353.95 6643,-353.95 6643,-339.95 6643,-339.95 6643,-333.95 6649,-327.95 6655,-327.95"/>
<text text-anchor="middle" x="6717.5" y="-350.75" font-family="Dejavu Sans Mono" font-size="14.00">MISSING LABEL</text>
<text text-anchor="middle" x="6717.5" y="-335.75" font-family="Dejavu Sans Mono" font-size="14.00">(apinatomy:TUBE)</text>
</g>
<!-- nkblad_ac_sns15_lyph_2&#45;&gt;napinatomy_TUBE -->
<g id="edge2" class="edge">
<title>nkblad_ac_sns15_lyph_2&#45;&gt;napinatomy_TUBE</title>
<path fill="none" stroke="black" d="M6375.81,-446.7C6452.42,-435.92 6550.24,-420.06 6588,-404.95 6596.93,-401.38 6597.52,-397.48 6606,-392.95 6621.62,-384.59 6639.1,-376.7 6655.46,-369.89"/>
<polygon fill="black" stroke="black" points="6657.01,-373.03 6664.94,-366 6654.36,-366.55 6657.01,-373.03"/>
<text text-anchor="middle" x="6493" y="-445.75" font-family="Dejavu Sans Mono" font-size="14.00">apinatomy:topology</text>
</g>
<!-- nSAO_280355188 -->
<g id="node58" class="node">
<title>nSAO_280355188</title>
<path fill="none" stroke="black" d="M7104.5,-319.95C7104.5,-319.95 7220.5,-319.95 7220.5,-319.95 7226.5,-319.95 7232.5,-325.95 7232.5,-331.95 7232.5,-331.95 7232.5,-345.95 7232.5,-345.95 7232.5,-351.95 7226.5,-357.95 7220.5,-357.95 7220.5,-357.95 7104.5,-357.95 7104.5,-357.95 7098.5,-357.95 7092.5,-351.95 7092.5,-345.95 7092.5,-345.95 7092.5,-331.95 7092.5,-331.95 7092.5,-325.95 7098.5,-319.95 7104.5,-319.95"/>
<text text-anchor="middle" x="7162.5" y="-342.75" font-family="Dejavu Sans Mono" font-size="14.00">MISSING LABEL</text>
<text text-anchor="middle" x="7162.5" y="-327.75" font-family="Dejavu Sans Mono" font-size="14.00">(SAO:280355188)</text>
</g>
<!-- nkblad_ac_sns15_lyph_2&#45;&gt;nSAO_280355188 -->
<g id="edge24" class="edge">
<title>nkblad_ac_sns15_lyph_2&#45;&gt;nSAO_280355188</title>
<path fill="none" stroke="black" d="M6318.42,-479.05C6341.7,-487.93 6370.88,-497.5 6398,-501.95 6481.33,-515.62 6504.21,-512.47 6588,-501.95 6807.36,-474.4 6860.91,-450.8 7070,-378.95 7083.99,-374.14 7098.81,-368.1 7112.37,-362.17"/>
<polygon fill="black" stroke="black" points="7113.8,-365.36 7121.52,-358.11 7110.96,-358.97 7113.8,-365.36"/>
<text text-anchor="middle" x="6717.5" y="-502.75" font-family="Dejavu Sans Mono" font-size="14.00">apinatomy:inheritedExternal</text>
</g>
<!-- nkblad_K69 -->
<g id="node3" class="node">
<title>nkblad_K69</title>
<path fill="none" stroke="black" d="M4150.5,-765.95C4150.5,-765.95 4332.5,-765.95 4332.5,-765.95 4338.5,-765.95 4344.5,-771.95 4344.5,-777.95 4344.5,-777.95 4344.5,-791.95 4344.5,-791.95 4344.5,-797.95 4338.5,-803.95 4332.5,-803.95 4332.5,-803.95 4150.5,-803.95 4150.5,-803.95 4144.5,-803.95 4138.5,-797.95 4138.5,-791.95 4138.5,-791.95 4138.5,-777.95 4138.5,-777.95 4138.5,-771.95 4144.5,-765.95 4150.5,-765.95"/>
<text text-anchor="middle" x="4241.5" y="-788.75" font-family="Dejavu Sans Mono" font-size="14.00">S1 ventral root (kblad)</text>
<text text-anchor="middle" x="4241.5" y="-773.75" font-family="Dejavu Sans Mono" font-size="14.00">(kblad:K69)</text>
</g>
<!-- nEMAPA_25281 -->
<g id="node4" class="node">
<title>nEMAPA_25281</title>
<path fill="none" stroke="black" d="M4747.5,-789.95C4747.5,-789.95 4847.5,-789.95 4847.5,-789.95 4853.5,-789.95 4859.5,-795.95 4859.5,-801.95 4859.5,-801.95 4859.5,-815.95 4859.5,-815.95 4859.5,-821.95 4853.5,-827.95 4847.5,-827.95 4847.5,-827.95 4747.5,-827.95 4747.5,-827.95 4741.5,-827.95 4735.5,-821.95 4735.5,-815.95 4735.5,-815.95 4735.5,-801.95 4735.5,-801.95 4735.5,-795.95 4741.5,-789.95 4747.5,-789.95"/>
<text text-anchor="middle" x="4797.5" y="-812.75" font-family="Dejavu Sans Mono" font-size="14.00">MISSING LABEL</text>
<text text-anchor="middle" x="4797.5" y="-797.75" font-family="Dejavu Sans Mono" font-size="14.00">(EMAPA:25281)</text>
</g>
<!-- nkblad_K69&#45;&gt;nEMAPA_25281 -->
<g id="edge17" class="edge">
<title>nkblad_K69&#45;&gt;nEMAPA_25281</title>
<path fill="none" stroke="black" d="M4344.76,-789.38C4455.16,-794.16 4628.17,-801.66 4724.9,-805.85"/>
<polygon fill="black" stroke="black" points="4725.02,-809.35 4735.16,-806.29 4725.33,-802.36 4725.02,-809.35"/>
<text text-anchor="middle" x="4490.5" y="-803.75" font-family="Dejavu Sans Mono" font-size="14.00">apinatomy:external</text>
</g>
<!-- nkblad_ns66 -->
<g id="node5" class="node">
<title>nkblad_ns66</title>
<path fill="none" stroke="black" d="M4747.5,-689.95C4747.5,-689.95 4847.5,-689.95 4847.5,-689.95 4853.5,-689.95 4859.5,-695.95 4859.5,-701.95 4859.5,-701.95 4859.5,-715.95 4859.5,-715.95 4859.5,-721.95 4853.5,-727.95 4847.5,-727.95 4847.5,-727.95 4747.5,-727.95 4747.5,-727.95 4741.5,-727.95 4735.5,-721.95 4735.5,-715.95 4735.5,-715.95 4735.5,-701.95 4735.5,-701.95 4735.5,-695.95 4741.5,-689.95 4747.5,-689.95"/>
<text text-anchor="middle" x="4797.5" y="-712.75" font-family="Dejavu Sans Mono" font-size="14.00">MISSING LABEL</text>
<text text-anchor="middle" x="4797.5" y="-697.75" font-family="Dejavu Sans Mono" font-size="14.00">(kblad:ns66)</text>
</g>
<!-- nkblad_ac_snl6s1 -->
<g id="node18" class="node">
<title>nkblad_ac_snl6s1</title>
<path fill="none" stroke="black" d="M5213,-689.95C5213,-689.95 5552,-689.95 5552,-689.95 5558,-689.95 5564,-695.95 5564,-701.95 5564,-701.95 5564,-715.95 5564,-715.95 5564,-721.95 5558,-727.95 5552,-727.95 5552,-727.95 5213,-727.95 5213,-727.95 5207,-727.95 5201,-721.95 5201,-715.95 5201,-715.95 5201,-701.95 5201,-701.95 5201,-695.95 5207,-689.95 5213,-689.95"/>
<text text-anchor="middle" x="5382.5" y="-712.75" font-family="Dejavu Sans Mono" font-size="14.00">L6&#45;5 S1&#45;5 PSPO axon chain_Neuron 5 (kblad)</text>
<text text-anchor="middle" x="5382.5" y="-697.75" font-family="Dejavu Sans Mono" font-size="14.00">(kblad:ac&#45;snl6s1)</text>
</g>
<!-- nkblad_ns66&#45;&gt;nkblad_ac_snl6s1 -->
<g id="edge40" class="edge">
<title>nkblad_ns66&#45;&gt;nkblad_ac_snl6s1</title>
<path fill="none" stroke="black" d="M4859.52,-708.95C4937.39,-708.95 5075.77,-708.95 5190.49,-708.95"/>
<polygon fill="black" stroke="black" points="5190.81,-712.45 5200.81,-708.95 5190.81,-705.45 5190.81,-712.45"/>
<text text-anchor="middle" x="5088" y="-712.75" font-family="Dejavu Sans Mono" font-size="14.00">apinatomy:rootOf</text>
</g>
<!-- nkblad_ac_sns15_lnk_4 -->
<g id="node6" class="node">
<title>nkblad_ac_sns15_lnk_4</title>
<path fill="none" stroke="black" d="M4154.5,-688.95C4154.5,-688.95 4328.5,-688.95 4328.5,-688.95 4334.5,-688.95 4340.5,-694.95 4340.5,-700.95 4340.5,-700.95 4340.5,-714.95 4340.5,-714.95 4340.5,-720.95 4334.5,-726.95 4328.5,-726.95 4328.5,-726.95 4154.5,-726.95 4154.5,-726.95 4148.5,-726.95 4142.5,-720.95 4142.5,-714.95 4142.5,-714.95 4142.5,-700.95 4142.5,-700.95 4142.5,-694.95 4148.5,-688.95 4154.5,-688.95"/>
<text text-anchor="middle" x="4241.5" y="-711.75" font-family="Dejavu Sans Mono" font-size="14.00">MISSING LABEL</text>
<text text-anchor="middle" x="4241.5" y="-696.75" font-family="Dejavu Sans Mono" font-size="14.00">(kblad:ac&#45;sns15_lnk_4)</text>
</g>
<!-- nkblad_ac_sns15_lnk_4&#45;&gt;nkblad_ns66 -->
<g id="edge65" class="edge">
<title>nkblad_ac_sns15_lnk_4&#45;&gt;nkblad_ns66</title>
<path fill="none" stroke="black" d="M4340.59,-708.12C4450.9,-708.32 4627.37,-708.64 4725.26,-708.82"/>
<polygon fill="black" stroke="black" points="4725.34,-712.32 4735.35,-708.84 4725.35,-705.32 4725.34,-712.32"/>
<text text-anchor="middle" x="4490.5" y="-711.75" font-family="Dejavu Sans Mono" font-size="14.00">apinatomy:target</text>
</g>
<!-- nkblad_ac_sns15_lyph_4 -->
<g id="node15" class="node">
<title>nkblad_ac_sns15_lyph_4</title>
<path fill="none" stroke="black" d="M6181.5,-665.95C6181.5,-665.95 6363.5,-665.95 6363.5,-665.95 6369.5,-665.95 6375.5,-671.95 6375.5,-677.95 6375.5,-677.95 6375.5,-691.95 6375.5,-691.95 6375.5,-697.95 6369.5,-703.95 6363.5,-703.95 6363.5,-703.95 6181.5,-703.95 6181.5,-703.95 6175.5,-703.95 6169.5,-697.95 6169.5,-691.95 6169.5,-691.95 6169.5,-677.95 6169.5,-677.95 6169.5,-671.95 6175.5,-665.95 6181.5,-665.95"/>
<text text-anchor="middle" x="6272.5" y="-688.75" font-family="Dejavu Sans Mono" font-size="14.00">Axon segment (kblad)</text>
<text text-anchor="middle" x="6272.5" y="-673.75" font-family="Dejavu Sans Mono" font-size="14.00">(kblad:ac&#45;sns15_lyph_4)</text>
</g>
<!-- nkblad_ac_sns15_lnk_4&#45;&gt;nkblad_ac_sns15_lyph_4 -->
<g id="edge57" class="edge">
<title>nkblad_ac_sns15_lnk_4&#45;&gt;nkblad_ac_sns15_lyph_4</title>
<path fill="none" stroke="black" d="M4340.79,-722.74C4353.62,-724.34 4366.61,-725.81 4379,-726.95 4485.77,-736.79 4512.82,-735.02 4620,-737.95 5206.02,-753.95 5355.33,-802.76 5939,-747.95 6022.74,-740.08 6116.79,-721.32 6183.45,-706.3"/>
<polygon fill="black" stroke="black" points="6184.51,-709.64 6193.49,-704.02 6182.96,-702.82 6184.51,-709.64"/>
<text text-anchor="middle" x="5382.5" y="-776.75" font-family="Dejavu Sans Mono" font-size="14.00">apinatomy:conveyingLyph</text>
</g>
<!-- nkblad_ac_sns15_lnk_4&#45;&gt;nkblad_n_pelspl -->
<g id="edge91" class="edge">
<title>nkblad_ac_sns15_lnk_4&#45;&gt;nkblad_n_pelspl</title>
<path fill="none" stroke="black" d="M4340.61,-700.05C4416.77,-694.12 4525.03,-686.18 4620,-680.95 5198.73,-649.08 5892.56,-631.39 6159.4,-625.35"/>
<polygon fill="black" stroke="black" points="6159.56,-628.84 6169.48,-625.12 6159.4,-621.84 6159.56,-628.84"/>
<text text-anchor="middle" x="5382.5" y="-657.75" font-family="Dejavu Sans Mono" font-size="14.00">apinatomy:endsIn</text>
</g>
<!-- nkblad_ac_snl65_lyph_4 -->
<g id="node7" class="node">
<title>nkblad_ac_snl65_lyph_4</title>
<path fill="none" stroke="black" d="M6181.5,-193.95C6181.5,-193.95 6363.5,-193.95 6363.5,-193.95 6369.5,-193.95 6375.5,-199.95 6375.5,-205.95 6375.5,-205.95 6375.5,-219.95 6375.5,-219.95 6375.5,-225.95 6369.5,-231.95 6363.5,-231.95 6363.5,-231.95 6181.5,-231.95 6181.5,-231.95 6175.5,-231.95 6169.5,-225.95 6169.5,-219.95 6169.5,-219.95 6169.5,-205.95 6169.5,-205.95 6169.5,-199.95 6175.5,-193.95 6181.5,-193.95"/>
<text text-anchor="middle" x="6272.5" y="-216.75" font-family="Dejavu Sans Mono" font-size="14.00">Axon segment (kblad)</text>
<text text-anchor="middle" x="6272.5" y="-201.75" font-family="Dejavu Sans Mono" font-size="14.00">(kblad:ac&#45;snl65_lyph_4)</text>
</g>
<!-- nkblad_ac_snl65_lyph_4&#45;&gt;napinatomy_TUBE -->
<g id="edge22" class="edge">
<title>nkblad_ac_snl65_lyph_4&#45;&gt;napinatomy_TUBE</title>
<path fill="none" stroke="black" d="M6375.58,-217.4C6439.15,-223.37 6521.24,-237.01 6588,-267.95 6597.45,-272.33 6597.46,-276.98 6606,-282.95 6626.66,-297.38 6650.76,-311.62 6671.17,-322.98"/>
<polygon fill="black" stroke="black" points="6669.52,-326.07 6679.97,-327.83 6672.9,-319.94 6669.52,-326.07"/>
<text text-anchor="middle" x="6493" y="-271.75" font-family="Dejavu Sans Mono" font-size="14.00">apinatomy:topology</text>
</g>
<!-- nkblad_ac_snl65_lyph_4&#45;&gt;nSAO_280355188 -->
<g id="edge3" class="edge">
<title>nkblad_ac_snl65_lyph_4&#45;&gt;nSAO_280355188</title>
<path fill="none" stroke="black" d="M6375.77,-203.49C6563.28,-188.01 6953.56,-164.97 7070,-228.95 7104.13,-247.7 7130.77,-284.73 7146.29,-310.62"/>
<polygon fill="black" stroke="black" points="7143.46,-312.71 7151.5,-319.6 7149.51,-309.2 7143.46,-312.71"/>
<text text-anchor="middle" x="6717.5" y="-193.75" font-family="Dejavu Sans Mono" font-size="14.00">apinatomy:inheritedExternal</text>
</g>
<!-- nkblad_ns62 -->
<g id="node8" class="node">
<title>nkblad_ns62</title>
<path fill="none" stroke="black" d="M1723,-481.95C1723,-481.95 1823,-481.95 1823,-481.95 1829,-481.95 1835,-487.95 1835,-493.95 1835,-493.95 1835,-507.95 1835,-507.95 1835,-513.95 1829,-519.95 1823,-519.95 1823,-519.95 1723,-519.95 1723,-519.95 1717,-519.95 1711,-513.95 1711,-507.95 1711,-507.95 1711,-493.95 1711,-493.95 1711,-487.95 1717,-481.95 1723,-481.95"/>
<text text-anchor="middle" x="1773" y="-504.75" font-family="Dejavu Sans Mono" font-size="14.00">MISSING LABEL</text>
<text text-anchor="middle" x="1773" y="-489.75" font-family="Dejavu Sans Mono" font-size="14.00">(kblad:ns62)</text>
</g>
<!-- nkblad_dc_snl65_lnk_1 -->
<g id="node14" class="node">
<title>nkblad_dc_snl65_lnk_1</title>
<path fill="none" stroke="black" d="M2053,-481.95C2053,-481.95 2227,-481.95 2227,-481.95 2233,-481.95 2239,-487.95 2239,-493.95 2239,-493.95 2239,-507.95 2239,-507.95 2239,-513.95 2233,-519.95 2227,-519.95 2227,-519.95 2053,-519.95 2053,-519.95 2047,-519.95 2041,-513.95 2041,-507.95 2041,-507.95 2041,-493.95 2041,-493.95 2041,-487.95 2047,-481.95 2053,-481.95"/>
<text text-anchor="middle" x="2140" y="-504.75" font-family="Dejavu Sans Mono" font-size="14.00">MISSING LABEL</text>
<text text-anchor="middle" x="2140" y="-489.75" font-family="Dejavu Sans Mono" font-size="14.00">(kblad:dc&#45;snl65_lnk_1)</text>
</g>
<!-- nkblad_ns62&#45;&gt;nkblad_dc_snl65_lnk_1 -->
<g id="edge35" class="edge">
<title>nkblad_ns62&#45;&gt;nkblad_dc_snl65_lnk_1</title>
<path fill="none" stroke="black" d="M1835.09,-500.95C1888.36,-500.95 1966.87,-500.95 2030.75,-500.95"/>
<polygon fill="black" stroke="black" points="2030.87,-504.45 2040.87,-500.95 2030.87,-497.45 2030.87,-504.45"/>
<text text-anchor="middle" x="1948.5" y="-504.75" font-family="Dejavu Sans Mono" font-size="14.00">apinatomy:sourceOf</text>
</g>
<!-- nUBERON_0006460 -->
<g id="node9" class="node">
<title>nUBERON_0006460</title>
<path fill="none" stroke="black" d="M4735,-555.95C4735,-555.95 4860,-555.95 4860,-555.95 4866,-555.95 4872,-561.95 4872,-567.95 4872,-567.95 4872,-581.95 4872,-581.95 4872,-587.95 4866,-593.95 4860,-593.95 4860,-593.95 4735,-593.95 4735,-593.95 4729,-593.95 4723,-587.95 4723,-581.95 4723,-581.95 4723,-567.95 4723,-567.95 4723,-561.95 4729,-555.95 4735,-555.95"/>
<text text-anchor="middle" x="4797.5" y="-578.75" font-family="Dejavu Sans Mono" font-size="14.00">MISSING LABEL</text>
<text text-anchor="middle" x="4797.5" y="-563.75" font-family="Dejavu Sans Mono" font-size="14.00">(UBERON:0006460)</text>
</g>
<!-- nEMAPA_25279 -->
<g id="node10" class="node">
<title>nEMAPA_25279</title>
<path fill="none" stroke="black" d="M4747.5,-126.95C4747.5,-126.95 4847.5,-126.95 4847.5,-126.95 4853.5,-126.95 4859.5,-132.95 4859.5,-138.95 4859.5,-138.95 4859.5,-152.95 4859.5,-152.95 4859.5,-158.95 4853.5,-164.95 4847.5,-164.95 4847.5,-164.95 4747.5,-164.95 4747.5,-164.95 4741.5,-164.95 4735.5,-158.95 4735.5,-152.95 4735.5,-152.95 4735.5,-138.95 4735.5,-138.95 4735.5,-132.95 4741.5,-126.95 4747.5,-126.95"/>
<text text-anchor="middle" x="4797.5" y="-149.75" font-family="Dejavu Sans Mono" font-size="14.00">MISSING LABEL</text>
<text text-anchor="middle" x="4797.5" y="-134.75" font-family="Dejavu Sans Mono" font-size="14.00">(EMAPA:25279)</text>
</g>
<!-- nkblad_ref_mat_K_83_K_129_K28_7 -->
<g id="node11" class="node">
<title>nkblad_ref_mat_K_83_K_129_K28_7</title>
<path fill="none" stroke="black" d="M2477,-540.95C2477,-540.95 3105,-540.95 3105,-540.95 3111,-540.95 3117,-546.95 3117,-552.95 3117,-552.95 3117,-566.95 3117,-566.95 3117,-572.95 3111,-578.95 3105,-578.95 3105,-578.95 2477,-578.95 2477,-578.95 2471,-578.95 2465,-572.95 2465,-566.95 2465,-566.95 2465,-552.95 2465,-552.95 2465,-546.95 2471,-540.95 2477,-540.95"/>
<text text-anchor="middle" x="2791" y="-563.75" font-family="Dejavu Sans Mono" font-size="14.00">lamina VII of gray matter of spinal cord in S1 spinal segment (kblad) layer 7</text>
<text text-anchor="middle" x="2791" y="-548.75" font-family="Dejavu Sans Mono" font-size="14.00">(kblad:ref_mat_K_83_K_129_K28_7)</text>
</g>
<!-- nkblad_ref_mat_K_83_K_129 -->
<g id="node29" class="node">
<title>nkblad_ref_mat_K_83_K_129</title>
<path fill="none" stroke="black" d="M3458,-527.95C3458,-527.95 3781,-527.95 3781,-527.95 3787,-527.95 3793,-533.95 3793,-539.95 3793,-539.95 3793,-553.95 3793,-553.95 3793,-559.95 3787,-565.95 3781,-565.95 3781,-565.95 3458,-565.95 3458,-565.95 3452,-565.95 3446,-559.95 3446,-553.95 3446,-553.95 3446,-539.95 3446,-539.95 3446,-533.95 3452,-527.95 3458,-527.95"/>
<text text-anchor="middle" x="3619.5" y="-550.75" font-family="Dejavu Sans Mono" font-size="14.00">lamina VII of gray matter of spinal cord</text>
<text text-anchor="middle" x="3619.5" y="-535.75" font-family="Dejavu Sans Mono" font-size="14.00">(kblad:ref_mat_K_83_K_129)</text>
</g>
<!-- nkblad_ref_mat_K_83_K_129_K28_7&#45;&gt;nkblad_ref_mat_K_83_K_129 -->
<g id="edge85" class="edge">
<title>nkblad_ref_mat_K_83_K_129_K28_7&#45;&gt;nkblad_ref_mat_K_83_K_129</title>
<path fill="none" stroke="black" d="M3033.16,-540.94C3067.33,-538.87 3102.04,-537.1 3135,-535.95 3234.05,-532.49 3258.91,-533.86 3358,-535.95 3383.07,-536.48 3409.49,-537.29 3435.5,-538.24"/>
<polygon fill="black" stroke="black" points="3435.71,-541.75 3445.83,-538.63 3435.97,-534.76 3435.71,-541.75"/>
<text text-anchor="middle" x="3246.5" y="-539.75" font-family="Dejavu Sans Mono" font-size="14.00">apinatomy:cloneOf</text>
</g>
<!-- nkblad_K28 -->
<g id="node52" class="node">
<title>nkblad_K28</title>
<path fill="none" stroke="black" d="M4142,-535.95C4142,-535.95 4341,-535.95 4341,-535.95 4347,-535.95 4353,-541.95 4353,-547.95 4353,-547.95 4353,-561.95 4353,-561.95 4353,-567.95 4347,-573.95 4341,-573.95 4341,-573.95 4142,-573.95 4142,-573.95 4136,-573.95 4130,-567.95 4130,-561.95 4130,-561.95 4130,-547.95 4130,-547.95 4130,-541.95 4136,-535.95 4142,-535.95"/>
<text text-anchor="middle" x="4241.5" y="-558.75" font-family="Dejavu Sans Mono" font-size="14.00">S1 spinal segment (kblad)</text>
<text text-anchor="middle" x="4241.5" y="-543.75" font-family="Dejavu Sans Mono" font-size="14.00">(kblad:K28)</text>
</g>
<!-- nkblad_ref_mat_K_83_K_129_K28_7&#45;&gt;nkblad_K28 -->
<g id="edge71" class="edge">
<title>nkblad_ref_mat_K_83_K_129_K28_7&#45;&gt;nkblad_K28</title>
<path fill="none" stroke="black" d="M2982.77,-578.95C3032.29,-583.1 3085.59,-586.86 3135,-588.95 3388.73,-599.65 3942.18,-585.32 4104,-572.95 4109.16,-572.55 4114.42,-572.1 4119.72,-571.59"/>
<polygon fill="black" stroke="black" points="4120.38,-575.05 4129.98,-570.57 4119.68,-568.08 4120.38,-575.05"/>
<text text-anchor="middle" x="3619.5" y="-595.75" font-family="Dejavu Sans Mono" font-size="14.00">apinatomy:layerIn</text>
</g>
<!-- nkblad_ac_snl6s1_lyph_1&#45;&gt;napinatomy_TUBE -->
<g id="edge89" class="edge">
<title>nkblad_ac_snl6s1_lyph_1&#45;&gt;napinatomy_TUBE</title>
<path fill="none" stroke="black" d="M6380.12,-388.29C6386.16,-387.49 6392.16,-386.7 6398,-385.95 6477.58,-375.64 6568.44,-364.59 6632.69,-356.89"/>
<polygon fill="black" stroke="black" points="6633.26,-360.35 6642.77,-355.68 6632.43,-353.4 6633.26,-360.35"/>
<text text-anchor="middle" x="6493" y="-389.75" font-family="Dejavu Sans Mono" font-size="14.00">apinatomy:topology</text>
</g>
<!-- nkblad_ac_snl6s1_lyph_1&#45;&gt;nSAO_280355188 -->
<g id="edge30" class="edge">
<title>nkblad_ac_snl6s1_lyph_1&#45;&gt;nSAO_280355188</title>
<path fill="none" stroke="black" d="M6380.21,-404.84C6441.12,-405.27 6518.9,-404.74 6588,-400.95 6765.21,-391.22 6971.9,-365.25 7082.34,-350.18"/>
<polygon fill="black" stroke="black" points="7082.96,-353.63 7092.39,-348.81 7082.01,-346.7 7082.96,-353.63"/>
<text text-anchor="middle" x="6717.5" y="-402.75" font-family="Dejavu Sans Mono" font-size="14.00">apinatomy:inheritedExternal</text>
</g>
<!-- nkblad_ac_sns15_lnk_3 -->
<g id="node13" class="node">
<title>nkblad_ac_sns15_lnk_3</title>
<path fill="none" stroke="black" d="M3532.5,-664.95C3532.5,-664.95 3706.5,-664.95 3706.5,-664.95 3712.5,-664.95 3718.5,-670.95 3718.5,-676.95 3718.5,-676.95 3718.5,-690.95 3718.5,-690.95 3718.5,-696.95 3712.5,-702.95 3706.5,-702.95 3706.5,-702.95 3532.5,-702.95 3532.5,-702.95 3526.5,-702.95 3520.5,-696.95 3520.5,-690.95 3520.5,-690.95 3520.5,-676.95 3520.5,-676.95 3520.5,-670.95 3526.5,-664.95 3532.5,-664.95"/>
<text text-anchor="middle" x="3619.5" y="-687.75" font-family="Dejavu Sans Mono" font-size="14.00">MISSING LABEL</text>
<text text-anchor="middle" x="3619.5" y="-672.75" font-family="Dejavu Sans Mono" font-size="14.00">(kblad:ac&#45;sns15_lnk_3)</text>
</g>
<!-- nkblad_ac_sns15_lnk_3&#45;&gt;nkblad_K69 -->
<g id="edge62" class="edge">
<title>nkblad_ac_sns15_lnk_3&#45;&gt;nkblad_K69</title>
<path fill="none" stroke="black" d="M3718.74,-699.95C3830.14,-718.1 4011.41,-747.63 4128.29,-766.67"/>
<polygon fill="black" stroke="black" points="4127.9,-770.15 4138.34,-768.31 4129.03,-763.24 4127.9,-770.15"/>
<text text-anchor="middle" x="3992.5" y="-763.75" font-family="Dejavu Sans Mono" font-size="14.00">apinatomy:fasciculatesIn</text>
</g>
<!-- nkblad_ac_sns15_lnk_3&#45;&gt;nkblad_ac_sns15_lnk_4 -->
<g id="edge19" class="edge">
<title>nkblad_ac_sns15_lnk_3&#45;&gt;nkblad_ac_sns15_lnk_4</title>
<path fill="none" stroke="black" d="M3718.74,-687.75C3831.46,-692.11 4015.74,-699.25 4132.44,-703.76"/>
<polygon fill="black" stroke="black" points="4132.34,-707.26 4142.46,-704.15 4132.61,-700.27 4132.34,-707.26"/>
<text text-anchor="middle" x="3992.5" y="-705.75" font-family="Dejavu Sans Mono" font-size="14.00">apinatomy:next</text>
</g>
<!-- nkblad_ac_sns15_lyph_3 -->
<g id="node25" class="node">
<title>nkblad_ac_sns15_lyph_3</title>
<path fill="none" stroke="black" d="M6181.5,-522.95C6181.5,-522.95 6363.5,-522.95 6363.5,-522.95 6369.5,-522.95 6375.5,-528.95 6375.5,-534.95 6375.5,-534.95 6375.5,-548.95 6375.5,-548.95 6375.5,-554.95 6369.5,-560.95 6363.5,-560.95 6363.5,-560.95 6181.5,-560.95 6181.5,-560.95 6175.5,-560.95 6169.5,-554.95 6169.5,-548.95 6169.5,-548.95 6169.5,-534.95 6169.5,-534.95 6169.5,-528.95 6175.5,-522.95 6181.5,-522.95"/>
<text text-anchor="middle" x="6272.5" y="-545.75" font-family="Dejavu Sans Mono" font-size="14.00">Axon segment (kblad)</text>
<text text-anchor="middle" x="6272.5" y="-530.75" font-family="Dejavu Sans Mono" font-size="14.00">(kblad:ac&#45;sns15_lyph_3)</text>
</g>
<!-- nkblad_ac_sns15_lnk_3&#45;&gt;nkblad_ac_sns15_lyph_3 -->
<g id="edge72" class="edge">
<title>nkblad_ac_sns15_lnk_3&#45;&gt;nkblad_ac_sns15_lyph_3</title>
<path fill="none" stroke="black" d="M3718.61,-679.41C4003.67,-666.13 4856.5,-625.78 5564,-585.95 5774.23,-574.11 6019.47,-558.44 6159.02,-549.35"/>
<polygon fill="black" stroke="black" points="6159.55,-552.82 6169.3,-548.68 6159.09,-545.84 6159.55,-552.82"/>
<text text-anchor="middle" x="5088" y="-619.75" font-family="Dejavu Sans Mono" font-size="14.00">apinatomy:conveyingLyph</text>
</g>
<!-- nkblad_dc_snl65_lyph_1 -->
<g id="node37" class="node">
<title>nkblad_dc_snl65_lyph_1</title>
<path fill="none" stroke="black" d="M2691.5,-837.95C2691.5,-837.95 2890.5,-837.95 2890.5,-837.95 2896.5,-837.95 2902.5,-843.95 2902.5,-849.95 2902.5,-849.95 2902.5,-863.95 2902.5,-863.95 2902.5,-869.95 2896.5,-875.95 2890.5,-875.95 2890.5,-875.95 2691.5,-875.95 2691.5,-875.95 2685.5,-875.95 2679.5,-869.95 2679.5,-863.95 2679.5,-863.95 2679.5,-849.95 2679.5,-849.95 2679.5,-843.95 2685.5,-837.95 2691.5,-837.95"/>
<text text-anchor="middle" x="2791" y="-860.75" font-family="Dejavu Sans Mono" font-size="14.00">Dendrite terminal (kblad)</text>
<text text-anchor="middle" x="2791" y="-845.75" font-family="Dejavu Sans Mono" font-size="14.00">(kblad:dc&#45;snl65_lyph_1)</text>
</g>
<!-- nkblad_dc_snl65_lnk_1&#45;&gt;nkblad_dc_snl65_lyph_1 -->
<g id="edge1" class="edge">
<title>nkblad_dc_snl65_lnk_1&#45;&gt;nkblad_dc_snl65_lyph_1</title>
<path fill="none" stroke="black" d="M2222.43,-519.98C2228.44,-523.34 2234.06,-527.3 2239,-531.95 2255.28,-547.29 2242.12,-562.25 2257,-578.95 2381.81,-719.01 2594.15,-799.45 2709.55,-834.93"/>
<polygon fill="black" stroke="black" points="2708.8,-838.36 2719.39,-837.92 2710.84,-831.67 2708.8,-838.36"/>
<text text-anchor="middle" x="2352" y="-722.75" font-family="Dejavu Sans Mono" font-size="14.00">apinatomy:conveyingLyph</text>
</g>
<!-- nkblad_ref_mat_K_83_K_129_K27_7 -->
<g id="node59" class="node">
<title>nkblad_ref_mat_K_83_K_129_K27_7</title>
<path fill="none" stroke="black" d="M2477,-371.95C2477,-371.95 3105,-371.95 3105,-371.95 3111,-371.95 3117,-377.95 3117,-383.95 3117,-383.95 3117,-397.95 3117,-397.95 3117,-403.95 3111,-409.95 3105,-409.95 3105,-409.95 2477,-409.95 2477,-409.95 2471,-409.95 2465,-403.95 2465,-397.95 2465,-397.95 2465,-383.95 2465,-383.95 2465,-377.95 2471,-371.95 2477,-371.95"/>
<text text-anchor="middle" x="2791" y="-394.75" font-family="Dejavu Sans Mono" font-size="14.00">lamina VII of gray matter of spinal cord in L6 spinal segment (kblad) layer 7</text>
<text text-anchor="middle" x="2791" y="-379.75" font-family="Dejavu Sans Mono" font-size="14.00">(kblad:ref_mat_K_83_K_129_K27_7)</text>
</g>
<!-- nkblad_dc_snl65_lnk_1&#45;&gt;nkblad_ref_mat_K_83_K_129_K27_7 -->
<g id="edge50" class="edge">
<title>nkblad_dc_snl65_lnk_1&#45;&gt;nkblad_ref_mat_K_83_K_129_K27_7</title>
<path fill="none" stroke="black" d="M2226.36,-481.86C2230.86,-479.26 2235.12,-476.3 2239,-472.95 2253.74,-460.19 2241.06,-444.17 2257,-432.95 2266.76,-426.08 2354.67,-417.95 2456.37,-410.69"/>
<polygon fill="black" stroke="black" points="2456.85,-414.16 2466.58,-409.97 2456.35,-407.18 2456.85,-414.16"/>
<text text-anchor="middle" x="2352" y="-436.75" font-family="Dejavu Sans Mono" font-size="14.00">apinatomy:endsIn</text>
</g>
<!-- nkblad_ac_sns15_lyph_4&#45;&gt;napinatomy_TUBE -->
<g id="edge67" class="edge">
<title>nkblad_ac_sns15_lyph_4&#45;&gt;napinatomy_TUBE</title>
<path fill="none" stroke="black" d="M6360.16,-665.84C6367.38,-662.02 6374.14,-657.44 6380,-651.95 6396.32,-636.66 6382.37,-620.95 6398,-604.95 6461.77,-539.64 6532.22,-599.21 6588,-526.95 6624.72,-479.38 6569.4,-440.61 6606,-392.95 6613.37,-383.36 6623.1,-375.75 6633.73,-369.72"/>
<polygon fill="black" stroke="black" points="6635.57,-372.71 6642.85,-365.01 6632.36,-366.49 6635.57,-372.71"/>
<text text-anchor="middle" x="6493" y="-608.75" font-family="Dejavu Sans Mono" font-size="14.00">apinatomy:topology</text>
</g>
<!-- nkblad_ac_sns15_lyph_4&#45;&gt;nSAO_280355188 -->
<g id="edge14" class="edge">
<title>nkblad_ac_sns15_lyph_4&#45;&gt;nSAO_280355188</title>
<path fill="none" stroke="black" d="M6375.53,-686.56C6512.44,-687.61 6747.8,-685.13 6829,-657.95 6951.86,-616.82 6981.38,-588.45 7070,-493.95 7105.93,-455.63 7134.13,-400.8 7149.26,-367.66"/>
<polygon fill="black" stroke="black" points="7152.64,-368.68 7153.53,-358.12 7146.25,-365.82 7152.64,-368.68"/>
<text text-anchor="middle" x="6717.5" y="-686.75" font-family="Dejavu Sans Mono" font-size="14.00">apinatomy:inheritedExternal</text>
</g>
<!-- nkblad_K27 -->
<g id="node16" class="node">
<title>nkblad_K27</title>
<path fill="none" stroke="black" d="M4142,-312.95C4142,-312.95 4341,-312.95 4341,-312.95 4347,-312.95 4353,-318.95 4353,-324.95 4353,-324.95 4353,-338.95 4353,-338.95 4353,-344.95 4347,-350.95 4341,-350.95 4341,-350.95 4142,-350.95 4142,-350.95 4136,-350.95 4130,-344.95 4130,-338.95 4130,-338.95 4130,-324.95 4130,-324.95 4130,-318.95 4136,-312.95 4142,-312.95"/>
<text text-anchor="middle" x="4241.5" y="-335.75" font-family="Dejavu Sans Mono" font-size="14.00">L6 spinal segment (kblad)</text>
<text text-anchor="middle" x="4241.5" y="-320.75" font-family="Dejavu Sans Mono" font-size="14.00">(kblad:K27)</text>
</g>
<!-- nEMAPA_19574 -->
<g id="node56" class="node">
<title>nEMAPA_19574</title>
<path fill="none" stroke="black" d="M4669,-312.95C4669,-312.95 4926,-312.95 4926,-312.95 4932,-312.95 4938,-318.95 4938,-324.95 4938,-324.95 4938,-338.95 4938,-338.95 4938,-344.95 4932,-350.95 4926,-350.95 4926,-350.95 4669,-350.95 4669,-350.95 4663,-350.95 4657,-344.95 4657,-338.95 4657,-338.95 4657,-324.95 4657,-324.95 4657,-318.95 4663,-312.95 4669,-312.95"/>
<text text-anchor="middle" x="4797.5" y="-335.75" font-family="Dejavu Sans Mono" font-size="14.00">Sixth lumbar spinal cord segment</text>
<text text-anchor="middle" x="4797.5" y="-320.75" font-family="Dejavu Sans Mono" font-size="14.00">(EMAPA:19574)</text>
</g>
<!-- nkblad_K27&#45;&gt;nEMAPA_19574 -->
<g id="edge87" class="edge">
<title>nkblad_K27&#45;&gt;nEMAPA_19574</title>
<path fill="none" stroke="black" d="M4353.28,-331.95C4437.52,-331.95 4554.3,-331.95 4646.85,-331.95"/>
<polygon fill="black" stroke="black" points="4646.87,-335.45 4656.87,-331.95 4646.87,-328.45 4646.87,-335.45"/>
<text text-anchor="middle" x="4490.5" y="-335.75" font-family="Dejavu Sans Mono" font-size="14.00">apinatomy:external</text>
</g>
<!-- nkblad_ac_snl65_lnk_1 -->
<g id="node17" class="node">
<title>nkblad_ac_snl65_lnk_1</title>
<path fill="none" stroke="black" d="M2053,-235.95C2053,-235.95 2227,-235.95 2227,-235.95 2233,-235.95 2239,-241.95 2239,-247.95 2239,-247.95 2239,-261.95 2239,-261.95 2239,-267.95 2233,-273.95 2227,-273.95 2227,-273.95 2053,-273.95 2053,-273.95 2047,-273.95 2041,-267.95 2041,-261.95 2041,-261.95 2041,-247.95 2041,-247.95 2041,-241.95 2047,-235.95 2053,-235.95"/>
<text text-anchor="middle" x="2140" y="-258.75" font-family="Dejavu Sans Mono" font-size="14.00">MISSING LABEL</text>
<text text-anchor="middle" x="2140" y="-243.75" font-family="Dejavu Sans Mono" font-size="14.00">(kblad:ac&#45;snl65_lnk_1)</text>
</g>
<!-- nkblad_ac_snl65_lyph_1 -->
<g id="node28" class="node">
<title>nkblad_ac_snl65_lyph_1</title>
<path fill="none" stroke="black" d="M6181.5,-78.95C6181.5,-78.95 6363.5,-78.95 6363.5,-78.95 6369.5,-78.95 6375.5,-84.95 6375.5,-90.95 6375.5,-90.95 6375.5,-104.95 6375.5,-104.95 6375.5,-110.95 6369.5,-116.95 6363.5,-116.95 6363.5,-116.95 6181.5,-116.95 6181.5,-116.95 6175.5,-116.95 6169.5,-110.95 6169.5,-104.95 6169.5,-104.95 6169.5,-90.95 6169.5,-90.95 6169.5,-84.95 6175.5,-78.95 6181.5,-78.95"/>
<text text-anchor="middle" x="6272.5" y="-101.75" font-family="Dejavu Sans Mono" font-size="14.00">Axon segment (kblad)</text>
<text text-anchor="middle" x="6272.5" y="-86.75" font-family="Dejavu Sans Mono" font-size="14.00">(kblad:ac&#45;snl65_lyph_1)</text>
</g>
<!-- nkblad_ac_snl65_lnk_1&#45;&gt;nkblad_ac_snl65_lyph_1 -->
<g id="edge6" class="edge">
<title>nkblad_ac_snl65_lnk_1&#45;&gt;nkblad_ac_snl65_lyph_1</title>
<path fill="none" stroke="black" d="M2186.9,-235.85C2291.78,-194.01 2557.86,-97.95 2790,-97.95 2790,-97.95 2790,-97.95 5837,-97.95 5946.39,-97.95 6071.26,-97.95 6158.98,-97.95"/>
<polygon fill="black" stroke="black" points="6159.22,-101.45 6169.22,-97.95 6159.22,-94.45 6159.22,-101.45"/>
<text text-anchor="middle" x="4490.5" y="-101.75" font-family="Dejavu Sans Mono" font-size="14.00">apinatomy:conveyingLyph</text>
</g>
<!-- nkblad_ac_snl65_lnk_2 -->
<g id="node49" class="node">
<title>nkblad_ac_snl65_lnk_2</title>
<path fill="none" stroke="black" d="M2704,-211.95C2704,-211.95 2878,-211.95 2878,-211.95 2884,-211.95 2890,-217.95 2890,-223.95 2890,-223.95 2890,-237.95 2890,-237.95 2890,-243.95 2884,-249.95 2878,-249.95 2878,-249.95 2704,-249.95 2704,-249.95 2698,-249.95 2692,-243.95 2692,-237.95 2692,-237.95 2692,-223.95 2692,-223.95 2692,-217.95 2698,-211.95 2704,-211.95"/>
<text text-anchor="middle" x="2791" y="-234.75" font-family="Dejavu Sans Mono" font-size="14.00">MISSING LABEL</text>
<text text-anchor="middle" x="2791" y="-219.75" font-family="Dejavu Sans Mono" font-size="14.00">(kblad:ac&#45;snl65_lnk_2)</text>
</g>
<!-- nkblad_ac_snl65_lnk_1&#45;&gt;nkblad_ac_snl65_lnk_2 -->
<g id="edge36" class="edge">
<title>nkblad_ac_snl65_lnk_1&#45;&gt;nkblad_ac_snl65_lnk_2</title>
<path fill="none" stroke="black" d="M2239.09,-250.67C2245.15,-250.42 2251.16,-250.18 2257,-249.95 2403.99,-244.16 2573.82,-238.24 2681.53,-234.58"/>
<polygon fill="black" stroke="black" points="2681.88,-238.07 2691.76,-234.23 2681.64,-231.07 2681.88,-238.07"/>
<text text-anchor="middle" x="2352" y="-253.75" font-family="Dejavu Sans Mono" font-size="14.00">apinatomy:next</text>
</g>
<!-- nkblad_ac_snl65_lnk_1&#45;&gt;nkblad_ref_mat_K_83_K_129_K27_7 -->
<g id="edge80" class="edge">
<title>nkblad_ac_snl65_lnk_1&#45;&gt;nkblad_ref_mat_K_83_K_129_K27_7</title>
<path fill="none" stroke="black" d="M2231.92,-274C2352.33,-299.23 2564.02,-343.59 2689.19,-369.82"/>
<polygon fill="black" stroke="black" points="2688.66,-373.29 2699.17,-371.91 2690.1,-366.44 2688.66,-373.29"/>
<text text-anchor="middle" x="2352" y="-321.75" font-family="Dejavu Sans Mono" font-size="14.00">apinatomy:endsIn</text>
</g>
<!-- nkblad_ac_snl6s1&#45;&gt;nkblad_ac_snl6s1_lnk_1 -->
<g id="edge77" class="edge">
<title>nkblad_ac_snl6s1&#45;&gt;nkblad_ac_snl6s1_lnk_1</title>
<path fill="none" stroke="black" d="M5564.22,-691.74C5617.73,-686.64 5674.76,-681.21 5722.62,-676.65"/>
<polygon fill="black" stroke="black" points="5723.06,-680.12 5732.68,-675.69 5722.4,-673.16 5723.06,-680.12"/>
<text text-anchor="middle" x="5648.5" y="-693.75" font-family="Dejavu Sans Mono" font-size="14.00">apinatomy:levels</text>
</g>
<!-- nkblad_ac_snl6s1&#45;&gt;nkblad_ac_snl6s1_lnk_2 -->
<g id="edge32" class="edge">
<title>nkblad_ac_snl6s1&#45;&gt;nkblad_ac_snl6s1_lnk_2</title>
<path fill="none" stroke="black" d="M5564,-715.86C5742.31,-722.69 6009.45,-732.91 6159.27,-738.65"/>
<polygon fill="black" stroke="black" points="6159.29,-742.15 6169.41,-739.04 6159.55,-735.16 6159.29,-742.15"/>
<text text-anchor="middle" x="5836" y="-732.75" font-family="Dejavu Sans Mono" font-size="14.00">apinatomy:levels</text>
</g>
<!-- nUBERON_0018675 -->
<g id="node32" class="node">
<title>nUBERON_0018675</title>
<path fill="none" stroke="black" d="M6655,-609.95C6655,-609.95 6780,-609.95 6780,-609.95 6786,-609.95 6792,-615.95 6792,-621.95 6792,-621.95 6792,-635.95 6792,-635.95 6792,-641.95 6786,-647.95 6780,-647.95 6780,-647.95 6655,-647.95 6655,-647.95 6649,-647.95 6643,-641.95 6643,-635.95 6643,-635.95 6643,-621.95 6643,-621.95 6643,-615.95 6649,-609.95 6655,-609.95"/>
<text text-anchor="middle" x="6717.5" y="-632.75" font-family="Dejavu Sans Mono" font-size="14.00">MISSING LABEL</text>
<text text-anchor="middle" x="6717.5" y="-617.75" font-family="Dejavu Sans Mono" font-size="14.00">(UBERON:0018675)</text>
</g>
<!-- nkblad_n_pelspl&#45;&gt;nUBERON_0018675 -->
<g id="edge44" class="edge">
<title>nkblad_n_pelspl&#45;&gt;nUBERON_0018675</title>
<path fill="none" stroke="black" d="M6375.69,-624.33C6453.66,-625.39 6559.75,-626.82 6632.74,-627.81"/>
<polygon fill="black" stroke="black" points="6632.77,-631.31 6642.82,-627.95 6632.87,-624.31 6632.77,-631.31"/>
<text text-anchor="middle" x="6493" y="-630.75" font-family="Dejavu Sans Mono" font-size="14.00">apinatomy:external</text>
</g>
<!-- nkblad_ns63 -->
<g id="node20" class="node">
<title>nkblad_ns63</title>
<path fill="none" stroke="black" d="M1723,-295.95C1723,-295.95 1823,-295.95 1823,-295.95 1829,-295.95 1835,-301.95 1835,-307.95 1835,-307.95 1835,-321.95 1835,-321.95 1835,-327.95 1829,-333.95 1823,-333.95 1823,-333.95 1723,-333.95 1723,-333.95 1717,-333.95 1711,-327.95 1711,-321.95 1711,-321.95 1711,-307.95 1711,-307.95 1711,-301.95 1717,-295.95 1723,-295.95"/>
<text text-anchor="middle" x="1773" y="-318.75" font-family="Dejavu Sans Mono" font-size="14.00">MISSING LABEL</text>
<text text-anchor="middle" x="1773" y="-303.75" font-family="Dejavu Sans Mono" font-size="14.00">(kblad:ns63)</text>
</g>
<!-- nkblad_ns63&#45;&gt;nkblad_ac_snl65_lnk_1 -->
<g id="edge33" class="edge">
<title>nkblad_ns63&#45;&gt;nkblad_ac_snl65_lnk_1</title>
<path fill="none" stroke="black" d="M1835.09,-304.91C1888.36,-296.15 1966.87,-283.24 2030.75,-272.74"/>
<polygon fill="black" stroke="black" points="2031.57,-276.15 2040.87,-271.08 2030.44,-269.25 2031.57,-276.15"/>
<text text-anchor="middle" x="1948.5" y="-300.75" font-family="Dejavu Sans Mono" font-size="14.00">apinatomy:sourceOf</text>
</g>
<!-- nkblad_lnk_sns15 -->
<g id="node21" class="node">
<title>nkblad_lnk_sns15</title>
<path fill="none" stroke="black" d="M1376,-510.95C1376,-510.95 1509,-510.95 1509,-510.95 1515,-510.95 1521,-516.95 1521,-522.95 1521,-522.95 1521,-536.95 1521,-536.95 1521,-542.95 1515,-548.95 1509,-548.95 1509,-548.95 1376,-548.95 1376,-548.95 1370,-548.95 1364,-542.95 1364,-536.95 1364,-536.95 1364,-522.95 1364,-522.95 1364,-516.95 1370,-510.95 1376,-510.95"/>
<text text-anchor="middle" x="1442.5" y="-533.75" font-family="Dejavu Sans Mono" font-size="14.00">MISSING LABEL</text>
<text text-anchor="middle" x="1442.5" y="-518.75" font-family="Dejavu Sans Mono" font-size="14.00">(kblad:lnk&#45;sns15)</text>
</g>
<!-- nkblad_ns65 -->
<g id="node47" class="node">
<title>nkblad_ns65</title>
<path fill="none" stroke="black" d="M1723,-424.95C1723,-424.95 1823,-424.95 1823,-424.95 1829,-424.95 1835,-430.95 1835,-436.95 1835,-436.95 1835,-450.95 1835,-450.95 1835,-456.95 1829,-462.95 1823,-462.95 1823,-462.95 1723,-462.95 1723,-462.95 1717,-462.95 1711,-456.95 1711,-450.95 1711,-450.95 1711,-436.95 1711,-436.95 1711,-430.95 1717,-424.95 1723,-424.95"/>
<text text-anchor="middle" x="1773" y="-447.75" font-family="Dejavu Sans Mono" font-size="14.00">MISSING LABEL</text>
<text text-anchor="middle" x="1773" y="-432.75" font-family="Dejavu Sans Mono" font-size="14.00">(kblad:ns65)</text>
</g>
<!-- nkblad_lnk_sns15&#45;&gt;nkblad_ns65 -->
<g id="edge42" class="edge">
<title>nkblad_lnk_sns15&#45;&gt;nkblad_ns65</title>
<path fill="none" stroke="black" d="M1521.25,-520.83C1582.22,-513.21 1658.88,-502.43 1672,-494.95 1682.97,-488.69 1679.66,-480.21 1690,-472.95 1693.64,-470.39 1697.53,-468.03 1701.57,-465.87"/>
<polygon fill="black" stroke="black" points="1703.16,-468.99 1710.59,-461.44 1700.07,-462.71 1703.16,-468.99"/>
<text text-anchor="middle" x="1605.5" y="-521.75" font-family="Dejavu Sans Mono" font-size="14.00">apinatomy:target</text>
</g>
<!-- nkblad_ns64 -->
<g id="node55" class="node">
<title>nkblad_ns64</title>
<path fill="none" stroke="black" d="M1723,-538.95C1723,-538.95 1823,-538.95 1823,-538.95 1829,-538.95 1835,-544.95 1835,-550.95 1835,-550.95 1835,-564.95 1835,-564.95 1835,-570.95 1829,-576.95 1823,-576.95 1823,-576.95 1723,-576.95 1723,-576.95 1717,-576.95 1711,-570.95 1711,-564.95 1711,-564.95 1711,-550.95 1711,-550.95 1711,-544.95 1717,-538.95 1723,-538.95"/>
<text text-anchor="middle" x="1773" y="-561.75" font-family="Dejavu Sans Mono" font-size="14.00">MISSING LABEL</text>
<text text-anchor="middle" x="1773" y="-546.75" font-family="Dejavu Sans Mono" font-size="14.00">(kblad:ns64)</text>
</g>
<!-- nkblad_lnk_sns15&#45;&gt;nkblad_ns64 -->
<g id="edge37" class="edge">
<title>nkblad_lnk_sns15&#45;&gt;nkblad_ns64</title>
<path fill="none" stroke="black" d="M1521.35,-536.58C1575.8,-541.22 1647.97,-547.38 1700.88,-551.89"/>
<polygon fill="black" stroke="black" points="1700.6,-555.37 1710.86,-552.74 1701.19,-548.4 1700.6,-555.37"/>
<text text-anchor="middle" x="1605.5" y="-551.75" font-family="Dejavu Sans Mono" font-size="14.00">apinatomy:source</text>
</g>
<!-- napinatomy_BAG -->
<g id="node22" class="node">
<title>napinatomy_BAG</title>
<path fill="none" stroke="black" d="M7104.5,-837.95C7104.5,-837.95 7220.5,-837.95 7220.5,-837.95 7226.5,-837.95 7232.5,-843.95 7232.5,-849.95 7232.5,-849.95 7232.5,-863.95 7232.5,-863.95 7232.5,-869.95 7226.5,-875.95 7220.5,-875.95 7220.5,-875.95 7104.5,-875.95 7104.5,-875.95 7098.5,-875.95 7092.5,-869.95 7092.5,-863.95 7092.5,-863.95 7092.5,-849.95 7092.5,-849.95 7092.5,-843.95 7098.5,-837.95 7104.5,-837.95"/>
<text text-anchor="middle" x="7162.5" y="-860.75" font-family="Dejavu Sans Mono" font-size="14.00">MISSING LABEL</text>
<text text-anchor="middle" x="7162.5" y="-845.75" font-family="Dejavu Sans Mono" font-size="14.00">(apinatomy:BAG)</text>
</g>
<!-- nkblad_K68 -->
<g id="node23" class="node">
<title>nkblad_K68</title>
<path fill="none" stroke="black" d="M4150.5,-126.95C4150.5,-126.95 4332.5,-126.95 4332.5,-126.95 4338.5,-126.95 4344.5,-132.95 4344.5,-138.95 4344.5,-138.95 4344.5,-152.95 4344.5,-152.95 4344.5,-158.95 4338.5,-164.95 4332.5,-164.95 4332.5,-164.95 4150.5,-164.95 4150.5,-164.95 4144.5,-164.95 4138.5,-158.95 4138.5,-152.95 4138.5,-152.95 4138.5,-138.95 4138.5,-138.95 4138.5,-132.95 4144.5,-126.95 4150.5,-126.95"/>
<text text-anchor="middle" x="4241.5" y="-149.75" font-family="Dejavu Sans Mono" font-size="14.00">L6 ventral root (kblad)</text>
<text text-anchor="middle" x="4241.5" y="-134.75" font-family="Dejavu Sans Mono" font-size="14.00">(kblad:K68)</text>
</g>
<!-- nkblad_K68&#45;&gt;nEMAPA_25279 -->
<g id="edge90" class="edge">
<title>nkblad_K68&#45;&gt;nEMAPA_25279</title>
<path fill="none" stroke="black" d="M4344.76,-145.95C4455.16,-145.95 4628.17,-145.95 4724.9,-145.95"/>
<polygon fill="black" stroke="black" points="4725.16,-149.45 4735.16,-145.95 4725.16,-142.45 4725.16,-149.45"/>
<text text-anchor="middle" x="4490.5" y="-149.75" font-family="Dejavu Sans Mono" font-size="14.00">apinatomy:external</text>
</g>
<!-- nkblad_lnk_snl65 -->
<g id="node24" class="node">
<title>nkblad_lnk_snl65</title>
<path fill="none" stroke="black" d="M1376,-443.95C1376,-443.95 1509,-443.95 1509,-443.95 1515,-443.95 1521,-449.95 1521,-455.95 1521,-455.95 1521,-469.95 1521,-469.95 1521,-475.95 1515,-481.95 1509,-481.95 1509,-481.95 1376,-481.95 1376,-481.95 1370,-481.95 1364,-475.95 1364,-469.95 1364,-469.95 1364,-455.95 1364,-455.95 1364,-449.95 1370,-443.95 1376,-443.95"/>
<text text-anchor="middle" x="1442.5" y="-466.75" font-family="Dejavu Sans Mono" font-size="14.00">MISSING LABEL</text>
<text text-anchor="middle" x="1442.5" y="-451.75" font-family="Dejavu Sans Mono" font-size="14.00">(kblad:lnk&#45;snl65)</text>
</g>
<!-- nkblad_lnk_snl65&#45;&gt;nkblad_ns62 -->
<g id="edge68" class="edge">
<title>nkblad_lnk_snl65&#45;&gt;nkblad_ns62</title>
<path fill="none" stroke="black" d="M1521.25,-466.17C1565.57,-468.64 1622.08,-472.88 1672,-479.95 1681.39,-481.28 1691.21,-482.97 1700.88,-484.81"/>
<polygon fill="black" stroke="black" points="1700.39,-488.28 1710.88,-486.77 1701.74,-481.41 1700.39,-488.28"/>
<text text-anchor="middle" x="1605.5" y="-483.75" font-family="Dejavu Sans Mono" font-size="14.00">apinatomy:source</text>
</g>
<!-- nkblad_lnk_snl65&#45;&gt;nkblad_ns63 -->
<g id="edge73" class="edge">
<title>nkblad_lnk_snl65&#45;&gt;nkblad_ns63</title>
<path fill="none" stroke="black" d="M1485.77,-443.9C1545.81,-416.85 1655.66,-367.36 1720.41,-338.19"/>
<polygon fill="black" stroke="black" points="1721.95,-341.34 1729.63,-334.04 1719.07,-334.95 1721.95,-341.34"/>
<text text-anchor="middle" x="1605.5" y="-422.75" font-family="Dejavu Sans Mono" font-size="14.00">apinatomy:target</text>
</g>
<!-- nkblad_ac_sns15_lyph_3&#45;&gt;napinatomy_TUBE -->
<g id="edge88" class="edge">
<title>nkblad_ac_sns15_lyph_3&#45;&gt;napinatomy_TUBE</title>
<path fill="none" stroke="black" d="M6351.47,-522.89C6443.21,-500.32 6583.7,-465.22 6588,-460.95 6610.18,-438.92 6585.44,-416.5 6606,-392.95 6613.9,-383.9 6623.87,-376.59 6634.56,-370.7"/>
<polygon fill="black" stroke="black" points="6636.35,-373.71 6643.69,-366.07 6633.19,-367.47 6636.35,-373.71"/>
<text text-anchor="middle" x="6493" y="-513.75" font-family="Dejavu Sans Mono" font-size="14.00">apinatomy:topology</text>
</g>
<!-- nkblad_ac_sns15_lyph_3&#45;&gt;nSAO_280355188 -->
<g id="edge28" class="edge">
<title>nkblad_ac_sns15_lyph_3&#45;&gt;nSAO_280355188</title>
<path fill="none" stroke="black" d="M6366.04,-560.97C6376.78,-562.6 6387.6,-564 6398,-564.95 6482.09,-572.65 6503.95,-573.07 6588,-564.95 6809.56,-543.55 6882.06,-548.21 7070,-428.95 7096.95,-411.84 7122.39,-385.7 7139.58,-365.99"/>
<polygon fill="black" stroke="black" points="7142.35,-368.12 7146.19,-358.25 7137.03,-363.58 7142.35,-368.12"/>
<text text-anchor="middle" x="6717.5" y="-565.75" font-family="Dejavu Sans Mono" font-size="14.00">apinatomy:inheritedExternal</text>
</g>
<!-- nkblad_ref_mat_KM_27_K_129_K28_14 -->
<g id="node26" class="node">
<title>nkblad_ref_mat_KM_27_K_129_K28_14</title>
<path fill="none" stroke="black" d="M3388,-470.95C3388,-470.95 3851,-470.95 3851,-470.95 3857,-470.95 3863,-476.95 3863,-482.95 3863,-482.95 3863,-496.95 3863,-496.95 3863,-502.95 3857,-508.95 3851,-508.95 3851,-508.95 3388,-508.95 3388,-508.95 3382,-508.95 3376,-502.95 3376,-496.95 3376,-496.95 3376,-482.95 3376,-482.95 3376,-476.95 3382,-470.95 3388,-470.95"/>
<text text-anchor="middle" x="3619.5" y="-493.75" font-family="Dejavu Sans Mono" font-size="14.00">White matter of CNS in S1 spinal segment (kblad) layer 14</text>
<text text-anchor="middle" x="3619.5" y="-478.75" font-family="Dejavu Sans Mono" font-size="14.00">(kblad:ref_mat_KM_27_K_129_K28_14)</text>
</g>
<!-- nkblad_ref_mat_KM_27_K_129 -->
<g id="node35" class="node">
<title>nkblad_ref_mat_KM_27_K_129</title>
<path fill="none" stroke="black" d="M4134,-421.95C4134,-421.95 4349,-421.95 4349,-421.95 4355,-421.95 4361,-427.95 4361,-433.95 4361,-433.95 4361,-447.95 4361,-447.95 4361,-453.95 4355,-459.95 4349,-459.95 4349,-459.95 4134,-459.95 4134,-459.95 4128,-459.95 4122,-453.95 4122,-447.95 4122,-447.95 4122,-433.95 4122,-433.95 4122,-427.95 4128,-421.95 4134,-421.95"/>
<text text-anchor="middle" x="4241.5" y="-444.75" font-family="Dejavu Sans Mono" font-size="14.00">White matter of CNS</text>
<text text-anchor="middle" x="4241.5" y="-429.75" font-family="Dejavu Sans Mono" font-size="14.00">(kblad:ref_mat_KM_27_K_129)</text>
</g>
<!-- nkblad_ref_mat_KM_27_K_129_K28_14&#45;&gt;nkblad_ref_mat_KM_27_K_129 -->
<g id="edge53" class="edge">
<title>nkblad_ref_mat_KM_27_K_129_K28_14&#45;&gt;nkblad_ref_mat_KM_27_K_129</title>
<path fill="none" stroke="black" d="M3800.81,-508.96C3915.73,-517.83 4052.4,-521.38 4104,-494.95 4116.19,-488.71 4110.65,-477.6 4122,-469.95 4124.9,-467.99 4127.91,-466.17 4131.02,-464.47"/>
<polygon fill="black" stroke="black" points="4132.61,-467.59 4140,-460 4129.49,-461.32 4132.61,-467.59"/>
<text text-anchor="middle" x="3992.5" y="-518.75" font-family="Dejavu Sans Mono" font-size="14.00">apinatomy:cloneOf</text>
</g>
<!-- nkblad_ref_mat_KM_27_K_129_K28_14&#45;&gt;nkblad_K28 -->
<g id="edge5" class="edge">
<title>nkblad_ref_mat_KM_27_K_129_K28_14&#45;&gt;nkblad_K28</title>
<path fill="none" stroke="black" d="M3834.75,-508.98C3844.42,-511.89 3853.88,-515.2 3863,-518.95 3872.37,-522.8 3871.52,-529.37 3881,-532.95 3923.27,-548.91 4032.4,-553.86 4119.42,-555.15"/>
<polygon fill="black" stroke="black" points="4119.6,-558.65 4129.64,-555.28 4119.69,-551.65 4119.6,-558.65"/>
<text text-anchor="middle" x="3992.5" y="-557.75" font-family="Dejavu Sans Mono" font-size="14.00">apinatomy:layerIn</text>
</g>
<!-- nkblad_ac_snl65_lyph_3 -->
<g id="node27" class="node">
<title>nkblad_ac_snl65_lyph_3</title>
<path fill="none" stroke="black" d="M6181.5,-136.95C6181.5,-136.95 6363.5,-136.95 6363.5,-136.95 6369.5,-136.95 6375.5,-142.95 6375.5,-148.95 6375.5,-148.95 6375.5,-162.95 6375.5,-162.95 6375.5,-168.95 6369.5,-174.95 6363.5,-174.95 6363.5,-174.95 6181.5,-174.95 6181.5,-174.95 6175.5,-174.95 6169.5,-168.95 6169.5,-162.95 6169.5,-162.95 6169.5,-148.95 6169.5,-148.95 6169.5,-142.95 6175.5,-136.95 6181.5,-136.95"/>
<text text-anchor="middle" x="6272.5" y="-159.75" font-family="Dejavu Sans Mono" font-size="14.00">Axon segment (kblad)</text>
<text text-anchor="middle" x="6272.5" y="-144.75" font-family="Dejavu Sans Mono" font-size="14.00">(kblad:ac&#45;snl65_lyph_3)</text>
</g>
<!-- nkblad_ac_snl65_lyph_3&#45;&gt;napinatomy_TUBE -->
<g id="edge79" class="edge">
<title>nkblad_ac_snl65_lyph_3&#45;&gt;napinatomy_TUBE</title>
<path fill="none" stroke="black" d="M6375.69,-143.26C6444.23,-140.7 6531.91,-149.83 6588,-201.95 6615.02,-227.05 6584.21,-253.2 6606,-282.95 6618.55,-300.08 6637.19,-313.36 6655.6,-323.26"/>
<polygon fill="black" stroke="black" points="6654.09,-326.42 6664.59,-327.85 6657.28,-320.19 6654.09,-326.42"/>
<text text-anchor="middle" x="6493" y="-205.75" font-family="Dejavu Sans Mono" font-size="14.00">apinatomy:topology</text>
</g>
<!-- nkblad_ac_snl65_lyph_3&#45;&gt;nSAO_280355188 -->
<g id="edge81" class="edge">
<title>nkblad_ac_snl65_lyph_3&#45;&gt;nSAO_280355188</title>
<path fill="none" stroke="black" d="M6360.65,-136.84C6367.47,-133.74 6374.02,-130.13 6380,-125.95 6391.22,-118.1 6385.81,-107.19 6398,-100.95 6547.26,-24.49 6967.91,-114.56 7070,-184.95 7114.16,-215.39 7140.35,-274.72 7152.74,-310.19"/>
<polygon fill="black" stroke="black" points="7149.51,-311.57 7156.01,-319.94 7156.15,-309.35 7149.51,-311.57"/>
<text text-anchor="middle" x="6717.5" y="-105.75" font-family="Dejavu Sans Mono" font-size="14.00">apinatomy:inheritedExternal</text>
</g>
<!-- nkblad_ac_snl65_lyph_1&#45;&gt;napinatomy_TUBE -->
<g id="edge7" class="edge">
<title>nkblad_ac_snl65_lyph_1&#45;&gt;napinatomy_TUBE</title>
<path fill="none" stroke="black" d="M6355.7,-78.9C6426.92,-67.7 6527.74,-65.48 6588,-123.95 6613.52,-148.71 6586.53,-253.19 6606,-282.95 6617.26,-300.17 6634.89,-313.32 6652.78,-323.08"/>
<polygon fill="black" stroke="black" points="6651.63,-326.42 6662.12,-327.88 6654.83,-320.2 6651.63,-326.42"/>
<text text-anchor="middle" x="6493" y="-127.75" font-family="Dejavu Sans Mono" font-size="14.00">apinatomy:topology</text>
</g>
<!-- nkblad_ac_snl65_lyph_1&#45;&gt;nSAO_280355188 -->
<g id="edge4" class="edge">
<title>nkblad_ac_snl65_lyph_1&#45;&gt;nSAO_280355188</title>
<path fill="none" stroke="black" d="M6323.82,-78.85C6461.74,-30.1 6850.15,82.52 7070,-102.95 7133.37,-156.4 7153.03,-259.24 7158.99,-309.64"/>
<polygon fill="black" stroke="black" points="7155.54,-310.29 7160.09,-319.85 7162.5,-309.53 7155.54,-310.29"/>
<text text-anchor="middle" x="6717.5" y="-12.75" font-family="Dejavu Sans Mono" font-size="14.00">apinatomy:inheritedExternal</text>
</g>
<!-- nUBERON_0016578 -->
<g id="node53" class="node">
<title>nUBERON_0016578</title>
<path fill="none" stroke="black" d="M4179,-592.95C4179,-592.95 4304,-592.95 4304,-592.95 4310,-592.95 4316,-598.95 4316,-604.95 4316,-604.95 4316,-618.95 4316,-618.95 4316,-624.95 4310,-630.95 4304,-630.95 4304,-630.95 4179,-630.95 4179,-630.95 4173,-630.95 4167,-624.95 4167,-618.95 4167,-618.95 4167,-604.95 4167,-604.95 4167,-598.95 4173,-592.95 4179,-592.95"/>
<text text-anchor="middle" x="4241.5" y="-615.75" font-family="Dejavu Sans Mono" font-size="14.00">MISSING LABEL</text>
<text text-anchor="middle" x="4241.5" y="-600.75" font-family="Dejavu Sans Mono" font-size="14.00">(UBERON:0016578)</text>
</g>
<!-- nkblad_ref_mat_K_83_K_129&#45;&gt;nUBERON_0016578 -->
<g id="edge47" class="edge">
<title>nkblad_ref_mat_K_83_K_129&#45;&gt;nUBERON_0016578</title>
<path fill="none" stroke="black" d="M3793.2,-565.05C3911.66,-577.47 4063.64,-593.41 4156.46,-603.14"/>
<polygon fill="black" stroke="black" points="4156.33,-606.64 4166.64,-604.2 4157.06,-599.68 4156.33,-606.64"/>
<text text-anchor="middle" x="3992.5" y="-599.75" font-family="Dejavu Sans Mono" font-size="14.00">apinatomy:inheritedExternal</text>
</g>
<!-- nkblad_K104 -->
<g id="node30" class="node">
<title>nkblad_K104</title>
<path fill="none" stroke="black" d="M6630.5,-775.95C6630.5,-775.95 6804.5,-775.95 6804.5,-775.95 6810.5,-775.95 6816.5,-781.95 6816.5,-787.95 6816.5,-787.95 6816.5,-801.95 6816.5,-801.95 6816.5,-807.95 6810.5,-813.95 6804.5,-813.95 6804.5,-813.95 6630.5,-813.95 6630.5,-813.95 6624.5,-813.95 6618.5,-807.95 6618.5,-801.95 6618.5,-801.95 6618.5,-787.95 6618.5,-787.95 6618.5,-781.95 6624.5,-775.95 6630.5,-775.95"/>
<text text-anchor="middle" x="6717.5" y="-798.75" font-family="Dejavu Sans Mono" font-size="14.00">Pelvic ganglia (kblad)</text>
<text text-anchor="middle" x="6717.5" y="-783.75" font-family="Dejavu Sans Mono" font-size="14.00">(kblad:K104)</text>
</g>
<!-- nUBERON_0016508 -->
<g id="node34" class="node">
<title>nUBERON_0016508</title>
<path fill="none" stroke="black" d="M7100,-769.95C7100,-769.95 7225,-769.95 7225,-769.95 7231,-769.95 7237,-775.95 7237,-781.95 7237,-781.95 7237,-795.95 7237,-795.95 7237,-801.95 7231,-807.95 7225,-807.95 7225,-807.95 7100,-807.95 7100,-807.95 7094,-807.95 7088,-801.95 7088,-795.95 7088,-795.95 7088,-781.95 7088,-781.95 7088,-775.95 7094,-769.95 7100,-769.95"/>
<text text-anchor="middle" x="7162.5" y="-792.75" font-family="Dejavu Sans Mono" font-size="14.00">pelvic ganglion</text>
<text text-anchor="middle" x="7162.5" y="-777.75" font-family="Dejavu Sans Mono" font-size="14.00">(UBERON:0016508)</text>
</g>
<!-- nkblad_K104&#45;&gt;nUBERON_0016508 -->
<g id="edge13" class="edge">
<title>nkblad_K104&#45;&gt;nUBERON_0016508</title>
<path fill="none" stroke="black" d="M6816.71,-790.77C6826.94,-790.44 6837.18,-790.15 6847,-789.95 6925.08,-788.31 7014.09,-788.19 7077.44,-788.4"/>
<polygon fill="black" stroke="black" points="7077.77,-791.9 7087.78,-788.44 7077.79,-784.9 7077.77,-791.9"/>
<text text-anchor="middle" x="6958.5" y="-793.75" font-family="Dejavu Sans Mono" font-size="14.00">apinatomy:external</text>
</g>
<!-- nkblad_ac_sns15_lnk_1 -->
<g id="node31" class="node">
<title>nkblad_ac_sns15_lnk_1</title>
<path fill="none" stroke="black" d="M2053,-424.95C2053,-424.95 2227,-424.95 2227,-424.95 2233,-424.95 2239,-430.95 2239,-436.95 2239,-436.95 2239,-450.95 2239,-450.95 2239,-456.95 2233,-462.95 2227,-462.95 2227,-462.95 2053,-462.95 2053,-462.95 2047,-462.95 2041,-456.95 2041,-450.95 2041,-450.95 2041,-436.95 2041,-436.95 2041,-430.95 2047,-424.95 2053,-424.95"/>
<text text-anchor="middle" x="2140" y="-447.75" font-family="Dejavu Sans Mono" font-size="14.00">MISSING LABEL</text>
<text text-anchor="middle" x="2140" y="-432.75" font-family="Dejavu Sans Mono" font-size="14.00">(kblad:ac&#45;sns15_lnk_1)</text>
</g>
<!-- nkblad_ac_sns15_lnk_1&#45;&gt;nkblad_ref_mat_K_83_K_129_K28_7 -->
<g id="edge74" class="edge">
<title>nkblad_ac_sns15_lnk_1&#45;&gt;nkblad_ref_mat_K_83_K_129_K28_7</title>
<path fill="none" stroke="black" d="M2213.23,-462.97C2222.04,-465.98 2230.81,-469.31 2239,-472.95 2247.57,-476.75 2248.22,-480.67 2257,-483.95 2328.64,-510.72 2408.94,-528.14 2485.04,-539.46"/>
<polygon fill="black" stroke="black" points="2484.87,-542.97 2495.27,-540.95 2485.88,-536.04 2484.87,-542.97"/>
<text text-anchor="middle" x="2352" y="-535.75" font-family="Dejavu Sans Mono" font-size="14.00">apinatomy:endsIn</text>
</g>
<!-- nkblad_ac_sns15_lyph_1 -->
<g id="node51" class="node">
<title>nkblad_ac_sns15_lyph_1</title>
<path fill="none" stroke="black" d="M6181.5,-307.95C6181.5,-307.95 6363.5,-307.95 6363.5,-307.95 6369.5,-307.95 6375.5,-313.95 6375.5,-319.95 6375.5,-319.95 6375.5,-333.95 6375.5,-333.95 6375.5,-339.95 6369.5,-345.95 6363.5,-345.95 6363.5,-345.95 6181.5,-345.95 6181.5,-345.95 6175.5,-345.95 6169.5,-339.95 6169.5,-333.95 6169.5,-333.95 6169.5,-319.95 6169.5,-319.95 6169.5,-313.95 6175.5,-307.95 6181.5,-307.95"/>
<text text-anchor="middle" x="6272.5" y="-330.75" font-family="Dejavu Sans Mono" font-size="14.00">Axon segment (kblad)</text>
<text text-anchor="middle" x="6272.5" y="-315.75" font-family="Dejavu Sans Mono" font-size="14.00">(kblad:ac&#45;sns15_lyph_1)</text>
</g>
<!-- nkblad_ac_sns15_lnk_1&#45;&gt;nkblad_ac_sns15_lyph_1 -->
<g id="edge84" class="edge">
<title>nkblad_ac_sns15_lnk_1&#45;&gt;nkblad_ac_sns15_lyph_1</title>
<path fill="none" stroke="black" d="M2148.8,-424.82C2163.86,-390.81 2200.51,-320.79 2257,-292.95 2290.63,-276.38 4458.13,-297.61 4975,-303.95 5413.13,-309.32 5934.48,-319.82 6159.25,-324.54"/>
<polygon fill="black" stroke="black" points="6159.33,-328.05 6169.4,-324.76 6159.47,-321.05 6159.33,-328.05"/>
<text text-anchor="middle" x="4490.5" y="-302.75" font-family="Dejavu Sans Mono" font-size="14.00">apinatomy:conveyingLyph</text>
</g>
<!-- nkblad_ac_sns15_lnk_2 -->
<g id="node54" class="node">
<title>nkblad_ac_sns15_lnk_2</title>
<path fill="none" stroke="black" d="M2704,-470.95C2704,-470.95 2878,-470.95 2878,-470.95 2884,-470.95 2890,-476.95 2890,-482.95 2890,-482.95 2890,-496.95 2890,-496.95 2890,-502.95 2884,-508.95 2878,-508.95 2878,-508.95 2704,-508.95 2704,-508.95 2698,-508.95 2692,-502.95 2692,-496.95 2692,-496.95 2692,-482.95 2692,-482.95 2692,-476.95 2698,-470.95 2704,-470.95"/>
<text text-anchor="middle" x="2791" y="-493.75" font-family="Dejavu Sans Mono" font-size="14.00">MISSING LABEL</text>
<text text-anchor="middle" x="2791" y="-478.75" font-family="Dejavu Sans Mono" font-size="14.00">(kblad:ac&#45;sns15_lnk_2)</text>
</g>
<!-- nkblad_ac_sns15_lnk_1&#45;&gt;nkblad_ac_sns15_lnk_2 -->
<g id="edge45" class="edge">
<title>nkblad_ac_sns15_lnk_1&#45;&gt;nkblad_ac_sns15_lnk_2</title>
<path fill="none" stroke="black" d="M2239.22,-450.91C2358.3,-459.35 2558.34,-473.53 2681.76,-482.28"/>
<polygon fill="black" stroke="black" points="2681.76,-485.78 2691.99,-483 2682.26,-478.8 2681.76,-485.78"/>
<text text-anchor="middle" x="2352" y="-468.75" font-family="Dejavu Sans Mono" font-size="14.00">apinatomy:next</text>
</g>
<!-- nkblad_ac_snl65_lnk_4 -->
<g id="node33" class="node">
<title>nkblad_ac_snl65_lnk_4</title>
<path fill="none" stroke="black" d="M4154.5,-478.95C4154.5,-478.95 4328.5,-478.95 4328.5,-478.95 4334.5,-478.95 4340.5,-484.95 4340.5,-490.95 4340.5,-490.95 4340.5,-504.95 4340.5,-504.95 4340.5,-510.95 4334.5,-516.95 4328.5,-516.95 4328.5,-516.95 4154.5,-516.95 4154.5,-516.95 4148.5,-516.95 4142.5,-510.95 4142.5,-504.95 4142.5,-504.95 4142.5,-490.95 4142.5,-490.95 4142.5,-484.95 4148.5,-478.95 4154.5,-478.95"/>
<text text-anchor="middle" x="4241.5" y="-501.75" font-family="Dejavu Sans Mono" font-size="14.00">MISSING LABEL</text>
<text text-anchor="middle" x="4241.5" y="-486.75" font-family="Dejavu Sans Mono" font-size="14.00">(kblad:ac&#45;snl65_lnk_4)</text>
</g>
<!-- nkblad_ac_snl65_lnk_4&#45;&gt;nkblad_ns66 -->
<g id="edge54" class="edge">
<title>nkblad_ac_snl65_lnk_4&#45;&gt;nkblad_ns66</title>
<path fill="none" stroke="black" d="M4317.6,-516.96C4337.46,-521.45 4358.95,-525.83 4379,-528.95 4428.15,-536.58 4563.09,-516.97 4602,-547.95 4622.45,-564.23 4603.71,-583.5 4620,-603.95 4649.79,-641.36 4696.82,-668.39 4734.84,-685.65"/>
<polygon fill="black" stroke="black" points="4733.74,-688.99 4744.3,-689.83 4736.57,-682.59 4733.74,-688.99"/>
<text text-anchor="middle" x="4490.5" y="-551.75" font-family="Dejavu Sans Mono" font-size="14.00">apinatomy:target</text>
</g>
<!-- nkblad_ac_snl65_lnk_4&#45;&gt;nkblad_ac_snl65_lyph_4 -->
<g id="edge12" class="edge">
<title>nkblad_ac_snl65_lnk_4&#45;&gt;nkblad_ac_snl65_lyph_4</title>
<path fill="none" stroke="black" d="M4340.63,-499.09C4481.52,-499.62 4749.07,-496.49 4975,-469.95 5437.47,-415.62 5981.4,-285.93 6187.06,-234.5"/>
<polygon fill="black" stroke="black" points="6188.04,-237.86 6196.89,-232.04 6186.34,-231.07 6188.04,-237.86"/>
<text text-anchor="middle" x="5382.5" y="-441.75" font-family="Dejavu Sans Mono" font-size="14.00">apinatomy:conveyingLyph</text>
</g>
<!-- nkblad_ac_snl65_lnk_4&#45;&gt;nkblad_n_pelspl -->
<g id="edge46" class="edge">
<title>nkblad_ac_snl65_lnk_4&#45;&gt;nkblad_n_pelspl</title>
<path fill="none" stroke="black" d="M4340.71,-504C4679.66,-524.88 5799.35,-593.86 6159.13,-616.02"/>
<polygon fill="black" stroke="black" points="6159.09,-619.53 6169.29,-616.65 6159.52,-612.54 6159.09,-619.53"/>
<text text-anchor="middle" x="5382.5" y="-582.75" font-family="Dejavu Sans Mono" font-size="14.00">apinatomy:endsIn</text>
</g>
<!-- nUBERON_0016549 -->
<g id="node57" class="node">
<title>nUBERON_0016549</title>
<path fill="none" stroke="black" d="M4632,-421.95C4632,-421.95 4963,-421.95 4963,-421.95 4969,-421.95 4975,-427.95 4975,-433.95 4975,-433.95 4975,-447.95 4975,-447.95 4975,-453.95 4969,-459.95 4963,-459.95 4963,-459.95 4632,-459.95 4632,-459.95 4626,-459.95 4620,-453.95 4620,-447.95 4620,-447.95 4620,-433.95 4620,-433.95 4620,-427.95 4626,-421.95 4632,-421.95"/>
<text text-anchor="middle" x="4797.5" y="-444.75" font-family="Dejavu Sans Mono" font-size="14.00">central nervous system white matter layer</text>
<text text-anchor="middle" x="4797.5" y="-429.75" font-family="Dejavu Sans Mono" font-size="14.00">(UBERON:0016549)</text>
</g>
<!-- nkblad_ref_mat_KM_27_K_129&#45;&gt;nUBERON_0016549 -->
<g id="edge70" class="edge">
<title>nkblad_ref_mat_KM_27_K_129&#45;&gt;nUBERON_0016549</title>
<path fill="none" stroke="black" d="M4361.01,-440.95C4433.32,-440.95 4527.36,-440.95 4609.54,-440.95"/>
<polygon fill="black" stroke="black" points="4609.75,-444.45 4619.75,-440.95 4609.75,-437.45 4609.75,-444.45"/>
<text text-anchor="middle" x="4490.5" y="-444.75" font-family="Dejavu Sans Mono" font-size="14.00">apinatomy:inheritedExternal</text>
</g>
<!-- nkblad_dc_sns15_lyph_1 -->
<g id="node36" class="node">
<title>nkblad_dc_sns15_lyph_1</title>
<path fill="none" stroke="black" d="M2691.5,-908.95C2691.5,-908.95 2890.5,-908.95 2890.5,-908.95 2896.5,-908.95 2902.5,-914.95 2902.5,-920.95 2902.5,-920.95 2902.5,-934.95 2902.5,-934.95 2902.5,-940.95 2896.5,-946.95 2890.5,-946.95 2890.5,-946.95 2691.5,-946.95 2691.5,-946.95 2685.5,-946.95 2679.5,-940.95 2679.5,-934.95 2679.5,-934.95 2679.5,-920.95 2679.5,-920.95 2679.5,-914.95 2685.5,-908.95 2691.5,-908.95"/>
<text text-anchor="middle" x="2791" y="-931.75" font-family="Dejavu Sans Mono" font-size="14.00">Dendrite terminal (kblad)</text>
<text text-anchor="middle" x="2791" y="-916.75" font-family="Dejavu Sans Mono" font-size="14.00">(kblad:dc&#45;sns15_lyph_1)</text>
</g>
<!-- nkblad_dc_sns15_lyph_1&#45;&gt;napinatomy_BAG -->
<g id="edge18" class="edge">
<title>nkblad_dc_sns15_lyph_1&#45;&gt;napinatomy_BAG</title>
<path fill="none" stroke="black" d="M2902.58,-934.51C3061.07,-943.34 3362.02,-957.95 3618.5,-957.95 3618.5,-957.95 3618.5,-957.95 6718.5,-957.95 6858.69,-957.95 7017.72,-909.28 7101.88,-879.51"/>
<polygon fill="black" stroke="black" points="7103.28,-882.72 7111.52,-876.06 7100.93,-876.13 7103.28,-882.72"/>
<text text-anchor="middle" x="5382.5" y="-961.75" font-family="Dejavu Sans Mono" font-size="14.00">apinatomy:topology</text>
</g>
<!-- nSAO_420754792 -->
<g id="node40" class="node">
<title>nSAO_420754792</title>
<path fill="none" stroke="black" d="M3561.5,-888.95C3561.5,-888.95 3677.5,-888.95 3677.5,-888.95 3683.5,-888.95 3689.5,-894.95 3689.5,-900.95 3689.5,-900.95 3689.5,-914.95 3689.5,-914.95 3689.5,-920.95 3683.5,-926.95 3677.5,-926.95 3677.5,-926.95 3561.5,-926.95 3561.5,-926.95 3555.5,-926.95 3549.5,-920.95 3549.5,-914.95 3549.5,-914.95 3549.5,-900.95 3549.5,-900.95 3549.5,-894.95 3555.5,-888.95 3561.5,-888.95"/>
<text text-anchor="middle" x="3619.5" y="-911.75" font-family="Dejavu Sans Mono" font-size="14.00">MISSING LABEL</text>
<text text-anchor="middle" x="3619.5" y="-896.75" font-family="Dejavu Sans Mono" font-size="14.00">(SAO:420754792)</text>
</g>
<!-- nkblad_dc_sns15_lyph_1&#45;&gt;nSAO_420754792 -->
<g id="edge43" class="edge">
<title>nkblad_dc_sns15_lyph_1&#45;&gt;nSAO_420754792</title>
<path fill="none" stroke="black" d="M2902.61,-925.27C3071.75,-921.18 3390.62,-913.46 3538.92,-909.87"/>
<polygon fill="black" stroke="black" points="3539.38,-913.36 3549.3,-909.62 3539.21,-906.37 3539.38,-913.36"/>
<text text-anchor="middle" x="3246.5" y="-922.75" font-family="Dejavu Sans Mono" font-size="14.00">apinatomy:inheritedExternal</text>
</g>
<!-- nkblad_dc_snl65_lyph_1&#45;&gt;napinatomy_BAG -->
<g id="edge83" class="edge">
<title>nkblad_dc_snl65_lyph_1&#45;&gt;napinatomy_BAG</title>
<path fill="none" stroke="black" d="M2902.62,-856.95C3061.17,-856.95 3362.19,-856.95 3618.5,-856.95 3618.5,-856.95 3618.5,-856.95 6718.5,-856.95 6845.75,-856.95 6993.55,-856.95 7082.19,-856.95"/>
<polygon fill="black" stroke="black" points="7082.44,-860.45 7092.44,-856.95 7082.44,-853.45 7082.44,-860.45"/>
<text text-anchor="middle" x="5382.5" y="-860.75" font-family="Dejavu Sans Mono" font-size="14.00">apinatomy:topology</text>
</g>
<!-- nkblad_dc_snl65_lyph_1&#45;&gt;nSAO_420754792 -->
<g id="edge64" class="edge">
<title>nkblad_dc_snl65_lyph_1&#45;&gt;nSAO_420754792</title>
<path fill="none" stroke="black" d="M2902.61,-863.77C3071.75,-874.21 3390.62,-893.89 3538.92,-903.04"/>
<polygon fill="black" stroke="black" points="3539.1,-906.55 3549.3,-903.68 3539.53,-899.57 3539.1,-906.55"/>
<text text-anchor="middle" x="3246.5" y="-894.75" font-family="Dejavu Sans Mono" font-size="14.00">apinatomy:inheritedExternal</text>
</g>
<!-- nkblad_ac_snl65_lyph_2 -->
<g id="node38" class="node">
<title>nkblad_ac_snl65_lyph_2</title>
<path fill="none" stroke="black" d="M6181.5,-250.95C6181.5,-250.95 6363.5,-250.95 6363.5,-250.95 6369.5,-250.95 6375.5,-256.95 6375.5,-262.95 6375.5,-262.95 6375.5,-276.95 6375.5,-276.95 6375.5,-282.95 6369.5,-288.95 6363.5,-288.95 6363.5,-288.95 6181.5,-288.95 6181.5,-288.95 6175.5,-288.95 6169.5,-282.95 6169.5,-276.95 6169.5,-276.95 6169.5,-262.95 6169.5,-262.95 6169.5,-256.95 6175.5,-250.95 6181.5,-250.95"/>
<text text-anchor="middle" x="6272.5" y="-273.75" font-family="Dejavu Sans Mono" font-size="14.00">Axon segment (kblad)</text>
<text text-anchor="middle" x="6272.5" y="-258.75" font-family="Dejavu Sans Mono" font-size="14.00">(kblad:ac&#45;snl65_lyph_2)</text>
</g>
<!-- nkblad_ac_snl65_lyph_2&#45;&gt;napinatomy_TUBE -->
<g id="edge9" class="edge">
<title>nkblad_ac_snl65_lyph_2&#45;&gt;napinatomy_TUBE</title>
<path fill="none" stroke="black" d="M6375.75,-283.91C6467.31,-296.41 6587.33,-312.81 6588,-312.95 6605.21,-316.39 6623.54,-320.79 6640.81,-325.27"/>
<polygon fill="black" stroke="black" points="6640.27,-328.75 6650.83,-327.91 6642.05,-321.98 6640.27,-328.75"/>
<text text-anchor="middle" x="6493" y="-316.75" font-family="Dejavu Sans Mono" font-size="14.00">apinatomy:topology</text>
</g>
<!-- nkblad_ac_snl65_lyph_2&#45;&gt;nSAO_280355188 -->
<g id="edge78" class="edge">
<title>nkblad_ac_snl65_lyph_2&#45;&gt;nSAO_280355188</title>
<path fill="none" stroke="black" d="M6346.58,-250.88C6357.78,-247.91 6369.2,-244.87 6380,-241.95 6388.02,-239.78 6389.79,-238.17 6398,-236.95 6587.49,-208.8 6638.36,-213.15 6829,-231.95 6937.69,-242.67 6968.77,-238.97 7070,-279.95 7090.89,-288.4 7112.16,-301.78 7128.94,-313.66"/>
<polygon fill="black" stroke="black" points="7127.12,-316.67 7137.27,-319.7 7131.23,-311 7127.12,-316.67"/>
<text text-anchor="middle" x="6717.5" y="-235.75" font-family="Dejavu Sans Mono" font-size="14.00">apinatomy:inheritedExternal</text>
</g>
<!-- nkblad_ac_snl6s1_lnk_2&#45;&gt;nkblad_K104 -->
<g id="edge34" class="edge">
<title>nkblad_ac_snl6s1_lnk_2&#45;&gt;nkblad_K104</title>
<path fill="none" stroke="black" d="M6375.72,-757.13C6383.26,-758.1 6390.75,-759.05 6398,-759.95 6467.95,-768.57 6546.67,-777.23 6608.35,-783.78"/>
<polygon fill="black" stroke="black" points="6608.18,-787.28 6618.49,-784.85 6608.92,-780.32 6608.18,-787.28"/>
<text text-anchor="middle" x="6493" y="-784.75" font-family="Dejavu Sans Mono" font-size="14.00">apinatomy:endsIn</text>
</g>
<!-- nkblad_ac_snl6s1_lyph_2 -->
<g id="node41" class="node">
<title>nkblad_ac_snl6s1_lyph_2</title>
<path fill="none" stroke="black" d="M6622,-718.95C6622,-718.95 6813,-718.95 6813,-718.95 6819,-718.95 6825,-724.95 6825,-730.95 6825,-730.95 6825,-744.95 6825,-744.95 6825,-750.95 6819,-756.95 6813,-756.95 6813,-756.95 6622,-756.95 6622,-756.95 6616,-756.95 6610,-750.95 6610,-744.95 6610,-744.95 6610,-730.95 6610,-730.95 6610,-724.95 6616,-718.95 6622,-718.95"/>
<text text-anchor="middle" x="6717.5" y="-741.75" font-family="Dejavu Sans Mono" font-size="14.00">Axon terminal (kblad)</text>
<text text-anchor="middle" x="6717.5" y="-726.75" font-family="Dejavu Sans Mono" font-size="14.00">(kblad:ac&#45;snl6s1_lyph_2)</text>
</g>
<!-- nkblad_ac_snl6s1_lnk_2&#45;&gt;nkblad_ac_snl6s1_lyph_2 -->
<g id="edge38" class="edge">
<title>nkblad_ac_snl6s1_lnk_2&#45;&gt;nkblad_ac_snl6s1_lyph_2</title>
<path fill="none" stroke="black" d="M6375.69,-741.79C6442.54,-741.04 6530.07,-740.05 6599.68,-739.27"/>
<polygon fill="black" stroke="black" points="6599.85,-742.76 6609.81,-739.15 6599.77,-735.77 6599.85,-742.76"/>
<text text-anchor="middle" x="6493" y="-744.75" font-family="Dejavu Sans Mono" font-size="14.00">apinatomy:conveyingLyph</text>
</g>
<!-- nkblad_ac_snl6s1_lyph_2&#45;&gt;napinatomy_BAG -->
<g id="edge58" class="edge">
<title>nkblad_ac_snl6s1_lyph_2&#45;&gt;napinatomy_BAG</title>
<path fill="none" stroke="black" d="M6814.1,-756.96C6819.4,-759.84 6824.42,-763.15 6829,-766.95 6843.38,-778.88 6831.74,-794.16 6847,-804.95 6887.67,-833.72 7021.22,-817.81 7070,-827.95 7079.2,-829.86 7088.79,-832.34 7098.15,-835.04"/>
<polygon fill="black" stroke="black" points="7097.21,-838.41 7107.8,-837.92 7099.22,-831.7 7097.21,-838.41"/>
<text text-anchor="middle" x="6958.5" y="-831.75" font-family="Dejavu Sans Mono" font-size="14.00">apinatomy:topology</text>
</g>
<!-- nkblad_ac_snl6s1_lyph_2&#45;&gt;nSAO_280355188 -->
<g id="edge63" class="edge">
<title>nkblad_ac_snl6s1_lyph_2&#45;&gt;nSAO_280355188</title>
<path fill="none" stroke="black" d="M6825.19,-755.59C6902.21,-761.99 7003.89,-756.49 7070,-698.95 7120.41,-655.08 7149.17,-446.29 7158.29,-368.37"/>
<polygon fill="black" stroke="black" points="7161.79,-368.6 7159.45,-358.27 7154.83,-367.81 7161.79,-368.6"/>
<text text-anchor="middle" x="6958.5" y="-760.75" font-family="Dejavu Sans Mono" font-size="14.00">apinatomy:inheritedExternal</text>
</g>
<!-- nkblad_ac_snl65_lnk_3 -->
<g id="node42" class="node">
<title>nkblad_ac_snl65_lnk_3</title>
<path fill="none" stroke="black" d="M3532.5,-173.95C3532.5,-173.95 3706.5,-173.95 3706.5,-173.95 3712.5,-173.95 3718.5,-179.95 3718.5,-185.95 3718.5,-185.95 3718.5,-199.95 3718.5,-199.95 3718.5,-205.95 3712.5,-211.95 3706.5,-211.95 3706.5,-211.95 3532.5,-211.95 3532.5,-211.95 3526.5,-211.95 3520.5,-205.95 3520.5,-199.95 3520.5,-199.95 3520.5,-185.95 3520.5,-185.95 3520.5,-179.95 3526.5,-173.95 3532.5,-173.95"/>
<text text-anchor="middle" x="3619.5" y="-196.75" font-family="Dejavu Sans Mono" font-size="14.00">MISSING LABEL</text>
<text text-anchor="middle" x="3619.5" y="-181.75" font-family="Dejavu Sans Mono" font-size="14.00">(kblad:ac&#45;snl65_lnk_3)</text>
</g>
<!-- nkblad_ac_snl65_lnk_3&#45;&gt;nkblad_K68 -->
<g id="edge20" class="edge">
<title>nkblad_ac_snl65_lnk_3&#45;&gt;nkblad_K68</title>
<path fill="none" stroke="black" d="M3718.72,-181.12C3767.47,-175.57 3827.27,-169.25 3881,-164.95 3963.54,-158.34 4056.93,-153.48 4127.83,-150.33"/>
<polygon fill="black" stroke="black" points="4128.29,-153.81 4138.13,-149.88 4127.99,-146.82 4128.29,-153.81"/>
<text text-anchor="middle" x="3992.5" y="-168.75" font-family="Dejavu Sans Mono" font-size="14.00">apinatomy:fasciculatesIn</text>
</g>
<!-- nkblad_ac_snl65_lnk_3&#45;&gt;nkblad_ac_snl65_lyph_3 -->
<g id="edge56" class="edge">
<title>nkblad_ac_snl65_lnk_3&#45;&gt;nkblad_ac_snl65_lyph_3</title>
<path fill="none" stroke="black" d="M3718.75,-193.2C3841.01,-193.5 4056.17,-193.95 4240.5,-193.95 4240.5,-193.95 4240.5,-193.95 5837,-193.95 5946.91,-193.95 6071.88,-181.73 6159.48,-171.15"/>
<polygon fill="black" stroke="black" points="6159.94,-174.62 6169.44,-169.94 6159.09,-167.67 6159.94,-174.62"/>
<text text-anchor="middle" x="5088" y="-197.75" font-family="Dejavu Sans Mono" font-size="14.00">apinatomy:conveyingLyph</text>
</g>
<!-- nkblad_ac_snl65_lnk_3&#45;&gt;nkblad_ac_snl65_lnk_4 -->
<g id="edge76" class="edge">
<title>nkblad_ac_snl65_lnk_3&#45;&gt;nkblad_ac_snl65_lnk_4</title>
<path fill="none" stroke="black" d="M3718.74,-211.87C3769.65,-226.85 3828.28,-253.2 3863,-298.95 3897.73,-344.71 3841.52,-385.22 3881,-426.95 3889.79,-436.24 4029.53,-461.9 4132.15,-479.68"/>
<polygon fill="black" stroke="black" points="4131.82,-483.17 4142.27,-481.43 4133.02,-476.28 4131.82,-483.17"/>
<text text-anchor="middle" x="3992.5" y="-476.75" font-family="Dejavu Sans Mono" font-size="14.00">apinatomy:next</text>
</g>
<!-- nkblad_neuron_5 -->
<g id="node43" class="node">
<title>nkblad_neuron_5</title>
<path fill="none" stroke="black" d="M527,-471.95C527,-471.95 652,-471.95 652,-471.95 658,-471.95 664,-477.95 664,-483.95 664,-483.95 664,-497.95 664,-497.95 664,-503.95 658,-509.95 652,-509.95 652,-509.95 527,-509.95 527,-509.95 521,-509.95 515,-503.95 515,-497.95 515,-497.95 515,-483.95 515,-483.95 515,-477.95 521,-471.95 527,-471.95"/>
<text text-anchor="middle" x="589.5" y="-494.75" font-family="Dejavu Sans Mono" font-size="14.00">Neuron 5</text>
<text text-anchor="middle" x="589.5" y="-479.75" font-family="Dejavu Sans Mono" font-size="14.00">(kblad:neuron&#45;5)</text>
</g>
<!-- nkblad_sns15 -->
<g id="node46" class="node">
<title>nkblad_sns15</title>
<path fill="none" stroke="black" d="M836,-510.95C836,-510.95 1175,-510.95 1175,-510.95 1181,-510.95 1187,-516.95 1187,-522.95 1187,-522.95 1187,-536.95 1187,-536.95 1187,-542.95 1181,-548.95 1175,-548.95 1175,-548.95 836,-548.95 836,-548.95 830,-548.95 824,-542.95 824,-536.95 824,-536.95 824,-522.95 824,-522.95 824,-516.95 830,-510.95 836,-510.95"/>
<text text-anchor="middle" x="1005.5" y="-533.75" font-family="Dejavu Sans Mono" font-size="14.00">Soma of PSPR neuron in S1_Neuron 5 (kblad)</text>
<text text-anchor="middle" x="1005.5" y="-518.75" font-family="Dejavu Sans Mono" font-size="14.00">(kblad:sns15)</text>
</g>
<!-- nkblad_neuron_5&#45;&gt;nkblad_sns15 -->
<g id="edge21" class="edge">
<title>nkblad_neuron_5&#45;&gt;nkblad_sns15</title>
<path fill="none" stroke="black" d="M664.04,-497.88C705.84,-501.81 760.3,-506.94 813.36,-511.94"/>
<polygon fill="black" stroke="black" points="813.32,-515.45 823.6,-512.91 813.97,-508.48 813.32,-515.45"/>
<text text-anchor="middle" x="744" y="-513.75" font-family="Dejavu Sans Mono" font-size="14.00">apinatomy:lyphs</text>
</g>
<!-- nkblad_snl65 -->
<g id="node50" class="node">
<title>nkblad_snl65</title>
<path fill="none" stroke="black" d="M836,-443.95C836,-443.95 1175,-443.95 1175,-443.95 1181,-443.95 1187,-449.95 1187,-455.95 1187,-455.95 1187,-469.95 1187,-469.95 1187,-475.95 1181,-481.95 1175,-481.95 1175,-481.95 836,-481.95 836,-481.95 830,-481.95 824,-475.95 824,-469.95 824,-469.95 824,-455.95 824,-455.95 824,-449.95 830,-443.95 836,-443.95"/>
<text text-anchor="middle" x="1005.5" y="-466.75" font-family="Dejavu Sans Mono" font-size="14.00">Soma of PSPR neuron in L6_Neuron 5 (kblad)</text>
<text text-anchor="middle" x="1005.5" y="-451.75" font-family="Dejavu Sans Mono" font-size="14.00">(kblad:snl65)</text>
</g>
<!-- nkblad_neuron_5&#45;&gt;nkblad_snl65 -->
<g id="edge51" class="edge">
<title>nkblad_neuron_5&#45;&gt;nkblad_snl65</title>
<path fill="none" stroke="black" d="M664.4,-484.33C670.35,-483.84 676.28,-483.38 682,-482.95 724.56,-479.77 770.3,-476.71 813.58,-473.99"/>
<polygon fill="black" stroke="black" points="813.88,-477.48 823.64,-473.36 813.44,-470.49 813.88,-477.48"/>
<text text-anchor="middle" x="744" y="-486.75" font-family="Dejavu Sans Mono" font-size="14.00">apinatomy:lyphs</text>
</g>
<!-- nilxtr_neuron_type_keast_5 -->
<g id="node44" class="node">
<title>nilxtr_neuron_type_keast_5</title>
<path fill="none" stroke="black" d="M12,-471.95C12,-471.95 310,-471.95 310,-471.95 316,-471.95 322,-477.95 322,-483.95 322,-483.95 322,-497.95 322,-497.95 322,-503.95 316,-509.95 310,-509.95 310,-509.95 12,-509.95 12,-509.95 6,-509.95 0,-503.95 0,-497.95 0,-497.95 0,-483.95 0,-483.95 0,-477.95 6,-471.95 12,-471.95"/>
<text text-anchor="middle" x="161" y="-494.75" font-family="Dejavu Sans Mono" font-size="14.00">ilxtr:neuron&#45;phenotype&#45;keast&#45;5 neuron</text>
<text text-anchor="middle" x="161" y="-479.75" font-family="Dejavu Sans Mono" font-size="14.00">(ilxtr:neuron&#45;type&#45;keast&#45;5)</text>
</g>
<!-- nilxtr_neuron_type_keast_5&#45;&gt;nkblad_neuron_5 -->
<g id="edge86" class="edge">
<title>nilxtr_neuron_type_keast_5&#45;&gt;nkblad_neuron_5</title>
<path fill="none" stroke="black" d="M322.03,-490.95C384.18,-490.95 452.79,-490.95 504.82,-490.95"/>
<polygon fill="black" stroke="black" points="505,-494.45 515,-490.95 505,-487.45 505,-494.45"/>
<text text-anchor="middle" x="418.5" y="-494.75" font-family="Dejavu Sans Mono" font-size="14.00">apinatomy:annotates</text>
</g>
<!-- nkblad_ref_mat_KM_27_K_129_K27_14 -->
<g id="node45" class="node">
<title>nkblad_ref_mat_KM_27_K_129_K27_14</title>
<path fill="none" stroke="black" d="M3388,-307.95C3388,-307.95 3851,-307.95 3851,-307.95 3857,-307.95 3863,-313.95 3863,-319.95 3863,-319.95 3863,-333.95 3863,-333.95 3863,-339.95 3857,-345.95 3851,-345.95 3851,-345.95 3388,-345.95 3388,-345.95 3382,-345.95 3376,-339.95 3376,-333.95 3376,-333.95 3376,-319.95 3376,-319.95 3376,-313.95 3382,-307.95 3388,-307.95"/>
<text text-anchor="middle" x="3619.5" y="-330.75" font-family="Dejavu Sans Mono" font-size="14.00">White matter of CNS in L6 spinal segment (kblad) layer 14</text>
<text text-anchor="middle" x="3619.5" y="-315.75" font-family="Dejavu Sans Mono" font-size="14.00">(kblad:ref_mat_KM_27_K_129_K27_14)</text>
</g>
<!-- nkblad_ref_mat_KM_27_K_129_K27_14&#45;&gt;nkblad_K27 -->
<g id="edge75" class="edge">
<title>nkblad_ref_mat_KM_27_K_129_K27_14&#45;&gt;nkblad_K27</title>
<path fill="none" stroke="black" d="M3863.32,-328.91C3951.17,-329.61 4046.59,-330.38 4119.48,-330.97"/>
<polygon fill="black" stroke="black" points="4119.58,-334.47 4129.61,-331.05 4119.64,-327.47 4119.58,-334.47"/>
<text text-anchor="middle" x="3992.5" y="-333.75" font-family="Dejavu Sans Mono" font-size="14.00">apinatomy:layerIn</text>
</g>
<!-- nkblad_ref_mat_KM_27_K_129_K27_14&#45;&gt;nkblad_ref_mat_KM_27_K_129 -->
<g id="edge8" class="edge">
<title>nkblad_ref_mat_KM_27_K_129_K27_14&#45;&gt;nkblad_ref_mat_KM_27_K_129</title>
<path fill="none" stroke="black" d="M3768.23,-345.99C3799.58,-350.5 3832.43,-355.57 3863,-360.95 3961.03,-378.19 4072.43,-402.36 4148.66,-419.62"/>
<polygon fill="black" stroke="black" points="4148.18,-423.1 4158.71,-421.9 4149.73,-416.27 4148.18,-423.1"/>
<text text-anchor="middle" x="3992.5" y="-411.75" font-family="Dejavu Sans Mono" font-size="14.00">apinatomy:cloneOf</text>
</g>
<!-- nkblad_sns15&#45;&gt;nkblad_ref_mat_K_83_K_129_K28_7 -->
<g id="edge48" class="edge">
<title>nkblad_sns15&#45;&gt;nkblad_ref_mat_K_83_K_129_K28_7</title>
<path fill="none" stroke="black" d="M1066.31,-549.01C1149.53,-573.79 1305.36,-613.95 1441.5,-613.95 1441.5,-613.95 1441.5,-613.95 2141,-613.95 2310.28,-613.95 2503.55,-595.48 2634.84,-580.14"/>
<polygon fill="black" stroke="black" points="2635.45,-583.59 2644.98,-578.95 2634.63,-576.64 2635.45,-583.59"/>
<text text-anchor="middle" x="1773" y="-617.75" font-family="Dejavu Sans Mono" font-size="14.00">apinatomy:internalIn</text>
</g>
<!-- nkblad_sns15&#45;&gt;nkblad_lnk_sns15 -->
<g id="edge39" class="edge">
<title>nkblad_sns15&#45;&gt;nkblad_lnk_sns15</title>
<path fill="none" stroke="black" d="M1187.2,-529.95C1244.84,-529.95 1306.04,-529.95 1353.95,-529.95"/>
<polygon fill="black" stroke="black" points="1353.96,-533.45 1363.96,-529.95 1353.96,-526.45 1353.96,-533.45"/>
<text text-anchor="middle" x="1275.5" y="-533.75" font-family="Dejavu Sans Mono" font-size="14.00">apinatomy:conveys</text>
</g>
<!-- nkblad_ns65&#45;&gt;nkblad_ac_sns15_lnk_1 -->
<g id="edge59" class="edge">
<title>nkblad_ns65&#45;&gt;nkblad_ac_sns15_lnk_1</title>
<path fill="none" stroke="black" d="M1835.09,-443.95C1888.36,-443.95 1966.87,-443.95 2030.75,-443.95"/>
<polygon fill="black" stroke="black" points="2030.87,-447.45 2040.87,-443.95 2030.87,-440.45 2030.87,-447.45"/>
<text text-anchor="middle" x="1948.5" y="-447.75" font-family="Dejavu Sans Mono" font-size="14.00">apinatomy:sourceOf</text>
</g>
<!-- nkblad_ac_snl65_lnk_2&#45;&gt;nkblad_ac_snl65_lyph_2 -->
<g id="edge69" class="edge">
<title>nkblad_ac_snl65_lnk_2&#45;&gt;nkblad_ac_snl65_lyph_2</title>
<path fill="none" stroke="black" d="M2890.28,-232.91C3045.12,-235.82 3355.36,-240.95 3618.5,-240.95 3618.5,-240.95 3618.5,-240.95 5649.5,-240.95 5827.86,-240.95 6034.67,-252.99 6159.18,-261.56"/>
<polygon fill="black" stroke="black" points="6159.26,-265.07 6169.48,-262.27 6159.75,-258.09 6159.26,-265.07"/>
<text text-anchor="middle" x="4797.5" y="-244.75" font-family="Dejavu Sans Mono" font-size="14.00">apinatomy:conveyingLyph</text>
</g>
<!-- nkblad_ac_snl65_lnk_2&#45;&gt;nkblad_ac_snl65_lnk_3 -->
<g id="edge55" class="edge">
<title>nkblad_ac_snl65_lnk_2&#45;&gt;nkblad_ac_snl65_lnk_3</title>
<path fill="none" stroke="black" d="M2890.3,-225.08C2958.86,-221.09 3052.49,-215.85 3135,-211.95 3263.86,-205.85 3412.1,-200.23 3510.11,-196.71"/>
<polygon fill="black" stroke="black" points="3510.45,-200.2 3520.32,-196.34 3510.2,-193.2 3510.45,-200.2"/>
<text text-anchor="middle" x="3246.5" y="-215.75" font-family="Dejavu Sans Mono" font-size="14.00">apinatomy:next</text>
</g>
<!-- nkblad_ac_snl65_lnk_2&#45;&gt;nkblad_ref_mat_KM_27_K_129_K27_14 -->
<g id="edge10" class="edge">
<title>nkblad_ac_snl65_lnk_2&#45;&gt;nkblad_ref_mat_KM_27_K_129_K27_14</title>
<path fill="none" stroke="black" d="M2890.06,-242.34C3026.63,-258.2 3276.27,-287.2 3444.77,-306.77"/>
<polygon fill="black" stroke="black" points="3444.41,-310.25 3454.75,-307.93 3445.22,-303.3 3444.41,-310.25"/>
<text text-anchor="middle" x="3246.5" y="-298.75" font-family="Dejavu Sans Mono" font-size="14.00">apinatomy:fasciculatesIn</text>
</g>
<!-- nkblad_snl65&#45;&gt;nkblad_lnk_snl65 -->
<g id="edge31" class="edge">
<title>nkblad_snl65&#45;&gt;nkblad_lnk_snl65</title>
<path fill="none" stroke="black" d="M1187.2,-462.95C1244.84,-462.95 1306.04,-462.95 1353.95,-462.95"/>
<polygon fill="black" stroke="black" points="1353.96,-466.45 1363.96,-462.95 1353.96,-459.45 1353.96,-466.45"/>
<text text-anchor="middle" x="1275.5" y="-466.75" font-family="Dejavu Sans Mono" font-size="14.00">apinatomy:conveys</text>
</g>
<!-- nkblad_snl65&#45;&gt;nkblad_ref_mat_K_83_K_129_K27_7 -->
<g id="edge82" class="edge">
<title>nkblad_snl65&#45;&gt;nkblad_ref_mat_K_83_K_129_K27_7</title>
<path fill="none" stroke="black" d="M1077.11,-443.94C1162.68,-422.6 1311.56,-390.95 1441.5,-390.95 1441.5,-390.95 1441.5,-390.95 2141,-390.95 2242.95,-390.95 2353.92,-390.95 2454.79,-390.95"/>
<polygon fill="black" stroke="black" points="2454.83,-394.45 2464.83,-390.95 2454.83,-387.45 2454.83,-394.45"/>
<text text-anchor="middle" x="1773" y="-394.75" font-family="Dejavu Sans Mono" font-size="14.00">apinatomy:internalIn</text>
</g>
<!-- nkblad_ac_sns15_lyph_1&#45;&gt;napinatomy_TUBE -->
<g id="edge29" class="edge">
<title>nkblad_ac_sns15_lyph_1&#45;&gt;napinatomy_TUBE</title>
<path fill="none" stroke="black" d="M6375.69,-331.56C6453.66,-335.08 6559.75,-339.87 6632.74,-343.17"/>
<polygon fill="black" stroke="black" points="6632.67,-346.67 6642.82,-343.62 6632.99,-339.67 6632.67,-346.67"/>
<text text-anchor="middle" x="6493" y="-344.75" font-family="Dejavu Sans Mono" font-size="14.00">apinatomy:topology</text>
</g>
<!-- nkblad_ac_sns15_lyph_1&#45;&gt;nSAO_280355188 -->
<g id="edge11" class="edge">
<title>nkblad_ac_sns15_lyph_1&#45;&gt;nSAO_280355188</title>
<path fill="none" stroke="black" d="M6367.97,-307.79C6372.25,-305.2 6376.3,-302.27 6380,-298.95 6396.65,-284.01 6379.57,-264.62 6398,-251.95 6453.62,-213.69 6898.55,-290.31 7082.42,-324.07"/>
<polygon fill="black" stroke="black" points="7081.83,-327.52 7092.3,-325.89 7083.1,-320.64 7081.83,-327.52"/>
<text text-anchor="middle" x="6717.5" y="-282.75" font-family="Dejavu Sans Mono" font-size="14.00">apinatomy:inheritedExternal</text>
</g>
<!-- nkblad_K28&#45;&gt;nUBERON_0006460 -->
<g id="edge26" class="edge">
<title>nkblad_K28&#45;&gt;nUBERON_0006460</title>
<path fill="none" stroke="black" d="M4353.08,-565.32C4361.85,-565.94 4370.57,-566.5 4379,-566.95 4494.65,-573.13 4628.55,-574.71 4712.88,-575.03"/>
<polygon fill="black" stroke="black" points="4712.9,-578.53 4722.91,-575.06 4712.92,-571.53 4712.9,-578.53"/>
<text text-anchor="middle" x="4490.5" y="-576.75" font-family="Dejavu Sans Mono" font-size="14.00">apinatomy:external</text>
</g>
<!-- nkblad_ac_sns15_lnk_2&#45;&gt;nkblad_ac_sns15_lyph_2 -->
<g id="edge23" class="edge">
<title>nkblad_ac_sns15_lnk_2&#45;&gt;nkblad_ac_sns15_lyph_2</title>
<path fill="none" stroke="black" d="M2890.34,-472.51C2958.72,-461.14 3052.12,-447.14 3135,-439.95 3567.31,-402.45 4653.07,-387.95 5087,-387.95 5087,-387.95 5087,-387.95 5837,-387.95 5961.98,-387.95 6104.49,-417.3 6191.2,-438.52"/>
<polygon fill="black" stroke="black" points="6190.42,-441.93 6200.97,-440.94 6192.1,-435.14 6190.42,-441.93"/>
<text text-anchor="middle" x="4797.5" y="-394.75" font-family="Dejavu Sans Mono" font-size="14.00">apinatomy:conveyingLyph</text>
</g>
<!-- nkblad_ac_sns15_lnk_2&#45;&gt;nkblad_ac_sns15_lnk_3 -->
<g id="edge27" class="edge">
<title>nkblad_ac_sns15_lnk_2&#45;&gt;nkblad_ac_sns15_lnk_3</title>
<path fill="none" stroke="black" d="M2890.16,-485.8C2957.4,-486.87 3046.76,-496.23 3117,-531.95 3127.37,-537.22 3125.08,-544.87 3135,-550.95 3230.23,-609.26 3268.34,-592.34 3376,-621.95 3427.23,-636.04 3484.85,-650.81 3531.06,-662.4"/>
<polygon fill="black" stroke="black" points="3530.49,-665.87 3541.04,-664.9 3532.19,-659.08 3530.49,-665.87"/>
<text text-anchor="middle" x="3246.5" y="-620.75" font-family="Dejavu Sans Mono" font-size="14.00">apinatomy:next</text>
</g>
<!-- nkblad_ac_sns15_lnk_2&#45;&gt;nkblad_ref_mat_KM_27_K_129_K28_14 -->
<g id="edge49" class="edge">
<title>nkblad_ac_sns15_lnk_2&#45;&gt;nkblad_ref_mat_KM_27_K_129_K28_14</title>
<path fill="none" stroke="black" d="M2890.06,-489.95C3006.49,-489.95 3205.12,-489.95 3365.58,-489.95"/>
<polygon fill="black" stroke="black" points="3365.6,-493.45 3375.6,-489.95 3365.6,-486.45 3365.6,-493.45"/>
<text text-anchor="middle" x="3246.5" y="-493.75" font-family="Dejavu Sans Mono" font-size="14.00">apinatomy:fasciculatesIn</text>
</g>
<!-- nkblad_dc_sns15_lnk_1 -->
<g id="node60" class="node">
<title>nkblad_dc_sns15_lnk_1</title>
<path fill="none" stroke="black" d="M2053,-540.95C2053,-540.95 2227,-540.95 2227,-540.95 2233,-540.95 2239,-546.95 2239,-552.95 2239,-552.95 2239,-566.95 2239,-566.95 2239,-572.95 2233,-578.95 2227,-578.95 2227,-578.95 2053,-578.95 2053,-578.95 2047,-578.95 2041,-572.95 2041,-566.95 2041,-566.95 2041,-552.95 2041,-552.95 2041,-546.95 2047,-540.95 2053,-540.95"/>
<text text-anchor="middle" x="2140" y="-563.75" font-family="Dejavu Sans Mono" font-size="14.00">MISSING LABEL</text>
<text text-anchor="middle" x="2140" y="-548.75" font-family="Dejavu Sans Mono" font-size="14.00">(kblad:dc&#45;sns15_lnk_1)</text>
</g>
<!-- nkblad_ns64&#45;&gt;nkblad_dc_sns15_lnk_1 -->
<g id="edge66" class="edge">
<title>nkblad_ns64&#45;&gt;nkblad_dc_sns15_lnk_1</title>
<path fill="none" stroke="black" d="M1835.09,-558.28C1888.36,-558.57 1966.87,-559 2030.75,-559.35"/>
<polygon fill="black" stroke="black" points="2030.86,-562.86 2040.87,-559.41 2030.89,-555.86 2030.86,-562.86"/>
<text text-anchor="middle" x="1948.5" y="-562.75" font-family="Dejavu Sans Mono" font-size="14.00">apinatomy:sourceOf</text>
</g>
<!-- nkblad_ref_mat_K_83_K_129_K27_7&#45;&gt;nkblad_K27 -->
<g id="edge60" class="edge">
<title>nkblad_ref_mat_K_83_K_129_K27_7&#45;&gt;nkblad_K27</title>
<path fill="none" stroke="black" d="M3117.31,-388.83C3383.08,-385.11 3768.31,-375.17 4104,-348.95 4109.15,-348.55 4114.41,-348.09 4119.71,-347.59"/>
<polygon fill="black" stroke="black" points="4120.35,-351.05 4129.96,-346.59 4119.66,-344.08 4120.35,-351.05"/>
<text text-anchor="middle" x="3619.5" y="-386.75" font-family="Dejavu Sans Mono" font-size="14.00">apinatomy:layerIn</text>
</g>
<!-- nkblad_ref_mat_K_83_K_129_K27_7&#45;&gt;nkblad_ref_mat_K_83_K_129 -->
<g id="edge16" class="edge">
<title>nkblad_ref_mat_K_83_K_129_K27_7&#45;&gt;nkblad_ref_mat_K_83_K_129</title>
<path fill="none" stroke="black" d="M3117.19,-408.58C3220.65,-420.14 3318.52,-439.27 3358,-470.95 3375.77,-485.21 3358.05,-504.92 3376,-518.95 3393.67,-532.76 3414.4,-542.06 3436.16,-548.12"/>
<polygon fill="black" stroke="black" points="3435.33,-551.52 3445.88,-550.6 3437.06,-544.74 3435.33,-551.52"/>
<text text-anchor="middle" x="3246.5" y="-474.75" font-family="Dejavu Sans Mono" font-size="14.00">apinatomy:cloneOf</text>
</g>
<!-- nkblad_dc_sns15_lnk_1&#45;&gt;nkblad_ref_mat_K_83_K_129_K28_7 -->
<g id="edge61" class="edge">
<title>nkblad_dc_sns15_lnk_1&#45;&gt;nkblad_ref_mat_K_83_K_129_K28_7</title>
<path fill="none" stroke="black" d="M2239.22,-559.95C2297.75,-559.95 2375.85,-559.95 2454.79,-559.95"/>
<polygon fill="black" stroke="black" points="2454.92,-563.45 2464.92,-559.95 2454.92,-556.45 2454.92,-563.45"/>
<text text-anchor="middle" x="2352" y="-563.75" font-family="Dejavu Sans Mono" font-size="14.00">apinatomy:endsIn</text>
</g>
<!-- nkblad_dc_sns15_lnk_1&#45;&gt;nkblad_dc_sns15_lyph_1 -->
<g id="edge41" class="edge">
<title>nkblad_dc_sns15_lnk_1&#45;&gt;nkblad_dc_sns15_lyph_1</title>
<path fill="none" stroke="black" d="M2150.34,-578.99C2167.86,-613.44 2208.34,-687.26 2257,-737.95 2335.57,-819.8 2359.36,-844.55 2465,-885.95 2529.6,-911.26 2606.42,-921.99 2669.14,-926.28"/>
<polygon fill="black" stroke="black" points="2669.28,-929.8 2679.48,-926.94 2669.72,-922.81 2669.28,-929.8"/>
<text text-anchor="middle" x="2352" y="-881.75" font-family="Dejavu Sans Mono" font-size="14.00">apinatomy:conveyingLyph</text>
</g>
</g>
</svg>
