<?xml version="1.0" encoding="UTF-8" standalone="no"?>
<!DOCTYPE svg PUBLIC "-//W3C//DTD SVG 1.1//EN"
 "http://www.w3.org/Graphics/SVG/1.1/DTD/svg11.dtd">
<!-- Generated by graphviz version 2.47.1 (20210417.1919)
 -->
<!-- Pages: 1 -->
<svg width="3592pt" height="503pt"
 viewBox="0.00 0.00 3592.00 503.00" xmlns="http://www.w3.org/2000/svg" xmlns:xlink="http://www.w3.org/1999/xlink">
<g id="graph0" class="graph" transform="scale(1 1) rotate(0) translate(4 499)">
<polygon fill="white" stroke="transparent" points="-4,4 -4,-499 3588,-499 3588,4 -4,4"/>
<!-- nilxtr_neuron_type_bolew_18 -->
<g id="node1" class="node">
<title>nilxtr_neuron_type_bolew_18</title>
<path fill="none" stroke="black" d="M16.5,-0.5C16.5,-0.5 2871.5,-0.5 2871.5,-0.5 2877.5,-0.5 2883.5,-6.5 2883.5,-12.5 2883.5,-12.5 2883.5,-26.5 2883.5,-26.5 2883.5,-32.5 2877.5,-38.5 2871.5,-38.5 2871.5,-38.5 16.5,-38.5 16.5,-38.5 10.5,-38.5 4.5,-32.5 4.5,-26.5 4.5,-26.5 4.5,-12.5 4.5,-12.5 4.5,-6.5 10.5,-0.5 16.5,-0.5"/>
<text text-anchor="middle" x="1444" y="-23.3" font-family="Dejavu Sans Mono" font-size="14.00">Mammalia superior cervical ganglion (with&#45;dendrite&#45;in superior cervical ganglion) (with&#45;axons&#45;in External branch of superior laryngeal nerve) External carotid nerve plexus superior cervical ganglion superior laryngeal nerve vagus nerve (with&#45;presynaptic&#45;terminals&#45;in External branch of inferior laryngeal nerve) neuron projection phenotype (bolew)</text>
<text text-anchor="middle" x="1444" y="-8.3" font-family="Dejavu Sans Mono" font-size="14.00">(ilxtr:neuron&#45;type&#45;bolew&#45;18)</text>
</g>
<!-- nbolew_neuron_18 -->
<g id="node14" class="node">
<title>nbolew_neuron_18</title>
<path fill="none" stroke="black" d="M3093,-0.5C3093,-0.5 3572,-0.5 3572,-0.5 3578,-0.5 3584,-6.5 3584,-12.5 3584,-12.5 3584,-26.5 3584,-26.5 3584,-32.5 3578,-38.5 3572,-38.5 3572,-38.5 3093,-38.5 3093,-38.5 3087,-38.5 3081,-32.5 3081,-26.5 3081,-26.5 3081,-12.5 3081,-12.5 3081,-6.5 3087,-0.5 3093,-0.5"/>
<text text-anchor="middle" x="3332.5" y="-23.3" font-family="Dejavu Sans Mono" font-size="14.00">Neuron population in superior cervical ganglion (6) (bolew)</text>
<text text-anchor="middle" x="3332.5" y="-8.3" font-family="Dejavu Sans Mono" font-size="14.00">(bolew:neuron&#45;18)</text>
</g>
<!-- nilxtr_neuron_type_bolew_18&#45;&gt;nbolew_neuron_18 -->
<g id="edge8" class="edge">
<title>nilxtr_neuron_type_bolew_18&#45;&gt;nbolew_neuron_18</title>
<path fill="none" stroke="black" d="M2883.53,-19.5C2951.44,-19.5 3014.58,-19.5 3070.76,-19.5"/>
<polygon fill="black" stroke="black" points="3070.8,-23 3080.8,-19.5 3070.8,-16 3070.8,-23"/>
<text text-anchor="middle" x="2984.5" y="-23.3" font-family="Dejavu Sans Mono" font-size="14.00">apinatomy:annotates</text>
</g>
<!-- nilxtr_neuron_type_bolew_17 -->
<g id="node2" class="node">
<title>nilxtr_neuron_type_bolew_17</title>
<path fill="none" stroke="black" d="M169,-57.5C169,-57.5 2719,-57.5 2719,-57.5 2725,-57.5 2731,-63.5 2731,-69.5 2731,-69.5 2731,-83.5 2731,-83.5 2731,-89.5 2725,-95.5 2719,-95.5 2719,-95.5 169,-95.5 169,-95.5 163,-95.5 157,-89.5 157,-83.5 157,-83.5 157,-69.5 157,-69.5 157,-63.5 163,-57.5 169,-57.5"/>
<text text-anchor="middle" x="1444" y="-80.3" font-family="Dejavu Sans Mono" font-size="14.00">Mammalia superior cervical ganglion (with&#45;dendrite&#45;in superior cervical ganglion) (with&#45;axons&#45;in External carotid nerve plexus Internal branch of superior laryngeal nerve) superior cervical ganglion superior laryngeal nerve vagus nerve (with&#45;presynaptic&#45;terminals&#45;in larynx) neuron projection phenotype (bolew)</text>
<text text-anchor="middle" x="1444" y="-65.3" font-family="Dejavu Sans Mono" font-size="14.00">(ilxtr:neuron&#45;type&#45;bolew&#45;17)</text>
</g>
<!-- nbolew_neuron_17 -->
<g id="node7" class="node">
<title>nbolew_neuron_17</title>
<path fill="none" stroke="black" d="M3093,-57.5C3093,-57.5 3572,-57.5 3572,-57.5 3578,-57.5 3584,-63.5 3584,-69.5 3584,-69.5 3584,-83.5 3584,-83.5 3584,-89.5 3578,-95.5 3572,-95.5 3572,-95.5 3093,-95.5 3093,-95.5 3087,-95.5 3081,-89.5 3081,-83.5 3081,-83.5 3081,-69.5 3081,-69.5 3081,-63.5 3087,-57.5 3093,-57.5"/>
<text text-anchor="middle" x="3332.5" y="-80.3" font-family="Dejavu Sans Mono" font-size="14.00">Neuron population in superior cervical ganglion (5) (bolew)</text>
<text text-anchor="middle" x="3332.5" y="-65.3" font-family="Dejavu Sans Mono" font-size="14.00">(bolew:neuron&#45;17)</text>
</g>
<!-- nilxtr_neuron_type_bolew_17&#45;&gt;nbolew_neuron_17 -->
<g id="edge4" class="edge">
<title>nilxtr_neuron_type_bolew_17&#45;&gt;nbolew_neuron_17</title>
<path fill="none" stroke="black" d="M2731.03,-76.5C2857.4,-76.5 2974.26,-76.5 3070.66,-76.5"/>
<polygon fill="black" stroke="black" points="3070.82,-80 3080.82,-76.5 3070.82,-73 3070.82,-80"/>
<text text-anchor="middle" x="2984.5" y="-80.3" font-family="Dejavu Sans Mono" font-size="14.00">apinatomy:annotates</text>
</g>
<!-- nilxtr_neuron_type_bolew_9 -->
<g id="node3" class="node">
<title>nilxtr_neuron_type_bolew_9</title>
<path fill="none" stroke="black" d="M565,-114.5C565,-114.5 2323,-114.5 2323,-114.5 2329,-114.5 2335,-120.5 2335,-126.5 2335,-126.5 2335,-140.5 2335,-140.5 2335,-146.5 2329,-152.5 2323,-152.5 2323,-152.5 565,-152.5 565,-152.5 559,-152.5 553,-146.5 553,-140.5 553,-140.5 553,-126.5 553,-126.5 553,-120.5 559,-114.5 565,-114.5"/>
<text text-anchor="middle" x="1444" y="-137.3" font-family="Dejavu Sans Mono" font-size="14.00">Mammalia Nodose Ganglion (with&#45;dendrites&#45;in larynx superior laryngeal nerve) vagus nerve (with&#45;axon&#45;in vagus nerve) (with&#45;presynaptic&#45;terminals&#45;in solitary tract nuclear complex) neuron projection phenotype (bolew)</text>
<text text-anchor="middle" x="1444" y="-122.3" font-family="Dejavu Sans Mono" font-size="14.00">(ilxtr:neuron&#45;type&#45;bolew&#45;9)</text>
</g>
<!-- nbolew_neuron_9 -->
<g id="node10" class="node">
<title>nbolew_neuron_9</title>
<path fill="none" stroke="black" d="M3101,-114.5C3101,-114.5 3564,-114.5 3564,-114.5 3570,-114.5 3576,-120.5 3576,-126.5 3576,-126.5 3576,-140.5 3576,-140.5 3576,-146.5 3570,-152.5 3564,-152.5 3564,-152.5 3101,-152.5 3101,-152.5 3095,-152.5 3089,-146.5 3089,-140.5 3089,-140.5 3089,-126.5 3089,-126.5 3089,-120.5 3095,-114.5 3101,-114.5"/>
<text text-anchor="middle" x="3332.5" y="-137.3" font-family="Dejavu Sans Mono" font-size="14.00">Neuron population in nodose ganglion lar proj (2) (bolew)</text>
<text text-anchor="middle" x="3332.5" y="-122.3" font-family="Dejavu Sans Mono" font-size="14.00">(bolew:neuron&#45;9)</text>
</g>
<!-- nilxtr_neuron_type_bolew_9&#45;&gt;nbolew_neuron_9 -->
<g id="edge3" class="edge">
<title>nilxtr_neuron_type_bolew_9&#45;&gt;nbolew_neuron_9</title>
<path fill="none" stroke="black" d="M2335.08,-133.5C2607.23,-133.5 2885.3,-133.5 3078.29,-133.5"/>
<polygon fill="black" stroke="black" points="3078.57,-137 3088.57,-133.5 3078.57,-130 3078.57,-137"/>
<text text-anchor="middle" x="2984.5" y="-137.3" font-family="Dejavu Sans Mono" font-size="14.00">apinatomy:annotates</text>
</g>
<!-- nbolew_neuron_8 -->
<g id="node4" class="node">
<title>nbolew_neuron_8</title>
<path fill="none" stroke="black" d="M3105,-171.5C3105,-171.5 3560,-171.5 3560,-171.5 3566,-171.5 3572,-177.5 3572,-183.5 3572,-183.5 3572,-197.5 3572,-197.5 3572,-203.5 3566,-209.5 3560,-209.5 3560,-209.5 3105,-209.5 3105,-209.5 3099,-209.5 3093,-203.5 3093,-197.5 3093,-197.5 3093,-183.5 3093,-183.5 3093,-177.5 3099,-171.5 3105,-171.5"/>
<text text-anchor="middle" x="3332.5" y="-194.3" font-family="Dejavu Sans Mono" font-size="14.00">Neuron population in nodose ganglion aa proj (1) (bolew)</text>
<text text-anchor="middle" x="3332.5" y="-179.3" font-family="Dejavu Sans Mono" font-size="14.00">(bolew:neuron&#45;8)</text>
</g>
<!-- nbolew_neuron_19 -->
<g id="node5" class="node">
<title>nbolew_neuron_19</title>
<path fill="none" stroke="black" d="M3093,-228.5C3093,-228.5 3572,-228.5 3572,-228.5 3578,-228.5 3584,-234.5 3584,-240.5 3584,-240.5 3584,-254.5 3584,-254.5 3584,-260.5 3578,-266.5 3572,-266.5 3572,-266.5 3093,-266.5 3093,-266.5 3087,-266.5 3081,-260.5 3081,-254.5 3081,-254.5 3081,-240.5 3081,-240.5 3081,-234.5 3087,-228.5 3093,-228.5"/>
<text text-anchor="middle" x="3332.5" y="-251.3" font-family="Dejavu Sans Mono" font-size="14.00">Neuron population in superior cervical ganglion (7) (bolew)</text>
<text text-anchor="middle" x="3332.5" y="-236.3" font-family="Dejavu Sans Mono" font-size="14.00">(bolew:neuron&#45;19)</text>
</g>
<!-- nilxtr_neuron_type_bolew_10 -->
<g id="node6" class="node">
<title>nilxtr_neuron_type_bolew_10</title>
<path fill="none" stroke="black" d="M474,-285.5C474,-285.5 2414,-285.5 2414,-285.5 2420,-285.5 2426,-291.5 2426,-297.5 2426,-297.5 2426,-311.5 2426,-311.5 2426,-317.5 2420,-323.5 2414,-323.5 2414,-323.5 474,-323.5 474,-323.5 468,-323.5 462,-317.5 462,-311.5 462,-311.5 462,-297.5 462,-297.5 462,-291.5 468,-285.5 474,-285.5"/>
<text text-anchor="middle" x="1444" y="-308.3" font-family="Dejavu Sans Mono" font-size="14.00">Mammalia Nodose Ganglion (with&#45;dendrites&#45;in Pharyngeal branch of the Hypoglossal nerve) epiglottis vagus nerve (with&#45;axon&#45;in vagus nerve) (with&#45;presynaptic&#45;terminals&#45;in solitary tract nuclear complex) neuron projection phenotype (bolew)</text>
<text text-anchor="middle" x="1444" y="-293.3" font-family="Dejavu Sans Mono" font-size="14.00">(ilxtr:neuron&#45;type&#45;bolew&#45;10)</text>
</g>
<!-- nbolew_neuron_10 -->
<g id="node8" class="node">
<title>nbolew_neuron_10</title>
<path fill="none" stroke="black" d="M3101,-285.5C3101,-285.5 3564,-285.5 3564,-285.5 3570,-285.5 3576,-291.5 3576,-297.5 3576,-297.5 3576,-311.5 3576,-311.5 3576,-317.5 3570,-323.5 3564,-323.5 3564,-323.5 3101,-323.5 3101,-323.5 3095,-323.5 3089,-317.5 3089,-311.5 3089,-311.5 3089,-297.5 3089,-297.5 3089,-291.5 3095,-285.5 3101,-285.5"/>
<text text-anchor="middle" x="3332.5" y="-308.3" font-family="Dejavu Sans Mono" font-size="14.00">Neuron population in nodose ganglion epi proj (3) (bolew)</text>
<text text-anchor="middle" x="3332.5" y="-293.3" font-family="Dejavu Sans Mono" font-size="14.00">(bolew:neuron&#45;10)</text>
</g>
<!-- nilxtr_neuron_type_bolew_10&#45;&gt;nbolew_neuron_10 -->
<g id="edge9" class="edge">
<title>nilxtr_neuron_type_bolew_10&#45;&gt;nbolew_neuron_10</title>
<path fill="none" stroke="black" d="M2426.24,-304.5C2668.42,-304.5 2907.26,-304.5 3078.75,-304.5"/>
<polygon fill="black" stroke="black" points="3078.92,-308 3088.92,-304.5 3078.92,-301 3078.92,-308"/>
<text text-anchor="middle" x="2984.5" y="-308.3" font-family="Dejavu Sans Mono" font-size="14.00">apinatomy:annotates</text>
</g>
<!-- nbolew_neuron_21 -->
<g id="node9" class="node">
<title>nbolew_neuron_21</title>
<path fill="none" stroke="black" d="M3093,-342.5C3093,-342.5 3572,-342.5 3572,-342.5 3578,-342.5 3584,-348.5 3584,-354.5 3584,-354.5 3584,-368.5 3584,-368.5 3584,-374.5 3578,-380.5 3572,-380.5 3572,-380.5 3093,-380.5 3093,-380.5 3087,-380.5 3081,-374.5 3081,-368.5 3081,-368.5 3081,-354.5 3081,-354.5 3081,-348.5 3087,-342.5 3093,-342.5"/>
<text text-anchor="middle" x="3332.5" y="-365.3" font-family="Dejavu Sans Mono" font-size="14.00">Neuron population in superior cervical ganglion (9) (bolew)</text>
<text text-anchor="middle" x="3332.5" y="-350.3" font-family="Dejavu Sans Mono" font-size="14.00">(bolew:neuron&#45;21)</text>
</g>
<!-- nilxtr_neuron_type_bolew_19 -->
<g id="node11" class="node">
<title>nilxtr_neuron_type_bolew_19</title>
<path fill="none" stroke="black" d="M16.5,-228.5C16.5,-228.5 2871.5,-228.5 2871.5,-228.5 2877.5,-228.5 2883.5,-234.5 2883.5,-240.5 2883.5,-240.5 2883.5,-254.5 2883.5,-254.5 2883.5,-260.5 2877.5,-266.5 2871.5,-266.5 2871.5,-266.5 16.5,-266.5 16.5,-266.5 10.5,-266.5 4.5,-260.5 4.5,-254.5 4.5,-254.5 4.5,-240.5 4.5,-240.5 4.5,-234.5 10.5,-228.5 16.5,-228.5"/>
<text text-anchor="middle" x="1444" y="-251.3" font-family="Dejavu Sans Mono" font-size="14.00">Mammalia superior cervical ganglion (with&#45;dendrite&#45;in superior cervical ganglion) (with&#45;axons&#45;in External carotid nerve plexus Internal branch of superior laryngeal nerve) superior cervical ganglion superior laryngeal nerve vagus nerve (with&#45;presynaptic&#45;terminals&#45;in External branch of inferior laryngeal nerve) neuron projection phenotype (bolew)</text>
<text text-anchor="middle" x="1444" y="-236.3" font-family="Dejavu Sans Mono" font-size="14.00">(ilxtr:neuron&#45;type&#45;bolew&#45;19)</text>
</g>
<!-- nilxtr_neuron_type_bolew_19&#45;&gt;nbolew_neuron_19 -->
<g id="edge2" class="edge">
<title>nilxtr_neuron_type_bolew_19&#45;&gt;nbolew_neuron_19</title>
<path fill="none" stroke="black" d="M2883.53,-247.5C2951.44,-247.5 3014.58,-247.5 3070.76,-247.5"/>
<polygon fill="black" stroke="black" points="3070.8,-251 3080.8,-247.5 3070.8,-244 3070.8,-251"/>
<text text-anchor="middle" x="2984.5" y="-251.3" font-family="Dejavu Sans Mono" font-size="14.00">apinatomy:annotates</text>
</g>
<!-- nilxtr_neuron_type_bolew_16 -->
<g id="node12" class="node">
<title>nilxtr_neuron_type_bolew_16</title>
<path fill="none" stroke="black" d="M280.5,-399.5C280.5,-399.5 2607.5,-399.5 2607.5,-399.5 2613.5,-399.5 2619.5,-405.5 2619.5,-411.5 2619.5,-411.5 2619.5,-425.5 2619.5,-425.5 2619.5,-431.5 2613.5,-437.5 2607.5,-437.5 2607.5,-437.5 280.5,-437.5 280.5,-437.5 274.5,-437.5 268.5,-431.5 268.5,-425.5 268.5,-425.5 268.5,-411.5 268.5,-411.5 268.5,-405.5 274.5,-399.5 280.5,-399.5"/>
<text text-anchor="middle" x="1444" y="-422.3" font-family="Dejavu Sans Mono" font-size="14.00">Mammalia superior cervical ganglion (with&#45;dendrite&#45;in superior cervical ganglion) (with&#45;axons&#45;in External branch of superior laryngeal nerve) External carotid nerve plexus superior laryngeal nerve vagus nerve (with&#45;presynaptic&#45;terminals&#45;in larynx) neuron projection phenotype (bolew)</text>
<text text-anchor="middle" x="1444" y="-407.3" font-family="Dejavu Sans Mono" font-size="14.00">(ilxtr:neuron&#45;type&#45;bolew&#45;16)</text>
</g>
<!-- nbolew_neuron_16 -->
<g id="node13" class="node">
<title>nbolew_neuron_16</title>
<path fill="none" stroke="black" d="M3093,-399.5C3093,-399.5 3572,-399.5 3572,-399.5 3578,-399.5 3584,-405.5 3584,-411.5 3584,-411.5 3584,-425.5 3584,-425.5 3584,-431.5 3578,-437.5 3572,-437.5 3572,-437.5 3093,-437.5 3093,-437.5 3087,-437.5 3081,-431.5 3081,-425.5 3081,-425.5 3081,-411.5 3081,-411.5 3081,-405.5 3087,-399.5 3093,-399.5"/>
<text text-anchor="middle" x="3332.5" y="-422.3" font-family="Dejavu Sans Mono" font-size="14.00">Neuron population in superior cervical ganglion (4) (bolew)</text>
<text text-anchor="middle" x="3332.5" y="-407.3" font-family="Dejavu Sans Mono" font-size="14.00">(bolew:neuron&#45;16)</text>
</g>
<!-- nilxtr_neuron_type_bolew_16&#45;&gt;nbolew_neuron_16 -->
<g id="edge6" class="edge">
<title>nilxtr_neuron_type_bolew_16&#45;&gt;nbolew_neuron_16</title>
<path fill="none" stroke="black" d="M2619.64,-418.5C2788.46,-418.5 2946.73,-418.5 3070.97,-418.5"/>
<polygon fill="black" stroke="black" points="3070.99,-422 3080.99,-418.5 3070.99,-415 3070.99,-422"/>
<text text-anchor="middle" x="2984.5" y="-422.3" font-family="Dejavu Sans Mono" font-size="14.00">apinatomy:annotates</text>
</g>
<!-- nilxtr_neuron_type_bolew_21 -->
<g id="node15" class="node">
<title>nilxtr_neuron_type_bolew_21</title>
<path fill="none" stroke="black" d="M148.5,-342.5C148.5,-342.5 2739.5,-342.5 2739.5,-342.5 2745.5,-342.5 2751.5,-348.5 2751.5,-354.5 2751.5,-354.5 2751.5,-368.5 2751.5,-368.5 2751.5,-374.5 2745.5,-380.5 2739.5,-380.5 2739.5,-380.5 148.5,-380.5 148.5,-380.5 142.5,-380.5 136.5,-374.5 136.5,-368.5 136.5,-368.5 136.5,-354.5 136.5,-354.5 136.5,-348.5 142.5,-342.5 148.5,-342.5"/>
<text text-anchor="middle" x="1444" y="-365.3" font-family="Dejavu Sans Mono" font-size="14.00">Mammalia superior cervical ganglion (with&#45;dendrite&#45;in superior cervical ganglion) (with&#45;axons&#45;in External carotid nerve plexus Internal branch of inferior laryngeal nerve) Laryngeal Nerve, Inferior superior cervical ganglion vagus nerve (with&#45;presynaptic&#45;terminals&#45;in epiglottis) neuron projection phenotype (bolew)</text>
<text text-anchor="middle" x="1444" y="-350.3" font-family="Dejavu Sans Mono" font-size="14.00">(ilxtr:neuron&#45;type&#45;bolew&#45;21)</text>
</g>
<!-- nilxtr_neuron_type_bolew_21&#45;&gt;nbolew_neuron_21 -->
<g id="edge1" class="edge">
<title>nilxtr_neuron_type_bolew_21&#45;&gt;nbolew_neuron_21</title>
<path fill="none" stroke="black" d="M2751.7,-361.5C2870.18,-361.5 2979.63,-361.5 3070.78,-361.5"/>
<polygon fill="black" stroke="black" points="3070.95,-365 3080.95,-361.5 3070.95,-358 3070.95,-365"/>
<text text-anchor="middle" x="2984.5" y="-365.3" font-family="Dejavu Sans Mono" font-size="14.00">apinatomy:annotates</text>
</g>
<!-- nbolew_neuron_20 -->
<g id="node16" class="node">
<title>nbolew_neuron_20</title>
<path fill="none" stroke="black" d="M3093,-456.5C3093,-456.5 3572,-456.5 3572,-456.5 3578,-456.5 3584,-462.5 3584,-468.5 3584,-468.5 3584,-482.5 3584,-482.5 3584,-488.5 3578,-494.5 3572,-494.5 3572,-494.5 3093,-494.5 3093,-494.5 3087,-494.5 3081,-488.5 3081,-482.5 3081,-482.5 3081,-468.5 3081,-468.5 3081,-462.5 3087,-456.5 3093,-456.5"/>
<text text-anchor="middle" x="3332.5" y="-479.3" font-family="Dejavu Sans Mono" font-size="14.00">Neuron population in superior cervical ganglion (8) (bolew)</text>
<text text-anchor="middle" x="3332.5" y="-464.3" font-family="Dejavu Sans Mono" font-size="14.00">(bolew:neuron&#45;20)</text>
</g>
<!-- nilxtr_neuron_type_bolew_20 -->
<g id="node17" class="node">
<title>nilxtr_neuron_type_bolew_20</title>
<path fill="none" stroke="black" d="M12,-456.5C12,-456.5 2876,-456.5 2876,-456.5 2882,-456.5 2888,-462.5 2888,-468.5 2888,-468.5 2888,-482.5 2888,-482.5 2888,-488.5 2882,-494.5 2876,-494.5 2876,-494.5 12,-494.5 12,-494.5 6,-494.5 0,-488.5 0,-482.5 0,-482.5 0,-468.5 0,-468.5 0,-462.5 6,-456.5 12,-456.5"/>
<text text-anchor="middle" x="1444" y="-479.3" font-family="Dejavu Sans Mono" font-size="14.00">Mammalia superior cervical ganglion (with&#45;dendrite&#45;in superior cervical ganglion) (with&#45;axons&#45;in External branch of inferior laryngeal nerve) External carotid nerve plexus Laryngeal Nerve, Inferior superior cervical ganglion vagus nerve (with&#45;presynaptic&#45;terminals&#45;in External branch of inferior laryngeal nerve) neuron projection phenotype (bolew)</text>
<text text-anchor="middle" x="1444" y="-464.3" font-family="Dejavu Sans Mono" font-size="14.00">(ilxtr:neuron&#45;type&#45;bolew&#45;20)</text>
</g>
<!-- nilxtr_neuron_type_bolew_20&#45;&gt;nbolew_neuron_20 -->
<g id="edge7" class="edge">
<title>nilxtr_neuron_type_bolew_20&#45;&gt;nbolew_neuron_20</title>
<path fill="none" stroke="black" d="M2888.01,-475.5C2954.24,-475.5 3015.85,-475.5 3070.8,-475.5"/>
<polygon fill="black" stroke="black" points="3070.98,-479 3080.98,-475.5 3070.98,-472 3070.98,-479"/>
<text text-anchor="middle" x="2984.5" y="-479.3" font-family="Dejavu Sans Mono" font-size="14.00">apinatomy:annotates</text>
</g>
<!-- nilxtr_neuron_type_bolew_8 -->
<g id="node18" class="node">
<title>nilxtr_neuron_type_bolew_8</title>
<path fill="none" stroke="black" d="M523.5,-171.5C523.5,-171.5 2364.5,-171.5 2364.5,-171.5 2370.5,-171.5 2376.5,-177.5 2376.5,-183.5 2376.5,-183.5 2376.5,-197.5 2376.5,-197.5 2376.5,-203.5 2370.5,-209.5 2364.5,-209.5 2364.5,-209.5 523.5,-209.5 523.5,-209.5 517.5,-209.5 511.5,-203.5 511.5,-197.5 511.5,-197.5 511.5,-183.5 511.5,-183.5 511.5,-177.5 517.5,-171.5 523.5,-171.5"/>
<text text-anchor="middle" x="1444" y="-194.3" font-family="Dejavu Sans Mono" font-size="14.00">Mammalia Nodose Ganglion (with&#45;dendrites&#45;in Aortic arch depressor nerve) arch of aorta vagus nerve (with&#45;axon&#45;in vagus nerve) (with&#45;presynaptic&#45;terminals&#45;in solitary tract nuclear complex) neuron projection phenotype (bolew)</text>
<text text-anchor="middle" x="1444" y="-179.3" font-family="Dejavu Sans Mono" font-size="14.00">(ilxtr:neuron&#45;type&#45;bolew&#45;8)</text>
</g>
<!-- nilxtr_neuron_type_bolew_8&#45;&gt;nbolew_neuron_8 -->
<g id="edge5" class="edge">
<title>nilxtr_neuron_type_bolew_8&#45;&gt;nbolew_neuron_8</title>
<path fill="none" stroke="black" d="M2376.51,-190.5C2637.32,-190.5 2899.34,-190.5 3082.77,-190.5"/>
<polygon fill="black" stroke="black" points="3082.81,-194 3092.81,-190.5 3082.81,-187 3082.81,-194"/>
<text text-anchor="middle" x="2984.5" y="-194.3" font-family="Dejavu Sans Mono" font-size="14.00">apinatomy:annotates</text>
</g>
</g>
</svg>
