<?xml version="1.0" encoding="UTF-8" standalone="no"?>
<!DOCTYPE svg PUBLIC "-//W3C//DTD SVG 1.1//EN"
 "http://www.w3.org/Graphics/SVG/1.1/DTD/svg11.dtd">
<!-- Generated by graphviz version 2.50.0 (20211204.2007)
 -->
<!-- Pages: 1 -->
<svg width="4778pt" height="653pt"
 viewBox="0.00 0.00 4778.00 653.00" xmlns="http://www.w3.org/2000/svg" xmlns:xlink="http://www.w3.org/1999/xlink">
<g id="graph0" class="graph" transform="scale(1 1) rotate(0) translate(4 649)">
<polygon fill="white" stroke="transparent" points="-4,4 -4,-649 4774,-649 4774,4 -4,4"/>
<!-- nilxtr_neuron_type_aacar_12 -->
<g id="node1" class="node">
<title>nilxtr_neuron_type_aacar_12</title>
<path fill="none" stroke="black" d="M12,-159.5C12,-159.5 236,-159.5 236,-159.5 242,-159.5 248,-165.5 248,-171.5 248,-171.5 248,-185.5 248,-185.5 248,-191.5 242,-197.5 236,-197.5 236,-197.5 12,-197.5 12,-197.5 6,-197.5 0,-191.5 0,-185.5 0,-185.5 0,-171.5 0,-171.5 0,-165.5 6,-159.5 12,-159.5"/>
<text text-anchor="middle" x="124" y="-182.3" font-family="Dejavu Sans Mono" font-size="14.00">neuron type aacar 12</text>
<text text-anchor="middle" x="124" y="-167.3" font-family="Dejavu Sans Mono" font-size="14.00">(ilxtr:neuron&#45;type&#45;aacar&#45;12)</text>
</g>
<!-- naacar_neuron_12 -->
<g id="node33" class="node">
<title>naacar_neuron_12</title>
<path fill="none" stroke="black" d="M453,-159.5C453,-159.5 586,-159.5 586,-159.5 592,-159.5 598,-165.5 598,-171.5 598,-171.5 598,-185.5 598,-185.5 598,-191.5 592,-197.5 586,-197.5 586,-197.5 453,-197.5 453,-197.5 447,-197.5 441,-191.5 441,-185.5 441,-185.5 441,-171.5 441,-171.5 441,-165.5 447,-159.5 453,-159.5"/>
<text text-anchor="middle" x="519.5" y="-182.3" font-family="Dejavu Sans Mono" font-size="14.00">Neuron 12</text>
<text text-anchor="middle" x="519.5" y="-167.3" font-family="Dejavu Sans Mono" font-size="14.00">(aacar:neuron&#45;12)</text>
</g>
<!-- nilxtr_neuron_type_aacar_12&#45;&gt;naacar_neuron_12 -->
<g id="edge50" class="edge">
<title>nilxtr_neuron_type_aacar_12&#45;&gt;naacar_neuron_12</title>
<path fill="none" stroke="black" d="M248.16,-178.5C307.35,-178.5 376.94,-178.5 430.68,-178.5"/>
<polygon fill="black" stroke="black" points="430.87,-182 440.87,-178.5 430.87,-175 430.87,-182"/>
<text text-anchor="middle" x="344.5" y="-182.3" font-family="Dejavu Sans Mono" font-size="14.00">apinatomy:annotates</text>
</g>
<!-- napinatomy_BAG -->
<g id="node2" class="node">
<title>napinatomy_BAG</title>
<path fill="none" stroke="black" d="M4217.5,-251.5C4217.5,-251.5 4333.5,-251.5 4333.5,-251.5 4339.5,-251.5 4345.5,-257.5 4345.5,-263.5 4345.5,-263.5 4345.5,-277.5 4345.5,-277.5 4345.5,-283.5 4339.5,-289.5 4333.5,-289.5 4333.5,-289.5 4217.5,-289.5 4217.5,-289.5 4211.5,-289.5 4205.5,-283.5 4205.5,-277.5 4205.5,-277.5 4205.5,-263.5 4205.5,-263.5 4205.5,-257.5 4211.5,-251.5 4217.5,-251.5"/>
<text text-anchor="middle" x="4275.5" y="-274.3" font-family="Dejavu Sans Mono" font-size="14.00">MISSING LABEL</text>
<text text-anchor="middle" x="4275.5" y="-259.3" font-family="Dejavu Sans Mono" font-size="14.00">(apinatomy:BAG)</text>
</g>
<!-- naacar_A61 -->
<g id="node3" class="node">
<title>naacar_A61</title>
<path fill="none" stroke="black" d="M2866,-571.5C2866,-571.5 3139,-571.5 3139,-571.5 3145,-571.5 3151,-577.5 3151,-583.5 3151,-583.5 3151,-597.5 3151,-597.5 3151,-603.5 3145,-609.5 3139,-609.5 3139,-609.5 2866,-609.5 2866,-609.5 2860,-609.5 2854,-603.5 2854,-597.5 2854,-597.5 2854,-583.5 2854,-583.5 2854,-577.5 2860,-571.5 2866,-571.5"/>
<text text-anchor="middle" x="3002.5" y="-594.3" font-family="Dejavu Sans Mono" font-size="14.00">Inferior cervical ganglion (aacar)</text>
<text text-anchor="middle" x="3002.5" y="-579.3" font-family="Dejavu Sans Mono" font-size="14.00">(aacar:A61)</text>
</g>
<!-- nUBERON_0002440 -->
<g id="node19" class="node">
<title>nUBERON_0002440</title>
<path fill="none" stroke="black" d="M3579,-606.5C3579,-606.5 3786,-606.5 3786,-606.5 3792,-606.5 3798,-612.5 3798,-618.5 3798,-618.5 3798,-632.5 3798,-632.5 3798,-638.5 3792,-644.5 3786,-644.5 3786,-644.5 3579,-644.5 3579,-644.5 3573,-644.5 3567,-638.5 3567,-632.5 3567,-632.5 3567,-618.5 3567,-618.5 3567,-612.5 3573,-606.5 3579,-606.5"/>
<text text-anchor="middle" x="3682.5" y="-629.3" font-family="Dejavu Sans Mono" font-size="14.00">inferior cervical ganglion</text>
<text text-anchor="middle" x="3682.5" y="-614.3" font-family="Dejavu Sans Mono" font-size="14.00">(UBERON:0002440)</text>
</g>
<!-- naacar_A61&#45;&gt;nUBERON_0002440 -->
<g id="edge47" class="edge">
<title>naacar_A61&#45;&gt;nUBERON_0002440</title>
<path fill="none" stroke="black" d="M3151.03,-598.12C3272.23,-604.37 3442,-613.14 3556.56,-619.05"/>
<polygon fill="black" stroke="black" points="3556.62,-622.56 3566.78,-619.58 3556.98,-615.57 3556.62,-622.56"/>
<text text-anchor="middle" x="3338.5" y="-616.3" font-family="Dejavu Sans Mono" font-size="14.00">apinatomy:ontologyTerms</text>
</g>
<!-- naacar_dc_sn_icg_12_lnk_1 -->
<g id="node4" class="node">
<title>naacar_dc_sn_icg_12_lnk_1</title>
<path fill="none" stroke="black" d="M2293,-404.5C2293,-404.5 2500,-404.5 2500,-404.5 2506,-404.5 2512,-410.5 2512,-416.5 2512,-416.5 2512,-430.5 2512,-430.5 2512,-436.5 2506,-442.5 2500,-442.5 2500,-442.5 2293,-442.5 2293,-442.5 2287,-442.5 2281,-436.5 2281,-430.5 2281,-430.5 2281,-416.5 2281,-416.5 2281,-410.5 2287,-404.5 2293,-404.5"/>
<text text-anchor="middle" x="2396.5" y="-427.3" font-family="Dejavu Sans Mono" font-size="14.00">MISSING LABEL</text>
<text text-anchor="middle" x="2396.5" y="-412.3" font-family="Dejavu Sans Mono" font-size="14.00">(aacar:dc&#45;sn&#45;icg_12_lnk_1)</text>
</g>
<!-- naacar_dc_sn_icg_12_lnk_1&#45;&gt;naacar_A61 -->
<g id="edge46" class="edge">
<title>naacar_dc_sn_icg_12_lnk_1&#45;&gt;naacar_A61</title>
<path fill="none" stroke="black" d="M2498.28,-442.58C2503.18,-445.45 2507.8,-448.74 2512,-452.5 2528.98,-467.69 2511.78,-486.82 2530,-500.5 2574.19,-533.7 2733.19,-487.14 2778,-519.5 2794.8,-531.63 2779.57,-549.88 2796,-562.5 2810.28,-573.46 2826.81,-581.21 2844.18,-586.59"/>
<polygon fill="black" stroke="black" points="2843.34,-589.98 2853.91,-589.33 2845.24,-583.25 2843.34,-589.98"/>
<text text-anchor="middle" x="2654" y="-523.3" font-family="Dejavu Sans Mono" font-size="14.00">apinatomy:endsIn</text>
</g>
<!-- naacar_dc_sn_icg_12_lyph_1 -->
<g id="node8" class="node">
<title>naacar_dc_sn_icg_12_lyph_1</title>
<path fill="none" stroke="black" d="M2808,-514.5C2808,-514.5 3197,-514.5 3197,-514.5 3203,-514.5 3209,-520.5 3209,-526.5 3209,-526.5 3209,-540.5 3209,-540.5 3209,-546.5 3203,-552.5 3197,-552.5 3197,-552.5 2808,-552.5 2808,-552.5 2802,-552.5 2796,-546.5 2796,-540.5 2796,-540.5 2796,-526.5 2796,-526.5 2796,-520.5 2802,-514.5 2808,-514.5"/>
<text text-anchor="middle" x="3002.5" y="-537.3" font-family="Dejavu Sans Mono" font-size="14.00">Axon sensory segment or dendrite segment (aacar)</text>
<text text-anchor="middle" x="3002.5" y="-522.3" font-family="Dejavu Sans Mono" font-size="14.00">(aacar:dc&#45;sn&#45;icg_12_lyph_1)</text>
</g>
<!-- naacar_dc_sn_icg_12_lnk_1&#45;&gt;naacar_dc_sn_icg_12_lyph_1 -->
<g id="edge17" class="edge">
<title>naacar_dc_sn_icg_12_lnk_1&#45;&gt;naacar_dc_sn_icg_12_lyph_1</title>
<path fill="none" stroke="black" d="M2483.01,-442.55C2492.9,-445.52 2502.76,-448.83 2512,-452.5 2520.51,-455.87 2521.26,-459.8 2530,-462.5 2635.76,-495.19 2670.89,-457.54 2778,-485.5 2786.47,-487.71 2787.65,-490.87 2796,-493.5 2819.49,-500.9 2844.94,-507.19 2869.67,-512.43"/>
<polygon fill="black" stroke="black" points="2868.97,-515.86 2879.47,-514.46 2870.39,-509 2868.97,-515.86"/>
<text text-anchor="middle" x="2654" y="-489.3" font-family="Dejavu Sans Mono" font-size="14.00">apinatomy:conveyingLyph</text>
</g>
<!-- naacar_dc_sn_aorta_12_lnk_1 -->
<g id="node28" class="node">
<title>naacar_dc_sn_aorta_12_lnk_1</title>
<path fill="none" stroke="black" d="M2890.5,-277.5C2890.5,-277.5 3114.5,-277.5 3114.5,-277.5 3120.5,-277.5 3126.5,-283.5 3126.5,-289.5 3126.5,-289.5 3126.5,-303.5 3126.5,-303.5 3126.5,-309.5 3120.5,-315.5 3114.5,-315.5 3114.5,-315.5 2890.5,-315.5 2890.5,-315.5 2884.5,-315.5 2878.5,-309.5 2878.5,-303.5 2878.5,-303.5 2878.5,-289.5 2878.5,-289.5 2878.5,-283.5 2884.5,-277.5 2890.5,-277.5"/>
<text text-anchor="middle" x="3002.5" y="-300.3" font-family="Dejavu Sans Mono" font-size="14.00">MISSING LABEL</text>
<text text-anchor="middle" x="3002.5" y="-285.3" font-family="Dejavu Sans Mono" font-size="14.00">(aacar:dc&#45;sn&#45;aorta_12_lnk_1)</text>
</g>
<!-- naacar_dc_sn_icg_12_lnk_1&#45;&gt;naacar_dc_sn_aorta_12_lnk_1 -->
<g id="edge18" class="edge">
<title>naacar_dc_sn_icg_12_lnk_1&#45;&gt;naacar_dc_sn_aorta_12_lnk_1</title>
<path fill="none" stroke="black" d="M2443.03,-404.44C2468.24,-394.63 2500.39,-383.33 2530,-376.5 2638.09,-351.57 2668.69,-367.32 2778,-348.5 2825.25,-340.36 2877.47,-328.39 2919.55,-317.97"/>
<polygon fill="black" stroke="black" points="2920.6,-321.32 2929.46,-315.5 2918.91,-314.53 2920.6,-321.32"/>
<text text-anchor="middle" x="2654" y="-380.3" font-family="Dejavu Sans Mono" font-size="14.00">apinatomy:nextChainStartLevels</text>
</g>
<!-- naacar_dc_sn_pulart_12_lnk_1 -->
<g id="node30" class="node">
<title>naacar_dc_sn_pulart_12_lnk_1</title>
<path fill="none" stroke="black" d="M2886.5,-147.5C2886.5,-147.5 3118.5,-147.5 3118.5,-147.5 3124.5,-147.5 3130.5,-153.5 3130.5,-159.5 3130.5,-159.5 3130.5,-173.5 3130.5,-173.5 3130.5,-179.5 3124.5,-185.5 3118.5,-185.5 3118.5,-185.5 2886.5,-185.5 2886.5,-185.5 2880.5,-185.5 2874.5,-179.5 2874.5,-173.5 2874.5,-173.5 2874.5,-159.5 2874.5,-159.5 2874.5,-153.5 2880.5,-147.5 2886.5,-147.5"/>
<text text-anchor="middle" x="3002.5" y="-170.3" font-family="Dejavu Sans Mono" font-size="14.00">MISSING LABEL</text>
<text text-anchor="middle" x="3002.5" y="-155.3" font-family="Dejavu Sans Mono" font-size="14.00">(aacar:dc&#45;sn&#45;pulart_12_lnk_1)</text>
</g>
<!-- naacar_dc_sn_icg_12_lnk_1&#45;&gt;naacar_dc_sn_pulart_12_lnk_1 -->
<g id="edge14" class="edge">
<title>naacar_dc_sn_icg_12_lnk_1&#45;&gt;naacar_dc_sn_pulart_12_lnk_1</title>
<path fill="none" stroke="black" d="M2417.09,-404.44C2441.36,-382.14 2485.04,-346.15 2530,-329.5 2581.9,-310.27 2737.58,-344.31 2778,-306.5 2814.82,-272.06 2759.93,-229.72 2796,-194.5 2814.54,-176.4 2838.89,-166.26 2864.32,-161.04"/>
<polygon fill="black" stroke="black" points="2865.27,-164.43 2874.49,-159.22 2864.03,-157.54 2865.27,-164.43"/>
<text text-anchor="middle" x="2654" y="-333.3" font-family="Dejavu Sans Mono" font-size="14.00">apinatomy:nextChainStartLevels</text>
</g>
<!-- nUBERON_0001990 -->
<g id="node5" class="node">
<title>nUBERON_0001990</title>
<path fill="none" stroke="black" d="M3587,-0.5C3587,-0.5 3778,-0.5 3778,-0.5 3784,-0.5 3790,-6.5 3790,-12.5 3790,-12.5 3790,-26.5 3790,-26.5 3790,-32.5 3784,-38.5 3778,-38.5 3778,-38.5 3587,-38.5 3587,-38.5 3581,-38.5 3575,-32.5 3575,-26.5 3575,-26.5 3575,-12.5 3575,-12.5 3575,-6.5 3581,-0.5 3587,-0.5"/>
<text text-anchor="middle" x="3682.5" y="-23.3" font-family="Dejavu Sans Mono" font-size="14.00">middle cervical ganglion</text>
<text text-anchor="middle" x="3682.5" y="-8.3" font-family="Dejavu Sans Mono" font-size="14.00">(UBERON:0001990)</text>
</g>
<!-- naacar_sn_icg_12 -->
<g id="node6" class="node">
<title>naacar_sn_icg_12</title>
<path fill="none" stroke="black" d="M812,-428.5C812,-428.5 1382,-428.5 1382,-428.5 1388,-428.5 1394,-434.5 1394,-440.5 1394,-440.5 1394,-454.5 1394,-454.5 1394,-460.5 1388,-466.5 1382,-466.5 1382,-466.5 812,-466.5 812,-466.5 806,-466.5 800,-460.5 800,-454.5 800,-454.5 800,-440.5 800,-440.5 800,-434.5 806,-428.5 812,-428.5"/>
<text text-anchor="middle" x="1097" y="-451.3" font-family="Dejavu Sans Mono" font-size="14.00">Soma of sensory neuron in inferior cervical ganglion_Neuron 12 (aacar)</text>
<text text-anchor="middle" x="1097" y="-436.3" font-family="Dejavu Sans Mono" font-size="14.00">(aacar:sn&#45;icg_12)</text>
</g>
<!-- naacar_sn_icg_12&#45;&gt;naacar_A61 -->
<g id="edge16" class="edge">
<title>naacar_sn_icg_12&#45;&gt;naacar_A61</title>
<path fill="none" stroke="black" d="M1142.24,-466.64C1236.47,-505.6 1464.75,-590.5 1665,-590.5 1665,-590.5 1665,-590.5 2397.5,-590.5 2548.96,-590.5 2721.79,-590.5 2843.65,-590.5"/>
<polygon fill="black" stroke="black" points="2843.81,-594 2853.81,-590.5 2843.81,-587 2843.81,-594"/>
<text text-anchor="middle" x="2013" y="-594.3" font-family="Dejavu Sans Mono" font-size="14.00">apinatomy:internalIn</text>
</g>
<!-- naacar_lnk_sn_icg_12 -->
<g id="node9" class="node">
<title>naacar_lnk_sn_icg_12</title>
<path fill="none" stroke="black" d="M1583,-428.5C1583,-428.5 1749,-428.5 1749,-428.5 1755,-428.5 1761,-434.5 1761,-440.5 1761,-440.5 1761,-454.5 1761,-454.5 1761,-460.5 1755,-466.5 1749,-466.5 1749,-466.5 1583,-466.5 1583,-466.5 1577,-466.5 1571,-460.5 1571,-454.5 1571,-454.5 1571,-440.5 1571,-440.5 1571,-434.5 1577,-428.5 1583,-428.5"/>
<text text-anchor="middle" x="1666" y="-451.3" font-family="Dejavu Sans Mono" font-size="14.00">MISSING LABEL</text>
<text text-anchor="middle" x="1666" y="-436.3" font-family="Dejavu Sans Mono" font-size="14.00">(aacar:lnk&#45;sn&#45;icg_12)</text>
</g>
<!-- naacar_sn_icg_12&#45;&gt;naacar_lnk_sn_icg_12 -->
<g id="edge24" class="edge">
<title>naacar_sn_icg_12&#45;&gt;naacar_lnk_sn_icg_12</title>
<path fill="none" stroke="black" d="M1394.37,-447.5C1454.09,-447.5 1513.06,-447.5 1560.62,-447.5"/>
<polygon fill="black" stroke="black" points="1560.9,-451 1570.9,-447.5 1560.9,-444 1560.9,-451"/>
<text text-anchor="middle" x="1482.5" y="-451.3" font-family="Dejavu Sans Mono" font-size="14.00">apinatomy:conveys</text>
</g>
<!-- nelements_Reference -->
<g id="node7" class="node">
<title>nelements_Reference</title>
<path fill="none" stroke="black" d="M1587,-42.5C1587,-42.5 1745,-42.5 1745,-42.5 1751,-42.5 1757,-48.5 1757,-54.5 1757,-54.5 1757,-68.5 1757,-68.5 1757,-74.5 1751,-80.5 1745,-80.5 1745,-80.5 1587,-80.5 1587,-80.5 1581,-80.5 1575,-74.5 1575,-68.5 1575,-68.5 1575,-54.5 1575,-54.5 1575,-48.5 1581,-42.5 1587,-42.5"/>
<text text-anchor="middle" x="1666" y="-65.3" font-family="Dejavu Sans Mono" font-size="14.00">MISSING LABEL</text>
<text text-anchor="middle" x="1666" y="-50.3" font-family="Dejavu Sans Mono" font-size="14.00">(elements:Reference)</text>
</g>
<!-- nSAO_420754792 -->
<g id="node32" class="node">
<title>nSAO_420754792</title>
<path fill="none" stroke="black" d="M4176,-396.5C4176,-396.5 4375,-396.5 4375,-396.5 4381,-396.5 4387,-402.5 4387,-408.5 4387,-408.5 4387,-422.5 4387,-422.5 4387,-428.5 4381,-434.5 4375,-434.5 4375,-434.5 4176,-434.5 4176,-434.5 4170,-434.5 4164,-428.5 4164,-422.5 4164,-422.5 4164,-408.5 4164,-408.5 4164,-402.5 4170,-396.5 4176,-396.5"/>
<text text-anchor="middle" x="4275.5" y="-419.3" font-family="Dejavu Sans Mono" font-size="14.00">Regional Part Of Dendrite</text>
<text text-anchor="middle" x="4275.5" y="-404.3" font-family="Dejavu Sans Mono" font-size="14.00">(SAO:420754792)</text>
</g>
<!-- naacar_dc_sn_icg_12_lyph_1&#45;&gt;nSAO_420754792 -->
<g id="edge8" class="edge">
<title>naacar_dc_sn_icg_12_lyph_1&#45;&gt;nSAO_420754792</title>
<path fill="none" stroke="black" d="M3160.56,-552.53C3340.04,-570.38 3641.91,-588.49 3897,-545.5 4018.67,-525 4153.66,-470.15 4224.61,-438.64"/>
<polygon fill="black" stroke="black" points="4226.08,-441.82 4233.78,-434.54 4223.22,-435.43 4226.08,-441.82"/>
<text text-anchor="middle" x="3682.5" y="-575.3" font-family="Dejavu Sans Mono" font-size="14.00">apinatomy:inheritedExternal</text>
</g>
<!-- napinatomy_TUBE -->
<g id="node38" class="node">
<title>napinatomy_TUBE</title>
<path fill="none" stroke="black" d="M3620,-497.5C3620,-497.5 3745,-497.5 3745,-497.5 3751,-497.5 3757,-503.5 3757,-509.5 3757,-509.5 3757,-523.5 3757,-523.5 3757,-529.5 3751,-535.5 3745,-535.5 3745,-535.5 3620,-535.5 3620,-535.5 3614,-535.5 3608,-529.5 3608,-523.5 3608,-523.5 3608,-509.5 3608,-509.5 3608,-503.5 3614,-497.5 3620,-497.5"/>
<text text-anchor="middle" x="3682.5" y="-520.3" font-family="Dejavu Sans Mono" font-size="14.00">MISSING LABEL</text>
<text text-anchor="middle" x="3682.5" y="-505.3" font-family="Dejavu Sans Mono" font-size="14.00">(apinatomy:TUBE)</text>
</g>
<!-- naacar_dc_sn_icg_12_lyph_1&#45;&gt;napinatomy_TUBE -->
<g id="edge45" class="edge">
<title>naacar_dc_sn_icg_12_lyph_1&#45;&gt;napinatomy_TUBE</title>
<path fill="none" stroke="black" d="M3209.22,-528.34C3339.5,-525.08 3501,-521.03 3597.41,-518.61"/>
<polygon fill="black" stroke="black" points="3597.78,-522.1 3607.69,-518.35 3597.6,-515.1 3597.78,-522.1"/>
<text text-anchor="middle" x="3338.5" y="-531.3" font-family="Dejavu Sans Mono" font-size="14.00">apinatomy:topology</text>
</g>
<!-- naacar_ns186 -->
<g id="node26" class="node">
<title>naacar_ns186</title>
<path fill="none" stroke="black" d="M1963,-461.5C1963,-461.5 2063,-461.5 2063,-461.5 2069,-461.5 2075,-467.5 2075,-473.5 2075,-473.5 2075,-487.5 2075,-487.5 2075,-493.5 2069,-499.5 2063,-499.5 2063,-499.5 1963,-499.5 1963,-499.5 1957,-499.5 1951,-493.5 1951,-487.5 1951,-487.5 1951,-473.5 1951,-473.5 1951,-467.5 1957,-461.5 1963,-461.5"/>
<text text-anchor="middle" x="2013" y="-484.3" font-family="Dejavu Sans Mono" font-size="14.00">MISSING LABEL</text>
<text text-anchor="middle" x="2013" y="-469.3" font-family="Dejavu Sans Mono" font-size="14.00">(aacar:ns186)</text>
</g>
<!-- naacar_lnk_sn_icg_12&#45;&gt;naacar_ns186 -->
<g id="edge37" class="edge">
<title>naacar_lnk_sn_icg_12&#45;&gt;naacar_ns186</title>
<path fill="none" stroke="black" d="M1761.27,-456.52C1817.95,-461.94 1888.91,-468.73 1940.86,-473.7"/>
<polygon fill="black" stroke="black" points="1940.7,-477.2 1950.99,-474.66 1941.37,-470.23 1940.7,-477.2"/>
<text text-anchor="middle" x="1845.5" y="-474.3" font-family="Dejavu Sans Mono" font-size="14.00">apinatomy:target</text>
</g>
<!-- naacar_ns185 -->
<g id="node31" class="node">
<title>naacar_ns185</title>
<path fill="none" stroke="black" d="M1963,-404.5C1963,-404.5 2063,-404.5 2063,-404.5 2069,-404.5 2075,-410.5 2075,-416.5 2075,-416.5 2075,-430.5 2075,-430.5 2075,-436.5 2069,-442.5 2063,-442.5 2063,-442.5 1963,-442.5 1963,-442.5 1957,-442.5 1951,-436.5 1951,-430.5 1951,-430.5 1951,-416.5 1951,-416.5 1951,-410.5 1957,-404.5 1963,-404.5"/>
<text text-anchor="middle" x="2013" y="-427.3" font-family="Dejavu Sans Mono" font-size="14.00">MISSING LABEL</text>
<text text-anchor="middle" x="2013" y="-412.3" font-family="Dejavu Sans Mono" font-size="14.00">(aacar:ns185)</text>
</g>
<!-- naacar_lnk_sn_icg_12&#45;&gt;naacar_ns185 -->
<g id="edge28" class="edge">
<title>naacar_lnk_sn_icg_12&#45;&gt;naacar_ns185</title>
<path fill="none" stroke="black" d="M1761.06,-436.11C1767.13,-435.52 1773.15,-434.98 1779,-434.5 1833.04,-430.09 1894.28,-427.29 1940.41,-425.61"/>
<polygon fill="black" stroke="black" points="1940.73,-429.1 1950.6,-425.25 1940.49,-422.11 1940.73,-429.1"/>
<text text-anchor="middle" x="1845.5" y="-438.3" font-family="Dejavu Sans Mono" font-size="14.00">apinatomy:source</text>
</g>
<!-- naacar_ac_sn_mcg_12_lnk_1 -->
<g id="node10" class="node">
<title>naacar_ac_sn_mcg_12_lnk_1</title>
<path fill="none" stroke="black" d="M2293,-175.5C2293,-175.5 2500,-175.5 2500,-175.5 2506,-175.5 2512,-181.5 2512,-187.5 2512,-187.5 2512,-201.5 2512,-201.5 2512,-207.5 2506,-213.5 2500,-213.5 2500,-213.5 2293,-213.5 2293,-213.5 2287,-213.5 2281,-207.5 2281,-201.5 2281,-201.5 2281,-187.5 2281,-187.5 2281,-181.5 2287,-175.5 2293,-175.5"/>
<text text-anchor="middle" x="2396.5" y="-198.3" font-family="Dejavu Sans Mono" font-size="14.00">MISSING LABEL</text>
<text text-anchor="middle" x="2396.5" y="-183.3" font-family="Dejavu Sans Mono" font-size="14.00">(aacar:ac&#45;sn&#45;mcg_12_lnk_1)</text>
</g>
<!-- naacar_ac_sn_mcg_12_lyph_1 -->
<g id="node25" class="node">
<title>naacar_ac_sn_mcg_12_lyph_1</title>
<path fill="none" stroke="black" d="M2895,-204.5C2895,-204.5 3110,-204.5 3110,-204.5 3116,-204.5 3122,-210.5 3122,-216.5 3122,-216.5 3122,-230.5 3122,-230.5 3122,-236.5 3116,-242.5 3110,-242.5 3110,-242.5 2895,-242.5 2895,-242.5 2889,-242.5 2883,-236.5 2883,-230.5 2883,-230.5 2883,-216.5 2883,-216.5 2883,-210.5 2889,-204.5 2895,-204.5"/>
<text text-anchor="middle" x="3002.5" y="-227.3" font-family="Dejavu Sans Mono" font-size="14.00">Axon terminal (aacar)</text>
<text text-anchor="middle" x="3002.5" y="-212.3" font-family="Dejavu Sans Mono" font-size="14.00">(aacar:ac&#45;sn&#45;mcg_12_lyph_1)</text>
</g>
<!-- naacar_ac_sn_mcg_12_lnk_1&#45;&gt;naacar_ac_sn_mcg_12_lyph_1 -->
<g id="edge25" class="edge">
<title>naacar_ac_sn_mcg_12_lnk_1&#45;&gt;naacar_ac_sn_mcg_12_lyph_1</title>
<path fill="none" stroke="black" d="M2512.17,-200.01C2615.01,-204.94 2765.73,-212.18 2872.68,-217.31"/>
<polygon fill="black" stroke="black" points="2872.73,-220.82 2882.89,-217.81 2873.07,-213.83 2872.73,-220.82"/>
<text text-anchor="middle" x="2654" y="-216.3" font-family="Dejavu Sans Mono" font-size="14.00">apinatomy:conveyingLyph</text>
</g>
<!-- naacar_A62 -->
<g id="node29" class="node">
<title>naacar_A62</title>
<path fill="none" stroke="black" d="M2874,-90.5C2874,-90.5 3131,-90.5 3131,-90.5 3137,-90.5 3143,-96.5 3143,-102.5 3143,-102.5 3143,-116.5 3143,-116.5 3143,-122.5 3137,-128.5 3131,-128.5 3131,-128.5 2874,-128.5 2874,-128.5 2868,-128.5 2862,-122.5 2862,-116.5 2862,-116.5 2862,-102.5 2862,-102.5 2862,-96.5 2868,-90.5 2874,-90.5"/>
<text text-anchor="middle" x="3002.5" y="-113.3" font-family="Dejavu Sans Mono" font-size="14.00">Middle cervical ganglion (aacar)</text>
<text text-anchor="middle" x="3002.5" y="-98.3" font-family="Dejavu Sans Mono" font-size="14.00">(aacar:A62)</text>
</g>
<!-- naacar_ac_sn_mcg_12_lnk_1&#45;&gt;naacar_A62 -->
<g id="edge48" class="edge">
<title>naacar_ac_sn_mcg_12_lnk_1&#45;&gt;naacar_A62</title>
<path fill="none" stroke="black" d="M2437.71,-175.44C2463.49,-164.13 2498.01,-150.64 2530,-143.5 2560.88,-136.6 2725.62,-125.68 2851.77,-118.08"/>
<polygon fill="black" stroke="black" points="2852.16,-121.57 2861.93,-117.47 2851.74,-114.58 2852.16,-121.57"/>
<text text-anchor="middle" x="2654" y="-147.3" font-family="Dejavu Sans Mono" font-size="14.00">apinatomy:endsIn</text>
</g>
<!-- naacar_dc_sn_mcg_12_lnk_1 -->
<g id="node11" class="node">
<title>naacar_dc_sn_mcg_12_lnk_1</title>
<path fill="none" stroke="black" d="M2293,-237.5C2293,-237.5 2500,-237.5 2500,-237.5 2506,-237.5 2512,-243.5 2512,-249.5 2512,-249.5 2512,-263.5 2512,-263.5 2512,-269.5 2506,-275.5 2500,-275.5 2500,-275.5 2293,-275.5 2293,-275.5 2287,-275.5 2281,-269.5 2281,-263.5 2281,-263.5 2281,-249.5 2281,-249.5 2281,-243.5 2287,-237.5 2293,-237.5"/>
<text text-anchor="middle" x="2396.5" y="-260.3" font-family="Dejavu Sans Mono" font-size="14.00">MISSING LABEL</text>
<text text-anchor="middle" x="2396.5" y="-245.3" font-family="Dejavu Sans Mono" font-size="14.00">(aacar:dc&#45;sn&#45;mcg_12_lnk_1)</text>
</g>
<!-- naacar_dc_sn_mcg_12_lyph_1 -->
<g id="node20" class="node">
<title>naacar_dc_sn_mcg_12_lyph_1</title>
<path fill="none" stroke="black" d="M2808,-445.5C2808,-445.5 3197,-445.5 3197,-445.5 3203,-445.5 3209,-451.5 3209,-457.5 3209,-457.5 3209,-471.5 3209,-471.5 3209,-477.5 3203,-483.5 3197,-483.5 3197,-483.5 2808,-483.5 2808,-483.5 2802,-483.5 2796,-477.5 2796,-471.5 2796,-471.5 2796,-457.5 2796,-457.5 2796,-451.5 2802,-445.5 2808,-445.5"/>
<text text-anchor="middle" x="3002.5" y="-468.3" font-family="Dejavu Sans Mono" font-size="14.00">Axon sensory segment or dendrite segment (aacar)</text>
<text text-anchor="middle" x="3002.5" y="-453.3" font-family="Dejavu Sans Mono" font-size="14.00">(aacar:dc&#45;sn&#45;mcg_12_lyph_1)</text>
</g>
<!-- naacar_dc_sn_mcg_12_lnk_1&#45;&gt;naacar_dc_sn_mcg_12_lyph_1 -->
<g id="edge41" class="edge">
<title>naacar_dc_sn_mcg_12_lnk_1&#45;&gt;naacar_dc_sn_mcg_12_lyph_1</title>
<path fill="none" stroke="black" d="M2414.66,-275.64C2437.83,-301.86 2479.93,-350.79 2512,-395.5 2520.84,-407.83 2517.03,-416.62 2530,-424.5 2577.24,-453.2 2722.93,-438.8 2778,-443.5 2782.2,-443.86 2786.45,-444.22 2790.74,-444.6"/>
<polygon fill="black" stroke="black" points="2790.51,-448.09 2800.78,-445.47 2791.12,-441.12 2790.51,-448.09"/>
<text text-anchor="middle" x="2654" y="-447.3" font-family="Dejavu Sans Mono" font-size="14.00">apinatomy:conveyingLyph</text>
</g>
<!-- naacar_dc_sn_mcg_12_lnk_1&#45;&gt;naacar_dc_sn_aorta_12_lnk_1 -->
<g id="edge4" class="edge">
<title>naacar_dc_sn_mcg_12_lnk_1&#45;&gt;naacar_dc_sn_aorta_12_lnk_1</title>
<path fill="none" stroke="black" d="M2512,-270.83C2518.08,-271.43 2524.11,-272 2530,-272.5 2643.86,-282.26 2773.54,-288.51 2868.05,-292.17"/>
<polygon fill="black" stroke="black" points="2868.11,-295.68 2878.24,-292.56 2868.38,-288.68 2868.11,-295.68"/>
<text text-anchor="middle" x="2654" y="-291.3" font-family="Dejavu Sans Mono" font-size="14.00">apinatomy:nextChainStartLevels</text>
</g>
<!-- naacar_dc_sn_mcg_12_lnk_1&#45;&gt;naacar_A62 -->
<g id="edge39" class="edge">
<title>naacar_dc_sn_mcg_12_lnk_1&#45;&gt;naacar_A62</title>
<path fill="none" stroke="black" d="M2488.82,-237.45C2497.19,-233.39 2505.1,-228.47 2512,-222.5 2526.43,-210.01 2514.46,-194.58 2530,-183.5 2620.2,-119.18 2679.81,-209.79 2778,-158.5 2788.9,-152.81 2785.21,-143.38 2796,-137.5 2813.24,-128.11 2832.47,-121.44 2852.04,-116.78"/>
<polygon fill="black" stroke="black" points="2852.98,-120.15 2861.99,-114.58 2851.47,-113.32 2852.98,-120.15"/>
<text text-anchor="middle" x="2654" y="-187.3" font-family="Dejavu Sans Mono" font-size="14.00">apinatomy:endsIn</text>
</g>
<!-- naacar_dc_sn_mcg_12_lnk_1&#45;&gt;naacar_dc_sn_pulart_12_lnk_1 -->
<g id="edge27" class="edge">
<title>naacar_dc_sn_mcg_12_lnk_1&#45;&gt;naacar_dc_sn_pulart_12_lnk_1</title>
<path fill="none" stroke="black" d="M2512.25,-251.75C2620.21,-246.85 2766.98,-238.91 2778,-231.5 2793.18,-221.3 2781.19,-205.23 2796,-194.5 2815.93,-180.07 2839.86,-171.35 2864.24,-166.32"/>
<polygon fill="black" stroke="black" points="2865.14,-169.71 2874.33,-164.44 2863.86,-162.83 2865.14,-169.71"/>
<text text-anchor="middle" x="2654" y="-255.3" font-family="Dejavu Sans Mono" font-size="14.00">apinatomy:nextChainStartLevels</text>
</g>
<!-- nUBERON_0002012 -->
<g id="node12" class="node">
<title>nUBERON_0002012</title>
<path fill="none" stroke="black" d="M4633,-23.5C4633,-23.5 4758,-23.5 4758,-23.5 4764,-23.5 4770,-29.5 4770,-35.5 4770,-35.5 4770,-49.5 4770,-49.5 4770,-55.5 4764,-61.5 4758,-61.5 4758,-61.5 4633,-61.5 4633,-61.5 4627,-61.5 4621,-55.5 4621,-49.5 4621,-49.5 4621,-35.5 4621,-35.5 4621,-29.5 4627,-23.5 4633,-23.5"/>
<text text-anchor="middle" x="4695.5" y="-46.3" font-family="Dejavu Sans Mono" font-size="14.00">pulmonary artery</text>
<text text-anchor="middle" x="4695.5" y="-31.3" font-family="Dejavu Sans Mono" font-size="14.00">(UBERON:0002012)</text>
</g>
<!-- nUBERON_0007240 -->
<g id="node13" class="node">
<title>nUBERON_0007240</title>
<path fill="none" stroke="black" d="M4168,-80.5C4168,-80.5 4383,-80.5 4383,-80.5 4389,-80.5 4395,-86.5 4395,-92.5 4395,-92.5 4395,-106.5 4395,-106.5 4395,-112.5 4389,-118.5 4383,-118.5 4383,-118.5 4168,-118.5 4168,-118.5 4162,-118.5 4156,-112.5 4156,-106.5 4156,-106.5 4156,-92.5 4156,-92.5 4156,-86.5 4162,-80.5 4168,-80.5"/>
<text text-anchor="middle" x="4275.5" y="-103.3" font-family="Dejavu Sans Mono" font-size="14.00">tunica adventitia of artery</text>
<text text-anchor="middle" x="4275.5" y="-88.3" font-family="Dejavu Sans Mono" font-size="14.00">(UBERON:0007240)</text>
</g>
<!-- naacar_ns180 -->
<g id="node14" class="node">
<title>naacar_ns180</title>
<path fill="none" stroke="black" d="M1963,-235.5C1963,-235.5 2063,-235.5 2063,-235.5 2069,-235.5 2075,-241.5 2075,-247.5 2075,-247.5 2075,-261.5 2075,-261.5 2075,-267.5 2069,-273.5 2063,-273.5 2063,-273.5 1963,-273.5 1963,-273.5 1957,-273.5 1951,-267.5 1951,-261.5 1951,-261.5 1951,-247.5 1951,-247.5 1951,-241.5 1957,-235.5 1963,-235.5"/>
<text text-anchor="middle" x="2013" y="-258.3" font-family="Dejavu Sans Mono" font-size="14.00">MISSING LABEL</text>
<text text-anchor="middle" x="2013" y="-243.3" font-family="Dejavu Sans Mono" font-size="14.00">(aacar:ns180)</text>
</g>
<!-- naacar_ns180&#45;&gt;naacar_dc_sn_mcg_12_lnk_1 -->
<g id="edge40" class="edge">
<title>naacar_ns180&#45;&gt;naacar_dc_sn_mcg_12_lnk_1</title>
<path fill="none" stroke="black" d="M2075.29,-254.82C2127.78,-255.1 2205.01,-255.5 2270.48,-255.84"/>
<polygon fill="black" stroke="black" points="2270.86,-259.35 2280.88,-255.9 2270.9,-252.35 2270.86,-259.35"/>
<text text-anchor="middle" x="2188.5" y="-259.3" font-family="Dejavu Sans Mono" font-size="14.00">apinatomy:sourceOf</text>
</g>
<!-- nSAO_280355188 -->
<g id="node15" class="node">
<title>nSAO_280355188</title>
<path fill="none" stroke="black" d="M3599.5,-337.5C3599.5,-337.5 3765.5,-337.5 3765.5,-337.5 3771.5,-337.5 3777.5,-343.5 3777.5,-349.5 3777.5,-349.5 3777.5,-363.5 3777.5,-363.5 3777.5,-369.5 3771.5,-375.5 3765.5,-375.5 3765.5,-375.5 3599.5,-375.5 3599.5,-375.5 3593.5,-375.5 3587.5,-369.5 3587.5,-363.5 3587.5,-363.5 3587.5,-349.5 3587.5,-349.5 3587.5,-343.5 3593.5,-337.5 3599.5,-337.5"/>
<text text-anchor="middle" x="3682.5" y="-360.3" font-family="Dejavu Sans Mono" font-size="14.00">Regional Part Of Axon</text>
<text text-anchor="middle" x="3682.5" y="-345.3" font-family="Dejavu Sans Mono" font-size="14.00">(SAO:280355188)</text>
</g>
<!-- naacar_ac_sn_icg_12_lnk_1 -->
<g id="node16" class="node">
<title>naacar_ac_sn_icg_12_lnk_1</title>
<path fill="none" stroke="black" d="M2293,-461.5C2293,-461.5 2500,-461.5 2500,-461.5 2506,-461.5 2512,-467.5 2512,-473.5 2512,-473.5 2512,-487.5 2512,-487.5 2512,-493.5 2506,-499.5 2500,-499.5 2500,-499.5 2293,-499.5 2293,-499.5 2287,-499.5 2281,-493.5 2281,-487.5 2281,-487.5 2281,-473.5 2281,-473.5 2281,-467.5 2287,-461.5 2293,-461.5"/>
<text text-anchor="middle" x="2396.5" y="-484.3" font-family="Dejavu Sans Mono" font-size="14.00">MISSING LABEL</text>
<text text-anchor="middle" x="2396.5" y="-469.3" font-family="Dejavu Sans Mono" font-size="14.00">(aacar:ac&#45;sn&#45;icg_12_lnk_1)</text>
</g>
<!-- naacar_ac_sn_icg_12_lnk_1&#45;&gt;naacar_A61 -->
<g id="edge51" class="edge">
<title>naacar_ac_sn_icg_12_lnk_1&#45;&gt;naacar_A61</title>
<path fill="none" stroke="black" d="M2432.66,-499.6C2458.74,-512.84 2495.6,-529.62 2530,-538.5 2637.18,-566.16 2667.98,-549.26 2778,-561.5 2801.67,-564.13 2826.72,-567.15 2851.15,-570.23"/>
<polygon fill="black" stroke="black" points="2850.85,-573.72 2861.21,-571.5 2851.73,-566.77 2850.85,-573.72"/>
<text text-anchor="middle" x="2654" y="-565.3" font-family="Dejavu Sans Mono" font-size="14.00">apinatomy:endsIn</text>
</g>
<!-- naacar_ac_sn_icg_12_lyph_1 -->
<g id="node17" class="node">
<title>naacar_ac_sn_icg_12_lyph_1</title>
<path fill="none" stroke="black" d="M2895,-388.5C2895,-388.5 3110,-388.5 3110,-388.5 3116,-388.5 3122,-394.5 3122,-400.5 3122,-400.5 3122,-414.5 3122,-414.5 3122,-420.5 3116,-426.5 3110,-426.5 3110,-426.5 2895,-426.5 2895,-426.5 2889,-426.5 2883,-420.5 2883,-414.5 2883,-414.5 2883,-400.5 2883,-400.5 2883,-394.5 2889,-388.5 2895,-388.5"/>
<text text-anchor="middle" x="3002.5" y="-411.3" font-family="Dejavu Sans Mono" font-size="14.00">Axon terminal (aacar)</text>
<text text-anchor="middle" x="3002.5" y="-396.3" font-family="Dejavu Sans Mono" font-size="14.00">(aacar:ac&#45;sn&#45;icg_12_lyph_1)</text>
</g>
<!-- naacar_ac_sn_icg_12_lnk_1&#45;&gt;naacar_ac_sn_icg_12_lyph_1 -->
<g id="edge10" class="edge">
<title>naacar_ac_sn_icg_12_lnk_1&#45;&gt;naacar_ac_sn_icg_12_lyph_1</title>
<path fill="none" stroke="black" d="M2499.44,-461.37C2503.89,-458.76 2508.11,-455.82 2512,-452.5 2527.75,-439.04 2512.78,-421.01 2530,-409.5 2557.86,-390.88 2742.96,-395.26 2872.76,-400.83"/>
<polygon fill="black" stroke="black" points="2872.65,-404.33 2882.79,-401.27 2872.95,-397.34 2872.65,-404.33"/>
<text text-anchor="middle" x="2654" y="-413.3" font-family="Dejavu Sans Mono" font-size="14.00">apinatomy:conveyingLyph</text>
</g>
<!-- naacar_ac_sn_icg_12_lyph_1&#45;&gt;napinatomy_BAG -->
<g id="edge44" class="edge">
<title>naacar_ac_sn_icg_12_lyph_1&#45;&gt;napinatomy_BAG</title>
<path fill="none" stroke="black" d="M3122.23,-408.76C3403.71,-411.44 4091.51,-416.02 4138,-397.5 4164.31,-387.02 4218.42,-331.54 4250.04,-297.47"/>
<polygon fill="black" stroke="black" points="4252.98,-299.44 4257.18,-289.72 4247.83,-294.7 4252.98,-299.44"/>
<text text-anchor="middle" x="3682.5" y="-414.3" font-family="Dejavu Sans Mono" font-size="14.00">apinatomy:topology</text>
</g>
<!-- naacar_ac_sn_icg_12_lyph_1&#45;&gt;nSAO_280355188 -->
<g id="edge36" class="edge">
<title>naacar_ac_sn_icg_12_lyph_1&#45;&gt;nSAO_280355188</title>
<path fill="none" stroke="black" d="M3122,-393.71C3155.88,-390.06 3192.87,-386.34 3227,-383.5 3346.96,-373.5 3485.04,-365.84 3577.23,-361.28"/>
<polygon fill="black" stroke="black" points="3577.58,-364.77 3587.4,-360.78 3577.24,-357.78 3577.58,-364.77"/>
<text text-anchor="middle" x="3338.5" y="-387.3" font-family="Dejavu Sans Mono" font-size="14.00">apinatomy:inheritedExternal</text>
</g>
<!-- naacar_ref_mat_AM_54_A79_3 -->
<g id="node18" class="node">
<title>naacar_ref_mat_AM_54_A79_3</title>
<path fill="none" stroke="black" d="M3575,-114.5C3575,-114.5 3790,-114.5 3790,-114.5 3796,-114.5 3802,-120.5 3802,-126.5 3802,-126.5 3802,-140.5 3802,-140.5 3802,-146.5 3796,-152.5 3790,-152.5 3790,-152.5 3575,-152.5 3575,-152.5 3569,-152.5 3563,-146.5 3563,-140.5 3563,-140.5 3563,-126.5 3563,-126.5 3563,-120.5 3569,-114.5 3575,-114.5"/>
<text text-anchor="middle" x="3682.5" y="-137.3" font-family="Dejavu Sans Mono" font-size="14.00">Arterial Adventitia</text>
<text text-anchor="middle" x="3682.5" y="-122.3" font-family="Dejavu Sans Mono" font-size="14.00">(aacar:ref_mat_AM_54_A79_3)</text>
</g>
<!-- naacar_ref_mat_AM_54_A79_3&#45;&gt;nUBERON_0007240 -->
<g id="edge22" class="edge">
<title>naacar_ref_mat_AM_54_A79_3&#45;&gt;nUBERON_0007240</title>
<path fill="none" stroke="black" d="M3802.03,-126.68C3901.58,-120.95 4043.54,-112.79 4145.83,-106.9"/>
<polygon fill="black" stroke="black" points="4146.13,-110.39 4155.91,-106.32 4145.73,-103.4 4146.13,-110.39"/>
<text text-anchor="middle" x="4026.5" y="-124.3" font-family="Dejavu Sans Mono" font-size="14.00">apinatomy:inheritedExternal</text>
</g>
<!-- naacar_A79 -->
<g id="node34" class="node">
<title>naacar_A79</title>
<path fill="none" stroke="black" d="M4225.5,-137.5C4225.5,-137.5 4325.5,-137.5 4325.5,-137.5 4331.5,-137.5 4337.5,-143.5 4337.5,-149.5 4337.5,-149.5 4337.5,-163.5 4337.5,-163.5 4337.5,-169.5 4331.5,-175.5 4325.5,-175.5 4325.5,-175.5 4225.5,-175.5 4225.5,-175.5 4219.5,-175.5 4213.5,-169.5 4213.5,-163.5 4213.5,-163.5 4213.5,-149.5 4213.5,-149.5 4213.5,-143.5 4219.5,-137.5 4225.5,-137.5"/>
<text text-anchor="middle" x="4275.5" y="-160.3" font-family="Dejavu Sans Mono" font-size="14.00">Aorta (aacar)</text>
<text text-anchor="middle" x="4275.5" y="-145.3" font-family="Dejavu Sans Mono" font-size="14.00">(aacar:A79)</text>
</g>
<!-- naacar_ref_mat_AM_54_A79_3&#45;&gt;naacar_A79 -->
<g id="edge32" class="edge">
<title>naacar_ref_mat_AM_54_A79_3&#45;&gt;naacar_A79</title>
<path fill="none" stroke="black" d="M3802.03,-138.11C3921.96,-142.78 4103.45,-149.84 4202.97,-153.72"/>
<polygon fill="black" stroke="black" points="4203.1,-157.22 4213.22,-154.12 4203.37,-150.23 4203.1,-157.22"/>
<text text-anchor="middle" x="4026.5" y="-155.3" font-family="Dejavu Sans Mono" font-size="14.00">apinatomy:layerIn</text>
</g>
<!-- naacar_dc_sn_mcg_12_lyph_1&#45;&gt;nSAO_420754792 -->
<g id="edge5" class="edge">
<title>naacar_dc_sn_mcg_12_lyph_1&#45;&gt;nSAO_420754792</title>
<path fill="none" stroke="black" d="M3209.1,-460.51C3436.48,-455.43 3813.6,-444.99 4138,-426.5 4143.13,-426.21 4148.38,-425.89 4153.67,-425.54"/>
<polygon fill="black" stroke="black" points="4154.16,-429.02 4163.9,-424.85 4153.69,-422.03 4154.16,-429.02"/>
<text text-anchor="middle" x="3682.5" y="-457.3" font-family="Dejavu Sans Mono" font-size="14.00">apinatomy:inheritedExternal</text>
</g>
<!-- naacar_dc_sn_mcg_12_lyph_1&#45;&gt;napinatomy_TUBE -->
<g id="edge20" class="edge">
<title>naacar_dc_sn_mcg_12_lyph_1&#45;&gt;napinatomy_TUBE</title>
<path fill="none" stroke="black" d="M3209.22,-480.28C3339.63,-490.28 3501.33,-502.68 3597.7,-510.07"/>
<polygon fill="black" stroke="black" points="3597.45,-513.56 3607.69,-510.84 3597.98,-506.58 3597.45,-513.56"/>
<text text-anchor="middle" x="3338.5" y="-501.3" font-family="Dejavu Sans Mono" font-size="14.00">apinatomy:topology</text>
</g>
<!-- naacar_ref_mat_AM_54_A95_3 -->
<g id="node21" class="node">
<title>naacar_ref_mat_AM_54_A95_3</title>
<path fill="none" stroke="black" d="M3575,-57.5C3575,-57.5 3790,-57.5 3790,-57.5 3796,-57.5 3802,-63.5 3802,-69.5 3802,-69.5 3802,-83.5 3802,-83.5 3802,-89.5 3796,-95.5 3790,-95.5 3790,-95.5 3575,-95.5 3575,-95.5 3569,-95.5 3563,-89.5 3563,-83.5 3563,-83.5 3563,-69.5 3563,-69.5 3563,-63.5 3569,-57.5 3575,-57.5"/>
<text text-anchor="middle" x="3682.5" y="-80.3" font-family="Dejavu Sans Mono" font-size="14.00">Arterial Adventitia</text>
<text text-anchor="middle" x="3682.5" y="-65.3" font-family="Dejavu Sans Mono" font-size="14.00">(aacar:ref_mat_AM_54_A95_3)</text>
</g>
<!-- naacar_ref_mat_AM_54_A95_3&#45;&gt;nUBERON_0007240 -->
<g id="edge43" class="edge">
<title>naacar_ref_mat_AM_54_A95_3&#45;&gt;nUBERON_0007240</title>
<path fill="none" stroke="black" d="M3802.32,-73.91C3894.12,-72.86 4024.26,-73.4 4138,-81.5 4140.56,-81.68 4143.14,-81.88 4145.74,-82.09"/>
<polygon fill="black" stroke="black" points="4145.57,-85.59 4155.84,-82.98 4146.19,-78.62 4145.57,-85.59"/>
<text text-anchor="middle" x="4026.5" y="-85.3" font-family="Dejavu Sans Mono" font-size="14.00">apinatomy:inheritedExternal</text>
</g>
<!-- naacar_A95 -->
<g id="node39" class="node">
<title>naacar_A95</title>
<path fill="none" stroke="black" d="M4180,-23.5C4180,-23.5 4371,-23.5 4371,-23.5 4377,-23.5 4383,-29.5 4383,-35.5 4383,-35.5 4383,-49.5 4383,-49.5 4383,-55.5 4377,-61.5 4371,-61.5 4371,-61.5 4180,-61.5 4180,-61.5 4174,-61.5 4168,-55.5 4168,-49.5 4168,-49.5 4168,-35.5 4168,-35.5 4168,-29.5 4174,-23.5 4180,-23.5"/>
<text text-anchor="middle" x="4275.5" y="-46.3" font-family="Dejavu Sans Mono" font-size="14.00">Pulmonary artery (aacar)</text>
<text text-anchor="middle" x="4275.5" y="-31.3" font-family="Dejavu Sans Mono" font-size="14.00">(aacar:A95)</text>
</g>
<!-- naacar_ref_mat_AM_54_A95_3&#45;&gt;naacar_A95 -->
<g id="edge49" class="edge">
<title>naacar_ref_mat_AM_54_A95_3&#45;&gt;naacar_A95</title>
<path fill="none" stroke="black" d="M3802.07,-64.5C3838.28,-61.17 3878.25,-57.83 3915,-55.5 3995.94,-50.37 4087.27,-47.1 4157.63,-45.12"/>
<polygon fill="black" stroke="black" points="4157.95,-48.61 4167.85,-44.84 4157.76,-41.62 4157.95,-48.61"/>
<text text-anchor="middle" x="4026.5" y="-59.3" font-family="Dejavu Sans Mono" font-size="14.00">apinatomy:layerIn</text>
</g>
<!-- naacar_lnk_sn_mcg_12 -->
<g id="node22" class="node">
<title>naacar_lnk_sn_mcg_12</title>
<path fill="none" stroke="black" d="M1583,-175.5C1583,-175.5 1749,-175.5 1749,-175.5 1755,-175.5 1761,-181.5 1761,-187.5 1761,-187.5 1761,-201.5 1761,-201.5 1761,-207.5 1755,-213.5 1749,-213.5 1749,-213.5 1583,-213.5 1583,-213.5 1577,-213.5 1571,-207.5 1571,-201.5 1571,-201.5 1571,-187.5 1571,-187.5 1571,-181.5 1577,-175.5 1583,-175.5"/>
<text text-anchor="middle" x="1666" y="-198.3" font-family="Dejavu Sans Mono" font-size="14.00">MISSING LABEL</text>
<text text-anchor="middle" x="1666" y="-183.3" font-family="Dejavu Sans Mono" font-size="14.00">(aacar:lnk&#45;sn&#45;mcg_12)</text>
</g>
<!-- naacar_lnk_sn_mcg_12&#45;&gt;naacar_ns180 -->
<g id="edge21" class="edge">
<title>naacar_lnk_sn_mcg_12&#45;&gt;naacar_ns180</title>
<path fill="none" stroke="black" d="M1761.27,-210.9C1817.95,-220.75 1888.91,-233.09 1940.86,-242.13"/>
<polygon fill="black" stroke="black" points="1940.54,-245.62 1950.99,-243.89 1941.74,-238.73 1940.54,-245.62"/>
<text text-anchor="middle" x="1845.5" y="-241.3" font-family="Dejavu Sans Mono" font-size="14.00">apinatomy:source</text>
</g>
<!-- naacar_ns181 -->
<g id="node36" class="node">
<title>naacar_ns181</title>
<path fill="none" stroke="black" d="M1963,-175.5C1963,-175.5 2063,-175.5 2063,-175.5 2069,-175.5 2075,-181.5 2075,-187.5 2075,-187.5 2075,-201.5 2075,-201.5 2075,-207.5 2069,-213.5 2063,-213.5 2063,-213.5 1963,-213.5 1963,-213.5 1957,-213.5 1951,-207.5 1951,-201.5 1951,-201.5 1951,-187.5 1951,-187.5 1951,-181.5 1957,-175.5 1963,-175.5"/>
<text text-anchor="middle" x="2013" y="-198.3" font-family="Dejavu Sans Mono" font-size="14.00">MISSING LABEL</text>
<text text-anchor="middle" x="2013" y="-183.3" font-family="Dejavu Sans Mono" font-size="14.00">(aacar:ns181)</text>
</g>
<!-- naacar_lnk_sn_mcg_12&#45;&gt;naacar_ns181 -->
<g id="edge29" class="edge">
<title>naacar_lnk_sn_mcg_12&#45;&gt;naacar_ns181</title>
<path fill="none" stroke="black" d="M1761.27,-194.5C1817.95,-194.5 1888.91,-194.5 1940.86,-194.5"/>
<polygon fill="black" stroke="black" points="1940.99,-198 1950.99,-194.5 1940.99,-191 1940.99,-198"/>
<text text-anchor="middle" x="1845.5" y="-198.3" font-family="Dejavu Sans Mono" font-size="14.00">apinatomy:target</text>
</g>
<!-- nUBERON_0000947 -->
<g id="node23" class="node">
<title>nUBERON_0000947</title>
<path fill="none" stroke="black" d="M4633,-137.5C4633,-137.5 4758,-137.5 4758,-137.5 4764,-137.5 4770,-143.5 4770,-149.5 4770,-149.5 4770,-163.5 4770,-163.5 4770,-169.5 4764,-175.5 4758,-175.5 4758,-175.5 4633,-175.5 4633,-175.5 4627,-175.5 4621,-169.5 4621,-163.5 4621,-163.5 4621,-149.5 4621,-149.5 4621,-143.5 4627,-137.5 4633,-137.5"/>
<text text-anchor="middle" x="4695.5" y="-160.3" font-family="Dejavu Sans Mono" font-size="14.00">aorta</text>
<text text-anchor="middle" x="4695.5" y="-145.3" font-family="Dejavu Sans Mono" font-size="14.00">(UBERON:0000947)</text>
</g>
<!-- ndoi_10_1002_cphy_c150046 -->
<g id="node24" class="node">
<title>ndoi_10_1002_cphy_c150046</title>
<path fill="none" stroke="black" d="M993.5,-82.5C993.5,-82.5 1200.5,-82.5 1200.5,-82.5 1206.5,-82.5 1212.5,-88.5 1212.5,-94.5 1212.5,-94.5 1212.5,-108.5 1212.5,-108.5 1212.5,-114.5 1206.5,-120.5 1200.5,-120.5 1200.5,-120.5 993.5,-120.5 993.5,-120.5 987.5,-120.5 981.5,-114.5 981.5,-108.5 981.5,-108.5 981.5,-94.5 981.5,-94.5 981.5,-88.5 987.5,-82.5 993.5,-82.5"/>
<text text-anchor="middle" x="1097" y="-105.3" font-family="Dejavu Sans Mono" font-size="14.00">MISSING LABEL</text>
<text text-anchor="middle" x="1097" y="-90.3" font-family="Dejavu Sans Mono" font-size="14.00">(doi:10.1002/cphy.c150046)</text>
</g>
<!-- ndoi_10_1002_cphy_c150046&#45;&gt;nelements_Reference -->
<g id="edge35" class="edge">
<title>ndoi_10_1002_cphy_c150046&#45;&gt;nelements_Reference</title>
<path fill="none" stroke="black" d="M1212.74,-93.41C1315.88,-86.13 1465.86,-75.55 1564.4,-68.6"/>
<polygon fill="black" stroke="black" points="1564.94,-72.07 1574.67,-67.87 1564.45,-65.09 1564.94,-72.07"/>
<text text-anchor="middle" x="1482.5" y="-83.3" font-family="Dejavu Sans Mono" font-size="14.00">type</text>
</g>
<!-- naacar_ac_sn_mcg_12_lyph_1&#45;&gt;napinatomy_BAG -->
<g id="edge1" class="edge">
<title>naacar_ac_sn_mcg_12_lyph_1&#45;&gt;napinatomy_BAG</title>
<path fill="none" stroke="black" d="M3122.28,-211.35C3156.08,-208.3 3192.96,-205.37 3227,-203.5 3524.34,-187.13 3599.52,-184.95 3897,-198.5 4004.45,-203.39 4033.06,-196.91 4138,-220.5 4166.49,-226.9 4197.12,-237.73 4222.12,-247.68"/>
<polygon fill="black" stroke="black" points="4220.83,-250.94 4231.42,-251.44 4223.46,-244.45 4220.83,-250.94"/>
<text text-anchor="middle" x="3682.5" y="-202.3" font-family="Dejavu Sans Mono" font-size="14.00">apinatomy:topology</text>
</g>
<!-- naacar_ac_sn_mcg_12_lyph_1&#45;&gt;nSAO_280355188 -->
<g id="edge53" class="edge">
<title>naacar_ac_sn_mcg_12_lyph_1&#45;&gt;nSAO_280355188</title>
<path fill="none" stroke="black" d="M3122.26,-231.72C3245.81,-241.28 3424.77,-258.35 3450,-278.5 3468.46,-293.24 3449.6,-313.69 3468,-328.5 3498.34,-352.93 3539.35,-362.11 3577.31,-364.41"/>
<polygon fill="black" stroke="black" points="3577.26,-367.91 3587.41,-364.86 3577.58,-360.92 3577.26,-367.91"/>
<text text-anchor="middle" x="3338.5" y="-282.3" font-family="Dejavu Sans Mono" font-size="14.00">apinatomy:inheritedExternal</text>
</g>
<!-- naacar_ns186&#45;&gt;naacar_ac_sn_icg_12_lnk_1 -->
<g id="edge12" class="edge">
<title>naacar_ns186&#45;&gt;naacar_ac_sn_icg_12_lnk_1</title>
<path fill="none" stroke="black" d="M2075.29,-480.5C2127.78,-480.5 2205.01,-480.5 2270.48,-480.5"/>
<polygon fill="black" stroke="black" points="2270.88,-484 2280.88,-480.5 2270.88,-477 2270.88,-484"/>
<text text-anchor="middle" x="2188.5" y="-484.3" font-family="Dejavu Sans Mono" font-size="14.00">apinatomy:sourceOf</text>
</g>
<!-- naacar_sn_mcg_12 -->
<g id="node27" class="node">
<title>naacar_sn_mcg_12</title>
<path fill="none" stroke="black" d="M820,-159.5C820,-159.5 1374,-159.5 1374,-159.5 1380,-159.5 1386,-165.5 1386,-171.5 1386,-171.5 1386,-185.5 1386,-185.5 1386,-191.5 1380,-197.5 1374,-197.5 1374,-197.5 820,-197.5 820,-197.5 814,-197.5 808,-191.5 808,-185.5 808,-185.5 808,-171.5 808,-171.5 808,-165.5 814,-159.5 820,-159.5"/>
<text text-anchor="middle" x="1097" y="-182.3" font-family="Dejavu Sans Mono" font-size="14.00">Soma of sensory neuron in middle cervical ganglion_Neuron 12 (aacar)</text>
<text text-anchor="middle" x="1097" y="-167.3" font-family="Dejavu Sans Mono" font-size="14.00">(aacar:sn&#45;mcg_12)</text>
</g>
<!-- naacar_sn_mcg_12&#45;&gt;naacar_lnk_sn_mcg_12 -->
<g id="edge15" class="edge">
<title>naacar_sn_mcg_12&#45;&gt;naacar_lnk_sn_mcg_12</title>
<path fill="none" stroke="black" d="M1386.07,-186.63C1448.71,-188.4 1511.05,-190.16 1560.86,-191.56"/>
<polygon fill="black" stroke="black" points="1560.88,-195.06 1570.97,-191.85 1561.08,-188.07 1560.88,-195.06"/>
<text text-anchor="middle" x="1482.5" y="-195.3" font-family="Dejavu Sans Mono" font-size="14.00">apinatomy:conveys</text>
</g>
<!-- naacar_sn_mcg_12&#45;&gt;naacar_A62 -->
<g id="edge9" class="edge">
<title>naacar_sn_mcg_12&#45;&gt;naacar_A62</title>
<path fill="none" stroke="black" d="M1224.66,-159.46C1364.84,-139.04 1581.95,-109.5 1665,-109.5 1665,-109.5 1665,-109.5 2397.5,-109.5 2552.28,-109.5 2729.36,-109.5 2851.58,-109.5"/>
<polygon fill="black" stroke="black" points="2851.75,-113 2861.75,-109.5 2851.75,-106 2851.75,-113"/>
<text text-anchor="middle" x="2013" y="-113.3" font-family="Dejavu Sans Mono" font-size="14.00">apinatomy:internalIn</text>
</g>
<!-- naacar_dc_sn_aorta_12_lnk_1&#45;&gt;naacar_ref_mat_AM_54_A79_3 -->
<g id="edge26" class="edge">
<title>naacar_dc_sn_aorta_12_lnk_1&#45;&gt;naacar_ref_mat_AM_54_A79_3</title>
<path fill="none" stroke="black" d="M3126.52,-285.78C3155.4,-279.03 3184.79,-268.33 3209,-251.5 3221.15,-243.06 3214.4,-231.25 3227,-223.5 3311.88,-171.33 3367.05,-255.69 3450,-200.5 3463.91,-191.25 3454.35,-177.13 3468,-167.5 3492.66,-150.09 3522.89,-140.27 3552.76,-134.98"/>
<polygon fill="black" stroke="black" points="3553.55,-138.4 3562.87,-133.35 3552.44,-131.49 3553.55,-138.4"/>
<text text-anchor="middle" x="3338.5" y="-227.3" font-family="Dejavu Sans Mono" font-size="14.00">apinatomy:endsIn</text>
</g>
<!-- naacar_dc_sn_aorta_12_lyph_1 -->
<g id="node35" class="node">
<title>naacar_dc_sn_aorta_12_lyph_1</title>
<path fill="none" stroke="black" d="M3480,-280.5C3480,-280.5 3885,-280.5 3885,-280.5 3891,-280.5 3897,-286.5 3897,-292.5 3897,-292.5 3897,-306.5 3897,-306.5 3897,-312.5 3891,-318.5 3885,-318.5 3885,-318.5 3480,-318.5 3480,-318.5 3474,-318.5 3468,-312.5 3468,-306.5 3468,-306.5 3468,-292.5 3468,-292.5 3468,-286.5 3474,-280.5 3480,-280.5"/>
<text text-anchor="middle" x="3682.5" y="-303.3" font-family="Dejavu Sans Mono" font-size="14.00">Axon sensory terminal or dendrite terminal (aacar)</text>
<text text-anchor="middle" x="3682.5" y="-288.3" font-family="Dejavu Sans Mono" font-size="14.00">(aacar:dc&#45;sn&#45;aorta_12_lyph_1)</text>
</g>
<!-- naacar_dc_sn_aorta_12_lnk_1&#45;&gt;naacar_dc_sn_aorta_12_lyph_1 -->
<g id="edge30" class="edge">
<title>naacar_dc_sn_aorta_12_lnk_1&#45;&gt;naacar_dc_sn_aorta_12_lyph_1</title>
<path fill="none" stroke="black" d="M3126.67,-297.05C3218.86,-297.45 3347.49,-298.02 3457.7,-298.51"/>
<polygon fill="black" stroke="black" points="3457.95,-302.01 3467.96,-298.56 3457.98,-295.01 3457.95,-302.01"/>
<text text-anchor="middle" x="3338.5" y="-301.3" font-family="Dejavu Sans Mono" font-size="14.00">apinatomy:conveyingLyph</text>
</g>
<!-- naacar_A62&#45;&gt;nUBERON_0001990 -->
<g id="edge38" class="edge">
<title>naacar_A62&#45;&gt;nUBERON_0001990</title>
<path fill="none" stroke="black" d="M3067.45,-90.38C3111.81,-77.88 3172.5,-62.3 3227,-53.5 3340.88,-35.11 3472.45,-26.64 3564.63,-22.75"/>
<polygon fill="black" stroke="black" points="3564.98,-26.24 3574.83,-22.34 3564.7,-19.25 3564.98,-26.24"/>
<text text-anchor="middle" x="3338.5" y="-57.3" font-family="Dejavu Sans Mono" font-size="14.00">apinatomy:ontologyTerms</text>
</g>
<!-- naacar_dc_sn_pulart_12_lnk_1&#45;&gt;naacar_ref_mat_AM_54_A95_3 -->
<g id="edge7" class="edge">
<title>naacar_dc_sn_pulart_12_lnk_1&#45;&gt;naacar_ref_mat_AM_54_A95_3</title>
<path fill="none" stroke="black" d="M3130.72,-160.35C3157.42,-155.84 3184.8,-148.7 3209,-137.5 3218.71,-133 3217.19,-125.79 3227,-121.5 3330.02,-76.4 3458.4,-67.46 3552.41,-68.46"/>
<polygon fill="black" stroke="black" points="3552.5,-71.96 3562.55,-68.6 3552.6,-64.96 3552.5,-71.96"/>
<text text-anchor="middle" x="3338.5" y="-125.3" font-family="Dejavu Sans Mono" font-size="14.00">apinatomy:endsIn</text>
</g>
<!-- naacar_dc_sn_pulart_12_lyph_1 -->
<g id="node37" class="node">
<title>naacar_dc_sn_pulart_12_lyph_1</title>
<path fill="none" stroke="black" d="M3480,-223.5C3480,-223.5 3885,-223.5 3885,-223.5 3891,-223.5 3897,-229.5 3897,-235.5 3897,-235.5 3897,-249.5 3897,-249.5 3897,-255.5 3891,-261.5 3885,-261.5 3885,-261.5 3480,-261.5 3480,-261.5 3474,-261.5 3468,-255.5 3468,-249.5 3468,-249.5 3468,-235.5 3468,-235.5 3468,-229.5 3474,-223.5 3480,-223.5"/>
<text text-anchor="middle" x="3682.5" y="-246.3" font-family="Dejavu Sans Mono" font-size="14.00">Axon sensory terminal or dendrite terminal (aacar)</text>
<text text-anchor="middle" x="3682.5" y="-231.3" font-family="Dejavu Sans Mono" font-size="14.00">(aacar:dc&#45;sn&#45;pulart_12_lyph_1)</text>
</g>
<!-- naacar_dc_sn_pulart_12_lnk_1&#45;&gt;naacar_dc_sn_pulart_12_lyph_1 -->
<g id="edge3" class="edge">
<title>naacar_dc_sn_pulart_12_lnk_1&#45;&gt;naacar_dc_sn_pulart_12_lyph_1</title>
<path fill="none" stroke="black" d="M3106.3,-147.49C3201,-135.2 3342.69,-130.36 3450,-185.5 3461.55,-191.43 3456.82,-201.91 3468,-208.5 3475.07,-212.66 3482.49,-216.37 3490.15,-219.65"/>
<polygon fill="black" stroke="black" points="3489.01,-222.97 3499.6,-223.46 3491.63,-216.48 3489.01,-222.97"/>
<text text-anchor="middle" x="3338.5" y="-189.3" font-family="Dejavu Sans Mono" font-size="14.00">apinatomy:conveyingLyph</text>
</g>
<!-- naacar_ns185&#45;&gt;naacar_dc_sn_icg_12_lnk_1 -->
<g id="edge13" class="edge">
<title>naacar_ns185&#45;&gt;naacar_dc_sn_icg_12_lnk_1</title>
<path fill="none" stroke="black" d="M2075.29,-423.5C2127.78,-423.5 2205.01,-423.5 2270.48,-423.5"/>
<polygon fill="black" stroke="black" points="2270.88,-427 2280.88,-423.5 2270.88,-420 2270.88,-427"/>
<text text-anchor="middle" x="2188.5" y="-427.3" font-family="Dejavu Sans Mono" font-size="14.00">apinatomy:sourceOf</text>
</g>
<!-- naacar_neuron_12&#45;&gt;naacar_sn_icg_12 -->
<g id="edge33" class="edge">
<title>naacar_neuron_12&#45;&gt;naacar_sn_icg_12</title>
<path fill="none" stroke="black" d="M561.43,-197.63C664.35,-245.74 933.74,-371.66 1045.88,-424.08"/>
<polygon fill="black" stroke="black" points="1044.74,-427.4 1055.28,-428.47 1047.7,-421.06 1044.74,-427.4"/>
<text text-anchor="middle" x="699" y="-300.3" font-family="Dejavu Sans Mono" font-size="14.00">apinatomy:lyphs</text>
</g>
<!-- naacar_neuron_12&#45;&gt;ndoi_10_1002_cphy_c150046 -->
<g id="edge2" class="edge">
<title>naacar_neuron_12&#45;&gt;ndoi_10_1002_cphy_c150046</title>
<path fill="none" stroke="black" d="M598.07,-162.55C604.13,-161.47 610.16,-160.43 616,-159.5 736.08,-140.33 873.98,-124.28 971.06,-113.96"/>
<polygon fill="black" stroke="black" points="971.64,-117.42 981.22,-112.89 970.9,-110.46 971.64,-117.42"/>
<text text-anchor="middle" x="699" y="-163.3" font-family="Dejavu Sans Mono" font-size="14.00">apinatomy:references</text>
</g>
<!-- naacar_neuron_12&#45;&gt;naacar_sn_mcg_12 -->
<g id="edge11" class="edge">
<title>naacar_neuron_12&#45;&gt;naacar_sn_mcg_12</title>
<path fill="none" stroke="black" d="M598.11,-178.5C650.57,-178.5 723.5,-178.5 797.39,-178.5"/>
<polygon fill="black" stroke="black" points="797.82,-182 807.82,-178.5 797.82,-175 797.82,-182"/>
<text text-anchor="middle" x="699" y="-182.3" font-family="Dejavu Sans Mono" font-size="14.00">apinatomy:lyphs</text>
</g>
<!-- naacar_A79&#45;&gt;nUBERON_0000947 -->
<g id="edge6" class="edge">
<title>naacar_A79&#45;&gt;nUBERON_0000947</title>
<path fill="none" stroke="black" d="M4337.73,-156.5C4409.82,-156.5 4529.93,-156.5 4610.64,-156.5"/>
<polygon fill="black" stroke="black" points="4610.77,-160 4620.77,-156.5 4610.77,-153 4610.77,-160"/>
<text text-anchor="middle" x="4508" y="-160.3" font-family="Dejavu Sans Mono" font-size="14.00">apinatomy:ontologyTerms</text>
</g>
<!-- naacar_dc_sn_aorta_12_lyph_1&#45;&gt;napinatomy_BAG -->
<g id="edge34" class="edge">
<title>naacar_dc_sn_aorta_12_lyph_1&#45;&gt;napinatomy_BAG</title>
<path fill="none" stroke="black" d="M3897.28,-297.26C3973.35,-295.44 4059.56,-292.21 4138,-286.5 4156.56,-285.15 4176.48,-283.14 4195.2,-280.99"/>
<polygon fill="black" stroke="black" points="4195.65,-284.46 4205.17,-279.82 4194.83,-277.51 4195.65,-284.46"/>
<text text-anchor="middle" x="4026.5" y="-300.3" font-family="Dejavu Sans Mono" font-size="14.00">apinatomy:topology</text>
</g>
<!-- naacar_dc_sn_aorta_12_lyph_1&#45;&gt;nSAO_420754792 -->
<g id="edge19" class="edge">
<title>naacar_dc_sn_aorta_12_lyph_1&#45;&gt;nSAO_420754792</title>
<path fill="none" stroke="black" d="M3836.26,-318.52C3856.73,-321.57 3877.41,-324.92 3897,-328.5 3998.94,-347.13 4114.92,-374.85 4191.11,-393.97"/>
<polygon fill="black" stroke="black" points="4190.58,-397.44 4201.13,-396.49 4192.29,-390.66 4190.58,-397.44"/>
<text text-anchor="middle" x="4026.5" y="-382.3" font-family="Dejavu Sans Mono" font-size="14.00">apinatomy:inheritedExternal</text>
</g>
<!-- naacar_ns181&#45;&gt;naacar_ac_sn_mcg_12_lnk_1 -->
<g id="edge52" class="edge">
<title>naacar_ns181&#45;&gt;naacar_ac_sn_mcg_12_lnk_1</title>
<path fill="none" stroke="black" d="M2075.29,-194.5C2127.78,-194.5 2205.01,-194.5 2270.48,-194.5"/>
<polygon fill="black" stroke="black" points="2270.88,-198 2280.88,-194.5 2270.88,-191 2270.88,-198"/>
<text text-anchor="middle" x="2188.5" y="-198.3" font-family="Dejavu Sans Mono" font-size="14.00">apinatomy:sourceOf</text>
</g>
<!-- naacar_dc_sn_pulart_12_lyph_1&#45;&gt;napinatomy_BAG -->
<g id="edge23" class="edge">
<title>naacar_dc_sn_pulart_12_lyph_1&#45;&gt;napinatomy_BAG</title>
<path fill="none" stroke="black" d="M3897.26,-224.93C3973.52,-222.18 4059.87,-223.1 4138,-233.5 4161.01,-236.56 4185.63,-242.41 4207.55,-248.56"/>
<polygon fill="black" stroke="black" points="4206.83,-252 4217.41,-251.4 4208.77,-245.27 4206.83,-252"/>
<text text-anchor="middle" x="4026.5" y="-237.3" font-family="Dejavu Sans Mono" font-size="14.00">apinatomy:topology</text>
</g>
<!-- naacar_dc_sn_pulart_12_lyph_1&#45;&gt;nSAO_420754792 -->
<g id="edge31" class="edge">
<title>naacar_dc_sn_pulart_12_lyph_1&#45;&gt;nSAO_420754792</title>
<path fill="none" stroke="black" d="M3897.18,-249.76C4009.84,-254.36 4127.09,-260.71 4138,-267.5 4151.85,-276.12 4146.07,-286.55 4156,-299.5 4182.08,-333.51 4217.91,-367.2 4243.32,-389.43"/>
<polygon fill="black" stroke="black" points="4241.33,-392.34 4251.18,-396.24 4245.91,-387.05 4241.33,-392.34"/>
<text text-anchor="middle" x="4026.5" y="-271.3" font-family="Dejavu Sans Mono" font-size="14.00">apinatomy:inheritedExternal</text>
</g>
<!-- naacar_A95&#45;&gt;nUBERON_0002012 -->
<g id="edge42" class="edge">
<title>naacar_A95&#45;&gt;nUBERON_0002012</title>
<path fill="none" stroke="black" d="M4383.06,-42.5C4453.66,-42.5 4544.98,-42.5 4610.45,-42.5"/>
<polygon fill="black" stroke="black" points="4610.73,-46 4620.73,-42.5 4610.73,-39 4610.73,-46"/>
<text text-anchor="middle" x="4508" y="-46.3" font-family="Dejavu Sans Mono" font-size="14.00">apinatomy:ontologyTerms</text>
</g>
</g>
</svg>
