<?xml version="1.0" encoding="UTF-8" standalone="no"?>
<!DOCTYPE svg PUBLIC "-//W3C//DTD SVG 1.1//EN"
 "http://www.w3.org/Graphics/SVG/1.1/DTD/svg11.dtd">
<!-- Generated by graphviz version 2.47.1 (20210417.1919)
 -->
<!-- Pages: 1 -->
<svg width="4269pt" height="47pt"
 viewBox="0.00 0.00 4269.00 47.00" xmlns="http://www.w3.org/2000/svg" xmlns:xlink="http://www.w3.org/1999/xlink">
<g id="graph0" class="graph" transform="scale(1 1) rotate(0) translate(4 43)">
<polygon fill="white" stroke="transparent" points="-4,4 -4,-43 4265,-43 4265,4 -4,4"/>
<!-- nbolew_neuron_2 -->
<g id="node1" class="node">
<title>nbolew_neuron_2</title>
<path fill="none" stroke="black" d="M3720,-0.5C3720,-0.5 4249,-0.5 4249,-0.5 4255,-0.5 4261,-6.5 4261,-12.5 4261,-12.5 4261,-26.5 4261,-26.5 4261,-32.5 4255,-38.5 4249,-38.5 4249,-38.5 3720,-38.5 3720,-38.5 3714,-38.5 3708,-32.5 3708,-26.5 3708,-26.5 3708,-12.5 3708,-12.5 3708,-6.5 3714,-0.5 3720,-0.5"/>
<text text-anchor="middle" x="3984.5" y="-23.3" font-family="Dejavu Sans Mono" font-size="14.00">Neuron population in T1 Rexed Lamina VII (scg projecting) (bolew)</text>
<text text-anchor="middle" x="3984.5" y="-8.3" font-family="Dejavu Sans Mono" font-size="14.00">(bolew:neuron&#45;2)</text>
</g>
<!-- nilxtr_neuron_type_bolew_2 -->
<g id="node2" class="node">
<title>nilxtr_neuron_type_bolew_2</title>
<path fill="none" stroke="black" d="M12,-0.5C12,-0.5 3503,-0.5 3503,-0.5 3509,-0.5 3515,-6.5 3515,-12.5 3515,-12.5 3515,-26.5 3515,-26.5 3515,-32.5 3509,-38.5 3503,-38.5 3503,-38.5 12,-38.5 12,-38.5 6,-38.5 0,-32.5 0,-26.5 0,-26.5 0,-12.5 0,-12.5 0,-6.5 6,-0.5 12,-0.5"/>
<text text-anchor="middle" x="1757.5" y="-23.3" font-family="Dejavu Sans Mono" font-size="14.00">Mammalia Rexed Lamina VII of T1 (with&#45;dendrite&#45;in Rexed Lamina VII of T1) (with&#45;axons&#45;in Anterior root of first thoracic nerve ICG&#45;MCG sympathetic cord MCG&#45;SCG sympathetic cord T1 paravertebral ganglion T1 white ramus) T1&#45;ICG sympathetic cord first thoracic spinal cord segment inferior cervical ganglion middle cervical ganglion (with&#45;presynaptic&#45;terminals&#45;in superior cervical ganglion) neuron projection phenotype (bolew)</text>
<text text-anchor="middle" x="1757.5" y="-8.3" font-family="Dejavu Sans Mono" font-size="14.00">(ilxtr:neuron&#45;type&#45;bolew&#45;2)</text>
</g>
<!-- nilxtr_neuron_type_bolew_2&#45;&gt;nbolew_neuron_2 -->
<g id="edge1" class="edge">
<title>nilxtr_neuron_type_bolew_2&#45;&gt;nbolew_neuron_2</title>
<path fill="none" stroke="black" d="M3515.03,-19.5C3581.02,-19.5 3642.41,-19.5 3697.57,-19.5"/>
<polygon fill="black" stroke="black" points="3697.79,-23 3707.79,-19.5 3697.79,-16 3697.79,-23"/>
<text text-anchor="middle" x="3611.5" y="-23.3" font-family="Dejavu Sans Mono" font-size="14.00">apinatomy:annotates</text>
</g>
</g>
</svg>
