<?xml version="1.0" encoding="UTF-8" standalone="no"?>
<!DOCTYPE svg PUBLIC "-//W3C//DTD SVG 1.1//EN"
 "http://www.w3.org/Graphics/SVG/1.1/DTD/svg11.dtd">
<!-- Generated by graphviz version 2.47.1 (20210417.1919)
 -->
<!-- Pages: 1 -->
<svg width="2652pt" height="161pt"
 viewBox="0.00 0.00 2652.00 161.00" xmlns="http://www.w3.org/2000/svg" xmlns:xlink="http://www.w3.org/1999/xlink">
<g id="graph0" class="graph" transform="scale(1 1) rotate(0) translate(4 157)">
<polygon fill="white" stroke="transparent" points="-4,4 -4,-157 2648,-157 2648,4 -4,4"/>
<!-- nilxtr_neuron_type_bolew_10 -->
<g id="node1" class="node">
<title>nilxtr_neuron_type_bolew_10</title>
<path fill="none" stroke="black" d="M12,-0.5C12,-0.5 1952,-0.5 1952,-0.5 1958,-0.5 1964,-6.5 1964,-12.5 1964,-12.5 1964,-26.5 1964,-26.5 1964,-32.5 1958,-38.5 1952,-38.5 1952,-38.5 12,-38.5 12,-38.5 6,-38.5 0,-32.5 0,-26.5 0,-26.5 0,-12.5 0,-12.5 0,-6.5 6,-0.5 12,-0.5"/>
<text text-anchor="middle" x="982" y="-23.3" font-family="Dejavu Sans Mono" font-size="14.00">Mammalia Nodose Ganglion (with&#45;dendrites&#45;in Pharyngeal branch of the Hypoglossal nerve) epiglottis vagus nerve (with&#45;axon&#45;in vagus nerve) (with&#45;presynaptic&#45;terminals&#45;in solitary tract nuclear complex) neuron projection phenotype (bolew)</text>
<text text-anchor="middle" x="982" y="-8.3" font-family="Dejavu Sans Mono" font-size="14.00">(ilxtr:neuron&#45;type&#45;bolew&#45;10)</text>
</g>
<!-- nbolew_neuron_10 -->
<g id="node2" class="node">
<title>nbolew_neuron_10</title>
<path fill="none" stroke="black" d="M2169,-0.5C2169,-0.5 2632,-0.5 2632,-0.5 2638,-0.5 2644,-6.5 2644,-12.5 2644,-12.5 2644,-26.5 2644,-26.5 2644,-32.5 2638,-38.5 2632,-38.5 2632,-38.5 2169,-38.5 2169,-38.5 2163,-38.5 2157,-32.5 2157,-26.5 2157,-26.5 2157,-12.5 2157,-12.5 2157,-6.5 2163,-0.5 2169,-0.5"/>
<text text-anchor="middle" x="2400.5" y="-23.3" font-family="Dejavu Sans Mono" font-size="14.00">Neuron population in nodose ganglion epi proj (3) (bolew)</text>
<text text-anchor="middle" x="2400.5" y="-8.3" font-family="Dejavu Sans Mono" font-size="14.00">(bolew:neuron&#45;10)</text>
</g>
<!-- nilxtr_neuron_type_bolew_10&#45;&gt;nbolew_neuron_10 -->
<g id="edge3" class="edge">
<title>nilxtr_neuron_type_bolew_10&#45;&gt;nbolew_neuron_10</title>
<path fill="none" stroke="black" d="M1964.39,-19.5C2029.7,-19.5 2091.34,-19.5 2146.58,-19.5"/>
<polygon fill="black" stroke="black" points="2146.82,-23 2156.82,-19.5 2146.82,-16 2146.82,-23"/>
<text text-anchor="middle" x="2060.5" y="-23.3" font-family="Dejavu Sans Mono" font-size="14.00">apinatomy:annotates</text>
</g>
<!-- nilxtr_neuron_type_bolew_9 -->
<g id="node3" class="node">
<title>nilxtr_neuron_type_bolew_9</title>
<path fill="none" stroke="black" d="M103,-57.5C103,-57.5 1861,-57.5 1861,-57.5 1867,-57.5 1873,-63.5 1873,-69.5 1873,-69.5 1873,-83.5 1873,-83.5 1873,-89.5 1867,-95.5 1861,-95.5 1861,-95.5 103,-95.5 103,-95.5 97,-95.5 91,-89.5 91,-83.5 91,-83.5 91,-69.5 91,-69.5 91,-63.5 97,-57.5 103,-57.5"/>
<text text-anchor="middle" x="982" y="-80.3" font-family="Dejavu Sans Mono" font-size="14.00">Mammalia Nodose Ganglion (with&#45;dendrites&#45;in larynx superior laryngeal nerve) vagus nerve (with&#45;axon&#45;in vagus nerve) (with&#45;presynaptic&#45;terminals&#45;in solitary tract nuclear complex) neuron projection phenotype (bolew)</text>
<text text-anchor="middle" x="982" y="-65.3" font-family="Dejavu Sans Mono" font-size="14.00">(ilxtr:neuron&#45;type&#45;bolew&#45;9)</text>
</g>
<!-- nbolew_neuron_9 -->
<g id="node4" class="node">
<title>nbolew_neuron_9</title>
<path fill="none" stroke="black" d="M2169,-57.5C2169,-57.5 2632,-57.5 2632,-57.5 2638,-57.5 2644,-63.5 2644,-69.5 2644,-69.5 2644,-83.5 2644,-83.5 2644,-89.5 2638,-95.5 2632,-95.5 2632,-95.5 2169,-95.5 2169,-95.5 2163,-95.5 2157,-89.5 2157,-83.5 2157,-83.5 2157,-69.5 2157,-69.5 2157,-63.5 2163,-57.5 2169,-57.5"/>
<text text-anchor="middle" x="2400.5" y="-80.3" font-family="Dejavu Sans Mono" font-size="14.00">Neuron population in nodose ganglion lar proj (2) (bolew)</text>
<text text-anchor="middle" x="2400.5" y="-65.3" font-family="Dejavu Sans Mono" font-size="14.00">(bolew:neuron&#45;9)</text>
</g>
<!-- nilxtr_neuron_type_bolew_9&#45;&gt;nbolew_neuron_9 -->
<g id="edge1" class="edge">
<title>nilxtr_neuron_type_bolew_9&#45;&gt;nbolew_neuron_9</title>
<path fill="none" stroke="black" d="M1873.05,-76.5C1972.18,-76.5 2066.22,-76.5 2146.65,-76.5"/>
<polygon fill="black" stroke="black" points="2146.89,-80 2156.89,-76.5 2146.89,-73 2146.89,-80"/>
<text text-anchor="middle" x="2060.5" y="-80.3" font-family="Dejavu Sans Mono" font-size="14.00">apinatomy:annotates</text>
</g>
<!-- nbolew_neuron_8 -->
<g id="node5" class="node">
<title>nbolew_neuron_8</title>
<path fill="none" stroke="black" d="M2173,-114.5C2173,-114.5 2628,-114.5 2628,-114.5 2634,-114.5 2640,-120.5 2640,-126.5 2640,-126.5 2640,-140.5 2640,-140.5 2640,-146.5 2634,-152.5 2628,-152.5 2628,-152.5 2173,-152.5 2173,-152.5 2167,-152.5 2161,-146.5 2161,-140.5 2161,-140.5 2161,-126.5 2161,-126.5 2161,-120.5 2167,-114.5 2173,-114.5"/>
<text text-anchor="middle" x="2400.5" y="-137.3" font-family="Dejavu Sans Mono" font-size="14.00">Neuron population in nodose ganglion aa proj (1) (bolew)</text>
<text text-anchor="middle" x="2400.5" y="-122.3" font-family="Dejavu Sans Mono" font-size="14.00">(bolew:neuron&#45;8)</text>
</g>
<!-- nilxtr_neuron_type_bolew_8 -->
<g id="node6" class="node">
<title>nilxtr_neuron_type_bolew_8</title>
<path fill="none" stroke="black" d="M61.5,-114.5C61.5,-114.5 1902.5,-114.5 1902.5,-114.5 1908.5,-114.5 1914.5,-120.5 1914.5,-126.5 1914.5,-126.5 1914.5,-140.5 1914.5,-140.5 1914.5,-146.5 1908.5,-152.5 1902.5,-152.5 1902.5,-152.5 61.5,-152.5 61.5,-152.5 55.5,-152.5 49.5,-146.5 49.5,-140.5 49.5,-140.5 49.5,-126.5 49.5,-126.5 49.5,-120.5 55.5,-114.5 61.5,-114.5"/>
<text text-anchor="middle" x="982" y="-137.3" font-family="Dejavu Sans Mono" font-size="14.00">Mammalia Nodose Ganglion (with&#45;dendrites&#45;in Aortic arch depressor nerve) arch of aorta vagus nerve (with&#45;axon&#45;in vagus nerve) (with&#45;presynaptic&#45;terminals&#45;in solitary tract nuclear complex) neuron projection phenotype (bolew)</text>
<text text-anchor="middle" x="982" y="-122.3" font-family="Dejavu Sans Mono" font-size="14.00">(ilxtr:neuron&#45;type&#45;bolew&#45;8)</text>
</g>
<!-- nilxtr_neuron_type_bolew_8&#45;&gt;nbolew_neuron_8 -->
<g id="edge2" class="edge">
<title>nilxtr_neuron_type_bolew_8&#45;&gt;nbolew_neuron_8</title>
<path fill="none" stroke="black" d="M1914.99,-133.5C2000.3,-133.5 2080.78,-133.5 2150.74,-133.5"/>
<polygon fill="black" stroke="black" points="2150.98,-137 2160.98,-133.5 2150.98,-130 2150.98,-137"/>
<text text-anchor="middle" x="2060.5" y="-137.3" font-family="Dejavu Sans Mono" font-size="14.00">apinatomy:annotates</text>
</g>
</g>
</svg>
